<svg xmlns="http://www.w3.org/2000/svg" width="20" height="24.5"><g transform="translate(-16.5 -3.375)" opacity=".6" fill="none" stroke="#fff" stroke-linecap="round" stroke-linejoin="round" stroke-width="2"><rect data-name="Rectángulo 157" width="18" height="22.5" rx="2" transform="translate(17.5 4.375)"/><path data-name="Trazado 5200" d="M21.5 8a.375.375 0 0 1 .375.375"/><path data-name="Trazado 5201" d="M21.125 8.375A.375.375 0 0 1 21.5 8"/><path data-name="Trazado 5202" d="M21.5 8.75a.375.375 0 0 1-.375-.375"/><path data-name="Trazado 5203" d="M21.875 8.375a.375.375 0 0 1-.375.375"/><path data-name="Trazado 5204" d="M31.5 22.499a.375.375 0 0 1 .375.375"/><path data-name="Trazado 5205" d="M31.124 22.874a.375.375 0 0 1 .375-.375"/><path data-name="Trazado 5206" d="M31.499 23.25a.375.375 0 0 1-.375-.375"/><path data-name="Trazado 5207" d="M31.875 22.875a.375.375 0 0 1-.375.375"/><path data-name="Trazado 5208" d="M27.25 12.209a.75.75 0 0 0-1.248 0l-2.376 3.334a.75.75 0 0 0 0 .832L26 19.709a.75.75 0 0 0 1.248 0l2.376-3.334a.75.75 0 0 0 0-.832Z"/></g></svg>