<svg xmlns="http://www.w3.org/2000/svg" width="208.209" height="212.188"><path d="M208.209 106.094c0-1.326-2.652-1.989-2.652-1.989-46.416-13.925-85.538-51.058-97.474-94.822l-1.989-7.294S105.431 0 104.1 0s-1.989 1.989-1.989 1.989l-1.989 7.294C88.19 53.047 49.068 90.18 2.652 104.1c0 0-2.652.663-2.652 1.989s2.652 1.989 2.652 1.989c46.416 13.925 85.538 51.058 97.473 94.821l1.989 7.294s.663 1.989 1.989 1.989 1.989-1.989 1.989-1.989l1.989-7.294c11.936-43.764 51.058-80.9 97.473-94.821-.663.663 1.989 0 2.652-1.989" fill="#ff293e"/><g data-name="Group 808" transform="translate(83.519 84.042)" fill="#fff"><circle data-name="Ellipse 790" cx="40" cy="40" r="40" transform="translate(-19.415 -17.542)" opacity=".2"/><circle data-name="Ellipse 791" cx="30" cy="30" r="30" transform="translate(-9.414 -7.542)" opacity=".2"/><text data-name="3" transform="translate(20.585 33.958)" font-size="32" font-family="SegoeUI-Bold, Segoe UI" font-weight="700"><tspan x="-9.203" y="0">3</tspan></text></g></svg>