<svg xmlns="http://www.w3.org/2000/svg" width="1920" height="385" viewBox="70.729 90.186 1920 385" xml:space="preserve"><path fill="#FF293E" d="M227.835 353.303c0-.246-.492-.369-.492-.369-8.617-2.586-15.88-9.479-18.101-17.6l-.36-1.363s-.127-.367-.373-.367-.369.367-.369.367l-.369 1.355c-2.216 8.125-9.479 15.018-18.1 17.6 0 0-.492.123-.492.369s.492.369.492.369c8.616 2.584 15.88 9.479 18.1 17.6l.369 1.354s.123.369.369.369.369-.369.369-.369l.368-1.354c2.217-8.125 9.479-15.018 18.101-17.6-.123.123.369 0 .492-.369M1846.23 124.393c0-.246-.492-.369-.492-.369-8.617-2.585-15.88-9.479-18.101-17.6l-.36-1.362s-.127-.369-.373-.369-.369.369-.369.369l-.369 1.354c-2.216 8.125-9.479 15.018-18.1 17.6 0 0-.492.123-.492.369s.492.369.492.369c8.616 2.585 15.88 9.479 18.1 17.6l.369 1.354s.123.369.369.369.369-.369.369-.369l.368-1.354c2.217-8.125 9.479-15.018 18.101-17.6-.123.123.369 0 .492-.369m89.845 72.129c0-.09-.18-.135-.18-.135a9.8 9.8 0 0 1-6.626-6.445l-.136-.5s-.045-.131-.135-.131-.135.135-.135.135l-.135.5a9.798 9.798 0 0 1-6.626 6.441s-.181.045-.181.135c0 .09.181.135.181.135a9.802 9.802 0 0 1 6.625 6.445l.135.5s.045.135.135.135c.091 0 .136-.135.136-.135l.135-.5a9.796 9.796 0 0 1 6.625-6.445c-.045.045.135 0 .18-.135m-62.438 110.869c0-.09-.181-.135-.181-.135a9.8 9.8 0 0 1-6.626-6.445l-.135-.5s-.045-.131-.135-.131-.135.137-.135.137l-.136.5a9.795 9.795 0 0 1-6.626 6.439s-.18.045-.18.135c0 .092.18.137.18.137a9.797 9.797 0 0 1 6.625 6.443l.135.5s.046.137.136.137.135-.137.135-.137l.135-.5a9.8 9.8 0 0 1 6.625-6.443c-.045.045.136 0 .181-.137M299.97 428.774c0-.584-1.165-.875-1.165-.875-20.394-6.113-37.574-22.426-42.816-41.648l-.877-3.203s-.288-.875-.871-.875-.874.875-.874.875l-.874 3.199c-5.241 19.227-22.427 35.539-42.815 41.656 0 0-1.165.291-1.165.873 0 .584 1.165.875 1.165.875 20.389 6.115 37.574 22.422 42.815 41.65l.874 3.199s.291.875.874.875.874-.875.874-.875l.874-3.199c5.242-19.229 22.423-35.535 42.816-41.65-.291.291.874 0 1.165-.875m-37.79-292.173c0-.583-1.165-.874-1.165-.874-20.394-6.114-37.574-22.426-42.816-41.648l-.877-3.204s-.288-.874-.871-.874-.874.874-.874.874l-.874 3.2c-5.241 19.226-22.427 35.538-42.815 41.655 0 0-1.165.291-1.165.874s1.165.874 1.165.874c20.389 6.116 37.574 22.423 42.815 41.651l.874 3.2s.291.874.874.874.874-.874.874-.874l.874-3.2c5.242-19.228 22.423-35.535 42.816-41.651-.291.291.874 0 1.165-.874m-116.036 99.908c0-.09-.18-.135-.18-.135a9.797 9.797 0 0 1-6.626-6.445l-.136-.5s-.045-.131-.135-.131-.135.135-.135.135l-.135.5a9.8 9.8 0 0 1-6.626 6.441s-.181.045-.181.135c0 .09.181.135.181.135a9.802 9.802 0 0 1 6.625 6.445l.135.5s.045.135.135.135.135-.135.135-.135l.136-.5a9.796 9.796 0 0 1 6.625-6.445c-.046.045.135 0 .18-.135m1731.628-13.091c0-.246-.492-.369-.492-.369-8.617-2.585-15.88-9.479-18.1-17.6l-.361-1.362s-.127-.369-.373-.369-.369.369-.369.369l-.369 1.354c-2.216 8.125-9.479 15.018-18.1 17.6 0 0-.492.123-.492.369s.492.369.492.369c8.617 2.585 15.88 9.479 18.1 17.6l.369 1.354s.123.369.369.369.369-.369.369-.369l.369-1.354c2.216-8.125 9.479-15.018 18.1-17.6-.123.123.369 0 .492-.369m91.63 158.656-.877-3.203s-.288-.875-.871-.875-.874.875-.874.875l-.874 3.199c-5.242 19.227-22.427 35.539-42.815 41.654 0 0-1.166.291-1.166.875 0 .582 1.166.873 1.166.873 20.389 6.117 37.573 22.424 42.815 41.652l.874 3.199s.291.875.874.875.874-.875.874-.875l.874-3.199c3.238-11.877 11.034-22.636 21.325-30.57v-23.913c-10.291-7.934-18.087-18.694-21.325-30.567z"/></svg>