<svg xmlns="http://www.w3.org/2000/svg" width="30" height="30"><g transform="translate(-7.5)"><circle data-name="Elipse 778" cx="15" cy="15" r="15" transform="translate(7.5)" fill="#13171d" opacity=".2"/><circle data-name="Elipse 779" cx="11" cy="11" r="11" transform="translate(11.5 4)" fill="#fff"/><path data-name="Trazado 5483" d="M24.117 20.521a2.938 2.938 0 0 0 3.685-.405l.415-.405a.995.995 0 0 0 0-1.391l-1.76-1.741a.986.986 0 0 0-1.382 0 .995.995 0 0 1-1.391 0l-2.763-2.764a.976.976 0 0 1 0-1.391.986.986 0 0 0 0-1.382l-1.75-1.75a.995.995 0 0 0-1.391 0l-.406.417a2.938 2.938 0 0 0-.405 3.683 26.658 26.658 0 0 0 7.148 7.13" fill="#00d1bc"/></g></svg>