<svg xmlns="http://www.w3.org/2000/svg" width="22" height="22.015"><g transform="translate(-27.571 -27.569)" fill="none" stroke="#13171d" stroke-linecap="round" stroke-linejoin="round" stroke-width="2"><ellipse data-name="Elipse 757" cx="6.923" cy="3.077" rx="6.923" ry="3.077" transform="translate(34.725 33.199)"/><path data-name="Trazado 5408" d="M34.725 36.276v9.231c0 1.692 3.077 3.077 6.923 3.077s6.923-1.385 6.923-3.077v-9.231"/><path data-name="Trazado 5409" d="M48.571 40.892c0 1.692-3.077 3.077-6.923 3.077s-6.923-1.385-6.923-3.077"/><path data-name="Trazado 5410" d="M41.494 30.123a10.415 10.415 0 0 0-6-1.538c-3.831 0-6.923 1.385-6.923 3.077 0 .908.892 1.723 2.308 2.308"/><path data-name="Trazado 5411" d="M30.879 43.202c-1.415-.585-2.308-1.4-2.308-2.308v-9.231"/><path data-name="Trazado 5412" d="M30.879 38.584c-1.415-.585-2.308-1.4-2.308-2.308"/></g></svg>