<svg id="logo-landing-6" xmlns="http://www.w3.org/2000/svg" width="140.417" height="34.032" viewBox="0 0 140.417 34.032">
  <path id="Trazado_4204" data-name="Trazado 4204" d="M105.046,55.043H97.31a1.111,1.111,0,0,0-1.075.9L93.112,75.753a.63.63,0,0,0,.624.729h3.955a.719.719,0,0,0,.729-.624l.9-5.62a1.057,1.057,0,0,1,1.075-.9h2.428c5.1,0,8.014-2.463,8.777-7.354a6.086,6.086,0,0,0-.971-5c-1.075-1.249-3.018-1.943-5.585-1.943Zm.867,7.216c-.416,2.775-2.532,2.775-4.579,2.775h-1.179l.833-5.169a.635.635,0,0,1,.624-.555h.52c1.388,0,2.706,0,3.4.8a2.479,2.479,0,0,1,.382,2.151Z" transform="translate(3.1 -47.446)" fill="#fff"/>
  <path id="Trazado_4205" data-name="Trazado 4205" d="M73.68,55.043H65.944a1.111,1.111,0,0,0-1.075.9L61.747,75.753a.63.63,0,0,0,.624.729h3.677a1.111,1.111,0,0,0,1.075-.9l.833-5.342a1.057,1.057,0,0,1,1.075-.9H71.46c5.1,0,8.014-2.463,8.777-7.354a6.086,6.086,0,0,0-.971-5C78.19,55.737,76.248,55.043,73.68,55.043Zm.867,7.216c-.416,2.775-2.532,2.775-4.579,2.775H68.789l.833-5.169a.635.635,0,0,1,.624-.555h.52c1.388,0,2.706,0,3.4.8a2.479,2.479,0,0,1,.382,2.151Z" transform="translate(-20.589 -47.446)" fill="rgba(255,255,255,0.6)"/>
  <path id="Trazado_4206" data-name="Trazado 4206" d="M89.21,59.263H85.5a.635.635,0,0,0-.624.555L84.7,60.859l-.243-.382c-.8-1.145-2.567-1.561-4.371-1.561A8.5,8.5,0,0,0,71.83,66.34a6.979,6.979,0,0,0,1.388,5.689A5.83,5.83,0,0,0,77.866,73.9a7,7,0,0,0,5.1-2.116l-.173,1.041a.63.63,0,0,0,.624.729h3.33a1.111,1.111,0,0,0,1.075-.9l2.012-12.662A.63.63,0,0,0,89.21,59.263Zm-5.169,7.181a4.125,4.125,0,0,1-4.163,3.538,2.888,2.888,0,0,1-3.087-3.608A4.176,4.176,0,0,1,80.919,62.8a3.113,3.113,0,0,1,2.463,1.006,3.054,3.054,0,0,1,.659,2.636Z" transform="translate(-13.049 -44.52)" fill="rgba(255,255,255,0.6)"/>
  <path id="Trazado_4207" data-name="Trazado 4207" d="M120.575,59.263h-3.712a.635.635,0,0,0-.624.555l-.173,1.041-.243-.382c-.8-1.145-2.567-1.561-4.371-1.561A8.5,8.5,0,0,0,103.2,66.34a6.979,6.979,0,0,0,1.388,5.689,5.83,5.83,0,0,0,4.649,1.873,7,7,0,0,0,5.1-2.116l-.173,1.041a.63.63,0,0,0,.624.729h3.33a1.111,1.111,0,0,0,1.075-.9L121.2,59.992A.63.63,0,0,0,120.575,59.263Zm-5.169,7.181a4.125,4.125,0,0,1-4.163,3.538,2.888,2.888,0,0,1-3.087-3.608,4.176,4.176,0,0,1,4.128-3.573,3.113,3.113,0,0,1,2.463,1.006,3.054,3.054,0,0,1,.659,2.636Z" transform="translate(10.64 -44.52)" fill="#fff"/>
  <path id="Trazado_4208" data-name="Trazado 4208" d="M100.309,59.114H96.6a1.09,1.09,0,0,0-.9.486l-5.1,7.528-2.185-7.25a1.083,1.083,0,0,0-1.041-.763H83.727a.663.663,0,0,0-.624.867l4.093,12L83.345,77.4a.634.634,0,0,0,.52,1.006h3.712a1.037,1.037,0,0,0,.867-.451l12.35-17.831A.613.613,0,0,0,100.309,59.114Z" transform="translate(-4.478 -44.371)" fill="rgba(255,255,255,0.6)"/>
  <path id="Trazado_4209" data-name="Trazado 4209" d="M116.883,55.6l-3.157,20.155a.63.63,0,0,0,.624.729h3.192a1.111,1.111,0,0,0,1.075-.9l3.122-19.808a.63.63,0,0,0-.624-.729h-3.573A.7.7,0,0,0,116.883,55.6Z" transform="translate(18.668 -47.446)" fill="#fff"/>
  <path id="Trazado_4210" data-name="Trazado 4210" d="M64.312,59.352c.416-2.636,0-4.44-1.422-6.071-1.561-1.8-4.44-2.567-8.083-2.567H44.226A1.525,1.525,0,0,0,42.735,52L38.329,79.959a.9.9,0,0,0,.9,1.041h6.522L45.3,83.844a.794.794,0,0,0,.8.9h5.516a1.342,1.342,0,0,0,1.318-1.11L53,83.358l1.041-6.591.069-.347a1.31,1.31,0,0,1,1.318-1.11h.833c5.342,0,9.505-2.151,10.719-8.43.52-2.636.243-4.822-1.11-6.348a5.788,5.788,0,0,0-1.561-1.179" transform="translate(-38.279 -50.714)" fill="#fff"/>
  <path id="Trazado_4211" data-name="Trazado 4211" d="M64.312,59.352c.416-2.636,0-4.44-1.422-6.071-1.561-1.8-4.44-2.567-8.083-2.567H44.226A1.525,1.525,0,0,0,42.735,52L38.329,79.959a.9.9,0,0,0,.9,1.041h6.522l1.63-10.407-.035.312a1.5,1.5,0,0,1,1.492-1.284h3.122c6.106,0,10.893-2.463,12.28-9.644a3.823,3.823,0,0,1,.069-.624" transform="translate(-38.279 -50.714)" fill="#202020"/>
  <path id="Trazado_4212" data-name="Trazado 4212" d="M49.167,59.387a1.375,1.375,0,0,1,.729-1.006,1.633,1.633,0,0,1,.555-.139h8.291a16.922,16.922,0,0,1,2.741.208,4.094,4.094,0,0,1,.694.139c.208.069.451.1.659.173l.312.1a8.733,8.733,0,0,1,1.145.486c.416-2.636,0-4.44-1.422-6.071-1.561-1.8-4.44-2.567-8.083-2.567H44.206A1.525,1.525,0,0,0,42.715,52L38.309,79.959a.9.9,0,0,0,.9,1.041h6.522l1.63-10.407Z" transform="translate(-38.294 -50.714)" fill="rgba(255,255,255,0.6)"/>
</svg>
