<?xml version="1.0" encoding="utf-8"?>
<!-- Generator: Adobe Illustrator 27.0.1, SVG Export Plug-In . SVG Version: 6.00 Build 0)  -->
<svg version="1.1" id="Capa_1" xmlns="http://www.w3.org/2000/svg" xmlns:xlink="http://www.w3.org/1999/xlink" x="0px" y="0px"
	 viewBox="0 0 150 75" style="enable-background:new 0 0 150 75;" xml:space="preserve">
<style type="text/css">
	.st0{fill:#FFFFFF;}
</style>
<path id="logo-landing-1" class="st0" d="M121.9,40.4l0,0.1l-6.1,0l5.4-9.2L121.9,40.4z M62.5,56.5c-0.4-0.4-0.4-1.1,0-2.2l12.5-35
	l0.7-0.8l0-0.1l-13.6,0c0,0,0,0.1,0,0.1c0,0,0,0,0,0c0.1,1,0,2-0.4,2.9L50.3,53.8c-0.3,1-0.8,1.9-1.6,2.6L62.5,56.5L62.5,56.5z
	 M96.4,53.1c5.7-5.9,5.3-11.4-1.2-16.5c-0.3-0.2-2.2-1.5-5.6-3.7c-3.1-2-4.5-3.1-4.5-4.8c-0.1-2.4,3-4.3,8.2-3.5
	c3.2,0.6,6.1,2,8.5,4.2l0.3,0l1.5-8.1c-2.2-1.6-4.6-2.7-7.3-3.4c-8.7-2-23.5,1.3-23.1,13c0.1,3.9,2.3,6.8,6.4,8.8l1.1,0.5
	c3.2,1.5,7.8,3.8,7.6,7.3c-0.2,5-11,4.2-17-0.2l-2.5-2l-0.2,8.2c0,1.2,3.2,2.9,5,3.6C81.2,59.3,90.8,58.9,96.4,53.1L96.4,53.1z
	 M134.2,56.4l-0.3-2.4l-2.3-35.6l-11.9,0l-0.1,1L97,56.5l10.7,0c-0.3-0.7-0.4-1.5-0.1-2.2l4.5-7.3l10.6-0.2c0,0.2,0.1,2.3,0.2,6.5
	c0.1,1.1,0,2.2-0.2,3.2L134.2,56.4z M48.4,18.5l0.2,1.3L33,43.6c-0.1,0-0.1-0.1-0.2,0l-0.1-25H15.8c0.2,0.2,0.8,0.6,1.6,1.4
	c0.9,0.6,1.6,1.4,2.2,2.3c0.6,0.8,1.1,1.7,1.3,2.6l0.1,31.8l12.3,0.1L60,18.5L48.4,18.5z"/>
</svg>
