<svg xmlns="http://www.w3.org/2000/svg" width="79.999" height="19.389" viewBox="0 0 79.999 19.389">
  <g id="logo-paypal" transform="translate(-38.294 -50.714)">
    <path id="Trazado_4204" data-name="Trazado 4204" d="M99.907,55.043H95.5a.633.633,0,0,0-.613.514L93.108,66.842a.359.359,0,0,0,.356.415h2.253a.409.409,0,0,0,.415-.356l.514-3.2a.6.6,0,0,1,.613-.514h1.383c2.905,0,4.565-1.4,5-4.19a3.467,3.467,0,0,0-.553-2.846,4.1,4.1,0,0,0-3.182-1.107Zm.494,4.111c-.237,1.581-1.443,1.581-2.609,1.581H97.12l.474-2.945a.362.362,0,0,1,.356-.316h.3c.791,0,1.542,0,1.937.455a1.412,1.412,0,0,1,.217,1.225Z" fill="#999"/>
    <path id="Trazado_4205" data-name="Trazado 4205" d="M68.542,55.043H64.134a.633.633,0,0,0-.613.514L61.743,66.842a.359.359,0,0,0,.356.415h2.095a.633.633,0,0,0,.613-.514L65.28,63.7a.6.6,0,0,1,.613-.514h1.383c2.905,0,4.565-1.4,5-4.19a3.467,3.467,0,0,0-.553-2.846A4.1,4.1,0,0,0,68.542,55.043Zm.494,4.111c-.237,1.581-1.443,1.581-2.609,1.581h-.672l.474-2.945a.362.362,0,0,1,.356-.316h.3c.791,0,1.542,0,1.937.455a1.412,1.412,0,0,1,.217,1.225Z" fill="#666"/>
    <path id="Trazado_4206" data-name="Trazado 4206" d="M81.685,59.114H79.57a.362.362,0,0,0-.356.316l-.1.593-.138-.217a3.018,3.018,0,0,0-2.49-.889,4.844,4.844,0,0,0-4.7,4.229,3.976,3.976,0,0,0,.791,3.241,3.321,3.321,0,0,0,2.648,1.067,3.988,3.988,0,0,0,2.905-1.206l-.1.593a.359.359,0,0,0,.356.415h1.9a.633.633,0,0,0,.613-.514l1.146-7.214a.359.359,0,0,0-.356-.415ZM78.74,63.205a2.35,2.35,0,0,1-2.372,2.016,1.646,1.646,0,0,1-1.759-2.055,2.379,2.379,0,0,1,2.352-2.036,1.773,1.773,0,0,1,1.4.573,1.74,1.74,0,0,1,.376,1.5Z" fill="#666"/>
    <path id="Trazado_4207" data-name="Trazado 4207" d="M113.05,59.114h-2.115a.362.362,0,0,0-.356.316l-.1.593-.138-.217a3.018,3.018,0,0,0-2.49-.889,4.844,4.844,0,0,0-4.7,4.229,3.976,3.976,0,0,0,.791,3.241,3.321,3.321,0,0,0,2.648,1.067,3.988,3.988,0,0,0,2.905-1.206l-.1.593a.359.359,0,0,0,.356.415h1.9a.633.633,0,0,0,.613-.514l1.146-7.214a.359.359,0,0,0-.356-.415Zm-2.945,4.091a2.35,2.35,0,0,1-2.372,2.016,1.646,1.646,0,0,1-1.759-2.055,2.379,2.379,0,0,1,2.352-2.036,1.773,1.773,0,0,1,1.4.573,1.74,1.74,0,0,1,.376,1.5Z" fill="#999"/>
    <path id="Trazado_4208" data-name="Trazado 4208" d="M92.891,59.114H90.776a.621.621,0,0,0-.514.277L87.357,63.68l-1.245-4.131a.617.617,0,0,0-.593-.435H83.444a.378.378,0,0,0-.356.494l2.332,6.838L83.226,69.53a.361.361,0,0,0,.3.573h2.115a.591.591,0,0,0,.494-.257l7.036-10.159a.349.349,0,0,0-.277-.573Z" fill="#666"/>
    <path id="Trazado_4209" data-name="Trazado 4209" d="M115.521,55.359l-1.8,11.483a.359.359,0,0,0,.356.415H115.9a.633.633,0,0,0,.613-.514l1.779-11.285a.359.359,0,0,0-.356-.415H115.9A.4.4,0,0,0,115.521,55.359Z" fill="#999"/>
    <path id="Trazado_4210" data-name="Trazado 4210" d="M53.126,55.636a3.857,3.857,0,0,0-.81-3.459c-.889-1.028-2.53-1.463-4.605-1.463H41.682a.869.869,0,0,0-.85.731l-2.51,15.93a.51.51,0,0,0,.514.593h3.716l-.257,1.621a.452.452,0,0,0,.455.514h3.142a.765.765,0,0,0,.751-.632l.04-.158.593-3.755.04-.2a.747.747,0,0,1,.751-.632h.474c3.044,0,5.415-1.225,6.107-4.8a4.063,4.063,0,0,0-.632-3.617,3.3,3.3,0,0,0-.889-.672" fill="#999"/>
    <path id="Trazado_4211" data-name="Trazado 4211" d="M53.126,55.636a3.857,3.857,0,0,0-.81-3.459c-.889-1.028-2.53-1.463-4.605-1.463H41.682a.869.869,0,0,0-.85.731l-2.51,15.93a.51.51,0,0,0,.514.593h3.716l.929-5.929-.02.178a.854.854,0,0,1,.85-.731H46.09c3.478,0,6.206-1.4,7-5.494a2.178,2.178,0,0,1,.04-.356" fill="#202020"/>
    <path id="Trazado_4212" data-name="Trazado 4212" d="M44.489,55.655a.783.783,0,0,1,.415-.573A.93.93,0,0,1,45.22,55h4.724a9.641,9.641,0,0,1,1.561.119,2.332,2.332,0,0,1,.4.079c.119.04.257.059.376.1l.178.059a4.976,4.976,0,0,1,.652.277,3.857,3.857,0,0,0-.81-3.459c-.889-1.028-2.53-1.463-4.605-1.463H41.663a.869.869,0,0,0-.85.731L38.3,67.375a.51.51,0,0,0,.514.593h3.716l.929-5.929Z" fill="#666"/>
  </g>
</svg>
