<?xml version="1.0" encoding="utf-8"?>
<!-- Generator: Adobe Illustrator 27.0.1, SVG Export Plug-In . SVG Version: 6.00 Build 0)  -->
<svg version="1.1" id="logo-landing-2" xmlns="http://www.w3.org/2000/svg" xmlns:xlink="http://www.w3.org/1999/xlink" x="0px"
	 y="0px" viewBox="0 0 150 75" style="enable-background:new 0 0 150 75;" xml:space="preserve">
<style type="text/css">
	.st0{fill:#FFFFFF;}
	.st1{opacity:0.66;fill:#FFFFFF;}
	.st2{opacity:0.85;fill:#FFFFFF;}
	.st3{fill:#A7A7A7;}
</style>
<g id="Grupo_63" transform="translate(3.555 46.506)">
	<path id="Trazado_4144" class="st0" d="M40.8,19.8c-0.3-0.3-0.6-0.5-0.9-0.6c-0.4-0.2-0.8-0.2-1.2-0.2c-0.2,0-0.5,0-0.7,0.1
		c-0.3,0-0.5,0.1-0.7,0.2c-0.2,0.1-0.5,0.2-0.7,0.4c-0.2,0.2-0.4,0.4-0.6,0.7c-0.3-0.4-0.6-0.8-1-1c-0.5-0.3-1-0.4-1.5-0.4
		c-0.2,0-0.4,0-0.6,0.1c-0.2,0-0.4,0.1-0.6,0.2c-0.2,0.1-0.4,0.2-0.6,0.3c-0.2,0.2-0.4,0.4-0.5,0.6v-0.9h-1.6v7.6h1.6v-4.2
		c0-0.3,0-0.6,0.2-0.9c0.1-0.2,0.2-0.5,0.4-0.6c0.2-0.2,0.4-0.3,0.6-0.4c0.2-0.1,0.5-0.1,0.7-0.1c0.5,0,0.9,0.2,1.3,0.5
		c0.3,0.4,0.5,0.9,0.4,1.5v4.2h1.6v-4.2c0-0.3,0-0.6,0.2-0.9c0.1-0.2,0.2-0.5,0.4-0.6c0.2-0.2,0.4-0.3,0.6-0.4
		c0.2-0.1,0.5-0.1,0.7-0.1c0.5,0,0.9,0.2,1.3,0.5c0.3,0.4,0.5,0.9,0.4,1.5v4.2h1.6v-4.8c0-0.4-0.1-0.8-0.2-1.2
		C41.3,20.4,41.1,20,40.8,19.8z"/>
	<path id="Trazado_4145" class="st0" d="M49.4,20c-0.3-0.3-0.6-0.6-1-0.8C48,19,47.5,18.9,47,18.9c-0.5,0-1,0.1-1.5,0.3
		c-0.5,0.2-0.9,0.5-1.2,0.8c-0.4,0.4-0.6,0.8-0.8,1.3c-0.2,0.5-0.3,1.1-0.3,1.6c0,0.6,0.1,1.1,0.3,1.6c0.2,0.5,0.5,0.9,0.8,1.3
		c0.3,0.4,0.8,0.6,1.2,0.8c0.5,0.2,1,0.3,1.5,0.3c0.5,0,1-0.1,1.4-0.3c0.4-0.2,0.7-0.5,1-0.8v0.9H51v-7.6h-1.7V20z M49.3,23.9
		c-0.1,0.3-0.3,0.5-0.5,0.8c-0.2,0.2-0.5,0.4-0.7,0.5c-0.3,0.1-0.6,0.2-0.9,0.2c-0.6,0-1.2-0.2-1.7-0.7c-0.4-0.5-0.6-1.1-0.6-1.7
		c0-0.3,0.1-0.6,0.2-0.9c0.1-0.3,0.3-0.5,0.5-0.8c0.2-0.2,0.4-0.4,0.7-0.5c0.3-0.1,0.6-0.2,1-0.2c0.3,0,0.6,0.1,0.9,0.2
		c0.3,0.1,0.5,0.3,0.7,0.5c0.2,0.2,0.4,0.5,0.5,0.8c0.1,0.3,0.2,0.6,0.2,1C49.5,23.3,49.4,23.6,49.3,23.9z"/>
	<path id="Trazado_4146" class="st0" d="M58.6,22.9c-0.6-0.4-1.2-0.7-1.9-0.7l-0.8-0.1c-0.2,0-0.3-0.1-0.5-0.1
		c-0.1,0-0.3-0.1-0.4-0.1c-0.1-0.1-0.2-0.1-0.3-0.2c-0.1-0.1-0.1-0.2-0.1-0.3c0-0.3,0.2-0.5,0.4-0.7c0.3-0.2,0.7-0.3,1.1-0.2
		c0.2,0,0.5,0,0.7,0.1c0.2,0,0.4,0.1,0.7,0.2c0.2,0.1,0.4,0.1,0.6,0.2c0.2,0.1,0.3,0.2,0.4,0.2l0.7-1.3c-0.4-0.3-0.9-0.5-1.4-0.6
		c-0.6-0.1-1.1-0.2-1.7-0.2c-0.4,0-0.9,0.1-1.3,0.2c-0.4,0.1-0.7,0.3-1,0.5c-0.3,0.2-0.5,0.5-0.6,0.8c-0.2,0.3-0.2,0.7-0.2,1
		c0,0.6,0.2,1.1,0.7,1.5c0.6,0.4,1.2,0.7,1.9,0.8l0.8,0.1c0.4,0,0.7,0.1,1,0.3c0.2,0.1,0.3,0.3,0.3,0.5c0,0.3-0.2,0.6-0.4,0.7
		c-0.4,0.2-0.8,0.3-1.3,0.2c-0.3,0-0.6,0-0.8-0.1c-0.2,0-0.5-0.1-0.7-0.2c-0.2-0.1-0.4-0.1-0.5-0.2c-0.2-0.1-0.3-0.2-0.4-0.3
		l-0.8,1.3c0.3,0.2,0.6,0.4,0.9,0.5c0.3,0.1,0.6,0.2,0.9,0.3c0.3,0.1,0.5,0.1,0.8,0.1c0.2,0,0.5,0,0.7,0c0.5,0,1-0.1,1.5-0.2
		c0.4-0.1,0.8-0.3,1.1-0.5c0.6-0.4,0.9-1.1,0.9-1.8C59.4,23.8,59.1,23.3,58.6,22.9L58.6,22.9z"/>
	<path id="Trazado_4147" class="st0" d="M74.2,20c-0.3-0.3-0.7-0.6-1.1-0.8c-0.5-0.2-1-0.3-1.5-0.3c-0.5,0-1.1,0.1-1.5,0.3
		c-0.5,0.2-0.9,0.5-1.2,0.8c-0.3,0.4-0.6,0.8-0.8,1.3c-0.2,0.5-0.3,1.1-0.3,1.6c0,0.6,0.1,1.1,0.3,1.6c0.2,0.5,0.5,0.9,0.8,1.3
		c0.4,0.4,0.8,0.6,1.2,0.8c0.5,0.2,1,0.3,1.6,0.3c0.6,0,1.1-0.1,1.7-0.2c0.5-0.2,1-0.5,1.5-0.8l-0.8-1.2c-0.3,0.2-0.7,0.4-1.1,0.6
		c-0.4,0.1-0.8,0.2-1.2,0.2c-0.3,0-0.5,0-0.8-0.1c-0.2-0.1-0.5-0.2-0.7-0.3c-0.2-0.2-0.4-0.4-0.5-0.6c-0.2-0.3-0.3-0.6-0.3-0.9h5.6
		c0-0.1,0-0.2,0-0.3v-0.3c0-0.6-0.1-1.1-0.3-1.6C74.8,20.8,74.6,20.4,74.2,20L74.2,20z M69.6,22.3c0-0.3,0.1-0.5,0.2-0.8
		c0.1-0.2,0.2-0.4,0.4-0.6c0.2-0.2,0.4-0.3,0.6-0.4c0.3-0.1,0.5-0.1,0.8-0.1c0.5,0,0.9,0.2,1.3,0.5c0.4,0.4,0.6,0.9,0.6,1.4
		L69.6,22.3L69.6,22.3z"/>
	<path id="Trazado_4148" class="st0" d="M96.3,20c-0.3-0.3-0.6-0.6-1-0.8c-0.4-0.2-0.9-0.3-1.4-0.3c-0.5,0-1,0.1-1.5,0.3
		c-0.5,0.2-0.9,0.5-1.2,0.8c-0.4,0.4-0.6,0.8-0.8,1.3c-0.2,0.5-0.3,1.1-0.3,1.6c0,0.6,0.1,1.1,0.3,1.6c0.2,0.5,0.5,0.9,0.8,1.3
		c0.3,0.4,0.8,0.6,1.2,0.8c0.5,0.2,1,0.3,1.5,0.3c0.5,0,1-0.1,1.4-0.3c0.4-0.2,0.7-0.5,1-0.8v0.9h1.7v-7.6h-1.7V20z M96.2,23.9
		c-0.1,0.3-0.3,0.5-0.5,0.8c-0.2,0.2-0.5,0.4-0.7,0.5c-0.3,0.1-0.6,0.2-0.9,0.2c-0.6,0-1.2-0.2-1.7-0.7c-0.4-0.5-0.6-1.1-0.6-1.7
		c0-0.3,0.1-0.6,0.2-0.9c0.1-0.3,0.3-0.5,0.5-0.8c0.2-0.2,0.4-0.4,0.7-0.5c0.3-0.1,0.6-0.2,1-0.2c0.3,0,0.6,0.1,0.9,0.2
		c0.3,0.1,0.5,0.3,0.7,0.5c0.2,0.2,0.4,0.5,0.5,0.8c0.1,0.3,0.2,0.6,0.2,1C96.4,23.3,96.3,23.6,96.2,23.9z"/>
	<path id="Trazado_4149" class="st0" d="M65.8,25.2c-0.3,0.1-0.5,0.1-0.8,0.2c-0.2,0-0.3,0-0.5-0.1c-0.1-0.1-0.3-0.1-0.4-0.2
		c-0.1-0.1-0.2-0.3-0.2-0.4c-0.1-0.2-0.1-0.4-0.1-0.7v-3.3h2.7v-1.5h-2.7v-2.3h-1.7v2.3h-1.5v1.5h1.5V24c-0.1,0.8,0.2,1.6,0.7,2.2
		c0.5,0.5,1.3,0.8,2,0.7c0.4,0,0.9-0.1,1.3-0.2c0.2-0.1,0.5-0.2,0.7-0.3L66.3,25C66.1,25.1,65.9,25.1,65.8,25.2z"/>
	<path id="Trazado_4150" class="st0" d="M80.8,18.9c-0.4,0-0.9,0.1-1.3,0.2c-0.4,0.2-0.7,0.6-0.9,0.9v-1h-1.5v7.6h1.5v-4.2
		c0-0.3,0-0.6,0.1-0.9c0.1-0.2,0.2-0.4,0.4-0.6c0.2-0.2,0.4-0.3,0.6-0.4c0.2-0.1,0.5-0.1,0.7-0.1c0.2,0,0.4,0,0.7,0.1
		c0.1,0,0.2,0.1,0.3,0.1l0.5-1.6c-0.1,0-0.3-0.1-0.4-0.1C81.2,18.9,81,18.9,80.8,18.9z"/>
	<path id="Trazado_4151" class="st0" d="M103.9,18.9c-0.4,0-0.9,0.1-1.3,0.2c-0.4,0.2-0.7,0.6-0.9,0.9v-1h-1.5v7.6h1.5v-4.2
		c0-0.3,0-0.6,0.1-0.9c0.1-0.2,0.2-0.4,0.4-0.6c0.2-0.2,0.4-0.3,0.6-0.4c0.2-0.1,0.5-0.1,0.7-0.1c0.2,0,0.4,0,0.7,0.1
		c0.1,0,0.2,0.1,0.3,0.1l0.5-1.6c-0.1,0-0.3-0.1-0.4-0.1C104.3,18.9,104.1,18.9,103.9,18.9z"/>
	<path id="Trazado_4152" class="st0" d="M111.6,16v4c-0.3-0.3-0.6-0.6-1-0.8c-0.4-0.2-0.9-0.3-1.4-0.3c-0.5,0-1,0.1-1.5,0.3
		c-0.5,0.2-0.9,0.5-1.2,0.8c-0.4,0.4-0.6,0.8-0.8,1.3c-0.2,0.5-0.3,1.1-0.3,1.6c0,0.6,0.1,1.1,0.3,1.6c0.2,0.5,0.5,0.9,0.8,1.3
		c0.3,0.4,0.8,0.6,1.2,0.8c0.5,0.2,1,0.3,1.5,0.3c0.5,0,1-0.1,1.4-0.3c0.4-0.2,0.7-0.5,1-0.8v0.9h1.7V16H111.6z M111.5,23.9
		c-0.1,0.3-0.3,0.5-0.5,0.8c-0.2,0.2-0.5,0.4-0.7,0.5c-0.3,0.1-0.6,0.2-0.9,0.2c-0.6,0-1.2-0.2-1.7-0.7c-0.4-0.5-0.6-1.1-0.6-1.7
		c0-0.3,0.1-0.6,0.2-0.9c0.1-0.3,0.3-0.6,0.5-0.8c0.2-0.2,0.4-0.4,0.7-0.5c0.3-0.1,0.6-0.2,1-0.2c0.3,0,0.6,0.1,0.9,0.2
		c0.3,0.1,0.5,0.3,0.7,0.5c0.2,0.2,0.4,0.5,0.5,0.8c0.1,0.3,0.2,0.6,0.2,1C111.7,23.3,111.6,23.6,111.5,23.9z"/>
	<path id="Trazado_4153" class="st0" d="M84.7,21.2c0.2-0.2,0.5-0.4,0.8-0.5c0.3-0.1,0.6-0.2,0.9-0.2c0.4,0,0.7,0.1,1,0.2
		c0.3,0.1,0.6,0.3,0.8,0.5l0.8-1.3c-0.3-0.2-0.7-0.4-1-0.6c-1.1-0.4-2.2-0.4-3.3,0c-0.5,0.2-0.9,0.5-1.3,0.8
		c-0.4,0.4-0.7,0.8-0.8,1.3c-0.2,0.5-0.3,1-0.3,1.6c0,0.5,0.1,1.1,0.3,1.6c0.2,0.5,0.5,0.9,0.8,1.3c0.4,0.4,0.8,0.7,1.3,0.8
		c1.1,0.4,2.2,0.4,3.3,0c0.4-0.1,0.7-0.3,1-0.6l-0.8-1.3c-0.2,0.2-0.5,0.4-0.8,0.5c-0.3,0.1-0.7,0.2-1,0.2c-0.3,0-0.6-0.1-0.9-0.2
		c-0.3-0.1-0.5-0.3-0.8-0.5c-0.2-0.2-0.4-0.5-0.5-0.8c-0.1-0.3-0.2-0.6-0.2-1c0-0.3,0.1-0.7,0.2-1C84.4,21.7,84.5,21.4,84.7,21.2
		L84.7,21.2z"/>
</g>
<path id="Trazado_4154" class="st0" d="M112.7,66.3c0.1,0,0.2,0,0.3,0c0.2,0.1,0.3,0.2,0.4,0.4c0.1,0.2,0.1,0.3,0,0.5
	c-0.1,0.2-0.2,0.3-0.4,0.4c-0.2,0.1-0.3,0.1-0.5,0c-0.1,0-0.2-0.1-0.2-0.1c-0.1-0.1-0.1-0.1-0.1-0.2c-0.1-0.2-0.1-0.3,0-0.5
	C112.2,66.4,112.4,66.3,112.7,66.3z M112.7,67.4c0.1,0,0.1,0,0.2,0c0.1,0,0.1-0.1,0.1-0.1c0,0,0.1-0.1,0.1-0.1c0-0.1,0-0.1,0-0.2
	c0-0.1,0-0.1,0-0.2c0-0.1-0.1-0.1-0.1-0.1c0,0-0.1-0.1-0.1-0.1c-0.1,0-0.1,0-0.2,0c-0.1,0-0.1,0-0.2,0c-0.1,0-0.1,0.1-0.1,0.1
	c0,0-0.1,0.1-0.1,0.1c0,0.1,0,0.1,0,0.2c0,0.1,0,0.1,0,0.2c0,0.1,0.1,0.1,0.1,0.1c0,0,0.1,0.1,0.1,0.1
	C112.6,67.4,112.6,67.4,112.7,67.4z M112.7,66.7c0.1,0,0.1,0,0.2,0c0,0,0.1,0.1,0.1,0.1c0,0,0,0.1,0,0.1c0,0-0.1,0.1-0.1,0.1
	l0.2,0.2h-0.2l-0.2-0.2h0v0.2h-0.2v-0.6L112.7,66.7z M112.6,66.8v0.1h0.1c0,0,0,0,0.1,0s0,0,0,0c0,0,0,0,0,0c0,0,0,0-0.1,0
	L112.6,66.8z"/>
<path id="Trazado_4155" class="st1" d="M64.1,30c0-8.8,4-17.1,10.9-22.5c-12.4-9.8-30.5-7.7-40.3,4.7s-7.7,30.5,4.7,40.3
	c10.4,8.3,25.2,8.3,35.6,0C68.1,47.1,64,38.8,64.1,30z"/>
<path id="Trazado_4156" class="st2" d="M64.1,30c0,8.8,4,17.1,10.9,22.5c12.4-9.8,14.5-27.9,4.7-40.3c-1.4-1.7-3-3.3-4.7-4.7
	C68.1,13,64,21.3,64.1,30z"/>
<path id="Trazado_4157" class="st3" d="M119.5,45.6v-0.8h-0.3v-0.2h0.9v0.2h-0.3v0.8L119.5,45.6z M121.3,45.6v-0.8l-0.2,0.6h-0.3
	l-0.2-0.6v0.7h-0.2v-1.1h0.4l0.3,0.7l0.3-0.7h0.4v1.1L121.3,45.6z"/>
<path id="Trazado_4158" class="st0" d="M92.7,1.4c-6.5,0-12.7,2.2-17.8,6.2c12.4,9.8,14.5,27.9,4.7,40.3c-1.4,1.7-3,3.3-4.7,4.7
	c12.4,9.8,30.5,7.7,40.3-4.7s7.7-30.5-4.7-40.3C105.4,3.5,99.2,1.4,92.7,1.4z"/>
</svg>
