<svg xmlns="http://www.w3.org/2000/svg" width="40.172" height="30.121" viewBox="0 0 40.172 30.121">
  <g id="logo-18" transform="translate(-100.542 -135.033)">
    <path id="Trazado_4213" data-name="Trazado 4213" d="M106.148,150.436h3.979v5.606h5.606v3.978h-5.606v5.606h-3.979V160.02h-5.606v-3.978h5.606Z" transform="translate(0 -7.163)" fill="#fff"/>
    <path id="Trazado_4214" data-name="Trazado 4214" d="M131.6,141.528h-3.977v-2.72a30.61,30.61,0,0,0,5.967-3.775h2.558v29.715H131.6Z" transform="translate(-12.595)" fill="#fff"/>
    <path id="Trazado_4215" data-name="Trazado 4215" d="M151.967,149.119a7.137,7.137,0,0,1-2.638-5.846c0-5.683,2.6-8.241,6.738-8.241s6.739,2.557,6.739,8.241a7.136,7.136,0,0,1-2.64,5.846c2.476,1.583,3.045,3.938,3.045,7.51,0,5.521-2.436,8.525-7.145,8.525s-7.144-3-7.144-8.525C148.923,153.057,149.491,150.7,151.967,149.119Zm6.7,7.185c0-3.045-.65-4.871-2.6-4.871s-2.6,1.826-2.6,4.871.649,4.871,2.6,4.871S158.666,159.349,158.666,156.3Zm-.407-13.274c0-2.842-.649-4.019-2.192-4.019s-2.192,1.177-2.192,4.019.649,4.019,2.192,4.019S158.26,145.871,158.26,143.03Z" transform="translate(-22.499)" fill="#fff"/>
  </g>
</svg>
