<?xml version="1.0" encoding="utf-8"?>
<!-- Generator: Adobe Illustrator 27.0.1, SVG Export Plug-In . SVG Version: 6.00 Build 0)  -->
<svg version="1.1" id="Capa_1" xmlns="http://www.w3.org/2000/svg" xmlns:xlink="http://www.w3.org/1999/xlink" x="0px" y="0px"
	 viewBox="0 0 150 75" style="enable-background:new 0 0 150 75;" xml:space="preserve">
<style type="text/css">
	.st0{fill:#FFFFFF;}
</style>
<path id="logo-landing-4" class="st0" d="M111,20.8l10.2-1.8v38.9H111V20.8z M125.8,20.8v37.2H136v-39L125.8,20.8z M96.5,57.9h10.2
	V29.4H96.5V57.9z M29.4,33.5c-1.3-0.1-4.2-0.3-4.2-3c0-3.2,4.3-3.2,5.9-3.2c3.1,0.1,6.1,0.7,9.1,1.6c0,0,1.5,0.5,2.7,1l0.1,0.1v-8.9
	L42.8,21c-4.3-1.5-8.8-2.2-13.3-2.1C18,18.9,14,25.6,14,31.3c0,3.3,1.4,11,14.5,11.9c1.1,0.1,4,0.2,4,3c0,2.3-2.4,3.6-6.5,3.6
	c-3.9,0-7.8-0.8-11.4-2.2v9.1c4.4,1.1,9,1.6,13.6,1.6c11.2,0,16.2-6.3,16.2-12.6C44.4,38.7,38.9,34.1,29.4,33.5L29.4,33.5z M90.8,29
	c-9.4,0.3-14.1,4.5-14.1,12.9v16h10.2V44.8c0-5,0.6-7.2,6.6-7.4v-8.3C92.6,29,91.7,29,90.8,29L90.8,29z M63.3,29.4
	c-1.4,3.6-3.3,7-5.8,9.9V18.9L47,21v36.9h10.5V46.5c2.1,3.5,3.6,7.4,4.5,11.4h12.5c-1.2-5.2-6.7-14.7-6.7-14.7
	c3.2-4.2,5.7-8.9,7.4-13.9L63.3,29.4z M101.6,26.7c2.8,0,5-2.2,5-5c0-2.8-2.2-5-5-5c-2.8,0-5,2.2-5,5S98.9,26.7,101.6,26.7
	L101.6,26.7z"/>
</svg>
