<?xml version="1.0" encoding="utf-8"?>
<!-- Generator: Adobe Illustrator 27.0.1, SVG Export Plug-In . SVG Version: 6.00 Build 0)  -->
<svg version="1.1" id="logo-landing-8" xmlns="http://www.w3.org/2000/svg" xmlns:xlink="http://www.w3.org/1999/xlink" x="0px"
	 y="0px" viewBox="0 0 150 75" style="enable-background:new 0 0 150 75;" xml:space="preserve">
<style type="text/css">
	.st0{fill:#FFFFFF;}
</style>
<path id="Trazado_5353" class="st0" d="M74.2,31.2c-1.2,0-2.3,1-2.3,2.2c0,0,0,0,0,0v16.9c0,1.3,1,2.3,2.3,2.3s2.3-1,2.3-2.3V33.5
	C76.5,32.3,75.5,31.2,74.2,31.2C74.2,31.2,74.2,31.2,74.2,31.2 M74.2,22.9c-1.4,0-2.5,1.1-2.5,2.5c0,1.4,1.1,2.5,2.5,2.5
	c1.4,0,2.5-1.1,2.5-2.5c0,0,0,0,0,0C76.7,24.1,75.6,22.9,74.2,22.9 M96.4,33.5c0-1.1-0.8-2-1.9-2c0,0-0.1,0-0.1,0H83
	c-1.1,0-2,0.9-2,2c0,0,0,0,0,0.1c0.1,1.1,0.9,1.9,2,2h7.3l-9.6,13.3c-0.2,0.4-0.4,0.8-0.5,1.3c0.1,1.1,0.9,2.1,2,2.3h11.8
	c1.1-0.1,1.9-0.9,2-2c0-1.1-0.9-2-2-2c0,0,0,0-0.1,0h-8l9.3-13.1C96.1,34.5,96.4,34,96.4,33.5 M63.2,43.8c0,2.8-1.3,4.5-4,4.5
	s-4-1.8-4-4.5v-8.5h4.3c3.3,0,3.8,1.8,3.8,3.8L63.2,43.8z M67.7,39c0-4.8-2.5-7.8-8.3-7.8h-4.3v-6c0-1.3-1-2.3-2.3-2.3
	c-1.3,0-2.3,1-2.3,2.3v18.9c0,4.8,2.5,8.5,8.5,8.5c5.8,0,8.5-3.8,8.5-8.5V39z M114,31.2c-1.2,0-2.3,1-2.3,2.2c0,0,0,0,0,0v10.6
	c0,2.8-1.3,4.5-4,4.5c-2.8,0-4-1.8-4-4.5V33.5c0-1.3-1-2.3-2.3-2.3s-2.3,1-2.3,2.3v10.6c0,4.8,2.5,8.5,8.5,8.5
	c5.8,0,8.5-3.8,8.5-8.5V33.5C116.2,32.3,115.2,31.2,114,31.2C114,31.2,114,31.2,114,31.2 M148.4,39.8c0-4.8-2.3-8.5-8-8.5
	c-2.1-0.1-4.2,0.6-5.8,2c-1.6-1.4-3.7-2.1-5.8-2c-5.8,0-8,3.8-8,8.5v10.6c0,1.3,1,2.3,2.3,2.3s2.3-1,2.3-2.3V39.8
	c0-2.8,0.8-4.5,3.5-4.5c2.8,0,3.5,1.8,3.5,4.5v10.6c0,1.3,1,2.3,2.3,2.3s2.3-1,2.3-2.3V39.8c0-2.8,0.8-4.5,3.5-4.5
	c2.8,0,3.5,1.8,3.5,4.5v10.6c0,1.3,1,2.3,2.3,2.3c1.3,0,2.3-1,2.3-2.3L148.4,39.8z M9.6,31.2c1.6,1.2,3.8,0.8,5-0.8l4.3-5.8
	c1.2-1.6,0.8-3.8-0.8-5c-1.7-1-3.9-0.7-5.3,0.8l-4,5.8c-1.2,1.5-1,3.6,0.5,4.8C9.4,31.1,9.5,31.2,9.6,31.2 M28.7,23.2
	c-1.6-1.2-3.8-0.8-5,0.8L7.1,46.8c-1.2,1.6-0.8,3.9,0.8,5c1.6,1.1,3.8,0.8,4.9-0.7l16.6-22.9C30.5,26.6,30.2,24.4,28.7,23.2
	 M8.1,21.2c1.2-1.6,0.8-3.8-0.8-5c-1.7-1-3.9-0.6-5,1c-1.2,1.6-0.8,3.8,0.8,5C4.7,23.3,7,22.8,8.1,21.2 M33.2,52.9
	c-1.6-1.2-3.8-0.8-5,0.8c-1.2,1.6-0.8,3.8,0.8,5c1.6,1.2,3.8,0.8,5-0.8c1.2-1.5,1-3.6-0.5-4.8C33.4,53,33.3,52.9,33.2,52.9
	 M26.7,43.8c-1.6-1.2-3.8-0.8-5,0.8l-4.3,5.8c-1.2,1.6-0.8,3.9,0.8,5c1.6,1.1,3.8,0.8,4.9-0.7l4.3-5.8c1.2-1.4,1-3.5-0.4-4.7
	C27,44,26.8,43.9,26.7,43.8"/>
</svg>
