<svg id="logo-landing-5" xmlns="http://www.w3.org/2000/svg" width="140.417" height="23.758" viewBox="0 0 140.417 23.758">
  <path id="Trazado_4159" data-name="Trazado 4159" d="M126.936,27.52a5.8,5.8,0,0,1-3.368.768H122.09l1.123-6.146h1.123a5.111,5.111,0,0,1,2.777.591,2.388,2.388,0,0,1,1.064,2.127,3.013,3.013,0,0,1-1.241,2.659M38.529,35.2H27.006l.768-4.018h7.21l.827-4.55H28.66l.709-3.959H40.775Zm94.612-15.956c-1.714-1.182-4.255-1.714-7.564-1.714h-8.746L113.58,35.2H102.116l.709-4.018h6.914l.827-4.491h-6.914l.768-4.018h7.151l.946-5.2H98.038L94.965,34.257H89.647l3.132-16.783H85.1L82.023,34.257h-5.2l3.132-16.783H72.391L69.141,35.2H57.558l.709-4.018H65.24l.827-4.491H59.154l.709-4.018h7.21l.946-5.2H22.928L20.387,31.479,15.246,17.533H7.386L3.131,40.4h7.505l2.541-14.419L18.141,40.4H45.03l3.25-17.67h4.2L49.226,40.4H119.9l2.068-11.169L125.281,40.4h7.505l-3.428-9.1.768-.177a6.768,6.768,0,0,0,4.018-2.364,7.267,7.267,0,0,0,1.418-4.609,5.466,5.466,0,0,0-2.423-4.9" transform="translate(-3.131 -17.474)" fill="#fff"/>
  <path id="Trazado_4160" data-name="Trazado 4160" d="M80.931,29.7l1-.059a1.18,1.18,0,0,0,.532-.118.59.59,0,0,0,.3-.236.75.75,0,0,0,.059-.355.537.537,0,0,0-.177-.414.886.886,0,0,0-.591-.118l-1.123.059Zm-.355,2.009L80.4,28.1l1.6-.059a2.232,2.232,0,0,1,.709.059,1.06,1.06,0,0,1,.414.3.953.953,0,0,1,.177.532.889.889,0,0,1-.236.65,1.336,1.336,0,0,1-.768.355,1.292,1.292,0,0,1,.3.177,3.378,3.378,0,0,1,.414.473l.65.946-.591.059-.532-.709a4.712,4.712,0,0,1-.355-.473l-.236-.236a.355.355,0,0,0-.236-.059h-.827l.059,1.6Z" transform="translate(55.225 -9.489)" fill="#fff"/>
  <path id="Trazado_4161" data-name="Trazado 4161" d="M79.879,30.66a2.716,2.716,0,0,1,.709-2.009,2.927,2.927,0,0,1,1.95-.946,2.868,2.868,0,0,1,2.955,2.659v.118a2.791,2.791,0,0,1-2.659,2.777,2.711,2.711,0,0,1-2.955-2.6m2.6-3.487a3.2,3.2,0,0,0-2.3,1.123,3.607,3.607,0,0,0-.886,2.423,3.413,3.413,0,0,0,3.546,3.191,3.373,3.373,0,0,0-.355-6.737" transform="translate(54.386 -10.154)" fill="#fff"/>
</svg>
