<svg id="logo-landing-8" xmlns="http://www.w3.org/2000/svg" width="135.533" height="40.374" viewBox="0 0 135.533 40.374">
  <path id="Trazado_5353" data-name="Trazado 5353" d="M67.068,14.4a2.081,2.081,0,0,0-2.089,2.089V32.047a2.089,2.089,0,1,0,4.179,0V16.493A2.081,2.081,0,0,0,67.068,14.4m0-7.661a2.321,2.321,0,1,0,2.321,2.321,2.326,2.326,0,0,0-2.321-2.321M87.5,16.493a1.812,1.812,0,0,0-1.857-1.857H75.193a1.831,1.831,0,0,0-1.857,1.857,2,2,0,0,0,1.857,1.857h6.732L73.1,30.654a3.922,3.922,0,0,0-.464,1.161A2.24,2.24,0,0,0,74.5,33.9H85.407a2,2,0,0,0,1.857-1.857,1.831,1.831,0,0,0-1.857-1.857H77.978l8.589-12.071c.7-.7.929-1.161.929-1.625M56.853,26.011c0,2.554-1.161,4.179-3.714,4.179s-3.714-1.625-3.714-4.179V18.118h3.946c3.018,0,3.482,1.625,3.482,3.482ZM61.032,21.6c0-4.411-2.321-7.2-7.661-7.2H49.425V8.832a2.089,2.089,0,1,0-4.179,0V26.243c0,4.411,2.321,7.893,7.893,7.893,5.339,0,7.893-3.482,7.893-7.893V21.6Zm42.714-7.2a2.081,2.081,0,0,0-2.089,2.089v9.75c0,2.554-1.161,4.179-3.714,4.179s-3.714-1.625-3.714-4.179v-9.75a2.089,2.089,0,0,0-4.179,0v9.75c0,4.411,2.321,7.893,7.893,7.893,5.339,0,7.893-3.482,7.893-7.893v-9.75a2.081,2.081,0,0,0-2.089-2.089m31.8,7.893c0-4.411-2.089-7.893-7.429-7.893a7.426,7.426,0,0,0-5.339,1.857,7.426,7.426,0,0,0-5.339-1.857c-5.339,0-7.429,3.482-7.429,7.893v9.75a2.089,2.089,0,0,0,4.179,0V22.3c0-2.554.7-4.179,3.25-4.179s3.25,1.625,3.25,4.179v9.75a2.089,2.089,0,0,0,4.179,0V22.3c0-2.554.7-4.179,3.25-4.179s3.25,1.625,3.25,4.179v9.75a2.089,2.089,0,0,0,4.179,0ZM7.407,14.4a3.349,3.349,0,0,0,4.643-.7L16,8.368a3.349,3.349,0,0,0-.7-4.643,3.862,3.862,0,0,0-4.875.7L6.71,9.761a3.155,3.155,0,0,0,.7,4.643M25.05,6.975a3.349,3.349,0,0,0-4.643.7L5.085,28.8a3.32,3.32,0,0,0,5.339,3.946L25.746,11.618a3.505,3.505,0,0,0-.7-4.643M6.014,5.118a3.349,3.349,0,0,0-.7-4.643A3.546,3.546,0,0,0,.674,1.4a3.349,3.349,0,0,0,.7,4.643,3.405,3.405,0,0,0,4.643-.929m23.214,29.25a3.32,3.32,0,1,0,.7,4.643,3.155,3.155,0,0,0-.7-4.643m-6.036-8.357a3.349,3.349,0,0,0-4.643.7L14.6,32.047a3.32,3.32,0,0,0,5.339,3.946l3.946-5.339a3.1,3.1,0,0,0-.7-4.643" transform="translate(-0.017 0.008)" fill="#fff"/>
</svg>
