<?xml version="1.0" encoding="utf-8"?>
<!-- Generator: Adobe Illustrator 27.0.1, SVG Export Plug-In . SVG Version: 6.00 Build 0)  -->
<svg version="1.1" id="_x30_3" xmlns="http://www.w3.org/2000/svg" xmlns:xlink="http://www.w3.org/1999/xlink" x="0px" y="0px"
	 viewBox="0 0 1018.7 131.4" style="enable-background:new 0 0 1018.7 131.4;" xml:space="preserve">
<style type="text/css">
	.st0{fill:#FFFFFF;}
	.st1{clip-path:url(#SVGID_00000101088622719639722800000000641653996270112422_);fill:#FFFFFF;}
	.st2{clip-path:url(#SVGID_00000038372357864448059860000013571806501003678907_);fill:#FFFFFF;}
	.st3{fill-rule:evenodd;clip-rule:evenodd;fill:#DF040B;}
	.st4{display:none;fill:#DF040B;}
	.st5{fill:#DF040B;}
</style>
<g id="Capa_39">
</g>
<g id="Capa_36">
</g>
<g id="Logo_x5F_02_x5F_b_00000037663692745268114470000015751869417357428619_">
	<g>
		<path id="o_00000035489273447364244790000005198453706963236244_" class="st0" d="M950.2,60.2c0-8.7-6.5-14.8-14.8-14.8
			c-8.1,0-14.8,6.1-14.8,14.8S927.3,75,935.4,75C943.7,75,950.2,68.9,950.2,60.2z M926.6,60.2c0-5.9,3.6-9.6,8.8-9.6
			s8.8,3.7,8.8,9.6s-3.6,9.6-8.8,9.6C930.2,69.9,926.6,66.1,926.6,60.2z"/>
		<g id="s_00000051376856672400365500000011746981222547330725_">
			<g>
				<defs>
					<rect id="SVGID_1_" x="960.4" y="31.3" width="29.1" height="52.9"/>
				</defs>
				<clipPath id="SVGID_00000170260884555576932180000008983404321962731405_">
					<use xlink:href="#SVGID_1_"  style="overflow:visible;"/>
				</clipPath>
				
					<path id="s_00000155134703479073787200000000716516375110173090_" style="clip-path:url(#SVGID_00000170260884555576932180000008983404321962731405_);fill:#FFFFFF;" d="
					M986.9,91.3c0-10.2-14.8-6.9-14.8-12.7c0-2.4,1.7-3.5,4-3.4c2.5,0,4,1.5,4.1,3.4h6.4c-0.4-5.2-4.4-8.2-10.3-8.2
					c-6,0-10.2,3.2-10.2,8.4c0,10.5,14.9,6.7,14.9,12.9c0,2.1-1.6,3.5-4.3,3.5s-4.2-1.5-4.4-3.8h-6.2c0.1,5.5,4.7,8.6,10.7,8.6
					C983.2,99.9,986.9,95.8,986.9,91.3z"/>
			</g>
			<g>
				<defs>
					<rect id="SVGID_00000070099752994968487070000006682544603149735322_" x="960.4" y="31.3" width="29.1" height="52.9"/>
				</defs>
				<clipPath id="SVGID_00000022524351472011961130000000679563192887928733_">
					<use xlink:href="#SVGID_00000070099752994968487070000006682544603149735322_"  style="overflow:visible;"/>
				</clipPath>
				
					<path id="s_00000084526579985835205280000004382503914311526016_" style="clip-path:url(#SVGID_00000022524351472011961130000000679563192887928733_);fill:#FFFFFF;" d="
					M986.8,49.9c0-10.2-14.8-6.9-14.8-12.7c0-2.4,1.7-3.5,4-3.4c2.5,0,4,1.5,4.1,3.4h6.4c-0.4-5.2-4.4-8.2-10.3-8.2
					c-6,0-10.2,3.2-10.2,8.4c0,10.5,14.9,6.7,14.9,12.9c0,2.1-1.6,3.5-4.3,3.5s-4.2-1.5-4.4-3.8H966c0.1,5.5,4.7,8.6,10.7,8.6
					C983.2,58.5,986.9,54.4,986.8,49.9z"/>
			</g>
		</g>
		<path id="ñ_00000039846111478998699400000013775868426178855347_" class="st0" d="M899.8,45.8v19.9l-13.1-19.9h-5.8v28.9h5.8
			V54.9l13.1,19.8h5.8V45.8L899.8,45.8z M885.8,43.6h3.1c0.2-1.2,0.9-1.8,1.8-1.8c1.7,0,2.7,1.9,5.1,1.9c2.6,0,4.6-1.7,5.1-5.4h-3.1
			c-0.2,1.2-0.8,1.8-1.8,1.8c-1.7,0-2.7-1.8-5.1-1.8C888.3,38.2,886.3,39.9,885.8,43.6z"/>
		<path id="a_00000096026801674690656520000006922502450839221682_" class="st0" d="M857.8,74.8h6.1l-10.4-28.9h-6.7l-10.4,28.9h6.1
			l1.9-5.5h11.5L857.8,74.8z M854.3,64.7h-8.4l4.2-12.1L854.3,64.7z"/>
		<path id="_x30__00000153684199315061971170000012002038225974838147_" class="st0" d="M796.2,58.7c0,9.4,2.9,16.5,12.1,16.5
			c9.2,0,12.1-7.1,12.1-16.5s-2.9-16.4-12.1-16.4C799.1,42.3,796.2,49.4,796.2,58.7z M814.2,58.7c0,5.8-0.6,10.7-5.9,10.7
			c-5.3,0-5.9-5-5.9-10.7c0-5.5,0.6-10.6,5.9-10.6S814.2,53.2,814.2,58.7z"/>
		<path id="_x31__00000096030405689866225370000000044226394004740020_" class="st0" d="M784.6,74.8h6.4V42.5h-10.8v5.7h4.3
			L784.6,74.8z"/>
		<g id="Palanca_00000055672774157058379770000005447199867029097607_">
			<g>
				<path class="st3" d="M1018.7,9.3c0-5.1-4.3-9.3-9.5-9.3c-5.3,0-9.5,4.2-9.5,9.3c0,4.6,3.5,8.5,8.1,9.2v34.6h-1.5h-0.1v-2.6
					c0-1.2-1-2.3-2.3-2.3h-1.8v19.4h1.8c1.3,0,2.3-1,2.3-2.3v-3.4h0.1h3.9c2.1,0,3.9-1.7,3.9-3.8v-1.4c0-1.9-1.4-3.4-3.3-3.7V18.3
					C1015.2,17.7,1018.7,13.9,1018.7,9.3z"/>
			</g>
		</g>
		<g id="Slots_00000067215315971916175030000006899683201092161690_">
			<g>
				<path class="st3" d="M827.6,31.4v52.9h2.7V31.4L827.6,31.4z M870.2,31.3v52.9h2.7V31.3L870.2,31.3z M913.1,31.3v52.9h2.7V31.3
					L913.1,31.3z M957.8,31.3h-2.7v52.9h2.7V31.3z"/>
			</g>
		</g>
		<g id="Base_x5F_Slots_00000031183534751075681850000013043211405465901717_">
			<g>
				<path class="st3" d="M1001.9,35.9c0-6-4.8-10.8-10.8-10.8L777,25.3c-6,0-10.8,4.8-10.8,10.8v43.6c0,6,4.8,10.8,10.8,10.8
					l214.2-0.1c6,0,10.8-4.8,10.8-10.8L1001.9,35.9z M988.1,84.2L780,84.3c-4.3,0-7.7-3.5-7.7-7.7V39.1c0-4.3,3.4-7.7,7.7-7.7
					l208.1-0.1c4.3,0,7.7,3.5,7.7,7.7v37.5C995.8,80.7,992.4,84.2,988.1,84.2z"/>
			</g>
		</g>
	</g>
	<g id="Logo_x5F_Original_00000165224347834613364530000007153895917863694241_">
		<path class="st4" d="M227-120.1L227-120.1L227-120.1c0-0.2-0.4-0.3-0.4-0.3c-6.2-1.8-11.5-6.8-13.1-12.7l-0.3-1c0,0,0-0.3-0.2-0.3
			l0,0c-0.2,0-0.2,0.3-0.2,0.3l-0.3,1c-1.6,5.9-6.8,10.8-13.1,12.7c0,0-0.4,0.1-0.4,0.3l0,0l0,0l0,0l0,0c0,0.2,0.4,0.3,0.4,0.3
			c6.2,1.8,11.5,6.8,13.1,12.7l0.3,1c0,0,0,0.3,0.2,0.3l0,0c0.2,0,0.2-0.3,0.2-0.3l0.3-1c1.6-5.9,6.8-10.8,13.1-12.7
			C226.6-119.8,227-119.9,227-120.1L227-120.1L227-120.1L227-120.1z"/>
		<path class="st4" d="M239.9-136.9L239.9-136.9L239.9-136.9c0-0.1-0.2-0.2-0.2-0.2c-3.2-0.9-5.9-3.5-6.8-6.5l-0.1-0.5
			c0,0,0-0.1-0.1-0.1l0,0c-0.1,0-0.1,0.1-0.1,0.1l-0.1,0.5c-0.8,3-3.5,5.6-6.8,6.6c0,0-0.2,0-0.2,0.2l0,0l0,0l0,0l0,0
			c0,0.1,0.2,0.2,0.2,0.2c3.2,0.9,5.9,3.5,6.8,6.5l0.1,0.5c0,0,0,0.1,0.1,0.1l0,0c0.1,0,0.1-0.1,0.1-0.1l0.1-0.5
			c0.8-3,3.5-5.6,6.8-6.6C239.8-136.8,239.9-136.8,239.9-136.9L239.9-136.9L239.9-136.9L239.9-136.9z"/>
		<path class="st5" d="M156.2,22.6L156.2,22.6L156.2,22.6c0-0.2-0.3-0.3-0.3-0.3c-5.7-1.7-10.4-6.2-11.8-11.5l-0.3-0.9
			c0,0,0-0.2-0.2-0.2l0,0c-0.2,0-0.2,0.2-0.2,0.2l-0.3,0.9c-1.4,5.3-6.2,9.8-11.8,11.5c0,0-0.3,0.1-0.3,0.3l0,0l0,0l0,0l0,0
			c0,0.2,0.3,0.3,0.3,0.3c5.7,1.7,10.4,6.2,11.8,11.5l0.3,0.9c0,0,0,0.2,0.2,0.2l0,0c0.2,0,0.2-0.2,0.2-0.2l0.3-0.9
			c1.4-5.3,6.2-9.8,11.8-11.5C155.8,22.9,156.2,22.8,156.2,22.6L156.2,22.6L156.2,22.6L156.2,22.6z"/>
		<path class="st5" d="M167.9,7.4L167.9,7.4L167.9,7.4c0-0.1-0.2-0.1-0.2-0.1c-2.9-0.9-5.4-3.2-6.1-5.9L161.5,1c0,0,0-0.1-0.1-0.1
			l0,0c-0.1,0-0.1,0.1-0.1,0.1l-0.1,0.4c-0.7,2.7-3.2,5.1-6.1,5.9c0,0-0.2,0-0.2,0.1l0,0l0,0l0,0l0,0c0,0.1,0.2,0.1,0.2,0.1
			c2.9,0.9,5.4,3.2,6.1,5.9l0.1,0.4c0,0,0,0.1,0.1,0.1l0,0c0.1,0,0.1-0.1,0.1-0.1l0.1-0.4c0.7-2.7,3.2-5.1,6.1-5.9
			C167.7,7.6,167.9,7.5,167.9,7.4L167.9,7.4L167.9,7.4L167.9,7.4z"/>
		<path class="st0" d="M93.4,80.7c2.2,6.4,7.8,10,16.7,10c10.3,0,18.6-4.5,18.6-14.5c0-8.2-4.8-12.6-13.2-13.8
			c-0.9-0.1-1.6-0.3-2.2-0.3c-5.9-1-8.3-2.2-8.3-5.2c0-2.4,1.4-4.1,6-4.1c3.4,0,6.4,2.5,7.3,5.2c0.1,0.3,0.3,0.5,0.8,0.3l7.6-3.1
			c0.4-0.1,0.7-0.4,0.5-1.1c-1.7-5.5-7.1-9.6-15.8-9.6C99.8,44.5,94,50.5,94,59c0,8.1,5.5,12.6,13.4,13.3c0.5,0.1,1.1,0.1,1.6,0.2
			c6,0.7,7.9,2.4,7.9,5.1c0,3-2.1,4.4-6.6,4.4c-4.1,0-7.1-2.9-7.9-5.3c-0.1-0.5-0.1-0.5-0.7-0.3l-8,3.3C93.2,79.6,93.1,80,93.4,80.7
			L93.4,80.7z"/>
		<path class="st0" d="M149.2,46c0-0.5-0.1-0.6-0.7-0.6c-4.3,0-6.7,0-10.9,0c-0.6,0-0.6-0.1-0.6,0.6c0,8.1,0,14.4,0,21.6
			c0,6.7,0,13.4,0,21.5c0,0.7,0,0.6,0.6,0.6c4.1,0,6.5,0,10.9,0c0.6,0,0.7-0.1,0.7-0.6c0-5.1,0-13.1,0-21.5S149.2,51.1,149.2,46
			L149.2,46z"/>
		<path class="st0" d="M197.6,90.8V45.2c-0.1-0.1-0.2-0.1-0.5-0.1c-4.1,0-6,0-10,0c-0.5,0-0.5,0.1-0.5,0.8v19.7
			c0,0-16.1-14.9-25.5-21.6c-0.3-0.2-0.7-0.2-0.7,0.4v44.7c0,0.3,0.2,0.6,0.6,0.6c3.9,0,5.8,0,9.9,0c0.6,0,0.6,0,0.6-0.6V69
			c0,0,15.5,14.3,25.5,21.7C197.3,90.9,197.5,90.9,197.6,90.8L197.6,90.8z"/>
		<path class="st0" d="M299.5,56.7c0-7.4-4.9-11.7-13-11.7c-8.6,0-15.8,0-23,0c-0.6,0-0.8,0.1-0.8,0.7c0,16.6,0,26.4,0,43
			c0,0.9,0.1,0.9,0.6,0.9c9.5,0,15.5,0,24.8,0c7.8,0,12.6-4.9,12.6-12.1c0-5.2-3.5-10.3-9.1-10.9C296.7,65.1,299.5,61.5,299.5,56.7
			L299.5,56.7z M287.5,58.4c0,2.6-1.5,4.2-4.2,4.2h-8.8v-8.4h8.8C286,54.2,287.5,55.7,287.5,58.4L287.5,58.4z M288.5,75.6
			c0,3.1-1.8,4.8-4.5,4.8h-9.5v-9.7h9.5C286.6,70.7,288.5,72.8,288.5,75.6L288.5,75.6z"/>
		<path class="st0" d="M351.6,88.6c-7.2-14.5-16.2-32.8-22.5-45.1c-0.1-0.1-1.5-0.2-1.6,0c-6,11.2-15.5,30.6-22.3,45.1
			c-0.3,0.7-0.2,0.9,0.3,0.9c4.3,0,6.6,0,10.9,0c0.9,0,1-0.2,1.2-0.7c0.7-1.6,1.5-3.8,2.3-5.7h15.9c0.7,1.6,1.6,4.1,2.4,5.8
			c0.2,0.5,0.5,0.5,0.8,0.5c5.1,0,9.1,0,12.3,0C351.9,89.6,352,89.5,351.6,88.6L351.6,88.6z M332.3,74.6h-9.1l4.5-10L332.3,74.6
			L332.3,74.6z"/>
		<path class="st0" d="M90.2,88.8C83,74.3,74,56,67.7,43.7c-0.1-0.1-1.5-0.2-1.6,0c-6,11.2-15.5,30.6-22.3,45.1
			c-0.3,0.7-0.2,0.9,0.3,0.9c4.3,0,6.6,0,10.9,0c0.9,0,1-0.2,1.2-0.7c0.7-1.6,1.5-3.8,2.3-5.7h15.9c0.7,1.6,1.6,4.1,2.4,5.8
			c0.2,0.5,0.5,0.5,0.8,0.5c5.1,0,9.1,0,12.3,0C90.5,89.7,90.6,89.6,90.2,88.8L90.2,88.8z M70.9,74.8h-9.1l4.5-10L70.9,74.8
			L70.9,74.8z"/>
		<path class="st0" d="M398.1,87.8c-3.8-6.2-7.6-12.8-9.3-15.5c4-1.9,6.1-6.2,6.1-12.2c0-8.1-5.4-15.1-15.5-15H359
			c-0.2,0-0.5-0.1-0.5,0.6c0,8.2,0,14.5,0,21.8c0,6.8,0,13.5,0,21.6c0,0.7,0,0.6,0.5,0.6c3.9,0,6.6,0,10.8,0c0.5,0,0.5-0.1,0.5-0.6
			c0-5.1,0-12.4,0-12.4l7.6-0.1c0,0,4.8,7.6,7,11.8c0.6,1.2,0.9,1.3,1.4,1.3h11.6C398.7,89.5,398.9,89.1,398.1,87.8L398.1,87.8z
			 M382.5,60.9c0,3.8-2,6.4-5.5,6.6l-6.6,0.2V54.8h6.5C380.7,54.8,382.5,57.4,382.5,60.9L382.5,60.9z"/>
		<path class="st0" d="M434.9,73.9c-1.6,3.4-4.7,5.5-9.2,5.5c-5.5,0-11-3.7-11-12c0-7,4.2-12.2,10.8-12.2c4.5,0,7.7,2,9.6,6
			c0.1,0.3,0.2,0.5,0.6,0.3l9.8-3.8c0.3-0.1,0.5-0.4,0.2-1.2c-3-6.7-9.6-12.6-20.5-12.5c-12.9,0-23,9.9-23,23.4
			c0,12.6,9.3,23.2,23.4,23.2c10.3,0,17.6-6.5,20.6-13.6c0.1-0.4,0.1-0.7-0.6-0.9l-9.9-2.7C435.2,73.3,435.1,73.6,434.9,73.9
			L434.9,73.9z"/>
		<path class="st0" d="M32.7,74.2c-1.6,3.4-4.7,5.5-9.2,5.5c-5.5,0-11-3.7-11-12c0-7,4.2-12.2,10.8-12.2c4.5,0,7.7,2,9.6,6
			c0.1,0.3,0.2,0.5,0.6,0.3l9.8-3.8c0.3-0.1,0.5-0.4,0.2-1.2c-3-6.7-9.6-12.6-20.5-12.5c-12.9,0-23,9.9-23,23.4
			c0,12.6,9.3,23.2,23.4,23.2c10.3,0,17.6-6.5,20.6-13.6c0.1-0.4,0.1-0.7-0.6-0.9l-9.9-2.7C32.9,73.6,32.9,73.8,32.7,74.2L32.7,74.2
			z"/>
		<path class="st0" d="M484.7,54.4c0.1-0.2,0.2-0.4,0.2-0.6c0-2.8,0-4.7,0-8c0-0.8-0.1-0.9-0.7-0.9h-29.7c-0.7,0-0.6,0.1-0.6,0.7
			c0,12.6,0,31.5,0,43c0,0.8,0.1,0.9,0.7,0.9h30c0.7,0,0.7-0.1,0.7-0.9c0-2.7,0-5.2,0-8.5c0-0.3,0-0.5-0.1-0.6h-20v-7.8h18.9
			c0.2-0.1,0.2-0.3,0.2-0.8c0-2.6,0-4.8,0-8c0-0.3,0-0.6-0.1-0.7h-19v-7.8H484.7L484.7,54.4z"/>
		<path class="st0" d="M507.9,79L507.9,79c0,0,0-26.6,0-33.5c0-0.5-0.1-0.6-0.6-0.6c-4.1,0-6.8,0-10.6,0c-0.6,0-0.6-0.1-0.6,0.6
			c0,8.2,0,14.5,0,21.8c0,6.8,0,13.5,0,21.6c0,0.7,0,0.6,0.6,0.6c3.9,0,23.7,0,27.8,0c0.5,0,0.5-0.1,0.5-0.6c0-5.1,0-7,0-9.5
			c0-0.1,0-0.2-0.1-0.3L507.9,79L507.9,79L507.9,79z"/>
		<path class="st0" d="M575.3,67.3c0-12.9-10.1-23.3-23.4-23.3c-13.3,0-23.3,10.5-23.3,23.4s10.1,23.3,23.4,23.3
			C565.3,90.6,575.4,80.2,575.3,67.3L575.3,67.3z M563,67.3c0,6.8-4.1,12-11,12c-7.1,0-11-5.3-11.1-12c0-6.8,3.9-12.1,11-12.1
			C559,55.2,563,60.5,563,67.3L563,67.3z"/>
		<path class="st0" d="M252.9,67.5c0-12.9-10.1-23.3-23.4-23.3c-13.3,0-23.3,10.5-23.3,23.4s10.1,23.3,23.4,23.3
			C242.9,90.7,252.9,80.3,252.9,67.5L252.9,67.5z M240.6,67.5c0,6.8-4.1,12-11,12c-7.1,0-11-5.3-11.1-12c0-6.8,3.9-12.1,11-12.1
			C236.5,55.4,240.6,60.7,240.6,67.5L240.6,67.5z"/>
		<path class="st0" d="M620.7,90.6V45c-0.1-0.1-0.2-0.1-0.5-0.1c-4.1,0-6,0-10,0c-0.5,0-0.5,0.1-0.5,0.8v19.7
			c0,0-16.1-14.9-25.5-21.6c-0.3-0.2-0.7-0.2-0.7,0.4v44.7c0,0.3,0.2,0.6,0.6,0.6c3.9,0,5.8,0,9.9,0c0.6,0,0.6,0,0.6-0.6V68.8
			c0,0,15.5,14.3,25.5,21.7C620.4,90.7,620.6,90.7,620.7,90.6L620.7,90.6z"/>
		<path class="st0" d="M673.5,88.5C666.3,74,657.3,55.7,651,43.4c-0.1-0.1-1.5-0.2-1.6,0c-6,11.2-15.5,30.6-22.3,45.1
			c-0.3,0.7-0.2,0.9,0.3,0.9c4.3,0,6.6,0,10.9,0c0.9,0,1-0.2,1.2-0.7c0.7-1.6,1.5-3.8,2.3-5.7h15.9c0.7,1.6,1.6,4.1,2.4,5.8
			c0.2,0.5,0.5,0.5,0.8,0.5c5.1,0,9.1,0,12.3,0C673.8,89.4,673.9,89.3,673.5,88.5L673.5,88.5z M654.2,74.5h-9.1l4.5-10L654.2,74.5
			L654.2,74.5z"/>
		<path class="st0" d="M690,81.2c0-0.7-0.2-0.9-0.9-0.9c-1.6,0-5.6,0-7.8,0c-0.7,0-1.1,0.3-1.1,1.4c0,1.3,0,6.4,0,7.7
			c0,0.8,0.3,1.1,1,1.1c1.7,0,6.3,0,7.8,0c0.9,0,1-0.3,1-1.2C690,86.5,690,84.6,690,81.2L690,81.2z M709.8,61.1
			c-9,0-14.6,6.2-14.5,14.6c0,9.4,6.2,14.9,14.6,14.9c4.3,0,8.1-1.8,9.8-3.3c0.4-0.4,0.6-0.8,0.3-1.3c-1.1-1.7-2.7-3.9-3.8-5.5
			c-0.3-0.4-0.6-0.5-0.8-0.3c-0.9,1.1-2.7,2.8-5.3,2.8c-3.3,0-5.6-1.9-5.6-4.9c0,0,11.7,0,16.5,0c0.8,0,1-0.1,1.1-0.7
			c0.2-0.9,0.3-1.8,0.3-3.8C722.3,65.9,716.6,61.1,709.8,61.1L709.8,61.1z M704.4,73.3c0.3-2.3,1.6-4.7,4.6-4.7
			c2.8,0,4.5,1.8,4.7,4.7H704.4L704.4,73.3z M724.9,84.1c1.8,3.9,5.1,6.5,12.1,6.5c8.1,0,12.7-4.1,12.7-10.3c0-5.2-3.8-7.5-9.4-8.7
			c-4.8-0.9-6-1.5-6-2.6c0-1.2,0.9-1.9,3.1-1.9c1.8,0,3.3,1,4.2,2.5c0.2,0.3,0.3,0.3,0.6,0.2l6.1-2.2c0.3-0.1,0.3-0.4,0.3-0.8
			c-1.1-3.7-4.8-6-10.9-6c-7.7,0-12.5,3.3-12.4,9.1c0,5.5,3.7,7.4,8.9,8.7c4.3,1,5.4,1.8,5.4,3.3c0,1.2-1.1,2.2-3.6,2.2
			c-2,0-3.9-1.3-4.5-3c-0.1-0.2-0.3-0.3-0.5-0.2l-6,2.3C724.7,83.4,724.7,83.7,724.9,84.1L724.9,84.1z"/>
	</g>
</g>
<g id="Capa_37">
</g>
</svg>
