<svg xmlns="http://www.w3.org/2000/svg" width="100.049" height="34.991" viewBox="0 0 100.049 34.991">
  <path id="logo-landing-1" d="M89.656,19.915l.018.106-5.143.018,4.562-7.75Zm-50.217,13.6c-.317-.335-.317-.969,0-1.867L49.989,2.055l.617-.669-.018-.106-11.5-.035a.047.047,0,0,1-.053.053,4.983,4.983,0,0,1-.3,2.484L29.169,31.312a4.773,4.773,0,0,1-1.356,2.2H39.438ZM68.079,30.7q7.187-7.5-1-13.95-.37-.291-4.756-3.118c-2.642-1.709-3.8-2.642-3.84-4.087C58.426,7.55,61,5.929,65.419,6.616a14.683,14.683,0,0,1,7.187,3.558l.264-.018L74.138,3.34A18.646,18.646,0,0,0,68.008.452C60.646-1.2,48.157,1.526,48.474,11.408q.159,4.967,5.425,7.4l.9.405c2.695,1.251,6.552,3.188,6.429,6.2-.159,4.263-9.318,3.523-14.373-.141L44.7,23.579l-.159,6.94c-.035,1.039,2.695,2.484,4.21,3.03,6.535,2.4,14.637,2.043,19.323-2.853Zm31.97,2.765L99.784,31.4,97.829,1.3l-10.093.018-.123.828L68.625,33.532l9.018-.035a2.5,2.5,0,0,1-.123-1.9l3.787-6.147,8.983-.158c0,.141.053,1.973.176,5.478a9.585,9.585,0,0,1-.194,2.713ZM27.549,1.4l.194,1.057L14.567,22.645a.2.2,0,0,0-.176-.035L14.3,1.473H0c.159.176.634.546,1.374,1.145a9.146,9.146,0,0,1,1.885,1.92A5.124,5.124,0,0,1,4.351,6.775l.088,26.88,10.375.07L37.324,1.42,27.549,1.4Z" transform="translate(0)" fill="#fff"/>
</svg>
