<?xml version="1.0" encoding="utf-8"?>
<!-- Generator: Adobe Illustrator 27.0.1, SVG Export Plug-In . SVG Version: 6.00 Build 0)  -->
<svg version="1.1" id="logo-landing-5" xmlns="http://www.w3.org/2000/svg" xmlns:xlink="http://www.w3.org/1999/xlink" x="0px"
	 y="0px" viewBox="0 0 150 75" style="enable-background:new 0 0 150 75;" xml:space="preserve">
<style type="text/css">
	.st0{fill:#FFFFFF;}
</style>
<path id="Trazado_4159" class="st0" d="M132.3,35.5c-1.1,0.6-2.3,0.9-3.6,0.8h-1.6l1.2-6.6h1.2c1-0.1,2.1,0.1,3,0.6
	c0.8,0.5,1.2,1.4,1.1,2.3C133.7,33.8,133.2,34.9,132.3,35.5 M37.8,43.7H25.5l0.8-4.3H34l0.9-4.9h-7.6l0.8-4.2h12.2L37.8,43.7z
	 M138.9,26.7c-1.8-1.3-4.5-1.8-8.1-1.8h-9.3L118,43.7h-12.2l0.8-4.3h7.4l0.9-4.8h-7.4l0.8-4.3h7.6l1-5.6h-15.5l-3.3,17.9h-5.7
	l3.3-17.9h-8.2l-3.3,17.9h-5.6l3.3-17.9H74l-3.5,18.9H58.1l0.8-4.3h7.4l0.9-4.8h-7.4l0.8-4.3h7.7l1-5.6H21.2l-2.7,15l-5.5-14.9H4.5
	L0,49.3h8l2.7-15.4L16,49.3h28.7l3.5-18.9h4.5l-3.5,18.9h75.5l2.2-11.9l3.5,11.9h8l-3.7-9.7l0.8-0.2c1.7-0.3,3.2-1.2,4.3-2.5
	c1.1-1.4,1.6-3.2,1.5-4.9C141.6,29.9,140.6,27.9,138.9,26.7"/>
<path id="Trazado_4160" class="st0" d="M145.4,46.4l1.1-0.1c0.2,0,0.4,0,0.6-0.1c0.1,0,0.2-0.1,0.3-0.3c0.1-0.1,0.1-0.2,0.1-0.4
	c0-0.2-0.1-0.3-0.2-0.4c-0.2-0.1-0.4-0.2-0.6-0.1l-1.2,0.1L145.4,46.4z M145.1,48.5l-0.2-3.9l1.7-0.1c0.3,0,0.5,0,0.8,0.1
	c0.2,0.1,0.3,0.2,0.4,0.3c0.1,0.2,0.2,0.4,0.2,0.6c0,0.3-0.1,0.5-0.3,0.7c-0.2,0.2-0.5,0.3-0.8,0.4c0.1,0,0.2,0.1,0.3,0.2
	c0.2,0.2,0.3,0.3,0.4,0.5l0.7,1l-0.6,0.1l-0.6-0.8c-0.1-0.2-0.3-0.3-0.4-0.5l-0.3-0.3c-0.1-0.1-0.2-0.1-0.3-0.1h-0.9l0.1,1.7
	L145.1,48.5z"/>
<path id="Trazado_4161" class="st0" d="M143.4,46.7c-0.1-0.8,0.2-1.6,0.8-2.1c0.5-0.6,1.3-1,2.1-1c1.6-0.1,3,1.2,3.2,2.8v0.1
	c0,1.6-1.3,2.9-2.8,3c-1.6,0.1-3-1-3.1-2.6C143.4,46.8,143.4,46.8,143.4,46.7 M146.2,43c-1,0-1.8,0.5-2.5,1.2
	c-0.6,0.7-1,1.6-0.9,2.6c0.1,2,1.8,3.5,3.8,3.4c2-0.1,3.5-1.8,3.4-3.8S148.2,42.9,146.2,43L146.2,43"/>
</svg>
