<?xml version="1.0" encoding="utf-8"?>
<!-- Generator: Adobe Illustrator 27.0.1, SVG Export Plug-In . SVG Version: 6.00 Build 0)  -->
<svg version="1.1" id="logo-landing-6" xmlns="http://www.w3.org/2000/svg" xmlns:xlink="http://www.w3.org/1999/xlink" x="0px"
	 y="0px" viewBox="0 0 150 75" style="enable-background:new 0 0 150 75;" xml:space="preserve">
<style type="text/css">
	.st0{fill:#FFFFFF;}
	.st1{opacity:0.5;fill:#FFFFFF;}
	.st2{opacity:0.25;fill:#FFFFFF;}
</style>
<path id="Trazado_4204" class="st0" d="M115.1,27.6h-8.2c-0.6,0-1,0.4-1.1,1l-3.3,20.9c-0.1,0.4,0.2,0.7,0.6,0.8c0,0,0.1,0,0.1,0
	h4.2c0.4,0,0.7-0.3,0.8-0.7l1-5.9c0.1-0.6,0.6-1,1.1-1h2.6c5.4,0,8.5-2.6,9.3-7.8c0.4-1.8,0.1-3.8-1-5.3
	C119.8,28.3,117.8,27.5,115.1,27.6L115.1,27.6z M116,35.2c-0.4,2.9-2.7,2.9-4.8,2.9h-1.2l0.9-5.5c0-0.3,0.3-0.6,0.7-0.6h0.5
	c1.5,0,2.9,0,3.6,0.8C116.1,33.6,116.2,34.4,116,35.2L116,35.2z"/>
<path id="Trazado_4205" class="st0" d="M56.9,27.6h-8.2c-0.6,0-1,0.4-1.1,1l-3.3,20.9c-0.1,0.4,0.2,0.7,0.6,0.8c0,0,0.1,0,0.1,0h3.9
	c0.6,0,1-0.4,1.1-1l0.9-5.6c0.1-0.6,0.6-1,1.1-1h2.6c5.4,0,8.5-2.6,9.3-7.8c0.4-1.8,0.1-3.8-1-5.3C61.7,28.3,59.6,27.6,56.9,27.6z
	 M57.8,35.2c-0.4,2.9-2.7,2.9-4.8,2.9h-1.2l0.9-5.5c0-0.3,0.3-0.6,0.7-0.6h0.5c1.5,0,2.9,0,3.6,0.8C57.9,33.6,58.1,34.4,57.8,35.2
	L57.8,35.2z"/>
<path id="Trazado_4206" class="st0" d="M81.3,35.1h-3.9c-0.3,0-0.6,0.3-0.7,0.6l-0.2,1.1l-0.3-0.4c-0.8-1.2-2.7-1.6-4.6-1.6
	c-4.4,0.1-8.2,3.4-8.7,7.8c-0.4,2.1,0.1,4.3,1.5,6c1.3,1.4,3.1,2.1,4.9,2c2,0,4-0.8,5.4-2.2l-0.2,1.1c-0.1,0.4,0.2,0.7,0.6,0.8
	c0,0,0.1,0,0.1,0h3.5c0.6,0,1-0.4,1.1-1l2.1-13.4c0.1-0.4-0.2-0.7-0.6-0.8C81.4,35.1,81.3,35.1,81.3,35.1z M75.8,42.7
	c-0.3,2.2-2.2,3.8-4.4,3.7c-1.7,0.2-3.2-1-3.3-2.7c0-0.4,0-0.7,0.1-1.1c0.3-2.2,2.2-3.8,4.4-3.8c1-0.1,1.9,0.3,2.6,1.1
	C75.8,40.7,76,41.7,75.8,42.7L75.8,42.7z"/>
<path id="Trazado_4207" class="st0" d="M139.4,35.1h-3.9c-0.3,0-0.6,0.3-0.7,0.6l-0.2,1.1l-0.3-0.4c-0.8-1.2-2.7-1.6-4.6-1.6
	c-4.4,0.1-8.2,3.4-8.7,7.8c-0.4,2.1,0.1,4.3,1.5,6c1.3,1.4,3.1,2.1,4.9,2c2,0,4-0.8,5.4-2.2l-0.2,1.1c-0.1,0.4,0.2,0.7,0.6,0.8
	c0,0,0.1,0,0.1,0h3.5c0.6,0,1-0.4,1.1-1l2.1-13.4c0.1-0.4-0.2-0.7-0.6-0.8C139.5,35.1,139.5,35.1,139.4,35.1z M134,42.7
	c-0.3,2.2-2.2,3.8-4.4,3.7c-1.7,0.2-3.2-1-3.3-2.7c0-0.4,0-0.7,0.1-1.1c0.3-2.2,2.2-3.8,4.4-3.8c1-0.1,1.9,0.3,2.6,1.1
	C133.9,40.7,134.2,41.7,134,42.7L134,42.7z"/>
<path id="Trazado_4208" class="st0" d="M102.1,35.1h-3.9c-0.4,0-0.7,0.2-1,0.5l-5.4,8l-2.3-7.7c-0.1-0.5-0.6-0.8-1.1-0.8h-3.9
	c-0.4,0-0.7,0.3-0.7,0.7c0,0.1,0,0.1,0,0.2l4.3,12.7l-4.1,5.7c-0.2,0.3-0.2,0.7,0.1,0.9c0.1,0.1,0.3,0.1,0.4,0.1h3.9
	c0.4,0,0.7-0.2,0.9-0.5l13-18.8c0.2-0.3,0.2-0.7-0.1-0.9C102.4,35.1,102.2,35.1,102.1,35.1z"/>
<path id="Trazado_4209" class="st0" d="M144,28.1l-3.3,21.3c-0.1,0.4,0.2,0.7,0.6,0.8c0,0,0.1,0,0.1,0h3.4c0.6,0,1-0.4,1.1-1
	l3.3-20.9c0.1-0.4-0.2-0.7-0.6-0.8c0,0-0.1,0-0.1,0h-3.8C144.4,27.6,144.1,27.8,144,28.1z"/>
<path id="Trazado_4210" class="st1" d="M28.3,28.7c0.4-2.8,0-4.7-1.5-6.4c-1.6-1.9-4.7-2.7-8.5-2.7H7.1c-0.8,0-1.5,0.6-1.6,1.4
	L0.9,50.4c-0.1,0.5,0.3,1,0.8,1.1c0.1,0,0.1,0,0.2,0h6.9l-0.5,3C8.2,55,8.5,55.4,9,55.5c0,0,0.1,0,0.1,0h5.8c0.7,0,1.3-0.5,1.4-1.2
	l0.1-0.3l1.1-7l0.1-0.4c0.1-0.7,0.7-1.2,1.4-1.2h0.9c5.6,0,10-2.3,11.3-8.9c0.5-2.8,0.3-5.1-1.2-6.7C29.5,29.4,29,29,28.3,28.7"/>
<path id="Trazado_4211" class="st2" d="M28.3,28.7c0.4-2.8,0-4.7-1.5-6.4c-1.6-1.9-4.7-2.7-8.5-2.7H7.1c-0.8,0-1.5,0.6-1.6,1.4
	L0.9,50.4c-0.1,0.5,0.3,1,0.8,1.1c0.1,0,0.1,0,0.2,0h6.9l1.7-11l0,0.3c0.1-0.8,0.8-1.4,1.6-1.4h3.3c6.4,0,11.5-2.6,13-10.2
	C28.3,29.1,28.3,28.9,28.3,28.7"/>
<path id="Trazado_4212" class="st0" d="M12.3,28.7c0.1-0.5,0.4-0.9,0.8-1.1c0.2-0.1,0.4-0.1,0.6-0.1h8.8c1,0,1.9,0.1,2.9,0.2
	c0.2,0,0.5,0.1,0.7,0.1c0.2,0.1,0.5,0.1,0.7,0.2l0.3,0.1c0.4,0.1,0.8,0.3,1.2,0.5c0.4-2.8,0-4.7-1.5-6.4c-1.6-1.9-4.7-2.7-8.5-2.7
	H7.1c-0.8,0-1.5,0.6-1.6,1.4L0.9,50.4c-0.1,0.5,0.3,1,0.8,1.1c0.1,0,0.1,0,0.2,0h6.9l1.7-11L12.3,28.7z"/>
</svg>
