<?xml version="1.0" encoding="utf-8"?>
<!-- Generator: Adobe Illustrator 27.0.0, SVG Export Plug-In . SVG Version: 6.00 Build 0)  -->
<svg version="1.1" id="_x30_3" xmlns="http://www.w3.org/2000/svg" xmlns:xlink="http://www.w3.org/1999/xlink" x="0px" y="0px"
	 viewBox="0 0 1018.7 99.9" style="enable-background:new 0 0 1018.7 99.9;" xml:space="preserve">
<style type="text/css">
	.st0{clip-path:url(#Rcorte_00000182520860983688843040000009386837286507422363_);}
	.st1{fill-rule:evenodd;clip-rule:evenodd;fill:#DF040B;}
	.st2{display:none;fill:#DF040B;}
	.st3{fill:#DF040B;}
</style>
<g id="Capa_39">
</g>
<g id="Capa_36">
</g>
<g id="Logo_x5F_02_x5F_b_00000037663692745268114470000015751869417357428619_">
	<g>
		<path id="o_00000035489273447364244790000005198453706963236244_" d="M950.2,60.2c0-8.7-6.5-14.8-14.8-14.8
			c-8.1,0-14.8,6.1-14.8,14.8c0,8.7,6.7,14.8,14.8,14.8C943.7,75,950.2,68.9,950.2,60.2z M926.6,60.2c0-5.9,3.6-9.6,8.8-9.6
			c5.2,0,8.8,3.7,8.8,9.6s-3.6,9.6-8.8,9.6C930.2,69.9,926.6,66.1,926.6,60.2z"/>
		<g id="s_00000051376856672400365500000011746981222547330725_">
			<defs>
				<rect id="Rcorte_00000020382059864823602260000001823210012378121115_" x="960.4" y="31.3" width="29.1" height="52.9"/>
			</defs>
			<clipPath id="Rcorte_00000062164575081635203000000004950995921232726405_">
				<use xlink:href="#Rcorte_00000020382059864823602260000001823210012378121115_"  style="overflow:visible;"/>
			</clipPath>
			
				<path id="s_00000155134703479073787200000000716516375110173090_" style="clip-path:url(#Rcorte_00000062164575081635203000000004950995921232726405_);" d="
				M986.9,91.3c0-10.2-14.8-6.9-14.8-12.7c0-2.4,1.7-3.5,4-3.4c2.5,0,4,1.5,4.1,3.4l6.4,0c-0.4-5.2-4.4-8.2-10.3-8.2
				c-6,0-10.2,3.2-10.2,8.4c0,10.5,14.9,6.7,14.9,12.9c0,2.1-1.6,3.5-4.3,3.5c-2.7,0-4.2-1.5-4.4-3.8l-6.2,0
				c0.1,5.5,4.7,8.6,10.7,8.6C983.2,99.9,986.9,95.8,986.9,91.3z"/>
			
				<path id="s_00000084526579985835205280000004382503914311526016_" style="clip-path:url(#Rcorte_00000062164575081635203000000004950995921232726405_);" d="
				M986.8,49.9c0-10.2-14.8-6.9-14.8-12.7c0-2.4,1.7-3.5,4-3.4c2.5,0,4,1.5,4.1,3.4l6.4,0c-0.4-5.2-4.4-8.2-10.3-8.2
				c-6,0-10.2,3.2-10.2,8.4c0,10.5,14.9,6.7,14.9,12.9c0,2.1-1.6,3.5-4.3,3.5c-2.7,0-4.2-1.5-4.4-3.8l-6.2,0
				c0.1,5.5,4.7,8.6,10.7,8.6C983.2,58.5,986.9,54.4,986.8,49.9z"/>
		</g>
		<path id="ñ_00000039846111478998699400000013775868426178855347_" d="M899.8,45.8l0,19.9l-13.1-19.9l-5.8,0l0,28.9l5.8,0l0-19.8
			l13.1,19.8l5.8,0l0-28.9L899.8,45.8z M885.8,43.6l3.1,0c0.2-1.2,0.9-1.8,1.8-1.8c1.7,0,2.7,1.9,5.1,1.9c2.6,0,4.6-1.7,5.1-5.4
			l-3.1,0c-0.2,1.2-0.8,1.8-1.8,1.8c-1.7,0-2.7-1.8-5.1-1.8C888.3,38.2,886.3,39.9,885.8,43.6z"/>
		<path id="a_00000096026801674690656520000006922502450839221682_" d="M857.8,74.8l6.1,0l-10.4-28.9l-6.7,0l-10.4,28.9l6.1,0
			l1.9-5.5l11.5,0L857.8,74.8z M854.3,64.7l-8.4,0l4.2-12.1L854.3,64.7z"/>
		<path id="_x30__00000153684199315061971170000012002038225974838147_" d="M796.2,58.7c0,9.4,2.9,16.5,12.1,16.5
			c9.2,0,12.1-7.1,12.1-16.5c0-9.4-2.9-16.4-12.1-16.4C799.1,42.3,796.2,49.4,796.2,58.7z M814.2,58.7c0,5.8-0.6,10.7-5.9,10.7
			c-5.3,0-5.9-5-5.9-10.7c0-5.5,0.6-10.6,5.9-10.6S814.2,53.2,814.2,58.7z"/>
		<path id="_x31__00000096030405689866225370000000044226394004740020_" d="M784.6,74.8l6.4,0l0-32.3l-10.8,0l0,5.7l4.3,0
			L784.6,74.8z"/>
		<g id="Palanca_00000055672774157058379770000005447199867029097607_">
			<g>
				<path class="st1" d="M1018.7,9.3c0-5.1-4.3-9.3-9.5-9.3c-5.3,0-9.5,4.2-9.5,9.3c0,4.6,3.5,8.5,8.1,9.2l0,34.6l-1.5,0
					c0,0-0.1,0-0.1,0l0-2.6c0-1.2-1-2.3-2.3-2.3l-1.8,0l0,19.4l1.8,0c1.3,0,2.3-1,2.3-2.3l0-3.4c0,0,0.1,0,0.1,0l3.9,0
					c2.1,0,3.9-1.7,3.9-3.8l0-1.4c0-1.9-1.4-3.4-3.3-3.7l0-34.7C1015.2,17.7,1018.7,13.9,1018.7,9.3z"/>
			</g>
		</g>
		<g id="Slots_00000067215315971916175030000006899683201092161690_">
			<g>
				<path class="st1" d="M827.6,31.4l0,52.9l2.7,0l0-52.9L827.6,31.4z M870.2,31.3l0,52.9l2.7,0l0-52.9L870.2,31.3z M913.1,31.3
					l0,52.9l2.7,0l0-52.9L913.1,31.3z M957.8,31.3l-2.7,0l0,52.9l2.7,0L957.8,31.3z"/>
			</g>
		</g>
		<g id="Base_x5F_Slots_00000031183534751075681850000013043211405465901717_">
			<g>
				<path class="st1" d="M1001.9,35.9c0-6-4.8-10.8-10.8-10.8L777,25.3c-6,0-10.8,4.8-10.8,10.8l0,43.6c0,6,4.8,10.8,10.8,10.8
					l214.2-0.1c6,0,10.8-4.8,10.8-10.8L1001.9,35.9z M988.1,84.2l-208.1,0.1c-4.3,0-7.7-3.5-7.7-7.7l0-37.5c0-4.3,3.4-7.7,7.7-7.7
					l208.1-0.1c4.3,0,7.7,3.5,7.7,7.7l0,37.5C995.8,80.7,992.4,84.2,988.1,84.2z"/>
			</g>
		</g>
	</g>
	<g id="Logo_x5F_Original_00000165224347834613364530000007153895917863694241_">
		<path class="st2" d="M227-120.1C227-120.1,227-120.1,227-120.1L227-120.1c0-0.2-0.4-0.3-0.4-0.3c-6.2-1.8-11.5-6.8-13.1-12.7
			l-0.3-1c0,0,0-0.3-0.2-0.3v0c-0.2,0-0.2,0.3-0.2,0.3l-0.3,1c-1.6,5.9-6.8,10.8-13.1,12.7c0,0-0.4,0.1-0.4,0.3l0,0c0,0,0,0,0,0v0
			l0,0c0,0.2,0.4,0.3,0.4,0.3c6.2,1.8,11.5,6.8,13.1,12.7l0.3,1c0,0,0,0.3,0.2,0.3l0,0c0.2,0,0.2-0.3,0.2-0.3l0.3-1
			c1.6-5.9,6.8-10.8,13.1-12.7C226.6-119.8,227-119.9,227-120.1L227-120.1C227-120.1,227-120.1,227-120.1L227-120.1z"/>
		<path class="st2" d="M239.9-136.9L239.9-136.9L239.9-136.9c0-0.1-0.2-0.2-0.2-0.2c-3.2-0.9-5.9-3.5-6.8-6.5l-0.1-0.5
			c0,0,0-0.1-0.1-0.1v0c-0.1,0-0.1,0.1-0.1,0.1l-0.1,0.5c-0.8,3-3.5,5.6-6.8,6.6c0,0-0.2,0-0.2,0.2l0,0v0v0l0,0
			c0,0.1,0.2,0.2,0.2,0.2c3.2,0.9,5.9,3.5,6.8,6.5l0.1,0.5c0,0,0,0.1,0.1,0.1v0c0.1,0,0.1-0.1,0.1-0.1l0.1-0.5
			c0.8-3,3.5-5.6,6.8-6.6C239.8-136.8,239.9-136.8,239.9-136.9L239.9-136.9L239.9-136.9L239.9-136.9z"/>
		<path class="st3" d="M156.2,22.6C156.2,22.6,156.2,22.6,156.2,22.6L156.2,22.6c0-0.2-0.3-0.3-0.3-0.3c-5.7-1.7-10.4-6.2-11.8-11.5
			l-0.3-0.9c0,0,0-0.2-0.2-0.2v0c-0.2,0-0.2,0.2-0.2,0.2l-0.3,0.9c-1.4,5.3-6.2,9.8-11.8,11.5c0,0-0.3,0.1-0.3,0.3l0,0c0,0,0,0,0,0
			v0l0,0c0,0.2,0.3,0.3,0.3,0.3c5.7,1.7,10.4,6.2,11.8,11.5l0.3,0.9c0,0,0,0.2,0.2,0.2v0c0.2,0,0.2-0.2,0.2-0.2l0.3-0.9
			c1.4-5.3,6.2-9.8,11.8-11.5C155.8,22.9,156.2,22.8,156.2,22.6L156.2,22.6L156.2,22.6L156.2,22.6z"/>
		<path class="st3" d="M167.9,7.4L167.9,7.4L167.9,7.4c0-0.1-0.2-0.1-0.2-0.1c-2.9-0.9-5.4-3.2-6.1-5.9l-0.1-0.4c0,0,0-0.1-0.1-0.1
			v0c-0.1,0-0.1,0.1-0.1,0.1l-0.1,0.4c-0.7,2.7-3.2,5.1-6.1,5.9c0,0-0.2,0-0.2,0.1l0,0v0c0,0,0,0,0,0v0c0,0.1,0.2,0.1,0.2,0.1
			c2.9,0.9,5.4,3.2,6.1,5.9l0.1,0.4c0,0,0,0.1,0.1,0.1v0c0.1,0,0.1-0.1,0.1-0.1l0.1-0.4c0.7-2.7,3.2-5.1,6.1-5.9
			C167.7,7.6,167.9,7.5,167.9,7.4L167.9,7.4C167.9,7.4,167.9,7.4,167.9,7.4L167.9,7.4z"/>
		<path d="M93.4,80.7c2.2,6.4,7.8,10,16.7,10c10.3,0,18.6-4.5,18.6-14.5c0-8.2-4.8-12.6-13.2-13.8c-0.9-0.1-1.6-0.3-2.2-0.3
			c-5.9-1-8.3-2.2-8.3-5.2c0-2.4,1.4-4.1,6-4.1c3.4,0,6.4,2.5,7.3,5.2c0.1,0.3,0.3,0.5,0.8,0.3l7.6-3.1c0.4-0.1,0.7-0.4,0.5-1.1
			c-1.7-5.5-7.1-9.6-15.8-9.6c-11.6,0-17.4,6-17.4,14.5c0,8.1,5.5,12.6,13.4,13.3c0.5,0.1,1.1,0.1,1.6,0.2c6,0.7,7.9,2.4,7.9,5.1
			c0,3-2.1,4.4-6.6,4.4c-4.1,0-7.1-2.9-7.9-5.3c-0.1-0.5-0.1-0.5-0.7-0.3l-8,3.3C93.2,79.6,93.1,80,93.4,80.7L93.4,80.7z"/>
		<path d="M149.2,46c0-0.5-0.1-0.6-0.7-0.6c-4.3,0-6.7,0-10.9,0c-0.6,0-0.6-0.1-0.6,0.6c0,8.1,0,14.4,0,21.6c0,6.7,0,13.4,0,21.5
			c0,0.7,0,0.6,0.6,0.6c4.1,0,6.5,0,10.9,0c0.6,0,0.7-0.1,0.7-0.6c0-5.1,0-13.1,0-21.5C149.2,59.2,149.2,51.1,149.2,46L149.2,46z"/>
		<path d="M197.6,90.8l0-45.6c-0.1-0.1-0.2-0.1-0.5-0.1c-4.1,0-6,0-10,0c-0.5,0-0.5,0.1-0.5,0.8l0,19.7c0,0-16.1-14.9-25.5-21.6
			c-0.3-0.2-0.7-0.2-0.7,0.4l0,44.7c0,0.3,0.2,0.6,0.6,0.6c3.9,0,5.8,0,9.9,0c0.6,0,0.6,0,0.6-0.6l0-20.1c0,0,15.5,14.3,25.5,21.7
			C197.3,90.9,197.5,90.9,197.6,90.8L197.6,90.8z"/>
		<path d="M299.5,56.7c0-7.4-4.9-11.7-13-11.7c-8.6,0-15.8,0-23,0c-0.6,0-0.8,0.1-0.8,0.7c0,16.6,0,26.4,0,43c0,0.9,0.1,0.9,0.6,0.9
			c9.5,0,15.5,0,24.8,0c7.8,0,12.6-4.9,12.6-12.1c0-5.2-3.5-10.3-9.1-10.9C296.7,65.1,299.5,61.5,299.5,56.7L299.5,56.7z
			 M287.5,58.4c0,2.6-1.5,4.2-4.2,4.2l-8.8,0l0-8.4l8.8,0C286,54.2,287.5,55.7,287.5,58.4L287.5,58.4z M288.5,75.6
			c0,3.1-1.8,4.8-4.5,4.8l-9.5,0l0-9.7l9.5,0C286.6,70.7,288.5,72.8,288.5,75.6L288.5,75.6z"/>
		<path d="M351.6,88.6c-7.2-14.5-16.2-32.8-22.5-45.1c-0.1-0.1-1.5-0.2-1.6,0c-6,11.2-15.5,30.6-22.3,45.1c-0.3,0.7-0.2,0.9,0.3,0.9
			c4.3,0,6.6,0,10.9,0c0.9,0,1-0.2,1.2-0.7c0.7-1.6,1.5-3.8,2.3-5.7l15.9,0c0.7,1.6,1.6,4.1,2.4,5.8c0.2,0.5,0.5,0.5,0.8,0.5
			c5.1,0,9.1,0,12.3,0C351.9,89.6,352,89.5,351.6,88.6L351.6,88.6z M332.3,74.6l-9.1,0l4.5-10L332.3,74.6L332.3,74.6z"/>
		<path d="M90.2,88.8C83,74.3,74,56,67.7,43.7c-0.1-0.1-1.5-0.2-1.6,0c-6,11.2-15.5,30.6-22.3,45.1c-0.3,0.7-0.2,0.9,0.3,0.9
			c4.3,0,6.6,0,10.9,0c0.9,0,1-0.2,1.2-0.7c0.7-1.6,1.5-3.8,2.3-5.7l15.9,0c0.7,1.6,1.6,4.1,2.4,5.8c0.2,0.5,0.5,0.5,0.8,0.5
			c5.1,0,9.1,0,12.3,0C90.5,89.7,90.6,89.6,90.2,88.8L90.2,88.8z M70.9,74.8l-9.1,0l4.5-10L70.9,74.8L70.9,74.8z"/>
		<path d="M398.1,87.8c-3.8-6.2-7.6-12.8-9.3-15.5c4-1.9,6.1-6.2,6.1-12.2c0-8.1-5.4-15.1-15.5-15l-20.4,0c-0.2,0-0.5-0.1-0.5,0.6
			c0,8.2,0,14.5,0,21.8c0,6.8,0,13.5,0,21.6c0,0.7,0,0.6,0.5,0.6c3.9,0,6.6,0,10.8,0c0.5,0,0.5-0.1,0.5-0.6c0-5.1,0-12.4,0-12.4
			l7.6-0.1c0,0,4.8,7.6,7,11.8c0.6,1.2,0.9,1.3,1.4,1.3l11.6,0C398.7,89.5,398.9,89.1,398.1,87.8L398.1,87.8z M382.5,60.9
			c0,3.8-2,6.4-5.5,6.6l-6.6,0.2l0-12.9l6.5,0C380.7,54.8,382.5,57.4,382.5,60.9L382.5,60.9z"/>
		<path d="M434.9,73.9c-1.6,3.4-4.7,5.5-9.2,5.5c-5.5,0-11-3.7-11-12c0-7,4.2-12.2,10.8-12.2c4.5,0,7.7,2,9.6,6
			c0.1,0.3,0.2,0.5,0.6,0.3l9.8-3.8c0.3-0.1,0.5-0.4,0.2-1.2c-3-6.7-9.6-12.6-20.5-12.5c-12.9,0-23,9.9-23,23.4
			c0,12.6,9.3,23.2,23.4,23.2c10.3,0,17.6-6.5,20.6-13.6c0.1-0.4,0.1-0.7-0.6-0.9l-9.9-2.7C435.2,73.3,435.1,73.6,434.9,73.9
			L434.9,73.9z"/>
		<path d="M32.7,74.2c-1.6,3.4-4.7,5.5-9.2,5.5c-5.5,0-11-3.7-11-12c0-7,4.2-12.2,10.8-12.2c4.5,0,7.7,2,9.6,6
			c0.1,0.3,0.2,0.5,0.6,0.3l9.8-3.8c0.3-0.1,0.5-0.4,0.2-1.2c-3-6.7-9.6-12.6-20.5-12.5c-12.9,0-23,9.9-23,23.4
			c0,12.6,9.3,23.2,23.4,23.2c10.3,0,17.6-6.5,20.6-13.6c0.1-0.4,0.1-0.7-0.6-0.9l-9.9-2.7C32.9,73.6,32.9,73.8,32.7,74.2L32.7,74.2
			z"/>
		<path d="M484.7,54.4c0.1-0.2,0.2-0.4,0.2-0.6c0-2.8,0-4.7,0-8c0-0.8-0.1-0.9-0.7-0.9l-29.7,0c-0.7,0-0.6,0.1-0.6,0.7
			c0,12.6,0,31.5,0,43c0,0.8,0.1,0.9,0.7,0.9l30,0c0.7,0,0.7-0.1,0.7-0.9c0-2.7,0-5.2,0-8.5c0-0.3,0-0.5-0.1-0.6l-20,0l0-7.8l18.9,0
			c0.2-0.1,0.2-0.3,0.2-0.8c0-2.6,0-4.8,0-8c0-0.3,0-0.6-0.1-0.7l-19,0l0-7.8L484.7,54.4L484.7,54.4z"/>
		<path d="M507.9,79L507.9,79c0,0,0-26.6,0-33.5c0-0.5-0.1-0.6-0.6-0.6c-4.1,0-6.8,0-10.6,0c-0.6,0-0.6-0.1-0.6,0.6
			c0,8.2,0,14.5,0,21.8c0,6.8,0,13.5,0,21.6c0,0.7,0,0.6,0.6,0.6c3.9,0,23.7,0,27.8,0c0.5,0,0.5-0.1,0.5-0.6c0-5.1,0-7,0-9.5
			c0-0.1,0-0.2-0.1-0.3L507.9,79L507.9,79L507.9,79z"/>
		<path d="M575.3,67.3c0-12.9-10.1-23.3-23.4-23.3c-13.3,0-23.3,10.5-23.3,23.4c0,12.9,10.1,23.3,23.4,23.3
			C565.3,90.6,575.4,80.2,575.3,67.3L575.3,67.3z M563,67.3c0,6.8-4.1,12-11,12c-7.1,0-11-5.3-11.1-12c0-6.8,3.9-12.1,11-12.1
			C559,55.2,563,60.5,563,67.3L563,67.3z"/>
		<path d="M252.9,67.5c0-12.9-10.1-23.3-23.4-23.3c-13.3,0-23.3,10.5-23.3,23.4c0,12.9,10.1,23.3,23.4,23.3
			C242.9,90.7,252.9,80.3,252.9,67.5L252.9,67.5z M240.6,67.5c0,6.8-4.1,12-11,12c-7.1,0-11-5.3-11.1-12c0-6.8,3.9-12.1,11-12.1
			C236.5,55.4,240.6,60.7,240.6,67.5L240.6,67.5z"/>
		<path d="M620.7,90.6l0-45.6c-0.1-0.1-0.2-0.1-0.5-0.1c-4.1,0-6,0-10,0c-0.5,0-0.5,0.1-0.5,0.8l0,19.7c0,0-16.1-14.9-25.5-21.6
			c-0.3-0.2-0.7-0.2-0.7,0.4l0,44.7c0,0.3,0.2,0.6,0.6,0.6c3.9,0,5.8,0,9.9,0c0.6,0,0.6,0,0.6-0.6l0-20.1c0,0,15.5,14.3,25.5,21.7
			C620.4,90.7,620.6,90.7,620.7,90.6L620.7,90.6z"/>
		<path d="M673.5,88.5c-7.2-14.5-16.2-32.8-22.5-45.1c-0.1-0.1-1.5-0.2-1.6,0c-6,11.2-15.5,30.6-22.3,45.1c-0.3,0.7-0.2,0.9,0.3,0.9
			c4.3,0,6.6,0,10.9,0c0.9,0,1-0.2,1.2-0.7c0.7-1.6,1.5-3.8,2.3-5.7l15.9,0c0.7,1.6,1.6,4.1,2.4,5.8c0.2,0.5,0.5,0.5,0.8,0.5
			c5.1,0,9.1,0,12.3,0C673.8,89.4,673.9,89.3,673.5,88.5L673.5,88.5z M654.2,74.5l-9.1,0l4.5-10L654.2,74.5L654.2,74.5z"/>
		<path d="M690,81.2c0-0.7-0.2-0.9-0.9-0.9c-1.6,0-5.6,0-7.8,0c-0.7,0-1.1,0.3-1.1,1.4c0,1.3,0,6.4,0,7.7c0,0.8,0.3,1.1,1,1.1
			c1.7,0,6.3,0,7.8,0c0.9,0,1-0.3,1-1.2C690,86.5,690,84.6,690,81.2L690,81.2z M709.8,61.1c-9,0-14.6,6.2-14.5,14.6
			c0,9.4,6.2,14.9,14.6,14.9c4.3,0,8.1-1.8,9.8-3.3c0.4-0.4,0.6-0.8,0.3-1.3c-1.1-1.7-2.7-3.9-3.8-5.5c-0.3-0.4-0.6-0.5-0.8-0.3
			c-0.9,1.1-2.7,2.8-5.3,2.8c-3.3,0-5.6-1.9-5.6-4.9c0,0,11.7,0,16.5,0c0.8,0,1-0.1,1.1-0.7c0.2-0.9,0.3-1.8,0.3-3.8
			C722.3,65.9,716.6,61.1,709.8,61.1L709.8,61.1z M704.4,73.3c0.3-2.3,1.6-4.7,4.6-4.7c2.8,0,4.5,1.8,4.7,4.7L704.4,73.3L704.4,73.3
			z M724.9,84.1c1.8,3.9,5.1,6.5,12.1,6.5c8.1,0,12.7-4.1,12.7-10.3c0-5.2-3.8-7.5-9.4-8.7c-4.8-0.9-6-1.5-6-2.6
			c0-1.2,0.9-1.9,3.1-1.9c1.8,0,3.3,1,4.2,2.5c0.2,0.3,0.3,0.3,0.6,0.2l6.1-2.2c0.3-0.1,0.3-0.4,0.3-0.8c-1.1-3.7-4.8-6-10.9-6
			c-7.7,0-12.5,3.3-12.4,9.1c0,5.5,3.7,7.4,8.9,8.7c4.3,1,5.4,1.8,5.4,3.3c0,1.2-1.1,2.2-3.6,2.2c-2,0-3.9-1.3-4.5-3
			c-0.1-0.2-0.3-0.3-0.5-0.2l-6,2.3C724.7,83.4,724.7,83.7,724.9,84.1L724.9,84.1z"/>
	</g>
</g>
<g id="Capa_37">
</g>
</svg>
