<svg xmlns="http://www.w3.org/2000/svg" width="51.665" height="39.454" viewBox="0 0 51.665 39.454">
  <g id="logo-prohibicion" transform="translate(-3.3 -1.613)">
    <g id="AutProhib_x5F_3_x5F_trazado_1_" transform="translate(3.3 34.163)">
      <path id="Trazado_4104" data-name="Trazado 4104" d="M4.393,64.5H3.3L4.508,58H5.889L7.1,64.559H6L5.831,63.12H4.566Zm.345-2.416h.921L5.2,59.266h0Z" transform="translate(-3.3 -57.77)" fill="#fff"/>
      <path id="Trazado_4105" data-name="Trazado 4105" d="M13.949,60.9v4.89h-.978v-.46a1.619,1.619,0,0,1-1.208.575c-.518,0-.863-.4-.863-1.036V60.958h1.036v3.8a.332.332,0,0,0,.345.345,1.049,1.049,0,0,0,.633-.288v-3.8h1.036Z" transform="translate(-6.527 -59.001)" fill="#fff"/>
      <path id="Trazado_4106" data-name="Trazado 4106" d="M17.2,60.729v-.805h.575V58.6h1.036v1.323h.69v.805h-.69v2.819c0,.23.115.4.345.4H19.5v.863a1.136,1.136,0,0,1-.518.058c-.748,0-1.208-.345-1.208-1.093V60.729H17.2Z" transform="translate(-9.203 -58.025)" fill="#fff"/>
      <path id="Trazado_4107" data-name="Trazado 4107" d="M22.2,62.484c0-1.093.4-1.784,1.553-1.784s1.553.748,1.553,1.784v1.438c0,1.093-.4,1.784-1.553,1.784S22.2,64.957,22.2,63.922Zm2.129-.173c0-.575-.173-.805-.575-.805-.345,0-.575.23-.575.805v1.784c0,.575.173.805.575.805.345,0,.575-.23.575-.805Z" transform="translate(-11.326 -58.916)" fill="#fff"/>
      <path id="Trazado_4108" data-name="Trazado 4108" d="M29.4,64.5V58h1.611c1.381,0,2.014.518,2.014,1.956,0,1.381-.633,1.956-2.014,1.956h-.46v2.7H29.4Zm1.093-3.567h.46c.748,0,.978-.23.978-.978,0-.805-.23-.978-.978-.978h-.46Z" transform="translate(-14.384 -57.77)" fill="#fff"/>
      <path id="Trazado_4109" data-name="Trazado 4109" d="M37.1,65.648v-4.89h.978v.575h0a1.326,1.326,0,0,1,1.151-.633h.23v1.036a1.776,1.776,0,0,0-.633-.115.651.651,0,0,0-.69.633V65.59H37.1Z" transform="translate(-17.654 -58.916)" fill="#fff"/>
      <path id="Trazado_4110" data-name="Trazado 4110" d="M42.3,62.484c0-1.093.4-1.784,1.553-1.784s1.553.748,1.553,1.784v1.438c0,1.093-.4,1.784-1.553,1.784S42.3,64.957,42.3,63.922Zm2.129-.173c0-.575-.173-.805-.575-.805-.345,0-.575.23-.575.805v1.784c0,.575.173.805.575.805.345,0,.575-.23.575-.805Z" transform="translate(-19.862 -58.916)" fill="#fff"/>
      <path id="Trazado_4111" data-name="Trazado 4111" d="M49.4,64.5V58h1.036v2.129a1.372,1.372,0,0,1,1.151-.518c.518,0,.863.4.863,1.036v3.912H51.414v-3.8a.332.332,0,0,0-.345-.345,1.049,1.049,0,0,0-.633.288v3.8Z" transform="translate(-22.877 -57.77)" fill="#fff"/>
      <path id="Trazado_4112" data-name="Trazado 4112" d="M56.4,58.921V58h1.036v.921Zm0,5.581v-4.89h1.036V64.5Z" transform="translate(-25.85 -57.77)" fill="#fff"/>
      <path id="Trazado_4113" data-name="Trazado 4113" d="M59.9,64.5V58h1.036v2.071a1.492,1.492,0,0,1,1.036-.518c.633,0,1.036.46,1.036,1.381v2.359c0,.863-.4,1.381-1.036,1.381a1.246,1.246,0,0,1-1.093-.575h0v.518H59.9Zm.978-.978a.824.824,0,0,0,.575.23c.288,0,.46-.173.46-.805V61.164c0-.633-.23-.805-.46-.805a1.215,1.215,0,0,0-.575.23Z" transform="translate(-27.336 -57.77)" fill="#fff"/>
      <path id="Trazado_4114" data-name="Trazado 4114" d="M66.9,58.921V58h1.036v.921Zm0,5.581v-4.89h1.036V64.5Z" transform="translate(-30.309 -57.77)" fill="#fff"/>
      <path id="Trazado_4115" data-name="Trazado 4115" d="M72.471,62.526v-.115c0-.575-.173-.805-.575-.805-.345,0-.575.23-.575.805v1.784c0,.575.173.805.575.805.345,0,.575-.23.575-.805v-.288h1.036v.115c0,1.093-.4,1.784-1.553,1.784S70.4,65.057,70.4,64.022V62.584c0-1.093.4-1.784,1.553-1.784s1.553.69,1.553,1.784H72.471Z" transform="translate(-31.795 -58.959)" fill="#fff"/>
      <path id="Trazado_4116" data-name="Trazado 4116" d="M77.3,58.921V58h1.036v.921Zm0,5.581v-4.89h1.036V64.5Z" transform="translate(-34.725 -57.77)" fill="#fff"/>
      <path id="Trazado_4117" data-name="Trazado 4117" d="M80.7,61.167c0-1.093.4-1.784,1.553-1.784s1.553.748,1.553,1.784v1.438c0,1.093-.4,1.784-1.553,1.784S80.7,63.641,80.7,62.605Zm1.726-2.244h-.748l.69-1.323h1.208Zm.4,2.071c0-.575-.173-.805-.575-.805-.345,0-.575.23-.575.805v1.784c0,.575.173.805.575.805.345,0,.575-.23.575-.805Z" transform="translate(-36.169 -57.6)" fill="#fff"/>
      <path id="Trazado_4118" data-name="Trazado 4118" d="M87.8,65.605v-4.89h.978v.46a1.619,1.619,0,0,1,1.208-.575c.518,0,.863.4.863,1.036v3.912H89.814v-3.8a.332.332,0,0,0-.345-.345,1.049,1.049,0,0,0-.633.288v3.8H87.8Z" transform="translate(-39.184 -58.874)" fill="#fff"/>
    </g>
    <g id="Mano_x5F_circulo_x5F_3_1_" transform="translate(14.824 2.412)">
      <path id="Trazado_4119" data-name="Trazado 4119" d="M23.428,15.35A14.658,14.658,0,1,0,39.71,2.52,14.675,14.675,0,0,0,23.428,15.35Z" transform="translate(-23.33 -2.412)" fill="#e1081b" stroke="#e1081b" stroke-width="1.574"/>
      <path id="Trazado_4120" data-name="Trazado 4120" d="M44.168,30.936c.633-.863,2.3-1.151,2.762-2.877.518-1.726,1.323-5.063,1.726-5.983s2.647-4.085,3.51-5.638-.921-1.726-1.381-1.093c-.345.46-1.726,2.589-2.474,3.625a4.667,4.667,0,0,1-.345.46c-.058.115-1.208-.345-1.151-.518,0-.058.173-.69.173-.748.518-2.014,1.438-5.351,1.9-7.077s-2.071-1.784-2.416-.46c-.518,1.611-1.784,5.811-2.071,6.731,0,.058-.115.4-.115.46-.115.345-1.5,0-1.5-.288v-8.8c0-1.668-2.647-1.5-2.647.058v8.572c0,.345-1.438.46-1.553.115-.115-.288,0,.058-.058-.23-.805-2.474-1.784-4.775-2.244-6.1-.633-1.956-2.934-1.266-2.359.575s1.323,4.315,2.014,6.731c.748,2.474,1.381,3.567-.805,4.488-.575-.46,1.208,1.036-1.726-1.151s-4.545-1.611-5.063-1.036c-.46.575,1.381,1.323,2.589,2.416,1.151,1.093,2.589,2.819,3.97,4.257.748.748,1.093,1.381,1.611,1.841-.23,1.726-2.416,3.222-2.416,3.222a15.142,15.142,0,0,0,8.8,1.093A19.426,19.426,0,0,1,44.168,30.936Z" transform="translate(-25.43 -4.593)" fill="#fff" stroke="#fff" stroke-width="1.626"/>
    </g>
  </g>
</svg>
