<svg id="logo-landing-7" xmlns="http://www.w3.org/2000/svg" xmlns:xlink="http://www.w3.org/1999/xlink" width="194.979" height="49.903" viewBox="0 0 194.979 49.903">
  <defs>
    <clipPath id="clip-path">
      <rect id="Rectángulo_29" data-name="Rectángulo 29" width="194.979" height="49.878" fill="#fff"/>
    </clipPath>
    <clipPath id="clip-path-3">
      <path id="Trazado_4168" data-name="Trazado 4168" d="M3.689,77.826V27.948H198.668V77.826" transform="translate(-3.689 -27.948)" fill="#fff"/>
    </clipPath>
  </defs>
  <g id="Grupo_64" data-name="Grupo 64" transform="translate(0 0)" clip-path="url(#clip-path)">
    <path id="Trazado_4162" data-name="Trazado 4162" d="M18.145,37.826a5.277,5.277,0,0,1,1-3.387,4,4,0,0,1,1.27-.822,3.557,3.557,0,0,1,1.544-.349h6.051c2.664.025,4.034,1.494,4.084,4.383v8.94a3.73,3.73,0,0,1-1.2,2.664,3.835,3.835,0,0,1-2.764,1.22H22.4v6.45H18.17Zm9.712.847q-.037-1.009-.971-1.046H23.574a1.153,1.153,0,0,0-1.2,1.295v5.927a1.2,1.2,0,0,0,1.345,1.27h3.038a.984.984,0,0,0,.772-.349.818.818,0,0,0,.324-.7Z" transform="translate(7.23 -23.93)" fill="#fff"/>
  </g>
  <g id="Grupo_65" data-name="Grupo 65" transform="translate(0 0)" clip-path="url(#clip-path)">
    <path id="Trazado_4163" data-name="Trazado 4163" d="M37.784,38.573c.025-.647-.349-.971-1.145-.946H28.1V33.269H37.71c2.789.05,4.233,1.394,4.258,4.059v9.114A4.236,4.236,0,0,1,40.9,49.305a3.629,3.629,0,0,1-2.764,1.17H32.356c-2.839-.025-4.258-1.32-4.308-3.885V43.08c.025-2.689,1.394-4.034,4.109-4.084h5.653Zm-5.5,6.7a.7.7,0,0,0,.349.6,1.122,1.122,0,0,0,.772.274h3.262c.747,0,1.121-.274,1.145-.872v-1.22c0-.672-.4-1-1.17-1H33.4a1.439,1.439,0,0,0-.872.2,1.376,1.376,0,0,0-.224.921v1.1Z" transform="translate(14.708 -23.93)" fill="#fff"/>
  </g>
  <path id="Trazado_4164" data-name="Trazado 4164" d="M46.417,52.581a1.514,1.514,0,0,0,.872-.349.909.909,0,0,0,.349-.7V50.515H42.208a4.535,4.535,0,0,1-1.693-.274,4.224,4.224,0,0,1-1.345-.9,4.57,4.57,0,0,1-.921-1.444,4.383,4.383,0,0,1-.3-1.743V33.283h4.233v11.48c0,.921.374,1.37,1.145,1.37h2.988a1.367,1.367,0,0,0,.921-.349.909.909,0,0,0,.374-.722V33.283H51.82V52.258a5.345,5.345,0,0,1-1.071,3.387,3.662,3.662,0,0,1-2.889,1.32H37.95V52.606Z" transform="translate(22.187 -23.92)" fill="#fff"/>
  <path id="Trazado_4165" data-name="Trazado 4165" d="M47.753,46.132h7.57c.7-.025,1.046-.3,1.071-.822v-.4a.7.7,0,0,0-.1-.374c-.174-.324-.374-.5-.623-.5H51.937a4.158,4.158,0,0,1-2.864-1.145,3.3,3.3,0,0,1-1.245-2.515V37.142c.05-2.54,1.419-3.835,4.134-3.86h8.765v4.333H53.307c-.872,0-1.32.274-1.32.8v.423q0,.822,1.345.822h3.735a3.459,3.459,0,0,1,2.54,1.145,3.728,3.728,0,0,1,1.1,2.664v3.187a4.131,4.131,0,0,1-1.22,2.664,3.588,3.588,0,0,1-1.17.9,5.09,5.09,0,0,1-1.668.224H47.778V46.132Z" transform="translate(29.591 -23.92)" fill="#fff"/>
  <path id="Trazado_4166" data-name="Trazado 4166" d="M66.619,38.573c.025-.647-.374-.971-1.145-.946H56.933V33.269h9.612c2.789.05,4.233,1.394,4.258,4.059v9.114a4.236,4.236,0,0,1-1.071,2.864,3.629,3.629,0,0,1-2.764,1.17H61.141c-2.839-.025-4.258-1.32-4.308-3.885V43.08c.025-2.689,1.394-4.059,4.109-4.084h5.653Zm-5.5,6.7a.7.7,0,0,0,.349.6,1.122,1.122,0,0,0,.772.274H65.5c.747,0,1.121-.274,1.145-.872v-1.22c0-.672-.4-1-1.17-1H62.237a1.439,1.439,0,0,0-.872.2,1.376,1.376,0,0,0-.224.921v1.1Z" transform="translate(36.448 -23.93)" fill="#fff"/>
  <g id="Grupo_66" data-name="Grupo 66" transform="translate(0 0)" clip-path="url(#clip-path-3)">
    <path id="Trazado_4167" data-name="Trazado 4167" d="M66.778,33.568a3.594,3.594,0,0,1,1.32-2.839,4.854,4.854,0,0,1,3.237-1.121h2.689v4.208H72.381c-.9.025-1.345.448-1.37,1.27v.921h3.013v4.383H71.011V53.24H66.778Z" transform="translate(43.959 -26.695)" fill="#fff"/>
  </g>
  <g id="Grupo_67" data-name="Grupo 67" transform="translate(0 0)" clip-path="url(#clip-path-3)">
    <path id="Trazado_4169" data-name="Trazado 4169" d="M76.623,44.649v.274a1.21,1.21,0,0,0,.274.822.634.634,0,0,0,.548.4H86.16V50.5H76.9a5.9,5.9,0,0,1-1.967-.249,3.87,3.87,0,0,1-1.37-.822,3.462,3.462,0,0,1-.946-1.419,6.332,6.332,0,0,1-.249-2.017l-.025-8.716c.05-2.64,1.419-3.984,4.134-4.009H82.2c2.64.05,3.984,1.444,4.034,4.159v3.436ZM81.877,38.5v-.1a.661.661,0,0,0-.274-.548,1.171,1.171,0,0,0-.722-.2H77.917a1.3,1.3,0,0,0-.921.324.926.926,0,0,0-.448.8v1.743Z" transform="translate(48.159 -23.93)" fill="#fff"/>
  </g>
  <g id="Grupo_68" data-name="Grupo 68" transform="translate(0 0)" clip-path="url(#clip-path-3)">
    <path id="Trazado_4171" data-name="Trazado 4171" d="M87.494,50.543a7.884,7.884,0,0,1-1.768-.174,3.668,3.668,0,0,1-1.668-.8,3.863,3.863,0,0,1-1.2-1.693,6.139,6.139,0,0,1-.349-2.092V37.644a5.331,5.331,0,0,1,.2-1.743,3.721,3.721,0,0,1,.9-1.469A4.213,4.213,0,0,1,85.2,33.411a7.961,7.961,0,0,1,1.818-.2h6.5v1.021H87.17a4.37,4.37,0,0,0-2.64.7,3.1,3.1,0,0,0-1,2.59v8.118a5.421,5.421,0,0,0,.249,1.668,3.361,3.361,0,0,0,.9,1.395,3.676,3.676,0,0,0,1.37.672,7.238,7.238,0,0,0,1.494.149h6.051v1.021Z" transform="translate(55.84 -23.973)" fill="#fff"/>
  </g>
  <g id="Grupo_69" data-name="Grupo 69" transform="translate(0 0)" clip-path="url(#clip-path-3)">
    <path id="Trazado_4173" data-name="Trazado 4173" d="M104.841,45.826a12.194,12.194,0,0,1-.124,1.743,4.32,4.32,0,0,1-.847,1.594,4.241,4.241,0,0,1-3.312,1.37h-5.08a4.509,4.509,0,0,1-3.212-1.17A4.147,4.147,0,0,1,91,46.125V43.51c.05-2.963,1.519-4.482,4.432-4.532h8.417V37.833a3.992,3.992,0,0,0-.822-2.49,2.4,2.4,0,0,0-1.22-.921,6.249,6.249,0,0,0-1.594-.174H91V33.226h8.74a11.569,11.569,0,0,1,2.166.174,2.989,2.989,0,0,1,.921.374,2.755,2.755,0,0,1,.822.8,5.438,5.438,0,0,1,1.145,3.486v7.769Zm-1.021-5.852H95.3a3.279,3.279,0,0,0-2.391.946,3.514,3.514,0,0,0-.9,2.54v2.59a5.769,5.769,0,0,0,.149,1.37,2.208,2.208,0,0,0,.8,1.17,3.688,3.688,0,0,0,2.44.921h5.155c2.166-.025,3.237-1.17,3.237-3.412Z" transform="translate(62.249 -23.963)" fill="#fff"/>
  </g>
  <g id="Grupo_70" data-name="Grupo 70" transform="translate(0 0)" clip-path="url(#clip-path-3)">
    <path id="Trazado_4175" data-name="Trazado 4175" d="M106.243,34.222c-2.366.05-3.536,1.345-3.486,3.885V50.557h-1.021V38.132c-.05-3.262,1.519-4.906,4.657-4.906h1.121v1.021h-1.27Z" transform="translate(70.359 -23.963)" fill="#fff"/>
  </g>
  <g id="Grupo_71" data-name="Grupo 71" transform="translate(0 0)" clip-path="url(#clip-path-3)">
    <path id="Trazado_4177" data-name="Trazado 4177" d="M120.694,48.134c-.1,3.287-1.818,4.881-5.2,4.831h-3.76a11.189,11.189,0,0,1-2.142-.2,4.261,4.261,0,0,1-1.868-1.17,3.75,3.75,0,0,1-.847-1.693,6.5,6.5,0,0,1-.2-1.893V40.589c.05-3.337,1.718-4.98,5.055-4.955H119.7V30.006h1.021Zm-1-11.48h-8.043a6.142,6.142,0,0,0-1.569.2,2.5,2.5,0,0,0-1.394.9,2.893,2.893,0,0,0-.8,1.32,4.435,4.435,0,0,0-.2,1.594v7.894a2.894,2.894,0,0,0,1.145,2.689,4.1,4.1,0,0,0,1.27.5,6.179,6.179,0,0,0,1.569.174h3.511A5.175,5.175,0,0,0,118.4,51a3.448,3.448,0,0,0,1.27-2.963V36.654Z" transform="translate(74.087 -26.395)" fill="#fff"/>
  </g>
  <g id="Grupo_72" data-name="Grupo 72" transform="translate(0 0)" clip-path="url(#clip-path-3)">
    <path id="Trazado_4179" data-name="Trazado 4179" d="M5.314,36.639a5.158,5.158,0,0,1,1-.324,6.437,6.437,0,0,1,12.6.025,4.7,4.7,0,0,1,2.366,1.145,8.612,8.612,0,0,0-.075-1.619,8.634,8.634,0,0,0-17.232.374c-.025.4-.025.822-.025,1.245a5.779,5.779,0,0,1,1.37-.847" transform="translate(-3.496 -27.948)" fill="rgba(255,255,255,0.6)"/>
  </g>
  <g id="Grupo_73" data-name="Grupo 73" transform="translate(0 0)" clip-path="url(#clip-path-3)">
    <path id="Trazado_4181" data-name="Trazado 4181" d="M17.858,33.269H7.5a3.953,3.953,0,0,0-1.544.349,4,4,0,0,0-1.27.822,5.277,5.277,0,0,0-1,3.387v8.093a5.277,5.277,0,0,0,1,3.387,4,4,0,0,0,1.27.822,3.953,3.953,0,0,0,1.544.349H17.858c2.664-.025,4.034-1.494,4.084-4.383V37.651c-.05-2.889-1.394-4.358-4.084-4.383" transform="translate(-3.689 -23.93)" fill="rgba(255,255,255,0.6)"/>
  </g>
  <g id="Grupo_74" data-name="Grupo 74" transform="translate(0 0)" clip-path="url(#clip-path-3)">
    <path id="Trazado_4183" data-name="Trazado 4183" d="M47.867,61.015V52.3c0-.149.025-.274.025-.4a1.623,1.623,0,0,1,1.494-1.668,1.117,1.117,0,0,1,.274-.025H52.5a1.935,1.935,0,0,1,.4.05,1.747,1.747,0,0,1,1.519,1.967v4.084a1.656,1.656,0,0,1-.374,1,2.247,2.247,0,0,1-.224.249,1.887,1.887,0,0,1-1.27.548H49.834V61.04a12.973,12.973,0,0,0-1.967-.025m2.017-5.429a.513.513,0,0,0,.5.473h1.644a.579.579,0,0,0,.324-.174.69.69,0,0,0,.125-.3V52.6c-.05-.224-.125-.349-.374-.4a.091.091,0,0,0-.075-.025H50.457a.487.487,0,0,0-.5.324.811.811,0,0,0-.075.249v2.714a.113.113,0,0,0,0,.125" transform="translate(29.677 -11.137)" fill="#fff"/>
  </g>
  <g id="Grupo_75" data-name="Grupo 75" transform="translate(0 0)" clip-path="url(#clip-path-3)">
    <path id="Trazado_4185" data-name="Trazado 4185" d="M52.393,56.284V54.69a1.73,1.73,0,0,1,1.917-1.868h2.664L56.95,52.4c0-.2-.125-.249-.423-.3H52.417V50.208H56.95c.125,0,.224.025.349.025A1.574,1.574,0,0,1,58.917,51.7a1.644,1.644,0,0,1,.025.349v4.159a1.885,1.885,0,0,1-.025.374,1.768,1.768,0,0,1-1.768,1.494H54.41a1.761,1.761,0,0,1-1.992-1.419c0-.149-.025-.374-.025-.374m2.092-.349a.439.439,0,0,0,.3.174.188.188,0,0,0,.1.025h1.569a.49.49,0,0,0,.4-.149.459.459,0,0,0,.125-.3v-.548c0-.249-.025-.274-.249-.4-.05-.05-.124-.05-.274-.05H54.783l-.075.025c-.2.025-.274.125-.3.374v.623c-.025.025,0,.149.075.224" transform="translate(33.095 -11.137)" fill="#fff"/>
  </g>
  <g id="Grupo_76" data-name="Grupo 76" transform="translate(0 0)" clip-path="url(#clip-path-3)">
    <path id="Trazado_4187" data-name="Trazado 4187" d="M56.9,61.036V59.044h3.984a.187.187,0,0,0,.125-.025.529.529,0,0,0,.448-.473v-.473H58.9a1.885,1.885,0,0,1-1.967-2.017V50.179h1.992v5.254c0,.423.2.623.548.623h1.544a.582.582,0,0,0,.5-.473V50.2H63.5V58.87a2.141,2.141,0,0,1-.025.4,1.82,1.82,0,0,1-1.444,1.718,2.178,2.178,0,0,1-.4.05Z" transform="translate(36.502 -11.159)" fill="#fff"/>
  </g>
  <g id="Grupo_77" data-name="Grupo 77" transform="translate(0 0)" clip-path="url(#clip-path-3)">
    <path id="Trazado_4189" data-name="Trazado 4189" d="M62.536,56.01V52.051c0-1.121.448-1.668,1.345-1.818a1.419,1.419,0,0,1,.324-.025h3.611V52.2H65.126c-.423,0-.548.05-.6.324v2.988a.536.536,0,0,0,.548.548h2.739v1.992H64.6c-1.419,0-2.067-.647-2.067-2.042" transform="translate(40.755 -11.137)" fill="#fff"/>
  </g>
  <g id="Grupo_78" data-name="Grupo 78" transform="translate(0 0)" clip-path="url(#clip-path-3)">
    <path id="Trazado_4191" data-name="Trazado 4191" d="M66.211,56.284V54.69a1.73,1.73,0,0,1,1.917-1.868h2.664l-.025-.423c0-.2-.125-.249-.423-.3H66.236V50.208h4.532c.125,0,.224.025.349.025a1.772,1.772,0,0,1,1.668,1.818v4.159a1.884,1.884,0,0,1-.025.374,1.768,1.768,0,0,1-1.768,1.494H68.253a1.761,1.761,0,0,1-1.992-1.419c-.025-.149-.05-.374-.05-.374m2.092-.349a.439.439,0,0,0,.3.174.188.188,0,0,0,.1.025H70.27a.49.49,0,0,0,.4-.149.459.459,0,0,0,.125-.3v-.548c0-.249-.025-.274-.249-.4-.05-.05-.124-.05-.274-.05H68.6l-.1.025c-.2.025-.274.125-.3.374v.623a.4.4,0,0,0,.1.224" transform="translate(43.531 -11.137)" fill="#fff"/>
  </g>
  <path id="Trazado_4193" data-name="Trazado 4193" d="M70.609,58.052V56.06H74.17c.224-.05.349-.125.4-.3.025-.025.025-.05.025-.1v-.149a.633.633,0,0,0-.05-.174.4.4,0,0,0-.3-.224H72.526a1.533,1.533,0,0,1-.847-.224,1.569,1.569,0,0,1-1-1.444V51.976a2.744,2.744,0,0,1,.05-.448,1.721,1.721,0,0,1,1.893-1.32h4.009L76.66,52.2H73.049c-.05.025-.1.025-.149.05-.025,0-.025.025-.05.05-.125.125-.174.2-.174.274v.2a.4.4,0,0,0,.1.224c.05.075.149.125.374.149h1.768a1.579,1.579,0,0,1,1.245.6,1.918,1.918,0,0,1,.473,1.145l-.025,1.444a1.921,1.921,0,0,1-.3.946,1.67,1.67,0,0,1-1.569.8H70.609Z" transform="translate(46.852 -11.137)" fill="#fff"/>
  <path id="Trazado_4194" data-name="Trazado 4194" d="M74.766,59.327V48.52h1.992v2.938h2.714c.125,0,.224.025.324.025a1.718,1.718,0,0,1,1.494,1.444V59.3H79.322V53.873L79.3,53.8c0-.224-.124-.324-.4-.374H77.33a.537.537,0,0,0-.448.149.509.509,0,0,0-.124.224v5.5H74.766Z" transform="translate(49.991 -12.412)" fill="#fff"/>
  <path id="Trazado_4195" data-name="Trazado 4195" d="M79.078,54.542a1.351,1.351,0,0,1,.349-.9,1.233,1.233,0,0,1,1.768,0,1.248,1.248,0,0,1,0,1.743,1.233,1.233,0,0,1-2.117-.847" transform="translate(53.249 -8.823)" fill="#fff"/>
  <path id="Trazado_4196" data-name="Trazado 4196" d="M83.491,61.015V52.3c0-.149.025-.274.025-.4a1.623,1.623,0,0,1,1.494-1.668,1.022,1.022,0,0,1,.274-.025h2.864a1.935,1.935,0,0,1,.4.05,1.747,1.747,0,0,1,1.519,1.967v4.084a1.656,1.656,0,0,1-.374,1,2.244,2.244,0,0,1-.224.249,1.887,1.887,0,0,1-1.27.548H85.483V61.04a13.3,13.3,0,0,0-1.992-.025m2.017-5.429a.513.513,0,0,0,.5.473h1.644a.579.579,0,0,0,.324-.174.69.69,0,0,0,.125-.3V52.6a.45.45,0,0,0-.374-.4.091.091,0,0,0-.075-.025H86.08a.487.487,0,0,0-.5.324.811.811,0,0,0-.075.249v2.839" transform="translate(56.581 -11.137)" fill="#fff"/>
  <path id="Trazado_4197" data-name="Trazado 4197" d="M88.016,56.284V54.69a1.73,1.73,0,0,1,1.917-1.868H92.6V52.4c0-.2-.149-.249-.423-.3H88.066V50.208H92.6c.125,0,.224.025.349.025a1.772,1.772,0,0,1,1.668,1.818v4.159a1.884,1.884,0,0,1-.025.374A1.775,1.775,0,0,1,92.8,58.077H90.058a1.761,1.761,0,0,1-1.992-1.419,2.193,2.193,0,0,0-.05-.374m2.092-.349a.439.439,0,0,0,.3.174.188.188,0,0,0,.1.025h1.569a.49.49,0,0,0,.4-.149.459.459,0,0,0,.124-.3v-.548c0-.249-.025-.274-.249-.4-.05-.05-.124-.05-.274-.05H90.407l-.1.025c-.2.025-.274.125-.3.374v.623a.4.4,0,0,0,.1.224" transform="translate(59.999 -11.137)" fill="#fff"/>
  <path id="Trazado_4198" data-name="Trazado 4198" d="M92.542,61.036V59.044h3.984a.224.224,0,0,0,.124-.025.529.529,0,0,0,.448-.473v-.473H94.534a1.8,1.8,0,0,1-1.718-.9,1.731,1.731,0,0,1-.274-1.121V50.179h1.992v5.254c0,.423.2.623.548.623h1.544a.582.582,0,0,0,.5-.473V50.2h1.992V58.87a2.143,2.143,0,0,1-.025.4,1.82,1.82,0,0,1-1.444,1.718,2.179,2.179,0,0,1-.4.05Z" transform="translate(63.417 -11.159)" fill="#fff"/>
  <path id="Trazado_4199" data-name="Trazado 4199" d="M98.117,58.052V56.06h3.536c.224-.05.349-.125.4-.3.025-.025.025-.05.025-.1v-.149a.632.632,0,0,0-.05-.174.4.4,0,0,0-.3-.224H100.01a1.682,1.682,0,0,1-.872-.224,1.569,1.569,0,0,1-1-1.444V51.976a2.744,2.744,0,0,1,.05-.448,1.727,1.727,0,0,1,1.868-1.32h4.009l.025,1.992h-3.586c-.05.025-.1.025-.149.05-.025,0-.025.025-.05.05-.125.125-.174.2-.174.274v.2a.4.4,0,0,0,.1.224c.05.075.149.125.374.149h1.768a1.579,1.579,0,0,1,1.245.6,1.918,1.918,0,0,1,.473,1.145l-.025,1.444a1.7,1.7,0,0,1-.3.946,1.67,1.67,0,0,1-1.569.8H98.117Z" transform="translate(67.628 -11.137)" fill="#fff"/>
  <path id="Trazado_4200" data-name="Trazado 4200" d="M102.26,56.284V54.69a1.73,1.73,0,0,1,1.917-1.868h2.664l-.025-.423c0-.2-.125-.249-.423-.3h-4.109V50.208h4.532c.125,0,.224.025.349.025a1.772,1.772,0,0,1,1.668,1.818v4.159a1.887,1.887,0,0,1-.025.374,1.768,1.768,0,0,1-1.768,1.494H104.3a1.761,1.761,0,0,1-1.992-1.419,2.192,2.192,0,0,0-.05-.374m2.092-.349a.439.439,0,0,0,.3.174.188.188,0,0,0,.1.025h1.569a.526.526,0,0,0,.4-.149.459.459,0,0,0,.125-.3v-.548c0-.249,0-.274-.249-.4-.05-.05-.124-.05-.274-.05H104.65l-.075.025c-.2.025-.274.125-.3.374v.623c-.025.025,0,.149.075.224" transform="translate(70.756 -11.137)" fill="#fff"/>
  <path id="Trazado_4201" data-name="Trazado 4201" d="M106.786,59.316V50.327a1.91,1.91,0,0,1,2.117-1.793h1.27v1.917h-.747c-.025,0-.075.025-.1.025a.541.541,0,0,0-.548.573v.423h1.394v1.992h-1.394v5.877h-1.992Z" transform="translate(74.174 -12.402)" fill="#fff"/>
  <path id="Trazado_4202" data-name="Trazado 4202" d="M109.027,52.036a2.181,2.181,0,0,1,.05-.4,1.739,1.739,0,0,1,1.917-1.444h2.714c.125,0,.224.025.349.025a1.637,1.637,0,0,1,1.519,1.544v1.893l-4.507,1.693v.125c0,.324.149.548.4.548h4.109v1.992h-4.383a1.923,1.923,0,0,1-1.17-.224,1.781,1.781,0,0,1-.971-1.818V52.036Zm4.507.672v-.075a.408.408,0,0,0-.374-.3h-1.494a.455.455,0,0,0-.224.05.492.492,0,0,0-.374.274.469.469,0,0,0-.05.2v.8Z" transform="translate(75.867 -11.148)" fill="#fff"/>
  <path id="Trazado_4203" data-name="Trazado 4203" d="M113.284,54.542a1.233,1.233,0,0,1,2.117-.9,1.225,1.225,0,0,1-.025,1.743,1.272,1.272,0,0,1-1.743.025,1.514,1.514,0,0,1-.349-.872" transform="translate(79.08 -8.823)" fill="#fff"/>
</svg>
