<?xml version="1.0" encoding="utf-8"?>
<!-- Generator: Adobe Illustrator 27.0.1, SVG Export Plug-In . SVG Version: 6.00 Build 0)  -->
<svg version="1.1" id="_x30_3" xmlns="http://www.w3.org/2000/svg" xmlns:xlink="http://www.w3.org/1999/xlink" x="0px" y="0px"
	 viewBox="0 0 749.7 90" style="enable-background:new 0 0 749.7 90;" xml:space="preserve">
<style type="text/css">
	.st0{display:none;fill:#DF040B;}
	.st1{fill:#DF040B;}
	.st2{fill:#FFFFFF;}
</style>
<g id="Capa_39">
</g>
<g id="Capa_36">
</g>
<g id="Logo_x5F_02_x5F_b_00000037663692745268114470000015751869417357428619_">
	<g id="Logo_x5F_Original_00000165224347834613364530000007153895917863694241_">
		<path class="st0" d="M227-121L227-121L227-121c0-0.2-0.4-0.3-0.4-0.3c-6.2-1.8-11.5-6.8-13.1-12.7l-0.3-1c0,0,0-0.3-0.2-0.3l0,0
			c-0.2,0-0.2,0.3-0.2,0.3l-0.3,1c-1.6,5.9-6.8,10.8-13.1,12.7c0,0-0.4,0.1-0.4,0.3l0,0l0,0l0,0l0,0c0,0.2,0.4,0.3,0.4,0.3
			c6.2,1.8,11.5,6.8,13.1,12.7l0.3,1c0,0,0,0.3,0.2,0.3l0,0c0.2,0,0.2-0.3,0.2-0.3l0.3-1c1.6-5.9,6.8-10.8,13.1-12.7
			C226.6-120.7,227-120.8,227-121L227-121L227-121L227-121z"/>
		<path class="st0" d="M239.9-137.8L239.9-137.8L239.9-137.8c0-0.1-0.2-0.2-0.2-0.2c-3.2-0.9-5.9-3.5-6.8-6.5l-0.1-0.5
			c0,0,0-0.1-0.1-0.1l0,0c-0.1,0-0.1,0.1-0.1,0.1l-0.1,0.5c-0.8,3-3.5,5.6-6.8,6.6c0,0-0.2,0-0.2,0.2l0,0l0,0l0,0l0,0
			c0,0.1,0.2,0.2,0.2,0.2c3.2,0.9,5.9,3.5,6.8,6.5l0.1,0.5c0,0,0,0.1,0.1,0.1l0,0c0.1,0,0.1-0.1,0.1-0.1l0.1-0.5
			c0.8-3,3.5-5.6,6.8-6.6C239.8-137.7,239.9-137.7,239.9-137.8L239.9-137.8L239.9-137.8L239.9-137.8z"/>
		<path class="st1" d="M156.2,21.7L156.2,21.7L156.2,21.7c0-0.2-0.3-0.3-0.3-0.3c-5.7-1.7-10.4-6.2-11.8-11.5L143.8,9
			c0,0,0-0.2-0.2-0.2l0,0c-0.2,0-0.2,0.2-0.2,0.2l-0.3,0.9c-1.4,5.3-6.2,9.8-11.8,11.5c0,0-0.3,0.1-0.3,0.3l0,0l0,0l0,0l0,0
			c0,0.2,0.3,0.3,0.3,0.3c5.7,1.7,10.4,6.2,11.8,11.5l0.3,0.9c0,0,0,0.2,0.2,0.2l0,0c0.2,0,0.2-0.2,0.2-0.2l0.3-0.9
			c1.4-5.3,6.2-9.8,11.8-11.5C155.8,22,156.2,21.9,156.2,21.7L156.2,21.7L156.2,21.7L156.2,21.7z"/>
		<path class="st1" d="M167.9,6.5L167.9,6.5L167.9,6.5c0-0.1-0.2-0.1-0.2-0.1c-2.9-0.9-5.4-3.2-6.1-5.9l-0.1-0.4c0,0,0-0.1-0.1-0.1
			l0,0c-0.1,0-0.1,0.1-0.1,0.1l-0.1,0.4c-0.7,2.7-3.2,5.1-6.1,5.9c0,0-0.2,0-0.2,0.1l0,0l0,0l0,0l0,0c0,0.1,0.2,0.1,0.2,0.1
			c2.9,0.9,5.4,3.2,6.1,5.9l0.1,0.4c0,0,0,0.1,0.1,0.1l0,0c0.1,0,0.1-0.1,0.1-0.1l0.1-0.4c0.7-2.7,3.2-5.1,6.1-5.9
			C167.7,6.7,167.9,6.6,167.9,6.5L167.9,6.5L167.9,6.5L167.9,6.5z"/>
		<path class="st2" d="M93.4,79.8c2.2,6.4,7.8,10,16.7,10c10.3,0,18.6-4.5,18.6-14.5c0-8.2-4.8-12.6-13.2-13.8
			c-0.9-0.1-1.6-0.3-2.2-0.3c-5.9-1-8.3-2.2-8.3-5.2c0-2.4,1.4-4.1,6-4.1c3.4,0,6.4,2.5,7.3,5.2c0.1,0.3,0.3,0.5,0.8,0.3l7.6-3.1
			c0.4-0.1,0.7-0.4,0.5-1.1c-1.7-5.5-7.1-9.6-15.8-9.6c-11.6,0-17.4,6-17.4,14.5c0,8.1,5.5,12.6,13.4,13.3c0.5,0.1,1.1,0.1,1.6,0.2
			c6,0.7,7.9,2.4,7.9,5.1c0,3-2.1,4.4-6.6,4.4c-4.1,0-7.1-2.9-7.9-5.3c-0.1-0.5-0.1-0.5-0.7-0.3l-8,3.3
			C93.2,78.7,93.1,79.1,93.4,79.8L93.4,79.8z"/>
		<path class="st2" d="M149.2,45.1c0-0.5-0.1-0.6-0.7-0.6c-4.3,0-6.7,0-10.9,0c-0.6,0-0.6-0.1-0.6,0.6c0,8.1,0,14.4,0,21.6
			c0,6.7,0,13.4,0,21.5c0,0.7,0,0.6,0.6,0.6c4.1,0,6.5,0,10.9,0c0.6,0,0.7-0.1,0.7-0.6c0-5.1,0-13.1,0-21.5S149.2,50.2,149.2,45.1
			L149.2,45.1z"/>
		<path class="st2" d="M197.6,89.9V44.3c-0.1-0.1-0.2-0.1-0.5-0.1c-4.1,0-6,0-10,0c-0.5,0-0.5,0.1-0.5,0.8v19.7
			c0,0-16.1-14.9-25.5-21.6c-0.3-0.2-0.7-0.2-0.7,0.4v44.7c0,0.3,0.2,0.6,0.6,0.6c3.9,0,5.8,0,9.9,0c0.6,0,0.6,0,0.6-0.6V68.1
			c0,0,15.5,14.3,25.5,21.7C197.3,90,197.5,90,197.6,89.9L197.6,89.9z"/>
		<path class="st2" d="M299.5,55.8c0-7.4-4.9-11.7-13-11.7c-8.6,0-15.8,0-23,0c-0.6,0-0.8,0.1-0.8,0.7c0,16.6,0,26.4,0,43
			c0,0.9,0.1,0.9,0.6,0.9c9.5,0,15.5,0,24.8,0c7.8,0,12.6-4.9,12.6-12.1c0-5.2-3.5-10.3-9.1-10.9C296.7,64.2,299.5,60.6,299.5,55.8
			L299.5,55.8z M287.5,57.5c0,2.6-1.5,4.2-4.2,4.2h-8.8v-8.4h8.8C286,53.3,287.5,54.8,287.5,57.5L287.5,57.5z M288.5,74.7
			c0,3.1-1.8,4.8-4.5,4.8h-9.5v-9.7h9.5C286.6,69.8,288.5,71.9,288.5,74.7L288.5,74.7z"/>
		<path class="st2" d="M351.6,87.7c-7.2-14.5-16.2-32.8-22.5-45.1c-0.1-0.1-1.5-0.2-1.6,0c-6,11.2-15.5,30.6-22.3,45.1
			c-0.3,0.7-0.2,0.9,0.3,0.9c4.3,0,6.6,0,10.9,0c0.9,0,1-0.2,1.2-0.7c0.7-1.6,1.5-3.8,2.3-5.7h15.9c0.7,1.6,1.6,4.1,2.4,5.8
			c0.2,0.5,0.5,0.5,0.8,0.5c5.1,0,9.1,0,12.3,0C351.9,88.7,352,88.6,351.6,87.7L351.6,87.7z M332.3,73.7h-9.1l4.5-10L332.3,73.7
			L332.3,73.7z"/>
		<path class="st2" d="M90.2,87.9C83,73.4,74,55.1,67.7,42.8c-0.1-0.1-1.5-0.2-1.6,0c-6,11.2-15.5,30.6-22.3,45.1
			c-0.3,0.7-0.2,0.9,0.3,0.9c4.3,0,6.6,0,10.9,0c0.9,0,1-0.2,1.2-0.7c0.7-1.6,1.5-3.8,2.3-5.7h15.9c0.7,1.6,1.6,4.1,2.4,5.8
			c0.2,0.5,0.5,0.5,0.8,0.5c5.1,0,9.1,0,12.3,0C90.5,88.8,90.6,88.7,90.2,87.9L90.2,87.9z M70.9,73.9h-9.1l4.5-10L70.9,73.9
			L70.9,73.9z"/>
		<path class="st2" d="M398.1,86.9c-3.8-6.2-7.6-12.8-9.3-15.5c4-1.9,6.1-6.2,6.1-12.2c0-8.1-5.4-15.1-15.5-15H359
			c-0.2,0-0.5-0.1-0.5,0.6c0,8.2,0,14.5,0,21.8c0,6.8,0,13.5,0,21.6c0,0.7,0,0.6,0.5,0.6c3.9,0,6.6,0,10.8,0c0.5,0,0.5-0.1,0.5-0.6
			c0-5.1,0-12.4,0-12.4l7.6-0.1c0,0,4.8,7.6,7,11.8c0.6,1.2,0.9,1.3,1.4,1.3h11.6C398.7,88.6,398.9,88.2,398.1,86.9L398.1,86.9z
			 M382.5,60c0,3.8-2,6.4-5.5,6.6l-6.6,0.2V53.9h6.5C380.7,53.9,382.5,56.5,382.5,60L382.5,60z"/>
		<path class="st2" d="M434.9,73c-1.6,3.4-4.7,5.5-9.2,5.5c-5.5,0-11-3.7-11-12c0-7,4.2-12.2,10.8-12.2c4.5,0,7.7,2,9.6,6
			c0.1,0.3,0.2,0.5,0.6,0.3l9.8-3.8c0.3-0.1,0.5-0.4,0.2-1.2c-3-6.7-9.6-12.6-20.5-12.5c-12.9,0-23,9.9-23,23.4
			c0,12.6,9.3,23.2,23.4,23.2c10.3,0,17.6-6.5,20.6-13.6c0.1-0.4,0.1-0.7-0.6-0.9l-9.9-2.7C435.2,72.4,435.1,72.7,434.9,73L434.9,73
			z"/>
		<path class="st2" d="M32.7,73.3c-1.6,3.4-4.7,5.5-9.2,5.5c-5.5,0-11-3.7-11-12c0-7,4.2-12.2,10.8-12.2c4.5,0,7.7,2,9.6,6
			c0.1,0.3,0.2,0.5,0.6,0.3l9.8-3.8c0.3-0.1,0.5-0.4,0.2-1.2c-3-6.7-9.6-12.6-20.5-12.5c-12.9,0-23,9.9-23,23.4
			C0,79.4,9.3,90,23.4,90C33.7,90,41,83.5,44,76.4c0.1-0.4,0.1-0.7-0.6-0.9l-9.9-2.7C32.9,72.7,32.9,72.9,32.7,73.3L32.7,73.3z"/>
		<path class="st2" d="M484.7,53.5c0.1-0.2,0.2-0.4,0.2-0.6c0-2.8,0-4.7,0-8c0-0.8-0.1-0.9-0.7-0.9h-29.7c-0.7,0-0.6,0.1-0.6,0.7
			c0,12.6,0,31.5,0,43c0,0.8,0.1,0.9,0.7,0.9h30c0.7,0,0.7-0.1,0.7-0.9c0-2.7,0-5.2,0-8.5c0-0.3,0-0.5-0.1-0.6h-20v-7.8h18.9
			c0.2-0.1,0.2-0.3,0.2-0.8c0-2.6,0-4.8,0-8c0-0.3,0-0.6-0.1-0.7h-19v-7.8H484.7L484.7,53.5z"/>
		<path class="st2" d="M507.9,78.1L507.9,78.1c0,0,0-26.6,0-33.5c0-0.5-0.1-0.6-0.6-0.6c-4.1,0-6.8,0-10.6,0c-0.6,0-0.6-0.1-0.6,0.6
			c0,8.2,0,14.5,0,21.8c0,6.8,0,13.5,0,21.6c0,0.7,0,0.6,0.6,0.6c3.9,0,23.7,0,27.8,0c0.5,0,0.5-0.1,0.5-0.6c0-5.1,0-7,0-9.5
			c0-0.1,0-0.2-0.1-0.3L507.9,78.1L507.9,78.1L507.9,78.1z"/>
		<path class="st2" d="M575.3,66.4c0-12.9-10.1-23.3-23.4-23.3c-13.3,0-23.3,10.5-23.3,23.4s10.1,23.3,23.4,23.3
			C565.3,89.7,575.4,79.3,575.3,66.4L575.3,66.4z M563,66.4c0,6.8-4.1,12-11,12c-7.1,0-11-5.3-11.1-12c0-6.8,3.9-12.1,11-12.1
			C559,54.3,563,59.6,563,66.4L563,66.4z"/>
		<path class="st2" d="M252.9,66.6c0-12.9-10.1-23.3-23.4-23.3c-13.3,0-23.3,10.5-23.3,23.4S216.3,90,229.6,90
			C242.9,89.8,252.9,79.4,252.9,66.6L252.9,66.6z M240.6,66.6c0,6.8-4.1,12-11,12c-7.1,0-11-5.3-11.1-12c0-6.8,3.9-12.1,11-12.1
			C236.5,54.5,240.6,59.8,240.6,66.6L240.6,66.6z"/>
		<path class="st2" d="M620.7,89.7V44.1c-0.1-0.1-0.2-0.1-0.5-0.1c-4.1,0-6,0-10,0c-0.5,0-0.5,0.1-0.5,0.8v19.7
			c0,0-16.1-14.9-25.5-21.6c-0.3-0.2-0.7-0.2-0.7,0.4V88c0,0.3,0.2,0.6,0.6,0.6c3.9,0,5.8,0,9.9,0c0.6,0,0.6,0,0.6-0.6V67.9
			c0,0,15.5,14.3,25.5,21.7C620.4,89.8,620.6,89.8,620.7,89.7L620.7,89.7z"/>
		<path class="st2" d="M673.5,87.6c-7.2-14.5-16.2-32.8-22.5-45.1c-0.1-0.1-1.5-0.2-1.6,0c-6,11.2-15.5,30.6-22.3,45.1
			c-0.3,0.7-0.2,0.9,0.3,0.9c4.3,0,6.6,0,10.9,0c0.9,0,1-0.2,1.2-0.7c0.7-1.6,1.5-3.8,2.3-5.7h15.9c0.7,1.6,1.6,4.1,2.4,5.8
			c0.2,0.5,0.5,0.5,0.8,0.5c5.1,0,9.1,0,12.3,0C673.8,88.5,673.9,88.4,673.5,87.6L673.5,87.6z M654.2,73.6h-9.1l4.5-10L654.2,73.6
			L654.2,73.6z"/>
		<path class="st2" d="M690,80.3c0-0.7-0.2-0.9-0.9-0.9c-1.6,0-5.6,0-7.8,0c-0.7,0-1.1,0.3-1.1,1.4c0,1.3,0,6.4,0,7.7
			c0,0.8,0.3,1.1,1,1.1c1.7,0,6.3,0,7.8,0c0.9,0,1-0.3,1-1.2C690,85.6,690,83.7,690,80.3L690,80.3z M709.8,60.2
			c-9,0-14.6,6.2-14.5,14.6c0,9.4,6.2,14.9,14.6,14.9c4.3,0,8.1-1.8,9.8-3.3c0.4-0.4,0.6-0.8,0.3-1.3c-1.1-1.7-2.7-3.9-3.8-5.5
			c-0.3-0.4-0.6-0.5-0.8-0.3c-0.9,1.1-2.7,2.8-5.3,2.8c-3.3,0-5.6-1.9-5.6-4.9c0,0,11.7,0,16.5,0c0.8,0,1-0.1,1.1-0.7
			c0.2-0.9,0.3-1.8,0.3-3.8C722.3,65,716.6,60.2,709.8,60.2L709.8,60.2z M704.4,72.4c0.3-2.3,1.6-4.7,4.6-4.7c2.8,0,4.5,1.8,4.7,4.7
			H704.4L704.4,72.4z M724.9,83.2c1.8,3.9,5.1,6.5,12.1,6.5c8.1,0,12.7-4.1,12.7-10.3c0-5.2-3.8-7.5-9.4-8.7c-4.8-0.9-6-1.5-6-2.6
			c0-1.2,0.9-1.9,3.1-1.9c1.8,0,3.3,1,4.2,2.5c0.2,0.3,0.3,0.3,0.6,0.2l6.1-2.2c0.3-0.1,0.3-0.4,0.3-0.8c-1.1-3.7-4.8-6-10.9-6
			c-7.7,0-12.5,3.3-12.4,9.1c0,5.5,3.7,7.4,8.9,8.7c4.3,1,5.4,1.8,5.4,3.3c0,1.2-1.1,2.2-3.6,2.2c-2,0-3.9-1.3-4.5-3
			c-0.1-0.2-0.3-0.3-0.5-0.2l-6,2.3C724.7,82.5,724.7,82.8,724.9,83.2L724.9,83.2z"/>
	</g>
</g>
<g id="Capa_37">
</g>
</svg>
