<svg id="logo-landing-2" xmlns="http://www.w3.org/2000/svg" width="70.717" height="54.991" viewBox="0 0 70.717 54.991">
  <g id="Grupo_63" data-name="Grupo 63" transform="translate(3.555 46.506)">
    <path id="Trazado_4144" data-name="Trazado 4144" d="M18.249,36.218a1.967,1.967,0,0,0-.717-.468,2.352,2.352,0,0,0-.922-.176,3.517,3.517,0,0,0-.541.044,2.424,2.424,0,0,0-.556.161A1.76,1.76,0,0,0,15,36.1a1.845,1.845,0,0,0-.424.512,2.079,2.079,0,0,0-.79-.761,2.274,2.274,0,0,0-1.141-.278,2.5,2.5,0,0,0-.453.044,2.316,2.316,0,0,0-.454.132,1.746,1.746,0,0,0-.439.263,2.171,2.171,0,0,0-.38.424v-.7H9.706v5.778h1.229v-3.2a1.823,1.823,0,0,1,.117-.658,1.365,1.365,0,0,1,.307-.483,1.344,1.344,0,0,1,.453-.293,1.442,1.442,0,0,1,.556-.1,1.225,1.225,0,0,1,.966.395A1.621,1.621,0,0,1,13.67,38.3v3.218H14.9v-3.2a1.823,1.823,0,0,1,.117-.658,1.365,1.365,0,0,1,.307-.483,1.344,1.344,0,0,1,.454-.293,1.442,1.442,0,0,1,.556-.1,1.225,1.225,0,0,1,.966.395,1.621,1.621,0,0,1,.336,1.126v3.218h1.229V37.871a2.8,2.8,0,0,0-.161-.936A1.672,1.672,0,0,0,18.249,36.218Z" transform="translate(-9.706 -33.366)" fill="#fff"/>
    <path id="Trazado_4145" data-name="Trazado 4145" d="M21.854,36.423a2.158,2.158,0,0,0-.746-.614,2.214,2.214,0,0,0-1.068-.234,2.937,2.937,0,0,0-1.141.219,2.867,2.867,0,0,0-.922.629,2.731,2.731,0,0,0-.614.966,3.283,3.283,0,0,0-.219,1.229,3.394,3.394,0,0,0,.219,1.229,3.02,3.02,0,0,0,.614.966,2.867,2.867,0,0,0,.922.629,2.937,2.937,0,0,0,1.141.219,2.214,2.214,0,0,0,1.068-.234,2.158,2.158,0,0,0,.746-.614V41.5h1.258V35.721H21.854ZM21.8,39.349a1.948,1.948,0,0,1-.351.585,1.737,1.737,0,0,1-.556.395,1.9,1.9,0,0,1-.717.146,1.648,1.648,0,0,1-1.273-.541,1.872,1.872,0,0,1-.468-1.3,2.3,2.3,0,0,1,.117-.717,1.69,1.69,0,0,1,.351-.585,1.617,1.617,0,0,1,.541-.395,1.676,1.676,0,0,1,.731-.146,1.655,1.655,0,0,1,.717.146,1.49,1.49,0,0,1,.556.395,1.689,1.689,0,0,1,.351.585,1.972,1.972,0,0,1,.132.731A1.929,1.929,0,0,1,21.8,39.349Z" transform="translate(-6.83 -33.366)" fill="#fff"/>
    <path id="Trazado_4146" data-name="Trazado 4146" d="M26.9,38.607a3.19,3.19,0,0,0-1.478-.556l-.6-.088a2.922,2.922,0,0,1-.38-.073,1.512,1.512,0,0,1-.307-.1.6.6,0,0,1-.2-.176.453.453,0,0,1-.073-.249.589.589,0,0,1,.293-.5,1.393,1.393,0,0,1,.8-.19,3.376,3.376,0,0,1,.541.044,4.949,4.949,0,0,1,.5.117A2.853,2.853,0,0,1,26.42,37c.132.059.234.117.322.161l.541-.98a4.317,4.317,0,0,0-1.053-.454,5.259,5.259,0,0,0-1.287-.161,3.485,3.485,0,0,0-.995.132,2.222,2.222,0,0,0-.746.366,1.7,1.7,0,0,0-.483.585,1.675,1.675,0,0,0-.161.775,1.386,1.386,0,0,0,.5,1.126,2.747,2.747,0,0,0,1.463.571l.6.073a1.864,1.864,0,0,1,.761.234.486.486,0,0,1,.249.41.566.566,0,0,1-.336.512,1.973,1.973,0,0,1-.98.19,4.31,4.31,0,0,1-.644-.044,2.619,2.619,0,0,1-.512-.132,2.14,2.14,0,0,1-.41-.19c-.117-.073-.234-.146-.336-.219l-.585.951a2.963,2.963,0,0,0,.658.38,3.274,3.274,0,0,0,.673.219,3.31,3.31,0,0,0,.629.1c.19.015.366.029.527.029a4.293,4.293,0,0,0,1.112-.132,2.447,2.447,0,0,0,.834-.395,1.651,1.651,0,0,0,.688-1.36,1.349,1.349,0,0,0-.541-1.141Z" transform="translate(-4.827 -33.37)" fill="#fff"/>
    <path id="Trazado_4147" data-name="Trazado 4147" d="M35.5,36.413a2.684,2.684,0,0,0-.863-.629,2.742,2.742,0,0,0-1.112-.219,3.032,3.032,0,0,0-1.17.219,2.47,2.47,0,0,0-.907.629,2.672,2.672,0,0,0-.585.966,3.415,3.415,0,0,0-.2,1.243,3.361,3.361,0,0,0,.219,1.243,2.868,2.868,0,0,0,.614.966,2.742,2.742,0,0,0,.936.614,3.183,3.183,0,0,0,1.2.219,4.432,4.432,0,0,0,1.258-.176,3.207,3.207,0,0,0,1.126-.629l-.629-.907a3.35,3.35,0,0,1-.8.453,2.653,2.653,0,0,1-.878.161,1.886,1.886,0,0,1-.585-.088,1.546,1.546,0,0,1-.512-.263,2,2,0,0,1-.395-.453,1.824,1.824,0,0,1-.219-.673h4.272a1.182,1.182,0,0,0,.015-.234v-.249a3.607,3.607,0,0,0-.2-1.229,2.863,2.863,0,0,0-.571-.966Zm-3.526,1.712a1.852,1.852,0,0,1,.176-.571,1.652,1.652,0,0,1,.307-.454,1.344,1.344,0,0,1,.453-.293,1.565,1.565,0,0,1,.6-.1,1.322,1.322,0,0,1,.98.38,1.864,1.864,0,0,1,.483,1.053h-3Z" transform="translate(-1.605 -33.37)" fill="#fff"/>
    <path id="Trazado_4148" data-name="Trazado 4148" d="M47.565,36.423a2.158,2.158,0,0,0-.746-.614,2.214,2.214,0,0,0-1.068-.234,2.937,2.937,0,0,0-1.141.219,2.867,2.867,0,0,0-.922.629,2.731,2.731,0,0,0-.614.966,3.283,3.283,0,0,0-.219,1.229,3.394,3.394,0,0,0,.219,1.229,3.02,3.02,0,0,0,.614.966,2.867,2.867,0,0,0,.922.629,2.937,2.937,0,0,0,1.141.219,2.214,2.214,0,0,0,1.068-.234,2.158,2.158,0,0,0,.746-.614V41.5h1.258V35.721H47.565Zm-.059,2.926a1.948,1.948,0,0,1-.351.585,1.737,1.737,0,0,1-.556.395,1.9,1.9,0,0,1-.717.146,1.648,1.648,0,0,1-1.273-.541,1.872,1.872,0,0,1-.468-1.3,2.3,2.3,0,0,1,.117-.717,1.69,1.69,0,0,1,.351-.585,1.617,1.617,0,0,1,.541-.395,1.676,1.676,0,0,1,.731-.146,1.655,1.655,0,0,1,.717.146,1.49,1.49,0,0,1,.556.395,1.689,1.689,0,0,1,.351.585,1.971,1.971,0,0,1,.132.731A1.929,1.929,0,0,1,47.506,39.349Z" transform="translate(3.11 -33.366)" fill="#fff"/>
    <path id="Trazado_4149" data-name="Trazado 4149" d="M30.627,40.792a1.815,1.815,0,0,1-.6.117,1.01,1.01,0,0,1-.366-.059.779.779,0,0,1-.293-.19.843.843,0,0,1-.19-.336,1.623,1.623,0,0,1-.073-.5V37.311h2.033V36.17H29.105V34.414H27.833V36.17H26.691v1.141h1.156v2.545a2.3,2.3,0,0,0,.541,1.7,2.073,2.073,0,0,0,1.536.541,2.548,2.548,0,0,0,.98-.176c.19-.073.366-.161.541-.249l-.439-1.053A1.513,1.513,0,0,1,30.627,40.792Z" transform="translate(-3.139 -33.814)" fill="#fff"/>
    <path id="Trazado_4150" data-name="Trazado 4150" d="M38.535,35.575a2.323,2.323,0,0,0-.966.19,1.98,1.98,0,0,0-.717.717v-.761H35.712V41.5h1.156V38.325a1.831,1.831,0,0,1,.1-.658,1.549,1.549,0,0,1,.278-.483,1.189,1.189,0,0,1,.439-.307,1.393,1.393,0,0,1,.556-.1,2.083,2.083,0,0,1,.5.059,1.236,1.236,0,0,1,.249.073l.38-1.214a2.339,2.339,0,0,0-.307-.073A1.968,1.968,0,0,0,38.535,35.575Z" transform="translate(0.349 -33.366)" fill="#fff"/>
    <path id="Trazado_4151" data-name="Trazado 4151" d="M51.2,35.575a2.323,2.323,0,0,0-.966.19,1.98,1.98,0,0,0-.717.717v-.761H48.372V41.5h1.156V38.325a1.831,1.831,0,0,1,.1-.658,1.549,1.549,0,0,1,.278-.483,1.189,1.189,0,0,1,.439-.307,1.393,1.393,0,0,1,.556-.1,2.083,2.083,0,0,1,.5.059,1.236,1.236,0,0,1,.249.073l.38-1.214a2.339,2.339,0,0,0-.307-.073A2.023,2.023,0,0,0,51.2,35.575Z" transform="translate(5.244 -33.366)" fill="#fff"/>
    <path id="Trazado_4152" data-name="Trazado 4152" d="M55.973,33.982v3.057a2.158,2.158,0,0,0-.746-.614,2.214,2.214,0,0,0-1.068-.234,2.937,2.937,0,0,0-1.141.219,2.867,2.867,0,0,0-.922.629,2.731,2.731,0,0,0-.614.966,3.283,3.283,0,0,0-.219,1.229,3.394,3.394,0,0,0,.219,1.229,3.02,3.02,0,0,0,.614.966,2.868,2.868,0,0,0,.922.629,2.937,2.937,0,0,0,1.141.219,2.214,2.214,0,0,0,1.068-.234,2.158,2.158,0,0,0,.746-.614v.688h1.258V33.982Zm-.059,5.983a1.947,1.947,0,0,1-.351.585,1.736,1.736,0,0,1-.556.395,1.9,1.9,0,0,1-.717.146,1.648,1.648,0,0,1-1.273-.541,1.872,1.872,0,0,1-.468-1.3,2.3,2.3,0,0,1,.117-.717,1.493,1.493,0,0,1,.351-.585,1.617,1.617,0,0,1,.541-.395,1.676,1.676,0,0,1,.731-.146,1.655,1.655,0,0,1,.717.146,1.49,1.49,0,0,1,.556.395,1.689,1.689,0,0,1,.351.585,1.972,1.972,0,0,1,.132.731A1.929,1.929,0,0,1,55.914,39.965Z" transform="translate(6.361 -33.982)" fill="#fff"/>
    <path id="Trazado_4153" data-name="Trazado 4153" d="M40.438,37.276a1.7,1.7,0,0,1,.571-.38,1.949,1.949,0,0,1,.717-.132,2.356,2.356,0,0,1,.79.132,1.854,1.854,0,0,1,.614.366l.614-1.009a3.373,3.373,0,0,0-.775-.453,3.42,3.42,0,0,0-2.487,0,3,3,0,0,0-.98.644,2.866,2.866,0,0,0-.644.966,3,3,0,0,0-.234,1.214,3.045,3.045,0,0,0,.234,1.214,3.377,3.377,0,0,0,.644.966,3,3,0,0,0,.98.644,3.42,3.42,0,0,0,2.487,0,2.919,2.919,0,0,0,.775-.454l-.614-1.009a1.854,1.854,0,0,1-.614.366,2.356,2.356,0,0,1-.79.132,1.9,1.9,0,0,1-.717-.132,1.7,1.7,0,0,1-.571-.38,1.623,1.623,0,0,1-.38-.585,2.107,2.107,0,0,1-.132-.746,2,2,0,0,1,.132-.746,1.624,1.624,0,0,1,.38-.614Z" transform="translate(1.475 -33.37)" fill="#fff"/>
  </g>
  <path id="Trazado_4154" data-name="Trazado 4154" d="M57.654,39.235a.607.607,0,0,1,.234.044.646.646,0,0,1,.322.322.646.646,0,0,1,0,.468.646.646,0,0,1-.322.322.646.646,0,0,1-.468,0,.446.446,0,0,1-.19-.132.557.557,0,0,1-.132-.19.646.646,0,0,1,0-.468.589.589,0,0,1,.556-.366Zm0,1.024a.526.526,0,0,0,.161-.029.511.511,0,0,0,.132-.088.346.346,0,0,0,.088-.132.623.623,0,0,0,.029-.161.527.527,0,0,0-.029-.161.3.3,0,0,0-.088-.132.345.345,0,0,0-.132-.088.315.315,0,0,0-.161-.029.735.735,0,0,0-.176.029.51.51,0,0,0-.132.088.345.345,0,0,0-.088.132.623.623,0,0,0-.029.161.526.526,0,0,0,.029.161.3.3,0,0,0,.088.132.345.345,0,0,0,.132.088A.734.734,0,0,0,57.654,40.259Zm.029-.688a.235.235,0,0,1,.161.044.143.143,0,0,1,.059.132.133.133,0,0,1-.044.1.22.22,0,0,1-.117.059l.161.19h-.176l-.146-.176h-.015V40.1H57.42v-.527Zm-.117.132v.1h.117c.029,0,.044,0,.059-.015s.015-.015.015-.044a.054.054,0,0,0-.015-.044c-.015-.015-.029-.015-.059-.015Z" transform="translate(12.156 14.556)" fill="#fff"/>
  <path id="Trazado_4155" data-name="Trazado 4155" d="M34.177,22.255a21.749,21.749,0,0,1,8.28-17.1,21.8,21.8,0,1,0,0,34.173A21.647,21.647,0,0,1,34.177,22.255Z" transform="translate(-7.142 -0.443)" fill="rgba(255,255,255,0.6)"/>
  <path id="Trazado_4156" data-name="Trazado 4156" d="M26.639,20.942a21.749,21.749,0,0,0,8.28,17.1,21.8,21.8,0,0,0,0-34.2,21.771,21.771,0,0,0-8.28,17.1Z" transform="translate(0.396 0.87)" fill="#818181"/>
  <path id="Trazado_4157" data-name="Trazado 4157" d="M57.086,24.909v-.644h-.263V24.09h.7v.176h-.263v.644Zm1.375,0v-.571l-.19.483h-.2l-.19-.483v.556h-.19v-.819h.278l.2.527.2-.527h.278v.819Z" transform="translate(12.066 8.694)" fill="#a7a7a7"/>
  <path id="Trazado_4158" data-name="Trazado 4158" d="M46.127.454A21.72,21.72,0,0,0,32.61,5.164a21.8,21.8,0,0,1,0,34.2A21.8,21.8,0,1,0,46.127.454Z" transform="translate(2.704 -0.439)" fill="#fff"/>
</svg>
