<svg xmlns="http://www.w3.org/2000/svg" width="30" height="30" viewBox="0 0 30 30">
  <g id="logo-instagram-round-white" transform="translate(-3.7 -5.2)">
    <circle id="Elipse_697" data-name="Elipse 697" cx="2.683" cy="2.683" r="2.683" transform="translate(15.895 17.639)" fill="#fff"/>
    <path id="Trazado_4895" data-name="Trazado 4895" d="M27.239,19.2H20.532a3.332,3.332,0,0,0-2.378.854,3.332,3.332,0,0,0-.854,2.378v6.707a3.361,3.361,0,0,0,.915,2.439,3.437,3.437,0,0,0,2.378.854h6.646a3.332,3.332,0,0,0,2.378-.854,3.124,3.124,0,0,0,.915-2.378V22.493a3.437,3.437,0,0,0-.854-2.378A3.265,3.265,0,0,0,27.239,19.2ZM23.885,29.932a4.146,4.146,0,0,1,0-8.293,4.147,4.147,0,1,1,0,8.293Zm4.329-7.5a.976.976,0,1,1,.976-.976A.963.963,0,0,1,28.215,22.432Z" transform="translate(-5.307 -5.463)" fill="#fff"/>
    <path id="Trazado_4896" data-name="Trazado 4896" d="M18.7,5.2a15,15,0,1,0,15,15A14.989,14.989,0,0,0,18.7,5.2Zm7.988,18.537a4.833,4.833,0,0,1-1.341,3.476,4.745,4.745,0,0,1-3.415,1.28H15.285a4.745,4.745,0,0,1-3.415-1.28,4.594,4.594,0,0,1-1.341-3.476V17.029a4.513,4.513,0,0,1,4.756-4.756h6.707a4.5,4.5,0,0,1,4.7,4.756Z" transform="translate(0 0)" fill="#fff"/>
  </g>
</svg>
