<?xml version="1.0" encoding="utf-8"?>
<!-- Generator: Adobe Illustrator 27.0.1, SVG Export Plug-In . SVG Version: 6.00 Build 0)  -->
<svg version="1.1" id="logo-landing-3" xmlns="http://www.w3.org/2000/svg" xmlns:xlink="http://www.w3.org/1999/xlink" x="0px"
	 y="0px" viewBox="0 0 150 75" style="enable-background:new 0 0 150 75;" xml:space="preserve">
<style type="text/css">
	.st0{fill:#FFFFFF;}
	.st1{fill-rule:evenodd;clip-rule:evenodd;fill:#FFFFFF;}
</style>
<g id="Grupo_60" transform="translate(41.979 17.388)">
	<path id="Trazado_4121" class="st0" d="M13.5,11.2h-2.6v7.5H8.9v-7.5H6.3V9.7h7.2L13.5,11.2z"/>
	<path id="Trazado_4122" class="st0" d="M21.8,18.7h-1.7c-0.3,0-0.5-0.1-0.7-0.3l-1.7-2.8c-0.1-0.1-0.1-0.2-0.2-0.3
		c-0.1-0.1-0.2-0.1-0.4-0.1h-0.6v3.4h-1.9v-9h2.8c0.5,0,1.1,0.1,1.6,0.2c0.4,0.1,0.8,0.3,1.1,0.5c0.3,0.2,0.5,0.5,0.6,0.8
		c0.1,0.3,0.2,0.7,0.2,1.1c0,0.3,0,0.6-0.1,0.9c-0.1,0.3-0.2,0.5-0.4,0.7c-0.2,0.2-0.4,0.4-0.6,0.6c-0.3,0.2-0.5,0.3-0.8,0.4
		c0.1,0.1,0.2,0.2,0.3,0.3c0.1,0.1,0.2,0.2,0.3,0.3L21.8,18.7z M17.4,14c0.3,0,0.5,0,0.8-0.1c0.2-0.1,0.4-0.2,0.5-0.3
		c0.1-0.1,0.2-0.3,0.3-0.5c0.1-0.2,0.1-0.4,0.1-0.6c0-0.4-0.1-0.8-0.4-1c-0.4-0.3-0.8-0.4-1.3-0.3h-1V14L17.4,14z"/>
	<path id="Trazado_4123" class="st0" d="M30.5,18.7h-1.5c-0.3,0-0.5-0.2-0.6-0.4l-0.6-1.7h-3.6l-0.6,1.7c-0.1,0.1-0.1,0.2-0.2,0.3
		c-0.1,0.1-0.2,0.1-0.4,0.1h-1.4l3.5-9h1.9L30.5,18.7z M27.4,15.3l-1-2.8c-0.1-0.2-0.1-0.3-0.2-0.5s-0.1-0.4-0.2-0.6
		c-0.1,0.2-0.1,0.4-0.2,0.6c-0.1,0.2-0.1,0.3-0.2,0.5l-1,2.7L27.4,15.3L27.4,15.3z"/>
	<path id="Trazado_4124" class="st0" d="M39.1,9.7v9h-1c-0.1,0-0.3,0-0.4-0.1c-0.1-0.1-0.2-0.2-0.3-0.3L33,12.7c0,0.2,0,0.3,0,0.4
		v5.6h-1.6v-9h1.2c0.1,0,0.1,0,0.2,0c0,0,0.1,0.1,0.1,0.1c0,0,0.1,0.1,0.1,0.2l4.5,5.7c0-0.2,0-0.3,0-0.5V9.7L39.1,9.7L39.1,9.7z"/>
	<path id="Trazado_4125" class="st0" d="M45.9,11.4c-0.1,0.1-0.1,0.2-0.2,0.2c-0.1,0.1-0.1,0.1-0.2,0.1c-0.1,0-0.2,0-0.3-0.1
		c-0.1-0.1-0.2-0.1-0.4-0.2c-0.1-0.1-0.3-0.2-0.5-0.2c-0.2-0.1-0.4-0.1-0.6-0.1c-0.3,0-0.7,0.1-1,0.3c-0.2,0.2-0.3,0.5-0.3,0.8
		c0,0.2,0.1,0.4,0.2,0.5c0.1,0.1,0.3,0.3,0.5,0.3c0.2,0.1,0.4,0.2,0.7,0.3c0.3,0.1,0.5,0.2,0.8,0.3c0.3,0.1,0.5,0.2,0.8,0.3
		c0.2,0.1,0.5,0.3,0.7,0.4c0.2,0.2,0.4,0.4,0.5,0.7c0.1,0.3,0.2,0.6,0.2,0.9c0,0.4-0.1,0.8-0.2,1.2c-0.2,0.4-0.4,0.7-0.6,0.9
		c-0.3,0.3-0.6,0.5-1,0.6c-0.4,0.2-0.9,0.2-1.4,0.2c-0.3,0-0.6,0-0.9-0.1c-0.3-0.1-0.6-0.1-0.8-0.3c-0.3-0.1-0.5-0.2-0.8-0.4
		c-0.2-0.1-0.4-0.3-0.6-0.5l0.5-0.9c0-0.1,0.1-0.1,0.2-0.2c0.1,0,0.2-0.1,0.3-0.1c0.1,0,0.2,0,0.3,0.1c0.1,0.1,0.3,0.2,0.4,0.3
		c0.2,0.1,0.3,0.2,0.6,0.3c0.2,0.1,0.5,0.1,0.8,0.1c0.4,0,0.7-0.1,1-0.3c0.3-0.2,0.4-0.6,0.3-0.9c0-0.2-0.1-0.4-0.2-0.6
		c-0.1-0.1-0.3-0.3-0.5-0.3c-0.2-0.1-0.4-0.2-0.7-0.3c-0.3-0.1-0.5-0.2-0.8-0.2L42,14.5c-0.2-0.1-0.5-0.3-0.7-0.5
		c-0.2-0.2-0.4-0.5-0.5-0.7c-0.3-0.6-0.3-1.4,0-2c0.1-0.3,0.3-0.6,0.6-0.9c0.3-0.3,0.6-0.5,0.9-0.6c0.4-0.2,0.9-0.2,1.3-0.2
		c0.5,0,1,0.1,1.5,0.3c0.4,0.1,0.8,0.4,1.2,0.7L45.9,11.4z"/>
	<path id="Trazado_4126" class="st0" d="M49.8,11.1v2.5H53v1.5h-3.3v3.6h-1.9v-9h5.7v1.4H49.8z"/>
	<path id="Trazado_4127" class="st0" d="M56.8,11.1v2.3h3v1.4h-3v2.4h3.9v1.5H55v-9h5.7v1.4H56.8z"/>
	<path id="Trazado_4128" class="st0" d="M69.3,18.7h-1.7c-0.3,0-0.5-0.1-0.7-0.3l-1.7-2.8c-0.1-0.1-0.1-0.2-0.2-0.3
		c-0.1-0.1-0.2-0.1-0.4-0.1H64v3.4h-1.9v-9h2.8c0.5,0,1.1,0.1,1.6,0.2c0.4,0.1,0.8,0.3,1.1,0.5c0.3,0.2,0.5,0.5,0.6,0.8
		c0.1,0.3,0.2,0.7,0.2,1.1c0,0.6-0.2,1.1-0.5,1.6c-0.2,0.2-0.4,0.4-0.6,0.6c-0.3,0.2-0.5,0.3-0.8,0.4c0.1,0.1,0.2,0.2,0.3,0.3
		c0.1,0.1,0.2,0.2,0.3,0.3L69.3,18.7z M64.9,14c0.3,0,0.5,0,0.8-0.1c0.2-0.1,0.4-0.2,0.5-0.3c0.1-0.1,0.2-0.3,0.3-0.5
		c0.1-0.2,0.1-0.4,0.1-0.6c0-0.4-0.1-0.8-0.4-1c-0.4-0.3-0.8-0.4-1.3-0.3h-0.9V14L64.9,14z"/>
	<path id="Trazado_4129" class="st0" d="M72,11.1v2.3h3v1.4h-3v2.4h3.9v1.5h-5.7v-9h5.7v1.4H72z"/>
	<path id="Trazado_4130" class="st0" d="M85,9.7v9h-1c-0.1,0-0.3,0-0.4-0.1c-0.1-0.1-0.2-0.2-0.3-0.3l-4.5-5.7c0,0.2,0,0.3,0,0.4
		v5.6h-1.6v-9h1.2c0.1,0,0.1,0,0.2,0c0.1,0,0.1,0.1,0.1,0.1c0,0,0.1,0.1,0.1,0.2l4.5,5.7c0-0.2,0-0.3,0-0.5V9.7L85,9.7L85,9.7z"/>
	<path id="Trazado_4131" class="st0" d="M93.1,16.5c0.1,0,0.2,0,0.3,0.1l0.7,0.8c-0.4,0.5-0.8,0.8-1.4,1.1c-0.6,0.3-1.3,0.4-1.9,0.3
		c-0.6,0-1.2-0.1-1.8-0.3c-0.5-0.2-1-0.5-1.4-0.9c-0.4-0.4-0.7-0.9-0.9-1.5c-0.4-1-0.4-2.1-0.2-3.2c0.1-0.4,0.2-0.8,0.4-1.1
		c0.2-0.3,0.4-0.6,0.7-0.9c0.3-0.3,0.6-0.5,0.9-0.7c0.3-0.2,0.7-0.3,1.1-0.4c0.4-0.1,0.8-0.2,1.3-0.2c0.3,0,0.6,0,0.9,0.1
		c0.3,0.1,0.6,0.1,0.8,0.3c0.3,0.1,0.5,0.2,0.7,0.4c0.2,0.2,0.4,0.3,0.6,0.5l-0.6,0.9c0,0.1-0.1,0.1-0.2,0.2c-0.1,0-0.2,0.1-0.3,0.1
		c-0.1,0-0.2,0-0.3-0.1c-0.1-0.1-0.2-0.2-0.4-0.3c-0.2-0.1-0.4-0.2-0.6-0.3c-0.3-0.1-0.6-0.1-0.9-0.1c-0.4,0-0.7,0.1-1,0.2
		c-0.3,0.1-0.6,0.3-0.8,0.6c-0.2,0.3-0.4,0.6-0.5,0.9c-0.3,0.8-0.3,1.7,0,2.6c0.1,0.4,0.3,0.7,0.6,0.9c0.2,0.3,0.5,0.5,0.8,0.6
		c0.3,0.1,0.7,0.2,1,0.2c0.2,0,0.4,0,0.6,0c0.2,0,0.3-0.1,0.5-0.1c0.2-0.1,0.3-0.1,0.4-0.2c0.1-0.1,0.3-0.2,0.4-0.3
		c0,0,0.1-0.1,0.2-0.1C92.9,16.5,93,16.5,93.1,16.5L93.1,16.5z"/>
	<path id="Trazado_4132" class="st0" d="M97,18.7h-1.9v-9H97L97,18.7z"/>
	<path id="Trazado_4133" class="st0" d="M106.8,18.7h-1.5c-0.3,0-0.5-0.2-0.6-0.4l-0.6-1.7h-3.6l-0.6,1.7c-0.1,0.1-0.1,0.2-0.2,0.3
		c-0.1,0.1-0.2,0.1-0.4,0.1h-1.4l3.5-9h1.9L106.8,18.7z M103.7,15.3l-1-2.8c-0.1-0.2-0.1-0.3-0.2-0.5s-0.1-0.4-0.2-0.6
		c-0.1,0.2-0.1,0.4-0.2,0.6c-0.1,0.2-0.1,0.3-0.2,0.5l-1,2.7L103.7,15.3L103.7,15.3z"/>
</g>
<g id="Grupo_61" transform="translate(41.922 27.938)">
	<path id="Trazado_4134" class="st0" d="M11.4,11c0.8,0,1.7,0.1,2.5,0.3c0.6,0.1,1.2,0.4,1.7,0.8c0.4,0.3,0.7,0.7,0.9,1.2
		c0.2,0.5,0.3,1.1,0.3,1.6c0,0.6-0.2,1.3-0.6,1.8c-0.2,0.3-0.5,0.5-0.8,0.7c-0.4,0.2-0.7,0.4-1.1,0.6c0.8,0.1,1.6,0.5,2.2,1.1
		c0.5,0.6,0.7,1.3,0.7,2c0,0.6-0.1,1.2-0.3,1.7c-0.2,0.5-0.6,1-1,1.4c-0.5,0.4-1.1,0.7-1.7,0.9c-0.7,0.2-1.5,0.3-2.3,0.3H6.3V11
		L11.4,11z M9.3,13.2v3.9h2c0.4,0,0.7,0,1.1-0.1c0.3-0.1,0.6-0.2,0.8-0.4c0.2-0.2,0.4-0.4,0.5-0.6c0.1-0.3,0.2-0.6,0.2-0.9
		c0-0.3-0.1-0.6-0.2-0.9c-0.1-0.2-0.2-0.4-0.4-0.6c-0.2-0.2-0.5-0.3-0.8-0.3c-0.4-0.1-0.7-0.1-1.1-0.1L9.3,13.2z M11.8,23.1
		c0.4,0,0.8,0,1.2-0.2c0.3-0.1,0.5-0.3,0.7-0.5c0.2-0.2,0.3-0.4,0.4-0.7c0.1-0.2,0.1-0.5,0.1-0.8c0-0.3,0-0.5-0.1-0.8
		c-0.1-0.2-0.2-0.4-0.4-0.6c-0.2-0.2-0.5-0.3-0.8-0.4c-0.4-0.1-0.8-0.1-1.1-0.1H9.2v3.9H11.8z"/>
	<path id="Trazado_4135" class="st0" d="M31.8,25.3h-2.3c-0.2,0-0.4-0.1-0.6-0.2c-0.2-0.1-0.3-0.3-0.3-0.5l-1-2.7h-5.7l-1,2.7
		c-0.1,0.2-0.2,0.3-0.3,0.4c-0.2,0.1-0.4,0.2-0.6,0.2h-2.3L23.1,11h3L31.8,25.3z M26.8,19.9l-1.5-4.4c-0.1-0.3-0.2-0.5-0.3-0.8
		c-0.1-0.3-0.2-0.6-0.3-1c-0.1,0.4-0.2,0.7-0.3,1c-0.1,0.3-0.2,0.6-0.3,0.8l-1.5,4.4H26.8z"/>
	<path id="Trazado_4136" class="st0" d="M45.4,11v14.3h-1.5c-0.2,0-0.4,0-0.6-0.1c-0.2-0.1-0.3-0.2-0.5-0.4l-7.2-9.1
		c0,0.2,0,0.5,0,0.7v8.9h-2.6V11H35c0.1,0,0.2,0,0.3,0.1c0.1,0,0.1,0.1,0.2,0.2c0.1,0.1,0.2,0.2,0.2,0.3l7.2,9.1
		c0-0.3,0-0.5-0.1-0.7c0-0.2,0-0.4,0-0.7V11L45.4,11L45.4,11z"/>
	<path id="Trazado_4137" class="st0" d="M58.2,21.8c0.2,0,0.3,0.1,0.4,0.2l1.2,1.3c-0.6,0.7-1.3,1.3-2.2,1.7c-1,0.4-2,0.6-3.1,0.6
		c-1,0-2-0.2-2.9-0.5c-0.8-0.4-1.6-0.9-2.2-1.5c-0.6-0.7-1.1-1.5-1.4-2.3c-0.3-0.9-0.5-1.9-0.5-2.9c0-0.7,0.1-1.4,0.2-2
		c0.1-0.6,0.4-1.2,0.7-1.8c0.3-0.5,0.6-1,1.1-1.5c0.4-0.4,0.9-0.8,1.4-1.1c0.5-0.3,1.1-0.5,1.7-0.7c0.6-0.2,1.3-0.2,2-0.3
		c0.5,0,1,0,1.5,0.1c0.5,0.1,0.9,0.2,1.3,0.4c0.4,0.2,0.8,0.4,1.1,0.6c0.3,0.2,0.7,0.5,0.9,0.8l-1,1.4c-0.1,0.1-0.1,0.2-0.2,0.2
		c-0.1,0.1-0.2,0.1-0.4,0.1c-0.2,0-0.3-0.1-0.5-0.2c-0.2-0.1-0.4-0.3-0.6-0.4c-0.3-0.1-0.6-0.3-0.9-0.4c-0.4-0.1-0.9-0.2-1.4-0.2
		c-0.6,0-1.1,0.1-1.6,0.3c-0.5,0.2-0.9,0.5-1.3,0.9c-0.4,0.5-0.7,1-0.9,1.5c-0.2,0.7-0.3,1.4-0.3,2.1c0,0.7,0.1,1.4,0.3,2.1
		c0.2,0.6,0.5,1.1,0.9,1.5c0.4,0.4,0.8,0.7,1.3,0.9c0.5,0.2,1.1,0.3,1.6,0.3c0.3,0,0.6,0,0.9-0.1c0.3,0,0.5-0.1,0.8-0.2
		c0.2-0.1,0.5-0.2,0.7-0.3c0.2-0.1,0.4-0.3,0.6-0.5c0.1-0.1,0.2-0.1,0.2-0.2C58,21.8,58.1,21.8,58.2,21.8z"/>
	<path id="Trazado_4138" class="st0" d="M74,25.3h-2.3c-0.2,0-0.4-0.1-0.6-0.2c-0.2-0.1-0.3-0.3-0.3-0.5l-1-2.7h-5.7l-1,2.7
		c-0.1,0.2-0.2,0.3-0.3,0.4c-0.2,0.1-0.4,0.2-0.6,0.2h-2.3l5.6-14.4h3L74,25.3z M69,19.9l-1.5-4.4c-0.1-0.3-0.2-0.5-0.3-0.8
		c-0.1-0.3-0.2-0.6-0.3-1c-0.1,0.4-0.2,0.7-0.3,1c-0.1,0.3-0.2,0.6-0.3,0.8l-1.5,4.4H69z"/>
	<path id="Trazado_4139" class="st0" d="M86.8,25.3h-2.7c-0.4,0-0.9-0.2-1.1-0.6l-2.7-4.4c-0.1-0.1-0.2-0.3-0.4-0.4
		c-0.2-0.1-0.4-0.1-0.6-0.1h-1v5.5h-2.9V11h4.5c0.9,0,1.7,0.1,2.6,0.3c0.6,0.2,1.2,0.5,1.8,0.9c0.4,0.4,0.8,0.8,1,1.3
		c0.2,0.5,0.3,1.1,0.3,1.7c0,0.5-0.1,0.9-0.2,1.4c-0.1,0.4-0.3,0.8-0.6,1.2c-0.3,0.4-0.6,0.7-0.9,0.9c-0.4,0.3-0.8,0.5-1.3,0.7
		c0.2,0.1,0.4,0.2,0.5,0.4c0.2,0.2,0.3,0.3,0.4,0.5L86.8,25.3z M79.8,17.8c0.4,0,0.9-0.1,1.3-0.2c0.3-0.1,0.6-0.3,0.9-0.5
		c0.2-0.2,0.4-0.5,0.5-0.8c0.1-0.3,0.2-0.6,0.2-0.9c0-0.6-0.2-1.2-0.7-1.6c-0.6-0.4-1.3-0.6-2.1-0.6h-1.5v4.5H79.8z"/>
	<path id="Trazado_4140" class="st0" d="M91.2,25.3h-3V11h3V25.3z"/>
	<path id="Trazado_4141" class="st0" d="M106.8,25.3h-2.3c-0.2,0-0.4-0.1-0.6-0.2c-0.2-0.1-0.3-0.3-0.3-0.5l-1-2.7h-5.7l-1,2.7
		c-0.1,0.2-0.2,0.3-0.3,0.4c-0.2,0.1-0.4,0.2-0.6,0.2h-2.3l5.6-14.4h3L106.8,25.3z M101.8,19.9l-1.5-4.4c-0.1-0.3-0.2-0.5-0.3-0.8
		c-0.1-0.3-0.2-0.6-0.3-1c-0.1,0.4-0.2,0.7-0.3,1c-0.1,0.3-0.2,0.6-0.3,0.8l-1.5,4.4H101.8z"/>
</g>
<path id="Trazado_4142" class="st1" d="M19.1,46h2.4l-0.1-1.4h-8.2c-0.2,0-0.4-0.1-0.4-0.3c0,0,0,0,0,0V19.4c0-0.2,0.1-0.4,0.3-0.4
	c0,0,0,0,0,0h16.7c0.2,0,0.4,0.1,0.4,0.3c0,0,0,0,0,0v24.8c0,0.2-0.2,0.4-0.4,0.4h-0.7c0.1,0.5,0.3,0.9,0.4,1.4
	c0,0.1,0.1,0.2,0.1,0.3c1.1,0.1,2.2-0.1,3.2-0.6V19.1c0-1.6-1.3-2.9-2.9-2.9H13c-1.6,0-2.9,1.3-2.9,2.9v27.3c0,1.6,1.3,2.9,2.9,2.9
	h8.6c0-0.5-0.1-1-0.1-1.5v-0.2h-2.5V46z M36,40.6c0.1-0.2,0.1-0.3-0.1-0.4c-0.8-0.5-1.6-1.2-2.1-2V33c1.6,1.2,3.1,2.7,4.7,4.1
	c0.6,0.5,1.1,1.1,1.4,1.9c0.5,1.7,1,3.3,1.4,5c0.1,0.3,0.2,0.7,0.3,1c0.3,0.8,0.4,1.7,0.2,2.6c-0.1,0.6-0.4,1.1-0.7,1.8l-2.7,7
	c-0.9,1.9-1.3,3.9-1.3,6l0,3.1c0,2.6-10.8,2.7-10.8,0c0.1-1.9,0-3.8-0.5-5.7c-0.8-2.6-1.7-5.2-2.6-7.7c-0.4-1.4-0.5-2.8-0.5-4.3
	l-0.2-5c-0.1-1.9-0.6-4.8,2-5c2.5-0.2,2.9,2.2,3,3.9c0.4,1.5,0.8,3.1,1.3,4.5c0.2,0.5,0.3,1,0.9,1c1.2,0.1,3.5-0.1,4.4-1.1
	c0.5-0.6,0.9-1.3,1.1-2.1c0.2-0.3,0.3-0.7,0.3-1.1C35.4,42.2,35.6,41.4,36,40.6L36,40.6z M3.8,19.9H1.3C0.5,14.1,4.3,8.7,10,7.5
	l0.9,2.3c-0.1,0-0.1,0-0.2,0c-4.6,0.8-7.7,5.2-6.9,9.9C3.8,19.8,3.8,19.8,3.8,19.9L3.8,19.9z M6.1,19.9h2.6
	c-0.9-1.9-0.1-4.3,1.8-5.2c0.7-0.3,1.4-0.5,2.1-0.4l-0.9-2.4c-3.5,0.3-6.1,3.4-5.8,6.9C5.9,19.2,6,19.5,6.1,19.9z"/>
<g id="Grupo_62" transform="translate(12.578 11.62)">
	<path id="Trazado_4143" class="st0" d="M2.7,14.9h1.5C4.4,14,4.6,13.2,5,12.4c0.4-0.7,0.8-1.3,1.4-1.9C7,10,7.6,9.6,8.3,9.3
		C9,9,9.8,8.9,10.5,8.9c1.8-0.1,3.6,0.8,4.6,2.3l-1.1,1.2l-0.3,0.3c-0.1,0.1-0.2,0.1-0.4,0.1c-0.2,0-0.3-0.1-0.4-0.2
		c-0.1-0.1-0.3-0.3-0.5-0.4c-0.2-0.2-0.4-0.3-0.7-0.4c-1.1-0.4-2.3-0.1-3.2,0.7c-0.6,0.7-1,1.6-1.2,2.5h5.5v0.9
		c0,0.2-0.1,0.4-0.2,0.5c-0.2,0.2-0.4,0.3-0.6,0.3H7.3v1.2h4.6v0.9c0,0.2-0.1,0.4-0.2,0.5c-0.2,0.2-0.4,0.3-0.6,0.3H7.4
		c0.1,1,0.5,1.9,1.1,2.7c0.5,0.6,1.3,0.9,2.1,0.9c0.3,0,0.6,0,0.9-0.1c0.2-0.1,0.4-0.1,0.6-0.3c0.2-0.1,0.3-0.2,0.4-0.3
		c0.1-0.1,0.2-0.2,0.3-0.3c0.1-0.1,0.2-0.2,0.3-0.3c0.1-0.1,0.2-0.1,0.3-0.1c0.1,0,0.2,0,0.3,0c0.1,0,0.1,0.1,0.2,0.2l1.4,1.2
		c-0.5,0.8-1.2,1.5-2,1.9c-0.9,0.5-1.9,0.7-2.9,0.7c-0.8,0-1.6-0.1-2.4-0.4c-0.7-0.3-1.3-0.7-1.8-1.3c-0.5-0.6-1-1.2-1.3-2
		c-0.3-0.8-0.6-1.7-0.7-2.5H2.8v-1.7h1.2v-0.9c0-0.1,0-0.2,0-0.3H2.9v-1.7H2.7z"/>
</g>
</svg>
