<svg xmlns="http://www.w3.org/2000/svg" width="30" height="30" viewBox="0 0 30 30">
  <path id="logo-twitter-round-white" d="M22.174,7.174a15,15,0,1,0,15,15A15.017,15.017,0,0,0,22.174,7.174Zm6.692,11.567c.007.149.01.3.01.448A9.819,9.819,0,0,1,13.76,27.461a6.971,6.971,0,0,0,5.112-1.43,3.456,3.456,0,0,1-3.225-2.4,3.381,3.381,0,0,0,.649.062,3.474,3.474,0,0,0,.91-.121,3.454,3.454,0,0,1-2.769-3.385c0-.014,0-.03,0-.043A3.439,3.439,0,0,0,16,20.578a3.458,3.458,0,0,1-1.068-4.609,9.8,9.8,0,0,0,7.116,3.608,3.455,3.455,0,0,1,5.883-3.15,6.88,6.88,0,0,0,2.193-.838A3.466,3.466,0,0,1,28.6,17.5a6.875,6.875,0,0,0,1.983-.543A6.98,6.98,0,0,1,28.866,18.741Z" transform="translate(-7.174 -7.174)" fill="#fff"/>
</svg>
