<svg id="logo-landing-3" xmlns="http://www.w3.org/2000/svg" width="131.644" height="53.523" viewBox="0 0 131.644 53.523">
  <g id="Grupo_60" data-name="Grupo 60" transform="translate(41.979 17.388)">
    <path id="Trazado_4121" data-name="Trazado 4121" d="M43.285,26.66H40.922v6.724h-1.66V26.66H36.9V25.31h6.387Z" transform="translate(-36.899 -25.225)" fill="#fff"/>
    <path id="Trazado_4122" data-name="Trazado 4122" d="M47.517,33.356H46.026a.712.712,0,0,1-.619-.309l-1.519-2.476a1.608,1.608,0,0,0-.2-.225.609.609,0,0,0-.338-.056H42.79v3.067H41.13V25.31h2.532a5.282,5.282,0,0,1,1.435.169,2.923,2.923,0,0,1,.985.478,1.772,1.772,0,0,1,.563.732,2.524,2.524,0,0,1,.169.957,2.37,2.37,0,0,1-.113.76,2.835,2.835,0,0,1-.338.647,2.4,2.4,0,0,1-.535.535,2.966,2.966,0,0,1-.732.366,2.148,2.148,0,0,1,.309.225,1.493,1.493,0,0,1,.253.309Zm-3.911-4.22a1.758,1.758,0,0,0,.7-.113,1.138,1.138,0,0,0,.478-.281,1.113,1.113,0,0,0,.281-.422,1.638,1.638,0,0,0,.084-.535,1.129,1.129,0,0,0-.394-.9,1.712,1.712,0,0,0-1.154-.309h-.872v2.56Z" transform="translate(-33.703 -25.225)" fill="#fff"/>
    <path id="Trazado_4123" data-name="Trazado 4123" d="M52.651,33.356H51.357a.585.585,0,0,1-.563-.366l-.535-1.547H47.052l-.535,1.547a.776.776,0,0,1-.2.253.448.448,0,0,1-.338.113H44.689L47.84,25.31h1.716Zm-2.785-3.039-.872-2.476c-.056-.141-.113-.281-.169-.45s-.113-.366-.169-.563c-.056.2-.113.394-.169.563a3.877,3.877,0,0,1-.169.45l-.872,2.448h2.42Z" transform="translate(-31.015 -25.225)" fill="#fff"/>
    <path id="Trazado_4124" data-name="Trazado 4124" d="M56.563,25.322v8.047h-.872a1.209,1.209,0,0,1-.338-.056.912.912,0,0,1-.253-.225l-4.023-5.121c0,.141.028.253.028.394v5.008H49.642V25.322h1.041c.056,0,.084.028.141.028.028.028.084.056.113.084a.614.614,0,0,1,.113.141L55.1,30.7a2.129,2.129,0,0,1-.028-.422v-4.98h1.491Z" transform="translate(-27.275 -25.237)" fill="#fff"/>
    <path id="Trazado_4125" data-name="Trazado 4125" d="M59.162,26.894a1.223,1.223,0,0,1-.169.2.237.237,0,0,1-.2.056.454.454,0,0,1-.253-.084c-.084-.056-.2-.113-.338-.2-.113-.056-.281-.141-.422-.2a1.814,1.814,0,0,0-.563-.084,1.291,1.291,0,0,0-.872.253.834.834,0,0,0-.281.675.639.639,0,0,0,.169.45,1.639,1.639,0,0,0,.422.309,2.877,2.877,0,0,0,.591.225,6.33,6.33,0,0,1,.675.225A6.872,6.872,0,0,1,58.6,29a3.084,3.084,0,0,1,.591.394,2.253,2.253,0,0,1,.422.591,1.965,1.965,0,0,1,.169.844,2.635,2.635,0,0,1-.2,1.041,2.77,2.77,0,0,1-.563.844,2.884,2.884,0,0,1-.9.563,3.31,3.31,0,0,1-1.21.2,3.492,3.492,0,0,1-.76-.084,3.157,3.157,0,0,1-.732-.225,3.782,3.782,0,0,1-.675-.338,4.431,4.431,0,0,1-.535-.422l.478-.788a.288.288,0,0,1,.169-.141.662.662,0,0,1,.225-.056.469.469,0,0,1,.309.113,2.393,2.393,0,0,0,.394.253c.169.084.309.169.506.253a1.7,1.7,0,0,0,.675.113,1.375,1.375,0,0,0,.9-.253.928.928,0,0,0,.309-.788.785.785,0,0,0-.169-.506,1.639,1.639,0,0,0-.422-.309A2.878,2.878,0,0,0,57,30.073c-.225-.056-.45-.141-.675-.2l-.675-.253a2.253,2.253,0,0,1-.591-.422,2.148,2.148,0,0,1-.422-.647,2.483,2.483,0,0,1,0-1.8,1.977,1.977,0,0,1,.535-.76,2.551,2.551,0,0,1,.844-.535,3.01,3.01,0,0,1,1.154-.2,4.248,4.248,0,0,1,1.35.225,2.927,2.927,0,0,1,1.041.619Z" transform="translate(-23.825 -25.262)" fill="#fff"/>
    <path id="Trazado_4126" data-name="Trazado 4126" d="M59.713,26.6v2.223h2.9v1.322h-2.9v3.207H58.025V25.31h5.121V26.6Z" transform="translate(-20.943 -25.225)" fill="#fff"/>
    <path id="Trazado_4127" data-name="Trazado 4127" d="M63.291,26.6v2.082h2.7v1.266h-2.7v2.11h3.461v1.294H61.632V25.31h5.121V26.6Z" transform="translate(-18.22 -25.225)" fill="#fff"/>
    <path id="Trazado_4128" data-name="Trazado 4128" d="M71.657,33.356H70.166a.712.712,0,0,1-.619-.309l-1.519-2.476a1.609,1.609,0,0,0-.2-.225.609.609,0,0,0-.338-.056H66.93v3.067H65.27V25.31H67.8a5.282,5.282,0,0,1,1.435.169,2.923,2.923,0,0,1,.985.478,1.772,1.772,0,0,1,.563.732,2.524,2.524,0,0,1,.169.957,2.254,2.254,0,0,1-.45,1.407,2.4,2.4,0,0,1-.535.535,2.966,2.966,0,0,1-.732.366,2.148,2.148,0,0,1,.309.225,1.493,1.493,0,0,1,.253.309Zm-3.911-4.22a1.758,1.758,0,0,0,.7-.113,1.137,1.137,0,0,0,.478-.281,1.113,1.113,0,0,0,.281-.422,1.638,1.638,0,0,0,.084-.535,1.129,1.129,0,0,0-.394-.9,1.711,1.711,0,0,0-1.154-.309H66.9v2.56Z" transform="translate(-15.472 -25.225)" fill="#fff"/>
    <path id="Trazado_4129" data-name="Trazado 4129" d="M71.033,26.6v2.082h2.7v1.266h-2.7v2.11h3.461v1.294H69.374V25.31h5.121V26.6Z" transform="translate(-12.373 -25.225)" fill="#fff"/>
    <path id="Trazado_4130" data-name="Trazado 4130" d="M79.9,25.322v8.047h-.872a1.209,1.209,0,0,1-.338-.056.911.911,0,0,1-.253-.225l-4.023-5.121c0,.141.028.253.028.394v5.008H72.98V25.322h1.041c.056,0,.084.028.141.028s.084.056.113.084a.614.614,0,0,1,.113.141L78.438,30.7a2.129,2.129,0,0,1-.028-.422v-4.98H79.9Z" transform="translate(-9.649 -25.237)" fill="#fff"/>
    <path id="Trazado_4131" data-name="Trazado 4131" d="M83.589,31.411a.256.256,0,0,1,.225.113l.647.7a3.325,3.325,0,0,1-1.21.957,4.067,4.067,0,0,1-1.716.309,4.323,4.323,0,0,1-1.632-.309,3.462,3.462,0,0,1-1.238-.844,3.992,3.992,0,0,1-.788-1.294,4.938,4.938,0,0,1-.141-2.813,3.434,3.434,0,0,1,.394-.985,3.573,3.573,0,0,1,.591-.816,3.326,3.326,0,0,1,.788-.619,3.6,3.6,0,0,1,.957-.394,4.739,4.739,0,0,1,1.125-.141,4.089,4.089,0,0,1,.844.084,3.157,3.157,0,0,1,.731.225,2.835,2.835,0,0,1,.647.338c.2.141.366.281.535.422l-.563.76c-.028.056-.084.084-.141.141a.436.436,0,0,1-.225.056.629.629,0,0,1-.281-.084c-.084-.056-.2-.141-.338-.225a4.466,4.466,0,0,0-.506-.225,2.831,2.831,0,0,0-.76-.084,2.038,2.038,0,0,0-.928.2,1.972,1.972,0,0,0-.732.535,2.454,2.454,0,0,0-.478.844,4.026,4.026,0,0,0,0,2.307,2.119,2.119,0,0,0,.506.844,1.972,1.972,0,0,0,.731.535,2.437,2.437,0,0,0,.9.169,2.735,2.735,0,0,0,.506-.028c.141-.028.309-.056.422-.084.141-.056.253-.113.366-.169s.225-.169.366-.253a.615.615,0,0,1,.141-.084.417.417,0,0,1,.253-.084Z" transform="translate(-6.162 -25.25)" fill="#fff"/>
    <path id="Trazado_4132" data-name="Trazado 4132" d="M83.741,33.356H82.052V25.31h1.688Z" transform="translate(-2.797 -25.225)" fill="#fff"/>
    <path id="Trazado_4133" data-name="Trazado 4133" d="M91.409,33.356H90.115a.585.585,0,0,1-.563-.366l-.535-1.547H85.81l-.535,1.547a.776.776,0,0,1-.2.253.448.448,0,0,1-.338.113H83.447L86.6,25.31h1.716Zm-2.785-3.039-.872-2.476c-.056-.141-.113-.281-.169-.45s-.113-.366-.169-.563c-.056.2-.113.394-.169.563a3.876,3.876,0,0,1-.169.45L86.2,30.29h2.42Z" transform="translate(-1.744 -25.225)" fill="#fff"/>
  </g>
  <g id="Grupo_61" data-name="Grupo 61" transform="translate(41.922 27.938)">
    <path id="Trazado_4134" data-name="Trazado 4134" d="M41.425,31.321a8.11,8.11,0,0,1,2.195.253,4.585,4.585,0,0,1,1.491.675,2.554,2.554,0,0,1,.844,1.069,3.837,3.837,0,0,1,.253,1.435,2.743,2.743,0,0,1-.535,1.6,3.153,3.153,0,0,1-.7.647,4.255,4.255,0,0,1-1.013.506A3.55,3.55,0,0,1,45.9,38.523a2.6,2.6,0,0,1,.619,1.8,3.962,3.962,0,0,1-.309,1.519,3.178,3.178,0,0,1-.9,1.21,3.968,3.968,0,0,1-1.491.788,6.411,6.411,0,0,1-2.026.281H36.867v-12.8Zm-1.885,2v3.461h1.744a5.139,5.139,0,0,0,.985-.084A1.918,1.918,0,0,0,43,36.385a1.391,1.391,0,0,0,.45-.535,1.717,1.717,0,0,0,.141-.788,2.352,2.352,0,0,0-.141-.816,1.267,1.267,0,0,0-.394-.535,1.882,1.882,0,0,0-.675-.309,4.836,4.836,0,0,0-.957-.084ZM41.79,42.1a3.579,3.579,0,0,0,1.041-.141,1.617,1.617,0,0,0,.647-.422,1.252,1.252,0,0,0,.338-.591,2.775,2.775,0,0,0,.084-.675,1.943,1.943,0,0,0-.113-.7,1.213,1.213,0,0,0-.366-.535,1.9,1.9,0,0,0-.675-.338,3.592,3.592,0,0,0-1.013-.113H39.483V42.1Z" transform="translate(-36.867 -31.236)" fill="#fff"/>
    <path id="Trazado_4135" data-name="Trazado 4135" d="M55.29,44.134H53.236a.893.893,0,0,1-.563-.169.92.92,0,0,1-.309-.422L51.492,41.1H46.4l-.872,2.448a1.013,1.013,0,0,1-.309.394.893.893,0,0,1-.563.169H42.573l5.008-12.8h2.7Zm-4.445-4.867-1.379-3.911a7.2,7.2,0,0,1-.253-.732c-.084-.281-.169-.563-.253-.9-.084.338-.169.647-.253.9a7.2,7.2,0,0,1-.253.732l-1.379,3.911Z" transform="translate(-32.557 -31.248)" fill="#fff"/>
    <path id="Trazado_4136" data-name="Trazado 4136" d="M61.464,31.321v12.8H60.085a1.142,1.142,0,0,1-.535-.113,1.594,1.594,0,0,1-.422-.338l-6.387-8.131a4.559,4.559,0,0,1,.028.619v7.962H50.491v-12.8h1.688a.662.662,0,0,1,.225.056c.056.028.113.084.2.141a.8.8,0,0,1,.2.225L59.213,39.9c-.028-.225-.028-.45-.056-.647,0-.2-.028-.394-.028-.591V31.349h2.335Z" transform="translate(-26.577 -31.236)" fill="#fff"/>
    <path id="Trazado_4137" data-name="Trazado 4137" d="M67.3,41.007a.454.454,0,0,1,.366.169L68.709,42.3a4.87,4.87,0,0,1-1.941,1.491,6.75,6.75,0,0,1-2.729.506,6.844,6.844,0,0,1-2.588-.478,6.007,6.007,0,0,1-1.941-1.35,5.939,5.939,0,0,1-1.238-2.082,7.851,7.851,0,0,1-.422-2.617,7.361,7.361,0,0,1,.2-1.8,7.014,7.014,0,0,1,.591-1.576,5.514,5.514,0,0,1,.957-1.294,5.459,5.459,0,0,1,1.266-.985,5.746,5.746,0,0,1,1.547-.619,7.283,7.283,0,0,1,1.772-.225,6.906,6.906,0,0,1,1.35.113,7.246,7.246,0,0,1,1.182.338,5.763,5.763,0,0,1,1.013.535,6.826,6.826,0,0,1,.844.675l-.9,1.21a.657.657,0,0,1-.2.2.6.6,0,0,1-.338.084.837.837,0,0,1-.422-.141,2.944,2.944,0,0,0-.535-.338,5.485,5.485,0,0,0-.788-.338,3.655,3.655,0,0,0-1.21-.141,3.482,3.482,0,0,0-1.463.281,3.4,3.4,0,0,0-1.154.844,4.451,4.451,0,0,0-.76,1.35,6.113,6.113,0,0,0-.253,1.829,5.312,5.312,0,0,0,.281,1.829,3.978,3.978,0,0,0,.788,1.35,3.693,3.693,0,0,0,1.154.844,3.53,3.53,0,0,0,1.435.281,6.969,6.969,0,0,0,.816-.056,4.059,4.059,0,0,0,.675-.141,2.818,2.818,0,0,0,.591-.281,3.666,3.666,0,0,0,.563-.422c.056-.056.141-.084.2-.141C67.161,41.035,67.246,41.007,67.3,41.007Z" transform="translate(-21.02 -31.273)" fill="#fff"/>
    <path id="Trazado_4138" data-name="Trazado 4138" d="M76.769,44.134H74.715a.893.893,0,0,1-.563-.169.92.92,0,0,1-.309-.422L72.971,41.1H67.878l-.872,2.448a1.013,1.013,0,0,1-.309.394.893.893,0,0,1-.563.169H64.052L69.06,31.3h2.7ZM72.3,39.267l-1.379-3.911a7.2,7.2,0,0,1-.253-.732c-.084-.281-.169-.563-.253-.9-.084.338-.169.647-.253.9s-.169.535-.253.732l-1.379,3.911Z" transform="translate(-16.335 -31.248)" fill="#fff"/>
    <path id="Trazado_4139" data-name="Trazado 4139" d="M82.183,44.122H79.792a1.088,1.088,0,0,1-.985-.506l-2.448-3.939a1.283,1.283,0,0,0-.338-.338,1.006,1.006,0,0,0-.535-.113h-.9v4.9H71.97v-12.8h4.023A7.962,7.962,0,0,1,78.3,31.6a5.137,5.137,0,0,1,1.576.76,3.313,3.313,0,0,1,.9,1.182,3.752,3.752,0,0,1,.281,1.519,4.333,4.333,0,0,1-.169,1.21,3.651,3.651,0,0,1-.535,1.041,3.333,3.333,0,0,1-.844.816,4.947,4.947,0,0,1-1.154.591,1.849,1.849,0,0,1,.478.338,2.234,2.234,0,0,1,.394.478ZM75.965,37.4a3.5,3.5,0,0,0,1.125-.169,2.02,2.02,0,0,0,.76-.45,2.183,2.183,0,0,0,.45-.675,2.652,2.652,0,0,0,.141-.844,1.728,1.728,0,0,0-.591-1.407,2.782,2.782,0,0,0-1.829-.506H74.643V37.4Z" transform="translate(-10.355 -31.236)" fill="#fff"/>
    <path id="Trazado_4140" data-name="Trazado 4140" d="M81.167,44.122H78.494v-12.8h2.673Z" transform="translate(-5.428 -31.236)" fill="#fff"/>
    <path id="Trazado_4141" data-name="Trazado 4141" d="M93.407,44.134H91.353a.893.893,0,0,1-.563-.169.92.92,0,0,1-.309-.422L89.609,41.1H84.516l-.872,2.448a1.013,1.013,0,0,1-.309.394.893.893,0,0,1-.563.169H80.69L85.7,31.3h2.7Zm-4.445-4.867-1.379-3.911a7.2,7.2,0,0,1-.253-.732c-.084-.281-.169-.563-.253-.9-.084.338-.169.647-.253.9s-.169.535-.253.732l-1.379,3.911Z" transform="translate(-3.77 -31.248)" fill="#fff"/>
  </g>
  <path id="Trazado_4142" data-name="Trazado 4142" d="M15.925,34.324h2.166l-.056-1.266H10.72a.325.325,0,0,1-.338-.338V10.578a.325.325,0,0,1,.338-.338H25.575a.325.325,0,0,1,.338.338V32.72a.342.342,0,0,1-.338.338h-.619c.113.422.253.816.394,1.238.028.056.056.2.113.309a5.711,5.711,0,0,0,2.842-.535V10.382a2.57,2.57,0,0,0-2.56-2.56H10.551a2.57,2.57,0,0,0-2.56,2.56V34.775a2.57,2.57,0,0,0,2.56,2.56h7.681c-.028-.45-.056-.9-.056-1.322v-.169H15.925Zm15.108-4.811c.084-.169.084-.253-.084-.366a6.579,6.579,0,0,1-1.913-1.8V22.732c1.407,1.069,2.785,2.448,4.192,3.658a3.325,3.325,0,0,1,1.238,1.66c.422,1.519.872,2.982,1.21,4.5.056.309.141.591.225.9a4.065,4.065,0,0,1,.141,2.335c-.113.506-.394.985-.619,1.632l-2.392,6.218a12.311,12.311,0,0,0-1.154,5.317l.028,2.785c0,2.307-9.622,2.448-9.622,0a16.817,16.817,0,0,0-.45-5.092c-.675-2.279-1.547-4.642-2.279-6.893a14.777,14.777,0,0,1-.478-3.8l-.2-4.445c-.084-1.688-.563-4.276,1.8-4.445,2.195-.141,2.588,1.969,2.7,3.517.366,1.294.675,2.757,1.125,4,.169.478.309.872.76.9,1.069.056,3.151-.084,3.883-.957a7.336,7.336,0,0,0,1.013-1.829,2.516,2.516,0,0,0,.309-.985,6.172,6.172,0,0,1,.563-2.195ZM2.307,11.057H.113A9.788,9.788,0,0,1,7.822,0l.76,2.054c-.056,0-.113.028-.169.028a7.6,7.6,0,0,0-6.161,8.806c.028.056.028.113.056.169Zm2.026.028H6.64A3.478,3.478,0,0,1,10.129,6.1L9.313,3.939a5.658,5.658,0,0,0-4.98,7.146Z" transform="translate(0 0)" fill="#fff" fill-rule="evenodd"/>
  <g id="Grupo_62" data-name="Grupo 62" transform="translate(12.578 11.62)">
    <path id="Trazado_4143" data-name="Trazado 4143" d="M20.148,27.293h1.294A8.4,8.4,0,0,1,22.2,25.1a6.887,6.887,0,0,1,1.238-1.688,5.421,5.421,0,0,1,1.66-1.069,5.151,5.151,0,0,1,2-.366,4.837,4.837,0,0,1,4.136,2.054l-.985,1.041-.225.225a.6.6,0,0,1-.338.084.555.555,0,0,1-.394-.169c-.113-.113-.253-.225-.422-.366a2.569,2.569,0,0,0-.619-.366,2.691,2.691,0,0,0-2.813.591,4.449,4.449,0,0,0-1.069,2.223h4.867v.844a.6.6,0,0,1-.2.45.786.786,0,0,1-.563.225h-4.3v1.041h4.108V30.7a.6.6,0,0,1-.2.45.74.74,0,0,1-.563.225H24.312a4.382,4.382,0,0,0,1.013,2.391,2.347,2.347,0,0,0,1.829.788,3.217,3.217,0,0,0,.788-.084,2.606,2.606,0,0,0,.563-.225,2.382,2.382,0,0,0,.394-.281,2.8,2.8,0,0,1,.309-.281,1.821,1.821,0,0,1,.253-.225.475.475,0,0,1,.281-.084.548.548,0,0,1,.225.028c.056.028.113.084.2.141l1.21,1.1a4.71,4.71,0,0,1-1.8,1.688,5.372,5.372,0,0,1-2.56.591,5.786,5.786,0,0,1-2.138-.394A4.712,4.712,0,0,1,23.243,35.4a5.82,5.82,0,0,1-1.125-1.744,9.122,9.122,0,0,1-.647-2.251H20.233V29.882h1.1v-.76a1.154,1.154,0,0,1,.028-.309h-1.1V27.293Z" transform="translate(-20.148 -21.976)" fill="#fff"/>
  </g>
</svg>
