<svg xmlns="http://www.w3.org/2000/svg" width="58.605" height="20" viewBox="0 0 58.605 20">
  <path id="logo-skrill" d="M46.589,1.964l4.884-.879V19.793H46.589Zm7.132,0V19.819H58.6V1.085ZM39.638,19.819h4.884V6.124H39.638ZM7.416,8.062C6.8,8.01,5.375,7.933,5.375,6.641c0-1.55,2.067-1.55,2.816-1.55a16.666,16.666,0,0,1,4.367.775s.7.258,1.292.491l.052.026V2.119l-.078-.026A17.458,17.458,0,0,0,7.442,1.085C1.938,1.085,0,4.289,0,7.028c0,1.576.672,5.3,6.977,5.736.543.026,1.938.1,1.938,1.447,0,1.085-1.163,1.731-3.1,1.731A15.358,15.358,0,0,1,.336,14.883V19.25A25.636,25.636,0,0,0,6.847,20c5.375,0,7.778-3.023,7.778-6.047,0-3.385-2.687-5.607-7.209-5.891ZM36.9,5.917c-4.5.155-6.8,2.17-6.8,6.176v7.7h4.91V13.514c0-2.4.31-3.437,3.178-3.54V5.995A6.96,6.96,0,0,0,36.9,5.917ZM23.669,6.1a16.113,16.113,0,0,1-2.791,4.754V1.085L15.839,2.093V19.819h5.039V14.341a19.39,19.39,0,0,1,2.17,5.478h6.021a38.956,38.956,0,0,0-3.2-7.054A22.178,22.178,0,0,0,29.405,6.1ZM42.093,4.806a2.415,2.415,0,0,0,2.4-2.4,2.4,2.4,0,1,0-2.4,2.4Z" transform="translate(0)" fill="#ccc"/>
</svg>
