<svg xmlns="http://www.w3.org/2000/svg" width="77.216" height="23.002" viewBox="0 0 77.216 23.002">
  <g id="logo-bizum" transform="translate(-0.017 0.008)">
    <path id="Trazado_5353" data-name="Trazado 5353" d="M38.217,8.2a1.185,1.185,0,0,0-1.19,1.19v8.861a1.19,1.19,0,1,0,2.381,0V9.393a1.185,1.185,0,0,0-1.19-1.19m0-4.364A1.323,1.323,0,1,0,39.54,5.161a1.325,1.325,0,0,0-1.323-1.323M49.856,9.393A1.032,1.032,0,0,0,48.8,8.335H42.846a1.043,1.043,0,0,0-1.058,1.058,1.138,1.138,0,0,0,1.058,1.058h3.835l-5.026,7.01a2.234,2.234,0,0,0-.265.661,1.276,1.276,0,0,0,1.058,1.19h6.216a1.138,1.138,0,0,0,1.058-1.058A1.043,1.043,0,0,0,48.665,17.2H44.433l4.894-6.877c.4-.4.529-.661.529-.926M32.4,14.815c0,1.455-.661,2.381-2.116,2.381s-2.116-.926-2.116-2.381v-4.5h2.248c1.719,0,1.984.926,1.984,1.984ZM34.778,12.3c0-2.513-1.323-4.1-4.364-4.1H28.165V5.028a1.19,1.19,0,1,0-2.381,0v9.919c0,2.513,1.323,4.5,4.5,4.5a4.164,4.164,0,0,0,4.5-4.5V12.3ZM59.114,8.2a1.185,1.185,0,0,0-1.19,1.19v5.555c0,1.455-.661,2.381-2.116,2.381s-2.116-.926-2.116-2.381V9.393a1.19,1.19,0,0,0-2.381,0v5.555c0,2.513,1.323,4.5,4.5,4.5a4.164,4.164,0,0,0,4.5-4.5V9.393a1.185,1.185,0,0,0-1.19-1.19m18.119,4.5c0-2.513-1.19-4.5-4.232-4.5a4.231,4.231,0,0,0-3.042,1.058A4.231,4.231,0,0,0,66.917,8.2c-3.042,0-4.232,1.984-4.232,4.5v5.555a1.19,1.19,0,0,0,2.381,0V12.7c0-1.455.4-2.381,1.852-2.381s1.852.926,1.852,2.381v5.555a1.19,1.19,0,0,0,2.381,0V12.7c0-1.455.4-2.381,1.852-2.381s1.852.926,1.852,2.381v5.555a1.19,1.19,0,0,0,2.381,0ZM4.227,8.2a1.908,1.908,0,0,0,2.645-.4L9.12,4.764a1.908,1.908,0,0,0-.4-2.645,2.2,2.2,0,0,0-2.777.4L3.83,5.557a1.8,1.8,0,0,0,.4,2.645M14.278,3.97a1.908,1.908,0,0,0-2.645.4L2.9,16.4a1.891,1.891,0,0,0,3.042,2.248L14.675,6.615a2,2,0,0,0-.4-2.645M3.433,2.912a1.908,1.908,0,0,0-.4-2.645A2.02,2.02,0,0,0,.391.8a1.908,1.908,0,0,0,.4,2.645,1.94,1.94,0,0,0,2.645-.529M16.659,19.577a1.891,1.891,0,1,0,.4,2.645,1.8,1.8,0,0,0-.4-2.645M13.22,14.815a1.908,1.908,0,0,0-2.645.4L8.327,18.254A1.891,1.891,0,0,0,11.369,20.5l2.248-3.042a1.768,1.768,0,0,0-.4-2.645" fill="#cccbcb"/>
  </g>
</svg>
