<svg xmlns="http://www.w3.org/2000/svg" width="817.741" height="96.879" viewBox="0 0 817.741 96.879">
  <g id="logo-casino-large" transform="translate(-2.4 -2.4)">
    <path id="Trazado_1" data-name="Trazado 1" d="M130.128,24.821h0c0-.277-.416-.277-.416-.277-6.524-1.939-12.077-7.2-13.742-13.3l-.278-.97a.271.271,0,0,0-.278-.277h0c-.139,0-.278.277-.278.277l-.278.97c-1.666,6.095-7.218,11.359-13.742,13.3,0,0-.416.139-.416.277h0c0,.277.416.277.416.277,6.524,1.939,12.077,7.2,13.742,13.3l.278.97a.272.272,0,0,0,.278.277h0c.139,0,.278-.277.278-.277l.278-.97c1.666-6.095,7.218-11.359,13.742-13.3,0,.139.416,0,.416-.277Z" transform="translate(38.152 2.927)" fill="#ff293e"/>
    <path id="Trazado_2" data-name="Trazado 2" d="M135.892,10.157h0a.136.136,0,0,0-.139-.139,10.436,10.436,0,0,1-7.079-6.926l-.139-.554A.136.136,0,0,0,128.4,2.4h0a.136.136,0,0,0-.139.139l-.139.693c-.833,3.186-3.748,5.818-7.08,6.926a.136.136,0,0,0-.139.139h0a.136.136,0,0,0,.139.139,10.436,10.436,0,0,1,7.08,6.926l.139.554a.136.136,0,0,0,.139.139h0a.136.136,0,0,0,.139-.139l.139-.554c.833-3.186,3.748-5.818,7.079-6.926a.483.483,0,0,0,.139-.277Z" transform="translate(45.992 0)" fill="#ff293e"/>
    <path id="Trazado_3" data-name="Trazado 3" d="M36.687,68.267a10.18,10.18,0,0,1-9.578,5.818c-5.83,0-11.521-3.879-11.521-12.467,0-7.341,4.442-12.744,11.244-12.744q7.079,0,9.994,6.233c.139.277.139.416.555.277l10.272-4.017c.278-.139.555-.416.139-1.247C44.738,43.195,37.8,37.1,26.414,37.1,12.95,37.1,2.4,47.489,2.4,61.479c0,13.159,9.717,24.1,24.292,24.1A23.177,23.177,0,0,0,48.208,71.453c.139-.416,0-.693-.555-.831l-10.272-2.77c-.416-.277-.416,0-.694.416Z" transform="translate(0 13.366)" fill="#fff"/>
    <path id="Trazado_4" data-name="Trazado 4" d="M84.086,83.687c-7.5-15.1-16.935-34.214-23.459-46.958a3.378,3.378,0,0,0-1.666,0C52.714,48.364,42.72,68.588,35.64,83.687c-.278.693-.139.97.278.97H47.3c.833,0,.972-.139,1.249-.693.694-1.662,1.527-4.017,2.36-5.956H67.567c.694,1.662,1.666,4.294,2.5,6.095a.761.761,0,0,0,.833.554H83.669c.833,0,.833-.139.416-.97ZM63.958,69.142H54.38L59.1,58.753l4.858,10.389Z" transform="translate(12.845 13.183)" fill="#fff"/>
    <path id="Trazado_5" data-name="Trazado 5" d="M73.042,75.154c2.36,6.649,8.19,10.527,17.49,10.527,10.827,0,19.434-4.71,19.434-15.237,0-8.588-5.136-13.159-13.881-14.406a16.063,16.063,0,0,0-2.221-.277c-6.108-.97-8.745-2.355-8.745-5.541,0-2.493,1.527-4.294,6.247-4.294A8.4,8.4,0,0,1,99,51.329c.139.277.278.416.833.277l8.051-3.186c.416-.139.694-.416.416-1.108C106.5,41.494,100.943,37.2,91.782,37.2,79.705,37.2,73.6,43.433,73.6,52.3c0,8.45,5.83,13.159,14.02,13.99.416,0,1.11.139,1.666.139,6.247.693,8.329,2.493,8.329,5.4,0,3.186-2.221,4.571-6.941,4.571a9,9,0,0,1-8.329-5.541c-.139-.554-.139-.554-.694-.277l-8.468,3.463c-.278,0-.416.277-.139,1.108Z" transform="translate(27.359 13.404)" fill="#fff"/>
    <path id="Trazado_6" data-name="Trazado 6" d="M118.732,38.354c0-.554,0-.554-.694-.554H106.655c-.555,0-.555,0-.555.554v45.3c0,.693,0,.554.555.554h11.383c.555,0,.694,0,.694-.554v-45.3Z" transform="translate(40.248 13.636)" fill="#fff"/>
    <path id="Trazado_7" data-name="Trazado 7" d="M162.567,85.69V38.317c-.139-.139-.278-.139-.555-.139H151.6c-.555,0-.555,0-.555.831v20.5S134.25,44,124.394,36.931c-.278-.139-.694-.277-.694.416V83.889a.647.647,0,0,0,.694.693H134.8c.555,0,.555,0,.555-.554V62.973S151.6,77.794,161.873,85.551c.278.277.555.416.694.139Z" transform="translate(47.079 13.257)" fill="#fff"/>
    <path id="Trazado_8" data-name="Trazado 8" d="M207.084,61.341a24.292,24.292,0,1,0-24.292,24.241,24.03,24.03,0,0,0,24.292-24.241Zm-12.771,0c0,7.064-4.3,12.467-11.522,12.467-7.357,0-11.521-5.541-11.521-12.467,0-7.064,4.164-12.605,11.521-12.605,7.218,0,11.522,5.541,11.522,12.605Z" transform="translate(60.585 13.366)" fill="#fff"/>
    <path id="Trazado_9" data-name="Trazado 9" d="M253.09,49.89c0-7.757-5.136-12.19-13.6-12.19H215.333c-.555,0-.833.139-.833.693V83.411c0,.831,0,.97.555.97h26.1c8.19,0,13.187-5.125,13.187-12.605,0-5.4-3.609-10.8-9.578-11.359,5.414-1.662,8.329-5.4,8.329-10.527Zm-12.632,1.8c0,2.77-1.527,4.433-4.442,4.433h-9.3V47.258h9.3c2.915.139,4.442,1.524,4.442,4.433ZM241.568,69.7c0,3.186-1.8,4.987-4.72,4.987h-9.994V64.573h9.994a4.867,4.867,0,0,1,4.72,5.125Z" transform="translate(82.32 13.597)" fill="#fff"/>
    <path id="Trazado_10" data-name="Trazado 10" d="M295.363,83.864c-7.635-15.237-16.935-34.353-23.6-47.235a3.378,3.378,0,0,0-1.666,0c-6.247,11.636-16.241,32-23.459,47.235-.278.693-.139.97.278.97H258.3c.833,0,.972-.139,1.249-.693.694-1.662,1.527-4.017,2.36-5.956h16.657c.694,1.662,1.666,4.294,2.5,6.095a.761.761,0,0,0,.833.554h12.909c.833,0,.972-.139.555-.97ZM275.1,69.181h-9.578l4.72-10.527L275.1,69.181Z" transform="translate(94.738 13.144)" fill="#fff"/>
    <path id="Trazado_11" data-name="Trazado 11" d="M330,82.441c-4.026-6.51-7.912-13.436-9.717-16.207,4.164-1.939,6.385-6.51,6.385-12.744,0-8.45-5.691-15.791-16.241-15.791H289.055a.49.49,0,0,0-.555.554v45.3c0,.693,0,.554.555.554h11.382c.417,0,.555,0,.555-.554V70.529l7.912-.139s5,7.9,7.357,12.328c.555,1.247.833,1.385,1.388,1.385h12.216c.694.277.833-.277.139-1.662ZM313.486,54.322c0,4.017-2.082,6.787-5.83,6.926l-6.941.139V47.95h6.8c4.164,0,5.969,2.77,5.969,6.372Z" transform="translate(111.041 13.597)" fill="#fff"/>
    <path id="Trazado_12" data-name="Trazado 12" d="M357.364,68.305a10.244,10.244,0,0,1-9.717,5.818c-5.83,0-11.521-3.879-11.521-12.467,0-7.341,4.442-12.744,11.244-12.744A10.509,10.509,0,0,1,357.5,55.146c.139.277.139.416.555.277l10.272-4.017c.277-.139.555-.416.139-1.247C365.415,43.095,358.336,37,346.953,37,333.488,37,322.8,47.389,322.8,61.518c0,13.159,9.856,24.241,24.431,24.241a23.34,23.34,0,0,0,21.655-14.267c.139-.416,0-.693-.555-.831l-10.411-2.77c-.278-.138-.416.139-.555.416Z" transform="translate(124.353 13.327)" fill="#fff"/>
    <path id="Trazado_13" data-name="Trazado 13" d="M395.846,47.673a1.035,1.035,0,0,0,.139-.693v-8.45c0-.831,0-.831-.694-.831H364.058c-.694,0-.555,0-.555.693V83.411c0,.831,0,.97.694.97h31.51c.694,0,.694-.138.694-.97V73.853H375.441V65.681h19.85c.139-.138.139-.416.139-.831V56.4c0-.416,0-.554-.139-.693H375.3V47.535h20.544Z" transform="translate(140.147 13.597)" fill="#fff"/>
    <path id="Trazado_14" data-name="Trazado 14" d="M410.015,73.4h0V38.354c0-.554,0-.554-.555-.554h-11.1c-.555,0-.555,0-.555.554v45.3c0,.693,0,.554.555.554h29.151c.555,0,.555,0,.555-.554V73.4Z" transform="translate(153.462 13.636)" fill="#fff"/>
    <path id="Trazado_15" data-name="Trazado 15" d="M471.262,61.379a24.431,24.431,0,1,0-24.431,24.379,24.178,24.178,0,0,0,24.431-24.379Zm-12.909,0c0,7.064-4.3,12.605-11.521,12.605-7.5,0-11.522-5.541-11.522-12.605s4.164-12.605,11.522-12.605c7.218,0,11.521,5.541,11.521,12.605Z" transform="translate(163.01 13.327)" fill="#fff"/>
    <path id="Trazado_16" data-name="Trazado 16" d="M504.345,85.967V38.178c-.139-.139-.278-.139-.555-.139H493.24c-.555,0-.555,0-.555.831V59.51S475.75,43.857,465.894,36.931c-.278-.139-.694-.277-.694.416V84.166a.743.743,0,0,0,.694.693H476.3c.555,0,.555,0,.555-.554V62.973S493.1,77.933,503.512,85.69c.555.277.694.416.833.277Z" transform="translate(179.621 13.257)" fill="#fff"/>
    <path id="Trazado_17" data-name="Trazado 17" d="M547.663,83.864c-7.635-15.237-16.935-34.353-23.6-47.235a3.378,3.378,0,0,0-1.666,0c-6.246,11.636-16.241,32-23.459,47.235-.278.693-.139.97.278.97H510.6c.833,0,.972-.139,1.249-.693.694-1.662,1.527-4.017,2.36-5.956h16.657c.694,1.662,1.666,4.294,2.5,6.095a.761.761,0,0,0,.833.554h12.91c.971,0,.971-.139.555-.97ZM527.536,69.181h-9.578l4.72-10.527,4.858,10.527Z" transform="translate(192.661 13.144)" fill="#fff"/>
    <path id="Trazado_18" data-name="Trazado 18" d="M549.472,70c0-.693-.139-.97-.972-.97h-8.19c-.694,0-1.11.416-1.11,1.385V78.45c0,.831.278,1.108,1.11,1.108h8.19c.972,0,1.11-.416,1.11-1.247-.138-2.77-.138-4.71-.138-8.311Zm20.682-20.224c-9.439,0-15.269,6.372-15.269,15.237,0,9.835,6.385,15.653,15.269,15.653,4.442,0,8.468-1.8,10.272-3.463.416-.416.694-.831.278-1.385-1.111-1.8-2.776-4.156-4.026-5.818-.277-.416-.694-.554-.832-.277a7.432,7.432,0,0,1-5.553,2.909c-3.47,0-5.83-1.939-5.969-5.125h17.351c.833,0,1.11-.139,1.11-.693a13,13,0,0,0,.417-3.878c.139-8.034-5.83-13.159-13.049-13.159Zm-5.691,12.744c.277-2.493,1.665-4.987,4.858-4.987,2.915,0,4.719,1.8,5,4.987Zm21.377,11.5c1.8,4.156,5.275,6.787,12.632,6.787,8.467,0,13.326-4.294,13.326-10.8,0-5.4-4.025-7.9-9.855-9.142-5-.97-6.385-1.524-6.385-2.77s.972-2.078,3.193-2.078a5.258,5.258,0,0,1,4.442,2.632c.277.416.277.416.694.139l6.386-2.216c.416-.139.416-.416.277-.831-1.111-3.879-5-6.233-11.383-6.233-8.051,0-13.048,3.463-13.048,9.558,0,5.818,3.887,7.757,9.3,9.142,4.442,1.108,5.692,1.939,5.692,3.463,0,1.247-1.111,2.355-3.748,2.355a5.188,5.188,0,0,1-4.72-3.186c0-.138-.277-.277-.555-.277L585.7,73.048a2.053,2.053,0,0,1,.139.97Z" transform="translate(208.342 18.142)" fill="#fff"/>
  </g>
</svg>
