<svg xmlns="http://www.w3.org/2000/svg" width="85" height="18.706" viewBox="0 0 85 18.706">
  <g id="logo-ruleta-playtech" transform="translate(-0.5 -0.5)">
    <g id="g11933" transform="translate(0.5 0.5)">
      <path id="path11125" d="M19.981,8.923c-.013-.032-.021-.064-.034-.1-.81-1.986-3.889-2.588-7.439-1.681l-.582-.363a10.958,10.958,0,0,1,4.946-1.04c2.175.165,3.239,1.4,3.109,3.18M16.826,13.1c-2.275,2.9-6.388,4.9-9.186,4.7S4.422,15.062,6.7,12.164c.045-.059.094-.118.142-.177l.007,3.632a1.027,1.027,0,0,0,1.514.99l8.366-5.1A1.03,1.03,0,0,0,16.7,9.77L13.3,7.818a7.259,7.259,0,0,1,2.579-.348c2.8.211,3.216,2.728.942,5.626M6.185,19.35c-2.568-.193-3.592-1.885-2.923-4.19a2.744,2.744,0,0,0,.2,1.094c1,2.468,5.509,2.8,10.062.753.093-.042.186-.088.278-.129-2.556,1.65-5.4,2.636-7.615,2.472m2.958-12.9,5.617,3.54a.706.706,0,0,1,.023,1.184l-5.673,3.46a.7.7,0,0,1-1.029-.679L8.053,7.086a.725.725,0,0,1,1.09-.635m13,1.274C20.967,4.833,16.079,4.2,10.788,6.068L8.44,4.6a1.071,1.071,0,0,0-1.606.937l0,2.389c-4.559,2.732-7.2,6.665-6.078,9.433,1.3,3.2,7.147,3.636,13.052.977s9.636-7.407,8.334-10.607" transform="translate(-0.5 -2.103)" fill="#fff"/>
      <path id="path11129" d="M40.823,13.459l-.51,1.878c-.076.286-.134.547-.181.77a2.811,2.811,0,0,0-.068.51.644.644,0,0,0,.166.47.636.636,0,0,0,.463.171,1.349,1.349,0,0,0,.933-.506,5.624,5.624,0,0,0,.928-1.455,18.093,18.093,0,0,0,.877-2.406,7.556,7.556,0,0,0,.333-1.852,1.372,1.372,0,0,0-.2-.772.582.582,0,0,0-.491-.295,1.536,1.536,0,0,0-1.221.853,9.589,9.589,0,0,0-1.034,2.634M37.618,9.1c.793-.063,1.544-.146,2.264-.239s1.409-.2,2.077-.331L41.4,10.54a7.049,7.049,0,0,1,1.608-1.7A2.633,2.633,0,0,1,44.581,8.3a2.16,2.16,0,0,1,1.731.707,3,3,0,0,1,.61,2.023,7.156,7.156,0,0,1-.416,2.326,9.133,9.133,0,0,1-1.17,2.271,6.6,6.6,0,0,1-1.847,1.832,3.9,3.9,0,0,1-2.09.614,2.638,2.638,0,0,1-.855-.133,2.472,2.472,0,0,1-.718-.394L39.25,19.73a2.366,2.366,0,0,0-.086.408,2.5,2.5,0,0,0-.027.405.631.631,0,0,0,.23.558,2.145,2.145,0,0,0,.945.2v.51H34.952v-.532a.488.488,0,0,0,.078-.009.356.356,0,0,1,.077-.012A.981.981,0,0,0,35.855,21a3.526,3.526,0,0,0,.518-1.368l2.134-8.691c.037-.139.066-.28.089-.415a2.135,2.135,0,0,0,.034-.308.529.529,0,0,0-.211-.487,1.54,1.54,0,0,0-.8-.143Z" transform="translate(-14.486 -3.667)" fill="#fff"/>
      <path id="path11133" d="M54.848,1.135c.8-.065,1.566-.152,2.31-.258S58.6.65,59.257.5L56.313,12.153c-.019.064-.041.141-.067.242a1.386,1.386,0,0,0-.053.3.553.553,0,0,0,.079.321.28.28,0,0,0,.241.116.549.549,0,0,0,.364-.222,10.383,10.383,0,0,0,.794-1.157l.47.356a8.473,8.473,0,0,1-1.7,2.153,2.587,2.587,0,0,1-1.673.665,1.576,1.576,0,0,1-1.19-.431,1.722,1.722,0,0,1-.416-1.244,13.309,13.309,0,0,1,.426-2.1l.029-.115,1.954-7.585q.026-.105.074-.31a5.2,5.2,0,0,0,.179-.959.476.476,0,0,0-.2-.422,1.092,1.092,0,0,0-.614-.138h-.168Z" transform="translate(-21.88 -0.5)" fill="#fff"/>
      <path id="path11137" d="M66.947,10.338a1.1,1.1,0,0,0-.181-.666.565.565,0,0,0-.477-.247,1.12,1.12,0,0,0-.811.413,6.829,6.829,0,0,0-.9,1.391,13.432,13.432,0,0,0-.941,2.267,6.63,6.63,0,0,0-.347,1.907,1.306,1.306,0,0,0,.191.752.609.609,0,0,0,.516.266,1.355,1.355,0,0,0,.972-.572,6.192,6.192,0,0,0,.947-1.613,18.463,18.463,0,0,0,.75-2.243,7.212,7.212,0,0,0,.284-1.654M70.5,8.628l-1.571,5.765v.021a11.183,11.183,0,0,0-.359,1.552.6.6,0,0,0,.079.332.227.227,0,0,0,.209.124c.254,0,.586-.306.985-.92.12-.175.213-.314.276-.41l.456.36a7.062,7.062,0,0,1-1.545,1.989,2.613,2.613,0,0,1-1.684.635,1.719,1.719,0,0,1-1.139-.33,1.214,1.214,0,0,1-.394-.982,3.473,3.473,0,0,1,.037-.488c.023-.2.064-.452.119-.763a5.892,5.892,0,0,1-1.55,1.929,2.992,2.992,0,0,1-1.863.634,2.167,2.167,0,0,1-1.674-.662,2.586,2.586,0,0,1-.617-1.824,7.5,7.5,0,0,1,.593-2.811,8.858,8.858,0,0,1,1.587-2.6,6.48,6.48,0,0,1,1.634-1.391A3.307,3.307,0,0,1,65.715,8.3a1.775,1.775,0,0,1,1.178.364,1.848,1.848,0,0,1,.568,1.116l.289-1.154Z" transform="translate(-24.762 -3.667)" fill="#fff"/>
      <path id="path11141" d="M74.815,9.425V8.893c.765-.086,1.54-.192,2.329-.311s1.21-.178,1.269-.178c.315,0,.728,1.387,1.228,4.165.2,1.106.369,2,.5,2.664q.894-1.812,1.223-2.641a3.737,3.737,0,0,0,.327-1.217c0-.2-.184-.447-.55-.727a1.225,1.225,0,0,1-.552-.967,1.345,1.345,0,0,1,.385-1.005A1.378,1.378,0,0,1,81.988,8.3a1.289,1.289,0,0,1,.983.376,1.521,1.521,0,0,1,.352,1.062,8.173,8.173,0,0,1-.814,2.746,38.378,38.378,0,0,1-2.223,4.258,18.648,18.648,0,0,1-2.9,3.947,3.756,3.756,0,0,1-2.514,1.242,2,2,0,0,1-1.261-.357,1.185,1.185,0,0,1-.459-.986,1.224,1.224,0,0,1,.4-.939,1.408,1.408,0,0,1,1.005-.371,1.847,1.847,0,0,1,1.026.378,1.786,1.786,0,0,0,.732.375c.219,0,.466-.184.746-.55a1.75,1.75,0,0,0,.431-1.059,8.566,8.566,0,0,0-.067-.937c-.043-.381-.112-.846-.2-1.4-.185-1.184-.373-2.265-.56-3.235s-.362-1.734-.515-2.293a2.491,2.491,0,0,0-.407-.94.889.889,0,0,0-.675-.217H75.04a1.726,1.726,0,0,1-.225.021" transform="translate(-29.994 -3.667)" fill="#fff"/>
      <path id="path11145" d="M93.5,13.214a9.1,9.1,0,0,1-1.739,1.916,2.56,2.56,0,0,1-1.539.668,1.131,1.131,0,0,1-.885-.364,1.44,1.44,0,0,1-.326-.986,3.146,3.146,0,0,1,.043-.487,5.4,5.4,0,0,1,.124-.6l1.689-6.6H89.092l.165-.568a4.189,4.189,0,0,0,2.03-1.1,7.849,7.849,0,0,0,1.588-2.349h.607l-.794,3.315h1.625l-.164.7H92.475l-1.621,6.378c-.037.145-.066.271-.086.391a2.873,2.873,0,0,0-.026.314.729.729,0,0,0,.142.486.462.462,0,0,0,.384.168,1.241,1.241,0,0,0,.757-.383,9.078,9.078,0,0,0,1.115-1.245Z" transform="translate(-36.433 -1.413)" fill="#fff"/>
      <path id="path11149" d="M97.892,13.33a5.94,5.94,0,0,0,3.292-1.066,2.761,2.761,0,0,0,1.329-2.226.853.853,0,0,0-.213-.631.874.874,0,0,0-.636-.2,2.961,2.961,0,0,0-2.2,1.091,7.56,7.56,0,0,0-1.571,3.037m-.154.7a5.513,5.513,0,0,0-.128.683,3.914,3.914,0,0,0-.041.59,1.77,1.77,0,0,0,.409,1.265,1.59,1.59,0,0,0,1.192.507,3.965,3.965,0,0,0,1.753-.6,12.354,12.354,0,0,0,2.21-1.59l.43.651a12,12,0,0,1-2.747,1.937,5.665,5.665,0,0,1-2.521.628,2.449,2.449,0,0,1-1.885-.725,2.92,2.92,0,0,1-.671-2.058,6.989,6.989,0,0,1,.523-2.591A7.916,7.916,0,0,1,97.69,10.4a6.459,6.459,0,0,1,1.918-1.489,4.876,4.876,0,0,1,2.153-.518,2.485,2.485,0,0,1,1.6.475,1.566,1.566,0,0,1,.59,1.294,3.084,3.084,0,0,1-1.719,2.571,9.87,9.87,0,0,1-4.5,1.3" transform="translate(-39.164 -3.703)" fill="#fff"/>
      <path id="path11153" d="M115.411,14.175l-.026,1.25a6.846,6.846,0,0,1-2.008,2.02,4.471,4.471,0,0,1-2.378.665,2.989,2.989,0,0,1-2.3-.951,3.508,3.508,0,0,1-.881-2.5,6,6,0,0,1,.5-2.332A6.974,6.974,0,0,1,109.7,10.2a5.812,5.812,0,0,1,1.815-1.316,4.79,4.79,0,0,1,2.044-.469,2.8,2.8,0,0,1,1.752.506,1.611,1.611,0,0,1,.652,1.344,1.2,1.2,0,0,1-.339.86,1.059,1.059,0,0,1-.8.358.8.8,0,0,1-.617-.249.908.908,0,0,1-.235-.651,1.448,1.448,0,0,1,.19-.653,1.572,1.572,0,0,0,.184-.462.313.313,0,0,0-.191-.28,1.076,1.076,0,0,0-.524-.108,2.651,2.651,0,0,0-1.382.423,4.255,4.255,0,0,0-1.23,1.174,7.48,7.48,0,0,0-.991,1.915,6.1,6.1,0,0,0-.342,1.975,2.571,2.571,0,0,0,.555,1.744,1.974,1.974,0,0,0,1.517.718,2.826,2.826,0,0,0,1.483-.549,7.473,7.473,0,0,0,2.172-2.3" transform="translate(-44.068 -3.713)" fill="#fff"/>
      <path id="path11157" d="M118.734,15.025l3.325-12.049a1.4,1.4,0,0,0,.04-.229,1.3,1.3,0,0,0,.016-.212.543.543,0,0,0-.158-.445,2.066,2.066,0,0,0-.9-.114H120.3l.118-.55a11.221,11.221,0,0,0,1.712-.2,9.152,9.152,0,0,0,1.5-.44h.6l-2.3,8.323a21.953,21.953,0,0,1,3.252-2.8,4.759,4.759,0,0,1,2.36-.993.93.93,0,0,1,.683.221.971.971,0,0,1,.223.692,1.8,1.8,0,0,1-.045.35c-.026.143-.062.3-.1.469l-1.68,5.67a3.69,3.69,0,0,0-.078.363,2.214,2.214,0,0,0-.034.385.27.27,0,0,0,.1.195c.06.055.134.154.213.154.165,0,.394-.181.682-.4a6.005,6.005,0,0,0,.916-.916l.342.294a8.61,8.61,0,0,1-1.67,1.647,2.639,2.639,0,0,1-1.484.572,1.056,1.056,0,0,1-.7-.216.724.724,0,0,1-.256-.592,1.519,1.519,0,0,1,.027-.287,2.327,2.327,0,0,1,.091-.333l1.726-5.863c.032-.128.052-.227.064-.293a1.194,1.194,0,0,0,.014-.182.443.443,0,0,0-.128-.345.52.52,0,0,0-.361-.113,2.319,2.319,0,0,0-1.086.463,13.332,13.332,0,0,0-1.663,1.325,9.255,9.255,0,0,0-1.244,1.3,3.756,3.756,0,0,0-.573,1.114l-1.145,4.044c-.131-.02-.593-.035-.728-.044s.062-.01-.077-.01-.28,0-.416.01-.267.024-.408.044" transform="translate(-48.498 -0.616)" fill="#fff"/>
      <path id="path11161" d="M85.156,29.029v.157a.712.712,0,0,0,.03.225c.048.19.2.285.466.285a.822.822,0,0,0,.267-.041.384.384,0,0,0,.276-.4.389.389,0,0,0-.178-.337,2.584,2.584,0,0,0-.3-.163l-.348-.157a1.99,1.99,0,0,1-.344-.188.659.659,0,0,1-.288-.575.615.615,0,0,1,.322-.582,1.387,1.387,0,0,1,.65-.133,1.11,1.11,0,0,1,.727.191.786.786,0,0,1,.178.6v.056H86.14V27.9l-.01-.146q-.044-.328-.425-.32-.482,0-.488.387a.459.459,0,0,0,.3.4c.126.066.266.13.423.2a2.793,2.793,0,0,1,.385.187.7.7,0,0,1,.346.636c0,.513-.345.771-1.021.771a1.229,1.229,0,0,1-.669-.144.615.615,0,0,1-.3-.5l-.007-.226v-.113Z" transform="translate(-34.673 -11.305)" fill="#fff"/>
      <path id="path11165" d="M88.574,28.065a1.584,1.584,0,0,1,.064-.508.62.62,0,0,1,.422-.362,1.559,1.559,0,0,1,.507-.08,1.579,1.579,0,0,1,.506.08.623.623,0,0,1,.419.362,1.593,1.593,0,0,1,.067.508v.943a2.939,2.939,0,0,1-.029.44c-.053.371-.369.56-.949.561a1.064,1.064,0,0,1-.846-.261,1.192,1.192,0,0,1-.161-.74Zm.478.94a1.36,1.36,0,0,0,.052.461.359.359,0,0,0,.184.168.685.685,0,0,0,.28.061.6.6,0,0,0,.25-.052.365.365,0,0,0,.25-.323c.008-.088.012-.192.014-.316v-.942a.9.9,0,0,0-.068-.431.463.463,0,0,0-.445-.2.663.663,0,0,0-.242.042.365.365,0,0,0-.261.327,1.826,1.826,0,0,0-.012.261Z" transform="translate(-36.254 -11.305)" fill="#fff"/>
      <path id="path11169" d="M92.643,27.184h.477v1.878l0,.248q.025.41.477.413c.3,0,.467-.128.5-.387a2.6,2.6,0,0,0,.018-.274V27.184h.478v1.908c0,.156-.007.277-.017.363a.519.519,0,0,1-.159.328,1.4,1.4,0,0,1-1.607,0,.536.536,0,0,1-.156-.333c-.008-.076-.012-.2-.012-.363Z" transform="translate(-37.906 -11.333)" fill="#fff"/>
      <path id="path11173" d="M97.478,27.184h.285a1.892,1.892,0,0,1,.3.026.6.6,0,0,1,.536.675.71.71,0,0,1-.14.473.868.868,0,0,1-.526.209v0a1.166,1.166,0,0,1,.349.074.346.346,0,0,1,.191.245,1.547,1.547,0,0,1,.031.261l.021.331a1.66,1.66,0,0,0,.04.3A1.507,1.507,0,0,0,98.64,30h-.5l-.048-.179a.932.932,0,0,1-.026-.194l-.019-.252-.016-.264a.371.371,0,0,0-.292-.363,1.26,1.26,0,0,0-.249-.023h-.33V30h-.479V27.184Zm-.316.317v.9H97.5a1.8,1.8,0,0,0,.264-.018.4.4,0,0,0,.3-.176.657.657,0,0,0,.054-.312.341.341,0,0,0-.16-.326.937.937,0,0,0-.435-.071Z" transform="translate(-39.546 -11.333)" fill="#fff"/>
      <path id="path11177" d="M101.987,27.9l0-.131c-.012-.225-.145-.337-.4-.335-.228,0-.376.06-.445.177a.356.356,0,0,0-.063.173l0,.231v1.111a.859.859,0,0,0,.058.388.452.452,0,0,0,.409.182.384.384,0,0,0,.429-.36l.02-.181v-.1h.478v.1l0,.176a.675.675,0,0,1-.216.484.665.665,0,0,1-.278.144,1.542,1.542,0,0,1-.413.052,1.677,1.677,0,0,1-.367-.033.7.7,0,0,1-.593-.789V28.067a1.986,1.986,0,0,1,.023-.34.633.633,0,0,1,.128-.32,1.009,1.009,0,0,1,.819-.29c.551,0,.848.178.89.523a1.933,1.933,0,0,1,.012.222v.109h-.478Z" transform="translate(-41.134 -11.305)" fill="#fff"/>
      <path id="path11181" d="M104.446,27.184h1.562V27.5h-1.085v.892h1.018v.317h-1.018v.971h1.115V30h-1.593Z" transform="translate(-42.698 -11.333)" fill="#fff"/>
      <path id="path11193" d="M109.212,28.065a1.506,1.506,0,0,1,.064-.508.616.616,0,0,1,.421-.362,1.559,1.559,0,0,1,.507-.08,1.593,1.593,0,0,1,.508.08.63.63,0,0,1,.419.362,1.6,1.6,0,0,1,.066.508v.943a3.225,3.225,0,0,1-.027.44c-.056.371-.371.56-.952.561a1.06,1.06,0,0,1-.845-.261,1.194,1.194,0,0,1-.16-.74Zm.477.94a1.349,1.349,0,0,0,.053.461.353.353,0,0,0,.183.168.678.678,0,0,0,.279.061.61.61,0,0,0,.251-.052.366.366,0,0,0,.248-.323c.009-.088.014-.192.015-.316v-.942a.9.9,0,0,0-.068-.431.465.465,0,0,0-.446-.2.658.658,0,0,0-.241.042.362.362,0,0,0-.26.327,1.576,1.576,0,0,0-.014.261Z" transform="translate(-44.633 -11.305)" fill="#fff"/>
      <path id="path11197" d="M114.807,27.184V27.5h-1.044v.889h1.005v.316h-1.005V30h-.479V27.184Z" transform="translate(-46.286 -11.333)" fill="#fff"/>
      <path id="path11209" d="M118.2,29.029v.157a.65.65,0,0,0,.029.225c.048.19.2.285.465.285a.833.833,0,0,0,.269-.041.421.421,0,0,0,.1-.739,2.556,2.556,0,0,0-.3-.163l-.348-.157a2.125,2.125,0,0,1-.345-.188.663.663,0,0,1-.286-.575.616.616,0,0,1,.323-.582,1.379,1.379,0,0,1,.649-.133,1.118,1.118,0,0,1,.729.191.786.786,0,0,1,.176.6v.056h-.477V27.9l-.009-.146q-.045-.328-.425-.32c-.323,0-.483.129-.488.387a.459.459,0,0,0,.3.4c.125.066.266.13.423.2a2.922,2.922,0,0,1,.386.187.7.7,0,0,1,.345.636c-.005.513-.345.771-1.021.771a1.222,1.222,0,0,1-.669-.144.607.607,0,0,1-.3-.5l-.008-.226v-.113Z" transform="translate(-48.086 -11.305)" fill="#fff"/>
      <path id="path11213" d="M121.644,27.184h.476v1.878l0,.248c.017.273.178.411.477.413s.467-.128.5-.387c.01-.09.015-.181.017-.274V27.184h.478v1.908a3.315,3.315,0,0,1-.018.363.508.508,0,0,1-.157.328,1.408,1.408,0,0,1-1.609,0,.543.543,0,0,1-.154-.333c-.007-.076-.011-.2-.011-.363Z" transform="translate(-49.68 -11.333)" fill="#fff"/>
      <path id="path11217" d="M127.105,27.9l0-.131c-.011-.225-.147-.337-.4-.335a.48.48,0,0,0-.444.177.374.374,0,0,0-.062.173l0,.231v1.111a.841.841,0,0,0,.06.388.446.446,0,0,0,.408.182.386.386,0,0,0,.43-.36l.019-.181v-.1h.478v.1l0,.176a.641.641,0,0,1-.494.627,1.55,1.55,0,0,1-.413.052,1.664,1.664,0,0,1-.367-.033.7.7,0,0,1-.592-.789V28.067a1.935,1.935,0,0,1,.021-.34.607.607,0,0,1,.128-.32,1.011,1.011,0,0,1,.82-.29c.551,0,.848.178.889.523a2.07,2.07,0,0,1,.012.222v.109h-.478Z" transform="translate(-51.331 -11.305)" fill="#fff"/>
      <path id="path11221" d="M130.987,27.9l0-.131c-.012-.225-.144-.337-.4-.335a.479.479,0,0,0-.445.177.335.335,0,0,0-.061.173l-.005.231v1.111a.863.863,0,0,0,.059.388.451.451,0,0,0,.409.182.383.383,0,0,0,.429-.36l.02-.181v-.1h.478v.1l0,.176a.682.682,0,0,1-.216.484.666.666,0,0,1-.279.144,1.536,1.536,0,0,1-.413.052,1.668,1.668,0,0,1-.366-.033.7.7,0,0,1-.593-.789V28.067a1.876,1.876,0,0,1,.023-.34.621.621,0,0,1,.127-.32,1.013,1.013,0,0,1,.82-.29c.551,0,.848.178.889.523a1.807,1.807,0,0,1,.012.222v.109h-.478Z" transform="translate(-52.906 -11.305)" fill="#fff"/>
      <path id="path11225" d="M133.444,27.184h1.562V27.5h-1.085v.892h1.017v.317h-1.017v.971h1.116V30h-1.593Z" transform="translate(-54.47 -11.333)" fill="#fff"/>
      <path id="path11237" d="M136.981,29.029v.157a.7.7,0,0,0,.03.225q.071.285.465.285a.833.833,0,0,0,.269-.041.388.388,0,0,0,.278-.4.394.394,0,0,0-.179-.337,2.594,2.594,0,0,0-.3-.163L137.2,28.6a2.019,2.019,0,0,1-.345-.188.662.662,0,0,1-.287-.575.613.613,0,0,1,.323-.582,1.376,1.376,0,0,1,.649-.133,1.121,1.121,0,0,1,.729.191.791.791,0,0,1,.176.6v.056h-.478V27.9l-.009-.146q-.045-.328-.425-.32c-.321,0-.484.129-.487.387a.459.459,0,0,0,.3.4c.125.066.267.13.425.2a2.974,2.974,0,0,1,.385.187.7.7,0,0,1,.346.636c-.006.513-.345.771-1.022.771a1.221,1.221,0,0,1-.669-.144.606.606,0,0,1-.3-.5l-.008-.226v-.113Z" transform="translate(-55.712 -11.305)" fill="#fff"/>
      <path id="path11241" d="M140.707,29.029v.157a.7.7,0,0,0,.028.225c.048.19.2.285.465.285a.817.817,0,0,0,.267-.041.387.387,0,0,0,.279-.4.392.392,0,0,0-.179-.337,2.555,2.555,0,0,0-.3-.163l-.346-.157a2.043,2.043,0,0,1-.345-.188.66.66,0,0,1-.288-.575.617.617,0,0,1,.323-.582,1.38,1.38,0,0,1,.65-.133,1.112,1.112,0,0,1,.727.191.788.788,0,0,1,.178.6v.056h-.478V27.9l-.011-.146c-.029-.219-.171-.326-.425-.32-.32,0-.483.129-.486.387a.456.456,0,0,0,.3.4c.124.066.266.13.422.2a2.807,2.807,0,0,1,.384.187.7.7,0,0,1,.347.636c-.005.513-.345.771-1.021.771a1.226,1.226,0,0,1-.669-.144.6.6,0,0,1-.3-.5l-.009-.226v-.113Z" transform="translate(-57.224 -11.305)" fill="#fff"/>
    </g>
  </g>
</svg>
