<svg xmlns="http://www.w3.org/2000/svg" xmlns:xlink="http://www.w3.org/1999/xlink" width="111.084" height="28.431" viewBox="0 0 111.084 28.431">
  <defs>
    <clipPath id="clip-path">
      <rect id="Rectángulo_29" data-name="Rectángulo 29" width="111.084" height="28.417" transform="translate(3.689 27.948)"/>
    </clipPath>
    <clipPath id="clip-path-3">
      <path id="Trazado_4168" data-name="Trazado 4168" d="M3.689,56.365V27.948H114.773V56.365"/>
    </clipPath>
  </defs>
  <g id="logo-paysafecard" transform="translate(-3.689 -27.948)">
    <g id="Grupo_64" data-name="Grupo 64" clip-path="url(#clip-path)">
      <path id="Trazado_4162" data-name="Trazado 4162" d="M18.145,35.865a3.006,3.006,0,0,1,.567-1.929,2.279,2.279,0,0,1,.724-.468,2.026,2.026,0,0,1,.88-.2h3.447c1.518.014,2.3.851,2.327,2.5v5.093a2.125,2.125,0,0,1-.681,1.518,2.185,2.185,0,0,1-1.575.7H20.571v3.674H18.159Zm5.533.482q-.021-.575-.553-.6H21.238a.657.657,0,0,0-.681.738v3.377a.683.683,0,0,0,.766.724h1.731a.56.56,0,0,0,.44-.2.466.466,0,0,0,.184-.4Z" fill="#999"/>
    </g>
    <g id="Grupo_65" data-name="Grupo 65" clip-path="url(#clip-path)">
      <path id="Trazado_4163" data-name="Trazado 4163" d="M33.595,36.29c.014-.369-.2-.553-.653-.539H28.076V33.269h5.476c1.589.028,2.412.794,2.426,2.312v5.192a2.413,2.413,0,0,1-.61,1.632,2.067,2.067,0,0,1-1.575.667H30.5c-1.617-.014-2.426-.752-2.454-2.213v-2a2.094,2.094,0,0,1,2.341-2.327h3.22Zm-3.135,3.816a.4.4,0,0,0,.2.34.639.639,0,0,0,.44.156h1.858c.426,0,.638-.156.653-.5v-.7c0-.383-.227-.567-.667-.567H31.1a.82.82,0,0,0-.5.113.784.784,0,0,0-.128.525v.624Z" fill="#999"/>
    </g>
    <path id="Trazado_4164" data-name="Trazado 4164" d="M42.774,44.278a.862.862,0,0,0,.5-.2.518.518,0,0,0,.2-.4V43.1H40.376a2.584,2.584,0,0,1-.965-.156,2.406,2.406,0,0,1-.766-.511,2.6,2.6,0,0,1-.525-.823,2.5,2.5,0,0,1-.17-.993V33.283h2.412v6.54c0,.525.213.78.653.78h1.7a.779.779,0,0,0,.525-.2.518.518,0,0,0,.213-.411v-6.71h2.4v10.81a3.045,3.045,0,0,1-.61,1.929,2.087,2.087,0,0,1-1.646.752H37.95V44.292Z" fill="#999"/>
    <path id="Trazado_4165" data-name="Trazado 4165" d="M47.753,40.6h4.313c.4-.014.6-.17.61-.468v-.227a.4.4,0,0,0-.057-.213c-.1-.184-.213-.284-.355-.284H50.137a2.369,2.369,0,0,1-1.632-.653,1.879,1.879,0,0,1-.709-1.433V35.482c.028-1.447.809-2.185,2.355-2.2h4.994v2.469H50.917c-.5,0-.752.156-.752.454v.241q0,.468.766.468h2.128a1.971,1.971,0,0,1,1.447.653,2.124,2.124,0,0,1,.624,1.518V40.9a2.354,2.354,0,0,1-.7,1.518,2.044,2.044,0,0,1-.667.511,2.9,2.9,0,0,1-.951.128H47.768V40.6Z" fill="#999"/>
    <path id="Trazado_4166" data-name="Trazado 4166" d="M62.409,36.29c.014-.369-.213-.553-.653-.539H56.89V33.269h5.476c1.589.028,2.412.794,2.426,2.312v5.192a2.413,2.413,0,0,1-.61,1.632,2.067,2.067,0,0,1-1.575.667h-3.32c-1.617-.014-2.426-.752-2.454-2.213v-2a2.088,2.088,0,0,1,2.341-2.327h3.22Zm-3.135,3.816a.4.4,0,0,0,.2.34.639.639,0,0,0,.44.156H61.77c.426,0,.638-.156.653-.5v-.7c0-.383-.227-.567-.667-.567H59.912a.82.82,0,0,0-.5.113.784.784,0,0,0-.128.525v.624Z" fill="#999"/>
    <g id="Grupo_66" data-name="Grupo 66" clip-path="url(#clip-path-3)">
      <path id="Trazado_4167" data-name="Trazado 4167" d="M66.778,31.864a2.047,2.047,0,0,1,.752-1.617,2.765,2.765,0,0,1,1.844-.638h1.532v2.4H69.97c-.511.014-.766.255-.78.724v.525h1.717v2.5H69.19v7.32H66.778Z" fill="#999"/>
    </g>
    <g id="Grupo_67" data-name="Grupo 67" clip-path="url(#clip-path-3)">
      <path id="Trazado_4169" data-name="Trazado 4169" d="M74.78,39.752v.156a.689.689,0,0,0,.156.468.361.361,0,0,0,.312.227h4.965v2.483H74.936a3.362,3.362,0,0,1-1.121-.142,2.205,2.205,0,0,1-.78-.468,1.973,1.973,0,0,1-.539-.809,3.608,3.608,0,0,1-.142-1.149l-.014-4.965a2.086,2.086,0,0,1,2.355-2.284h3.263a2.113,2.113,0,0,1,2.3,2.369V37.6Zm2.993-3.5v-.057a.377.377,0,0,0-.156-.312.667.667,0,0,0-.411-.113H75.517a.743.743,0,0,0-.525.184.528.528,0,0,0-.255.454V37.4Z" fill="#999"/>
    </g>
    <g id="Grupo_68" data-name="Grupo 68" clip-path="url(#clip-path-3)">
      <path id="Trazado_4171" data-name="Trazado 4171" d="M85.349,43.086a4.492,4.492,0,0,1-1.007-.1,2.09,2.09,0,0,1-.951-.454,2.2,2.2,0,0,1-.681-.965,3.5,3.5,0,0,1-.2-1.192V35.737a3.037,3.037,0,0,1,.113-.993,2.12,2.12,0,0,1,.511-.837,2.4,2.4,0,0,1,.908-.582,4.536,4.536,0,0,1,1.036-.113h3.7v.582H85.165a2.49,2.49,0,0,0-1.5.4,1.764,1.764,0,0,0-.567,1.475v4.625a3.088,3.088,0,0,0,.142.951,1.915,1.915,0,0,0,.511.794,2.094,2.094,0,0,0,.78.383,4.124,4.124,0,0,0,.851.085h3.447v.582Z" fill="#999"/>
    </g>
    <g id="Grupo_69" data-name="Grupo 69" clip-path="url(#clip-path-3)">
      <path id="Trazado_4173" data-name="Trazado 4173" d="M98.883,40.4a6.947,6.947,0,0,1-.071.993,2.461,2.461,0,0,1-.482.908,2.416,2.416,0,0,1-1.887.78H93.549a2.569,2.569,0,0,1-1.83-.667A2.363,2.363,0,0,1,91,40.575v-1.49A2.3,2.3,0,0,1,93.521,36.5h4.8v-.653a2.274,2.274,0,0,0-.468-1.419,1.365,1.365,0,0,0-.7-.525,3.56,3.56,0,0,0-.908-.1H91v-.582h4.98a6.591,6.591,0,0,1,1.234.1,1.7,1.7,0,0,1,.525.213,1.569,1.569,0,0,1,.468.454,3.1,3.1,0,0,1,.653,1.986V40.4ZM98.3,37.071H93.45a1.868,1.868,0,0,0-1.362.539,2,2,0,0,0-.511,1.447v1.475a3.287,3.287,0,0,0,.085.78,1.258,1.258,0,0,0,.454.667,2.1,2.1,0,0,0,1.39.525h2.937a1.687,1.687,0,0,0,1.844-1.944Z" fill="#999"/>
    </g>
    <g id="Grupo_70" data-name="Grupo 70" clip-path="url(#clip-path-3)">
      <path id="Trazado_4175" data-name="Trazado 4175" d="M104.3,33.793c-1.348.028-2.015.766-1.986,2.213V43.1h-.582V36.021c-.028-1.858.865-2.795,2.653-2.795h.638v.582H104.3Z" fill="#999"/>
    </g>
    <g id="Grupo_71" data-name="Grupo 71" clip-path="url(#clip-path-3)">
      <path id="Trazado_4177" data-name="Trazado 4177" d="M114.659,40.334c-.057,1.873-1.036,2.781-2.965,2.752h-2.142a6.375,6.375,0,0,1-1.22-.113,2.427,2.427,0,0,1-1.064-.667,2.136,2.136,0,0,1-.482-.965,3.7,3.7,0,0,1-.113-1.078V36.035a2.526,2.526,0,0,1,2.88-2.823h4.54V30.006h.582Zm-.567-6.54h-4.582a3.5,3.5,0,0,0-.894.113,1.424,1.424,0,0,0-.794.511,1.648,1.648,0,0,0-.454.752,2.526,2.526,0,0,0-.113.908v4.5a1.649,1.649,0,0,0,.653,1.532,2.335,2.335,0,0,0,.724.284,3.52,3.52,0,0,0,.894.1h2a2.948,2.948,0,0,0,1.83-.525,1.964,1.964,0,0,0,.724-1.688V33.793Z" fill="#999"/>
    </g>
    <g id="Grupo_72" data-name="Grupo 72" clip-path="url(#clip-path-3)">
      <path id="Trazado_4179" data-name="Trazado 4179" d="M4.724,32.9a2.939,2.939,0,0,1,.567-.184,3.667,3.667,0,0,1,7.179.014,2.676,2.676,0,0,1,1.348.653,4.945,4.945,0,1,0-9.86-.709c-.014.227-.014.468-.014.709a3.292,3.292,0,0,1,.78-.482" fill="#666"/>
    </g>
    <g id="Grupo_73" data-name="Grupo 73" clip-path="url(#clip-path-3)">
      <path id="Trazado_4181" data-name="Trazado 4181" d="M11.761,33.269h-5.9a2.252,2.252,0,0,0-.88.2,2.278,2.278,0,0,0-.724.468,3.006,3.006,0,0,0-.567,1.929v4.611A3.006,3.006,0,0,0,4.256,42.4a2.278,2.278,0,0,0,.724.468,2.252,2.252,0,0,0,.88.2h5.9c1.518-.014,2.3-.851,2.327-2.5V35.765c-.028-1.646-.794-2.483-2.327-2.5" fill="#666"/>
    </g>
    <g id="Grupo_74" data-name="Grupo 74" clip-path="url(#clip-path-3)">
      <path id="Trazado_4183" data-name="Trazado 4183" d="M47.867,56.365V51.4c0-.085.014-.156.014-.227a.925.925,0,0,1,.851-.951.636.636,0,0,1,.156-.014h1.617a1.1,1.1,0,0,1,.227.028,1,1,0,0,1,.865,1.121v2.327a.943.943,0,0,1-.213.567,1.28,1.28,0,0,1-.128.142,1.075,1.075,0,0,1-.724.312H48.988v1.674a7.391,7.391,0,0,0-1.121-.014m1.149-3.093a.292.292,0,0,0,.284.27h.936a.33.33,0,0,0,.184-.1.393.393,0,0,0,.071-.17v-1.7c-.028-.128-.071-.2-.213-.227a.052.052,0,0,0-.043-.014h-.894a.278.278,0,0,0-.284.184.462.462,0,0,0-.043.142V53.2a.064.064,0,0,0,0,.071" fill="#999"/>
    </g>
    <g id="Grupo_75" data-name="Grupo 75" clip-path="url(#clip-path-3)">
      <path id="Trazado_4185" data-name="Trazado 4185" d="M52.393,53.669v-.908A.986.986,0,0,1,53.485,51.7H55l-.014-.241c0-.113-.071-.142-.241-.17H52.407V50.208h2.582c.071,0,.128.014.2.014a.9.9,0,0,1,.922.837.937.937,0,0,1,.014.2v2.369a1.074,1.074,0,0,1-.014.213,1.007,1.007,0,0,1-1.007.851H53.542a1,1,0,0,1-1.135-.809c0-.085-.014-.213-.014-.213m1.192-.2a.25.25,0,0,0,.17.1.107.107,0,0,0,.057.014h.894a.279.279,0,0,0,.227-.085.262.262,0,0,0,.071-.17v-.312c0-.142-.014-.156-.142-.227-.028-.028-.071-.028-.156-.028h-.951l-.043.014c-.113.014-.156.071-.17.213v.355c-.014.014,0,.085.043.128" fill="#999"/>
    </g>
    <g id="Grupo_76" data-name="Grupo 76" clip-path="url(#clip-path-3)">
      <path id="Trazado_4187" data-name="Trazado 4187" d="M56.9,56.365V55.23h2.27a.106.106,0,0,0,.071-.014.3.3,0,0,0,.255-.27v-.27H58.039a1.074,1.074,0,0,1-1.121-1.149V50.179h1.135v2.993c0,.241.113.355.312.355h.88a.332.332,0,0,0,.284-.27V50.194h1.135v4.937a1.22,1.22,0,0,1-.014.227,1.037,1.037,0,0,1-.823.979,1.241,1.241,0,0,1-.227.028Z" fill="#999"/>
    </g>
    <g id="Grupo_77" data-name="Grupo 77" clip-path="url(#clip-path-3)">
      <path id="Trazado_4189" data-name="Trazado 4189" d="M62.536,53.513V51.258c0-.638.255-.951.766-1.036a.809.809,0,0,1,.184-.014h2.057v1.135H64.012c-.241,0-.312.028-.34.184v1.7a.305.305,0,0,0,.312.312h1.561v1.135h-1.83c-.809,0-1.178-.369-1.178-1.163" fill="#999"/>
    </g>
    <g id="Grupo_78" data-name="Grupo 78" clip-path="url(#clip-path-3)">
      <path id="Trazado_4191" data-name="Trazado 4191" d="M66.211,53.669v-.908A.986.986,0,0,1,67.3,51.7h1.518l-.014-.241c0-.113-.071-.142-.241-.17H66.225V50.208h2.582c.071,0,.128.014.2.014a1.01,1.01,0,0,1,.951,1.036v2.369a1.074,1.074,0,0,1-.014.213,1.007,1.007,0,0,1-1.007.851H67.374a1,1,0,0,1-1.135-.809c-.014-.085-.028-.213-.028-.213m1.192-.2a.25.25,0,0,0,.17.1.107.107,0,0,0,.057.014h.894a.279.279,0,0,0,.227-.085.262.262,0,0,0,.071-.17v-.312c0-.142-.014-.156-.142-.227-.028-.028-.071-.028-.156-.028h-.951l-.057.014c-.113.014-.156.071-.17.213v.355a.231.231,0,0,0,.057.128" fill="#999"/>
    </g>
    <path id="Trazado_4193" data-name="Trazado 4193" d="M70.609,54.677V53.542h2.029c.128-.028.2-.071.227-.17.014-.014.014-.028.014-.057V53.23a.361.361,0,0,0-.028-.1A.226.226,0,0,0,72.68,53H71.7a.873.873,0,0,1-.482-.128.894.894,0,0,1-.567-.823v-.837a1.563,1.563,0,0,1,.028-.255.981.981,0,0,1,1.078-.752h2.284l.014,1.135H72c-.028.014-.057.014-.085.028s-.014.014-.028.028c-.071.071-.1.113-.1.156v.113a.231.231,0,0,0,.057.128c.028.043.085.071.213.085h1.007a.9.9,0,0,1,.709.34,1.093,1.093,0,0,1,.27.653l-.014.823a1.094,1.094,0,0,1-.17.539.951.951,0,0,1-.894.454H70.609Z" fill="#999"/>
    <path id="Trazado_4194" data-name="Trazado 4194" d="M74.765,54.677V48.52H75.9v1.674h1.546c.071,0,.128.014.184.014a.979.979,0,0,1,.851.823v3.632H77.362V51.57l-.014-.043c0-.128-.071-.184-.227-.213h-.894a.306.306,0,0,0-.255.085.29.29,0,0,0-.071.128v3.135H74.766Z" fill="#999"/>
    <path id="Trazado_4195" data-name="Trazado 4195" d="M79.078,54a.77.77,0,0,1,.2-.511.7.7,0,0,1,1.007,0,.711.711,0,0,1,0,.993A.7.7,0,0,1,79.078,54" fill="#999"/>
    <path id="Trazado_4196" data-name="Trazado 4196" d="M83.491,56.365V51.4c0-.085.014-.156.014-.227a.925.925,0,0,1,.851-.951.582.582,0,0,1,.156-.014h1.632a1.1,1.1,0,0,1,.227.028,1,1,0,0,1,.865,1.121v2.327a.943.943,0,0,1-.213.567,1.279,1.279,0,0,1-.128.142,1.075,1.075,0,0,1-.724.312H84.625v1.674a7.579,7.579,0,0,0-1.135-.014m1.149-3.093a.292.292,0,0,0,.284.27h.936a.33.33,0,0,0,.184-.1.393.393,0,0,0,.071-.17v-1.7a.256.256,0,0,0-.213-.227.052.052,0,0,0-.043-.014h-.894a.278.278,0,0,0-.284.184.462.462,0,0,0-.043.142v1.617" fill="#999"/>
    <path id="Trazado_4197" data-name="Trazado 4197" d="M88.016,53.669v-.908A.986.986,0,0,1,89.109,51.7h1.518v-.241c0-.113-.085-.142-.241-.17H88.045V50.208h2.582c.071,0,.128.014.2.014a1.01,1.01,0,0,1,.951,1.036v2.369a1.074,1.074,0,0,1-.014.213,1.011,1.011,0,0,1-1.021.851H89.179a1,1,0,0,1-1.135-.809,1.25,1.25,0,0,0-.028-.213m1.192-.2a.25.25,0,0,0,.17.1.107.107,0,0,0,.057.014h.894a.279.279,0,0,0,.227-.085.262.262,0,0,0,.071-.17v-.312c0-.142-.014-.156-.142-.227-.028-.028-.071-.028-.156-.028h-.951l-.057.014c-.113.014-.156.071-.17.213v.355a.231.231,0,0,0,.057.128" fill="#999"/>
    <path id="Trazado_4198" data-name="Trazado 4198" d="M92.542,56.365V55.23h2.27a.128.128,0,0,0,.071-.014.3.3,0,0,0,.255-.27v-.27H93.677a1.023,1.023,0,0,1-.979-.511.986.986,0,0,1-.156-.638V50.179h1.135v2.993c0,.241.113.355.312.355h.88a.332.332,0,0,0,.284-.27V50.194h1.135v4.937a1.221,1.221,0,0,1-.014.227,1.037,1.037,0,0,1-.823.979,1.241,1.241,0,0,1-.227.028Z" fill="#999"/>
    <path id="Trazado_4199" data-name="Trazado 4199" d="M98.117,54.677V53.542h2.015c.128-.028.2-.071.227-.17.014-.014.014-.028.014-.057V53.23a.361.361,0,0,0-.028-.1.226.226,0,0,0-.17-.128H99.2a.958.958,0,0,1-.5-.128.894.894,0,0,1-.567-.823v-.837a1.563,1.563,0,0,1,.028-.255.984.984,0,0,1,1.064-.752h2.284l.014,1.135H99.479c-.028.014-.057.014-.085.028s-.014.014-.028.028c-.071.071-.1.113-.1.156v.113a.231.231,0,0,0,.057.128c.028.043.085.071.213.085h1.007a.9.9,0,0,1,.709.34,1.093,1.093,0,0,1,.27.653l-.014.823a.967.967,0,0,1-.17.539.951.951,0,0,1-.894.454H98.117Z" fill="#999"/>
    <path id="Trazado_4200" data-name="Trazado 4200" d="M102.26,53.669v-.908a.986.986,0,0,1,1.092-1.064h1.518l-.014-.241c0-.113-.071-.142-.241-.17h-2.341V50.208h2.582c.071,0,.128.014.2.014a1.01,1.01,0,0,1,.951,1.036v2.369a1.074,1.074,0,0,1-.014.213,1.007,1.007,0,0,1-1.007.851h-1.561a1,1,0,0,1-1.135-.809,1.25,1.25,0,0,0-.028-.213m1.192-.2a.25.25,0,0,0,.17.1.107.107,0,0,0,.057.014h.894a.3.3,0,0,0,.227-.085.262.262,0,0,0,.071-.17v-.312c0-.142,0-.156-.142-.227-.028-.028-.071-.028-.156-.028h-.951l-.043.014c-.113.014-.156.071-.17.213v.355c-.014.014,0,.085.043.128" fill="#999"/>
    <path id="Trazado_4201" data-name="Trazado 4201" d="M106.786,54.677V49.555a1.088,1.088,0,0,1,1.206-1.021h.724v1.092h-.426c-.014,0-.043.014-.057.014a.308.308,0,0,0-.312.326v.241h.794v1.135h-.794v3.348h-1.135Z" fill="#999"/>
    <path id="Trazado_4202" data-name="Trazado 4202" d="M109.027,51.243a1.241,1.241,0,0,1,.028-.227.991.991,0,0,1,1.092-.823h1.546c.071,0,.128.014.2.014a.932.932,0,0,1,.865.88v1.078l-2.568.965V53.2c0,.184.085.312.227.312h2.341v1.135h-2.5a1.1,1.1,0,0,1-.667-.128,1.015,1.015,0,0,1-.553-1.036V51.243Zm2.568.383v-.043a.233.233,0,0,0-.213-.17h-.851a.259.259,0,0,0-.128.028.28.28,0,0,0-.213.156.267.267,0,0,0-.028.113v.454Z" fill="#999"/>
    <path id="Trazado_4203" data-name="Trazado 4203" d="M113.283,54a.7.7,0,0,1,1.206-.511.7.7,0,0,1-.014.993.725.725,0,0,1-.993.014.862.862,0,0,1-.2-.5" fill="#999"/>
  </g>
</svg>
