<svg xmlns="http://www.w3.org/2000/svg" width="121.532" height="39" viewBox="0 0 121.532 39">
  <g id="logo-jugar-bien" transform="translate(-9.557 -30.242)">
    <g id="jugarBIEN" transform="translate(9.557 43.606)">
      <g id="Grupo_85" data-name="Grupo 85" transform="translate(0 0)">
        <path id="Trazado_4234" data-name="Trazado 4234" d="M9.557,94.131h.437a4.316,4.316,0,0,0,3.187-.911q.854-.912.853-3.945V75.317l1.707-.2V89.275q0,3.632-1.2,5.01t-4.186,1.378h-.292Z" transform="translate(-9.557 -74.369)" fill="#fff"/>
        <path id="Trazado_4235" data-name="Trazado 4235" d="M47.773,87.86a6.429,6.429,0,0,1-2.144,2.049,5.455,5.455,0,0,1-2.713.678,4.959,4.959,0,0,1-3.857-1.509,6.055,6.055,0,0,1-1.378-4.237V75.317l1.677-.2v8.9a6.331,6.331,0,0,0,.984,3.879A3.488,3.488,0,0,0,43.3,89.172a4.3,4.3,0,0,0,3.143-1.334,4.4,4.4,0,0,0,1.334-3.231v-9.29l1.677-.2V90.194l-1.677.2Z" transform="translate(-28.838 -74.369)" fill="#fff"/>
        <path id="Trazado_4236" data-name="Trazado 4236" d="M89.611,83.437A6.085,6.085,0,0,1,92.192,85.5a5.1,5.1,0,0,1,.919,2.982,5.157,5.157,0,0,1-1.932,4.084,7.211,7.211,0,0,1-4.849,1.648,7.8,7.8,0,0,1-3.814-.948,8.23,8.23,0,0,1-2.91-2.727l1.517-.977A6.7,6.7,0,0,0,83.4,91.8a5.758,5.758,0,0,0,2.932.766A5.51,5.51,0,0,0,89.9,91.379a3.6,3.6,0,0,0,1.473-2.9,3.9,3.9,0,0,0-1.473-3.07,5.308,5.308,0,0,0-3.573-1.261,7.489,7.489,0,0,0-1.8.233,11.387,11.387,0,0,0-1.991.715l.715-1.881a5.727,5.727,0,0,1-2.085-1.947,4.945,4.945,0,0,1,1.028-6.366,6.37,6.37,0,0,1,4.339-1.531q.379,0,.846.029t.977.087q.116.015.234.022t.364.007a11.135,11.135,0,0,0,1.808-.168q1.006-.168,2.756-.606L93.14,73.9a1.282,1.282,0,0,1-.394.649,1.11,1.11,0,0,1-.656.168q-.248,0-1.342-.161l-.35-.044a5,5,0,0,1,1.859,1.758,4.6,4.6,0,0,1,.634,2.414,4.79,4.79,0,0,1-.853,2.793A5.856,5.856,0,0,1,89.611,83.437Zm-7.438-4.754a3.553,3.553,0,0,0,1.291,2.778,5.132,5.132,0,0,0,6.417.007,3.562,3.562,0,0,0,1.276-2.786,3.34,3.34,0,0,0-1.3-2.64,4.768,4.768,0,0,0-3.179-1.094,4.844,4.844,0,0,0-3.194,1.087A3.32,3.32,0,0,0,82.173,78.683Z" transform="translate(-57.582 -72.747)" fill="#fff"/>
        <path id="Trazado_4237" data-name="Trazado 4237" d="M137.492,88.292a5.427,5.427,0,0,1-1.808,1.385,5.128,5.128,0,0,1-2.188.467,5.469,5.469,0,0,1,0-10.938,5.451,5.451,0,0,1,2.173.445,5.369,5.369,0,0,1,1.823,1.291V79.06a3,3,0,0,0-.78-2.282,3.415,3.415,0,0,0-2.414-.737,8.752,8.752,0,0,0-2.086.277,17.349,17.349,0,0,0-2.567.89l.656-1.94a14.392,14.392,0,0,1,2.144-.569,11.439,11.439,0,0,1,2.027-.19,4.855,4.855,0,0,1,3.566,1.138,4.924,4.924,0,0,1,1.13,3.588V89.78l-1.677.364Zm-7.73-3.617a3.706,3.706,0,0,0,1.116,2.749,3.851,3.851,0,0,0,2.822,1.1,3.676,3.676,0,0,0,2.749-1.065,4.233,4.233,0,0,0,0-5.564,3.626,3.626,0,0,0-2.72-1.072,3.9,3.9,0,0,0-2.851,1.094A3.7,3.7,0,0,0,129.763,84.675Z" transform="translate(-90.779 -73.956)" fill="#fff"/>
        <path id="Trazado_4238" data-name="Trazado 4238" d="M173.154,89.794V74.713l1.663-.2v3.223a6.849,6.849,0,0,1,2.21-2.625,5.307,5.307,0,0,1,3.026-.875h.408l-.685,1.648a4.663,4.663,0,0,0-3.748,2.217,11.406,11.406,0,0,0-1.21,5.878V89.59Z" transform="translate(-121.718 -73.765)" fill="#fff"/>
        <path id="Trazado_4239" data-name="Trazado 4239" d="M202.84,89.827V74.12h7.3a4.843,4.843,0,0,1,3.338,1.1,3.771,3.771,0,0,1,1.238,2.968,3.7,3.7,0,0,1-.509,1.962,4.581,4.581,0,0,1-1.581,1.487,4.161,4.161,0,0,1,1.852,1.492,4.457,4.457,0,0,1-.763,5.477,5.317,5.317,0,0,1-3.664,1.221Zm4.875-6.61v2.962h.884a1.476,1.476,0,0,0,1.083-.381,1.46,1.46,0,0,0,.387-1.089,1.49,1.49,0,0,0-.392-1.094,1.445,1.445,0,0,0-1.078-.4Zm.022-5.571v2.631h.763a1.353,1.353,0,0,0,.984-.365,1.266,1.266,0,0,0,.376-.951A1.288,1.288,0,0,0,209.5,78a1.364,1.364,0,0,0-1-.354Z" transform="translate(-142.07 -73.688)" fill="#fff"/>
        <path id="Trazado_4240" data-name="Trazado 4240" d="M246.754,89.86V74.076l4.974-.343v15.7Z" transform="translate(-172.177 -73.423)" fill="#fff"/>
        <path id="Trazado_4241" data-name="Trazado 4241" d="M269.572,89.827V74.12h8.721l.929,4.189h-4.665v1.448h2.962v4.068h-2.962v1.57h4.963l-.973,4.433Z" transform="translate(-187.821 -73.688)" fill="#fff"/>
      </g>
    </g>
    <g id="Forma_1_copia_2_Imagen" data-name="Forma 1 copia 2 Imagen" transform="translate(102.803 30.242)">
      <path id="Trazado_4242" data-name="Trazado 4242" d="M315.507,81.466v0l0-.008a12.415,12.415,0,0,1-4.572-7.343h-4.8V90.081l4.808-.343V82.266l4.565,7.561h4.808V83.744A12.362,12.362,0,0,1,315.507,81.466Z" transform="translate(-306.134 -60.324)" fill="#fff"/>
      <circle id="Elipse_696" data-name="Elipse 696" cx="11.319" cy="11.319" r="11.319" transform="translate(5.649)" fill="#e4c80c"/>
    </g>
    <g id="Forma_2" data-name="Forma 2" transform="translate(112.453 43.277)">
      <path id="Forma_2-2" data-name="Forma 2" d="M.634,0A.634.634,0,1,1,0,.634.634.634,0,0,1,.634,0Z" transform="translate(0 0)" fill="#fff" fill-rule="evenodd"/>
    </g>
    <g id="es" transform="translate(114.484 38.716)">
      <g id="Grupo_86" data-name="Grupo 86" transform="translate(0 0)">
        <path id="Trazado_4244" data-name="Trazado 4244" d="M348.514,62.372a4.3,4.3,0,0,1-1.105.611,3.331,3.331,0,0,1-1.133.2,2.905,2.905,0,0,1-2.139-.848,2.857,2.857,0,0,1-.851-2.108,2.82,2.82,0,0,1,.857-2.1,2.924,2.924,0,0,1,2.133-.84,2.782,2.782,0,0,1,1.412.348,2.384,2.384,0,0,1,.942,1.006L344.2,61.25a2.328,2.328,0,0,0,.857.939,2.282,2.282,0,0,0,1.216.332,2.687,2.687,0,0,0,1.061-.224,5.391,5.391,0,0,0,1.177-.738Zm-4.538-1.664,3.725-2.216a1.488,1.488,0,0,0-.6-.442,2.156,2.156,0,0,0-.826-.149,2.249,2.249,0,0,0-1.647.669,2.223,2.223,0,0,0-.674,1.642q0,.155.006.268C343.964,60.555,343.97,60.631,343.977,60.708Z" transform="translate(-343.286 -57.254)" fill="#fff"/>
        <path id="Trazado_4245" data-name="Trazado 4245" d="M363.174,62.267l.475-.453a2.11,2.11,0,0,0,.672.525,1.793,1.793,0,0,0,.788.177,1.247,1.247,0,0,0,.857-.293.963.963,0,0,0,.331-.757.87.87,0,0,0-.243-.652,1.931,1.931,0,0,0-.868-.392,3.415,3.415,0,0,1-1.448-.627,1.306,1.306,0,0,1-.387-1,1.454,1.454,0,0,1,.525-1.136,1.943,1.943,0,0,1,1.332-.462,2.5,2.5,0,0,1,1.691.635l-.4.52a2.567,2.567,0,0,0-.652-.42,1.632,1.632,0,0,0-.652-.144,1.285,1.285,0,0,0-.854.271.884.884,0,0,0-.324.713q0,.668,1.166.95.243.055.365.094a2.265,2.265,0,0,1,1.078.6,1.386,1.386,0,0,1,.359.973,1.645,1.645,0,0,1-.547,1.265,1.955,1.955,0,0,1-1.376.5A2.475,2.475,0,0,1,364,62.928,2.292,2.292,0,0,1,363.174,62.267Z" transform="translate(-356.921 -57.194)" fill="#fff"/>
      </g>
    </g>
    <g id="jugar_con_responsabilidad" data-name="jugar con responsabilidad" transform="translate(47.367 62.85)">
      <g id="Grupo_87" data-name="Grupo 87">
        <path id="Trazado_4246" data-name="Trazado 4246" d="M130.43,136.187a.759.759,0,0,1-.257.053.43.43,0,0,1-.211-.122c-.1-.081-.145-.144-.145-.188a.337.337,0,0,1,.069-.132c.046-.066.078-.1.1-.1a.877.877,0,0,1,.264.046q.185.059.185.145Zm.211,5.124a.2.2,0,0,1-.089.165.314.314,0,0,1-.188.066.4.4,0,0,1-.224-.1.413.413,0,0,1-.158-.185,4.241,4.241,0,0,1-.139-1.056v-1.089a2.9,2.9,0,0,1,.3-1.532h.046a.655.655,0,0,1,.284.059.231.231,0,0,1,.165.211,1.767,1.767,0,0,1-.1.479,1.754,1.754,0,0,0-.1.492q0,.924.02,1.354a3.326,3.326,0,0,0,.1.568A2.639,2.639,0,0,1,130.641,141.311Z" transform="translate(-129.816 -135.151)" fill="#e4c80c"/>
        <path id="Trazado_4247" data-name="Trazado 4247" d="M137.426,140.994a2.346,2.346,0,0,1-.357,1.261,1.214,1.214,0,0,1-1.056.66h-.429a1.431,1.431,0,0,1-.416-.218,1.894,1.894,0,0,1-.753-1.73q0-.508.588-.508.04,0,.1.079a.241.241,0,0,1,.059.119,1.011,1.011,0,0,1-.043.244,1,1,0,0,0-.043.244,2,2,0,0,0,.191.8q.231.522.541.522a.04.04,0,0,1,.036.016.032.032,0,0,0,.03.017q.191,0,.475-.375a1.768,1.768,0,0,0,.317-.553,2.759,2.759,0,0,0,.1-.731,1.087,1.087,0,0,0-.033-.224q-.026-.105-.053-.224a.542.542,0,0,1,.257-.119.089.089,0,0,1,.043.013.079.079,0,0,0,.036.013l.013-.033.02-.013Q137.426,140.255,137.426,140.994Z" transform="translate(-132.969 -138.274)" fill="#e4c80c"/>
        <path id="Trazado_4248" data-name="Trazado 4248" d="M148.253,144.23a.7.7,0,0,1-.251.62,1.277,1.277,0,0,1-.68.139q-.119,0-.812-.113v-.218q.046-.007.568-.007a1.278,1.278,0,0,0,.31-.069c.15-.047.231-.087.244-.122a1.21,1.21,0,0,0,.033-.357,2.081,2.081,0,0,1-.139-.588,1.992,1.992,0,0,0-.145-.594.9.9,0,0,1-.713.317,1.007,1.007,0,0,1-.673-.287.837.837,0,0,1-.324-.631,2.182,2.182,0,0,1,.165-.773,1.21,1.21,0,0,1,.429-.627,1.6,1.6,0,0,1,.654-.079,1.024,1.024,0,0,1,.353.113.969.969,0,0,1,.313.191.846.846,0,0,1,.145.542v.112a.4.4,0,0,1,.187.3c.008.049.017.172.026.37,0,.128.013.322.026.581a2.468,2.468,0,0,0,.106.476,2.51,2.51,0,0,1,.106.468,1.1,1.1,0,0,0,.019.125A.209.209,0,0,0,148.253,144.23Zm-1.017-2.034a.408.408,0,0,0-.036-.136.4.4,0,0,1-.036-.135.458.458,0,0,1,.036-.148.464.464,0,0,0,.036-.149c0-.075-.054-.148-.162-.221a.528.528,0,0,0-.28-.109q-.244,0-.469.443a1.539,1.539,0,0,0-.2.673.34.34,0,0,0,.152.245.456.456,0,0,0,.277.125.744.744,0,0,0,.426-.208Q147.236,142.368,147.236,142.2Z" transform="translate(-140.686 -138.677)" fill="#e4c80c"/>
        <path id="Trazado_4249" data-name="Trazado 4249" d="M158.234,142.982q0,.337-.456.337a.153.153,0,0,1-.079-.046l-.053-.047a2.14,2.14,0,0,1-.337-.251l-.211-.33q-.462.284-.5.3a1.2,1.2,0,0,1-.561.145.3.3,0,0,1-.1-.026.307.307,0,0,0-.1-.026.243.243,0,0,0-.063.013.229.229,0,0,1-.063.013.758.758,0,0,1-.647-.39,1.316,1.316,0,0,1-.237-.753,1.046,1.046,0,0,1,.878-1.195,1.193,1.193,0,0,1,.627-.119,2.008,2.008,0,0,1,.64.106q.409.139.482.376a1.423,1.423,0,0,1,.053.346,2.945,2.945,0,0,0,.04.367,3.6,3.6,0,0,0,.152.535q.152.429.238.429a.125.125,0,0,0,.043-.013.131.131,0,0,1,.043-.013c.035,0,.079.031.132.092A.265.265,0,0,1,158.234,142.982Zm-1.413-1.8a.442.442,0,0,0-.033-.066,3.433,3.433,0,0,0-.683-.059.606.606,0,0,0-.431.248.721.721,0,0,0-.22.459q0,.938.585.938a.606.606,0,0,0,.276-.132,1.172,1.172,0,0,0,.243-.2.911.911,0,0,0,.2-.535q.013-.125.013-.588A.068.068,0,0,0,156.821,141.18Z" transform="translate(-146.963 -138.519)" fill="#e4c80c"/>
        <path id="Trazado_4250" data-name="Trazado 4250" d="M169.8,140.036a1.524,1.524,0,0,0-.885.409,2.778,2.778,0,0,0-.634.766,1.6,1.6,0,0,0-.132.39,4.091,4.091,0,0,1-.092.4q-.046.217-.073.323-.053.2-.2.2a.547.547,0,0,1-.31-.115.32.32,0,0,1-.165-.254c0-.022,0-.215.013-.581a2.6,2.6,0,0,0-.013-.528q.007-.059.026-.337.013-.2.2-.2a.537.537,0,0,1,.195.053.405.405,0,0,1,.162.106,3.916,3.916,0,0,1,.429-.429l.059.026a.3.3,0,0,1,.086-.179q.013-.013.185-.119a.854.854,0,0,1,.271-.139.027.027,0,0,1,.026.013.027.027,0,0,0,.026.013c.018,0,.041-.015.069-.046s.052-.046.069-.046.021.008.023.023.012.023.03.023l.026-.013-.013-.02.026-.013a1.189,1.189,0,0,1,.429.053.472.472,0,0,0,.106.1A.23.23,0,0,0,169.8,140.036Z" transform="translate(-155.515 -137.943)" fill="#e4c80c"/>
        <path id="Trazado_4251" data-name="Trazado 4251" d="M182.8,140.514c0,.137-.075.2-.224.2a1.147,1.147,0,0,1-.313-.066,1.159,1.159,0,0,0-.314-.066.7.7,0,0,0-.726.465,2.416,2.416,0,0,0-.145.465.8.8,0,0,0,.376.682,1.293,1.293,0,0,0,.773.236.156.156,0,0,0,.063-.016.15.15,0,0,1,.056-.017.278.278,0,0,1,.159.073.2.2,0,0,1,.092.139q0,.172-.251.172a.176.176,0,0,0-.079.033.177.177,0,0,1-.086.033,1.8,1.8,0,0,1-.746-.2,1.339,1.339,0,0,1-.6-.461c-.053-.114-.143-.281-.271-.5a.325.325,0,0,0-.026-.1.33.33,0,0,1-.026-.109,1.441,1.441,0,0,1,.251-.9.966.966,0,0,1,.825-.369,1.08,1.08,0,0,0,.181-.023,1.083,1.083,0,0,1,.181-.023,1.749,1.749,0,0,1,.5.086Q182.8,140.362,182.8,140.514Z" transform="translate(-164.571 -138.217)" fill="#e4c80c"/>
        <path id="Trazado_4252" data-name="Trazado 4252" d="M192.131,141.588a1.234,1.234,0,0,1-.518.938,1.606,1.606,0,0,1-1.027.436h-.2a1.157,1.157,0,0,1-.865-.4,1.266,1.266,0,0,1-.376-.888c0-.013.029-.105.086-.277a1.05,1.05,0,0,1-.013-.106,1.127,1.127,0,0,1,.257-.568q.257-.363.449-.363a.229.229,0,0,1,.119.069.224.224,0,0,0,.132.069.392.392,0,0,0,.175-.069.442.442,0,0,1,.148-.069,1.094,1.094,0,0,1,.429.053l.092.059a.159.159,0,0,0,.069-.023.157.157,0,0,1,.069-.023q.04.02.2.112Q192.131,141.014,192.131,141.588Zm-.64-.079a.748.748,0,0,0-.225-.531.7.7,0,0,0-.522-.234.376.376,0,0,0-.277.105l-.145.145-.4.158q-.125.086-.125.416,0,.964.5.964a1.288,1.288,0,0,0,.8-.323A.908.908,0,0,0,191.491,141.509Z" transform="translate(-170.488 -138.346)" fill="#e4c80c"/>
        <path id="Trazado_4253" data-name="Trazado 4253" d="M202.3,141.8a2.229,2.229,0,0,1-.152.871c-.018.084-.046.211-.086.383s-.1.258-.191.258c-.022,0-.047-.019-.076-.056s-.052-.056-.069-.056a.038.038,0,0,0-.029.01.034.034,0,0,1-.024.01c-.022,0-.042-.029-.063-.086s-.043-.086-.07-.086H201.5a5.169,5.169,0,0,0,.152-1.3q0-.537-.145-.623a.807.807,0,0,0-.488.3,1.819,1.819,0,0,0-.353.469,2.845,2.845,0,0,0-.175.548q-.126.528-.132.561c-.035.128-.1.191-.2.191a.564.564,0,0,1-.324-.115.328.328,0,0,1-.165-.268,8.834,8.834,0,0,1,.1-1.842q.046-.119.284-.119a.326.326,0,0,1,.241.115.387.387,0,0,1,.116.247c.062-.061.156-.15.284-.264a.542.542,0,0,1,.33-.172l.026.007v.006l.02.013a.2.2,0,0,0,.073-.049.132.132,0,0,1,.086-.043.732.732,0,0,1,.357.053c.031.04.057.06.079.06a.071.071,0,0,0,.033-.007h-.006l.026-.013q.264,0,.442.376A1.422,1.422,0,0,1,202.3,141.8Z" transform="translate(-177.701 -138.591)" fill="#e4c80c"/>
        <path id="Trazado_4254" data-name="Trazado 4254" d="M217.78,140.036a1.525,1.525,0,0,0-.885.409,2.777,2.777,0,0,0-.634.766,1.59,1.59,0,0,0-.132.39q-.066.33-.092.4-.047.217-.073.323-.053.2-.2.2a.548.548,0,0,1-.31-.115.319.319,0,0,1-.165-.254c0-.022,0-.215.013-.581a2.6,2.6,0,0,0-.013-.528q.007-.059.026-.337.013-.2.2-.2a.537.537,0,0,1,.195.053.407.407,0,0,1,.162.106,3.938,3.938,0,0,1,.429-.429l.059.026a.3.3,0,0,1,.086-.179c.009-.009.071-.048.185-.119a.857.857,0,0,1,.271-.139.027.027,0,0,1,.026.013.027.027,0,0,0,.026.013c.018,0,.041-.015.07-.046s.052-.046.069-.046.021.008.023.023.012.023.03.023l.026-.013-.013-.02.026-.013a1.19,1.19,0,0,1,.429.053.465.465,0,0,0,.106.1A.225.225,0,0,0,217.78,140.036Z" transform="translate(-188.412 -137.943)" fill="#e4c80c"/>
        <path id="Trazado_4255" data-name="Trazado 4255" d="M226.016,141.2q0,.357-.535.713a1.637,1.637,0,0,1-.871.33q-.067-.007-.482-.066l-.007-.007-.013.04a.489.489,0,0,0,.2.32,1,1,0,0,0,.534.234q.2.02.6.079c.238.04.368.059.39.059v.2a4.107,4.107,0,0,0-.452.036,4.071,4.071,0,0,1-.452.037,1.537,1.537,0,0,1-.971-.376,1.14,1.14,0,0,1-.5-.889,1.307,1.307,0,0,1,.287-.754,1.446,1.446,0,0,1,.624-.53,1.911,1.911,0,0,1,.687-.119.152.152,0,0,1,.059.02.156.156,0,0,0,.066.02.117.117,0,0,0,.043-.013.127.127,0,0,1,.049-.013,1.27,1.27,0,0,1,.238.113,2.484,2.484,0,0,1,.35.2A.436.436,0,0,1,226.016,141.2Zm-.588-.055q0-.156-.343-.156a.863.863,0,0,0-.558.24,1.137,1.137,0,0,0-.366.513,1.073,1.073,0,0,0,.119.006,1.505,1.505,0,0,0,.172-.013,1.586,1.586,0,0,1,.172-.013,1.035,1.035,0,0,0,.482-.217Q225.428,141.287,225.428,141.145Z" transform="translate(-194.013 -138.447)" fill="#e4c80c"/>
        <path id="Trazado_4256" data-name="Trazado 4256" d="M235.01,140.047c0,.119-.062.178-.185.178a1.506,1.506,0,0,1-.281-.04,1.51,1.51,0,0,0-.28-.04.625.625,0,0,0-.429.125c0,.079-.006.138-.006.178a1.37,1.37,0,0,0,.251.757,5.045,5.045,0,0,0,.475.573q.251.276.251.389,0,.4-1.122.4a.846.846,0,0,1-.287-.09.957.957,0,0,1-.261-.148v-.079a3.12,3.12,0,0,1,.442-.059,1.313,1.313,0,0,0,.3-.04c.149-.035.225-.086.225-.152a1.052,1.052,0,0,0-.238-.35,4.033,4.033,0,0,1-.429-.621,1.928,1.928,0,0,1-.238-.911.278.278,0,0,1,.2-.258l.35-.106.047.046a1.469,1.469,0,0,1,.561-.066,1.1,1.1,0,0,1,.376.086Q235.01,139.921,235.01,140.047Z" transform="translate(-200.651 -137.914)" fill="#e4c80c"/>
        <path id="Trazado_4257" data-name="Trazado 4257" d="M244.134,140.726q0,1.552-1.928,1.935a10.1,10.1,0,0,0-.1,1.479.409.409,0,0,1-.112.212.612.612,0,0,1-.092.006.745.745,0,0,1-.515-.211v-.693q0-.277.125-1.7.026-.448.046-.9.086-.726.33-.726a.352.352,0,0,1,.145.056.351.351,0,0,0,.145.056,1.578,1.578,0,0,0,.172-.165,1.224,1.224,0,0,1,.885-.238c.013,0,.031.014.053.043s.042.043.059.043a.11.11,0,0,0,.073-.04l.046.046a.961.961,0,0,1,.439.327A.779.779,0,0,1,244.134,140.726Zm-.627-.007a.574.574,0,0,0-.09-.281.252.252,0,0,0-.209-.155q-.657,0-.836,1.155l-.106.753c.036,0,.057,0,.066.016a.06.06,0,0,0,.033.03.926.926,0,0,1,.378-.231q.026,0,.139-.126.345-.4.432-.522A1.135,1.135,0,0,0,243.506,140.72Z" transform="translate(-206.308 -137.986)" fill="#e4c80c"/>
        <path id="Trazado_4258" data-name="Trazado 4258" d="M254.795,141.588a1.233,1.233,0,0,1-.518.938,1.607,1.607,0,0,1-1.027.436h-.2a1.158,1.158,0,0,1-.865-.4,1.266,1.266,0,0,1-.376-.888,2.872,2.872,0,0,1,.086-.277,1.038,1.038,0,0,1-.013-.106,1.13,1.13,0,0,1,.257-.568q.258-.363.449-.363a.229.229,0,0,1,.119.069.224.224,0,0,0,.132.069.39.39,0,0,0,.175-.069.442.442,0,0,1,.148-.069,1.1,1.1,0,0,1,.429.053l.092.059a.159.159,0,0,0,.069-.023.158.158,0,0,1,.069-.023q.04.02.2.112Q254.795,141.014,254.795,141.588Zm-.64-.079a.748.748,0,0,0-.224-.531.7.7,0,0,0-.522-.234.376.376,0,0,0-.277.105l-.145.145-.4.158q-.125.086-.125.416,0,.964.495.964a1.288,1.288,0,0,0,.8-.323A.907.907,0,0,0,254.154,141.509Z" transform="translate(-213.45 -138.346)" fill="#e4c80c"/>
        <path id="Trazado_4259" data-name="Trazado 4259" d="M264.965,141.8a2.229,2.229,0,0,1-.152.871c-.018.084-.046.211-.086.383s-.1.258-.191.258c-.022,0-.047-.019-.076-.056s-.052-.056-.069-.056a.038.038,0,0,0-.029.01.034.034,0,0,1-.024.01c-.022,0-.042-.029-.063-.086s-.043-.086-.069-.086h-.046a5.171,5.171,0,0,0,.152-1.3q0-.537-.145-.623a.807.807,0,0,0-.489.3,1.818,1.818,0,0,0-.353.469,2.841,2.841,0,0,0-.175.548q-.125.528-.132.561c-.035.128-.1.191-.2.191a.564.564,0,0,1-.324-.115.328.328,0,0,1-.165-.268,8.87,8.87,0,0,1,.1-1.842c.031-.079.125-.119.284-.119a.327.327,0,0,1,.241.115.388.388,0,0,1,.115.247c.062-.061.156-.15.284-.264a.542.542,0,0,1,.33-.172l.026.007v.006l.02.013a.2.2,0,0,0,.073-.049.132.132,0,0,1,.086-.043.732.732,0,0,1,.357.053c.031.04.057.06.079.06a.071.071,0,0,0,.033-.007h-.006l.026-.013q.264,0,.442.376A1.423,1.423,0,0,1,264.965,141.8Z" transform="translate(-220.662 -138.591)" fill="#e4c80c"/>
        <path id="Trazado_4260" data-name="Trazado 4260" d="M274.489,140.047c0,.119-.062.178-.185.178a1.5,1.5,0,0,1-.28-.04,1.517,1.517,0,0,0-.281-.04.625.625,0,0,0-.429.125q-.007.118-.007.178a1.372,1.372,0,0,0,.251.757,5.053,5.053,0,0,0,.475.573q.251.276.251.389,0,.4-1.123.4a.848.848,0,0,1-.287-.09.962.962,0,0,1-.261-.148v-.079a3.12,3.12,0,0,1,.442-.059,1.311,1.311,0,0,0,.3-.04q.224-.053.224-.152a1.053,1.053,0,0,0-.238-.35,4.058,4.058,0,0,1-.429-.621,1.928,1.928,0,0,1-.238-.911.278.278,0,0,1,.2-.258l.35-.106.046.046a1.471,1.471,0,0,1,.561-.066,1.1,1.1,0,0,1,.377.086Q274.489,139.921,274.489,140.047Z" transform="translate(-227.717 -137.914)" fill="#e4c80c"/>
        <path id="Trazado_4261" data-name="Trazado 4261" d="M283.013,142.982q0,.337-.456.337a.153.153,0,0,1-.079-.046l-.053-.047a2.168,2.168,0,0,1-.336-.251l-.212-.33q-.462.284-.5.3a1.2,1.2,0,0,1-.561.145.3.3,0,0,1-.1-.026.31.31,0,0,0-.1-.026.242.242,0,0,0-.063.013.231.231,0,0,1-.063.013.758.758,0,0,1-.647-.39,1.314,1.314,0,0,1-.238-.753,1.046,1.046,0,0,1,.878-1.195,1.193,1.193,0,0,1,.627-.119,2.007,2.007,0,0,1,.641.106q.409.139.482.376a1.436,1.436,0,0,1,.053.346,2.832,2.832,0,0,0,.04.367,3.583,3.583,0,0,0,.152.535q.152.429.238.429a.126.126,0,0,0,.043-.013.131.131,0,0,1,.043-.013c.036,0,.079.031.132.092A.265.265,0,0,1,283.013,142.982Zm-1.413-1.8a.436.436,0,0,0-.033-.066,3.435,3.435,0,0,0-.683-.059.6.6,0,0,0-.43.248.72.72,0,0,0-.22.459q0,.938.585.938a.606.606,0,0,0,.276-.132,1.18,1.18,0,0,0,.243-.2.915.915,0,0,0,.2-.535q.013-.125.013-.588A.068.068,0,0,0,281.6,141.18Z" transform="translate(-232.511 -138.519)" fill="#e4c80c"/>
        <path id="Trazado_4262" data-name="Trazado 4262" d="M295.738,136.867a4.266,4.266,0,0,1-.086.423,1.129,1.129,0,0,0-.145.373.808.808,0,0,1-.178.38,1.994,1.994,0,0,1-.568.363,1.639,1.639,0,0,1-.654.165q-.607,0-.607-.469v-.046a1.385,1.385,0,0,0,.231.086q.086,0,.251-.01t.251-.01a.2.2,0,0,0,.106-.04,2.558,2.558,0,0,0,.62-.506,1.3,1.3,0,0,0,.192-.77.406.406,0,0,0-.156-.289.45.45,0,0,0-.3-.145q-.4,0-.786.8-.033.085-.112.263a.237.237,0,0,1-.224.144.609.609,0,0,1-.261-.112c-.121-.075-.182-.134-.182-.178q0-.528.025-1.281a8.2,8.2,0,0,1,.161-1.208.654.654,0,0,0,.012-.119v-.271q0-.456.247-.456a.789.789,0,0,1,.293.053q.18.066.18.2a1.416,1.416,0,0,1-.061.37c-.054.2-.086.326-.095.37a7.267,7.267,0,0,0-.1,1.175l.04.04a3.256,3.256,0,0,1,.9-.2,1.031,1.031,0,0,1,.651.31A.846.846,0,0,1,295.738,136.867Z" transform="translate(-241.783 -133.955)" fill="#e4c80c"/>
        <path id="Trazado_4263" data-name="Trazado 4263" d="M303.6,137.321q0,.079-.013.228c-.009.1-.013.17-.013.215q-.007.172,0,.409v.416a1.351,1.351,0,0,1-.107.647.211.211,0,0,0-.08.026.208.208,0,0,1-.087.026.174.174,0,0,1-.106-.02l-.053-.092-.02.066a1.724,1.724,0,0,1-.267-.951v-.7a2.256,2.256,0,0,1,.02-.4c.04-.158.127-.238.264-.238a.559.559,0,0,1,.32.1A.3.3,0,0,1,303.6,137.321Zm.3-1.855q0,.2-.218.2a.81.81,0,0,1-.416-.208q-.271-.208-.27-.34a.282.282,0,0,1,.046-.132,3.13,3.13,0,0,0,.4.053Q303.9,135.354,303.9,135.466Z" transform="translate(-248.449 -134.66)" fill="#e4c80c"/>
        <path id="Trazado_4264" data-name="Trazado 4264" d="M308.682,135.049q0,.554-.089,1.653t-.089,1.654q0,.753-.245.753a3.466,3.466,0,0,1-.363-.218,1.439,1.439,0,0,1-.066-.5q0-.469.073-1.4t.073-1.4v-.7a.314.314,0,0,1,.284-.165.52.52,0,0,1,.284.089A.263.263,0,0,1,308.682,135.049Z" transform="translate(-251.861 -134.488)" fill="#e4c80c"/>
        <path id="Trazado_4265" data-name="Trazado 4265" d="M312.986,137.321c0,.053,0,.129-.013.228s-.013.17-.013.215q-.006.172,0,.409v.416a1.347,1.347,0,0,1-.107.647.215.215,0,0,0-.08.026.207.207,0,0,1-.086.026.175.175,0,0,1-.107-.02l-.053-.092-.02.066a1.722,1.722,0,0,1-.267-.951v-.7a2.255,2.255,0,0,1,.02-.4q.059-.238.264-.238a.561.561,0,0,1,.32.1A.3.3,0,0,1,312.986,137.321Zm.3-1.855q0,.2-.218.2a.81.81,0,0,1-.416-.208q-.271-.208-.27-.34a.278.278,0,0,1,.046-.132,3.114,3.114,0,0,0,.4.053Q313.283,135.354,313.283,135.466Z" transform="translate(-254.884 -134.66)" fill="#e4c80c"/>
        <path id="Trazado_4266" data-name="Trazado 4266" d="M320.416,135.583a4.428,4.428,0,0,1-.528,1.948,2.962,2.962,0,0,1-.706.845,1.615,1.615,0,0,1-.944.5h-.383a.475.475,0,0,1-.145-.079,3.086,3.086,0,0,1-.456-.343.743.743,0,0,1-.2-.528,1.849,1.849,0,0,1,.3-.819q.324-.568.588-.554a1.389,1.389,0,0,1,.337-.212,1.113,1.113,0,0,1,.363-.132l.02.013-.013.026.02.007a.724.724,0,0,0,.152-.023.728.728,0,0,1,.152-.023.987.987,0,0,1,.343.066.4.4,0,0,1,.258.2,3.356,3.356,0,0,0,.244-.786,7.682,7.682,0,0,0,.026-.818,1.835,1.835,0,0,0-.033-.463,1.4,1.4,0,0,0,.175-.016,1.344,1.344,0,0,1,.175-.017q.185,0,.258.4a1.516,1.516,0,0,0-.02.383c0,.1.008.187.01.258a1.511,1.511,0,0,0,.01.152Zm-.9,1.248a.374.374,0,0,0-.026-.1.26.26,0,0,1-.086.02.514.514,0,0,1-.188-.069.525.525,0,0,0-.188-.069,2.228,2.228,0,0,0-.317.105,1.668,1.668,0,0,0-.687.467,1.122,1.122,0,0,0-.317.756.522.522,0,0,0,.086.3.305.305,0,0,0,.264.145.587.587,0,0,0,.086-.01.6.6,0,0,1,.086-.01q.277,0,.782-.625A1.857,1.857,0,0,0,319.512,136.831Z" transform="translate(-258.181 -134.243)" fill="#e4c80c"/>
        <path id="Trazado_4267" data-name="Trazado 4267" d="M332.195,142.982q0,.337-.456.337a.153.153,0,0,1-.079-.046l-.053-.047a2.144,2.144,0,0,1-.336-.251l-.212-.33q-.462.284-.5.3a1.2,1.2,0,0,1-.561.145.3.3,0,0,1-.1-.026.308.308,0,0,0-.1-.026.242.242,0,0,0-.063.013.234.234,0,0,1-.063.013.758.758,0,0,1-.647-.39,1.314,1.314,0,0,1-.238-.753,1.046,1.046,0,0,1,.878-1.195,1.193,1.193,0,0,1,.627-.119,2,2,0,0,1,.64.106q.409.139.482.376a1.421,1.421,0,0,1,.053.346,2.939,2.939,0,0,0,.04.367,3.588,3.588,0,0,0,.152.535q.152.429.238.429a.122.122,0,0,0,.043-.013.135.135,0,0,1,.043-.013c.035,0,.079.031.132.092A.265.265,0,0,1,332.195,142.982Zm-1.413-1.8a.442.442,0,0,0-.033-.066,3.433,3.433,0,0,0-.683-.059.6.6,0,0,0-.43.248.722.722,0,0,0-.22.459q0,.938.585.938a.6.6,0,0,0,.276-.132,1.177,1.177,0,0,0,.243-.2.916.916,0,0,0,.2-.535q.013-.125.013-.588A.068.068,0,0,0,330.782,141.18Z" transform="translate(-266.229 -138.519)" fill="#e4c80c"/>
        <path id="Trazado_4268" data-name="Trazado 4268" d="M344.671,135.583a4.428,4.428,0,0,1-.528,1.948,2.962,2.962,0,0,1-.706.845,1.615,1.615,0,0,1-.944.5h-.383a.475.475,0,0,1-.145-.079,3.068,3.068,0,0,1-.456-.343.742.742,0,0,1-.2-.528,1.851,1.851,0,0,1,.3-.819q.324-.568.588-.554a1.388,1.388,0,0,1,.337-.212,1.113,1.113,0,0,1,.363-.132l.02.013-.013.026.02.007a.727.727,0,0,0,.152-.023.728.728,0,0,1,.152-.023.987.987,0,0,1,.343.066.4.4,0,0,1,.257.2,3.333,3.333,0,0,0,.244-.786,7.587,7.587,0,0,0,.026-.818,1.842,1.842,0,0,0-.033-.463,1.406,1.406,0,0,0,.175-.016,1.345,1.345,0,0,1,.175-.017q.185,0,.258.4a1.5,1.5,0,0,0-.02.383c0,.1.008.187.01.258s.006.121.01.152Zm-.9,1.248a.375.375,0,0,0-.026-.1.26.26,0,0,1-.086.02.514.514,0,0,1-.188-.069.527.527,0,0,0-.188-.069,2.23,2.23,0,0,0-.317.105,1.666,1.666,0,0,0-.687.467,1.122,1.122,0,0,0-.317.756.522.522,0,0,0,.086.3.3.3,0,0,0,.264.145.579.579,0,0,0,.086-.01.6.6,0,0,1,.086-.01q.277,0,.782-.625A1.857,1.857,0,0,0,343.767,136.831Z" transform="translate(-274.81 -134.243)" fill="#e4c80c"/>
      </g>
    </g>
  </g>
</svg>
