<?xml version="1.0" encoding="utf-8"?>
<!-- Generator: Adobe Illustrator 27.0.1, SVG Export Plug-In . SVG Version: 6.00 Build 0)  -->
<svg version="1.1" id="logo-landing-7" xmlns="http://www.w3.org/2000/svg" xmlns:xlink="http://www.w3.org/1999/xlink" x="0px"
	 y="0px" viewBox="0 0 150 75" style="enable-background:new 0 0 150 75;" xml:space="preserve">
<style type="text/css">
	.st0{clip-path:url(#SVGID_00000124135125416222218290000009289836298791028655_);}
	.st1{fill:#FFFFFF;}
	.st2{clip-path:url(#SVGID_00000152238787159741057690000011744123987739307937_);}
	.st3{clip-path:url(#SVGID_00000183950962224961077380000011625324448068902272_);}
	.st4{clip-path:url(#SVGID_00000092442056931480173290000009585869554662741178_);}
	.st5{clip-path:url(#SVGID_00000168112684378579123620000013192094387343328157_);}
	.st6{clip-path:url(#SVGID_00000019648709728292212490000006540241884725602470_);}
	.st7{clip-path:url(#SVGID_00000011744500714688622690000018277635103168984455_);}
	.st8{clip-path:url(#SVGID_00000077291662910478331180000001287128251641568404_);}
	.st9{clip-path:url(#SVGID_00000076573176591780254480000012379629758015608986_);}
	.st10{clip-path:url(#SVGID_00000012438547482746605270000015349597243008926141_);}
	.st11{clip-path:url(#SVGID_00000025437349697038776440000007486345882502616720_);}
	.st12{clip-path:url(#SVGID_00000012435540841323096300000010610320723965300668_);}
	.st13{clip-path:url(#SVGID_00000008142703669953195380000008322588044329320091_);}
	.st14{clip-path:url(#SVGID_00000101808338266504440440000016452998739646495878_);}
	.st15{clip-path:url(#SVGID_00000124131898575960488400000001250506119600734397_);}
</style>
<g>
	<defs>
		<rect id="SVGID_1_" y="18.3" width="150" height="38.4"/>
	</defs>
	<clipPath id="SVGID_00000036219515836587196620000016553137661005244550_">
		<use xlink:href="#SVGID_1_"  style="overflow:visible;"/>
	</clipPath>
	<g id="Grupo_64" transform="translate(0 0)" style="clip-path:url(#SVGID_00000036219515836587196620000016553137661005244550_);">
		<path id="Trazado_4162" class="st1" d="M19.5,29c-0.1-0.9,0.2-1.9,0.8-2.6c0.3-0.3,0.6-0.5,1-0.6c0.4-0.2,0.8-0.3,1.2-0.3h4.7
			c2,0,3.1,1.1,3.1,3.4v6.9c0,0.8-0.3,1.5-0.9,2c-0.6,0.6-1.3,0.9-2.1,0.9h-4.4v5h-3.3L19.5,29z M27,29.6c0-0.5-0.3-0.8-0.7-0.8
			h-2.5c-0.5,0-0.9,0.4-0.9,0.8c0,0.1,0,0.1,0,0.2v4.6c0,0.5,0.4,0.9,0.9,1c0.1,0,0.1,0,0.2,0h2.3c0.2,0,0.4-0.1,0.6-0.3
			c0.2-0.1,0.3-0.3,0.2-0.5L27,29.6z"/>
	</g>
</g>
<g>
	<defs>
		<rect id="SVGID_00000037661410999166314760000002669984861545396658_" y="18.3" width="150" height="38.4"/>
	</defs>
	<clipPath id="SVGID_00000121281662474128346080000001969879803415202989_">
		<use xlink:href="#SVGID_00000037661410999166314760000002669984861545396658_"  style="overflow:visible;"/>
	</clipPath>
	<g id="Grupo_65" transform="translate(0 0)" style="clip-path:url(#SVGID_00000121281662474128346080000001969879803415202989_);">
		<path id="Trazado_4163" class="st1" d="M40.4,29.6c0-0.5-0.3-0.7-0.9-0.7h-6.6v-3.4h7.4c2.1,0,3.3,1.1,3.3,3.1v7
			c0,0.8-0.3,1.6-0.8,2.2c-0.5,0.6-1.3,0.9-2.1,0.9h-4.4c-2.2,0-3.3-1-3.3-3V33c0-2.1,1.1-3.1,3.2-3.1h4.3L40.4,29.6z M36.2,34.7
			c0,0.2,0.1,0.4,0.3,0.5c0.2,0.1,0.4,0.2,0.6,0.2h2.5c0.6,0,0.9-0.2,0.9-0.7v-0.9c0-0.5-0.3-0.8-0.9-0.8H37c-0.2,0-0.5,0-0.7,0.2
			c-0.1,0.2-0.2,0.5-0.2,0.7L36.2,34.7L36.2,34.7z"/>
	</g>
</g>
<path id="Trazado_4164" class="st1" d="M52.8,40.4c0.2,0,0.5-0.1,0.7-0.3c0.2-0.1,0.3-0.3,0.3-0.5v-0.8h-4.2c-0.4,0-0.9-0.1-1.3-0.2
	c-0.4-0.2-0.7-0.4-1-0.7c-0.3-0.3-0.5-0.7-0.7-1.1c-0.2-0.4-0.2-0.9-0.2-1.3v-9.9h3.3v8.8c0,0.7,0.3,1.1,0.9,1.1h2.3
	c0.3,0,0.5-0.1,0.7-0.3c0.2-0.1,0.3-0.3,0.3-0.6v-9.1h3.2v14.6c0,0.9-0.3,1.9-0.8,2.6c-0.5,0.7-1.4,1-2.2,1h-7.6v-3.4L52.8,40.4z"/>
<path id="Trazado_4165" class="st1" d="M59.5,35.4h5.8c0.5,0,0.8-0.2,0.8-0.6v-0.3c0-0.1,0-0.2-0.1-0.3c-0.1-0.2-0.3-0.4-0.5-0.4
	h-2.9c-0.8,0-1.6-0.3-2.2-0.9c-0.6-0.5-0.9-1.2-1-1.9v-2.5c0-2,1.1-3,3.2-3h6.7v3.3h-5.7c-0.7,0-1,0.2-1,0.6v0.3
	c0,0.4,0.3,0.6,1,0.6h2.9c0.7,0,1.5,0.3,2,0.9c0.5,0.5,0.9,1.3,0.8,2v2.5c-0.1,0.8-0.4,1.5-0.9,2c-0.2,0.3-0.6,0.5-0.9,0.7
	c-0.4,0.1-0.8,0.2-1.3,0.2h-6.8L59.5,35.4L59.5,35.4z"/>
<path id="Trazado_4166" class="st1" d="M79.3,29.6c0-0.5-0.3-0.7-0.9-0.7h-6.6v-3.4h7.4c2.1,0,3.3,1.1,3.3,3.1v7
	c0,0.8-0.3,1.6-0.8,2.2c-0.5,0.6-1.3,0.9-2.1,0.9h-4.5c-2.2,0-3.3-1-3.3-3V33c0-2.1,1.1-3.1,3.2-3.1h4.3L79.3,29.6z M75.1,34.7
	c0,0.2,0.1,0.4,0.3,0.5c0.2,0.1,0.4,0.2,0.6,0.2h2.5c0.6,0,0.9-0.2,0.9-0.7v-0.9c0-0.5-0.3-0.8-0.9-0.8h-2.5c-0.2,0-0.5,0-0.7,0.2
	c-0.1,0.2-0.2,0.5-0.2,0.7L75.1,34.7L75.1,34.7z"/>
<g>
	<defs>
		<polyline id="SVGID_00000005249475326814185960000006290941678252187015_" points="0,56.7 0,18.3 150,18.3 150,56.7 		"/>
	</defs>
	<clipPath id="SVGID_00000166662541500431356490000005502055179011728536_">
		<use xlink:href="#SVGID_00000005249475326814185960000006290941678252187015_"  style="overflow:visible;"/>
	</clipPath>
	<g id="Grupo_66" transform="translate(0 0)" style="clip-path:url(#SVGID_00000166662541500431356490000005502055179011728536_);">
		<path id="Trazado_4167" class="st1" d="M85.2,23.6c0-0.8,0.4-1.6,1-2.2c0.7-0.6,1.6-0.9,2.5-0.9h2.1v3.2h-1.3c-0.7,0-1,0.3-1.1,1
			v0.7h2.3v3.4h-2.3v9.9h-3.3V23.6z"/>
	</g>
</g>
<g>
	<defs>
		<polyline id="SVGID_00000003785795734847792390000004032492121275338123_" points="0,56.7 0,18.3 150,18.3 150,56.7 		"/>
	</defs>
	<clipPath id="SVGID_00000058547334542641688010000002586826541595783583_">
		<use xlink:href="#SVGID_00000003785795734847792390000004032492121275338123_"  style="overflow:visible;"/>
	</clipPath>
	<g id="Grupo_67" transform="translate(0 0)" style="clip-path:url(#SVGID_00000058547334542641688010000002586826541595783583_);">
		<path id="Trazado_4169" class="st1" d="M96,34.2v0.2c0,0.2,0.1,0.5,0.2,0.6c0.1,0.2,0.2,0.3,0.4,0.3h6.7v3.4h-7.1
			c-0.5,0-1,0-1.5-0.2c-0.4-0.1-0.8-0.4-1.1-0.6c-0.3-0.3-0.6-0.7-0.7-1.1c-0.1-0.5-0.2-1-0.2-1.6l0-6.7c0-2,1.1-3.1,3.2-3.1h4.4
			c2,0,3.1,1.1,3.1,3.2v2.6L96,34.2z M100,29.5L100,29.5c0-0.2-0.1-0.4-0.2-0.5c-0.2-0.1-0.4-0.2-0.6-0.2H97c-0.3,0-0.5,0.1-0.7,0.2
			c-0.2,0.1-0.3,0.4-0.3,0.6v1.3L100,29.5z"/>
	</g>
</g>
<g>
	<defs>
		<polyline id="SVGID_00000062176818946875374100000004187313509331498400_" points="0,56.7 0,18.3 150,18.3 150,56.7 		"/>
	</defs>
	<clipPath id="SVGID_00000033344769190729922000000016293622340691441041_">
		<use xlink:href="#SVGID_00000062176818946875374100000004187313509331498400_"  style="overflow:visible;"/>
	</clipPath>
	<g id="Grupo_68" transform="translate(0 0)" style="clip-path:url(#SVGID_00000033344769190729922000000016293622340691441041_);">
		<path id="Trazado_4171" class="st1" d="M110.3,38.7c-0.5,0-0.9,0-1.4-0.1c-0.5-0.1-0.9-0.3-1.3-0.6c-0.4-0.3-0.7-0.8-0.9-1.3
			c-0.2-0.5-0.3-1.1-0.3-1.6v-6.3c0-0.5,0-0.9,0.2-1.3c0.1-0.4,0.4-0.8,0.7-1.1c0.3-0.4,0.8-0.6,1.2-0.8c0.5-0.1,0.9-0.2,1.4-0.2h5
			v0.8H110c-0.7,0-1.4,0.1-2,0.5c-0.6,0.5-0.8,1.2-0.8,2V35c0,0.4,0.1,0.9,0.2,1.3c0.1,0.4,0.4,0.8,0.7,1.1c0.3,0.2,0.7,0.4,1.1,0.5
			c0.4,0.1,0.8,0.1,1.1,0.1h4.7v0.8L110.3,38.7z"/>
	</g>
</g>
<g>
	<defs>
		<polyline id="SVGID_00000129920480148105901340000002100504925926095284_" points="0,56.7 0,18.3 150,18.3 150,56.7 		"/>
	</defs>
	<clipPath id="SVGID_00000116201511664553481130000011037833956464053681_">
		<use xlink:href="#SVGID_00000129920480148105901340000002100504925926095284_"  style="overflow:visible;"/>
	</clipPath>
	<g id="Grupo_69" transform="translate(0 0)" style="clip-path:url(#SVGID_00000116201511664553481130000011037833956464053681_);">
		<path id="Trazado_4173" class="st1" d="M128.5,35.1c0,0.4,0,0.9-0.1,1.3c-0.1,0.5-0.4,0.9-0.7,1.2c-0.7,0.7-1.6,1.1-2.5,1.1h-3.9
			c-0.9,0-1.8-0.3-2.5-0.9c-0.7-0.6-1-1.6-1-2.5v-2c0-2.3,1.2-3.4,3.4-3.5h6.5V29c0-0.7-0.2-1.4-0.6-1.9c-0.2-0.3-0.6-0.6-0.9-0.7
			c-0.4-0.1-0.8-0.1-1.2-0.1h-7.1v-0.8h6.7c0.6,0,1.1,0,1.7,0.1c0.3,0.1,0.5,0.2,0.7,0.3c0.3,0.2,0.5,0.4,0.6,0.6
			c0.6,0.8,0.9,1.7,0.9,2.7L128.5,35.1L128.5,35.1z M127.8,30.6h-6.6c-0.7,0-1.4,0.2-1.8,0.7c-0.5,0.5-0.7,1.2-0.7,2v2
			c0,0.4,0,0.7,0.1,1.1c0.1,0.4,0.3,0.7,0.6,0.9c0.5,0.5,1.2,0.7,1.9,0.7h4c1.7,0,2.5-0.9,2.5-2.6L127.8,30.6z"/>
	</g>
</g>
<g>
	<defs>
		<polyline id="SVGID_00000078033004275916856290000005342740590374327465_" points="0,56.7 0,18.3 150,18.3 150,56.7 		"/>
	</defs>
	<clipPath id="SVGID_00000108271578164679491510000005401730016626010769_">
		<use xlink:href="#SVGID_00000078033004275916856290000005342740590374327465_"  style="overflow:visible;"/>
	</clipPath>
	<g id="Grupo_70" transform="translate(0 0)" style="clip-path:url(#SVGID_00000108271578164679491510000005401730016626010769_);">
		<path id="Trazado_4175" class="st1" d="M135.9,26.2c-1.8,0-2.7,1-2.7,3v9.6h-0.8v-9.6c0-2.5,1.2-3.8,3.6-3.8h0.9v0.8L135.9,26.2
			L135.9,26.2z"/>
	</g>
</g>
<g>
	<defs>
		<polyline id="SVGID_00000094576161562929274840000003299078907937043378_" points="0,56.7 0,18.3 150,18.3 150,56.7 		"/>
	</defs>
	<clipPath id="SVGID_00000076574887257648711110000000697768119969593520_">
		<use xlink:href="#SVGID_00000094576161562929274840000003299078907937043378_"  style="overflow:visible;"/>
	</clipPath>
	<g id="Grupo_71" transform="translate(0 0)" style="clip-path:url(#SVGID_00000076574887257648711110000000697768119969593520_);">
		<path id="Trazado_4177" class="st1" d="M149.8,35c-0.1,2.5-1.4,3.8-4,3.7H143c-0.6,0-1.1,0-1.6-0.2c-0.5-0.2-1-0.5-1.4-0.9
			c-0.3-0.4-0.5-0.8-0.7-1.3c-0.1-0.5-0.2-1-0.2-1.5v-5.7c0-2.6,1.3-3.8,3.9-3.8h6.1v-4.3h0.8L149.8,35z M149.1,26.2h-6.2
			c-0.4,0-0.8,0.1-1.2,0.2c-0.4,0.1-0.8,0.3-1.1,0.7c-0.3,0.3-0.5,0.6-0.6,1c-0.1,0.4-0.2,0.8-0.2,1.2v6.1c-0.1,0.8,0.2,1.6,0.9,2.1
			c0.3,0.2,0.6,0.3,1,0.4c0.4,0.1,0.8,0.1,1.2,0.1h2.7c0.9,0,1.8-0.2,2.5-0.7c0.7-0.6,1-1.4,1-2.3L149.1,26.2L149.1,26.2z"/>
	</g>
</g>
<g>
	<defs>
		<polyline id="SVGID_00000059297135996771080060000010324572126303937980_" points="0,56.7 0,18.3 150,18.3 150,56.7 		"/>
	</defs>
	<clipPath id="SVGID_00000078035674147230737650000002620961492640126130_">
		<use xlink:href="#SVGID_00000059297135996771080060000010324572126303937980_"  style="overflow:visible;"/>
	</clipPath>
	<g id="Grupo_72" transform="translate(0 0)" style="clip-path:url(#SVGID_00000078035674147230737650000002620961492640126130_);">
		<path id="Trazado_4179" class="st1" d="M1.4,25c0.2-0.1,0.5-0.2,0.8-0.2c0.6-2.7,3.2-4.4,5.9-3.8c1.9,0.4,3.4,1.9,3.8,3.8
			c0.7,0.1,1.3,0.4,1.8,0.9c0-0.4,0-0.8-0.1-1.2c-0.3-3.7-3.5-6.4-7.2-6.1c-3.3,0.3-6,3-6.1,6.4c0,0.3,0,0.6,0,1
			C0.7,25.4,1,25.2,1.4,25"/>
	</g>
</g>
<g>
	<defs>
		<polyline id="SVGID_00000132075847440903881620000003014432979307749527_" points="0,56.7 0,18.3 150,18.3 150,56.7 		"/>
	</defs>
	<clipPath id="SVGID_00000141432161552068043060000014661459091107626152_">
		<use xlink:href="#SVGID_00000132075847440903881620000003014432979307749527_"  style="overflow:visible;"/>
	</clipPath>
	<g id="Grupo_73" transform="translate(0 0)" style="clip-path:url(#SVGID_00000141432161552068043060000014661459091107626152_);">
		<path id="Trazado_4181" class="st1" d="M10.9,25.5h-8c-0.4,0-0.8,0.1-1.2,0.3c-0.4,0.1-0.7,0.4-1,0.6C0.2,27.1-0.1,28.1,0,29v6.2
			c-0.1,0.9,0.2,1.9,0.8,2.6c0.3,0.3,0.6,0.5,1,0.6c0.4,0.2,0.8,0.3,1.2,0.3h8c2,0,3.1-1.1,3.1-3.4v-6.5C14,26.6,13,25.5,10.9,25.5"
			/>
	</g>
</g>
<g>
	<defs>
		<polyline id="SVGID_00000032631227805353779480000006082554879363695285_" points="0,56.7 0,18.3 150,18.3 150,56.7 		"/>
	</defs>
	<clipPath id="SVGID_00000029742583984727608000000018150030482909634480_">
		<use xlink:href="#SVGID_00000032631227805353779480000006082554879363695285_"  style="overflow:visible;"/>
	</clipPath>
	<g id="Grupo_74" transform="translate(0 0)" style="clip-path:url(#SVGID_00000029742583984727608000000018150030482909634480_);">
		<path id="Trazado_4183" class="st1" d="M59.7,56.7V50c0-0.1,0-0.2,0-0.3c0-0.7,0.5-1.2,1.1-1.3c0.1,0,0.1,0,0.2,0h2.2
			c0.1,0,0.2,0,0.3,0c0.7,0.1,1.3,0.8,1.2,1.5c0,0,0,0,0,0v3.1c0,0.3-0.1,0.6-0.3,0.8c-0.1,0.1-0.1,0.1-0.2,0.2
			c-0.3,0.3-0.6,0.4-1,0.4h-2.1v2.3C60.7,56.7,60.2,56.6,59.7,56.7 M61.2,52.5c0,0.2,0.2,0.4,0.4,0.4h1.3c0.1,0,0.2-0.1,0.2-0.1
			c0-0.1,0.1-0.1,0.1-0.2v-2.3c0-0.2-0.1-0.3-0.3-0.3c0,0,0,0-0.1,0h-1.2c-0.2,0-0.3,0.1-0.4,0.2c0,0.1,0,0.1-0.1,0.2L61.2,52.5
			C61.2,52.4,61.2,52.5,61.2,52.5"/>
	</g>
</g>
<g>
	<defs>
		<polyline id="SVGID_00000107561376127345241110000001975858289857400503_" points="0,56.7 0,18.3 150,18.3 150,56.7 		"/>
	</defs>
	<clipPath id="SVGID_00000078046098644087278110000002502898174689308298_">
		<use xlink:href="#SVGID_00000107561376127345241110000001975858289857400503_"  style="overflow:visible;"/>
	</clipPath>
	<g id="Grupo_75" transform="translate(0 0)" style="clip-path:url(#SVGID_00000078046098644087278110000002502898174689308298_);">
		<path id="Trazado_4185" class="st1" d="M65.8,53v-1.2c-0.1-0.7,0.5-1.4,1.2-1.4c0.1,0,0.2,0,0.3,0h2l0-0.3c0-0.2-0.1-0.2-0.3-0.2
			h-3.2v-1.5h3.5c0.1,0,0.2,0,0.3,0c0.7,0,1.2,0.5,1.2,1.1c0,0.1,0,0.2,0,0.3V53c0,0.1,0,0.2,0,0.3c-0.1,0.7-0.7,1.2-1.4,1.1h-2.1
			c-0.7,0.1-1.4-0.4-1.5-1.1C65.8,53.2,65.8,53,65.8,53 M67.4,52.8c0.1,0.1,0.1,0.1,0.2,0.1c0,0,0,0,0.1,0h1.2c0.1,0,0.2,0,0.3-0.1
			c0.1-0.1,0.1-0.1,0.1-0.2v-0.4c0-0.2,0-0.2-0.2-0.3c0,0-0.1,0-0.2,0h-1.3l-0.1,0c-0.2,0-0.2,0.1-0.2,0.3v0.5
			C67.3,52.6,67.3,52.7,67.4,52.8"/>
	</g>
</g>
<g>
	<defs>
		<polyline id="SVGID_00000139280780451901523340000017922970289780743595_" points="0,56.7 0,18.3 150,18.3 150,56.7 		"/>
	</defs>
	<clipPath id="SVGID_00000003815039517908018510000003892479507308427661_">
		<use xlink:href="#SVGID_00000139280780451901523340000017922970289780743595_"  style="overflow:visible;"/>
	</clipPath>
	<g id="Grupo_76" transform="translate(0 0)" style="clip-path:url(#SVGID_00000003815039517908018510000003892479507308427661_);">
		<path id="Trazado_4187" class="st1" d="M71.9,56.7v-1.5h3.1c0,0,0.1,0,0.1,0c0.2,0,0.3-0.2,0.3-0.4v-0.4h-2
			c-0.8,0-1.5-0.6-1.5-1.4c0-0.1,0-0.1,0-0.2v-4.5h1.5v4c0,0.3,0.2,0.5,0.4,0.5H75c0.2,0,0.3-0.2,0.4-0.4v-4.1h1.5V55
			c0,0.1,0,0.2,0,0.3c0,0.6-0.5,1.2-1.1,1.3c-0.1,0-0.2,0-0.3,0L71.9,56.7z"/>
	</g>
</g>
<g>
	<defs>
		<polyline id="SVGID_00000126287608828294673610000010506392192741617822_" points="0,56.7 0,18.3 150,18.3 150,56.7 		"/>
	</defs>
	<clipPath id="SVGID_00000056400668554440296360000004963303378532605356_">
		<use xlink:href="#SVGID_00000126287608828294673610000010506392192741617822_"  style="overflow:visible;"/>
	</clipPath>
	<g id="Grupo_77" transform="translate(0 0)" style="clip-path:url(#SVGID_00000056400668554440296360000004963303378532605356_);">
		<path id="Trazado_4189" class="st1" d="M79.5,52.8v-3c0-0.9,0.3-1.3,1-1.4c0.1,0,0.2,0,0.2,0h2.8v1.5h-2.1c-0.3,0-0.4,0-0.5,0.2
			v2.3c0,0.2,0.2,0.4,0.4,0.4c0,0,0,0,0,0h2.1v1.5h-2.5C80,54.4,79.5,53.9,79.5,52.8"/>
	</g>
</g>
<g>
	<defs>
		<polyline id="SVGID_00000003100411063460503010000005086850139079807885_" points="0,56.7 0,18.3 150,18.3 150,56.7 		"/>
	</defs>
	<clipPath id="SVGID_00000083778984185215522890000006048885355792225678_">
		<use xlink:href="#SVGID_00000003100411063460503010000005086850139079807885_"  style="overflow:visible;"/>
	</clipPath>
	<g id="Grupo_78" transform="translate(0 0)" style="clip-path:url(#SVGID_00000083778984185215522890000006048885355792225678_);">
		<path id="Trazado_4191" class="st1" d="M84.4,53v-1.2c-0.1-0.7,0.5-1.4,1.2-1.4c0.1,0,0.2,0,0.3,0h2l0-0.3c0-0.2-0.1-0.2-0.3-0.2
			h-3.2v-1.5h3.5c0.1,0,0.2,0,0.3,0c0.7,0,1.3,0.7,1.3,1.4V53c0,0.1,0,0.2,0,0.3c-0.1,0.7-0.7,1.2-1.4,1.1H86
			c-0.7,0.1-1.4-0.4-1.5-1.1C84.4,53.2,84.4,53,84.4,53 M86,52.8c0.1,0.1,0.1,0.1,0.2,0.1c0,0,0,0,0.1,0h1.2c0.1,0,0.2,0,0.3-0.1
			c0.1-0.1,0.1-0.1,0.1-0.2v-0.4c0-0.2,0-0.2-0.2-0.3c0,0-0.1,0-0.2,0h-1.3l-0.1,0c-0.2,0-0.2,0.1-0.2,0.3v0.5
			C86,52.7,86,52.7,86,52.8"/>
	</g>
</g>
<path id="Trazado_4193" class="st1" d="M90.4,54.4v-1.5h2.7c0.2,0,0.3-0.1,0.3-0.2c0,0,0,0,0-0.1v-0.1c0,0,0-0.1,0-0.1
	c0-0.1-0.1-0.2-0.2-0.2h-1.3c-0.2,0-0.5-0.1-0.7-0.2c-0.5-0.2-0.8-0.6-0.8-1.1v-1.1c0-0.1,0-0.2,0-0.3c0.2-0.7,0.8-1.1,1.5-1H95
	l0,1.5h-2.8c0,0-0.1,0-0.1,0c0,0,0,0,0,0C92,50.1,92,50.1,92,50.2v0.2c0,0.1,0,0.1,0.1,0.2c0,0.1,0.1,0.1,0.3,0.1h1.4
	c0.4,0,0.7,0.2,1,0.5c0.2,0.2,0.3,0.6,0.4,0.9l0,1.1c0,0.3-0.1,0.5-0.2,0.7c-0.3,0.4-0.7,0.7-1.2,0.6L90.4,54.4L90.4,54.4z"/>
<path id="Trazado_4194" class="st1" d="M96,54.4v-8.3h1.5v2.3h2.1c0.1,0,0.2,0,0.2,0c0.6,0.1,1.1,0.5,1.1,1.1v4.9h-1.5v-4.2l0-0.1
	c0-0.2-0.1-0.2-0.3-0.3h-1.2c-0.1,0-0.3,0-0.3,0.1c0,0-0.1,0.1-0.1,0.2v4.2L96,54.4L96,54.4z"/>
<path id="Trazado_4195" class="st1" d="M101.8,53.5c0-0.3,0.1-0.5,0.3-0.7c0.4-0.4,1-0.4,1.3,0c0,0,0,0,0,0c0.4,0.4,0.4,1,0,1.3
	c-0.4,0.4-1,0.4-1.3,0C101.9,54,101.8,53.7,101.8,53.5"/>
<path id="Trazado_4196" class="st1" d="M107.8,56.7V50c0-0.1,0-0.2,0-0.3c0-0.7,0.5-1.2,1.1-1.3c0.1,0,0.1,0,0.2,0h2.2
	c0.1,0,0.2,0,0.3,0c0.7,0.1,1.3,0.8,1.2,1.5c0,0,0,0,0,0v3.1c0,0.3-0.1,0.6-0.3,0.8c-0.1,0.1-0.1,0.1-0.2,0.2
	c-0.3,0.3-0.6,0.4-1,0.4h-2.1v2.3C108.8,56.7,108.3,56.6,107.8,56.7 M109.3,52.5c0,0.2,0.2,0.4,0.4,0.4h1.3c0.1,0,0.2-0.1,0.2-0.1
	c0-0.1,0.1-0.1,0.1-0.2v-2.3c0-0.2-0.1-0.3-0.3-0.3c0,0,0,0-0.1,0h-1.2c-0.2,0-0.3,0.1-0.4,0.2c0,0.1,0,0.1-0.1,0.2L109.3,52.5"/>
<path id="Trazado_4197" class="st1" d="M113.9,53v-1.2c-0.1-0.7,0.5-1.4,1.2-1.4c0.1,0,0.2,0,0.3,0h2.1V50c0-0.2-0.1-0.2-0.3-0.2
	h-3.2v-1.5h3.5c0.1,0,0.2,0,0.3,0c0.7,0,1.3,0.7,1.3,1.4V53c0,0.1,0,0.2,0,0.3c-0.1,0.7-0.7,1.2-1.4,1.1h-2.1
	c-0.7,0.1-1.4-0.4-1.5-1.1C113.9,53.2,113.9,53.1,113.9,53 M115.5,52.8c0.1,0.1,0.1,0.1,0.2,0.1c0,0,0,0,0.1,0h1.2
	c0.1,0,0.2,0,0.3-0.1c0.1-0.1,0.1-0.1,0.1-0.2v-0.4c0-0.2,0-0.2-0.2-0.3c0,0-0.1,0-0.2,0h-1.3l-0.1,0c-0.2,0-0.2,0.1-0.2,0.3v0.5
	C115.4,52.7,115.4,52.7,115.5,52.8"/>
<path id="Trazado_4198" class="st1" d="M120,56.7v-1.5h3.1c0,0,0.1,0,0.1,0c0.2,0,0.3-0.2,0.3-0.4v-0.4h-2c-0.5,0-1.1-0.2-1.3-0.7
	c-0.2-0.3-0.2-0.6-0.2-0.9v-4.5h1.5v4c0,0.3,0.2,0.5,0.4,0.5h1.2c0.2,0,0.3-0.2,0.4-0.4v-4.1h1.5V55c0,0.1,0,0.2,0,0.3
	c0,0.6-0.5,1.2-1.1,1.3c-0.1,0-0.2,0-0.3,0L120,56.7z"/>
<path id="Trazado_4199" class="st1" d="M127.5,54.4v-1.5h2.7c0.2,0,0.3-0.1,0.3-0.2c0,0,0,0,0-0.1v-0.1c0,0,0-0.1,0-0.1
	c0-0.1-0.1-0.2-0.2-0.2H129c-0.2,0-0.5-0.1-0.7-0.2c-0.5-0.2-0.8-0.6-0.8-1.1v-1.1c0-0.1,0-0.2,0-0.3c0.2-0.7,0.8-1.1,1.4-1h3.1
	l0,1.5h-2.8c0,0-0.1,0-0.1,0c0,0,0,0,0,0c-0.1,0.1-0.1,0.2-0.1,0.2v0.2c0,0.1,0,0.1,0.1,0.2c0,0.1,0.1,0.1,0.3,0.1h1.4
	c0.4,0,0.7,0.2,1,0.5c0.2,0.2,0.3,0.6,0.4,0.9l0,1.1c0,0.3-0.1,0.5-0.2,0.7c-0.3,0.4-0.7,0.7-1.2,0.6L127.5,54.4L127.5,54.4z"/>
<path id="Trazado_4200" class="st1" d="M133.1,53v-1.2c-0.1-0.7,0.5-1.4,1.2-1.4c0.1,0,0.2,0,0.3,0h2l0-0.3c0-0.2-0.1-0.2-0.3-0.2
	h-3.2v-1.5h3.5c0.1,0,0.2,0,0.3,0c0.7,0,1.3,0.7,1.3,1.4V53c0,0.1,0,0.2,0,0.3c-0.1,0.7-0.7,1.2-1.4,1.1h-2.1
	c-0.7,0.1-1.4-0.4-1.5-1.1C133.1,53.2,133.1,53.1,133.1,53 M134.7,52.8c0.1,0.1,0.1,0.1,0.2,0.1c0,0,0,0,0.1,0h1.2
	c0.1,0,0.2,0,0.3-0.1c0.1-0.1,0.1-0.1,0.1-0.2v-0.4c0-0.2,0-0.2-0.2-0.3c0,0-0.1,0-0.2,0h-1.3l-0.1,0c-0.2,0-0.2,0.1-0.2,0.3v0.5
	C134.6,52.6,134.7,52.7,134.7,52.8"/>
<path id="Trazado_4201" class="st1" d="M139.2,54.4v-6.9c0-0.8,0.7-1.4,1.5-1.4c0,0,0.1,0,0.1,0h1v1.5h-0.6c0,0-0.1,0-0.1,0
	c-0.2,0-0.4,0.2-0.4,0.4c0,0,0,0,0,0v0.3h1.1v1.5h-1.1v4.5L139.2,54.4L139.2,54.4z"/>
<path id="Trazado_4202" class="st1" d="M142.2,49.8c0-0.1,0-0.2,0-0.3c0.1-0.7,0.8-1.2,1.5-1.1h2.1c0.1,0,0.2,0,0.3,0
	c0.6,0,1.1,0.6,1.2,1.2V51l-3.5,1.3v0.1c0,0.2,0.1,0.4,0.3,0.4h3.2v1.5h-3.4c-0.3,0-0.6,0-0.9-0.2c-0.5-0.3-0.8-0.8-0.7-1.4
	L142.2,49.8L142.2,49.8z M145.7,50.3L145.7,50.3c0-0.2-0.2-0.3-0.3-0.3h-1.1c-0.1,0-0.1,0-0.2,0c-0.1,0-0.2,0.1-0.3,0.2
	c0,0,0,0.1,0,0.2V51L145.7,50.3z"/>
<path id="Trazado_4203" class="st1" d="M148,53.5c0-0.5,0.4-1,0.9-1c0.3,0,0.5,0.1,0.7,0.3c0.4,0.4,0.4,1,0,1.3c0,0,0,0,0,0
	c-0.4,0.4-1,0.4-1.3,0C148.1,54,148,53.7,148,53.5"/>
</svg>
