<svg xmlns="http://www.w3.org/2000/svg" width="102.865" height="35.104" viewBox="0 0 102.865 35.104">
  <path id="logo-landing-4" d="M81.775,3.447l8.572-1.542V34.742H81.775Zm12.518,0v31.34h8.572V1.9ZM69.574,34.787h8.572V10.749H69.574ZM13.017,14.151c-1.089-.091-3.583-.227-3.583-2.495,0-2.721,3.628-2.721,4.944-2.721A29.253,29.253,0,0,1,22.042,10.3s1.225.454,2.268.862l.091.045V3.719l-.136-.045A30.643,30.643,0,0,0,13.062,1.9C3.4,1.9,0,7.529,0,12.336,0,15.1,1.179,21.634,12.246,22.4c.952.045,3.4.181,3.4,2.54,0,1.9-2.041,3.039-5.443,3.039A26.957,26.957,0,0,1,.589,26.124v7.665A45,45,0,0,0,12.019,35.1c9.434,0,13.652-5.306,13.652-10.613,0-5.941-4.717-9.842-12.654-10.341Zm51.75-3.764c-7.892.272-11.928,3.81-11.928,10.84V34.742h8.618V23.72c0-4.218.544-6.032,5.579-6.214V10.522a12.217,12.217,0,0,0-2.268-.136ZM41.545,10.7a28.283,28.283,0,0,1-4.9,8.345V1.9L27.8,3.674V34.787h8.844V25.172a34.034,34.034,0,0,1,3.81,9.615H51.024C49.981,30.433,45.4,22.405,45.4,22.405a38.928,38.928,0,0,0,6.214-11.7ZM73.883,8.436A4.239,4.239,0,0,0,78.1,4.218a4.218,4.218,0,1,0-4.218,4.218Z" transform="translate(0)" fill="#fff"/>
</svg>
