<svg xmlns="http://www.w3.org/2000/svg" width="79.999" height="13.536" viewBox="0 0 79.999 13.536">
  <g id="logo-neteller" transform="translate(-3.131 -17.474)">
    <path id="Trazado_4159" data-name="Trazado 4159" d="M73.666,23.2a3.3,3.3,0,0,1-1.919.438H70.9l.64-3.5h.64a2.912,2.912,0,0,1,1.582.337,1.361,1.361,0,0,1,.606,1.212,1.717,1.717,0,0,1-.707,1.515M23.3,27.574H16.733l.438-2.289h4.107l.471-2.592H17.676l.4-2.256h6.5Zm53.9-9.09a7.636,7.636,0,0,0-4.31-.976H67.908L66.057,27.574H59.525l.4-2.289h3.939l.471-2.559H60.4l.438-2.289h4.074l.539-2.963H57.2l-1.751,9.562h-3.03l1.784-9.562H49.829l-1.751,9.562H45.115L46.9,17.474H42.59l-1.852,10.1h-6.6l.4-2.289h3.973l.471-2.559H35.048l.4-2.289H39.56l.539-2.963H14.41l-1.448,7.979-2.929-7.946H5.555L3.131,30.537H7.407l1.448-8.215,2.828,8.215H27L28.853,20.47h2.39L29.392,30.537H69.659l1.178-6.363,1.885,6.363H77l-1.953-5.185.438-.1A3.856,3.856,0,0,0,77.773,23.9a4.14,4.14,0,0,0,.808-2.626,3.114,3.114,0,0,0-1.38-2.794" fill="#a6a6a6"/>
    <path id="Trazado_4160" data-name="Trazado 4160" d="M80.7,28.988l.572-.034a.672.672,0,0,0,.3-.067.336.336,0,0,0,.168-.135.427.427,0,0,0,.034-.2.306.306,0,0,0-.1-.236.5.5,0,0,0-.337-.067l-.64.034Zm-.2,1.145-.1-2.054.909-.034a1.272,1.272,0,0,1,.4.034.6.6,0,0,1,.236.168.543.543,0,0,1,.1.3.506.506,0,0,1-.135.37.761.761,0,0,1-.438.2.736.736,0,0,1,.168.1,1.925,1.925,0,0,1,.236.269l.37.539-.337.034-.3-.4a2.685,2.685,0,0,1-.2-.269l-.135-.135a.2.2,0,0,0-.135-.034h-.471l.034.909Z" fill="#a6a6a6"/>
    <path id="Trazado_4161" data-name="Trazado 4161" d="M79.625,29.156a1.548,1.548,0,0,1,.4-1.145,1.668,1.668,0,0,1,1.111-.539,1.634,1.634,0,0,1,1.683,1.515v.067a1.59,1.59,0,0,1-1.515,1.582,1.544,1.544,0,0,1-1.683-1.481m1.481-1.986a1.825,1.825,0,0,0-1.313.64,2.055,2.055,0,0,0-.505,1.38,1.944,1.944,0,0,0,2.02,1.818,1.922,1.922,0,0,0-.2-3.838" fill="#a6a6a6"/>
  </g>
</svg>
