<svg xmlns="http://www.w3.org/2000/svg" width="40.289" height="31.33"><g data-name="Grupo 63" fill="#fff"><path data-name="Trazado 4144" d="M6.893 28.12a1.121 1.121 0 0 0-.408-.267 1.34 1.34 0 0 0-.525-.1 2 2 0 0 0-.308.025 1.381 1.381 0 0 0-.317.092 1 1 0 0 0-.292.183 1.051 1.051 0 0 0-.242.292 1.184 1.184 0 0 0-.45-.433 1.3 1.3 0 0 0-.65-.158 1.424 1.424 0 0 0-.258.025 1.319 1.319 0 0 0-.258.075 1 1 0 0 0-.25.15 1.237 1.237 0 0 0-.217.242v-.4h-.692v3.292h.7v-1.826a1.038 1.038 0 0 1 .067-.375.778.778 0 0 1 .175-.275.766.766 0 0 1 .258-.167.821.821 0 0 1 .317-.058.7.7 0 0 1 .55.225.924.924 0 0 1 .192.642v1.834h.7v-1.826a1.038 1.038 0 0 1 .067-.375.778.778 0 0 1 .175-.275.766.766 0 0 1 .258-.167.822.822 0 0 1 .317-.058.7.7 0 0 1 .55.225.924.924 0 0 1 .192.642v1.834h.7v-2.076a1.593 1.593 0 0 0-.092-.533.952.952 0 0 0-.258-.408Z"/><path data-name="Trazado 4145" d="M10.585 28.237a1.23 1.23 0 0 0-.425-.35 1.261 1.261 0 0 0-.608-.133 1.673 1.673 0 0 0-.65.125 1.633 1.633 0 0 0-.525.358 1.556 1.556 0 0 0-.35.55 1.871 1.871 0 0 0-.125.7 1.934 1.934 0 0 0 .125.7 1.721 1.721 0 0 0 .35.55 1.634 1.634 0 0 0 .525.358 1.673 1.673 0 0 0 .65.125 1.261 1.261 0 0 0 .608-.133 1.23 1.23 0 0 0 .425-.35v.392h.717v-3.292h-.717Zm-.033 1.667a1.11 1.11 0 0 1-.2.333.989.989 0 0 1-.317.225 1.082 1.082 0 0 1-.408.083.939.939 0 0 1-.725-.308 1.066 1.066 0 0 1-.267-.742 1.311 1.311 0 0 1 .067-.408.963.963 0 0 1 .2-.333.921.921 0 0 1 .308-.225.955.955 0 0 1 .417-.083.943.943 0 0 1 .408.083.849.849 0 0 1 .317.225.962.962 0 0 1 .2.333 1.123 1.123 0 0 1 .075.417 1.1 1.1 0 0 1-.075.4Z"/><path data-name="Trazado 4146" d="M14.602 29.481a1.817 1.817 0 0 0-.842-.317l-.342-.05a1.664 1.664 0 0 1-.217-.042.861.861 0 0 1-.175-.058.339.339 0 0 1-.117-.1.258.258 0 0 1-.042-.142.336.336 0 0 1 .167-.283.794.794 0 0 1 .458-.108 1.923 1.923 0 0 1 .308.025 2.82 2.82 0 0 1 .283.067 1.625 1.625 0 0 1 .242.092c.075.033.133.067.183.092l.308-.558a2.459 2.459 0 0 0-.6-.258 3 3 0 0 0-.733-.092 1.986 1.986 0 0 0-.567.075 1.266 1.266 0 0 0-.425.208.969.969 0 0 0-.275.333.954.954 0 0 0-.092.442.789.789 0 0 0 .283.642 1.565 1.565 0 0 0 .833.325l.342.042a1.062 1.062 0 0 1 .433.133.277.277 0 0 1 .142.233.323.323 0 0 1-.192.292 1.124 1.124 0 0 1-.558.108 2.455 2.455 0 0 1-.367-.025 1.492 1.492 0 0 1-.292-.075 1.219 1.219 0 0 1-.233-.108c-.067-.042-.133-.083-.192-.125l-.333.542a1.688 1.688 0 0 0 .375.217 1.865 1.865 0 0 0 .383.125 1.886 1.886 0 0 0 .358.058c.108.008.208.017.3.017a2.446 2.446 0 0 0 .633-.075 1.394 1.394 0 0 0 .475-.225.941.941 0 0 0 .392-.775.769.769 0 0 0-.308-.65Z"/><path data-name="Trazado 4147" d="M21.337 28.228a1.529 1.529 0 0 0-.492-.358 1.562 1.562 0 0 0-.633-.125 1.727 1.727 0 0 0-.667.125 1.407 1.407 0 0 0-.517.358 1.522 1.522 0 0 0-.333.55 1.946 1.946 0 0 0-.117.708 1.915 1.915 0 0 0 .125.708 1.634 1.634 0 0 0 .35.55 1.562 1.562 0 0 0 .533.35 1.814 1.814 0 0 0 .683.125 2.525 2.525 0 0 0 .717-.1 1.827 1.827 0 0 0 .642-.358l-.358-.517a1.909 1.909 0 0 1-.458.258 1.512 1.512 0 0 1-.5.092 1.075 1.075 0 0 1-.333-.05.881.881 0 0 1-.292-.15 1.141 1.141 0 0 1-.225-.258 1.039 1.039 0 0 1-.125-.383h2.433a.673.673 0 0 0 .008-.133v-.139a2.055 2.055 0 0 0-.117-.7 1.631 1.631 0 0 0-.325-.55Zm-2.009.975a1.055 1.055 0 0 1 .1-.325.941.941 0 0 1 .175-.258.766.766 0 0 1 .258-.167.892.892 0 0 1 .342-.058.753.753 0 0 1 .558.217 1.062 1.062 0 0 1 .275.6h-1.708Z"/><path data-name="Trazado 4148" d="M30.897 28.237a1.229 1.229 0 0 0-.425-.35 1.261 1.261 0 0 0-.608-.133 1.673 1.673 0 0 0-.65.125 1.634 1.634 0 0 0-.525.358 1.556 1.556 0 0 0-.35.55 1.87 1.87 0 0 0-.125.7 1.934 1.934 0 0 0 .125.7 1.721 1.721 0 0 0 .35.55 1.634 1.634 0 0 0 .525.358 1.673 1.673 0 0 0 .65.125 1.261 1.261 0 0 0 .608-.133 1.23 1.23 0 0 0 .425-.35v.392h.717v-3.292h-.717Zm-.038 1.667a1.11 1.11 0 0 1-.2.333.989.989 0 0 1-.317.225 1.082 1.082 0 0 1-.408.083.939.939 0 0 1-.725-.308 1.066 1.066 0 0 1-.267-.742 1.311 1.311 0 0 1 .067-.408.963.963 0 0 1 .2-.333.921.921 0 0 1 .308-.225.955.955 0 0 1 .417-.083.943.943 0 0 1 .408.083.849.849 0 0 1 .317.225.963.963 0 0 1 .2.333 1.123 1.123 0 0 1 .075.417 1.1 1.1 0 0 1-.075.4Z"/><path data-name="Trazado 4149" d="M17.686 30.471a1.034 1.034 0 0 1-.342.067.575.575 0 0 1-.208-.033.444.444 0 0 1-.167-.108.48.48 0 0 1-.108-.192.924.924 0 0 1-.042-.283v-1.435h1.158v-.65H16.82v-1h-.725v1h-.65v.65h.658v1.45a1.308 1.308 0 0 0 .308.967 1.181 1.181 0 0 0 .875.308 1.451 1.451 0 0 0 .558-.1c.108-.042.208-.092.308-.142l-.25-.6a.862.862 0 0 1-.217.1Z"/><path data-name="Trazado 4150" d="M24.179 27.754a1.323 1.323 0 0 0-.55.108 1.128 1.128 0 0 0-.408.408v-.433h-.65v3.292h.658V29.32a1.043 1.043 0 0 1 .058-.375.883.883 0 0 1 .158-.275.677.677 0 0 1 .25-.175.794.794 0 0 1 .317-.058 1.187 1.187 0 0 1 .283.033.7.7 0 0 1 .142.042l.217-.692a1.332 1.332 0 0 0-.175-.042 1.121 1.121 0 0 0-.3-.025Z"/><path data-name="Trazado 4151" d="M34.18 27.754a1.323 1.323 0 0 0-.55.108 1.128 1.128 0 0 0-.408.408v-.433h-.65v3.292h.658V29.32a1.043 1.043 0 0 1 .058-.375.883.883 0 0 1 .158-.275.677.677 0 0 1 .25-.175.794.794 0 0 1 .317-.058 1.187 1.187 0 0 1 .283.033.7.7 0 0 1 .142.042l.217-.692a1.332 1.332 0 0 0-.175-.042 1.152 1.152 0 0 0-.3-.025Z"/><path data-name="Trazado 4152" d="M37.539 26.495v1.742a1.23 1.23 0 0 0-.425-.35 1.261 1.261 0 0 0-.608-.133 1.673 1.673 0 0 0-.65.125 1.633 1.633 0 0 0-.525.358 1.556 1.556 0 0 0-.35.55 1.87 1.87 0 0 0-.125.7 1.934 1.934 0 0 0 .125.7 1.721 1.721 0 0 0 .35.55 1.634 1.634 0 0 0 .525.358 1.673 1.673 0 0 0 .65.125 1.261 1.261 0 0 0 .608-.133 1.229 1.229 0 0 0 .425-.35v.392h.717v-4.634Zm-.033 3.409a1.109 1.109 0 0 1-.2.333.989.989 0 0 1-.317.225 1.082 1.082 0 0 1-.408.083.939.939 0 0 1-.725-.308 1.066 1.066 0 0 1-.263-.742 1.311 1.311 0 0 1 .067-.408.851.851 0 0 1 .2-.333.921.921 0 0 1 .308-.225.955.955 0 0 1 .417-.083.943.943 0 0 1 .408.083.849.849 0 0 1 .317.225.962.962 0 0 1 .2.333 1.123 1.123 0 0 1 .075.417 1.1 1.1 0 0 1-.079.399Z"/><path data-name="Trazado 4153" d="M25.904 28.72a.967.967 0 0 1 .325-.217 1.111 1.111 0 0 1 .408-.075 1.342 1.342 0 0 1 .45.075 1.056 1.056 0 0 1 .35.208l.35-.575a1.922 1.922 0 0 0-.44-.255 1.948 1.948 0 0 0-1.417 0 1.711 1.711 0 0 0-.558.367 1.633 1.633 0 0 0-.367.55 1.707 1.707 0 0 0-.133.692 1.735 1.735 0 0 0 .133.692 1.924 1.924 0 0 0 .367.55 1.711 1.711 0 0 0 .558.367 1.948 1.948 0 0 0 1.417 0 1.663 1.663 0 0 0 .442-.258l-.35-.575a1.056 1.056 0 0 1-.35.208 1.342 1.342 0 0 1-.45.075 1.079 1.079 0 0 1-.408-.075.967.967 0 0 1-.325-.217.924.924 0 0 1-.217-.333 1.2 1.2 0 0 1-.075-.425 1.137 1.137 0 0 1 .075-.425.925.925 0 0 1 .217-.35Z"/></g><path data-name="Trazado 4154" d="M39.776 30.646a.346.346 0 0 1 .133.025.368.368 0 0 1 .183.183.368.368 0 0 1 0 .267.368.368 0 0 1-.183.183.368.368 0 0 1-.267 0 .254.254 0 0 1-.108-.075.317.317 0 0 1-.075-.108.368.368 0 0 1 0-.267.336.336 0 0 1 .317-.208Zm0 .583a.3.3 0 0 0 .092-.017.291.291 0 0 0 .075-.05.2.2 0 0 0 .05-.075.355.355 0 0 0 .017-.092.3.3 0 0 0-.017-.092.169.169 0 0 0-.05-.075.2.2 0 0 0-.075-.05.179.179 0 0 0-.092-.017.419.419 0 0 0-.1.017.291.291 0 0 0-.075.05.2.2 0 0 0-.05.075.355.355 0 0 0-.017.092.3.3 0 0 0 .017.092.169.169 0 0 0 .05.075.2.2 0 0 0 .075.05.418.418 0 0 0 .1.018Zm.017-.392a.134.134 0 0 1 .092.025.081.081 0 0 1 .033.075.076.076 0 0 1-.025.058.126.126 0 0 1-.067.033l.092.108h-.1l-.083-.1h-.008v.1h-.083v-.3Zm-.067.075v.058h.067c.017 0 .025 0 .033-.008s.008-.008.008-.025a.031.031 0 0 0-.008-.025c-.008-.008-.017-.008-.033-.008Z" fill="#fff"/><path data-name="Trazado 4155" d="M15.403 12.427a12.391 12.391 0 0 1 4.717-9.743 12.418 12.418 0 1 0 0 19.469 12.333 12.333 0 0 1-4.717-9.726Z" fill="#666"/><path data-name="Trazado 4156" d="M15.403 12.427a12.391 12.391 0 0 0 4.717 9.743 12.42 12.42 0 0 0 0-19.486 12.4 12.4 0 0 0-4.717 9.743Z" fill="#818181"/><path data-name="Trazado 4157" d="M39.397 19.144v-.367h-.15v-.1h.4v.1h-.15v.367Zm.783 0v-.325l-.108.275h-.117l-.108-.275v.317h-.108v-.467h.158l.117.3.117-.3h.158v.467Z" fill="#a7a7a7"/><path data-name="Trazado 4158" d="M27.821.009a12.374 12.374 0 0 0-7.7 2.684 12.42 12.42 0 0 1 0 19.486 12.421 12.421 0 1 0 7.7-22.17Z" fill="#ccc"/></svg>