<svg xmlns="http://www.w3.org/2000/svg" width="124.679" height="127.062"><g transform="translate(15.146 18.086)"><circle data-name="Elipse 715" cx="55" cy="55" r="55" transform="translate(-8 -8)" fill="#ff293e" opacity=".65"/><path d="M109.533 45.445c0-.794-1.588-1.191-1.588-1.191-27.791-8.34-51.222-30.575-58.369-56.781l-1.191-4.368s-.397-1.191-1.191-1.191-1.191 1.191-1.191 1.191l-1.192 4.368c-7.147 26.206-30.574 48.441-58.369 56.781 0 0-1.588.4-1.588 1.191s1.588 1.191 1.588 1.191c27.795 8.338 51.222 30.578 58.369 56.778l1.191 4.368s.4 1.191 1.191 1.191 1.191-1.191 1.191-1.191l1.191-4.368c7.148-26.2 30.579-48.44 58.37-56.778-.4.4 1.191 0 1.588-1.191" fill="#ff293e"/><g data-name="Grupo 393" fill="none" stroke="#fff" stroke-linecap="round" stroke-linejoin="round" stroke-width="2"><path data-name="Trazado 5091" d="M45.867 54.731A10.611 10.611 0 1 0 56.478 44.12a10.611 10.611 0 0 0-10.611 10.611Z"/><path data-name="Trazado 5092" d="M52.499 54.731a3.979 3.979 0 1 0 3.979-3.979 3.979 3.979 0 0 0-3.979 3.979Z"/><path data-name="Trazado 5093" d="M56.478 50.752V44.12"/><path data-name="Trazado 5094" d="m59.925 52.741 5.742-3.316"/><path data-name="Trazado 5095" d="m53.031 52.741-5.742-3.316"/><path data-name="Trazado 5096" d="M56.478 58.71v6.632"/><path data-name="Trazado 5097" d="m59.925 56.721 5.742 3.316"/><path data-name="Trazado 5098" d="m53.031 56.721-5.742 3.312"/><path data-name="Trazado 5099" d="M43.214 62.687h-5.426A10.491 10.491 0 0 1 29.473 45.8c5.992-6.947 8.436-9.638 8.436-9.638H48.52s.545.8 2.011 2.653"/><path data-name="Trazado 5100" d="m48.52 36.162 3.221-8.117a1.326 1.326 0 0 0-1.779-1.779l-3.36 1.677a1.326 1.326 0 0 1-1.7-.451l-1.06-1.607a.755.755 0 0 0-1.256 0l-1.07 1.6a1.326 1.326 0 0 1-1.7.451l-3.36-1.677a1.326 1.326 0 0 0-1.772 1.781l3.22 8.117"/></g></g></svg>