<svg xmlns="http://www.w3.org/2000/svg" width="26" height="26"><g transform="translate(-392 -650)"><circle data-name="Ellipse 785" cx="11" cy="11" r="11" transform="translate(394 652)" fill="#fff"/><path data-name="Path 4899" d="M405 676a13 13 0 1 0-13-13 13 13 0 0 0 13 13Zm-5.363-16.835a1.083 1.083 0 0 1 1.528-1.528l3.64 3.64a.271.271 0 0 0 .383.007l.007-.007 3.64-3.64a1.1 1.1 0 0 1 1.582 1.528l-3.64 3.64a.271.271 0 0 0-.007.383l.007.007 3.64 3.64a1.083 1.083 0 0 1 .05 1.531 2.381 2.381 0 0 1-.05.051 1.086 1.086 0 0 1-1.528 0l-3.64-3.64a.271.271 0 0 0-.383-.007l-.007.007-3.694 3.64a1.08 1.08 0 1 1-1.528-1.528l3.64-3.64a.271.271 0 0 0 .007-.383l-.007-.007Z" fill="#13171d"/></g></svg>