<svg xmlns="http://www.w3.org/2000/svg" width="49" height="49"><g data-name="Elipse 766" transform="translate(5 5)" fill="#fff" stroke="rgba(15,19,25,0.2)" stroke-width="5"><circle cx="19.5" cy="19.5" r="19.5" stroke="none"/><circle cx="19.5" cy="19.5" r="22" fill="none"/></g><path data-name="Trazado 5386" d="m25.067 32.742 7.203-7.223a.821.821 0 0 0-.583-1.4H28.58a.205.205 0 0 1-.205-.205V16.84a.821.821 0 0 0-.822-.821h-6.107a.821.821 0 0 0-.821.821v7.065a.205.205 0 0 1-.205.205h-3.107a.821.821 0 0 0-.583 1.4l7.228 7.227a.821.821 0 0 0 1.158 0Z" fill="#ff293e"/></svg>