<svg xmlns="http://www.w3.org/2000/svg" width="80" height="80"><g data-name="Elipse 718" fill="none" stroke="#ff293e" stroke-width="2"><circle cx="40" cy="40" r="40" stroke="none"/><circle cx="40" cy="40" r="39"/></g><g data-name="Grupo 389" fill="#ff293e"><path data-name="Trazado 5085" d="M30.365 31.169a.563.563 0 0 1-.442-.905 9.384 9.384 0 0 1 14.639 0 .563.563 0 0 1-.431.905Z"/><path data-name="Trazado 5086" d="M31.171 43.037a.885.885 0 0 1-.331-.066.839.839 0 0 1-.431-1.1l.994-2.318a.254.254 0 0 0 0-.265.265.265 0 0 0-.232-.11h-.552a.828.828 0 1 1 0-1.656h2.208a.85.85 0 0 1 .7.375.828.828 0 0 1 .066.784l-1.66 3.861a.828.828 0 0 1-.762.495Z"/><path data-name="Trazado 5087" d="M36.691 43.037a.884.884 0 0 1-.331-.066.839.839 0 0 1-.431-1.1l.994-2.318a.254.254 0 0 0 0-.265.265.265 0 0 0-.232-.11h-.552a.828.828 0 0 1 0-1.656h2.208a.85.85 0 0 1 .7.375.828.828 0 0 1 .066.784l-1.66 3.861a.828.828 0 0 1-.762.495Z"/><path data-name="Trazado 5088" d="M42.211 43.037a.883.883 0 0 1-.331-.066.839.839 0 0 1-.431-1.1l.994-2.318a.255.255 0 0 0 0-.265.265.265 0 0 0-.232-.121h-.555a.828.828 0 0 1 0-1.656h2.208a.85.85 0 0 1 .7.375.828.828 0 0 1 .066.784l-1.657 3.859a.828.828 0 0 1-.762.508Z"/><path data-name="Trazado 5089" d="M51.042 35.033a2.208 2.208 0 0 0-1.225 4.041.286.286 0 0 1 .121.232v5.936a2.208 2.208 0 0 1-1.883 2.211.254.254 0 0 1-.221-.066.276.276 0 0 1-.1-.21v-12.7a1.656 1.656 0 0 0-1.656-1.656H28.411a1.656 1.656 0 0 0-1.656 1.66v17.111a1.656 1.656 0 0 0 1.656 1.656h17.663a1.656 1.656 0 0 0 1.656-1.656v-1.655a.276.276 0 0 1 .265-.276 4.416 4.416 0 0 0 4.151-4.419v-5.937a.287.287 0 0 1 .121-.232 2.208 2.208 0 0 0-1.225-4.041ZM35.035 50.212h-4.968a.828.828 0 1 1 0-1.656h4.968a.828.828 0 1 1 0 1.656Zm11.04-6.9a1.1 1.1 0 0 1-1.1 1.1h-15.46a1.1 1.1 0 0 1-1.1-1.1v-6.07a1.1 1.1 0 0 1 1.1-1.1H44.97a1.1 1.1 0 0 1 1.1 1.1Z"/></g></svg>