<svg xmlns="http://www.w3.org/2000/svg" width="50" height="50"><g transform="translate(-359.501 6.017)"><circle data-name="Ellipse 787" cx="25" cy="25" r="25" transform="translate(359.501 -6.017)" fill="#ff293e" opacity=".3"/><circle data-name="Ellipse 766" cx="20" cy="20" r="20" transform="translate(364.501 -1.017)" fill="#ff293e"/><path data-name="Path 5386" d="m385.067 28.225 7.203-7.223a.821.821 0 0 0-.583-1.4h-3.107a.205.205 0 0 1-.205-.205v-7.074a.821.821 0 0 0-.822-.821h-6.107a.821.821 0 0 0-.821.821v7.065a.205.205 0 0 1-.205.205h-3.107a.821.821 0 0 0-.583 1.4l7.228 7.227a.821.821 0 0 0 1.158 0Z" fill="#fff"/></g></svg>