<svg xmlns="http://www.w3.org/2000/svg" width="49.968" height="50.003"><g transform="translate(-27.571 -27.568)" fill="none" stroke="#e99c00" stroke-linecap="round" stroke-linejoin="round" stroke-width="2"><ellipse data-name="Elipse 757" cx="16.604" cy="7.38" rx="16.604" ry="7.38" transform="translate(43.33 39.672)"/><path data-name="Trazado 5408" d="M43.33 47.052v22.139c0 4.059 7.38 7.38 16.6 7.38s16.6-3.321 16.6-7.38V47.052"/><path data-name="Trazado 5409" d="M76.538 58.122c0 4.059-7.38 7.38-16.6 7.38s-16.6-3.321-16.6-7.38"/><path data-name="Trazado 5410" d="M59.565 32.293a24.98 24.98 0 0 0-14.39-3.69c-9.188 0-16.6 3.321-16.6 7.38 0 2.177 2.14 4.133 5.535 5.535"/><path data-name="Trazado 5411" d="M34.106 63.657c-3.395-1.4-5.535-3.358-5.535-5.535V35.983"/><path data-name="Trazado 5412" d="M34.106 52.587c-3.395-1.4-5.535-3.358-5.535-5.535"/></g></svg>