<svg xmlns="http://www.w3.org/2000/svg" width="60.047" height="60.047"><g stroke-linecap="round" stroke-linejoin="round"><g data-name="Trazado 5107" fill="#13171d"><path d="M30.024 5c3.376 0 6.653.662 9.741 1.968a24.934 24.934 0 0 1 7.953 5.36 24.934 24.934 0 0 1 5.36 7.953 24.872 24.872 0 0 1 1.97 9.742c0 3.376-.663 6.654-1.97 9.742a24.934 24.934 0 0 1-5.36 7.952 24.934 24.934 0 0 1-7.953 5.361 24.872 24.872 0 0 1-9.741 1.969c-3.376 0-6.654-.663-9.742-1.969a24.934 24.934 0 0 1-7.953-5.36 24.934 24.934 0 0 1-5.36-7.953A24.872 24.872 0 0 1 5 30.023c0-3.376.662-6.654 1.969-9.742a24.934 24.934 0 0 1 5.36-7.952 24.934 24.934 0 0 1 7.953-5.361 24.872 24.872 0 0 1 9.742-1.969Z"/><path d="M30.024 10C18.964 10 10 18.963 10 30.022s8.965 20.024 20.024 20.024c11.058 0 20.023-8.965 20.023-20.024 0-11.059-8.965-20.024-20.023-20.024m0-10c16.555 0 30.023 13.469 30.023 30.024S46.58 60.047 30.024 60.047 0 46.578 0 30.023 13.469-.001 30.024-.001Z"/></g><g data-name="Trazado 5287" fill="none"><path d="M50.047 30.023a20.024 20.024 0 1 0-20.023 20.024 20.024 20.024 0 0 0 20.023-20.024Z"/><path d="M30.024 10C18.964 10 10 18.963 10 30.022s8.965 20.024 20.024 20.024c11.058 0 20.023-8.965 20.023-20.024 0-11.059-8.965-20.024-20.023-20.024m0-2a21.948 21.948 0 0 1 15.573 6.45 21.948 21.948 0 0 1 6.45 15.574 21.948 21.948 0 0 1-6.45 15.573 21.948 21.948 0 0 1-15.573 6.45 21.948 21.948 0 0 1-15.573-6.45A21.948 21.948 0 0 1 8 30.023c0-2.972.583-5.857 1.732-8.573a21.948 21.948 0 0 1 4.719-7A21.948 21.948 0 0 1 30.024 8Z" fill="#ff293e"/></g><path data-name="Trazado 5105" d="M37.738 30.024H22.31" fill="none" stroke="#ff293e" stroke-width="2"/><path data-name="Trazado 5106" d="m31.31 23.594 6.429 6.429-6.429 6.429" fill="none" stroke="#ff293e" stroke-width="2"/></g></svg>