<svg xmlns="http://www.w3.org/2000/svg" width="49" height="49"><g data-name="Elipse 771" transform="translate(5 5)" fill="#fff" stroke="rgba(255,255,255,0.5)" stroke-width="5"><circle cx="19.5" cy="19.5" r="19.5" stroke="none"/><circle cx="19.5" cy="19.5" r="22" fill="none"/></g><path data-name="Trazado 5444" d="M18.48 30.507a.948.948 0 0 0 1 1h1v3.515a1.543 1.543 0 0 0 1.5 1.5 1.543 1.543 0 0 0 1.5-1.5V31.51h2.007v3.512a1.505 1.505 0 1 0 3.01 0V31.51h1a.948.948 0 0 0 1-1V20.472H18.48Zm-2.513-10.035a1.543 1.543 0 0 0-1.5 1.506v7.024a1.543 1.543 0 0 0 1.5 1.5 1.543 1.543 0 0 0 1.5-1.5v-7.024a1.543 1.543 0 0 0-1.5-1.506m17.061 0a1.543 1.543 0 0 0-1.5 1.5v7.03a1.505 1.505 0 1 0 3.01 0v-7.024a1.543 1.543 0 0 0-1.5-1.5m-5.026-5.824 1.3-1.3a.485.485 0 0 0 0-.7.485.485 0 0 0-.7 0l-1.5 1.5a4.421 4.421 0 0 0-2.609-.7 5.974 5.974 0 0 0-2.709.6l-1.407-1.507a1.108 1.108 0 0 0-.8 0 1.108 1.108 0 0 0 0 .8l1.3 1.3a6.129 6.129 0 0 0-2.407 4.825h12.04a5.8 5.8 0 0 0-2.508-4.816m-5.518 2.808h-1v-1h1Zm5.017 0h-1v-1h1Z" fill="#ff293e" fill-rule="evenodd"/></svg>