<svg xmlns="http://www.w3.org/2000/svg" width="80" height="80"><g data-name="Elipse 718" fill="none" stroke="#ff293e" stroke-width="2"><circle cx="40" cy="40" r="40" stroke="none"/><circle cx="40" cy="40" r="39"/></g><g data-name="Grupo 382" fill="#ff293e"><path data-name="Trazado 5077" d="M34.097 51.447h11.744a1.468 1.468 0 0 0 0-2.935H34.097a2.067 2.067 0 0 1-2.055-2.055v-4.99a.294.294 0 0 1 .293-.294h1.174a.575.575 0 0 0 .587-.34.552.552 0 0 0-.082-.622l-2.935-3.522a.575.575 0 0 0-.892 0l-2.932 3.522a.552.552 0 0 0-.082.622.575.575 0 0 0 .47.34h1.173a.294.294 0 0 1 .294.294v4.99a5 5 0 0 0 4.987 4.99Z"/><path data-name="Trazado 5078" d="M49.364 43.527a.575.575 0 0 0 .446-.211l2.935-3.522a.552.552 0 0 0 .082-.622.575.575 0 0 0-.528-.34h-1.174a.294.294 0 0 1-.294-.294v-4.99a4.99 4.99 0 0 0-4.99-4.99h-11.74a1.468 1.468 0 0 0 0 2.935h11.741a2.055 2.055 0 0 1 2.055 2.055v4.979a.294.294 0 0 1-.293.294h-1.175a.575.575 0 0 0-.528.34.552.552 0 0 0 .082.622l2.935 3.522a.576.576 0 0 0 .446.222Z"/></g></svg>