<svg xmlns="http://www.w3.org/2000/svg" width="80" height="80"><g data-name="Elipse 718" fill="none" stroke="#ff293e" stroke-width="2"><circle cx="40" cy="40" r="40" stroke="none"/><circle cx="40" cy="40" r="39"/></g><path data-name="Trazado 5081" d="M40 28.221a12.493 12.493 0 1 0 12.493 12.493A12.493 12.493 0 0 0 40 28.221Zm5.424 14.263-4.685 4.685a1.041 1.041 0 0 1-1.472.006l-.006-.006-4.685-4.685a1.042 1.042 0 0 1 1.472-1.474l.006.006 2.453 2.468a.271.271 0 0 0 .292.052.26.26 0 0 0 .156-.239v-8.829a1.041 1.041 0 1 1 2.082 0v8.829a.26.26 0 0 0 .156.239.271.271 0 0 0 .292-.052l2.461-2.463a1.041 1.041 0 0 1 1.472-.006l.006.006a1.061 1.061 0 0 1 0 1.463Z" fill="#ff293e"/></svg>