<svg xmlns="http://www.w3.org/2000/svg" width="124.679" height="127.062"><g transform="translate(15.146 18.086)"><circle data-name="Elipse 715" cx="55" cy="55" r="55" transform="translate(-8 -8)" fill="#ff293e" opacity=".65"/><path d="M109.533 45.445c0-.794-1.588-1.191-1.588-1.191-27.791-8.34-51.222-30.575-58.369-56.781l-1.191-4.368s-.397-1.191-1.191-1.191-1.191 1.191-1.191 1.191l-1.192 4.368c-7.147 26.206-30.574 48.441-58.369 56.781 0 0-1.588.4-1.588 1.191s1.588 1.191 1.588 1.191c27.795 8.338 51.222 30.578 58.369 56.778l1.191 4.368s.4 1.191 1.191 1.191 1.191-1.191 1.191-1.191l1.191-4.368c7.148-26.2 30.579-48.44 58.37-56.778-.4.4 1.191 0 1.588-1.191" fill="#ff293e"/><g data-name="streamline-icon-casino-lucky-7@140x140"><path data-name="Trazado 5135" d="M46.746 30.908a9.426 9.426 0 0 0-8.019-.363c-.178.076-.341.142-.494.2a1.578 1.578 0 0 1-1.207-.06 2.366 2.366 0 0 0-2.174-1.431h-1.183a2.366 2.366 0 0 0-2.366 2.366v9.466a2.366 2.366 0 0 0 2.366 2.366h1.183a2.366 2.366 0 0 0 2.364-2.368v-.426a2.366 2.366 0 0 1 1.765-2.288 7.572 7.572 0 0 1 5.46.347c2.146 1.344 4.723 2.376 6.941 1.231l2.393-1.231c-7.578 7.582-12.059 14.36-12.879 23.45a2.366 2.366 0 0 0 2.362 2.581h8.222a2.374 2.374 0 0 0 2.366-2.308c.218-7.784.689-12.2 8.64-28.081a2.393 2.393 0 0 0-.431-2.756l-.983-.984a2.392 2.392 0 0 0-3.026-.268 11.13 11.13 0 0 1-11.3.558Z" fill="none" stroke="#fff" stroke-linecap="round" stroke-linejoin="round" stroke-width="2"/></g></g></svg>