<svg xmlns="http://www.w3.org/2000/svg" width="22" height="22"><g transform="translate(-3.7 -5.2)" fill="#fff"><circle data-name="Elipse 697" cx="1.967" cy="1.967" r="1.967" transform="translate(12.643 14.322)"/><path data-name="Trazado 4895" d="M17.07 11.46h-4.919a2.172 2.172 0 0 0-2.37 2.37v4.919a2.465 2.465 0 0 0 .671 1.789 2.521 2.521 0 0 0 1.744.626h4.874a2.444 2.444 0 0 0 1.744-.626 2.291 2.291 0 0 0 .667-1.745v-4.918a2.521 2.521 0 0 0-.626-1.744 2.394 2.394 0 0 0-1.785-.671Zm-2.459 7.87a3.041 3.041 0 0 1 0-6.081 3.041 3.041 0 1 1 0 6.081Zm3.175-5.5a.715.715 0 1 1 .715-.715.706.706 0 0 1-.72.715Z"/><path data-name="Trazado 4896" d="M14.7 5.2a11 11 0 1 0 11 11 10.992 10.992 0 0 0-11-11Zm5.858 13.593a3.545 3.545 0 0 1-.984 2.549 3.48 3.48 0 0 1-2.5.939H12.2a3.48 3.48 0 0 1-2.5-.939 3.369 3.369 0 0 1-.984-2.549v-4.918a3.309 3.309 0 0 1 3.484-3.488h4.919a3.3 3.3 0 0 1 3.443 3.488Z"/></g></svg>