<svg xmlns="http://www.w3.org/2000/svg" width="80" height="80"><g data-name="Elipse 718" fill="none" stroke="#ff293e" stroke-width="2"><circle cx="40" cy="40" r="40" stroke="none"/><circle cx="40" cy="40" r="39"/></g><path data-name="Trazado 5090" d="m48.433 31.808-.724-.869a1.227 1.227 0 0 0-1.479-.309 7.828 7.828 0 0 1-3.348.813 6 6 0 0 1-2.478-.553 6.706 6.706 0 0 0-2.771-.641 6.192 6.192 0 0 0-2.967.73.17.17 0 0 1-.154 0 .212.212 0 0 1-.122-.081 1.219 1.219 0 0 0-1.071-.649h-.814a1.219 1.219 0 0 0-1.219 1.218v5.688a1.219 1.219 0 0 0 1.219 1.219h.869a1.211 1.211 0 0 0 1.195-.991 2.146 2.146 0 0 1 2.194-1.625 6 6 0 0 1 1.8.5 7.494 7.494 0 0 0 2.568.658.309.309 0 0 1 .236.512 19.065 19.065 0 0 0-4.701 11.031 1.252 1.252 0 0 0 .333.91 1.219 1.219 0 0 0 .886.382h4.819a1.219 1.219 0 0 0 1.215-1.089c.439-4.12 3.722-13 4.721-15.643a1.235 1.235 0 0 0-.207-1.211Z" fill="#ff293e"/></svg>