<svg xmlns="http://www.w3.org/2000/svg" width="50" height="50"><g data-name="Grupo 767" fill="none" stroke="#e99c00" stroke-width="2"><path data-name="Trazado 5487" d="M4.692 6.538A3.692 3.692 0 0 0 1 10.23v35.077a3.692 3.692 0 0 0 3.692 3.692h40.616A3.692 3.692 0 0 0 49 45.307V10.23a3.692 3.692 0 0 0-3.692-3.692h-7.385" stroke-linecap="round" stroke-linejoin="round"/><path data-name="Línea 218" stroke-linecap="round" stroke-linejoin="round" d="M12.077 1v11.077"/><path data-name="Línea 219" stroke-linecap="round" stroke-linejoin="round" d="M37.923 1v11.077"/><path data-name="Línea 220" stroke-linecap="round" stroke-linejoin="round" d="M12.077 6.539h18.462"/><path data-name="Trazado 5488" d="M10.943 35.15a4.156 4.156 0 0 0 3.918 2.769h2.769a4.154 4.154 0 0 0 4.154-4.154v-.692a4.154 4.154 0 0 0-4.154-4.154h-.346a3.808 3.808 0 0 0 0-7.615h-2.077a3.809 3.809 0 0 0-3.664 2.769" stroke-linecap="round" stroke-linejoin="round"/><path data-name="Trazado 5489" d="M33.563 37.922a5.5 5.5 0 0 1-5.495-5.495v-5.626a5.495 5.495 0 1 1 10.99 0v5.626a5.5 5.5 0 0 1-5.495 5.495Z" stroke-miterlimit="10"/></g></svg>