<svg xmlns="http://www.w3.org/2000/svg" width="124.679" height="127.062"><g transform="translate(15.146 18.086)"><circle data-name="Elipse 715" cx="55" cy="55" r="55" transform="translate(-8 -8)" fill="#ff293e" opacity=".65"/><path d="M109.533 45.445c0-.794-1.588-1.191-1.588-1.191-27.791-8.34-51.222-30.575-58.369-56.781l-1.191-4.368s-.397-1.191-1.191-1.191-1.191 1.191-1.191 1.191l-1.192 4.368c-7.147 26.206-30.574 48.441-58.369 56.781 0 0-1.588.4-1.588 1.191s1.588 1.191 1.588 1.191c27.795 8.338 51.222 30.578 58.369 56.778l1.191 4.368s.4 1.191 1.191 1.191 1.191-1.191 1.191-1.191l1.191-4.368c7.148-26.2 30.579-48.44 58.37-56.778-.4.4 1.191 0 1.588-1.191" fill="#ff293e"/><g data-name="Grupo 450" transform="translate(24.604 23.049)" fill="none" stroke="#fff" stroke-linecap="round" stroke-linejoin="round" stroke-width="2"><circle data-name="Elipse 720" cx="22.396" cy="22.396" r="22.396"/><path data-name="Trazado 5118" d="M37.859 20.448a16.153 16.153 0 0 1 .117 1.947 15.58 15.58 0 1 1-6.485-12.659"/><path data-name="Línea 61" d="M22.396 0v9.737"/><path data-name="Línea 62" d="M11.198 2.999 14.606 8.9"/><path data-name="Línea 63" d="M2.999 11.198 8.9 14.606"/><path data-name="Línea 64" d="M0 22.396h9.737"/><path data-name="Línea 65" d="M2.999 33.594 8.9 30.186"/><path data-name="Línea 66" d="m11.198 41.793 3.408-5.901"/><path data-name="Línea 67" d="M22.396 44.792v-9.737"/><path data-name="Línea 68" d="m33.594 41.793-3.408-5.901"/><path data-name="Línea 69" d="m41.793 33.594-5.901-3.408"/><path data-name="Línea 70" d="M44.792 22.396h-6.816"/><path data-name="Línea 71" d="m41.793 11.198-3.934 2.279"/><path data-name="Línea 72" d="M33.594 2.999 30.186 8.9"/><path data-name="Línea 73" d="M22.396 17.041v10.711"/><path data-name="Línea 74" d="M27.752 22.396H16.554"/><circle data-name="Elipse 721" cx="1.947" cy="1.947" r="1.947" transform="translate(30.186 14.606)"/><path data-name="Trazado 5119" d="M16.554 21.909a.487.487 0 0 1 .487.487"/><path data-name="Trazado 5120" d="M16.067 22.396a.487.487 0 0 1 .487-.487"/><path data-name="Trazado 5121" d="M16.554 22.883a.487.487 0 0 1-.487-.487"/><path data-name="Trazado 5122" d="M17.041 22.396a.487.487 0 0 1-.487.487"/><path data-name="Trazado 5123" d="M22.883 16.554a.487.487 0 0 1-.487.487"/><path data-name="Trazado 5124" d="M22.396 16.067a.487.487 0 0 1 .487.487"/><path data-name="Trazado 5125" d="M21.909 16.554a.487.487 0 0 1 .487-.487"/><path data-name="Trazado 5126" d="M22.396 17.041a.487.487 0 0 1-.487-.487"/><path data-name="Trazado 5127" d="M28.239 22.883a.487.487 0 0 1-.487-.487"/><path data-name="Trazado 5128" d="M28.726 22.396a.487.487 0 0 1-.487.487"/><path data-name="Trazado 5129" d="M28.239 21.909a.487.487 0 0 1 .487.487"/><path data-name="Trazado 5130" d="M27.752 22.396a.487.487 0 0 1 .487-.487"/><path data-name="Trazado 5131" d="M21.909 28.239a.487.487 0 0 1 .487-.487"/><path data-name="Trazado 5132" d="M22.396 28.726a.487.487 0 0 1-.487-.487"/><path data-name="Trazado 5133" d="M22.883 28.239a.487.487 0 0 1-.487.487"/><path data-name="Trazado 5134" d="M22.396 27.752a.487.487 0 0 1 .487.487"/></g></g></svg>