<svg xmlns="http://www.w3.org/2000/svg" width="60.047" height="60.047"><g stroke-linecap="round" stroke-linejoin="round"><g data-name="Trazado 5107" fill="#13171d"><path d="M30.023 55.048a24.87 24.87 0 0 1-9.741-1.969 24.934 24.934 0 0 1-7.953-5.36 24.934 24.934 0 0 1-5.36-7.953 24.872 24.872 0 0 1-1.97-9.742c0-3.376.663-6.654 1.97-9.742a24.934 24.934 0 0 1 5.36-7.952 24.934 24.934 0 0 1 7.953-5.361A24.872 24.872 0 0 1 30.023 5c3.376 0 6.654.663 9.742 1.969a24.934 24.934 0 0 1 7.953 5.36 24.934 24.934 0 0 1 5.36 7.953 24.872 24.872 0 0 1 1.969 9.742c0 3.376-.662 6.654-1.969 9.742a24.934 24.934 0 0 1-5.36 7.952 24.934 24.934 0 0 1-7.953 5.361 24.872 24.872 0 0 1-9.742 1.969Z"/><path d="M30.023 50.048c11.06 0 20.024-8.965 20.024-20.024C50.047 18.965 41.082 10 30.023 10 18.965 10 10 18.965 10 30.024c0 11.059 8.965 20.024 20.023 20.024m0 10C13.468 60.048 0 46.579 0 30.024S13.468 0 30.023 0s30.024 13.47 30.024 30.024-13.469 30.024-30.024 30.024Z"/></g><g data-name="Trazado 5287" fill="none"><path d="M10 30.024A20.024 20.024 0 1 0 30.023 10 20.024 20.024 0 0 0 10 30.024Z"/><path d="M30.023 50.048c11.06 0 20.024-8.965 20.024-20.024C50.047 18.965 41.082 10 30.023 10 18.965 10 10 18.965 10 30.024c0 11.059 8.965 20.024 20.023 20.024m0 2a21.948 21.948 0 0 1-15.573-6.45A21.948 21.948 0 0 1 8 30.023a21.948 21.948 0 0 1 6.45-15.573A21.948 21.948 0 0 1 30.023 8a21.948 21.948 0 0 1 15.573 6.45 21.948 21.948 0 0 1 6.451 15.573c0 2.972-.583 5.857-1.732 8.573a21.948 21.948 0 0 1-4.719 7 21.948 21.948 0 0 1-15.573 6.45Z" fill="#ff293e"/></g><path data-name="Trazado 5105" d="M22.309 30.023h15.428" fill="none" stroke="#ff293e" stroke-width="2"/><path data-name="Trazado 5106" d="m28.737 36.453-6.429-6.429 6.429-6.429" fill="none" stroke="#ff293e" stroke-width="2"/></g></svg>