<svg xmlns="http://www.w3.org/2000/svg" viewBox="0 0 94.39 94.39"><defs><style>.cls-2{fill:none;stroke:#fff;stroke-linecap:round;stroke-linejoin:round;stroke-width:2px}</style></defs><g id="Layer_2" data-name="Layer 2"><g id="Capa_1" data-name="Capa 1"><g id="icono-header-promo"><circle cx="47.19" cy="47.19" r="47.19" style="fill:#e53646"/><g id="award_red-circle" data-name="award red-circle"><g id="streamline-icon-award-ribbon-star-1_140x140" data-name="streamline-icon-award-ribbon-star-1 140x140"><path id="Trazado_5160" data-name="Trazado 5160" class="cls-2" d="m31.09 51.24-6.7 11.56a1.07 1.07 0 0 0 .38 1.45 1.11 1.11 0 0 0 .71.13l5.92-1L33.46 69a1.06 1.06 0 0 0 1.35.63 1.11 1.11 0 0 0 .55-.45l5.75-9.74"/><path id="Trazado_5161" data-name="Trazado 5161" class="cls-2" d="m63.89 51.24 6.7 11.56a1.07 1.07 0 0 1-.38 1.45 1.11 1.11 0 0 1-.71.13l-5.92-1L61.52 69a1.06 1.06 0 0 1-1.35.63 1.11 1.11 0 0 1-.55-.45l-5.75-9.74"/><path id="Trazado_5162" data-name="Trazado 5162" class="cls-2" d="M28.44 41.55a19 19 0 1 0 19-19h0a19 19 0 0 0-19 19Z"/><path id="Trazado_5163" data-name="Trazado 5163" class="cls-2" d="M48.7 30.37 51.41 36h5.28A1.3 1.3 0 0 1 58 37.23a1.34 1.34 0 0 1-.42 1L53 42.72l2.54 5.83a1.39 1.39 0 0 1-.75 1.81 1.41 1.41 0 0 1-1.22-.08l-6.13-3.45-6.12 3.45a1.39 1.39 0 0 1-1.89-.51 1.35 1.35 0 0 1-.08-1.22l2.54-5.83-4.58-4.51a1.31 1.31 0 0 1-.11-1.83 1.28 1.28 0 0 1 1-.43h5.28l2.71-5.59a1.4 1.4 0 0 1 1.89-.58 1.35 1.35 0 0 1 .59.59Z"/></g></g></g></g></g></svg>