<svg xmlns="http://www.w3.org/2000/svg" width="80" height="80"><g data-name="Elipse 718" fill="none" stroke="#ff293e" stroke-width="2"><circle cx="40" cy="40" r="40" stroke="none"/><circle cx="40" cy="40" r="39"/></g><g data-name="Grupo 532" transform="translate(26.66 26.264)" fill="#ff293e"><rect data-name="Rectángulo 177" width="6.863" height="16.667" rx="2" transform="translate(19.817 10.806)"/><rect data-name="Rectángulo 178" width="6.863" height="8.824" rx="2" transform="translate(.209 18.649)"/><rect data-name="Rectángulo 179" width="6.863" height="12.745" rx="2" transform="translate(10.013 14.728)"/><path data-name="Trazado 5286" d="M25.739 1.649A1.392 1.392 0 0 0 24.68.884L19.856.021a1.451 1.451 0 0 0-1.431.589 1.431 1.431 0 0 0-.137 1.529l.686 1.314-18.2 9.314a1.49 1.49 0 0 0-.627 1.961 1.451 1.451 0 0 0 1.412.824 1.412 1.412 0 0 0 .667-.176L20.307 6.1l.667 1.294a1.49 1.49 0 0 0 1.314.8 1.431 1.431 0 0 0 1.314-.824l2.157-4.412a1.471 1.471 0 0 0-.02-1.314Z"/></g></svg>