<svg xmlns="http://www.w3.org/2000/svg" width="80" height="80"><g data-name="Elipse 718" fill="none" stroke="#ff293e" stroke-width="2"><circle cx="40" cy="40" r="40" stroke="none"/><circle cx="40" cy="40" r="39"/></g><path data-name="Trazado 5080" d="M40 52.495A12.495 12.495 0 1 0 27.505 40 12.495 12.495 0 0 0 40 52.495Zm-5.425-14.276 4.686-4.686a1.041 1.041 0 0 1 1.473-.006l.006.006 4.686 4.686a1.042 1.042 0 0 1-1.479 1.468l-2.458-2.457a.292.292 0 0 0-.292-.062.271.271 0 0 0-.156.25v8.83a1.041 1.041 0 0 1-2.082 0v-8.83a.271.271 0 0 0-.156-.25.292.292 0 0 0-.292.062l-2.457 2.458a1.042 1.042 0 0 1-1.479-1.469Z" fill="#ff293e"/></svg>