<svg xmlns="http://www.w3.org/2000/svg" width="30.405" height="34"><path d="M14.922 2.493a8.5 8.5 0 0 0-7.229-.327 9.355 9.355 0 0 1-.445.178A1.422 1.422 0 0 1 6.16 2.29 2.133 2.133 0 0 0 4.2 1H3.132A2.133 2.133 0 0 0 1 3.133v8.533A2.133 2.133 0 0 0 3.132 13.8H4.2a2.133 2.133 0 0 0 2.132-2.134v-.384A2.133 2.133 0 0 1 7.923 9.22a6.827 6.827 0 0 1 4.922.313c1.937 1.212 4.261 2.139 6.26 1.109l2.158-1.109c-6.831 6.839-10.879 12.939-11.614 21.139a2.133 2.133 0 0 0 2.129 2.327h7.413a2.14 2.14 0 0 0 2.133-2.081c.2-7.017.622-11 7.79-25.316a2.158 2.158 0 0 0-.388-2.485l-.886-.887a2.156 2.156 0 0 0-2.728-.242 10.034 10.034 0 0 1-10.189.5Z" fill="none" stroke="#ff293e" stroke-linecap="round" stroke-linejoin="round" stroke-width="2"/></svg>