<svg xmlns="http://www.w3.org/2000/svg" width="22" height="22"><path d="M11 0a11 11 0 1 0 11 11A11.013 11.013 0 0 0 11 0Zm4.907 8.482c0 .109.008.219.008.329a7.2 7.2 0 0 1-11.089 6.066 5.112 5.112 0 0 0 3.752-1.051 2.534 2.534 0 0 1-2.365-1.759 2.479 2.479 0 0 0 .476.046 2.548 2.548 0 0 0 .667-.089 2.533 2.533 0 0 1-2.03-2.479v-.032a2.522 2.522 0 0 0 1.146.313 2.536 2.536 0 0 1-.783-3.38 7.189 7.189 0 0 0 5.218 2.646 2.534 2.534 0 0 1 4.314-2.31 5.046 5.046 0 0 0 1.605-.611 2.542 2.542 0 0 1-1.114 1.4 5.041 5.041 0 0 0 1.454-.4 5.118 5.118 0 0 1-1.259 1.311Z" fill="#fff"/></svg>