<svg xmlns="http://www.w3.org/2000/svg" width="30" height="30"><g transform="translate(-148 -5)"><circle data-name="Elipse 782" cx="15" cy="15" r="15" transform="translate(148 5)" fill="#13171d" opacity=".2"/><circle data-name="Elipse 781" cx="10" cy="10" r="10" transform="translate(153 10)" fill="#fff"/><path data-name="Trazado 5389" d="m166.61 19.747-3.241-3.231a.368.368 0 0 0-.63.262v1.4a.092.092 0 0 1-.092.092h-3a.368.368 0 0 0-.368.368v2.722a.368.368 0 0 0 .368.368h3a.092.092 0 0 1 .092.092v1.4a.368.368 0 0 0 .63.262l3.241-3.241a.368.368 0 0 0 0-.519Z" fill="#13171d"/></g></svg>