<svg xmlns="http://www.w3.org/2000/svg" width="44.898" height="42"><g fill="rgba(255,255,255,0.6)"><path data-name="Trazado 5434" d="M30.7 26.507c0-.29-.434-.29-.434-.29-6.807-2.028-12.6-7.531-14.338-13.9l-.29-1.014a.284.284 0 0 0-.29-.29c-.145 0-.29.29-.29.29l-.29 1.014C13.03 18.689 7.237 24.193.43 26.217c0 0-.434.145-.434.29 0 .29.434.29.434.29 6.807 2.028 12.6 7.531 14.338 13.9l.29 1.014a.284.284 0 0 0 .29.29c.145 0 .29-.29.29-.29l.29-1.014c1.738-6.372 7.531-11.876 14.338-13.9 0 .145.434 0 .434-.29Z"/><path data-name="Trazado 5435" d="M44.898 8.11a.142.142 0 0 0-.145-.145A10.9 10.9 0 0 1 37.367.724l-.145-.579A.142.142 0 0 0 37.077 0a.142.142 0 0 0-.145.145l-.145.724c-.869 3.331-3.91 6.083-7.386 7.241a.142.142 0 0 0-.145.145.142.142 0 0 0 .145.145 10.9 10.9 0 0 1 7.386 7.241l.145.579a.142.142 0 0 0 .145.145.142.142 0 0 0 .145-.145l.145-.579c.869-3.331 3.91-6.083 7.386-7.241a.506.506 0 0 0 .145-.29Z"/></g></svg>