<svg xmlns="http://www.w3.org/2000/svg" width="30" height="30"><g transform="translate(5 5)"><circle data-name="Elipse 752" cx="15" cy="15" r="15" transform="translate(-5 -5)" fill="#13171d" opacity=".2"/><path data-name="Trazado 44" d="M10 20A10 10 0 1 0 0 10a10 10 0 0 0 10 10ZM5 9.167h3.958a.208.208 0 0 0 .208-.208V5a.833.833 0 1 1 1.667 0v3.958a.208.208 0 0 0 .208.208H15a.833.833 0 1 1 0 1.667h-3.958a.208.208 0 0 0-.208.208V15a.833.833 0 1 1-1.667 0v-3.958a.208.208 0 0 0-.208-.208H5a.833.833 0 1 1 0-1.667Z" fill="#fff"/></g></svg>