<svg xmlns="http://www.w3.org/2000/svg" width="124.679" height="127.062"><g transform="translate(15.146 18.086)"><circle data-name="Elipse 715" cx="55" cy="55" r="55" transform="translate(-8 -8)" fill="#ff293e" opacity=".65"/><path d="M109.533 45.445c0-.794-1.588-1.191-1.588-1.191-27.791-8.34-51.222-30.575-58.369-56.781l-1.191-4.368s-.397-1.191-1.191-1.191-1.191 1.191-1.191 1.191l-1.192 4.368c-7.147 26.206-30.574 48.441-58.369 56.781 0 0-1.588.4-1.588 1.191s1.588 1.191 1.588 1.191c27.795 8.338 51.222 30.578 58.369 56.778l1.191 4.368s.4 1.191 1.191 1.191 1.191-1.191 1.191-1.191l1.191-4.368c7.148-26.2 30.579-48.44 58.37-56.778-.4.4 1.191 0 1.588-1.191" fill="#ff293e"/><g data-name="Grupo 499" transform="translate(27.387 25.639)" fill="none" stroke="#fff" stroke-linecap="round" stroke-linejoin="round" stroke-width="2"><path data-name="Trazado 5254" d="M20.547 2.114A2.609 2.609 0 0 0 17.49.048h0L2.112 3.033A2.621 2.621 0 0 0 .047 6.094l4.478 23.064a2.61 2.61 0 0 0 3.059 2.066l1.442-.28"/><path data-name="Trazado 5255" d="m13.289 10.634-2.85 5.873 1.316 1.188"/><path data-name="Trazado 5256" d="M4.78 6.503a.653.653 0 0 1 .766.517v.007"/><path data-name="Trazado 5257" d="M4.261 7.27a.654.654 0 0 1 .518-.766h.002"/><path data-name="Trazado 5258" d="M5.028 7.789a.655.655 0 0 1-.766-.521h0"/><path data-name="Trazado 5259" d="M5.547 7.02a.656.656 0 0 1-.519.768h-.005"/><rect data-name="Rectángulo 160" width="28.71" height="20.881" rx="3" transform="rotate(-78.578 28.413 9.514)"/><path data-name="Línea 90" d="m25.508 28.599.517-2.558"/><path data-name="Trazado 5260" d="M27.836 17.084s-4.356 1.787-4.873 4.342a3.916 3.916 0 1 0 7.677 1.552c.517-2.56-2.804-5.894-2.804-5.894Z"/><path data-name="Trazado 5261" d="M22.854 12.08a.655.655 0 0 1 .512.772"/><path data-name="Trazado 5262" d="M22.079 12.592a.655.655 0 0 1 .772-.512"/><path data-name="Trazado 5263" d="M22.593 13.366a.655.655 0 0 1-.512-.772"/><path data-name="Trazado 5264" d="M23.365 12.852a.655.655 0 0 1-.772.512"/><path data-name="Trazado 5265" d="M30.487 33.597a.655.655 0 0 1 .512.772"/><path data-name="Trazado 5266" d="M29.719 34.109a.655.655 0 0 1 .772-.512"/><path data-name="Trazado 5267" d="M30.231 34.881a.657.657 0 0 1-.512-.772"/><path data-name="Trazado 5268" d="M31.011 34.37a.656.656 0 0 1-.772.512"/></g></g></svg>