<svg xmlns="http://www.w3.org/2000/svg" viewBox="0 0 167.1 170.31"><defs><style>.cls-3{fill:#fff}</style></defs><g id="Layer_2" data-name="Layer 2"><g id="Layer_1-2" data-name="Layer 1"><g id="icon-red-3"><g id="feat-home-3"><circle id="Elipse_695-2" data-name="Elipse 695-2" cx="83.56" cy="85.04" r="70" style="isolation:isolate;opacity:.65;fill:#ff293e"/><path id="Star" d="M167.1 85.14c0-1.06-2.13-1.6-2.13-1.6-37.25-11.17-68.65-41-78.23-76.09L85.15 1.6S84.62 0 83.55 0 82 1.6 82 1.6l-1.6 5.85c-9.58 35.12-41 64.92-78.22 76.1 0 0-2.13.53-2.13 1.6s2.13 1.6 2.13 1.6c37.25 11.18 68.64 41 78.22 76.1l1.6 5.86s.53 1.6 1.6 1.6 1.6-1.6 1.6-1.6l1.6-5.86c9.58-35.12 41-64.92 78.22-76.1-.53.53 1.6 0 2.13-1.6" style="fill:#ff293e"/><g id="Grupo_728" data-name="Grupo 728"><path id="Trazado_110" data-name="Trazado 110" class="cls-3" d="M69.43 90.16a.43.43 0 0 0-.36-.18.39.39 0 0 0-.35.21l-4 6.83a1.66 1.66 0 0 0 .64 2.25 1.69 1.69 0 0 0 1 .2l4-.66 1.37 3.77a1.64 1.64 0 0 0 2.12 1 1.68 1.68 0 0 0 .85-.71l3.3-5.53a.36.36 0 0 0 0-.34.44.44 0 0 0-.25-.25 16.84 16.84 0 0 1-8.32-6.59Z"/><path id="Trazado_111" data-name="Trazado 111" class="cls-3" d="m102.29 97-3.91-6.88a.42.42 0 0 0-.56-.14.53.53 0 0 0-.13.13 17 17 0 0 1-8.37 6.6.44.44 0 0 0-.25.25.4.4 0 0 0 0 .34l3.3 5.55a1.66 1.66 0 0 0 2.27.57 1.63 1.63 0 0 0 .7-.85l1.37-3.78 4 .66a1.58 1.58 0 0 0 1.87-1.22 1.55 1.55 0 0 0-.24-1.22Z"/><path id="Trazado_112" data-name="Trazado 112" class="cls-3" d="M97.93 80.84a14.44 14.44 0 1 0-14.44 14.43 14.43 14.43 0 0 0 14.44-14.43Zm-8.66 5.64a1 1 0 0 1-.51 1.28.94.94 0 0 1-.89-.06l-4.16-2.35a.49.49 0 0 0-.41 0l-4.16 2.35a1 1 0 0 1-1.4-1.22l1.65-3.9a.4.4 0 0 0-.1-.46l-3-3a.92.92 0 0 1-.16-1.3.94.94 0 0 1 .8-.35h3.5a.43.43 0 0 0 .38-.23l1.82-3.76a1 1 0 0 1 1.36-.4 1 1 0 0 1 .4.4l1.82 3.74a.38.38 0 0 0 .36.23h3.57a.93.93 0 0 1 1 .83.92.92 0 0 1-.35.82l-3.14 3a.43.43 0 0 0-.08.47Z"/></g></g></g></g></g></svg>