<svg xmlns="http://www.w3.org/2000/svg" width="15.9" height="19.5"><g transform="translate(-16.75 -3.625)" fill="none" stroke="#fff" stroke-linecap="round" stroke-linejoin="round" stroke-width="1.5"><rect data-name="Rectángulo 157" width="14.4" height="18" rx="2" transform="translate(17.5 4.375)"/><path data-name="Trazado 5200" d="M20.7 7.275a.3.3 0 0 1 .3.3"/><path data-name="Trazado 5201" d="M20.4 7.575a.3.3 0 0 1 .3-.3"/><path data-name="Trazado 5202" d="M20.7 7.875a.3.3 0 0 1-.3-.3"/><path data-name="Trazado 5203" d="M21 7.575a.3.3 0 0 1-.3.3"/><path data-name="Trazado 5204" d="M28.7 18.874a.3.3 0 0 1 .3.3"/><path data-name="Trazado 5205" d="M28.399 19.174a.3.3 0 0 1 .3-.3"/><path data-name="Trazado 5206" d="M28.699 19.475a.3.3 0 0 1-.3-.3"/><path data-name="Trazado 5207" d="M29 19.175a.3.3 0 0 1-.3.3"/><path data-name="Trazado 5208" d="M25.3 10.643a.6.6 0 0 0-1 0l-1.9 2.667a.6.6 0 0 0 0 .666l1.9 2.667a.6.6 0 0 0 1 0l1.9-2.667a.6.6 0 0 0 0-.666Z"/></g></svg>