<svg xmlns="http://www.w3.org/2000/svg" width="80" height="80"><g data-name="Elipse 718" fill="none" stroke="#ff293e" stroke-width="2"><circle cx="40" cy="40" r="40" stroke="none"/><circle cx="40" cy="40" r="39"/></g><path data-name="Trazado 5079" d="M51.235 36.791a1.468 1.468 0 0 0-1.372-.973h-5.924a.486.486 0 0 1-.457-.321l-2.12-6.031a1.479 1.479 0 0 0-1.372-.924 1.45 1.45 0 0 0-1.362.973l-2.13 6a.486.486 0 0 1-.457.321h-5.924a1.459 1.459 0 0 0-1.372.973 1.478 1.478 0 0 0 .435 1.607l5.039 4.183a.486.486 0 0 1 .156.525l-2.118 6.352a1.459 1.459 0 0 0 2.247 1.644l5.195-3.813a.477.477 0 0 1 .574 0l5.2 3.813a1.459 1.459 0 0 0 2.3-1.644l-2.122-6.352a.486.486 0 0 1 .156-.525l5.049-4.193a1.469 1.469 0 0 0 .379-1.615Z" fill="#ff293e"/></svg>