<svg xmlns="http://www.w3.org/2000/svg" xmlns:xlink="http://www.w3.org/1999/xlink" width="194" height="194" viewBox="0 0 194 194">
  <defs>
    <filter id="Elipse_711" x="0" y="0" width="194" height="194" filterUnits="userSpaceOnUse">
      <feOffset input="SourceAlpha"/>
      <feGaussianBlur stdDeviation="15" result="blur"/>
      <feFlood flood-color="#fff"/>
      <feComposite operator="in" in2="blur"/>
      <feComposite in="SourceGraphic"/>
    </filter>
  </defs>
  <g id="deposit__white-outline__big" transform="translate(59.667 97.667)">
    <g transform="matrix(1, 0, 0, 1, -59.67, -97.67)" filter="url(#Elipse_711)">
      <g id="Elipse_711-2" data-name="Elipse 711" transform="translate(45 45)" fill="none" stroke="#13171d" stroke-width="2">
        <circle cx="52" cy="52" r="52" stroke="none"/>
        <circle cx="52" cy="52" r="51" fill="none"/>
      </g>
    </g>
    <g id="Grupo_285" data-name="Grupo 285" transform="translate(14.05 -23.95)">
      <path id="Trazado_4983" data-name="Trazado 4983" d="M4.375,83.125v18.313" transform="translate(-4.375 -55.655)" fill="none" stroke="#13171d" stroke-linecap="round" stroke-linejoin="round" stroke-width="2"/>
      <path id="Trazado_4984" data-name="Trazado 4984" d="M4.375,104.084H37.95a6.1,6.1,0,0,0-6.1-6.1H24.215a6.1,6.1,0,0,0-6.1-6.1H4.375" transform="translate(-4.375 -61.353)" fill="none" stroke="#13171d" stroke-linecap="round" stroke-linejoin="round" stroke-width="2"/>
      <path id="Trazado_4985" data-name="Trazado 4985" d="M39.375,109.375h7.631" transform="translate(-27.166 -72.748)" fill="none" stroke="#13171d" stroke-linecap="round" stroke-linejoin="round" stroke-width="2"/>
      <path id="Trazado_4986" data-name="Trazado 4986" d="M72.523,39.492a15.211,15.211,0,0,0-4.114-26.573l3.77-6.451a1.382,1.382,0,0,0,0-1.4,1.439,1.439,0,0,0-1.243-.7h-15.1a1.439,1.439,0,0,0-1.239.7,1.381,1.381,0,0,0,0,1.4l3.77,6.45A15.215,15.215,0,0,0,48.125,27.267" transform="translate(-32.864 -4.375)" fill="none" stroke="#13171d" stroke-linecap="round" stroke-linejoin="round" stroke-width="2"/>
      <path id="Trazado_4987" data-name="Trazado 4987" d="M79.157,60.568a4.526,4.526,0,0,0,3.781,1.78c2.318,0,4.2-1.41,4.2-3.148s-1.88-3.146-4.2-3.146-4.188-1.41-4.188-3.15,1.88-3.148,4.2-3.148a4.52,4.52,0,0,1,3.781,1.78" transform="translate(-52.806 -33.924)" fill="none" stroke="#13171d" stroke-linecap="round" stroke-linejoin="round" stroke-width="2"/>
      <path id="Trazado_4988" data-name="Trazado 4988" d="M90.778,85.861v2.1" transform="translate(-60.638 -57.436)" fill="none" stroke="#13171d" stroke-linecap="round" stroke-linejoin="round" stroke-width="2"/>
      <path id="Trazado_4989" data-name="Trazado 4989" d="M90.778,43.75v2.1" transform="translate(-60.638 -30.015)" fill="none" stroke="#13171d" stroke-linecap="round" stroke-linejoin="round" stroke-width="2"/>
    </g>
  </g>
</svg>
