<svg xmlns="http://www.w3.org/2000/svg" viewBox="0 0 99.18 104">
  <g id="Layer_2" data-name="Layer 2">
    <g id="Layer_1-2" data-name="Layer 1">
      <path d="M49.59,0h0c2.21,0,4,2.69,4,6V18c0,3.31-1.79,6-4,6h0c-2.21,0-4-2.69-4-6V6C45.59,2.69,47.38,0,49.59,0Z" />
      <path d="M80.15,9.93h0c1.79,1.3,1.66,4.53-.29,7.21l-7,9.7c-2,2.69-5,3.81-6.76,2.51h0c-1.79-1.3-1.66-4.53.29-7.21l7-9.71C75.34,9.75,78.37,8.63,80.15,9.93Z" />
      <path d="M99,35.93h0c.69,2.1-1.32,4.64-4.47,5.66L83.16,45.3c-3.15,1-6.26.15-6.94-1.95h0c-.68-2.1,1.32-4.64,4.47-5.66L92.1,34C95.25,33,98.36,33.83,99,35.93Z" />
      <path d="M99,68.07h0c-.68,2.1-3.79,3-6.94,2L80.69,66.31c-3.15-1-5.15-3.56-4.47-5.66h0c.68-2.1,3.79-3,6.94-1.95l11.41,3.71C97.72,63.43,99.73,66,99,68.07Z" />
      <path d="M80.15,94.07h0c-1.78,1.3-4.81.18-6.76-2.5l-7-9.71c-2-2.68-2.08-5.91-.29-7.21h0c1.78-1.3,4.81-.18,6.76,2.51l7,9.7C81.81,89.54,81.94,92.77,80.15,94.07Z" />
      <path d="M49.59,104h0c-2.21,0-4-2.69-4-6V86c0-3.31,1.79-6,4-6h0c2.21,0,4,2.69,4,6V98C53.59,101.31,51.8,104,49.59,104Z" />
      <path d="M19,94.07h0c-1.78-1.3-1.65-4.53.29-7.21l7.06-9.7c1.95-2.69,5-3.81,6.76-2.51h0c1.79,1.3,1.66,4.53-.29,7.21l-7.05,9.71C23.84,94.25,20.81,95.37,19,94.07Z" />
      <path d="M.13,68.07h0C-.55,66,1.45,63.43,4.6,62.41L16,58.7c3.15-1,6.26-.15,6.94,1.95h0c.68,2.1-1.32,4.64-4.47,5.66L7.08,70C3.92,71,.82,70.17.13,68.07Z" />
      <path d="M.13,35.93h0c.69-2.1,3.79-3,7-2l11.41,3.71c3.15,1,5.15,3.56,4.47,5.66h0c-.68,2.1-3.79,3-6.94,1.95L4.6,41.59C1.45,40.57-.55,38,.13,35.93Z" />
      <path d="M19,9.93h0c1.79-1.3,4.82-.18,6.77,2.5l7.05,9.71c1.95,2.68,2.08,5.91.29,7.21h0c-1.79,1.3-4.81.18-6.76-2.51l-7.06-9.7C17.37,14.46,17.24,11.23,19,9.93Z" />
    </g>
  </g>
</svg>