<svg id="icon-deposit-bond-2" xmlns="http://www.w3.org/2000/svg" width="29.96" height="30" viewBox="0 0 29.96 30">
  <path id="Trazado_5364" data-name="Trazado 5364" d="M112.217,33.016a.705.705,0,0,0-.771-.257,9.621,9.621,0,0,0,0,15.729.705.705,0,0,0,.771-.257,15,15,0,0,0,0-15.386Z" transform="translate(-84.38 -25.709)" fill="#868b92"/>
  <path id="Trazado_5365" data-name="Trazado 5365" d="M7.037,41.023a9.686,9.686,0,0,0-4.071-7.864.557.557,0,0,0-.407,0,.557.557,0,0,0-.343.171,15,15,0,0,0,0,15.386.557.557,0,0,0,.364.257.557.557,0,0,0,.407,0,9.686,9.686,0,0,0,4.05-7.95Z" transform="translate(-0.093 -26.023)" fill="#868b92"/>
  <path id="Trazado_5366" data-name="Trazado 5366" d="M79.79,15a11.893,11.893,0,0,1,4.821-9.557.45.45,0,0,0,.214-.386.493.493,0,0,0-.15-.407A15,15,0,0,0,75.569,0a.664.664,0,0,0-.429.15.493.493,0,0,0-.171.471V29.378a.493.493,0,0,0,.171.386.664.664,0,0,0,.429.15A15,15,0,0,0,84.74,25.35a.493.493,0,0,0,.15-.407.45.45,0,0,0-.214-.386A11.893,11.893,0,0,1,79.79,15Z" transform="translate(-58.918 0)" fill="#868b92"/>
  <path id="Trazado_5367" data-name="Trazado 5367" d="M28.612.621A.493.493,0,0,0,28.44.236.664.664,0,0,0,28.012,0,15,15,0,0,0,18.84,4.65a.493.493,0,0,0-.15.407.45.45,0,0,0,.214.386,11.836,11.836,0,0,1,.064,19.114.45.45,0,0,0-.214.386.493.493,0,0,0,.15.407A15,15,0,0,0,28.012,30a.664.664,0,0,0,.429-.15.493.493,0,0,0,.171-.386Z" transform="translate(-14.703 0)" fill="#868b92"/>
</svg>
