<svg xmlns="http://www.w3.org/2000/svg" width="42" height="42.066" viewBox="0 0 42 42.066">
  <g id="icon-game-title" transform="translate(1.5 1.559)">
    <path id="Trazado_5511" data-name="Trazado 5511" d="M20.552,38.3h0a2.935,2.935,0,0,1-2.1,0h0A27.975,27.975,0,0,1,.5,12.168V4.539A1.49,1.49,0,0,1,1.552,3.106a63.04,63.04,0,0,1,35.9,0A1.49,1.49,0,0,1,38.5,4.539v7.629A27.975,27.975,0,0,1,20.552,38.3Z" transform="translate(0 0)" fill="none" stroke="#000" stroke-linecap="round" stroke-linejoin="round" stroke-width="4"/>
    <path id="Trazado_5512" data-name="Trazado 5512" d="M13.078,19.429,5.245,12.334C.986,8.075,7.247-.1,13.078,6.514,18.91-.1,25.142,8.1,20.912,12.334Z" transform="translate(6.427 6.782)" fill="none" stroke="#000" stroke-linecap="round" stroke-linejoin="round" stroke-width="4"/>
  </g>
</svg>
