<svg xmlns="http://www.w3.org/2000/svg" width="27.824" height="31" viewBox="0 0 27.824 31">
  <path id="icon-deposit-bond-1" d="M26.375,2.4,25.262,1.062A1.887,1.887,0,0,0,22.987.588a12.041,12.041,0,0,1-5.15,1.25,9.235,9.235,0,0,1-3.812-.85A10.315,10.315,0,0,0,9.762,0,9.524,9.524,0,0,0,5.2,1.125a.262.262,0,0,1-.237,0A.326.326,0,0,1,4.775,1a1.875,1.875,0,0,0-1.65-1H1.875A1.875,1.875,0,0,0,0,1.875v8.75A1.875,1.875,0,0,0,1.875,12.5H3.212A1.862,1.862,0,0,0,5.05,10.975a3.3,3.3,0,0,1,3.375-2.5A9.234,9.234,0,0,1,11.2,9.25a11.527,11.527,0,0,0,3.95,1.012.475.475,0,0,1,.362.787A29.325,29.325,0,0,0,8.275,28.012a1.926,1.926,0,0,0,.513,1.4A1.875,1.875,0,0,0,10.15,30h7.413a1.875,1.875,0,0,0,1.863-1.675c.675-6.337,5.725-20,7.262-24.062A1.9,1.9,0,0,0,26.375,2.4" transform="translate(0.5 0.5)" fill="#868b92" stroke="rgba(0,0,0,0)" stroke-width="1"/>
</svg>
