<svg xmlns="http://www.w3.org/2000/svg" width="15.235" height="15.235" viewBox="0 0 15.235 15.235">
  <g id="icon-deposit-copy" transform="translate(-0.383 -0.383)">
    <path id="Trazado_5374" data-name="Trazado 5374" d="M9.141,6H1.523A1.525,1.525,0,0,0,0,7.523v7.617a1.525,1.525,0,0,0,1.523,1.523H9.141a1.525,1.525,0,0,0,1.523-1.523V7.523A1.525,1.525,0,0,0,9.141,6" transform="translate(0.383 -1.047)" fill="#00d1bc"/>
    <path id="Trazado_5375" data-name="Trazado 5375" d="M15.141,0H7.523A1.523,1.523,0,0,0,6,1.523V3.047h5.471a2.291,2.291,0,0,1,2.146,2.168v5.449h1.523a1.523,1.523,0,0,0,1.523-1.523V1.523A1.523,1.523,0,0,0,15.141,0" transform="translate(-1.047 0.383)" fill="#00d1bc"/>
  </g>
</svg>
