<svg xmlns="http://www.w3.org/2000/svg" width="22" height="17.385" viewBox="0 0 22 17.385">
  <g id="icon-menu-history" transform="translate(256.428 106.96)">
    <path id="Trazado_5393" data-name="Trazado 5393" d="M29.341,28.571a.769.769,0,1,1-.769.769A.769.769,0,0,1,29.341,28.571Z" transform="translate(-284 -134.531)" fill="none" stroke="#13171d" stroke-linecap="round" stroke-linejoin="round" stroke-width="2"/>
    <line id="Línea_144" data-name="Línea 144" x2="13.846" transform="translate(-249.274 -105.191)" fill="none" stroke="#13171d" stroke-linecap="round" stroke-linejoin="round" stroke-width="2"/>
    <path id="Trazado_5394" data-name="Trazado 5394" d="M29.341,285.714a.769.769,0,1,1-.769.769A.769.769,0,0,1,29.341,285.714Z" transform="translate(-284 -384.751)" fill="none" stroke="#13171d" stroke-linecap="round" stroke-linejoin="round" stroke-width="2"/>
    <line id="Línea_145" data-name="Línea 145" x2="13.846" transform="translate(-249.274 -98.268)" fill="none" stroke="#13171d" stroke-linecap="round" stroke-linejoin="round" stroke-width="2"/>
    <path id="Trazado_5395" data-name="Trazado 5395" d="M29.341,542.857a.769.769,0,1,1-.769.769A.769.769,0,0,1,29.341,542.857Z" transform="translate(-284 -634.971)" fill="none" stroke="#13171d" stroke-linecap="round" stroke-linejoin="round" stroke-width="2"/>
    <line id="Línea_146" data-name="Línea 146" x2="13.846" transform="translate(-249.274 -91.345)" fill="none" stroke="#13171d" stroke-linecap="round" stroke-linejoin="round" stroke-width="2"/>
  </g>
</svg>
