<svg xmlns="http://www.w3.org/2000/svg" width="22" height="22.015" viewBox="0 0 22 22.015">
  <g id="icon-menu-wallet" transform="translate(-27.571 -27.569)">
    <ellipse id="Elipse_757" data-name="Elipse 757" cx="6.923" cy="3.077" rx="6.923" ry="3.077" transform="translate(34.725 33.199)" fill="none" stroke="#13171d" stroke-linecap="round" stroke-linejoin="round" stroke-width="2"/>
    <path id="Trazado_5408" data-name="Trazado 5408" d="M257.143,314.787v9.231c0,1.692,3.077,3.077,6.923,3.077s6.923-1.385,6.923-3.077v-9.231" transform="translate(-222.418 -278.511)" fill="none" stroke="#13171d" stroke-linecap="round" stroke-linejoin="round" stroke-width="2"/>
    <path id="Trazado_5409" data-name="Trazado 5409" d="M270.989,486.215c0,1.692-3.077,3.077-6.923,3.077s-6.923-1.385-6.923-3.077" transform="translate(-222.418 -445.323)" fill="none" stroke="#13171d" stroke-linecap="round" stroke-linejoin="round" stroke-width="2"/>
    <path id="Trazado_5410" data-name="Trazado 5410" d="M41.494,30.123a10.415,10.415,0,0,0-6-1.538c-3.831,0-6.923,1.385-6.923,3.077,0,.908.892,1.723,2.308,2.308" fill="none" stroke="#13171d" stroke-linecap="round" stroke-linejoin="round" stroke-width="2"/>
    <path id="Trazado_5411" data-name="Trazado 5411" d="M30.88,154.9c-1.415-.585-2.308-1.4-2.308-2.308v-9.231" transform="translate(-0.001 -111.698)" fill="none" stroke="#13171d" stroke-linecap="round" stroke-linejoin="round" stroke-width="2"/>
    <path id="Trazado_5412" data-name="Trazado 5412" d="M30.88,317.095c-1.415-.585-2.308-1.4-2.308-2.308" transform="translate(-0.001 -278.511)" fill="none" stroke="#13171d" stroke-linecap="round" stroke-linejoin="round" stroke-width="2"/>
  </g>
</svg>
