<svg xmlns="http://www.w3.org/2000/svg" viewBox="0 0 104 104"><defs><style>.cls-1,.cls-2{fill:none;stroke:#13171d;stroke-width:2px;}.cls-2{stroke-linecap:round;stroke-linejoin:round;}</style></defs><g id="Layer_2" data-name="Layer 2"><g id="Layer_1-2" data-name="Layer 1"><g id="icon-deposit-success"><g id="Elipse_711-2" data-name="Elipse 711-2"><circle class="cls-1" cx="52" cy="52" r="51"/></g><g id="Grupo_285" data-name="Grupo 285"><path id="Trazado_4983" data-name="Trazado 4983" class="cls-2" d="M28.72,56.19V74.5"/><path id="Trazado_4984" data-name="Trazado 4984" class="cls-2" d="M28.72,71.45H62.29a6.1,6.1,0,0,0-6.1-6.1H48.56a6.1,6.1,0,0,0-6.1-6.1H28.72"/><path id="Trazado_4985" data-name="Trazado 4985" class="cls-2" d="M40.93,65.35h7.63"/><path id="Trazado_4986" data-name="Trazado 4986" class="cls-2" d="M68.38,63.84a15.22,15.22,0,0,0-4.11-26.58L68,30.81a1.4,1.4,0,0,0,0-1.4,1.48,1.48,0,0,0-1.25-.7H51.69a1.45,1.45,0,0,0-1.24.7,1.4,1.4,0,0,0,0,1.4l3.77,6.45A15.22,15.22,0,0,0,44,51.61"/><path id="Trazado_4987" data-name="Trazado 4987" class="cls-2" d="M55.07,55.36a4.52,4.52,0,0,0,3.78,1.78c2.32,0,4.2-1.41,4.2-3.14s-1.88-3.15-4.2-3.15-4.19-1.41-4.19-3.15,1.88-3.15,4.2-3.15a4.52,4.52,0,0,1,3.78,1.78"/><path id="Trazado_4988" data-name="Trazado 4988" class="cls-2" d="M58.86,57.14v2.1"/><path id="Trazado_4989" data-name="Trazado 4989" class="cls-2" d="M58.86,42.45v2.1"/></g></g></g></g></svg>