<svg xmlns="http://www.w3.org/2000/svg" width="34" height="34" viewBox="0 0 34 34">
  <g id="icon-data-dowload" transform="translate(22.429 29.1) rotate(180)">
    <circle id="Elipse_761" data-name="Elipse 761" cx="17" cy="17" r="17" transform="translate(-11.571 -4.9)" fill="#00d1bc"/>
    <g id="Icon" transform="translate(-0.571 2.799)">
      <path id="Trazado_5431" data-name="Trazado 5431" d="M121.258,4.235a.9.9,0,0,0,0-1.272l-2.7-2.7a.9.9,0,0,0-1.272,0l-2.7,2.7a.9.9,0,0,0,0,1.272.888.888,0,0,0,.636.264h1.5a.3.3,0,0,1,.3.3V9.3a.9.9,0,1,0,1.8,0V4.8a.3.3,0,0,1,.3-.3h1.5a.888.888,0,0,0,.636-.264" transform="translate(-111.922 0.002)" fill="#fff"/>
      <path id="Trazado_5432" data-name="Trazado 5432" d="M12,315.448a1.2,1.2,0,0,0-1.2-1.2H9a.3.3,0,0,0-.3.3v2.4a2.7,2.7,0,1,1-5.4,0v-2.4a.3.3,0,0,0-.3-.3H1.2a1.2,1.2,0,0,0-1.2,1.2v7.8a1.2,1.2,0,0,0,1.2,1.2h9.6a1.2,1.2,0,0,0,1.2-1.2Z" transform="translate(0 -307.647)" fill="#fff"/>
    </g>
  </g>
</svg>
