<svg xmlns="http://www.w3.org/2000/svg" width="31.284" height="31.273" viewBox="0 0 31.284 31.273">
  <g id="icon-deposit-title" transform="translate(1 1)">
    <path id="Trazado_4983" data-name="Trazado 4983" d="M4.375,83.125V94.834" transform="translate(-4.375 -65.562)" fill="none" stroke="#13171d" stroke-linecap="round" stroke-linejoin="round" stroke-width="2"/>
    <path id="Trazado_4984" data-name="Trazado 4984" d="M4.375,99.681H25.841a3.9,3.9,0,0,0-3.9-3.9H17.06a3.9,3.9,0,0,0-3.9-3.9H4.375" transform="translate(-4.375 -72.36)" fill="none" stroke="#13171d" stroke-linecap="round" stroke-linejoin="round" stroke-width="2"/>
    <path id="Trazado_4985" data-name="Trazado 4985" d="M39.375,109.375h4.879" transform="translate(-31.569 -85.957)" fill="none" stroke="#13171d" stroke-linecap="round" stroke-linejoin="round" stroke-width="2"/>
    <path id="Trazado_4986" data-name="Trazado 4986" d="M63.724,26.828a9.725,9.725,0,0,0-2.631-16.99L63.5,5.714a.884.884,0,0,0,0-.894.92.92,0,0,0-.795-.445H53.056a.92.92,0,0,0-.792.445.883.883,0,0,0,0,.894l2.411,4.124a9.728,9.728,0,0,0-6.549,9.173" transform="translate(-38.368 -4.375)" fill="none" stroke="#13171d" stroke-linecap="round" stroke-linejoin="round" stroke-width="2"/>
    <path id="Trazado_4987" data-name="Trazado 4987" d="M79.01,56.668a2.894,2.894,0,0,0,2.417,1.138c1.482,0,2.684-.9,2.684-2.013s-1.2-2.011-2.684-2.011-2.677-.9-2.677-2.014,1.2-2.013,2.683-2.013a2.89,2.89,0,0,1,2.417,1.138" transform="translate(-62.162 -39.633)" fill="none" stroke="#13171d" stroke-linecap="round" stroke-linejoin="round" stroke-width="2"/>
    <path id="Trazado_4988" data-name="Trazado 4988" d="M90.778,85.861V87.2" transform="translate(-71.508 -67.687)" fill="none" stroke="#13171d" stroke-linecap="round" stroke-linejoin="round" stroke-width="2"/>
    <path id="Trazado_4989" data-name="Trazado 4989" d="M90.778,43.75v1.341" transform="translate(-71.508 -34.968)" fill="none" stroke="#13171d" stroke-linecap="round" stroke-linejoin="round" stroke-width="2"/>
  </g>
</svg>
