<svg xmlns="http://www.w3.org/2000/svg" width="30" height="30" viewBox="0 0 30 30">
  <g id="icons-support-chat" transform="translate(-7.5)">
    <circle id="Elipse_778" data-name="Elipse 778" cx="15" cy="15" r="15" transform="translate(7.5)" fill="#13171d" opacity="0.2"/>
    <circle id="Elipse_779" data-name="Elipse 779" cx="11" cy="11" r="11" transform="translate(11.5 4)" fill="#fff"/>
    <path id="Trazado_5484" data-name="Trazado 5484" d="M4.728,0A4.727,4.727,0,0,0,0,4.727,4.672,4.672,0,0,0,.79,7.341L.159,9.031a.257.257,0,0,0,.286.343l2.214-.4a4.727,4.727,0,0,0,.68.269A4.933,4.933,0,0,1,9.25,3.339,4.727,4.727,0,0,0,4.728,0m6.143,5.415a3.858,3.858,0,1,0-1.039,6.194l1.725.31a.257.257,0,0,0,.286-.343l-.486-1.3A3.812,3.812,0,0,0,12,8.143a3.857,3.857,0,0,0-1.13-2.727" transform="translate(16.5 9)" fill="#00d1bc" fill-rule="evenodd"/>
  </g>
</svg>
