<svg xmlns="http://www.w3.org/2000/svg" width="16" height="16" viewBox="0 0 16 16">
  <g id="icon-checkout-gray-unchecked" fill="none">
    <path d="M4,0h8a4,4,0,0,1,4,4v8a4,4,0,0,1-4,4H4a4,4,0,0,1-4-4V4A4,4,0,0,1,4,0Z" stroke="none"/>
    <path d="M 4 1 C 2.345789909362793 1 1 2.345789909362793 1 4 L 1 12 C 1 13.65421009063721 2.345789909362793 15 4 15 L 12 15 C 13.65421009063721 15 15 13.65421009063721 15 12 L 15 4 C 15 2.345789909362793 13.65421009063721 1 12 1 L 4 1 M 4 0 L 12 0 C 14.20913982391357 0 16 1.790860176086426 16 4 L 16 12 C 16 14.20913982391357 14.20913982391357 16 12 16 L 4 16 C 1.790860176086426 16 0 14.20913982391357 0 12 L 0 4 C 0 1.790860176086426 1.790860176086426 0 4 0 Z" stroke="none" fill="#868b92"/>
  </g>
</svg>
