<svg xmlns="http://www.w3.org/2000/svg" width="24" height="24" viewBox="0 0 24 24">
  <g id="icon-menu-support" transform="translate(-3.375 -3.375)">
    <path id="Trazado_4906" data-name="Trazado 4906" d="M8.042,61.3H7.308a2.933,2.933,0,0,1-2.933-2.933V55.433A2.933,2.933,0,0,1,7.308,52.5h.733a.733.733,0,0,1,.733.733v7.333A.733.733,0,0,1,8.042,61.3Z" transform="translate(0 -40.058)" fill="none" stroke="#13171d" stroke-linecap="round" stroke-linejoin="round" stroke-width="2"/>
    <path id="Trazado_4907" data-name="Trazado 4907" d="M110.842,61.3h-.733a.733.733,0,0,1-.733-.733V53.233a.733.733,0,0,1,.733-.733h.733a2.933,2.933,0,0,1,2.933,2.933v2.933A2.933,2.933,0,0,1,110.842,61.3Z" transform="translate(-87.4 -40.058)" fill="none" stroke="#13171d" stroke-linecap="round" stroke-linejoin="round" stroke-width="2"/>
    <path id="Trazado_4908" data-name="Trazado 4908" d="M21.875,12.442a8.067,8.067,0,0,1,8.067-8.067h0a8.067,8.067,0,0,1,8.067,8.067" transform="translate(-14.567 0)" fill="none" stroke="#13171d" stroke-linecap="round" stroke-linejoin="round" stroke-width="2"/>
    <path id="Trazado_4909" data-name="Trazado 4909" d="M87.5,108.667h2.2a2.933,2.933,0,0,0,2.933-2.933h0V105" transform="translate(-69.192 -83.758)" fill="none" stroke="#13171d" stroke-linecap="round" stroke-linejoin="round" stroke-width="2"/>
    <path id="Trazado_4910" data-name="Trazado 4910" d="M64.183,121.058H62.717a1.467,1.467,0,0,1-1.467-1.467h0a1.467,1.467,0,0,1,1.467-1.467h1.467a1.467,1.467,0,0,1,1.467,1.467h0A1.467,1.467,0,0,1,64.183,121.058Z" transform="translate(-47.342 -94.683)" fill="none" stroke="#13171d" stroke-linecap="round" stroke-linejoin="round" stroke-width="2"/>
  </g>
</svg>
