<svg id="icon-game-modify-btn" xmlns="http://www.w3.org/2000/svg" width="30" height="30" viewBox="0 0 30 30">
  <circle id="Elipse_751" data-name="Elipse 751" cx="15" cy="15" r="15" fill="#13171d" opacity="0.2"/>
  <g id="Edit_Icon_2" data-name="Edit Icon 2" transform="translate(6.5 6.506)">
    <path id="Trazado_5429" data-name="Trazado 5429" d="M334.212,9.314l2.948-.663a1.211,1.211,0,0,0,.537-.309l5.154-5.154a1.143,1.143,0,0,0,0-1.611L341.606.332a1.143,1.143,0,0,0-1.611,0l-5.154,5.154a1.211,1.211,0,0,0-.309.537l-.663,2.948a.263.263,0,0,0,.08.263.286.286,0,0,0,.263.08" transform="translate(-327.184 0)" fill="#fff"/>
    <path id="Trazado_5430" data-name="Trazado 5430" d="M11.725,93.039a2.845,2.845,0,0,1-1.337.731L6.959,94.5a2.011,2.011,0,0,1-1.931-2.468l.686-2.9a2.96,2.96,0,0,1,.766-1.371l1.943-1.988a.286.286,0,0,0,.069-.3.309.309,0,0,0-.217-.194,7.312,7.312,0,0,0-1.143-.091,7.142,7.142,0,1,0,7.154,7.154,7.428,7.428,0,0,0-.091-1.143.3.3,0,0,0-.48-.137Z" transform="translate(0.001 -83.484)" fill="#fff"/>
  </g>
</svg>
