<svg xmlns="http://www.w3.org/2000/svg" width="22.096" height="23.783" viewBox="0 0 22.096 23.783">
  <g id="icon-menu-config" transform="translate(0.198 0.15)">
    <path id="settings-menu__white-outline" d="M35.606,31.5l.721-1.86a1.676,1.676,0,0,1,1.558-1.072h1.374a1.676,1.676,0,0,1,1.558,1.072l.721,1.86,2.446,1.408,1.977-.3a1.676,1.676,0,0,1,1.676.821l.67,1.173a1.676,1.676,0,0,1-.134,1.893L46.95,38.055V40.87l1.257,1.558a1.676,1.676,0,0,1,.134,1.893l-.67,1.173a1.676,1.676,0,0,1-1.676.821l-1.977-.3-2.446,1.408-.721,1.86a1.676,1.676,0,0,1-1.558,1.072H37.885a1.676,1.676,0,0,1-1.558-1.072l-.721-1.86-2.446-1.408-1.977.3a1.676,1.676,0,0,1-1.676-.821l-.67-1.173a1.676,1.676,0,0,1,.134-1.893l1.223-1.558V38.055L28.937,36.5A1.676,1.676,0,0,1,28.8,34.6l.67-1.173a1.676,1.676,0,0,1,1.676-.821l1.977.3Zm-.385,7.959a3.351,3.351,0,1,0,3.351-3.351A3.351,3.351,0,0,0,35.22,39.463Z" transform="translate(-27.721 -27.721)" fill="none" stroke="#13171d" stroke-linecap="round" stroke-linejoin="round" stroke-width="2"/>
  </g>
</svg>
