<svg xmlns="http://www.w3.org/2000/svg" width="25" height="31" viewBox="0 0 25 31">
  <path id="icon-deposit-bond-3" d="M20.667,0H3.333A3.333,3.333,0,0,0,0,3.333V26.667A3.333,3.333,0,0,0,3.333,30H20.667A3.333,3.333,0,0,0,24,26.667V3.333A3.333,3.333,0,0,0,20.667,0M4.631,6.239A1.609,1.609,0,1,1,6.239,4.631,1.609,1.609,0,0,1,4.631,6.239M16,15.555,12.833,20a1,1,0,0,1-1.667,0L8,15.555a1,1,0,0,1,0-1.11L11.167,10a1,1,0,0,1,1.667,0L16,14.445a1,1,0,0,1,0,1.11m4.125,12.179a1.609,1.609,0,1,1,1.609-1.609,1.609,1.609,0,0,1-1.609,1.609" transform="translate(0.5 0.5)" fill="#13171d" stroke="rgba(0,0,0,0)" stroke-width="1"/>
</svg>
