<svg xmlns="http://www.w3.org/2000/svg" width="22" height="22" viewBox="0 0 22 22">
  <path id="icon-slots-cross-btn" d="M11,22A11,11,0,1,0,0,11,11,11,0,0,0,11,22ZM6.463,7.755A.917.917,0,0,1,7.755,6.463l3.08,3.08a.229.229,0,0,0,.324.006l.006-.006,3.08-3.08a.93.93,0,0,1,1.338,1.293l-3.08,3.08a.229.229,0,0,0-.006.324l.006.006,3.08,3.08a.917.917,0,0,1,.043,1.3c-.014.015-.028.029-.043.043a.919.919,0,0,1-1.293,0l-3.08-3.08a.229.229,0,0,0-.324-.006l-.006.006-3.126,3.08a.914.914,0,1,1-1.293-1.293l3.08-3.08a.229.229,0,0,0,.006-.324l-.006-.006Z" fill="#fff"/>
</svg>
