<svg xmlns="http://www.w3.org/2000/svg" width="124.679" height="127.062" viewBox="0 0 124.679 127.062">
  <g id="icon-banner-slots" transform="translate(15.146 18.086)">
    <circle id="Elipse_715" data-name="Elipse 715" cx="55" cy="55" r="55" transform="translate(-8 -8)" fill="#ff293e" opacity="0.65"/>
    <path id="Star" d="M124.679,63.531h0c0-.794-1.588-1.191-1.588-1.191C95.3,54,71.869,31.765,64.722,5.559L63.531,1.191S63.134,0,62.34,0s-1.191,1.191-1.191,1.191L59.957,5.559C52.81,31.765,29.383,54,1.588,62.34c0,0-1.588.4-1.588,1.191s1.588,1.191,1.588,1.191C29.383,73.06,52.81,95.3,59.957,121.5l1.191,4.368s.4,1.191,1.191,1.191,1.191-1.191,1.191-1.191l1.191-4.368C71.869,95.3,95.3,73.06,123.091,64.722c-.4.4,1.191,0,1.588-1.191" transform="translate(-15.146 -18.086)" fill="#ff293e"/>
    <g id="Icon" transform="translate(36.618 38.497)">
      <g id="streamline-icon-casino-lucky-7_140x140" data-name="streamline-icon-casino-lucky-7@140x140" transform="translate(-5.315 -9.245)">
        <path id="Trazado_5135" data-name="Trazado 5135" d="M27.53,6.031a9.426,9.426,0,0,0-8.019-.363c-.178.076-.341.142-.494.2a1.578,1.578,0,0,1-1.207-.06,2.366,2.366,0,0,0-2.174-1.431H14.453a2.366,2.366,0,0,0-2.366,2.366v9.466a2.366,2.366,0,0,0,2.366,2.366h1.183A2.366,2.366,0,0,0,18,16.207v-.426a2.366,2.366,0,0,1,1.765-2.288,7.572,7.572,0,0,1,5.46.347c2.146,1.344,4.723,2.376,6.941,1.231l2.393-1.231C26.981,21.422,22.5,28.2,21.68,37.29a2.366,2.366,0,0,0,2.362,2.581h8.222a2.374,2.374,0,0,0,2.366-2.308c.218-7.784.689-12.2,8.64-28.081a2.393,2.393,0,0,0-.431-2.756l-.983-.984a2.392,2.392,0,0,0-3.026-.268,11.13,11.13,0,0,1-11.3.558Z" transform="translate(-12.087 -4.375)" fill="none" stroke="#fff" stroke-linecap="round" stroke-linejoin="round" stroke-width="2"/>
      </g>
    </g>
  </g>
</svg>
