<svg xmlns="http://www.w3.org/2000/svg" width="37" height="37" viewBox="0 0 37 37">
  <g id="icon-calendar-red" transform="translate(-3.375 -3.375)">
    <path id="Trazado_5225" data-name="Trazado 5225" d="M16.042,36.458H6.708a2.334,2.334,0,0,1-2.333-2.333h0V15.458a2.334,2.334,0,0,1,2.333-2.333h21a2.334,2.334,0,0,1,2.333,2.333v7" transform="translate(0 -6.417)" fill="none" stroke="#ff293e" stroke-linecap="round" stroke-linejoin="round" stroke-width="2"/>
    <path id="Trazado_5226" data-name="Trazado 5226" d="M4.375,39.375H30.042" transform="translate(0 -25.667)" fill="none" stroke="#ff293e" stroke-linecap="round" stroke-linejoin="round" stroke-width="2"/>
    <path id="Trazado_5227" data-name="Trazado 5227" d="M30.625,9.042V4.375" transform="translate(-19.25)" fill="none" stroke="#ff293e" stroke-linecap="round" stroke-linejoin="round" stroke-width="2"/>
    <path id="Trazado_5228" data-name="Trazado 5228" d="M74.375,9.042V4.375" transform="translate(-51.333)" fill="none" stroke="#ff293e" stroke-linecap="round" stroke-linejoin="round" stroke-width="2"/>
    <path id="Trazado_5229" data-name="Trazado 5229" d="M65.625,74.958a9.333,9.333,0,1,0,9.333-9.333A9.333,9.333,0,0,0,65.625,74.958Z" transform="translate(-44.917 -44.917)" fill="none" stroke="#ff293e" stroke-linecap="round" stroke-linejoin="round" stroke-width="2"/>
    <path id="Trazado_5230" data-name="Trazado 5230" d="M104.75,89.285h-4.125V85.161" transform="translate(-70.583 -59.243)" fill="none" stroke="#ff293e" stroke-linecap="round" stroke-linejoin="round" stroke-width="2"/>
  </g>
</svg>
