<svg xmlns="http://www.w3.org/2000/svg" width="80" height="80" viewBox="0 0 80 80">
  <g id="icon-screen-icons-1" transform="translate(-7)">
    <g id="Elipse_718" data-name="Elipse 718" transform="translate(7)" fill="none" stroke="#ff293e" stroke-width="2">
      <circle cx="40" cy="40" r="40" stroke="none"/>
      <circle cx="40" cy="40" r="39" fill="none"/>
    </g>
    <path id="Trazado_5082" data-name="Trazado 5082" d="M20.039,46.187a3.719,3.719,0,1,1,0-7.438h2.241a.248.248,0,0,0,.238-.248V36.021a2.479,2.479,0,0,0-2.479-2.479H3.179A2.489,2.489,0,0,0,.7,36.021V48.914a2.489,2.489,0,0,0,2.479,2.48h16.86a2.48,2.48,0,0,0,2.479-2.48V46.435a.248.248,0,0,0-.238-.248Z" transform="translate(34.518 0.26)" fill="#ff293e"/>
    <path id="Trazado_5083" data-name="Trazado 5083" d="M106.532,72.917h-2.975a2.231,2.231,0,0,0,0,4.463h2.975a1.5,1.5,0,0,0,1.25-1.488V74.4A1.5,1.5,0,0,0,106.532,72.917Z" transform="translate(-48.999 -32.421)" fill="#ff293e"/>
    <path id="Trazado_5084" data-name="Trazado 5084" d="M45.113,2.38a1.2,1.2,0,0,0-.555-.754,1.229,1.229,0,0,0-.932-.129L30.861,4.938a.238.238,0,0,0-.179.238.248.248,0,0,0,.238.218H45.569a.238.238,0,0,0,.188-.1.227.227,0,0,0,.05-.119Z" transform="translate(9.633 26.889)" fill="#ff293e"/>
  </g>
</svg>
