<svg xmlns="http://www.w3.org/2000/svg" width="17.482" height="19.5" viewBox="0 0 17.482 19.5">
  <path id="icon-seven-promo" d="M11.5,2.168a4.78,4.78,0,0,0-4.066-.184c-.09.038-.173.072-.25.1a.8.8,0,0,1-.612-.03,1.2,1.2,0,0,0-1.1-.726h-.6a1.2,1.2,0,0,0-1.2,1.2v4.8a1.2,1.2,0,0,0,1.2,1.2h.6a1.2,1.2,0,0,0,1.2-1.2V7.112a1.2,1.2,0,0,1,.9-1.16,3.84,3.84,0,0,1,2.769.176c1.088.682,2.4,1.2,3.52.624l1.214-.624c-3.845,3.845-6.119,7.28-6.533,11.891a1.2,1.2,0,0,0,1.2,1.309H13.9a1.2,1.2,0,0,0,1.2-1.17c.11-3.947.35-6.188,4.382-14.24a1.214,1.214,0,0,0-.218-1.4l-.5-.5a1.213,1.213,0,0,0-1.534-.136,5.644,5.644,0,0,1-5.731.283Z" transform="translate(-2.918 -0.578)" fill="none" stroke="#fff" stroke-linecap="round" stroke-linejoin="round" stroke-width="1.5"/>
</svg>
