<svg xmlns="http://www.w3.org/2000/svg" width="80" height="80" viewBox="0 0 80 80">
  <g id="icon-screen-icons-7" transform="translate(-7)">
    <g id="Elipse_718" data-name="Elipse 718" transform="translate(7)" fill="none" stroke="#ff293e" stroke-width="2">
      <circle cx="40" cy="40" r="40" stroke="none"/>
      <circle cx="40" cy="40" r="39" fill="none"/>
    </g>
    <g id="Grupo_532" data-name="Grupo 532" transform="translate(33.66 26.264)">
      <rect id="Rectángulo_177" data-name="Rectángulo 177" width="6.863" height="16.667" rx="2" transform="translate(19.817 10.806)" fill="#ff293e"/>
      <rect id="Rectángulo_178" data-name="Rectángulo 178" width="6.863" height="8.824" rx="2" transform="translate(0.209 18.649)" fill="#ff293e"/>
      <rect id="Rectángulo_179" data-name="Rectángulo 179" width="6.863" height="12.745" rx="2" transform="translate(10.013 14.728)" fill="#ff293e"/>
      <path id="Trazado_5286" data-name="Trazado 5286" d="M27.772,1.539A1.392,1.392,0,0,0,26.713.774L21.889-.089A1.451,1.451,0,0,0,20.458.5a1.431,1.431,0,0,0-.137,1.529l.686,1.314-18.2,9.314a1.49,1.49,0,0,0-.627,1.961,1.451,1.451,0,0,0,1.412.824,1.412,1.412,0,0,0,.667-.176L22.34,5.99l.667,1.294a1.49,1.49,0,0,0,1.314.8h0a1.431,1.431,0,0,0,1.314-.824l2.157-4.412a1.471,1.471,0,0,0-.02-1.314Z" transform="translate(-2.033 0.11)" fill="#ff293e"/>
    </g>
  </g>
</svg>
