<svg xmlns="http://www.w3.org/2000/svg" width="28" height="28.072" viewBox="0 0 28 28.072">
  <g id="icon-poker-menu-2" transform="translate(-27.571 -27.571)">
    <path id="Trazado_5474" data-name="Trazado 5474" d="M28.571,295.359a2,2,0,0,1,1.94-2.056H44.089a2,2,0,0,1,1.94,2.056v8.223a2,2,0,0,1-1.94,2.056H30.511a2,2,0,0,1-1.94-2.056Z" transform="translate(0 -255.441)" fill="none" stroke="#ff293e" stroke-linejoin="round" stroke-width="2"/>
    <line id="Línea_208" data-name="Línea 208" y2="4.446" transform="translate(37.3 50.197)" fill="none" stroke="#ff293e" stroke-linecap="round" stroke-linejoin="round" stroke-width="2"/>
    <line id="Línea_209" data-name="Línea 209" x2="7.759" transform="translate(33.42 54.643)" fill="none" stroke="#ff293e" stroke-linecap="round" stroke-linejoin="round" stroke-width="2"/>
    <path id="Trazado_5475" data-name="Trazado 5475" d="M134.482,32.285V30.428a1.857,1.857,0,0,1,1.857-1.857h18.569a1.857,1.857,0,0,1,1.857,1.857v13a1.857,1.857,0,0,1-1.857,1.857h-1.857" transform="translate(-102.194 0)" fill="none" stroke="#ff293e" stroke-linecap="round" stroke-linejoin="round" stroke-width="2"/>
    <line id="Línea_210" data-name="Línea 210" x2="17.458" transform="translate(28.571 46.192)" fill="none" stroke="#ff293e" stroke-linecap="round" stroke-linejoin="round" stroke-width="2"/>
  </g>
</svg>
