<svg xmlns="http://www.w3.org/2000/svg" width="49.968" height="50.003" viewBox="0 0 49.968 50.003">
  <g id="icon-countdown-grid-3" transform="translate(-390.587 173.002)">
    <g id="coins__white-outline" transform="translate(363.016 -200.57)">
      <ellipse id="Elipse_757" data-name="Elipse 757" cx="16.604" cy="7.38" rx="16.604" ry="7.38" transform="translate(43.33 39.672)" fill="none" stroke="#e99c00" stroke-linecap="round" stroke-linejoin="round" stroke-width="2"/>
      <path id="Trazado_5408" data-name="Trazado 5408" d="M257.143,314.787v22.139c0,4.059,7.38,7.38,16.6,7.38s16.6-3.321,16.6-7.38V314.787" transform="translate(-213.813 -267.735)" fill="none" stroke="#e99c00" stroke-linecap="round" stroke-linejoin="round" stroke-width="2"/>
      <path id="Trazado_5409" data-name="Trazado 5409" d="M290.351,486.215c0,4.059-7.38,7.38-16.6,7.38s-16.6-3.321-16.6-7.38" transform="translate(-213.813 -428.093)" fill="none" stroke="#e99c00" stroke-linecap="round" stroke-linejoin="round" stroke-width="2"/>
      <path id="Trazado_5410" data-name="Trazado 5410" d="M59.565,32.293a24.98,24.98,0,0,0-14.39-3.69c-9.188,0-16.6,3.321-16.6,7.38,0,2.177,2.14,4.133,5.535,5.535" transform="translate(0 0)" fill="none" stroke="#e99c00" stroke-linecap="round" stroke-linejoin="round" stroke-width="2"/>
      <path id="Trazado_5411" data-name="Trazado 5411" d="M34.107,171.033c-3.395-1.4-5.535-3.358-5.535-5.535V143.359" transform="translate(-0.001 -107.376)" fill="none" stroke="#e99c00" stroke-linecap="round" stroke-linejoin="round" stroke-width="2"/>
      <path id="Trazado_5412" data-name="Trazado 5412" d="M34.107,320.322c-3.395-1.4-5.535-3.358-5.535-5.535" transform="translate(-0.001 -267.735)" fill="none" stroke="#e99c00" stroke-linecap="round" stroke-linejoin="round" stroke-width="2"/>
    </g>
  </g>
</svg>
