<svg xmlns="http://www.w3.org/2000/svg" width="20.274" height="17.354" viewBox="0 0 20.274 17.354">
  <g id="icon-screen-heart" opacity="0.5">
    <path id="Trazado_99" data-name="Trazado 99" d="M20.055,14.313a5.79,5.79,0,0,0-4.111-4.1A6.036,6.036,0,0,0,10.4,12.084a.362.362,0,0,1-.492,0,6.036,6.036,0,0,0-5.544-1.867,5.79,5.79,0,0,0-4.111,4.1,5.646,5.646,0,0,0,1.448,5.6L9.69,27.283a.738.738,0,0,0,.984,0l8.005-7.4A5.6,5.6,0,0,0,20.055,14.313Z" transform="translate(-0.024 -10.118)" fill="#fff"/>
  </g>
</svg>
