<svg xmlns="http://www.w3.org/2000/svg" width="124.679" height="127.062" viewBox="0 0 124.679 127.062">
  <g id="icon-banner-poker" transform="translate(15.146 18.086)">
    <circle id="Elipse_715" data-name="Elipse 715" cx="55" cy="55" r="55" transform="translate(-8 -8)" fill="#ff293e" opacity="0.65"/>
    <path id="Star" d="M124.679,63.531h0c0-.794-1.588-1.191-1.588-1.191C95.3,54,71.869,31.765,64.722,5.559L63.531,1.191S63.134,0,62.34,0s-1.191,1.191-1.191,1.191L59.957,5.559C52.81,31.765,29.383,54,1.588,62.34c0,0-1.588.4-1.588,1.191s1.588,1.191,1.588,1.191C29.383,73.06,52.81,95.3,59.957,121.5l1.191,4.368s.4,1.191,1.191,1.191,1.191-1.191,1.191-1.191l1.191-4.368C71.869,95.3,95.3,73.06,123.091,64.722c-.4.4,1.191,0,1.588-1.191" transform="translate(-15.146 -18.086)" fill="#ff293e"/>
    <g id="Icon" transform="translate(8.306 5.689)">
      <g id="Grupo_499" data-name="Grupo 499" transform="translate(19.081 19.95)">
        <path id="Trazado_5254" data-name="Trazado 5254" d="M24.929,6.49a2.609,2.609,0,0,0-3.057-2.066h0L6.494,7.409A2.621,2.621,0,0,0,4.429,10.47L8.907,33.534A2.61,2.61,0,0,0,11.966,35.6l1.442-.28" transform="translate(-4.382 -4.376)" fill="none" stroke="#fff" stroke-linecap="round" stroke-linejoin="round" stroke-width="2"/>
        <path id="Trazado_5255" data-name="Trazado 5255" d="M42.085,39.877l-2.85,5.873,1.316,1.188" transform="translate(-28.796 -29.243)" fill="none" stroke="#fff" stroke-linecap="round" stroke-linejoin="round" stroke-width="2"/>
        <path id="Trazado_5256" data-name="Trazado 5256" d="M20.341,26.059a.653.653,0,0,1,.766.517v.007" transform="translate(-15.561 -19.556)" fill="none" stroke="#fff" stroke-linecap="round" stroke-linejoin="round" stroke-width="2"/>
        <path id="Trazado_5257" data-name="Trazado 5257" d="M18.58,26.854a.654.654,0,0,1,.518-.766H19.1" transform="translate(-14.319 -19.584)" fill="none" stroke="#fff" stroke-linecap="round" stroke-linejoin="round" stroke-width="2"/>
        <path id="Trazado_5258" data-name="Trazado 5258" d="M19.375,29.154a.655.655,0,0,1-.766-.521v0" transform="translate(-14.347 -21.365)" fill="none" stroke="#fff" stroke-linecap="round" stroke-linejoin="round" stroke-width="2"/>
        <path id="Trazado_5259" data-name="Trazado 5259" d="M21.676,27.813a.656.656,0,0,1-.519.768h-.005" transform="translate(-16.129 -20.793)" fill="none" stroke="#fff" stroke-linecap="round" stroke-linejoin="round" stroke-width="2"/>
        <rect id="Rectángulo_160" data-name="Rectángulo 160" width="28.71" height="20.881" rx="3" transform="translate(13.461 35.48) rotate(-78.578)" fill="none" stroke="#fff" stroke-linecap="round" stroke-linejoin="round" stroke-width="2"/>
        <line id="Línea_90" data-name="Línea 90" y1="2.558" x2="0.517" transform="translate(25.508 26.041)" fill="none" stroke="#fff" stroke-linecap="round" stroke-linejoin="round" stroke-width="2"/>
        <path id="Trazado_5260" data-name="Trazado 5260" d="M85.733,61.413S81.377,63.2,80.86,65.755a3.916,3.916,0,1,0,7.677,1.552C89.054,64.747,85.733,61.413,85.733,61.413Z" transform="translate(-57.897 -44.329)" fill="none" stroke="#fff" stroke-linecap="round" stroke-linejoin="round" stroke-width="2"/>
        <path id="Trazado_5261" data-name="Trazado 5261" d="M80.681,44.707a.655.655,0,0,1,.512.772" transform="translate(-57.827 -32.627)" fill="none" stroke="#fff" stroke-linecap="round" stroke-linejoin="round" stroke-width="2"/>
        <path id="Trazado_5262" data-name="Trazado 5262" d="M78.1,45.188a.655.655,0,0,1,.772-.512" transform="translate(-56.021 -32.596)" fill="none" stroke="#fff" stroke-linecap="round" stroke-linejoin="round" stroke-width="2"/>
        <path id="Trazado_5263" data-name="Trazado 5263" d="M78.584,47.194a.655.655,0,0,1-.512-.772" transform="translate(-55.991 -33.828)" fill="none" stroke="#fff" stroke-linecap="round" stroke-linejoin="round" stroke-width="2"/>
        <path id="Trazado_5264" data-name="Trazado 5264" d="M80.584,47.285a.655.655,0,0,1-.772.512" transform="translate(-57.219 -34.433)" fill="none" stroke="#fff" stroke-linecap="round" stroke-linejoin="round" stroke-width="2"/>
        <path id="Trazado_5265" data-name="Trazado 5265" d="M106.167,116.544a.655.655,0,0,1,.512.772" transform="translate(-75.68 -82.947)" fill="none" stroke="#fff" stroke-linecap="round" stroke-linejoin="round" stroke-width="2"/>
        <path id="Trazado_5266" data-name="Trazado 5266" d="M103.6,117.025a.655.655,0,0,1,.772-.512" transform="translate(-73.881 -82.916)" fill="none" stroke="#fff" stroke-linecap="round" stroke-linejoin="round" stroke-width="2"/>
        <path id="Trazado_5267" data-name="Trazado 5267" d="M104.082,119.025a.657.657,0,0,1-.512-.772" transform="translate(-73.851 -84.144)" fill="none" stroke="#fff" stroke-linecap="round" stroke-linejoin="round" stroke-width="2"/>
        <path id="Trazado_5268" data-name="Trazado 5268" d="M106.11,119.123a.656.656,0,0,1-.772.512" transform="translate(-75.099 -84.753)" fill="none" stroke="#fff" stroke-linecap="round" stroke-linejoin="round" stroke-width="2"/>
      </g>
    </g>
  </g>
</svg>
