<svg xmlns="http://www.w3.org/2000/svg" width="124.679" height="127.062" viewBox="0 0 124.679 127.062">
  <g id="icon-banner-ruleta" transform="translate(15.146 18.086)">
    <circle id="Elipse_715" data-name="Elipse 715" cx="55" cy="55" r="55" transform="translate(-8 -8)" fill="#ff293e" opacity="0.65"/>
    <path id="Star" d="M124.679,63.531h0c0-.794-1.588-1.191-1.588-1.191C95.3,54,71.869,31.765,64.722,5.559L63.531,1.191S63.134,0,62.34,0s-1.191,1.191-1.191,1.191L59.957,5.559C52.81,31.765,29.383,54,1.588,62.34c0,0-1.588.4-1.588,1.191s1.588,1.191,1.588,1.191C29.383,73.06,52.81,95.3,59.957,121.5l1.191,4.368s.4,1.191,1.191,1.191,1.191-1.191,1.191-1.191l1.191-4.368C71.869,95.3,95.3,73.06,123.091,64.722c-.4.4,1.191,0,1.588-1.191" transform="translate(-15.146 -18.086)" fill="#ff293e"/>
    <g id="Grupo_450" data-name="Grupo 450" transform="translate(24.604 23.049)">
      <circle id="Elipse_720" data-name="Elipse 720" cx="22.396" cy="22.396" r="22.396" transform="translate(0 0)" fill="none" stroke="#fff" stroke-linecap="round" stroke-linejoin="round" stroke-width="2"/>
      <path id="Trazado_5118" data-name="Trazado 5118" d="M54.376,36.948a16.153,16.153,0,0,1,.117,1.947,15.58,15.58,0,1,1-6.485-12.659" transform="translate(-16.517 -16.5)" fill="none" stroke="#fff" stroke-linecap="round" stroke-linejoin="round" stroke-width="2"/>
      <line id="Línea_61" data-name="Línea 61" y2="9.737" transform="translate(22.396 0)" fill="none" stroke="#fff" stroke-linecap="round" stroke-linejoin="round" stroke-width="2"/>
      <line id="Línea_62" data-name="Línea 62" x2="3.408" y2="5.901" transform="translate(11.198 2.999)" fill="none" stroke="#fff" stroke-linecap="round" stroke-linejoin="round" stroke-width="2"/>
      <line id="Línea_63" data-name="Línea 63" x2="5.901" y2="3.408" transform="translate(2.999 11.198)" fill="none" stroke="#fff" stroke-linecap="round" stroke-linejoin="round" stroke-width="2"/>
      <line id="Línea_64" data-name="Línea 64" x2="9.737" transform="translate(0 22.396)" fill="none" stroke="#fff" stroke-linecap="round" stroke-linejoin="round" stroke-width="2"/>
      <line id="Línea_65" data-name="Línea 65" y1="3.408" x2="5.901" transform="translate(2.999 30.186)" fill="none" stroke="#fff" stroke-linecap="round" stroke-linejoin="round" stroke-width="2"/>
      <line id="Línea_66" data-name="Línea 66" y1="5.901" x2="3.408" transform="translate(11.198 35.892)" fill="none" stroke="#fff" stroke-linecap="round" stroke-linejoin="round" stroke-width="2"/>
      <line id="Línea_67" data-name="Línea 67" y1="9.737" transform="translate(22.396 35.055)" fill="none" stroke="#fff" stroke-linecap="round" stroke-linejoin="round" stroke-width="2"/>
      <line id="Línea_68" data-name="Línea 68" x1="3.408" y1="5.901" transform="translate(30.186 35.892)" fill="none" stroke="#fff" stroke-linecap="round" stroke-linejoin="round" stroke-width="2"/>
      <line id="Línea_69" data-name="Línea 69" x1="5.901" y1="3.408" transform="translate(35.892 30.186)" fill="none" stroke="#fff" stroke-linecap="round" stroke-linejoin="round" stroke-width="2"/>
      <line id="Línea_70" data-name="Línea 70" x1="6.816" transform="translate(37.976 22.396)" fill="none" stroke="#fff" stroke-linecap="round" stroke-linejoin="round" stroke-width="2"/>
      <line id="Línea_71" data-name="Línea 71" x1="3.934" y2="2.279" transform="translate(37.859 11.198)" fill="none" stroke="#fff" stroke-linecap="round" stroke-linejoin="round" stroke-width="2"/>
      <line id="Línea_72" data-name="Línea 72" x1="3.408" y2="5.901" transform="translate(30.186 2.999)" fill="none" stroke="#fff" stroke-linecap="round" stroke-linejoin="round" stroke-width="2"/>
      <line id="Línea_73" data-name="Línea 73" y2="10.711" transform="translate(22.396 17.041)" fill="none" stroke="#fff" stroke-linecap="round" stroke-linejoin="round" stroke-width="2"/>
      <line id="Línea_74" data-name="Línea 74" x1="11.198" transform="translate(16.554 22.396)" fill="none" stroke="#fff" stroke-linecap="round" stroke-linejoin="round" stroke-width="2"/>
      <circle id="Elipse_721" data-name="Elipse 721" cx="1.947" cy="1.947" r="1.947" transform="translate(30.186 14.606)" fill="none" stroke="#fff" stroke-linecap="round" stroke-linejoin="round" stroke-width="2"/>
      <path id="Trazado_5119" data-name="Trazado 5119" d="M52.5,68.542a.487.487,0,0,1,.487.487" transform="translate(-35.946 -46.633)" fill="none" stroke="#fff" stroke-linecap="round" stroke-linejoin="round" stroke-width="2"/>
      <path id="Trazado_5120" data-name="Trazado 5120" d="M51.042,69.029a.487.487,0,0,1,.487-.487" transform="translate(-34.975 -46.633)" fill="none" stroke="#fff" stroke-linecap="round" stroke-linejoin="round" stroke-width="2"/>
      <path id="Trazado_5121" data-name="Trazado 5121" d="M51.529,70.487A.487.487,0,0,1,51.042,70" transform="translate(-34.975 -47.604)" fill="none" stroke="#fff" stroke-linecap="round" stroke-linejoin="round" stroke-width="2"/>
      <path id="Trazado_5122" data-name="Trazado 5122" d="M52.987,70a.487.487,0,0,1-.487.487" transform="translate(-35.946 -47.604)" fill="none" stroke="#fff" stroke-linecap="round" stroke-linejoin="round" stroke-width="2"/>
      <path id="Trazado_5123" data-name="Trazado 5123" d="M70.487,52.5a.487.487,0,0,1-.487.487" transform="translate(-47.604 -35.946)" fill="none" stroke="#fff" stroke-linecap="round" stroke-linejoin="round" stroke-width="2"/>
      <path id="Trazado_5124" data-name="Trazado 5124" d="M70,51.042a.487.487,0,0,1,.487.487" transform="translate(-47.604 -34.975)" fill="none" stroke="#fff" stroke-linecap="round" stroke-linejoin="round" stroke-width="2"/>
      <path id="Trazado_5125" data-name="Trazado 5125" d="M68.542,51.529a.487.487,0,0,1,.487-.487" transform="translate(-46.633 -34.975)" fill="none" stroke="#fff" stroke-linecap="round" stroke-linejoin="round" stroke-width="2"/>
      <path id="Trazado_5126" data-name="Trazado 5126" d="M69.029,52.987a.487.487,0,0,1-.487-.487" transform="translate(-46.633 -35.946)" fill="none" stroke="#fff" stroke-linecap="round" stroke-linejoin="round" stroke-width="2"/>
      <path id="Trazado_5127" data-name="Trazado 5127" d="M86.529,70.487A.487.487,0,0,1,86.042,70" transform="translate(-58.29 -47.604)" fill="none" stroke="#fff" stroke-linecap="round" stroke-linejoin="round" stroke-width="2"/>
      <path id="Trazado_5128" data-name="Trazado 5128" d="M87.987,70a.487.487,0,0,1-.487.487" transform="translate(-59.261 -47.604)" fill="none" stroke="#fff" stroke-linecap="round" stroke-linejoin="round" stroke-width="2"/>
      <path id="Trazado_5129" data-name="Trazado 5129" d="M87.5,68.542a.487.487,0,0,1,.487.487" transform="translate(-59.261 -46.633)" fill="none" stroke="#fff" stroke-linecap="round" stroke-linejoin="round" stroke-width="2"/>
      <path id="Trazado_5130" data-name="Trazado 5130" d="M86.042,69.029a.487.487,0,0,1,.487-.487" transform="translate(-58.29 -46.633)" fill="none" stroke="#fff" stroke-linecap="round" stroke-linejoin="round" stroke-width="2"/>
      <path id="Trazado_5131" data-name="Trazado 5131" d="M68.542,86.529a.487.487,0,0,1,.487-.487" transform="translate(-46.633 -58.29)" fill="none" stroke="#fff" stroke-linecap="round" stroke-linejoin="round" stroke-width="2"/>
      <path id="Trazado_5132" data-name="Trazado 5132" d="M69.029,87.987a.487.487,0,0,1-.487-.487" transform="translate(-46.633 -59.261)" fill="none" stroke="#fff" stroke-linecap="round" stroke-linejoin="round" stroke-width="2"/>
      <path id="Trazado_5133" data-name="Trazado 5133" d="M70.487,87.5a.487.487,0,0,1-.487.487" transform="translate(-47.604 -59.261)" fill="none" stroke="#fff" stroke-linecap="round" stroke-linejoin="round" stroke-width="2"/>
      <path id="Trazado_5134" data-name="Trazado 5134" d="M70,86.042a.487.487,0,0,1,.487.487" transform="translate(-47.604 -58.29)" fill="none" stroke="#fff" stroke-linecap="round" stroke-linejoin="round" stroke-width="2"/>
    </g>
  </g>
</svg>
