<svg xmlns="http://www.w3.org/2000/svg" width="26" height="26" viewBox="0 0 26 26">
  <g id="cross__white__black-circle" transform="translate(-392 -650)">
    <circle id="Ellipse_785" data-name="Ellipse 785" cx="11" cy="11" r="11" transform="translate(394 652)" fill="#fff"/>
    <path id="Path_4899" data-name="Path 4899" d="M13,26A13,13,0,1,0,0,13,13,13,0,0,0,13,26ZM7.637,9.165A1.083,1.083,0,0,1,9.165,7.637l3.64,3.64a.271.271,0,0,0,.383.007l.007-.007,3.64-3.64a1.1,1.1,0,0,1,1.582,1.528l-3.64,3.64a.271.271,0,0,0-.007.383l.007.007,3.64,3.64a1.083,1.083,0,0,1,.05,1.531c-.016.017-.033.034-.05.051a1.086,1.086,0,0,1-1.528,0l-3.64-3.64a.271.271,0,0,0-.383-.007l-.007.007-3.694,3.64a1.08,1.08,0,1,1-1.528-1.528l3.64-3.64a.271.271,0,0,0,.007-.383l-.007-.007Z" transform="translate(392 650)" fill="#13171d"/>
  </g>
</svg>
