<svg xmlns="http://www.w3.org/2000/svg" width="15.9" height="19.5" viewBox="0 0 15.9 19.5">
  <g id="icon-card-promo" transform="translate(-16.75 -3.625)">
    <rect id="Rectángulo_157" data-name="Rectángulo 157" width="14.4" height="18" rx="2" transform="translate(17.5 4.375)" fill="none" stroke="#fff" stroke-linecap="round" stroke-linejoin="round" stroke-width="1.5"/>
    <path id="Trazado_5200" data-name="Trazado 5200" d="M35,19.687a.3.3,0,0,1,.3.3" transform="translate(-14.3 -12.412)" fill="none" stroke="#fff" stroke-linecap="round" stroke-linejoin="round" stroke-width="1.5"/>
    <path id="Trazado_5201" data-name="Trazado 5201" d="M32.812,19.987a.3.3,0,0,1,.3-.3" transform="translate(-12.412 -12.412)" fill="none" stroke="#fff" stroke-linecap="round" stroke-linejoin="round" stroke-width="1.5"/>
    <path id="Trazado_5202" data-name="Trazado 5202" d="M33.112,22.175a.3.3,0,0,1-.3-.3" transform="translate(-12.412 -14.3)" fill="none" stroke="#fff" stroke-linecap="round" stroke-linejoin="round" stroke-width="1.5"/>
    <path id="Trazado_5203" data-name="Trazado 5203" d="M35.3,21.875a.3.3,0,0,1-.3.3" transform="translate(-14.3 -14.3)" fill="none" stroke="#fff" stroke-linecap="round" stroke-linejoin="round" stroke-width="1.5"/>
    <path id="Trazado_5204" data-name="Trazado 5204" d="M105,115.937a.3.3,0,0,1,.3.3" transform="translate(-76.3 -97.063)" fill="none" stroke="#fff" stroke-linecap="round" stroke-linejoin="round" stroke-width="1.5"/>
    <path id="Trazado_5205" data-name="Trazado 5205" d="M102.812,116.237a.3.3,0,0,1,.3-.3" transform="translate(-74.413 -97.063)" fill="none" stroke="#fff" stroke-linecap="round" stroke-linejoin="round" stroke-width="1.5"/>
    <path id="Trazado_5206" data-name="Trazado 5206" d="M103.112,118.425a.3.3,0,0,1-.3-.3" transform="translate(-74.413 -98.95)" fill="none" stroke="#fff" stroke-linecap="round" stroke-linejoin="round" stroke-width="1.5"/>
    <path id="Trazado_5207" data-name="Trazado 5207" d="M105.3,118.125a.3.3,0,0,1-.3.3" transform="translate(-76.3 -98.95)" fill="none" stroke="#fff" stroke-linecap="round" stroke-linejoin="round" stroke-width="1.5"/>
    <path id="Trazado_5208" data-name="Trazado 5208" d="M55.5,48.393a.6.6,0,0,0-1,0L52.6,51.06a.6.6,0,0,0,0,.666l1.9,2.667a.6.6,0,0,0,1,0l1.9-2.667a.6.6,0,0,0,0-.666Z" transform="translate(-30.2 -37.75)" fill="none" stroke="#fff" stroke-linecap="round" stroke-linejoin="round" stroke-width="1.5"/>
  </g>
</svg>
