<svg xmlns="http://www.w3.org/2000/svg" width="50" height="50" viewBox="0 0 50 50">
  <g id="icon-countdown-grid-1" transform="translate(-390.571 1)">
    <g id="Grupo_767" data-name="Grupo 767" transform="translate(391.571)">
      <path id="Trazado_5487" data-name="Trazado 5487" d="M32.263,114.286a3.692,3.692,0,0,0-3.692,3.692v35.077a3.692,3.692,0,0,0,3.692,3.692H72.879a3.692,3.692,0,0,0,3.692-3.692V117.978a3.692,3.692,0,0,0-3.692-3.692H65.494" transform="translate(-28.571 -108.748)" fill="none" stroke="#e99c00" stroke-linecap="round" stroke-linejoin="round" stroke-width="2"/>
      <line id="Línea_218" data-name="Línea 218" y2="11.077" transform="translate(11.077)" fill="none" stroke="#e99c00" stroke-linecap="round" stroke-linejoin="round" stroke-width="2"/>
      <line id="Línea_219" data-name="Línea 219" y2="11.077" transform="translate(36.923)" fill="none" stroke="#e99c00" stroke-linecap="round" stroke-linejoin="round" stroke-width="2"/>
      <line id="Línea_220" data-name="Línea 220" x2="18.462" transform="translate(11.077 5.539)" fill="none" stroke="#e99c00" stroke-linecap="round" stroke-linejoin="round" stroke-width="2"/>
      <path id="Trazado_5488" data-name="Trazado 5488" d="M182.443,356.7a4.156,4.156,0,0,0,3.918,2.769h2.769a4.154,4.154,0,0,0,4.154-4.154v-.692a4.154,4.154,0,0,0-4.154-4.154h-.346a3.808,3.808,0,0,0,0-7.615h-2.077a3.809,3.809,0,0,0-3.664,2.769" transform="translate(-172.5 -322.55)" fill="none" stroke="#e99c00" stroke-linecap="round" stroke-linejoin="round" stroke-width="2"/>
      <path id="Trazado_5489" data-name="Trazado 5489" d="M452.972,359.472h0a5.5,5.5,0,0,1-5.495-5.495v-5.626a5.495,5.495,0,1,1,10.99,0v5.626A5.5,5.5,0,0,1,452.972,359.472Z" transform="translate(-420.409 -322.55)" fill="none" stroke="#e99c00" stroke-miterlimit="10" stroke-width="2"/>
    </g>
  </g>
</svg>
