<svg xmlns="http://www.w3.org/2000/svg" width="22" height="22" viewBox="0 0 22 22">
  <g id="icon-grid-arrow" transform="translate(22) rotate(90)">
    <path id="indicator-down__dark-circle__medium" d="M22,11A11,11,0,1,0,11,22,11,11,0,0,0,22,11ZM8.313,16.83A1.571,1.571,0,0,1,8.3,14.608l.009-.009,3.331-3.316a.393.393,0,0,0,.01-.556l-.01-.01L8.313,7.4A1.578,1.578,0,0,1,10.544,5.17l4.714,4.714a1.571,1.571,0,0,1,.009,2.222l-.009.009L10.544,16.83a1.571,1.571,0,0,1-2.222.009Z" fill="#3b424b"/>
  </g>
</svg>
