<svg xmlns="http://www.w3.org/2000/svg" width="49" height="49" viewBox="0 0 49 49">
  <g id="icon-download-ios" transform="translate(-291.061 -10)">
    <g id="Elipse_772" data-name="Elipse 772" transform="translate(296.061 15)" fill="#fff" stroke="rgba(255,255,255,0.5)" stroke-width="5">
      <circle cx="19.5" cy="19.5" r="19.5" stroke="none"/>
      <circle cx="19.5" cy="19.5" r="22" fill="none"/>
    </g>
    <path id="Trazado_5445" data-name="Trazado 5445" d="M15.454,18.456a5.147,5.147,0,0,1,2.453-4.328,5.308,5.308,0,0,0-4.156-2.251c-1.769-.18-3.453,1.042-4.35,1.042s-2.282-1.016-3.749-.99a5.56,5.56,0,0,0-4.7,2.85c-2,3.476-.513,8.628,1.44,11.449.955,1.379,2.093,2.931,3.587,2.874,1.44-.057,1.983-.931,3.723-.931s2.229.931,3.751.9c1.548-.028,2.529-1.405,3.476-2.79A12.566,12.566,0,0,0,18.5,23.051a5.02,5.02,0,0,1-3.049-4.6" transform="translate(306.309 15.619)" fill="#ff293e"/>
    <path id="Trazado_5446" data-name="Trazado 5446" d="M23.307,3.628A5.012,5.012,0,0,0,24.489,0a5.092,5.092,0,0,0-3.347,1.72,4.765,4.765,0,0,0-1.206,3.516,4.218,4.218,0,0,0,3.37-1.609" transform="translate(295.595 22)" fill="#ff293e"/>
  </g>
</svg>
