<svg xmlns="http://www.w3.org/2000/svg" width="58" height="58.028" viewBox="0 0 58 58.028">
  <g id="icon-stars-landingA" transform="translate(-1115.845 248.219)">
    <path id="Trazado_5530" data-name="Trazado 5530" d="M1138.417,15.326a32.009,32.009,0,0,1-22.4,22.416.235.235,0,0,0,0,.454,32.01,32.01,0,0,1,22.4,22.416.235.235,0,0,0,.454,0,32.01,32.01,0,0,1,22.4-22.416.235.235,0,0,0,0-.454,32.01,32.01,0,0,1-22.4-22.416A.235.235,0,0,0,1138.417,15.326Z" transform="translate(0 -250.976)" fill="#ff293e"/>
    <path id="Trazado_5531" data-name="Trazado 5531" d="M1861.772-248.129a16.457,16.457,0,0,1-11.515,11.525.121.121,0,0,0,0,.233,16.457,16.457,0,0,1,11.515,11.525.121.121,0,0,0,.233,0,16.458,16.458,0,0,1,11.516-11.525.121.121,0,0,0,0-.233,16.458,16.458,0,0,1-11.516-11.525A.121.121,0,0,0,1861.772-248.129Z" transform="translate(-699.765)" fill="#ff293e"/>
  </g>
</svg>
