<svg xmlns="http://www.w3.org/2000/svg" width="49" height="49" viewBox="0 0 49 49">
  <g id="icon-download-android" transform="translate(-289.955 -10.174)">
    <g id="Elipse_771" data-name="Elipse 771" transform="translate(294.955 15.174)" fill="#fff" stroke="rgba(255,255,255,0.5)" stroke-width="5">
      <circle cx="19.5" cy="19.5" r="19.5" stroke="none"/>
      <circle cx="19.5" cy="19.5" r="22" fill="none"/>
    </g>
    <path id="Trazado_5444" data-name="Trazado 5444" d="M4.013,18.035a.948.948,0,0,0,1,1h1V22.55a1.543,1.543,0,0,0,1.5,1.5,1.543,1.543,0,0,0,1.5-1.5V19.038h2.007V22.55a1.5,1.5,0,1,0,3.01,0V19.038h1a.948.948,0,0,0,1-1V8H4.013ZM1.5,8A1.543,1.543,0,0,0,0,9.506V16.53a1.543,1.543,0,0,0,1.5,1.5,1.543,1.543,0,0,0,1.5-1.5V9.506A1.543,1.543,0,0,0,1.5,8M18.561,8a1.543,1.543,0,0,0-1.5,1.5V16.53a1.5,1.5,0,1,0,3.01,0V9.506a1.543,1.543,0,0,0-1.5-1.5M13.545,2.182l1.3-1.3a.485.485,0,0,0,0-.7.485.485,0,0,0-.7,0l-1.5,1.5a4.421,4.421,0,0,0-2.609-.7,5.974,5.974,0,0,0-2.709.6L5.92.075a1.108,1.108,0,0,0-.8,0,1.108,1.108,0,0,0,0,.8l1.3,1.3A6.129,6.129,0,0,0,4.013,7h12.04a5.8,5.8,0,0,0-2.508-4.816M8.027,4.992h-1v-1h1Zm5.017,0h-1v-1h1Z" transform="translate(304.422 22.646)" fill="#ff293e" fill-rule="evenodd"/>
  </g>
</svg>
