<svg xmlns="http://www.w3.org/2000/svg" width="30.405" height="34" viewBox="0 0 30.405 34">
  <path id="icon-seven-red" d="M17.59,2.821a8.5,8.5,0,0,0-7.229-.327c-.161.068-.307.128-.445.178a1.422,1.422,0,0,1-1.088-.054,2.133,2.133,0,0,0-1.96-1.29H5.8A2.133,2.133,0,0,0,3.668,3.461v8.533A2.133,2.133,0,0,0,5.8,14.128H6.868A2.133,2.133,0,0,0,9,11.994V11.61a2.133,2.133,0,0,1,1.591-2.062,6.827,6.827,0,0,1,4.922.313C17.45,11.073,19.774,12,21.773,10.97l2.158-1.109C17.1,16.7,13.052,22.8,12.317,31a2.133,2.133,0,0,0,2.129,2.327h7.413a2.14,2.14,0,0,0,2.133-2.081c.2-7.017.622-11,7.79-25.316a2.158,2.158,0,0,0-.388-2.485l-.886-.887a2.156,2.156,0,0,0-2.728-.242,10.034,10.034,0,0,1-10.189.5Z" transform="translate(-2.668 -0.328)" fill="none" stroke="#ff293e" stroke-linecap="round" stroke-linejoin="round" stroke-width="2"/>
</svg>
