<svg xmlns="http://www.w3.org/2000/svg">


	<!-- Chevron -->

	<symbol id="chevron-circle-right" viewBox="0 0 14 14">
		<title>Chevron circle right</title>
		<path d="M14,7a7,7,0,1,0-7,7A7,7,0,0,0,14,7ZM5.29,10.71A1,1,0,0,1,5.284,9.3L5.29,9.29,7.41,7.18a.25.25,0,0,0,.007-.354L7.41,6.82,5.29,4.71A1,1,0,0,1,6.71,3.29l3,3A1,1,0,0,1,9.716,7.7L9.71,7.71l-3,3a1,1,0,0,1-1.414.006Z"/>
	</symbol>


	<!-- Star -->

	<symbol id="icon-star" viewBox="0 0 16 15.199">
		<title>Icon star</title>
		<path d="M14.886,10a1.132,1.132,0,0,0-.657-2.026l-3.905-.589a.249.249,0,0,1-.2-.158l-1.732-3.5a1.234,1.234,0,0,0-2.128,0L4.495,7.292a.339.339,0,0,1-.215.158L.42,7.971A1.132,1.132,0,0,0-.237,10L2.57,12.77a.26.26,0,0,1,.079.249l-.657,3.86a1.132,1.132,0,0,0,1.721,1.245l3.509-1.777a.351.351,0,0,1,.26,0l3.452,1.822a1.184,1.184,0,0,0,1.721-1.222l-.645-4a.294.294,0,0,1,.079-.249Z"/>
	</symbol>

	<symbol id="icon-star-corp" viewBox="0 0 24 24.019">
		<title>Icon star corp</title>
		<path d="M11.88.091a16.851 16.851 0 0 1-11.789 11.8.124.124 0 0 0 0 .239 16.851 16.851 0 0 1 11.789 11.8.123.123 0 0 0 .238 0 16.85 16.85 0 0 1 11.791-11.8.124.124 0 0 0 0-.239A16.85 16.85 0 0 1 12.118.091a.123.123 0 0 0-.238 0Z"/>
	</symbol>








	<!-- Aquí abajo tienes unos cuantos ejemplos de uso -->

	<!-- Arrow -->

	<symbol id="arrow-right" viewBox="0 0 32 32">
		<title>Arrow right</title>
		<polygon points="18 6 16.57 7.393 24.15 15 4 15 4 17 24.15 17 16.57 24.573 18 26 28 16 18 6"/>
	</symbol>

	<symbol id="arrow-bottom" viewBox="0 0 32 32">
		<title>Arrow bottom</title>
		<polygon points="24.59 16.59 17 24.17 17 4 15 4 15 24.17 7.41 16.59 6 18 16 28 26 18 24.59 16.59"/>
	</symbol>

	<symbol id="arrow-left" viewBox="0 0 32 32">
		<title>Arrow left</title>
		<polygon points="14 26 15.41 24.59 7.83 17 28 17 28 15 7.83 15 15.41 7.41 14 6 4 16 14 26"/>
	</symbol>


	<!-- Chevron -->

	<symbol id="chevron-right" viewBox="0 0 32 32">
		<title>Chevron right</title>
		<polygon points="22,16 12,26 10.6,24.6 19.2,16 10.6,7.4 12,6 "/>
	</symbol>

	<symbol id="chevron-left" viewBox="0 0 32 32">
		<title>Chevron left</title>
		<polygon points="10,16 20,6 21.4,7.4 12.8,16 21.4,24.6 20,26 "/>
	</symbol>


	<!-- Social -->

    <symbol id="facebook" viewBox="0 0 24 24">
		<title>Facebook</title>
		<path d="M9 8h-3v4h3v12h5v-12h3.642l.358-4h-4v-1.667c0-.955.192-1.333 1.115-1.333h2.885v-5h-3.808c-3.596 0-5.192 1.583-5.192 4.615v3.385z"/>
	</symbol>

	<symbol id="twitter" viewBox="0 0 24 24">
		<title>Twitter</title>
		<path d="M24 4.557c-.883.392-1.832.656-2.828.775 1.017-.609 1.798-1.574 2.165-2.724-.951.564-2.005.974-3.127 1.195-.897-.957-2.178-1.555-3.594-1.555-3.179 0-5.515 2.966-4.797 6.045-4.091-.205-7.719-2.165-10.148-5.144-1.29 2.213-.669 5.108 1.523 6.574-.806-.026-1.566-.247-2.229-.616-.054 2.281 1.581 4.415 3.949 4.89-.693.188-1.452.232-2.224.084.626 1.956 2.444 3.379 4.6 3.419-2.07 1.623-4.678 2.348-7.29 2.04 2.179 1.397 4.768 2.212 7.548 2.212 9.142 0 14.307-7.721 13.995-14.646.962-.695 1.797-1.562 2.457-2.549z"/>
	</symbol>

	<symbol id="linkedin" viewBox="0 0 24 24">
		<title>Linkedin</title>
		<path d="M4.98 3.5c0 1.381-1.11 2.5-2.48 2.5s-2.48-1.119-2.48-2.5c0-1.38 1.11-2.5 2.48-2.5s2.48 1.12 2.48 2.5zm.02 4.5h-5v16h5v-16zm7.982 0h-4.968v16h4.969v-8.399c0-4.67 6.029-5.052 6.029 0v8.399h4.988v-10.131c0-7.88-8.922-7.593-11.018-3.714v-2.155z"/>
	</symbol>

	<symbol id="pinterest" viewBox="0 0 24 24">
		<title>Pinterest</title>
		<path d="M12 0c-6.627 0-12 5.372-12 12 0 5.084 3.163 9.426 7.627 11.174-.105-.949-.2-2.405.042-3.441.218-.937 1.407-5.965 1.407-5.965s-.359-.719-.359-1.782c0-1.668.967-2.914 2.171-2.914 1.023 0 1.518.769 1.518 1.69 0 1.029-.655 2.568-.994 3.995-.283 1.194.599 2.169 1.777 2.169 2.133 0 3.772-2.249 3.772-5.495 0-2.873-2.064-4.882-5.012-4.882-3.414 0-5.418 2.561-5.418 5.207 0 1.031.397 2.138.893 2.738.098.119.112.224.083.345l-.333 1.36c-.053.22-.174.267-.402.161-1.499-.698-2.436-2.889-2.436-4.649 0-3.785 2.75-7.262 7.929-7.262 4.163 0 7.398 2.967 7.398 6.931 0 4.136-2.607 7.464-6.227 7.464-1.216 0-2.359-.631-2.75-1.378l-.748 2.853c-.271 1.043-1.002 2.35-1.492 3.146 1.124.347 2.317.535 3.554.535 6.627 0 12-5.373 12-12 0-6.628-5.373-12-12-12z" fill-rule="evenodd" clip-rule="evenodd"/>
	</symbol>

	<symbol id="youtube" viewBox="0 0 24 24">
		<title>Youtube</title>
		<path d="M19.615 3.184c-3.604-.246-11.631-.245-15.23 0-3.897.266-4.356 2.62-4.385 8.816.029 6.185.484 8.549 4.385 8.816 3.6.245 11.626.246 15.23 0 3.897-.266 4.356-2.62 4.385-8.816-.029-6.185-.484-8.549-4.385-8.816zm-10.615 12.816v-8l8 3.993-8 4.007z"/>
	</symbol>

	<symbol id="whatsapp" viewBox="0 0 24 24">
		<title>Whatsapp</title>
		<path d="M.057 24l1.687-6.163c-1.041-1.804-1.588-3.849-1.587-5.946.003-6.556 5.338-11.891 11.893-11.891 3.181.001 6.167 1.24 8.413 3.488 2.245 2.248 3.481 5.236 3.48 8.414-.003 6.557-5.338 11.892-11.893 11.892-1.99-.001-3.951-.5-5.688-1.448l-6.305 1.654zm6.597-3.807c1.676.995 3.276 1.591 5.392 1.592 5.448 0 9.886-4.434 9.889-9.885.002-5.462-4.415-9.89-9.881-9.892-5.452 0-9.887 4.434-9.889 9.884-.001 2.225.651 3.891 1.746 5.634l-.999 3.648 3.742-.981zm11.387-5.464c-.074-.124-.272-.198-.57-.347-.297-.149-1.758-.868-2.031-.967-.272-.099-.47-.149-.669.149-.198.297-.768.967-.941 1.165-.173.198-.347.223-.644.074-.297-.149-1.255-.462-2.39-1.475-.883-.788-1.48-1.761-1.653-2.059-.173-.297-.018-.458.13-.606.134-.133.297-.347.446-.521.151-.172.2-.296.3-.495.099-.198.05-.372-.025-.521-.075-.148-.669-1.611-.916-2.206-.242-.579-.487-.501-.669-.51l-.57-.01c-.198 0-.52.074-.792.372s-1.04 1.016-1.04 2.479 1.065 2.876 1.213 3.074c.149.198 2.095 3.2 5.076 4.487.709.306 1.263.489 1.694.626.712.226 1.36.194 1.872.118.571-.085 1.758-.719 2.006-1.413.248-.695.248-1.29.173-1.414z"/>
	</symbol>


	<!-- UI -->

	<symbol id="search" viewBox="0 0 32 32">
		<title>Search</title>
		<path d="M29,27.5859l-7.5521-7.5521a11.0177,11.0177,0,1,0-1.4141,1.4141L27.5859,29ZM4,13a9,9,0,1,1,9,9A9.01,9.01,0,0,1,4,13Z"/>
	</symbol>





</svg>