<svg xmlns="http://www.w3.org/2000/svg" width="80" height="80" viewBox="0 0 80 80">
  <g id="icon-screen-icons-8" transform="translate(-7)">
    <g id="Elipse_718" data-name="Elipse 718" transform="translate(7)" fill="none" stroke="#ff293e" stroke-width="2">
      <circle cx="40" cy="40" r="40" stroke="none"/>
      <circle cx="40" cy="40" r="39" fill="none"/>
    </g>
    <g id="Grupo_389" data-name="Grupo 389" transform="translate(33.755 26.752)">
      <path id="Trazado_5085" data-name="Trazado 5085" d="M16.686,4.41a.563.563,0,0,1-.442-.905,9.384,9.384,0,0,1,14.639,0,.563.563,0,0,1-.431.905Z" transform="translate(-13.076 0.007)" fill="#ff293e"/>
      <path id="Trazado_5086" data-name="Trazado 5086" d="M17.422,62.395a.885.885,0,0,1-.331-.066.839.839,0,0,1-.431-1.1l.994-2.318a.254.254,0,0,0,0-.265.265.265,0,0,0-.232-.11H16.87a.828.828,0,1,1,0-1.656h2.208a.85.85,0,0,1,.7.375.828.828,0,0,1,.066.784L18.184,61.9A.828.828,0,0,1,17.422,62.395Z" transform="translate(-13.006 -46.11)" fill="#ff293e"/>
      <path id="Trazado_5087" data-name="Trazado 5087" d="M46.588,62.395a.884.884,0,0,1-.331-.066.839.839,0,0,1-.431-1.1l.994-2.318a.254.254,0,0,0,0-.265.265.265,0,0,0-.232-.11h-.552a.828.828,0,0,1,0-1.656h2.208a.85.85,0,0,1,.7.375.828.828,0,0,1,.066.784L47.35,61.9A.828.828,0,0,1,46.588,62.395Z" transform="translate(-36.652 -46.11)" fill="#ff293e"/>
      <path id="Trazado_5088" data-name="Trazado 5088" d="M75.755,62.348a.883.883,0,0,1-.331-.066.839.839,0,0,1-.431-1.1l.994-2.318a.255.255,0,0,0,0-.265.265.265,0,0,0-.232-.121H75.2a.828.828,0,0,1,0-1.656h2.208a.85.85,0,0,1,.7.375.828.828,0,0,1,.066.784L76.517,61.84A.828.828,0,0,1,75.755,62.348Z" transform="translate(-60.299 -46.063)" fill="#ff293e"/>
      <path id="Trazado_5089" data-name="Trazado 5089" d="M24.287,34.291a2.208,2.208,0,0,0-1.225,4.041.286.286,0,0,1,.121.232V44.5A2.208,2.208,0,0,1,21.3,46.711a.254.254,0,0,1-.221-.066.276.276,0,0,1-.1-.21v-12.7a1.656,1.656,0,0,0-1.656-1.656H1.656A1.656,1.656,0,0,0,0,33.739V50.85a1.656,1.656,0,0,0,1.656,1.656H19.319a1.656,1.656,0,0,0,1.656-1.656V49.195a.276.276,0,0,1,.265-.276A4.416,4.416,0,0,0,25.391,44.5V38.563a.287.287,0,0,1,.121-.232,2.208,2.208,0,0,0-1.225-4.041ZM8.28,49.47H3.312a.828.828,0,1,1,0-1.656H8.28a.828.828,0,1,1,0,1.656Zm11.04-6.9a1.1,1.1,0,0,1-1.1,1.1H2.76a1.1,1.1,0,0,1-1.1-1.1V36.5a1.1,1.1,0,0,1,1.1-1.1H18.215a1.1,1.1,0,0,1,1.1,1.1Z" transform="translate(0 -26.01)" fill="#ff293e"/>
    </g>
  </g>
</svg>
