<svg xmlns="http://www.w3.org/2000/svg" width="16" height="15.199" viewBox="0 0 16 15.199">
  <g id="icon-star" transform="translate(0.675 -2.117)">
    <path id="star-std__white" d="M14.886,10a1.132,1.132,0,0,0-.657-2.026l-3.905-.589a.249.249,0,0,1-.2-.158l-1.732-3.5a1.234,1.234,0,0,0-2.128,0L4.495,7.292a.339.339,0,0,1-.215.158L.42,7.971A1.132,1.132,0,0,0-.237,10L2.57,12.77a.26.26,0,0,1,.079.249l-.657,3.86a1.132,1.132,0,0,0,1.721,1.245l3.509-1.777a.351.351,0,0,1,.26,0l3.452,1.822a1.184,1.184,0,0,0,1.721-1.222l-.645-4a.294.294,0,0,1,.079-.249Z" transform="translate(0 -1)" fill="#fff"/>
  </g>
</svg>
