<svg xmlns="http://www.w3.org/2000/svg" width="80" height="80" viewBox="0 0 80 80">
  <g id="icon-screen-icons-3" transform="translate(-7)">
    <g id="Elipse_718" data-name="Elipse 718" transform="translate(7)" fill="none" stroke="#ff293e" stroke-width="2">
      <circle cx="40" cy="40" r="40" stroke="none"/>
      <circle cx="40" cy="40" r="39" fill="none"/>
    </g>
    <path id="Trazado_5079" data-name="Trazado 5079" d="M24.655,9.707a1.468,1.468,0,0,0-1.372-.973H17.359a.486.486,0,0,1-.457-.321L14.782,2.382a1.479,1.479,0,0,0-1.372-.924,1.45,1.45,0,0,0-1.362.973h0l-2.13,6a.486.486,0,0,1-.457.321H3.537a1.459,1.459,0,0,0-1.372.973A1.478,1.478,0,0,0,2.6,11.332l5.039,4.183a.486.486,0,0,1,.156.525L5.677,22.392a1.459,1.459,0,0,0,2.247,1.644l5.195-3.813a.477.477,0,0,1,.574,0l5.2,3.813a1.459,1.459,0,0,0,2.3-1.644L19.071,16.04a.486.486,0,0,1,.156-.525l5.049-4.193A1.469,1.469,0,0,0,24.655,9.707Z" transform="translate(33.58 27.084)" fill="#ff293e"/>
  </g>
</svg>
