<?xml version="1.0" encoding="utf-8"?>
<!-- Generator: Adobe Illustrator 26.0.0, SVG Export Plug-In . SVG Version: 6.00 Build 0)  -->
<svg version="1.1" id="Layer_1" xmlns="http://www.w3.org/2000/svg" xmlns:xlink="http://www.w3.org/1999/xlink" x="0px" y="0px"
	 viewBox="0 0 28 28" style="enable-background:new 0 0 28 28;" xml:space="preserve">
<style type="text/css">
	.st0{fill:#707070;}
</style>
<g>
	<g id="icon-splide-arrow_00000150088337630280491110000012267901993493152905_" transform="translate(28 28) rotate(180)">
		<path id="indicator-left__grey-circle__big_00000170263205135003161780000012139110641682045372_" class="st0" d="M27.5,14
			c0-7.5-6-13.5-13.5-13.5S0.5,6.5,0.5,14s6,13.5,13.5,13.5S27.5,21.5,27.5,14z M10.7,21.2c-0.8-0.7-0.8-2,0-2.7l0,0l4.1-4.1
			c0.2-0.2,0.2-0.5,0-0.7c0,0,0,0,0,0l0,0l-4.1-4.1c-0.8-0.8-0.8-2,0-2.7s2-0.8,2.7,0l5.8,5.8c0.8,0.7,0.8,2,0,2.7l0,0l-5.8,5.8
			C12.7,21.9,11.5,21.9,10.7,21.2L10.7,21.2z"/>
	</g>
</g>
</svg>
