<svg xmlns="http://www.w3.org/2000/svg" viewBox="0 0 167.1 170.31"><defs><style>.cls-1,.cls-2{fill:#ff293e;}.cls-1{isolation:isolate;opacity:0.65;}.cls-3{fill:#fff;}</style></defs><g id="Layer_2" data-name="Layer 2"><g id="Layer_1-2" data-name="Layer 1"><g id="icon-red-2"><g id="feat-home-2"><circle id="Elipse_695-2" data-name="Elipse 695-2" class="cls-1" cx="83.56" cy="85.04" r="70"/><path id="Star" class="cls-2" d="M167.1,85.14h0c0-1.06-2.13-1.6-2.13-1.6-37.25-11.17-68.65-41-78.23-76.09L85.15,1.6S84.62,0,83.55,0,82,1.6,82,1.6l-1.6,5.85c-9.58,35.12-41,64.92-78.22,76.1,0,0-2.13.53-2.13,1.6s2.13,1.6,2.13,1.6c37.25,11.18,68.64,41,78.22,76.1l1.6,5.86s.53,1.6,1.6,1.6,1.6-1.6,1.6-1.6l1.6-5.86c9.58-35.12,41-64.92,78.22-76.1-.53.53,1.6,0,2.13-1.6"/><g id="Grupo_727" data-name="Grupo 727"><path id="Trazado_113" data-name="Trazado 113" class="cls-3" d="M94.23,70.79h.4a.79.79,0,0,1,.79.79V72a1.19,1.19,0,0,0,2.38,0v-.4a.79.79,0,0,1,.79-.79H99a1.19,1.19,0,1,0,0-2.38h-.4a.79.79,0,0,1-.79-.79v-.4a1.19,1.19,0,0,0-2.38,0v.4a.79.79,0,0,1-.79.79h-.4a1.19,1.19,0,1,0,0,2.38Z"/><path id="Trazado_114" data-name="Trazado 114" class="cls-3" d="M75.23,95.33h-2a.79.79,0,0,1-.79-.79v-2a1.19,1.19,0,1,0-2.37,0h0v2a.79.79,0,0,1-.8.79h-2a1.19,1.19,0,0,0,0,2.38h2a.79.79,0,0,1,.8.79v2a1.19,1.19,0,0,0,2.37,0v-2a.79.79,0,0,1,.79-.79h2a1.19,1.19,0,0,0,0-2.38Z"/><path id="Trazado_115" data-name="Trazado 115" class="cls-3" d="M88.56,70.79a6.46,6.46,0,0,0-9-1.37,6.84,6.84,0,0,0-1.37,1.37l-1,1.36a.78.78,0,0,1-1.09.24l0,0-1.41-1a6.46,6.46,0,0,0-9,1.59,6.25,6.25,0,0,0,1.54,8.73l11.37,8.38a1.38,1.38,0,0,0,1,.24,1.28,1.28,0,0,0,.9-.56l8-11.6A6.32,6.32,0,0,0,88.56,70.79Z"/><path id="Trazado_116" data-name="Trazado 116" class="cls-3" d="M96.62,92.35l-.84.3a.79.79,0,0,1-1-.43l-.38-.85A4.32,4.32,0,0,0,88.78,89a3.93,3.93,0,0,0-1.15.68,4.25,4.25,0,0,0-1.2,4.89l3.45,8.9a.84.84,0,0,0,.49.52.93.93,0,0,0,.73,0l8.8-3.65a4.21,4.21,0,0,0,2.64-4.18,4.36,4.36,0,0,0-4.62-4.07A4.46,4.46,0,0,0,96.62,92.35Z"/></g></g></g></g></g></svg>