<svg xmlns="http://www.w3.org/2000/svg" width="28" height="28" viewBox="0 0 28 28">
  <g id="icon-heart-red" transform="translate(6.977 -2.109)">
    <circle id="Elipse_3" data-name="Elipse 3" cx="14" cy="14" r="14" transform="translate(-6.977 2.109)" fill="#13171d"/>
    <path id="Trazado_99" data-name="Trazado 99" d="M13.856,13.015a4,4,0,0,0-2.839-2.829,4.168,4.168,0,0,0-3.828,1.289.25.25,0,0,1-.34,0A4.168,4.168,0,0,0,3.02,10.186,4,4,0,0,0,.182,13.015a3.9,3.9,0,0,0,1,3.868L6.7,21.971a.51.51,0,0,0,.68,0l5.528-5.108A3.868,3.868,0,0,0,13.856,13.015Z" transform="translate(0 1)" fill="#ff293e"/>
  </g>
</svg>
