<svg id="icon-screen-icons-2" xmlns="http://www.w3.org/2000/svg" width="80" height="80" viewBox="0 0 80 80">
  <g id="Elipse_718" data-name="Elipse 718" fill="none" stroke="#ff293e" stroke-width="2">
    <circle cx="40" cy="40" r="40" stroke="none"/>
    <circle cx="40" cy="40" r="39" fill="none"/>
  </g>
  <path id="Trazado_5090" data-name="Trazado 5090" d="M24.614,1.559,23.89.69A1.227,1.227,0,0,0,22.411.381a7.828,7.828,0,0,1-3.348.813A6,6,0,0,1,16.585.641,6.706,6.706,0,0,0,13.814,0,6.192,6.192,0,0,0,10.847.73a.17.17,0,0,1-.154,0,.212.212,0,0,1-.122-.081A1.219,1.219,0,0,0,9.5,0H8.686A1.219,1.219,0,0,0,7.467,1.218V6.906A1.219,1.219,0,0,0,8.686,8.125h.869a1.211,1.211,0,0,0,1.195-.991,2.146,2.146,0,0,1,2.194-1.625,6,6,0,0,1,1.8.5,7.494,7.494,0,0,0,2.568.658.309.309,0,0,1,.236.512A19.065,19.065,0,0,0,12.847,18.21a1.252,1.252,0,0,0,.333.91,1.219,1.219,0,0,0,.886.382h4.819A1.219,1.219,0,0,0,20.1,18.413c.439-4.12,3.722-13,4.721-15.643A1.235,1.235,0,0,0,24.614,1.559Z" transform="translate(23.819 30.249)" fill="#ff293e"/>
</svg>
