<svg xmlns="http://www.w3.org/2000/svg" width="44.898" height="42" viewBox="0 0 44.898 42">
  <g id="icon-search-diamonds" transform="translate(-1331.034 -1110.834)">
    <g id="logo-symbol__grey">
      <path id="Trazado_5434" data-name="Trazado 5434" d="M131.4,25.5h0c0-.29-.434-.29-.434-.29-6.807-2.028-12.6-7.531-14.338-13.9l-.29-1.014a.284.284,0,0,0-.29-.29h0c-.145,0-.29.29-.29.29l-.29,1.014c-1.738,6.372-7.531,11.876-14.338,13.9,0,0-.434.145-.434.29h0c0,.29.434.29.434.29,6.807,2.028,12.6,7.531,14.338,13.9l.29,1.014a.284.284,0,0,0,.29.29h0c.145,0,.29-.29.29-.29l.29-1.014c1.738-6.372,7.531-11.876,14.338-13.9,0,.145.434,0,.434-.29Z" transform="translate(1230.334 1111.841)" fill="rgba(255,255,255,0.6)"/>
      <path id="Trazado_5435" data-name="Trazado 5435" d="M136.541,10.51h0a.142.142,0,0,0-.145-.145,10.9,10.9,0,0,1-7.386-7.241l-.145-.579a.142.142,0,0,0-.145-.145h0a.142.142,0,0,0-.145.145l-.145.724c-.869,3.331-3.91,6.083-7.386,7.241a.142.142,0,0,0-.145.145h0a.142.142,0,0,0,.145.145,10.9,10.9,0,0,1,7.386,7.241l.145.579a.142.142,0,0,0,.145.145h0a.142.142,0,0,0,.145-.145l.145-.579c.869-3.331,3.91-6.083,7.386-7.241a.506.506,0,0,0,.145-.29Z" transform="translate(1239.391 1108.434)" fill="rgba(255,255,255,0.6)"/>
    </g>
  </g>
</svg>
