<svg xmlns="http://www.w3.org/2000/svg" width="80" height="80" viewBox="0 0 80 80">
  <g id="icon-screen-icons-4" transform="translate(-7)">
    <g id="Elipse_718" data-name="Elipse 718" transform="translate(7)" fill="none" stroke="#ff293e" stroke-width="2">
      <circle cx="40" cy="40" r="40" stroke="none"/>
      <circle cx="40" cy="40" r="39" fill="none"/>
    </g>
    <g id="Grupo_382" data-name="Grupo 382" transform="translate(34.112 28.552)">
      <path id="Trazado_5077" data-name="Trazado 5077" d="M13.1,67.467H24.844a1.468,1.468,0,0,0,0-2.935H13.1a2.067,2.067,0,0,1-2.055-2.055v-4.99a.294.294,0,0,1,.293-.294h1.174a.575.575,0,0,0,.587-.34.552.552,0,0,0-.082-.622l-2.935-3.522a.575.575,0,0,0-.892,0L6.258,56.231a.552.552,0,0,0-.082.622.575.575,0,0,0,.47.34H7.819a.294.294,0,0,1,.294.294v4.99A5,5,0,0,0,13.1,67.467Z" transform="translate(-6.115 -44.572)" fill="#ff293e"/>
      <path id="Trazado_5078" data-name="Trazado 5078" d="M50.273,28.1a.575.575,0,0,0,.446-.211l2.935-3.522a.552.552,0,0,0,.082-.622.575.575,0,0,0-.528-.34H52.034a.294.294,0,0,1-.294-.294v-4.99a4.99,4.99,0,0,0-4.99-4.99H35.01a1.468,1.468,0,0,0,0,2.935H46.751a2.055,2.055,0,0,1,2.055,2.055V23.1a.294.294,0,0,1-.293.294H47.338a.575.575,0,0,0-.528.34.552.552,0,0,0,.082.622l2.935,3.522A.576.576,0,0,0,50.273,28.1Z" transform="translate(-28.021 -13.125)" fill="#ff293e"/>
    </g>
  </g>
</svg>
