<svg xmlns="http://www.w3.org/2000/svg" width="22" height="22" viewBox="0 0 22 22">
  <g id="icon-info" opacity="0.5">
    <path id="info__grey-circle" d="M11,0A11,11,0,1,0,22,11,11,11,0,0,0,11,0Zm.229,4.583A1.375,1.375,0,1,1,9.854,5.958,1.375,1.375,0,0,1,11.229,4.583Zm2.063,12.375H9.625a.917.917,0,0,1,0-1.833h.688a.229.229,0,0,0,.229-.229V10.771a.229.229,0,0,0-.229-.229H9.625a.917.917,0,0,1,0-1.833h.917a1.833,1.833,0,0,1,1.833,1.833V14.9a.229.229,0,0,0,.229.229h.688a.917.917,0,1,1,0,1.833Z" fill="#fff"/>
  </g>
</svg>
