<?xml version="1.0" encoding="UTF-8" standalone="no"?>
<svg
   width="18"
   height="18"
   viewBox="0 0 18 18"
   version="1.1"
   id="svg3"
   sodipodi:docname="icon-arrow-down-opacity.svg"
   inkscape:version="1.2.1 (9c6d41e, 2022-07-14)"
   xmlns:inkscape="http://www.inkscape.org/namespaces/inkscape"
   xmlns:sodipodi="http://sodipodi.sourceforge.net/DTD/sodipodi-0.dtd"
   xmlns="http://www.w3.org/2000/svg"
   xmlns:svg="http://www.w3.org/2000/svg">
  <defs
     id="defs7" />
  <sodipodi:namedview
     id="namedview5"
     pagecolor="#505050"
     bordercolor="#eeeeee"
     borderopacity="1"
     inkscape:showpageshadow="0"
     inkscape:pageopacity="0"
     inkscape:pagecheckerboard="0"
     inkscape:deskcolor="#505050"
     showgrid="false"
     inkscape:zoom="13.111111"
     inkscape:cx="-3.1271186"
     inkscape:cy="9"
     inkscape:window-width="1269"
     inkscape:window-height="456"
     inkscape:window-x="1784"
     inkscape:window-y="266"
     inkscape:window-maximized="0"
     inkscape:current-layer="svg3" />
  <path
     id="icon-arrow-down-grey"
     d="M 9,18 A 9,9 0 1 0 0,9 9,9 0 0 0 9,18 Z M 4.23,6.8 A 1.286,1.286 0 0 1 6.048,6.793 L 6.055,6.8 8.769,9.527 A 0.321,0.321 0 0 0 9.224,9.535 L 9.232,9.527 11.944,6.8 A 1.2915306,1.2915306 0 0 1 13.77,8.627 L 9.913,12.484 A 1.286,1.286 0 0 1 8.095,12.491 L 8.088,12.484 4.23,8.627 A 1.286,1.286 0 0 1 4.223,6.809 Z"
     fill="#3b424b"
     style="fill:#ffffff;fill-opacity:0.6" />
</svg>
