<svg xmlns="http://www.w3.org/2000/svg" width="16" height="14.661" viewBox="0 0 16 14.661">
  <g id="icon-thumb-popup" transform="translate(-57.1 -1117.672)">
    <g id="streamline-icon-thumbup_140x140" data-name="streamline-icon-thumbup@140x140" transform="translate(57.1 1111.783)">
      <path id="Trazado_5351" data-name="Trazado 5351" d="M15.56,11.21a1.847,1.847,0,0,0-1.411-.653H9.46l.529-3.02a1.333,1.333,0,0,0-.723-1.358l-.3-.149a1.333,1.333,0,0,0-1.035-.067,1.309,1.309,0,0,0-.751.661L3.6,13.217H.667A.667.667,0,0,0,0,13.883v5.989a.667.667,0,0,0,.667.667l10.667.011a3.963,3.963,0,0,0,3.916-3.325l.725-4.513A1.846,1.846,0,0,0,15.56,11.21Z" transform="translate(0)" fill="#fff"/>
    </g>
  </g>
</svg>
