<svg xmlns="http://www.w3.org/2000/svg" xmlns:xlink="http://www.w3.org/1999/xlink" width="362.407" height="362.407" viewBox="0 0 362.407 362.407">
  <defs>
    <filter id="Elipse_695" x="0" y="0" width="362.407" height="362.407" filterUnits="userSpaceOnUse">
      <feOffset input="SourceAlpha"/>
      <feGaussianBlur stdDeviation="30" result="blur"/>
      <feFlood flood-color="#ff293e" flood-opacity="0.702"/>
      <feComposite operator="in" in2="blur"/>
      <feComposite in="SourceGraphic"/>
    </filter>
  </defs>
  <g id="img-app-apuestas-star-2" transform="translate(72.749 92.341)">
    <g transform="matrix(1, 0, 0, 1, -72.75, -92.34)" filter="url(#Elipse_695)">
      <circle id="Elipse_695-2" data-name="Elipse 695" cx="91.204" cy="91.204" r="91.204" transform="translate(90 90)" fill="#ff293e" opacity="0.85"/>
    </g>
    <path id="Star" d="M217.7,110.932h0c0-1.387-2.773-2.08-2.773-2.08C166.4,94.292,125.491,55.466,113.012,9.706l-2.08-7.626S110.238,0,108.852,0s-2.08,2.08-2.08,2.08l-2.08,7.626C92.212,55.466,51.306,94.292,2.773,108.852c0,0-2.773.693-2.773,2.08s2.773,2.08,2.773,2.08c48.532,14.56,89.438,53.386,101.918,99.145l2.08,7.626s.693,2.08,2.08,2.08,2.08-2.08,2.08-2.08l2.08-7.626c12.48-45.759,53.386-84.585,101.918-99.145-.693.693,2.08,0,2.773-2.08" transform="translate(-0.396 -21.931)" fill="#ff293e"/>
    <circle id="Elipse_790" data-name="Elipse 790" cx="45" cy="45" r="45" transform="translate(63.455 41)" fill="#fff" opacity="0.31"/>
    <circle id="Elipse_791" data-name="Elipse 791" cx="35" cy="35" r="35" transform="translate(73.455 51)" fill="#fff"/>
    <path id="Trazado_5506" data-name="Trazado 5506" d="M38.653,17.4l-3.159-2.541a1.873,1.873,0,0,1-.687-1.717l.429-4.018a3.588,3.588,0,0,0-3.949-3.966l-4.035.429A1.873,1.873,0,0,1,25.535,4.9l-2.49-3.108a3.708,3.708,0,0,0-5.6,0L14.907,4.952a1.873,1.873,0,0,1-1.717.687L9.206,5.209A3.588,3.588,0,0,0,5.257,9.175l.429,4.018A1.873,1.873,0,0,1,5,14.91L1.841,17.4a3.589,3.589,0,0,0-.553,5.045A3.508,3.508,0,0,0,1.841,23L5,25.538a1.888,1.888,0,0,1,.687,1.717L5.257,31.29a3.555,3.555,0,0,0,1.03,2.919,3.432,3.432,0,0,0,2.919,1.03l4.035-.429a1.873,1.873,0,0,1,1.717.687L17.5,38.656a3.589,3.589,0,0,0,5.045.553,3.508,3.508,0,0,0,.553-.553L25.638,35.5a1.873,1.873,0,0,1,1.717-.687l4.035.429a3.432,3.432,0,0,0,2.919-1.03,3.555,3.555,0,0,0,1.03-2.919l-.429-4.035a1.888,1.888,0,0,1,.687-1.717L38.756,23a3.589,3.589,0,0,0,.553-5.045,3.507,3.507,0,0,0-.553-.553ZM20.934,25.47a3.074,3.074,0,0,1-4.31.565,3.3,3.3,0,0,1-.275-.239L12.16,21.607A1.724,1.724,0,0,1,14.6,19.168l3.932,3.863,6.713-8.946a1.717,1.717,0,0,1,2.747,2.06h0Z" transform="translate(88.157 65.742)" fill="#ff293e"/>
  </g>
</svg>
