<svg xmlns="http://www.w3.org/2000/svg" xmlns:xlink="http://www.w3.org/1999/xlink" width="362.407" height="362.407" viewBox="0 0 362.407 362.407">
  <defs>
    <filter id="Elipse_695" x="0" y="0" width="362.407" height="362.407" filterUnits="userSpaceOnUse">
      <feOffset input="SourceAlpha"/>
      <feGaussianBlur stdDeviation="30" result="blur"/>
      <feFlood flood-color="#ff293e" flood-opacity="0.702"/>
      <feComposite operator="in" in2="blur"/>
      <feComposite in="SourceGraphic"/>
    </filter>
  </defs>
  <g id="img-app-apuestas-star-3" transform="translate(72.749 92.341)">
    <g transform="matrix(1, 0, 0, 1, -72.75, -92.34)" filter="url(#Elipse_695)">
      <circle id="Elipse_695-2" data-name="Elipse 695" cx="91.204" cy="91.204" r="91.204" transform="translate(90 90)" fill="#ff293e" opacity="0.85"/>
    </g>
    <path id="Star" d="M217.7,110.932h0c0-1.387-2.773-2.08-2.773-2.08C166.4,94.292,125.491,55.466,113.012,9.706l-2.08-7.626S110.238,0,108.852,0s-2.08,2.08-2.08,2.08l-2.08,7.626C92.212,55.466,51.306,94.292,2.773,108.852c0,0-2.773.693-2.773,2.08s2.773,2.08,2.773,2.08c48.532,14.56,89.438,53.386,101.918,99.145l2.08,7.626s.693,2.08,2.08,2.08,2.08-2.08,2.08-2.08l2.08-7.626c12.48-45.759,53.386-84.585,101.918-99.145-.693.693,2.08,0,2.773-2.08" transform="translate(-0.396 -21.931)" fill="#ff293e"/>
    <circle id="Elipse_790" data-name="Elipse 790" cx="45" cy="45" r="45" transform="translate(63.455 41)" fill="#fff" opacity="0.31"/>
    <circle id="Elipse_791" data-name="Elipse 791" cx="35" cy="35" r="35" transform="translate(73.455 51)" fill="#fff"/>
    <g id="Grupo_801" data-name="Grupo 801" transform="translate(91.084 69.162)">
      <path id="Trazado_5507" data-name="Trazado 5507" d="M31.152,2H3.648A3.619,3.619,0,0,0,0,5.59v17.4a3.619,3.619,0,0,0,3.59,3.619h27.5a3.619,3.619,0,0,0,3.648-3.59V5.619A3.619,3.619,0,0,0,31.152,2ZM23.48,14.941,14.07,20.008a.762.762,0,0,1-.347.087.616.616,0,0,1-.362-.1.7.7,0,0,1-.333-.622V9.238A.717.717,0,0,1,14.1,8.615l9.409,5.066a.723.723,0,0,1,0,1.274Z" fill="#ff293e"/>
      <path id="Trazado_5508" data-name="Trazado 5508" d="M26.641,20.5H4.928a1.448,1.448,0,1,0,0,2.9H26.641a1.448,1.448,0,0,0,0-2.9Z" transform="translate(1.558 8.28)" fill="#ff293e"/>
    </g>
  </g>
</svg>
