<svg xmlns="http://www.w3.org/2000/svg" xmlns:xlink="http://www.w3.org/1999/xlink" width="362.407" height="362.407" viewBox="0 0 362.407 362.407">
  <defs>
    <filter id="Elipse_695" x="0" y="0" width="362.407" height="362.407" filterUnits="userSpaceOnUse">
      <feOffset input="SourceAlpha"/>
      <feGaussianBlur stdDeviation="30" result="blur"/>
      <feFlood flood-color="#ff293e" flood-opacity="0.702"/>
      <feComposite operator="in" in2="blur"/>
      <feComposite in="SourceGraphic"/>
    </filter>
  </defs>
  <g id="img-app-apuestas-star-1" transform="translate(72.749 92.341)">
    <g transform="matrix(1, 0, 0, 1, -72.75, -92.34)" filter="url(#Elipse_695)">
      <circle id="Elipse_695-2" data-name="Elipse 695" cx="91.204" cy="91.204" r="91.204" transform="translate(90 90)" fill="#ff293e" opacity="0.85"/>
    </g>
    <path id="Star" d="M217.7,110.932h0c0-1.387-2.773-2.08-2.773-2.08C166.4,94.292,125.491,55.466,113.012,9.706l-2.08-7.626S110.238,0,108.852,0s-2.08,2.08-2.08,2.08l-2.08,7.626C92.212,55.466,51.306,94.292,2.773,108.852c0,0-2.773.693-2.773,2.08s2.773,2.08,2.773,2.08c48.532,14.56,89.438,53.386,101.918,99.145l2.08,7.626s.693,2.08,2.08,2.08,2.08-2.08,2.08-2.08l2.08-7.626c12.48-45.759,53.386-84.585,101.918-99.145-.693.693,2.08,0,2.773-2.08" transform="translate(-0.396 -21.931)" fill="#ff293e"/>
    <circle id="Elipse_790" data-name="Elipse 790" cx="45" cy="45" r="45" transform="translate(63.455 41)" fill="#fff" opacity="0.31"/>
    <circle id="Elipse_791" data-name="Elipse 791" cx="35" cy="35" r="35" transform="translate(73.455 51)" fill="#fff"/>
    <g id="Grupo_799" data-name="Grupo 799" transform="translate(93.929 64.837)">
      <path id="Trazado_5504" data-name="Trazado 5504" d="M21.065,24.12v3.034a1.6,1.6,0,0,1-1.6,1.6H8.29a1.6,1.6,0,0,1-1.6-1.6V9.589a1.6,1.6,0,0,1,1.6-1.6h4.79a.4.4,0,0,0,.319-.144l2.555-3.194A.4.4,0,0,0,15.668,4H7.492A3.991,3.991,0,0,0,3.5,7.992V31.944a3.991,3.991,0,0,0,3.992,3.992H20.267a3.991,3.991,0,0,0,3.992-3.992V22.172a.4.4,0,0,0-.7-.255A18.532,18.532,0,0,1,21.3,23.769.432.432,0,0,0,21.065,24.12Z" transform="translate(0 2.386)" fill="#ff293e"/>
      <path id="Trazado_5505" data-name="Trazado 5505" d="M25.081,9.579h-3a.4.4,0,0,1-.4-.4V.8A.8.8,0,0,0,20.258.3L10.837,12.07a1.389,1.389,0,0,0,1.07,2.3h2.986a.4.4,0,0,1,.4.4v8.383a.8.8,0,0,0,1.421.5l9.421-11.769a1.394,1.394,0,0,0-1.054-2.3Z" transform="translate(4.176 0)" fill="#ff293e"/>
    </g>
  </g>
</svg>
