<svg xmlns="http://www.w3.org/2000/svg" width="80" height="80"><g data-name="Elipse 718" fill="none" stroke="#ff293e" stroke-width="2"><circle cx="40" cy="40" r="40" stroke="none"/><circle cx="40" cy="40" r="39"/></g><path data-name="Trazado 5082" d="M47.557 46.447a3.719 3.719 0 1 1 0-7.438h2.241a.248.248 0 0 0 .238-.248v-2.48a2.479 2.479 0 0 0-2.479-2.479h-16.86a2.489 2.489 0 0 0-2.479 2.479v12.893a2.489 2.489 0 0 0 2.479 2.48h16.86a2.48 2.48 0 0 0 2.479-2.48v-2.479a.248.248 0 0 0-.238-.248Z" fill="#ff293e"/><path data-name="Trazado 5083" d="M50.533 40.496h-2.975a2.232 2.232 0 0 0 0 4.463h2.975a1.5 1.5 0 0 0 1.25-1.488v-1.492a1.5 1.5 0 0 0-1.25-1.483Z" fill="#ff293e"/><path data-name="Trazado 5084" d="M47.746 29.269a1.2 1.2 0 0 0-.555-.754 1.229 1.229 0 0 0-.932-.129l-12.765 3.441a.238.238 0 0 0-.179.238.248.248 0 0 0 .238.218h14.649a.238.238 0 0 0 .188-.1.227.227 0 0 0 .05-.119Z" fill="#ff293e"/></svg>