<svg xmlns="http://www.w3.org/2000/svg" width="268" height="268"><defs><filter id="a" x="0" y="0" width="268" height="268" filterUnits="userSpaceOnUse"><feOffset/><feGaussianBlur stdDeviation="30" result="blur"/><feFlood flood-color="#ff293e" flood-opacity=".702"/><feComposite operator="in" in2="blur"/><feComposite in="SourceGraphic"/></filter></defs><g data-name="Elipse 716" transform="translate(50 50)" fill="none" stroke="#ff293e" stroke-width="2"><circle cx="84" cy="84" r="84" stroke="none"/><circle cx="84" cy="84" r="85"/></g><g transform="translate(.004 .002)" filter="url(#a)"><circle data-name="Elipse 695" cx="44" cy="44" r="44" transform="translate(90 90)" fill="#ff293e"/></g><path data-name="Trazado 5061" d="M153.102 132.699a4.222 4.222 0 0 0-4.222-4.222h-.7a.7.7 0 0 1-.7-.7v-.371a13.2 13.2 0 0 0-13.378-13 13.2 13.2 0 0 0-13.37 13v.366a.7.7 0 0 1-.7.7h-.7a4.222 4.222 0 0 0-4.23 4.227v5.63a4.222 4.222 0 0 0 4.222 4.222h2.815a2.815 2.815 0 0 0 2.815-2.815v-12.33a8.979 8.979 0 0 1 9.148-8.781 8.979 8.979 0 0 1 9.148 8.781v16.553a3.547 3.547 0 0 1-2.2 3.265.7.7 0 0 1-.816-.225 4.193 4.193 0 0 0-3.321-1.633h-4.218a4.222 4.222 0 0 0 0 8.444h4.222a4.25 4.25 0 0 0 3.519-1.886.7.7 0 0 1 .479-.31 7.769 7.769 0 0 0 6.559-7.656v-.7a.7.7 0 0 1 .7-.7h.7a4.222 4.222 0 0 0 4.228-4.229Z" fill="#fff"/></svg>