<svg xmlns="http://www.w3.org/2000/svg" viewBox="0 0 172 172"><defs><style>.cls-4{fill:#fff}</style></defs><g id="Layer_2" data-name="Layer 2"><g id="Layer_1-2" data-name="Layer 1"><g id="Grupo_31" data-name="Grupo 31"><g id="Elipse_716" data-name="Elipse 716"><circle cx="86" cy="86" r="84" style="fill:none"/><circle cx="86" cy="86" r="85" style="stroke:#ff293e;stroke-width:2px;fill:none"/></g><g id="feat-home-4"><circle id="Elipse_695-2" data-name="Elipse 695-2" cx="86" cy="86" r="44" style="fill:#ff293e"/><g id="Key_Icon_4" data-name="Key Icon 4"><path id="Trazado_117" data-name="Trazado 117" class="cls-4" d="M81.79 75.23a21 21 0 0 1-14.68 14.68.15.15 0 0 0-.11.19.15.15 0 0 0 .11.11 21 21 0 0 1 14.68 14.69.16.16 0 0 0 .3 0 21 21 0 0 1 14.67-14.69.15.15 0 0 0 .12-.18.18.18 0 0 0-.12-.12 21 21 0 0 1-14.67-14.68.15.15 0 0 0-.19-.12.15.15 0 0 0-.11.12Z"/><path id="Trazado_118" data-name="Trazado 118" class="cls-4" d="M97.24 67.05a10.78 10.78 0 0 1-7.54 7.55.08.08 0 0 0-.06.1s0 0 .06 0a10.78 10.78 0 0 1 7.54 7.55.08.08 0 0 0 .1.06.09.09 0 0 0 .06-.06 10.78 10.78 0 0 1 7.54-7.55.08.08 0 0 0 .06-.09.09.09 0 0 0-.06-.06A10.78 10.78 0 0 1 97.4 67a.09.09 0 0 0-.1-.06.09.09 0 0 0-.06.11Z"/></g></g><g id="Key_Icon_4-2" data-name="Key Icon 4-2"><path id="Trazado_117-2" data-name="Trazado 117-2" class="cls-4" d="M81.79 75.23a21 21 0 0 1-14.68 14.68.15.15 0 0 0-.11.19.15.15 0 0 0 .11.11 21 21 0 0 1 14.68 14.69.16.16 0 0 0 .3 0 21 21 0 0 1 14.67-14.69.15.15 0 0 0 .12-.18.18.18 0 0 0-.12-.12 21 21 0 0 1-14.67-14.68.15.15 0 0 0-.19-.12.15.15 0 0 0-.11.12Z"/><path id="Trazado_118-2" data-name="Trazado 118-2" class="cls-4" d="M97.24 67.05a10.78 10.78 0 0 1-7.54 7.55.08.08 0 0 0-.06.1s0 0 .06 0a10.78 10.78 0 0 1 7.54 7.55.08.08 0 0 0 .1.06.09.09 0 0 0 .06-.06 10.78 10.78 0 0 1 7.54-7.55.08.08 0 0 0 .06-.09.09.09 0 0 0-.06-.06A10.78 10.78 0 0 1 97.4 67a.09.09 0 0 0-.1-.06.09.09 0 0 0-.06.11Z"/></g></g></g></g></svg>