<svg xmlns="http://www.w3.org/2000/svg" viewBox="0 0 172 172"><defs><style>.cls-4{fill:#fff}</style></defs><g id="Layer_2" data-name="Layer 2"><g id="Layer_1-2" data-name="Layer 1"><g id="Grupo_31" data-name="Grupo 31"><g id="Elipse_716" data-name="Elipse 716"><circle cx="86" cy="86" r="84" style="fill:none"/><circle cx="86" cy="86" r="85" style="stroke:#ff293e;stroke-width:2px;fill:none"/></g><g id="feat-home-3"><circle id="Elipse_695-2" data-name="Elipse 695-2" cx="86" cy="86" r="44" style="fill:#ff293e"/><g id="Grupo_728" data-name="Grupo 728"><path id="Trazado_110" data-name="Trazado 110" class="cls-4" d="M71.88 91.12a.45.45 0 0 0-.36-.18.42.42 0 0 0-.35.22l-4 6.83a1.65 1.65 0 0 0 .63 2.24 1.59 1.59 0 0 0 1 .2l3.94-.66 1.37 3.78a1.64 1.64 0 0 0 3 .26l3.3-5.51a.36.36 0 0 0 0-.35.41.41 0 0 0-.24-.24 16.86 16.86 0 0 1-8.29-6.59Z"/><path id="Trazado_111" data-name="Trazado 111" class="cls-4" d="m104.74 98-3.91-6.88a.41.41 0 0 0-.57-.14.34.34 0 0 0-.12.12 17 17 0 0 1-8.37 6.6.51.51 0 0 0-.25.25.36.36 0 0 0 0 .35l3.3 5.54a1.65 1.65 0 0 0 3-.28l1.37-3.78 4 .66a1.57 1.57 0 0 0 1.81-1.22 1.62 1.62 0 0 0-.24-1.23Z"/><path id="Trazado_112" data-name="Trazado 112" class="cls-4" d="M100.38 81.8a14.44 14.44 0 1 0-14.44 14.44 14.45 14.45 0 0 0 14.44-14.44Zm-8.67 5.64a1 1 0 0 1-.5 1.29 1 1 0 0 1-.9-.06l-4.15-2.35a.49.49 0 0 0-.41 0l-4.16 2.34a1 1 0 0 1-1.34-.32 1 1 0 0 1-.06-.9l1.65-3.89a.43.43 0 0 0-.1-.46l-3-3a.93.93 0 0 1-.16-1.3.89.89 0 0 1 .8-.35h3.5a.42.42 0 0 0 .38-.24l1.82-3.76a1 1 0 0 1 1.36-.4 1 1 0 0 1 .4.4l1.82 3.75a.4.4 0 0 0 .36.23h3.56a.92.92 0 0 1 .66 1.65l-3.13 3a.41.41 0 0 0-.08.46Z"/></g></g></g></g></g></svg>