<svg xmlns="http://www.w3.org/2000/svg" width="268" height="268"><defs><filter id="a" x="0" y="0" width="268" height="268" filterUnits="userSpaceOnUse"><feOffset/><feGaussianBlur stdDeviation="30" result="blur"/><feFlood flood-color="#ff293e" flood-opacity=".702"/><feComposite operator="in" in2="blur"/><feComposite in="SourceGraphic"/></filter></defs><g data-name="Elipse 716" transform="translate(50 50)" fill="none" stroke="#ff293e" stroke-width="2"><circle cx="84" cy="84" r="84" stroke="none"/><circle cx="84" cy="84" r="85"/></g><g transform="translate(.004 .002)" filter="url(#a)"><circle data-name="Elipse 695" cx="44" cy="44" r="44" transform="translate(90 90)" fill="#ff293e"/></g><g data-name="Grupo 727" fill="#fff"><path data-name="Trazado 113" d="M144.68 119.755h.4a.792.792 0 0 1 .792.792v.4a1.188 1.188 0 0 0 2.375 0v-.4a.792.792 0 0 1 .792-.792h.4a1.188 1.188 0 1 0 0-2.375h-.4a.792.792 0 0 1-.792-.792v-.4a1.188 1.188 0 0 0-2.375 0v.4a.792.792 0 0 1-.792.792h-.4a1.188 1.188 0 1 0 0 2.375Z"/><path data-name="Trazado 114" d="M125.679 144.297H123.7a.792.792 0 0 1-.791-.792v-1.979a1.188 1.188 0 1 0-2.375 0v1.979a.792.792 0 0 1-.792.792h-1.98a1.188 1.188 0 0 0 0 2.375h1.98a.792.792 0 0 1 .792.791v1.979a1.188 1.188 0 1 0 2.375 0v-1.979a.792.792 0 0 1 .791-.791h1.979a1.188 1.188 0 0 0 0-2.375Z"/><path data-name="Trazado 115" d="M139.01 119.755a6.46 6.46 0 0 0-10.4 0l-.95 1.362a.792.792 0 0 1-1.093.242l-.031-.021-1.409-.966a6.46 6.46 0 0 0-9.851 3.31 6.333 6.333 0 0 0 2.393 7.013l11.368 8.376a1.363 1.363 0 0 0 1.043.241 1.314 1.314 0 0 0 .9-.554l8.043-11.606a6.333 6.333 0 0 0-.013-7.397Z"/><path data-name="Trazado 116" d="m147.07 141.315-.839.3a.792.792 0 0 1-.982-.428l-.38-.855a4.338 4.338 0 0 0-6.793-1.717 4.259 4.259 0 0 0-1.2 4.892l3.451 8.9a.887.887 0 0 0 .491.522.963.963 0 0 0 .728 0l8.8-3.657a4.212 4.212 0 0 0 2.644-4.18 4.354 4.354 0 0 0-5.92-3.777Z"/></g></svg>