<svg xmlns="http://www.w3.org/2000/svg" viewBox="0 0 172 172"><defs><style>.cls-4{fill:#fff}</style></defs><g id="Layer_2" data-name="Layer 2"><g id="Layer_1-2" data-name="Layer 1"><g id="Grupo_31" data-name="Grupo 31"><g id="Elipse_716" data-name="Elipse 716"><circle cx="86" cy="86" r="84" style="fill:none"/><circle cx="86" cy="86" r="85" style="stroke:#ff293e;stroke-width:2px;fill:none"/></g><g id="feat-home-2"><circle id="Elipse_695-2" data-name="Elipse 695-2" cx="86" cy="86" r="44" style="fill:#ff293e"/><g id="Grupo_727" data-name="Grupo 727"><path id="Trazado_113" data-name="Trazado 113" class="cls-4" d="M96.68 71.75h.4a.79.79 0 0 1 .79.8V73a1.19 1.19 0 0 0 2.38 0v-.4a.79.79 0 0 1 .79-.8h.4a1.19 1.19 0 1 0 0-2.37H101a.79.79 0 0 1-.79-.79v-.4a1.19 1.19 0 0 0-2.38 0v.4a.79.79 0 0 1-.79.79h-.4a1.19 1.19 0 1 0 0 2.37Z"/><path id="Trazado_114" data-name="Trazado 114" class="cls-4" d="M77.68 96.3h-2a.79.79 0 0 1-.79-.8v-2a1.19 1.19 0 0 0-2.38 0v2a.79.79 0 0 1-.79.8h-2a1.19 1.19 0 0 0 0 2.37h2a.79.79 0 0 1 .79.79v2a1.19 1.19 0 0 0 2.38 0v-2a.79.79 0 0 1 .79-.79h2a1.19 1.19 0 0 0 0-2.37Z"/><path id="Trazado_115" data-name="Trazado 115" class="cls-4" d="M91 71.75a6.45 6.45 0 0 0-9-1.36 6.31 6.31 0 0 0-1.37 1.36l-1 1.37a.79.79 0 0 1-1.09.24l-1.41-1a6.47 6.47 0 0 0-9 1.59 6.25 6.25 0 0 0 1.54 8.73L81 91.07a1.4 1.4 0 0 0 2-.31l8-11.61a6.34 6.34 0 0 0 0-7.4Z"/><path id="Trazado_116" data-name="Trazado 116" class="cls-4" d="m99.07 93.31-.84.31a.8.8 0 0 1-1-.43l-.38-.86a4.34 4.34 0 0 0-5.65-2.4 4.28 4.28 0 0 0-2.34 5.58l3.45 8.9a.9.9 0 0 0 .49.52 1 1 0 0 0 .73 0l8.8-3.66a4.2 4.2 0 0 0 2.67-4.18 4.37 4.37 0 0 0-5.92-3.78Z"/></g></g></g></g></g></svg>