<svg xmlns="http://www.w3.org/2000/svg" width="28" height="28.072"><g fill="none" stroke="#ff293e" stroke-linejoin="round" stroke-width="2"><path data-name="Trazado 5474" d="M1 12.347a2 2 0 0 1 1.94-2.056h13.578a2 2 0 0 1 1.94 2.056v8.223a2 2 0 0 1-1.94 2.056H2.94A2 2 0 0 1 1 20.57Z"/><path data-name="Línea 208" stroke-linecap="round" d="M9.729 22.626v4.446"/><path data-name="Línea 209" stroke-linecap="round" d="M5.849 27.072h7.759"/><path data-name="Trazado 5475" d="M4.717 4.714V2.857A1.857 1.857 0 0 1 6.574 1h18.569A1.857 1.857 0 0 1 27 2.857v13a1.857 1.857 0 0 1-1.857 1.857h-1.857" stroke-linecap="round"/><path data-name="Línea 210" stroke-linecap="round" d="M1 18.621h17.458"/></g></svg>