<svg xmlns="http://www.w3.org/2000/svg" width="320" height="320"><defs><filter id="a" x="0" y="0" width="320" height="320" filterUnits="userSpaceOnUse"><feOffset/><feGaussianBlur stdDeviation="30" result="blur"/><feFlood flood-color="#ff293e" flood-opacity=".702"/><feComposite operator="in" in2="blur"/><feComposite in="SourceGraphic"/></filter></defs><g transform="translate(.004 .002)" filter="url(#a)"><circle data-name="Elipse 695" cx="70" cy="70" r="70" transform="translate(90 90)" fill="#ff293e" opacity=".65"/></g><path d="M243.545 160.106c0-1.064-2.129-1.6-2.129-1.6-37.249-11.171-68.645-40.97-78.223-76.091l-1.597-5.85s-.532-1.6-1.596-1.6-1.6 1.6-1.6 1.6l-1.6 5.853c-9.578 35.121-40.974 64.92-78.223 76.1 0 0-2.129.532-2.129 1.6s2.129 1.6 2.129 1.6c37.249 11.175 68.645 40.974 78.223 76.1l1.6 5.853s.532 1.6 1.6 1.6 1.6-1.6 1.6-1.6l1.6-5.853c9.578-35.121 40.974-64.92 78.223-76.1-.532.532 1.6 0 2.129-1.6" fill="#ff293e"/><g data-name="Key Icon 4" fill="#fff"><path data-name="Trazado 117" d="M155.788 149.226a20.971 20.971 0 0 1-14.674 14.686.154.154 0 0 0 0 .3 20.971 20.971 0 0 1 14.674 14.686.154.154 0 0 0 .3 0 20.972 20.972 0 0 1 14.675-14.686.154.154 0 0 0 0-.3 20.972 20.972 0 0 1-14.675-14.686.154.154 0 0 0-.3 0Z"/><path data-name="Trazado 118" d="M171.244 141.05a10.785 10.785 0 0 1-7.545 7.55.079.079 0 0 0 0 .153 10.784 10.784 0 0 1 7.545 7.55.079.079 0 0 0 .153 0 10.782 10.782 0 0 1 7.544-7.55.079.079 0 0 0 0-.153 10.782 10.782 0 0 1-7.544-7.55.079.079 0 0 0-.153 0Z"/></g><g data-name="Key Icon 4" fill="#fff"><path data-name="Trazado 117" d="M155.788 149.226a20.971 20.971 0 0 1-14.674 14.686.154.154 0 0 0 0 .3 20.971 20.971 0 0 1 14.674 14.686.154.154 0 0 0 .3 0 20.972 20.972 0 0 1 14.675-14.686.154.154 0 0 0 0-.3 20.972 20.972 0 0 1-14.675-14.686.154.154 0 0 0-.3 0Z"/><path data-name="Trazado 118" d="M171.244 141.05a10.785 10.785 0 0 1-7.545 7.55.079.079 0 0 0 0 .153 10.784 10.784 0 0 1 7.545 7.55.079.079 0 0 0 .153 0 10.782 10.782 0 0 1 7.544-7.55.079.079 0 0 0 0-.153 10.782 10.782 0 0 1-7.544-7.55.079.079 0 0 0-.153 0Z"/></g></svg>