<?xml version="1.0" encoding="utf-8"?>
<!-- Generator: Adobe Illustrator 15.1.0, SVG Export Plug-In . SVG Version: 6.00 Build 0)  -->
<!DOCTYPE svg PUBLIC "-//W3C//DTD SVG 1.1//EN" "http://www.w3.org/Graphics/SVG/1.1/DTD/svg11.dtd">
<svg version="1.1" id="Capa_1" xmlns="http://www.w3.org/2000/svg" xmlns:xlink="http://www.w3.org/1999/xlink" x="0px" y="0px"
	 width="320px" height="320px" viewBox="0 0 320 320" enable-background="new 0 0 320 320" xml:space="preserve">
<g id="icon-red-1" transform="translate(60.914 61.332)">
	<g id="feat-home-1">
		<g transform="matrix(1, 0, 0, 1, -60.91, -61.33)" opacity="0.8">
			<circle id="Elipse_695-2" opacity="0.65" fill="#FF293E" enable-background="new    " cx="160" cy="160" r="70"/>
		</g>
		<path id="Star" fill="#FF293E" d="M182.631,98.774L182.631,98.774c0-1.063-2.129-1.6-2.129-1.6
			c-37.249-11.171-68.645-40.97-78.223-76.091l-1.598-5.852c0,0-0.531-1.6-1.597-1.6c-1.064,0-1.6,1.6-1.6,1.6l-1.6,5.854
			c-9.578,35.121-40.974,64.92-78.223,76.1c0,0-2.129,0.532-2.129,1.602c0,1.066,2.129,1.6,2.129,1.6
			c37.249,11.175,68.645,40.974,78.223,76.1l1.6,5.854c0,0,0.532,1.6,1.6,1.6c1.067,0,1.601-1.6,1.601-1.6l1.601-5.854
			c9.577-35.121,40.974-64.92,78.223-76.1c-0.532,0.532,1.601,0,2.13-1.6"/>
		<path id="Trazado_5061" fill="#FFFFFF" d="M118.188,97.367c0-2.332-1.89-4.224-4.222-4.224l0,0h-0.7
			c-0.387,0-0.699-0.313-0.699-0.7l0,0v-0.371c-0.109-7.28-6.097-13.099-13.377-13c-7.279-0.094-13.26,5.723-13.37,13v0.366
			c0,0.388-0.313,0.7-0.7,0.7h-0.7c-2.332-0.004-4.226,1.882-4.23,4.214c0,0.005,0,0.009,0,0.014v5.631
			c0,2.331,1.89,4.222,4.222,4.222h2.815c1.555,0,2.815-1.261,2.815-2.815l0,0v-12.33c0.108-4.946,4.2-8.875,9.148-8.779
			c4.95-0.096,9.04,3.833,9.148,8.779v16.555c-0.006,1.433-0.875,2.721-2.2,3.265c-0.292,0.116-0.625,0.024-0.814-0.225
			c-0.795-1.03-2.021-1.635-3.321-1.633h-4.218c-2.332,0-4.222,1.89-4.222,4.222s1.89,4.222,4.222,4.222h4.222
			c1.413-0.004,2.733-0.711,3.519-1.886c0.109-0.167,0.283-0.279,0.479-0.312c3.771-0.594,6.55-3.839,6.56-7.654v-0.7
			c0-0.387,0.313-0.7,0.699-0.7l0,0h0.7c2.331,0.004,4.226-1.884,4.228-4.216c0-0.004,0-0.009,0-0.013v-5.631H118.188z"/>
	</g>
</g>
</svg>
