<svg xmlns="http://www.w3.org/2000/svg" width="30" height="30"><g transform="translate(5.567 5.566)"><circle data-name="Elipse 754" cx="15" cy="15" r="15" transform="translate(-5.567 -5.566)" fill="#13171d" opacity=".2"/><path data-name="Trazado 5390" d="M9.302-1.141A10.444 10.444 0 1 0 19.746 9.303 10.444 10.444 0 0 0 9.302-1.141m0 4.476a2.984 2.984 0 1 1-2.984 2.984 2.984 2.984 0 0 1 2.984-2.984m4.685 11.667a7.117 7.117 0 0 1-9.37 0 .373.373 0 0 1 0-.522 6.177 6.177 0 0 1 9.444 0 .373.373 0 0 1-.075.522" fill="#fff"/></g></svg>