<svg xmlns="http://www.w3.org/2000/svg" width="268" height="268"><defs><filter id="a" x="0" y="0" width="268" height="268" filterUnits="userSpaceOnUse"><feOffset/><feGaussianBlur stdDeviation="30" result="blur"/><feFlood flood-color="#ff293e" flood-opacity=".702"/><feComposite operator="in" in2="blur"/><feComposite in="SourceGraphic"/></filter></defs><g data-name="Elipse 716" transform="translate(50 50)" fill="none" stroke="#ff293e" stroke-width="2"><circle cx="84" cy="84" r="84" stroke="none"/><circle cx="84" cy="84" r="85"/></g><g transform="translate(.004 .002)" filter="url(#a)"><circle data-name="Elipse 695" cx="44" cy="44" r="44" transform="translate(90 90)" fill="#ff293e"/></g><g data-name="Key Icon 4" fill="#fff"><path data-name="Trazado 117" d="M129.788 123.226a20.971 20.971 0 0 1-14.674 14.686.154.154 0 0 0 0 .3 20.971 20.971 0 0 1 14.674 14.686.154.154 0 0 0 .3 0 20.972 20.972 0 0 1 14.675-14.686.154.154 0 0 0 0-.3 20.972 20.972 0 0 1-14.675-14.686.154.154 0 0 0-.3 0Z"/><path data-name="Trazado 118" d="M145.244 115.05a10.785 10.785 0 0 1-7.545 7.55.079.079 0 0 0 0 .153 10.784 10.784 0 0 1 7.545 7.55.079.079 0 0 0 .153 0 10.782 10.782 0 0 1 7.544-7.55.079.079 0 0 0 0-.153 10.782 10.782 0 0 1-7.544-7.55.079.079 0 0 0-.153 0Z"/></g><g data-name="Key Icon 4" fill="#fff"><path data-name="Trazado 117" d="M129.788 123.226a20.971 20.971 0 0 1-14.674 14.686.154.154 0 0 0 0 .3 20.971 20.971 0 0 1 14.674 14.686.154.154 0 0 0 .3 0 20.972 20.972 0 0 1 14.675-14.686.154.154 0 0 0 0-.3 20.972 20.972 0 0 1-14.675-14.686.154.154 0 0 0-.3 0Z"/><path data-name="Trazado 118" d="M145.244 115.05a10.785 10.785 0 0 1-7.545 7.55.079.079 0 0 0 0 .153 10.784 10.784 0 0 1 7.545 7.55.079.079 0 0 0 .153 0 10.782 10.782 0 0 1 7.544-7.55.079.079 0 0 0 0-.153 10.782 10.782 0 0 1-7.544-7.55.079.079 0 0 0-.153 0Z"/></g></svg>