<svg xmlns="http://www.w3.org/2000/svg">

  <symbol id="icon-menu-poker-1">
    <title>Icono inicio menu poker</title>
    <g transform="translate(-16.5 -3.375)" stroke-linecap="round" stroke-linejoin="round" stroke-width="2">
      <rect data-name="Rectángulo 157" width="18" height="22.5" rx="2" transform="translate(17.5 4.375)" />
      <path data-name="Trazado 5200" d="M21.5 8a.375.375 0 0 1 .375.375" />
      <path data-name="Trazado 5201" d="M21.125 8.375A.375.375 0 0 1 21.5 8" />
      <path data-name="Trazado 5202" d="M21.5 8.75a.375.375 0 0 1-.375-.375" />
      <path data-name="Trazado 5203" d="M21.875 8.375a.375.375 0 0 1-.375.375" />
      <path data-name="Trazado 5204" d="M31.5 22.499a.375.375 0 0 1 .375.375" />
      <path data-name="Trazado 5205" d="M31.124 22.874a.375.375 0 0 1 .375-.375" />
      <path data-name="Trazado 5206" d="M31.499 23.25a.375.375 0 0 1-.375-.375" />
      <path data-name="Trazado 5207" d="M31.875 22.875a.375.375 0 0 1-.375.375" />
      <path data-name="Trazado 5208" d="M27.25 12.209a.75.75 0 0 0-1.248 0l-2.376 3.334a.75.75 0 0 0 0 .832L26 19.709a.75.75 0 0 0 1.248 0l2.376-3.334a.75.75 0 0 0 0-.832Z" />
    </g>
  </symbol>
  <symbol id="icon-menu-poker-2">
    <title>Icono PC menu poker</title>
    <g stroke-linejoin="round" stroke-width="2">
      <path data-name="Trazado 5474" d="M1 12.347a2 2 0 0 1 1.94-2.056h13.578a2 2 0 0 1 1.94 2.056v8.223a2 2 0 0 1-1.94 2.056H2.94A2 2 0 0 1 1 20.57Z" />
      <path data-name="Línea 208" stroke-linecap="round" d="M9.729 22.626v4.446" />
      <path data-name="Línea 209" stroke-linecap="round" d="M5.849 27.072h7.759" />
      <path data-name="Trazado 5475" d="M4.717 4.714V2.857A1.857 1.857 0 0 1 6.574 1h18.569A1.857 1.857 0 0 1 27 2.857v13a1.857 1.857 0 0 1-1.857 1.857h-1.857" stroke-linecap="round" />
      <path data-name="Línea 210" stroke-linecap="round" d="M1 18.621h17.458" />
    </g>
  </symbol>
  <symbol id="icon-menu-poker-3">
    <title>Icono Movil menu poker</title>
    <g transform="translate(-1174.571 353.428)" stroke-linejoin="round" stroke-width="2">
      <path data-name="Trazado 5473" d="M1179.251-348.708v-1.86a1.86 1.86 0 0 1 1.86-1.86h18.6a1.86 1.86 0 0 1 1.86 1.86v13.02a1.86 1.86 0 0 1-1.86 1.86h-7.44" stroke-linecap="round" />
      <rect data-name="Rectángulo 250" width="11.386" height="17.078" rx="2" transform="translate(1175.571 -342.907)" />
      <path data-name="Línea 206" stroke-linecap="round" d="M1175.571-330.143h11.386" />
      <path data-name="Línea 207" stroke-linecap="round" d="M1180.756-339.768h1.017" />
    </g>
  </symbol>
  <symbol id="icon-menu-poker-4">
    <title>Icono Torneos menu poker</title>
    <g stroke-linecap="round" stroke-linejoin="round" stroke-width="2">
      <path data-name="Línea 211" d="M13 17.615V25" />
      <path data-name="Línea 212" d="M6.538 25h12.923" />
      <path data-name="Trazado 5476" d="M6.538 2.846H1v3.692a5.538 5.538 0 0 0 5.538 5.538Z" />
      <path data-name="Trazado 5477" d="M19.462 2.846H25v3.692a5.538 5.538 0 0 1-5.538 5.539Z" />
      <path data-name="Trazado 5478" d="M6.538 1v10.154a6.462 6.462 0 1 0 12.923 0V1Z" />
    </g>
  </symbol>
  <symbol id="icon-menu-poker-5">
    <title>Icono Como Jugar menu poker</title>
    <g>
      <path data-name="Trazado 5469" d="M13.995 1A12.995 12.995 0 0 0 3.179 21.192L1 26.992l7.3-1.319A12.995 12.995 0 1 0 14 1.003Z" stroke-linecap="round" stroke-linejoin="round" stroke-width="2" />
      <path data-name="Trazado 5470" d="M10.997 10.996a3 3 0 1 1 3 3v2" stroke-linecap="round" stroke-linejoin="round" stroke-width="2" />
      <path data-name="Trazado 5471" d="M13.994 18.993a1.5 1.5 0 1 0 1.5 1.5 1.52 1.52 0 0 0-1.5-1.5" fill="currentColor" />
    </g>
  </symbol>
  <symbol id="icon-menu-poker-6">
    <title>Icono Satelites Online menu poker</title>
    <g stroke-linecap="round" stroke-linejoin="round" stroke-width="2">
      <circle data-name="Elipse 776" cx="14" cy="14" r="14" transform="translate(1 1)" />
      <path data-name="Trazado 5472" d="m16.077 22.539 4.308-12.923-12.924 4.307 5.385 3.231Z" />
    </g>
  </symbol>

</svg>