<svg xmlns="http://www.w3.org/2000/svg" width="320" height="320"><defs><filter id="a" x="0" y="0" width="320" height="320" filterUnits="userSpaceOnUse"><feOffset/><feGaussianBlur stdDeviation="30" result="blur"/><feFlood flood-color="#ff293e" flood-opacity=".702"/><feComposite operator="in" in2="blur"/><feComposite in="SourceGraphic"/></filter></defs><g transform="translate(.004 .002)" filter="url(#a)"><circle data-name="Elipse 695" cx="70" cy="70" r="70" transform="translate(90 90)" fill="#ff293e" opacity=".65"/></g><path d="M243.545 160.106c0-1.064-2.129-1.6-2.129-1.6-37.249-11.171-68.645-40.97-78.223-76.091l-1.597-5.85s-.532-1.6-1.596-1.6-1.6 1.6-1.6 1.6l-1.6 5.853c-9.578 35.121-40.974 64.92-78.223 76.1 0 0-2.129.532-2.129 1.6s2.129 1.6 2.129 1.6c37.249 11.175 68.645 40.974 78.223 76.1l1.6 5.853s.532 1.6 1.6 1.6 1.6-1.6 1.6-1.6l1.6-5.853c9.578-35.121 40.974-64.92 78.223-76.1-.532.532 1.6 0 2.129-1.6" fill="#ff293e"/><g data-name="Grupo 728" fill="#fff"><path data-name="Trazado 110" d="M145.88 165.124a.445.445 0 0 0-.363-.181.412.412 0 0 0-.347.214l-3.96 6.832a1.65 1.65 0 0 0 1.65 2.442l3.944-.66 1.37 3.779a1.65 1.65 0 0 0 2.97.264l3.3-5.512a.362.362 0 0 0 0-.347.412.412 0 0 0-.248-.247 16.867 16.867 0 0 1-8.316-6.584Z"/><path data-name="Trazado 111" d="m178.736 171.989-3.907-6.881a.411.411 0 0 0-.693-.016 17 17 0 0 1-8.366 6.6.463.463 0 0 0-.248.248.364.364 0 0 0 0 .347l3.3 5.545a1.65 1.65 0 0 0 2.97-.28l1.369-3.779 3.944.66a1.582 1.582 0 0 0 1.634-2.443Z"/><path data-name="Trazado 112" d="M174.379 155.801a14.439 14.439 0 1 0-14.439 14.439h.033a14.439 14.439 0 0 0 14.406-14.439Zm-8.664 5.644a.974.974 0 0 1-1.4 1.221l-4.156-2.346a.463.463 0 0 0-.413 0l-4.158 2.343a.974.974 0 0 1-1.4-1.221l1.65-3.894a.413.413 0 0 0-.1-.462l-3-3a.924.924 0 0 1 .644-1.65h3.5a.413.413 0 0 0 .38-.231l1.815-3.762a1.006 1.006 0 0 1 1.766 0l1.815 3.746a.4.4 0 0 0 .363.231h3.564a.924.924 0 0 1 .66 1.65l-3.136 3.02a.43.43 0 0 0-.082.462Z"/></g></svg>