<svg xmlns="http://www.w3.org/2000/svg" width="75.001" height="30.494"><g data-name="Grupo 60" fill="#fff"><path data-name="Trazado 4121" d="M27.554 10.723h-1.346v3.831h-.946v-3.831h-1.345v-.769h3.639Z"/><path data-name="Trazado 4122" d="M31.786 14.538h-.85a.405.405 0 0 1-.353-.176l-.866-1.411a.916.916 0 0 0-.112-.128.347.347 0 0 0-.192-.032h-.321v1.747h-.945V9.954h1.443a3.009 3.009 0 0 1 .817.1 1.665 1.665 0 0 1 .561.272 1.01 1.01 0 0 1 .321.417 1.438 1.438 0 0 1 .1.545 1.35 1.35 0 0 1-.064.433 1.615 1.615 0 0 1-.192.369 1.37 1.37 0 0 1-.3.3 1.69 1.69 0 0 1-.417.208 1.223 1.223 0 0 1 .176.128.851.851 0 0 1 .144.176Zm-2.228-2.4a1 1 0 0 0 .4-.064.648.648 0 0 0 .272-.16.634.634 0 0 0 .16-.24.933.933 0 0 0 .048-.3.643.643 0 0 0-.224-.513.975.975 0 0 0-.657-.176h-.5v1.449Z"/><path data-name="Trazado 4123" d="M36.242 14.538h-.737a.333.333 0 0 1-.321-.208l-.3-.882h-1.832l-.3.882a.442.442 0 0 1-.112.144.256.256 0 0 1-.192.064h-.737l1.8-4.584h.978Zm-1.587-1.731-.5-1.411c-.032-.08-.064-.16-.1-.256s-.064-.208-.1-.321a4.548 4.548 0 0 1-.1.321 2.209 2.209 0 0 1-.1.256l-.5 1.395h1.378Z"/><path data-name="Trazado 4124" d="M40.602 9.954v4.584h-.5a.689.689 0 0 1-.192-.032.519.519 0 0 1-.144-.128l-2.292-2.917c0 .08.016.144.016.224v2.853h-.834V9.954h.593c.032 0 .048.016.08.016.016.016.048.032.064.048a.35.35 0 0 1 .064.08l2.308 2.917a1.213 1.213 0 0 1-.016-.24V9.938h.85Z"/><path data-name="Trazado 4125" d="M44.048 10.835a.7.7 0 0 1-.1.112.135.135 0 0 1-.112.032.259.259 0 0 1-.144-.048c-.048-.032-.112-.064-.192-.112a3.451 3.451 0 0 0-.24-.112 1.034 1.034 0 0 0-.321-.048.736.736 0 0 0-.5.144.475.475 0 0 0-.16.385.364.364 0 0 0 .1.256.934.934 0 0 0 .24.176 1.639 1.639 0 0 0 .337.128 3.607 3.607 0 0 1 .385.128 3.916 3.916 0 0 1 .385.16 1.757 1.757 0 0 1 .337.224 1.284 1.284 0 0 1 .24.337 1.119 1.119 0 0 1 .1.481 1.5 1.5 0 0 1-.112.593 1.578 1.578 0 0 1-.321.481 1.643 1.643 0 0 1-.513.321 1.886 1.886 0 0 1-.689.112 1.99 1.99 0 0 1-.433-.048 1.8 1.8 0 0 1-.417-.128 2.155 2.155 0 0 1-.385-.192 2.524 2.524 0 0 1-.3-.24l.272-.449a.164.164 0 0 1 .1-.08.377.377 0 0 1 .128-.032.267.267 0 0 1 .176.064 1.364 1.364 0 0 0 .224.144c.1.048.176.1.289.144a.97.97 0 0 0 .385.064.783.783 0 0 0 .513-.144.529.529 0 0 0 .176-.449.448.448 0 0 0-.1-.289.934.934 0 0 0-.24-.176 1.64 1.64 0 0 0-.339-.13c-.128-.032-.256-.08-.385-.112l-.385-.144a1.284 1.284 0 0 1-.337-.24 1.224 1.224 0 0 1-.24-.369 1.415 1.415 0 0 1 0-1.026 1.126 1.126 0 0 1 .3-.433 1.453 1.453 0 0 1 .481-.3 1.715 1.715 0 0 1 .657-.112 2.42 2.42 0 0 1 .769.128 1.667 1.667 0 0 1 .593.353Z"/><path data-name="Trazado 4126" d="M46.004 10.691v1.266h1.651v.753h-1.651v1.827h-.962V9.954h2.917v.737Z"/><path data-name="Trazado 4127" d="M49.594 10.691v1.186h1.539v.721h-1.539v1.2h1.972v.737h-2.917V9.954h2.917v.737Z"/><path data-name="Trazado 4128" d="M55.926 14.538h-.85a.405.405 0 0 1-.353-.176l-.866-1.411a.917.917 0 0 0-.112-.128.347.347 0 0 0-.192-.032h-.321v1.747h-.945V9.954h1.443a3.009 3.009 0 0 1 .817.1 1.665 1.665 0 0 1 .561.272 1.01 1.01 0 0 1 .321.417 1.438 1.438 0 0 1 .1.545 1.284 1.284 0 0 1-.256.8 1.37 1.37 0 0 1-.3.3 1.69 1.69 0 0 1-.417.208 1.223 1.223 0 0 1 .176.128.85.85 0 0 1 .144.176Zm-2.228-2.4a1 1 0 0 0 .4-.064.648.648 0 0 0 .272-.16.634.634 0 0 0 .16-.24.933.933 0 0 0 .048-.3.643.643 0 0 0-.224-.513.975.975 0 0 0-.657-.176h-.48v1.449Z"/><path data-name="Trazado 4129" d="M57.336 10.691v1.186h1.539v.721h-1.539v1.2h1.972v.737h-2.917V9.954h2.917v.737Z"/><path data-name="Trazado 4130" d="M63.94 9.954v4.584h-.5a.689.689 0 0 1-.192-.032.519.519 0 0 1-.144-.128l-2.287-2.917c0 .08.016.144.016.224v2.853h-.836V9.954h.593c.032 0 .048.016.08.016s.048.032.064.048a.35.35 0 0 1 .064.08l2.308 2.917a1.213 1.213 0 0 1-.016-.24V9.938h.85Z"/><path data-name="Trazado 4131" d="M68.028 13.416a.146.146 0 0 1 .128.064l.369.4a1.894 1.894 0 0 1-.689.545 2.317 2.317 0 0 1-.978.176 2.463 2.463 0 0 1-.93-.176 1.972 1.972 0 0 1-.705-.481 2.275 2.275 0 0 1-.449-.737 2.813 2.813 0 0 1-.08-1.6 1.957 1.957 0 0 1 .223-.563 2.036 2.036 0 0 1 .337-.465 1.9 1.9 0 0 1 .449-.353 2.053 2.053 0 0 1 .545-.224 2.7 2.7 0 0 1 .641-.08 2.33 2.33 0 0 1 .481.048 1.8 1.8 0 0 1 .417.128 1.615 1.615 0 0 1 .369.192c.112.08.208.16.3.24l-.321.433c-.016.032-.048.048-.08.08a.248.248 0 0 1-.128.032.358.358 0 0 1-.16-.048c-.048-.032-.112-.08-.192-.128a2.543 2.543 0 0 0-.289-.128 1.613 1.613 0 0 0-.433-.048 1.161 1.161 0 0 0-.529.112 1.123 1.123 0 0 0-.417.3 1.4 1.4 0 0 0-.272.481 2.294 2.294 0 0 0 0 1.314 1.207 1.207 0 0 0 .289.481 1.123 1.123 0 0 0 .417.3 1.388 1.388 0 0 0 .513.1 1.558 1.558 0 0 0 .289-.016c.08-.016.176-.032.24-.048.08-.032.144-.064.208-.1s.128-.1.208-.144a.351.351 0 0 1 .08-.048.237.237 0 0 1 .144-.048Z"/><path data-name="Trazado 4132" d="M70.031 14.538h-.962V9.954h.962Z"/><path data-name="Trazado 4133" d="M75 14.538h-.737a.333.333 0 0 1-.321-.208l-.3-.882H71.81l-.3.882a.442.442 0 0 1-.112.144.255.255 0 0 1-.192.064h-.737l1.8-4.584h.978Zm-1.583-1.731-.5-1.411c-.032-.08-.064-.16-.1-.256s-.064-.208-.1-.321a4.548 4.548 0 0 1-.1.321 2.209 2.209 0 0 1-.1.256l-.5 1.395h1.4Z"/></g><g data-name="Grupo 61" fill="#fff"><path data-name="Trazado 4134" d="M26.48 15.965a4.621 4.621 0 0 1 1.25.144 2.612 2.612 0 0 1 .85.385 1.455 1.455 0 0 1 .481.609 2.186 2.186 0 0 1 .144.817 1.563 1.563 0 0 1-.3.914 1.8 1.8 0 0 1-.4.369 2.424 2.424 0 0 1-.577.289 2.022 2.022 0 0 1 1.106.577 1.479 1.479 0 0 1 .353 1.026 2.257 2.257 0 0 1-.176.866 1.811 1.811 0 0 1-.513.689 2.261 2.261 0 0 1-.85.449 3.653 3.653 0 0 1-1.154.16h-2.81v-7.294Zm-1.074 1.138v1.971h.994a2.928 2.928 0 0 0 .561-.048 1.093 1.093 0 0 0 .417-.176.793.793 0 0 0 .256-.3.978.978 0 0 0 .08-.449 1.34 1.34 0 0 0-.08-.465.722.722 0 0 0-.224-.3 1.073 1.073 0 0 0-.385-.176 2.755 2.755 0 0 0-.545-.048Zm1.282 5a2.039 2.039 0 0 0 .593-.08.921.921 0 0 0 .369-.24.713.713 0 0 0 .192-.337 1.581 1.581 0 0 0 .048-.385 1.107 1.107 0 0 0-.064-.4.691.691 0 0 0-.208-.3 1.08 1.08 0 0 0-.385-.192 2.046 2.046 0 0 0-.577-.064h-1.282v2Z"/><path data-name="Trazado 4135" d="M36.835 23.258h-1.17a.509.509 0 0 1-.321-.1.524.524 0 0 1-.176-.24l-.5-1.395h-2.9l-.5 1.395a.577.577 0 0 1-.176.224.509.509 0 0 1-.321.1H29.59l2.853-7.298h1.539Zm-2.533-2.773-.785-2.228a4.1 4.1 0 0 1-.144-.417c-.048-.16-.1-.321-.144-.513-.048.192-.1.369-.144.513a4.1 4.1 0 0 1-.144.417l-.785 2.228Z"/><path data-name="Trazado 4136" d="M43.76 15.965v7.293h-.785a.651.651 0 0 1-.3-.064.908.908 0 0 1-.24-.192l-3.639-4.632a2.6 2.6 0 0 1 .016.353v4.536h-1.3v-7.294h.962a.377.377 0 0 1 .128.032c.032.016.064.048.112.08a.457.457 0 0 1 .112.128l3.651 4.649c-.016-.128-.016-.256-.032-.369 0-.112-.016-.224-.016-.337v-4.167h1.33Z"/><path data-name="Trazado 4137" d="M50.251 21.463a.258.258 0 0 1 .208.1l.593.641a2.774 2.774 0 0 1-1.106.85 3.846 3.846 0 0 1-1.555.289 3.9 3.9 0 0 1-1.475-.272 3.422 3.422 0 0 1-1.106-.769 3.383 3.383 0 0 1-.705-1.186 4.473 4.473 0 0 1-.24-1.491 4.194 4.194 0 0 1 .112-1.026 4 4 0 0 1 .337-.9 3.141 3.141 0 0 1 .545-.737 3.11 3.11 0 0 1 .721-.561 3.274 3.274 0 0 1 .882-.353 4.149 4.149 0 0 1 1.01-.128 3.935 3.935 0 0 1 .769.064 4.128 4.128 0 0 1 .673.192 3.284 3.284 0 0 1 .577.3 3.889 3.889 0 0 1 .481.385l-.513.689a.374.374 0 0 1-.112.112.342.342 0 0 1-.192.048.477.477 0 0 1-.24-.08 1.677 1.677 0 0 0-.3-.192 3.126 3.126 0 0 0-.449-.192 2.082 2.082 0 0 0-.689-.08 1.984 1.984 0 0 0-.834.16 1.936 1.936 0 0 0-.657.481 2.536 2.536 0 0 0-.433.769 3.483 3.483 0 0 0-.144 1.042 3.027 3.027 0 0 0 .16 1.042 2.267 2.267 0 0 0 .449.769 2.1 2.1 0 0 0 .657.481 2.011 2.011 0 0 0 .817.16 3.97 3.97 0 0 0 .465-.032 2.312 2.312 0 0 0 .385-.08 1.605 1.605 0 0 0 .337-.16 2.089 2.089 0 0 0 .321-.24c.032-.032.08-.048.112-.08.064 0 .112-.016.144-.016Z"/><path data-name="Trazado 4138" d="M58.317 23.258h-1.17a.509.509 0 0 1-.321-.1.524.524 0 0 1-.176-.24l-.5-1.395h-2.9l-.5 1.395a.577.577 0 0 1-.176.224.509.509 0 0 1-.321.1h-1.184l2.853-7.298h1.539Zm-2.549-2.773-.785-2.228a4.1 4.1 0 0 1-.144-.417c-.048-.16-.1-.321-.144-.513-.048.192-.1.369-.144.513s-.1.3-.144.417l-.79 2.228Z"/><path data-name="Trazado 4139" d="M64.806 23.258h-1.363a.62.62 0 0 1-.561-.289l-1.395-2.244a.731.731 0 0 0-.192-.192.573.573 0 0 0-.3-.064h-.513v2.789h-1.495v-7.293h2.292a4.536 4.536 0 0 1 1.314.16 2.927 2.927 0 0 1 .9.433 1.888 1.888 0 0 1 .513.673 2.137 2.137 0 0 1 .16.866 2.469 2.469 0 0 1-.1.689 2.08 2.08 0 0 1-.3.593 1.9 1.9 0 0 1-.481.465 2.819 2.819 0 0 1-.657.337 1.053 1.053 0 0 1 .272.192 1.273 1.273 0 0 1 .224.272Zm-3.542-3.831a2 2 0 0 0 .641-.1 1.151 1.151 0 0 0 .433-.256 1.244 1.244 0 0 0 .256-.385 1.511 1.511 0 0 0 .08-.481.985.985 0 0 0-.337-.8 1.585 1.585 0 0 0-1.042-.289h-.785v2.308Z"/><path data-name="Trazado 4140" d="M67.034 23.258h-1.523v-7.293h1.523Z"/><path data-name="Trazado 4141" d="M74.952 23.258h-1.17a.509.509 0 0 1-.321-.1.524.524 0 0 1-.176-.24l-.5-1.395h-2.9l-.5 1.395a.577.577 0 0 1-.176.224.509.509 0 0 1-.321.1h-1.181l2.853-7.298h1.539Zm-2.535-2.773-.785-2.228a4.1 4.1 0 0 1-.144-.417c-.048-.16-.1-.321-.144-.513-.048.192-.1.369-.144.513s-.1.3-.144.417l-.785 2.228Z"/></g><path data-name="Trazado 4142" d="M9.073 19.555h1.234l-.032-.721H6.107a.185.185 0 0 1-.192-.192V6.026a.185.185 0 0 1 .192-.192h8.463a.185.185 0 0 1 .192.192v12.615a.2.2 0 0 1-.192.192h-.353c.064.24.144.465.224.705.016.032.032.112.064.176a3.254 3.254 0 0 0 1.619-.3V5.915a1.464 1.464 0 0 0-1.459-1.459H6.011a1.464 1.464 0 0 0-1.458 1.459v13.9a1.464 1.464 0 0 0 1.458 1.455h4.376a12.37 12.37 0 0 1-.032-.753v-.1H9.073Zm8.608-2.741c.048-.1.048-.144-.048-.208a3.748 3.748 0 0 1-1.09-1.026v-2.629c.8.609 1.587 1.394 2.388 2.084a1.894 1.894 0 0 1 .705.946c.24.866.5 1.7.689 2.565.032.176.08.337.128.513a2.316 2.316 0 0 1 .08 1.33c-.064.289-.224.561-.353.93l-1.362 3.542a7.014 7.014 0 0 0-.657 3.029l.016 1.587c0 1.314-5.482 1.395-5.482 0a9.581 9.581 0 0 0-.256-2.9c-.385-1.3-.882-2.645-1.3-3.927a8.419 8.419 0 0 1-.272-2.164l-.112-2.533c-.048-.962-.321-2.436 1.026-2.533 1.25-.08 1.475 1.122 1.539 2 .208.737.385 1.571.641 2.276.1.272.176.5.433.513a3.2 3.2 0 0 0 2.212-.545 4.179 4.179 0 0 0 .577-1.042 1.434 1.434 0 0 0 .176-.561 3.516 3.516 0 0 1 .321-1.25ZM1.314 6.3H.064A5.577 5.577 0 0 1 4.456 0l.433 1.17c-.032 0-.064.016-.1.016A4.328 4.328 0 0 0 1.282 6.2c.016.032.016.064.032.1Zm1.154.016h1.315a1.982 1.982 0 0 1 1.988-2.838l-.465-1.234a3.224 3.224 0 0 0-2.837 4.071Z" fill="#fff" fill-rule="evenodd"/><g data-name="Grupo 62"><path data-name="Trazado 4143" d="M7.165 9.649h.737a4.787 4.787 0 0 1 .433-1.25 3.923 3.923 0 0 1 .705-.962 3.088 3.088 0 0 1 .946-.609 2.935 2.935 0 0 1 1.138-.208 2.756 2.756 0 0 1 2.356 1.17l-.561.593-.128.128a.342.342 0 0 1-.192.048.316.316 0 0 1-.224-.1c-.064-.064-.144-.128-.24-.208a1.463 1.463 0 0 0-.353-.208 1.533 1.533 0 0 0-1.6.337 2.535 2.535 0 0 0-.609 1.266h2.773v.481a.341.341 0 0 1-.112.256.448.448 0 0 1-.321.128H9.458v.593h2.34v.481a.341.341 0 0 1-.112.256.421.421 0 0 1-.321.128H9.538a2.5 2.5 0 0 0 .577 1.362 1.337 1.337 0 0 0 1.042.449 1.833 1.833 0 0 0 .449-.048 1.485 1.485 0 0 0 .321-.128 1.357 1.357 0 0 0 .224-.16 1.6 1.6 0 0 1 .176-.16 1.037 1.037 0 0 1 .144-.128.271.271 0 0 1 .16-.048.312.312 0 0 1 .128.016c.032.016.064.048.112.08l.689.625a2.684 2.684 0 0 1-1.026.962 3.061 3.061 0 0 1-1.459.337 3.3 3.3 0 0 1-1.218-.224 2.684 2.684 0 0 1-.93-.641 3.316 3.316 0 0 1-.641-.994 5.2 5.2 0 0 1-.369-1.282h-.7v-.863h.625v-.433a.657.657 0 0 1 .016-.176h-.625v-.866Z" fill="#fff"/></g></svg>