<svg xmlns="http://www.w3.org/2000/svg" width="57" height="19.935"><path d="m51.079 11.346.01.06-2.93.01L50.758 7Zm-28.61 7.747c-.181-.191-.181-.552 0-1.064L28.48 1.171l.351-.381-.01-.06-6.553-.021a.027.027 0 0 1-.03.03 2.839 2.839 0 0 1-.171 1.415l-5.449 15.685a2.719 2.719 0 0 1-.773 1.254h6.623Zm16.317-1.606q4.094-4.275-.572-7.948Q38 9.374 35.5 7.764c-1.5-.974-2.163-1.506-2.183-2.329-.03-1.134 1.435-2.057 3.954-1.666A8.365 8.365 0 0 1 41.365 5.8l.151-.01.722-3.89A10.623 10.623 0 0 0 38.746.257C34.551-.686 27.436.869 27.617 6.5a4.662 4.662 0 0 0 3.091 4.215l.512.231c1.535.712 3.733 1.816 3.663 3.532-.09 2.428-5.309 2.007-8.189-.08l-1.224-.963-.09 3.954c-.02.592 1.535 1.415 2.4 1.726 3.723 1.365 8.339 1.164 11.009-1.626ZM57 19.063l-.151-1.174L55.736.739l-5.75.01-.07.472L39.1 19.1l5.138-.02a1.422 1.422 0 0 1-.073-1.08l2.158-3.5 5.118-.09c0 .08.03 1.124.1 3.121a5.461 5.461 0 0 1-.11 1.545ZM15.695.8l.11.6L8.3 12.9a.117.117 0 0 0-.1-.02L8.149.839H0c.09.1.361.311.783.652a5.21 5.21 0 0 1 1.074 1.094 2.919 2.919 0 0 1 .622 1.275l.05 15.314 5.911.04L21.265.809 15.7.8Z" fill="#ccc"/></svg>