<svg xmlns="http://www.w3.org/2000/svg" width="79.999" height="13.536"><g fill="#a6a6a6"><path data-name="Trazado 4159" d="M70.535 5.726a3.3 3.3 0 0 1-1.919.438h-.847l.64-3.5h.64a2.912 2.912 0 0 1 1.582.337 1.361 1.361 0 0 1 .606 1.212 1.717 1.717 0 0 1-.707 1.515M20.169 10.1h-6.567l.438-2.289h4.107l.471-2.592h-4.073l.4-2.256h6.5Zm53.9-9.09a7.636 7.636 0 0 0-4.31-.976h-4.982L62.926 10.1h-6.532l.4-2.289h3.939l.471-2.559h-3.935l.438-2.289h4.074L62.32 0h-8.251l-1.751 9.562h-3.03L51.072 0h-4.374l-1.751 9.562h-2.963L43.769 0h-4.31l-1.852 10.1h-6.6l.4-2.289h3.973l.471-2.559h-3.934l.4-2.289h4.112L36.968 0H11.279L9.831 7.979 6.902.033H2.424L0 13.063h4.276l1.448-8.215 2.828 8.215h15.317l1.853-10.067h2.39l-1.851 10.067h40.267L67.706 6.7l1.885 6.363h4.278l-1.953-5.185.438-.1a3.856 3.856 0 0 0 2.288-1.352A4.14 4.14 0 0 0 75.45 3.8a3.114 3.114 0 0 0-1.38-2.794"/><path data-name="Trazado 4160" d="m77.569 11.514.572-.034a.672.672 0 0 0 .3-.067.336.336 0 0 0 .168-.135.427.427 0 0 0 .034-.2.306.306 0 0 0-.1-.236.5.5 0 0 0-.337-.067l-.64.034Zm-.2 1.145-.1-2.054.909-.034a1.272 1.272 0 0 1 .4.034.6.6 0 0 1 .236.168.543.543 0 0 1 .1.3.506.506 0 0 1-.135.37.761.761 0 0 1-.438.2.736.736 0 0 1 .168.1 1.925 1.925 0 0 1 .236.269l.37.539-.337.034-.3-.4a2.685 2.685 0 0 1-.2-.269l-.135-.135a.2.2 0 0 0-.135-.034h-.471l.034.909Z"/><path data-name="Trazado 4161" d="M76.494 11.682a1.548 1.548 0 0 1 .4-1.145 1.668 1.668 0 0 1 1.111-.539 1.634 1.634 0 0 1 1.683 1.515v.067a1.59 1.59 0 0 1-1.515 1.582 1.544 1.544 0 0 1-1.683-1.481m1.481-1.986a1.825 1.825 0 0 0-1.313.64 2.055 2.055 0 0 0-.505 1.38 1.944 1.944 0 0 0 2.02 1.818 1.922 1.922 0 0 0-.2-3.838"/></g></svg>