<svg xmlns="http://www.w3.org/2000/svg" width="40.172" height="30.121"><g fill="#fff"><path data-name="Trazado 4213" d="M5.606 8.24h3.979v5.606h5.606v3.978H9.585v5.606H5.606v-5.606H0v-3.978h5.606Z"/><path data-name="Trazado 4214" d="M18.463 6.495h-3.977v-2.72A30.61 30.61 0 0 0 20.453 0h2.558v29.715h-4.548Z"/><path data-name="Trazado 4215" d="M28.926 14.086a7.137 7.137 0 0 1-2.638-5.846c0-5.683 2.6-8.241 6.738-8.241s6.739 2.557 6.739 8.241a7.136 7.136 0 0 1-2.64 5.846c2.476 1.583 3.045 3.938 3.045 7.51 0 5.521-2.436 8.525-7.145 8.525s-7.144-3-7.144-8.525c.001-3.572.569-5.929 3.045-7.51Zm6.7 7.185c0-3.045-.65-4.871-2.6-4.871s-2.6 1.826-2.6 4.871.649 4.871 2.6 4.871 2.599-1.826 2.599-4.875Zm-.407-13.274c0-2.842-.649-4.019-2.192-4.019s-2.192 1.177-2.192 4.019.649 4.019 2.192 4.019 2.192-1.178 2.192-4.019Z"/></g></svg>