<svg xmlns="http://www.w3.org/2000/svg" width="51.665" height="39.454"><g fill="#fff"><path data-name="Trazado 4104" d="M1.093 39.28H0l1.208-6.5h1.381L3.8 39.339H2.7L2.531 37.9H1.266Zm.345-2.416h.921L1.9 34.046Z"/><path data-name="Trazado 4105" d="M7.422 34.449v4.89h-.978v-.46a1.619 1.619 0 0 1-1.208.575c-.518 0-.863-.4-.863-1.036v-3.911h1.036v3.8a.332.332 0 0 0 .345.345 1.049 1.049 0 0 0 .633-.288v-3.8h1.036Z"/><path data-name="Trazado 4106" d="M7.997 35.254v-.805h.575v-1.324h1.036v1.323h.69v.805h-.69v2.819c0 .23.115.4.345.4h.344v.863a1.136 1.136 0 0 1-.518.058c-.748 0-1.208-.345-1.208-1.093v-3.046h-.574Z"/><path data-name="Trazado 4107" d="M10.874 36.118c0-1.093.4-1.784 1.553-1.784s1.553.748 1.553 1.784v1.438c0 1.093-.4 1.784-1.553 1.784s-1.553-.749-1.553-1.784Zm2.129-.173c0-.575-.173-.805-.575-.805-.345 0-.575.23-.575.805v1.784c0 .575.173.805.575.805.345 0 .575-.23.575-.805Z"/><path data-name="Trazado 4108" d="M15.016 39.28v-6.5h1.611c1.381 0 2.014.518 2.014 1.956 0 1.381-.633 1.956-2.014 1.956h-.46v2.7h-1.151Zm1.093-3.567h.46c.748 0 .978-.23.978-.978 0-.805-.23-.978-.978-.978h-.46Z"/><path data-name="Trazado 4109" d="M19.446 39.282v-4.89h.978v.575a1.326 1.326 0 0 1 1.151-.633h.23v1.036a1.776 1.776 0 0 0-.633-.115.651.651 0 0 0-.69.633v3.336h-1.036Z"/><path data-name="Trazado 4110" d="M22.438 36.118c0-1.093.4-1.784 1.553-1.784s1.553.748 1.553 1.784v1.438c0 1.093-.4 1.784-1.553 1.784s-1.553-.749-1.553-1.784Zm2.129-.173c0-.575-.173-.805-.575-.805-.345 0-.575.23-.575.805v1.784c0 .575.173.805.575.805.345 0 .575-.23.575-.805Z"/><path data-name="Trazado 4111" d="M26.523 39.28v-6.5h1.036v2.129a1.372 1.372 0 0 1 1.151-.518c.518 0 .863.4.863 1.036v3.912h-1.036v-3.8a.332.332 0 0 0-.345-.345 1.049 1.049 0 0 0-.633.288v3.8Z"/><path data-name="Trazado 4112" d="M30.55 33.701v-.921h1.036v.921Zm0 5.581v-4.89h1.036v4.888Z"/><path data-name="Trazado 4113" d="M32.564 39.28v-6.5H33.6v2.071a1.492 1.492 0 0 1 1.036-.518c.633 0 1.036.46 1.036 1.381v2.359c0 .863-.4 1.381-1.036 1.381a1.246 1.246 0 0 1-1.093-.575v.518h-.979Zm.978-.978a.824.824 0 0 0 .575.23c.288 0 .46-.173.46-.805v-1.783c0-.633-.23-.805-.46-.805a1.215 1.215 0 0 0-.575.23Z"/><path data-name="Trazado 4114" d="M36.591 33.701v-.921h1.036v.921Zm0 5.581v-4.89h1.036v4.888Z"/><path data-name="Trazado 4115" d="M40.676 36.117v-.115c0-.575-.173-.805-.575-.805-.345 0-.575.23-.575.805v1.784c0 .575.173.805.575.805.345 0 .575-.23.575-.805v-.288h1.036v.115c0 1.093-.4 1.784-1.553 1.784s-1.554-.749-1.554-1.784v-1.438c0-1.093.4-1.784 1.553-1.784s1.553.69 1.553 1.784h-1.035Z"/><path data-name="Trazado 4116" d="M42.575 33.701v-.921h1.036v.921Zm0 5.581v-4.89h1.036v4.888Z"/><path data-name="Trazado 4117" d="M44.531 36.117c0-1.093.4-1.784 1.553-1.784s1.553.748 1.553 1.784v1.438c0 1.093-.4 1.784-1.553 1.784s-1.553-.748-1.553-1.784Zm1.726-2.244h-.748l.69-1.323h1.208Zm.4 2.071c0-.575-.173-.805-.575-.805-.345 0-.575.23-.575.805v1.784c0 .575.173.805.575.805.345 0 .575-.23.575-.805Z"/><path data-name="Trazado 4118" d="M48.616 39.281v-4.89h.978v.46a1.619 1.619 0 0 1 1.208-.575c.518 0 .863.4.863 1.036v3.912H50.63v-3.8a.332.332 0 0 0-.345-.345 1.049 1.049 0 0 0-.633.288v3.8h-1.036Z"/></g><path data-name="Trazado 4119" d="M11.622 13.737A14.658 14.658 0 1 0 27.904.907a14.675 14.675 0 0 0-16.282 12.83Z" fill="#e1081b" stroke="#e1081b" stroke-width="1.574"/><path data-name="Trazado 4120" d="M30.262 27.142c.633-.863 2.3-1.151 2.762-2.877.518-1.726 1.323-5.063 1.726-5.983s2.647-4.085 3.51-5.638-.921-1.726-1.381-1.093c-.345.46-1.726 2.589-2.474 3.625a4.667 4.667 0 0 1-.345.46c-.058.115-1.208-.345-1.151-.518 0-.058.173-.69.173-.748.518-2.014 1.438-5.351 1.9-7.077s-2.071-1.784-2.416-.46c-.518 1.611-1.784 5.811-2.071 6.731 0 .058-.115.4-.115.46-.115.345-1.5 0-1.5-.288v-8.8c0-1.668-2.647-1.5-2.647.058v8.572c0 .345-1.438.46-1.553.115-.115-.288 0 .058-.058-.23-.805-2.474-1.784-4.775-2.244-6.1-.633-1.956-2.934-1.266-2.359.575s1.323 4.315 2.014 6.731c.748 2.474 1.381 3.567-.805 4.488-.575-.46 1.208 1.036-1.726-1.151s-4.545-1.611-5.063-1.036c-.46.575 1.381 1.323 2.589 2.416 1.151 1.093 2.589 2.819 3.97 4.257.748.748 1.093 1.381 1.611 1.841-.23 1.726-2.416 3.222-2.416 3.222a15.142 15.142 0 0 0 8.8 1.093 19.426 19.426 0 0 1 1.269-2.645Z" fill="#fff" stroke="#fff" stroke-width="1.626"/></svg>