<svg xmlns="http://www.w3.org/2000/svg" width="111.084" height="28.431"><defs><clipPath id="a"><path data-name="Rectángulo 29" transform="translate(3.689 27.948)" d="M0 0h111.084v28.417H0z"/></clipPath><clipPath id="b"><path data-name="Trazado 4168" d="M3.689 56.365V27.948h111.084v28.417"/></clipPath></defs><g data-name="Grupo 64" clip-path="url(#a)" transform="translate(-3.689 -27.948)"><path data-name="Trazado 4162" d="M18.145 35.865a3.006 3.006 0 0 1 .567-1.929 2.279 2.279 0 0 1 .724-.468 2.026 2.026 0 0 1 .88-.2h3.447c1.518.014 2.3.851 2.327 2.5v5.093a2.125 2.125 0 0 1-.681 1.518 2.185 2.185 0 0 1-1.575.7h-3.263v3.674h-2.412Zm5.533.482q-.021-.575-.553-.6h-1.887a.657.657 0 0 0-.681.738v3.377a.683.683 0 0 0 .766.724h1.731a.56.56 0 0 0 .44-.2.466.466 0 0 0 .184-.4Z" fill="#999"/></g><g data-name="Grupo 65" clip-path="url(#a)" transform="translate(-3.689 -27.948)"><path data-name="Trazado 4163" d="M33.595 36.29c.014-.369-.2-.553-.653-.539h-4.866v-2.482h5.476c1.589.028 2.412.794 2.426 2.312v5.192a2.413 2.413 0 0 1-.61 1.632 2.067 2.067 0 0 1-1.575.667H30.5c-1.617-.014-2.426-.752-2.454-2.213v-2a2.094 2.094 0 0 1 2.341-2.327h3.22Zm-3.135 3.816a.4.4 0 0 0 .2.34.639.639 0 0 0 .44.156h1.858c.426 0 .638-.156.653-.5v-.7c0-.383-.227-.567-.667-.567H31.1a.82.82 0 0 0-.5.113.784.784 0 0 0-.128.525v.624Z" fill="#999"/></g><path data-name="Trazado 4164" d="M39.085 16.33a.862.862 0 0 0 .5-.2.518.518 0 0 0 .2-.4v-.578h-3.098a2.584 2.584 0 0 1-.965-.156 2.406 2.406 0 0 1-.766-.511 2.6 2.6 0 0 1-.525-.823 2.5 2.5 0 0 1-.17-.993V5.335h2.412v6.54c0 .525.213.78.653.78h1.7a.779.779 0 0 0 .525-.2.518.518 0 0 0 .213-.411v-6.71h2.4v10.81a3.045 3.045 0 0 1-.61 1.929 2.087 2.087 0 0 1-1.646.752h-5.647v-2.481Z" fill="#999"/><path data-name="Trazado 4165" d="M44.064 12.652h4.313c.4-.014.6-.17.61-.468v-.227a.4.4 0 0 0-.057-.213c-.1-.184-.213-.284-.355-.284h-2.127a2.369 2.369 0 0 1-1.632-.653 1.879 1.879 0 0 1-.709-1.433v-1.84c.028-1.447.809-2.185 2.355-2.2h4.994v2.469h-4.228c-.5 0-.752.156-.752.454v.241q0 .468.766.468h2.128a1.971 1.971 0 0 1 1.447.653 2.124 2.124 0 0 1 .624 1.518v1.815a2.354 2.354 0 0 1-.7 1.518 2.044 2.044 0 0 1-.667.511 2.9 2.9 0 0 1-.951.128h-5.044v-2.457Z" fill="#999"/><path data-name="Trazado 4166" d="M58.72 8.342c.014-.369-.213-.553-.653-.539h-4.866V5.321h5.476c1.589.028 2.412.794 2.426 2.312v5.192a2.413 2.413 0 0 1-.61 1.632 2.067 2.067 0 0 1-1.575.667h-3.32c-1.617-.014-2.426-.752-2.454-2.213v-2a2.088 2.088 0 0 1 2.341-2.327h3.22Zm-3.135 3.816a.4.4 0 0 0 .2.34.639.639 0 0 0 .44.156h1.856c.426 0 .638-.156.653-.5v-.7c0-.383-.227-.567-.667-.567h-1.844a.82.82 0 0 0-.5.113.784.784 0 0 0-.128.525v.624Z" fill="#999"/><g data-name="Grupo 66" clip-path="url(#b)" transform="translate(-3.689 -27.948)"><path data-name="Trazado 4167" d="M66.778 31.864a2.047 2.047 0 0 1 .752-1.617 2.765 2.765 0 0 1 1.844-.638h1.532v2.4h-.936c-.511.014-.766.255-.78.724v.525h1.717v2.5H69.19v7.32h-2.412Z" fill="#999"/></g><g data-name="Grupo 67" clip-path="url(#b)" transform="translate(-3.689 -27.948)"><path data-name="Trazado 4169" d="M74.78 39.752v.156a.689.689 0 0 0 .156.468.361.361 0 0 0 .312.227h4.965v2.483h-5.277a3.362 3.362 0 0 1-1.121-.142 2.205 2.205 0 0 1-.78-.468 1.973 1.973 0 0 1-.539-.809 3.608 3.608 0 0 1-.142-1.149l-.014-4.965a2.086 2.086 0 0 1 2.355-2.284h3.263a2.113 2.113 0 0 1 2.3 2.369V37.6Zm2.993-3.5v-.057a.377.377 0 0 0-.156-.312.667.667 0 0 0-.411-.113h-1.689a.743.743 0 0 0-.525.184.528.528 0 0 0-.255.454v.992Z" fill="#999"/></g><g data-name="Grupo 68" clip-path="url(#b)" transform="translate(-3.689 -27.948)"><path data-name="Trazado 4171" d="M85.349 43.086a4.492 4.492 0 0 1-1.007-.1 2.09 2.09 0 0 1-.951-.454 2.2 2.2 0 0 1-.681-.965 3.5 3.5 0 0 1-.2-1.192v-4.638a3.037 3.037 0 0 1 .113-.993 2.12 2.12 0 0 1 .511-.837 2.4 2.4 0 0 1 .908-.582 4.536 4.536 0 0 1 1.036-.113h3.7v.582h-3.613a2.49 2.49 0 0 0-1.5.4 1.764 1.764 0 0 0-.567 1.475v4.625a3.088 3.088 0 0 0 .142.951 1.915 1.915 0 0 0 .511.794 2.094 2.094 0 0 0 .78.383 4.124 4.124 0 0 0 .851.085h3.447v.582Z" fill="#999"/></g><g data-name="Grupo 69" clip-path="url(#b)" transform="translate(-3.689 -27.948)"><path data-name="Trazado 4173" d="M98.883 40.4a6.947 6.947 0 0 1-.071.993 2.461 2.461 0 0 1-.482.908 2.416 2.416 0 0 1-1.887.78h-2.894a2.569 2.569 0 0 1-1.83-.667A2.363 2.363 0 0 1 91 40.575v-1.49a2.3 2.3 0 0 1 2.521-2.585h4.8v-.653a2.274 2.274 0 0 0-.468-1.419 1.365 1.365 0 0 0-.7-.525 3.56 3.56 0 0 0-.908-.1H91v-.582h4.98a6.591 6.591 0 0 1 1.234.1 1.7 1.7 0 0 1 .525.213 1.569 1.569 0 0 1 .468.454 3.1 3.1 0 0 1 .653 1.986V40.4Zm-.583-3.329h-4.85a1.868 1.868 0 0 0-1.362.539 2 2 0 0 0-.511 1.447v1.475a3.287 3.287 0 0 0 .085.78 1.258 1.258 0 0 0 .454.667 2.1 2.1 0 0 0 1.39.525h2.937a1.687 1.687 0 0 0 1.844-1.944Z" fill="#999"/></g><g data-name="Grupo 70" clip-path="url(#b)" transform="translate(-3.689 -27.948)"><path data-name="Trazado 4175" d="M104.3 33.793c-1.348.028-2.015.766-1.986 2.213V43.1h-.582v-7.079c-.028-1.858.865-2.795 2.653-2.795h.638v.582h-.723Z" fill="#999"/></g><g data-name="Grupo 71" clip-path="url(#b)" transform="translate(-3.689 -27.948)"><path data-name="Trazado 4177" d="M114.659 40.334c-.057 1.873-1.036 2.781-2.965 2.752h-2.142a6.375 6.375 0 0 1-1.22-.113 2.427 2.427 0 0 1-1.064-.667 2.136 2.136 0 0 1-.482-.965 3.7 3.7 0 0 1-.113-1.078v-4.228a2.526 2.526 0 0 1 2.88-2.823h4.54v-3.206h.582Zm-.567-6.54h-4.582a3.5 3.5 0 0 0-.894.113 1.424 1.424 0 0 0-.794.511 1.648 1.648 0 0 0-.454.752 2.526 2.526 0 0 0-.113.908v4.5a1.649 1.649 0 0 0 .653 1.532 2.335 2.335 0 0 0 .724.284 3.52 3.52 0 0 0 .894.1h2a2.948 2.948 0 0 0 1.83-.525 1.964 1.964 0 0 0 .724-1.688v-6.488Z" fill="#999"/></g><g data-name="Grupo 72" clip-path="url(#b)" transform="translate(-3.689 -27.948)"><path data-name="Trazado 4179" d="M4.724 32.9a2.939 2.939 0 0 1 .567-.184 3.667 3.667 0 0 1 7.179.014 2.676 2.676 0 0 1 1.348.653 4.945 4.945 0 1 0-9.86-.709c-.014.227-.014.468-.014.709a3.292 3.292 0 0 1 .78-.482" fill="#666"/></g><g data-name="Grupo 73" clip-path="url(#b)" transform="translate(-3.689 -27.948)"><path data-name="Trazado 4181" d="M11.761 33.269h-5.9a2.252 2.252 0 0 0-.88.2 2.278 2.278 0 0 0-.724.468 3.006 3.006 0 0 0-.567 1.929v4.611a3.006 3.006 0 0 0 .566 1.923 2.278 2.278 0 0 0 .724.468 2.252 2.252 0 0 0 .88.2h5.9c1.518-.014 2.3-.851 2.327-2.5v-4.803c-.028-1.646-.794-2.483-2.327-2.5" fill="#666"/></g><g data-name="Grupo 74" clip-path="url(#b)" transform="translate(-3.689 -27.948)"><path data-name="Trazado 4183" d="M47.867 56.365V51.4c0-.085.014-.156.014-.227a.925.925 0 0 1 .851-.951.636.636 0 0 1 .156-.014h1.617a1.1 1.1 0 0 1 .227.028 1 1 0 0 1 .865 1.121v2.327a.943.943 0 0 1-.213.567 1.28 1.28 0 0 1-.128.142 1.075 1.075 0 0 1-.724.312h-1.544v1.674a7.391 7.391 0 0 0-1.121-.014m1.149-3.093a.292.292 0 0 0 .284.27h.936a.33.33 0 0 0 .184-.1.393.393 0 0 0 .071-.17v-1.7c-.028-.128-.071-.2-.213-.227a.052.052 0 0 0-.043-.014h-.894a.278.278 0 0 0-.284.184.462.462 0 0 0-.043.142V53.2a.064.064 0 0 0 0 .071" fill="#999"/></g><g data-name="Grupo 75" clip-path="url(#b)" transform="translate(-3.689 -27.948)"><path data-name="Trazado 4185" d="M52.393 53.669v-.908a.986.986 0 0 1 1.092-1.061H55l-.014-.241c0-.113-.071-.142-.241-.17h-2.338v-1.081h2.582c.071 0 .128.014.2.014a.9.9 0 0 1 .922.837.937.937 0 0 1 .014.2v2.369a1.074 1.074 0 0 1-.014.213 1.007 1.007 0 0 1-1.007.851h-1.562a1 1 0 0 1-1.135-.809c0-.085-.014-.213-.014-.213m1.192-.2a.25.25 0 0 0 .17.1.107.107 0 0 0 .057.014h.894a.279.279 0 0 0 .227-.085.262.262 0 0 0 .071-.17v-.312c0-.142-.014-.156-.142-.227-.028-.028-.071-.028-.156-.028h-.951l-.043.014c-.113.014-.156.071-.17.213v.355c-.014.014 0 .085.043.128" fill="#999"/></g><g data-name="Grupo 76" clip-path="url(#b)" transform="translate(-3.689 -27.948)"><path data-name="Trazado 4187" d="M56.9 56.365V55.23h2.27a.106.106 0 0 0 .071-.014.3.3 0 0 0 .255-.27v-.27h-1.457a1.074 1.074 0 0 1-1.121-1.149v-3.348h1.135v2.993c0 .241.113.355.312.355h.88a.332.332 0 0 0 .284-.27v-3.063h1.135v4.937a1.22 1.22 0 0 1-.014.227 1.037 1.037 0 0 1-.823.979 1.241 1.241 0 0 1-.227.028Z" fill="#999"/></g><g data-name="Grupo 77" clip-path="url(#b)" transform="translate(-3.689 -27.948)"><path data-name="Trazado 4189" d="M62.536 53.513v-2.255c0-.638.255-.951.766-1.036a.809.809 0 0 1 .184-.014h2.057v1.135h-1.531c-.241 0-.312.028-.34.184v1.7a.305.305 0 0 0 .312.312h1.561v1.135h-1.83c-.809 0-1.178-.369-1.178-1.163" fill="#999"/></g><g data-name="Grupo 78" clip-path="url(#b)" transform="translate(-3.689 -27.948)"><path data-name="Trazado 4191" d="M66.211 53.669v-.908A.986.986 0 0 1 67.3 51.7h1.518l-.014-.241c0-.113-.071-.142-.241-.17h-2.338v-1.081h2.582c.071 0 .128.014.2.014a1.01 1.01 0 0 1 .951 1.036v2.369a1.074 1.074 0 0 1-.014.213 1.007 1.007 0 0 1-1.007.851h-1.563a1 1 0 0 1-1.135-.809 4.995 4.995 0 0 1-.028-.213m1.192-.2a.25.25 0 0 0 .17.1.107.107 0 0 0 .057.014h.894a.279.279 0 0 0 .227-.085.262.262 0 0 0 .071-.17v-.312c0-.142-.014-.156-.142-.227-.028-.028-.071-.028-.156-.028h-.951l-.057.014c-.113.014-.156.071-.17.213v.355a.231.231 0 0 0 .057.128" fill="#999"/></g><path data-name="Trazado 4193" d="M66.92 26.729v-1.135h2.029c.128-.028.2-.071.227-.17.014-.014.014-.028.014-.057v-.085a.361.361 0 0 0-.028-.1.226.226 0 0 0-.171-.13h-.98a.873.873 0 0 1-.482-.128.894.894 0 0 1-.567-.823v-.837a1.563 1.563 0 0 1 .028-.255.981.981 0 0 1 1.078-.752h2.284l.014 1.135h-2.055c-.028.014-.057.014-.085.028s-.014.014-.028.028c-.071.071-.1.113-.1.156v.113a.231.231 0 0 0 .057.128c.028.043.085.071.213.085h1.007a.9.9 0 0 1 .709.34 1.093 1.093 0 0 1 .27.653l-.014.823a1.094 1.094 0 0 1-.17.539.951.951 0 0 1-.894.454H66.92Z" fill="#999"/><path data-name="Trazado 4194" d="M71.076 26.729v-6.157h1.135v1.674h1.546c.071 0 .128.014.184.014a.979.979 0 0 1 .851.823v3.632h-1.119v-3.093l-.014-.043c0-.128-.071-.184-.227-.213h-.894a.306.306 0 0 0-.255.085.29.29 0 0 0-.071.128v3.135h-1.135Z" fill="#999"/><path data-name="Trazado 4195" d="M75.389 26.052a.77.77 0 0 1 .2-.511.7.7 0 0 1 1.007 0 .711.711 0 0 1 0 .993.7.7 0 0 1-1.207-.482" fill="#999"/><path data-name="Trazado 4196" d="M79.802 28.417v-4.965c0-.085.014-.156.014-.227a.925.925 0 0 1 .851-.951.582.582 0 0 1 .156-.014h1.632a1.1 1.1 0 0 1 .227.028 1 1 0 0 1 .865 1.121v2.327a.943.943 0 0 1-.213.567 1.279 1.279 0 0 1-.128.142 1.075 1.075 0 0 1-.724.312h-1.546v1.674a7.579 7.579 0 0 0-1.135-.014m1.149-3.093a.292.292 0 0 0 .284.27h.936a.33.33 0 0 0 .184-.1.393.393 0 0 0 .071-.17v-1.7a.256.256 0 0 0-.213-.227.052.052 0 0 0-.043-.014h-.894a.278.278 0 0 0-.284.184.462.462 0 0 0-.043.142v1.617" fill="#999"/><path data-name="Trazado 4197" d="M84.327 25.721v-.908a.986.986 0 0 1 1.093-1.061h1.518v-.241c0-.113-.085-.142-.241-.17h-2.341V22.26h2.582c.071 0 .128.014.2.014a1.01 1.01 0 0 1 .951 1.036v2.369a1.074 1.074 0 0 1-.014.213 1.011 1.011 0 0 1-1.021.851H85.49a1 1 0 0 1-1.135-.809 1.25 1.25 0 0 0-.028-.213m1.192-.2a.25.25 0 0 0 .17.1.107.107 0 0 0 .057.014h.894a.279.279 0 0 0 .227-.085.262.262 0 0 0 .071-.17v-.312c0-.142-.014-.156-.142-.227-.028-.028-.071-.028-.156-.028h-.951l-.057.014c-.113.014-.156.071-.17.213v.355a.231.231 0 0 0 .057.128" fill="#999"/><path data-name="Trazado 4198" d="M88.853 28.417v-1.135h2.27a.128.128 0 0 0 .071-.014.3.3 0 0 0 .255-.27v-.27h-1.461a1.023 1.023 0 0 1-.979-.511.986.986 0 0 1-.156-.638v-3.348h1.135v2.993c0 .241.113.355.312.355h.88a.332.332 0 0 0 .284-.27v-3.063h1.135v4.937a1.221 1.221 0 0 1-.014.227 1.037 1.037 0 0 1-.823.979 1.241 1.241 0 0 1-.227.028Z" fill="#999"/><path data-name="Trazado 4199" d="M94.428 26.729v-1.135h2.015c.128-.028.2-.071.227-.17.014-.014.014-.028.014-.057v-.085a.361.361 0 0 0-.028-.1.226.226 0 0 0-.17-.128h-.975a.958.958 0 0 1-.5-.128.894.894 0 0 1-.567-.823v-.837a1.563 1.563 0 0 1 .028-.255.984.984 0 0 1 1.064-.752h2.284l.014 1.135H95.79c-.028.014-.057.014-.085.028s-.014.014-.028.028c-.071.071-.1.113-.1.156v.113a.231.231 0 0 0 .057.128c.028.043.085.071.213.085h1.007a.9.9 0 0 1 .709.34 1.093 1.093 0 0 1 .27.653l-.014.823a.967.967 0 0 1-.17.539.951.951 0 0 1-.894.454h-2.327Z" fill="#999"/><path data-name="Trazado 4200" d="M98.571 25.721v-.908a.986.986 0 0 1 1.092-1.064h1.518l-.014-.241c0-.113-.071-.142-.241-.17h-2.341V22.26h2.582c.071 0 .128.014.2.014a1.01 1.01 0 0 1 .951 1.036v2.369a1.074 1.074 0 0 1-.014.213 1.007 1.007 0 0 1-1.007.851h-1.561a1 1 0 0 1-1.135-.809 1.25 1.25 0 0 0-.028-.213m1.192-.2a.25.25 0 0 0 .17.1.107.107 0 0 0 .057.014h.894a.3.3 0 0 0 .227-.085.262.262 0 0 0 .071-.17v-.312c0-.142 0-.156-.142-.227-.028-.028-.071-.028-.156-.028h-.951l-.043.014c-.113.014-.156.071-.17.213v.355c-.014.014 0 .085.043.128" fill="#999"/><path data-name="Trazado 4201" d="M103.097 26.729v-5.122a1.088 1.088 0 0 1 1.206-1.021h.724v1.092h-.426c-.014 0-.043.014-.057.014a.308.308 0 0 0-.312.326v.241h.794v1.135h-.794v3.348h-1.135Z" fill="#999"/><path data-name="Trazado 4202" d="M105.338 23.295a1.241 1.241 0 0 1 .028-.227.991.991 0 0 1 1.092-.823h1.546c.071 0 .128.014.2.014a.932.932 0 0 1 .865.88v1.078l-2.568.965v.07c0 .184.085.312.227.312h2.341v1.135h-2.5a1.1 1.1 0 0 1-.667-.128 1.015 1.015 0 0 1-.553-1.036v-2.24Zm2.568.383v-.043a.233.233 0 0 0-.213-.17h-.851a.259.259 0 0 0-.128.028.28.28 0 0 0-.213.156.267.267 0 0 0-.028.113v.454Z" fill="#999"/><path data-name="Trazado 4203" d="M109.594 26.052a.7.7 0 0 1 1.206-.511.7.7 0 0 1-.014.993.725.725 0 0 1-.993.014.862.862 0 0 1-.2-.5" fill="#999"/></svg>