<svg xmlns="http://www.w3.org/2000/svg" width="30" height="30"><path d="M15 0a15 15 0 1 0 15 15A15.017 15.017 0 0 0 15 0Zm6.692 11.567c.007.149.01.3.01.448a9.819 9.819 0 0 1-15.116 8.272 6.971 6.971 0 0 0 5.112-1.43 3.456 3.456 0 0 1-3.225-2.4 3.381 3.381 0 0 0 .649.062 3.474 3.474 0 0 0 .91-.121 3.454 3.454 0 0 1-2.769-3.385v-.043a3.439 3.439 0 0 0 1.563.434 3.458 3.458 0 0 1-1.068-4.609 9.8 9.8 0 0 0 7.116 3.608 3.455 3.455 0 0 1 5.883-3.15 6.88 6.88 0 0 0 2.193-.838 3.466 3.466 0 0 1-1.524 1.911 6.875 6.875 0 0 0 1.983-.543 6.98 6.98 0 0 1-1.717 1.784Z" fill="#fff"/></svg>