<svg xmlns="http://www.w3.org/2000/svg" width="158.407" height="30.908"><g fill="#fff"><path data-name="Trazado 4216" d="M15.613 30.909h-.382a15.057 15.057 0 0 1-10.679-4.552A14.866 14.866 0 0 1 0 15.423 14.917 14.917 0 0 1 4.552 4.489 15.222 15.222 0 0 1 15.231.001h.032a1.281 1.281 0 0 1 1.273 1.241 1.254 1.254 0 0 1-1.241 1.289A12.539 12.539 0 0 0 6.35 6.319a12.271 12.271 0 0 0-3.8 9.12 12.247 12.247 0 0 0 3.8 9.12 12.518 12.518 0 0 0 8.929 3.8h.334a12.422 12.422 0 0 0 9.2-3.8 12.242 12.242 0 0 0 3.836-9.12v-.159a1.273 1.273 0 1 1 2.546 0v.159a14.834 14.834 0 0 1-4.584 10.934 15.107 15.107 0 0 1-10.998 4.536Z"/><path data-name="Trazado 4217" d="M15.104 26.58h-.064A11.167 11.167 0 0 1 4.472 15.439 11.139 11.139 0 0 1 15.024 4.314c.191-.016.4-.016.589-.016a11.142 11.142 0 0 1 11.125 10.966 1.277 1.277 0 0 1-1.257 1.289h-.016a1.274 1.274 0 0 1-1.274-1.255 8.615 8.615 0 0 0-8.594-8.467 4.17 4.17 0 0 0-.446.016h-.032a8.61 8.61 0 0 0-8.117 8.594 8.636 8.636 0 0 0 8.149 8.61 1.266 1.266 0 0 1-.048 2.531Z"/><path data-name="Trazado 4218" d="M15.598 22.139a6.685 6.685 0 1 1 6.7-6.685 6.711 6.711 0 0 1-6.7 6.685Zm0-10.838a4.13 4.13 0 0 0-4.154 4.138 4.157 4.157 0 0 0 4.154 4.154 3.907 3.907 0 0 0 2.928-1.223 4.131 4.131 0 0 0 0-5.873 4 4 0 0 0-2.928-1.196Z"/><path data-name="Trazado 4219" d="M42.478 19.131a3.866 3.866 0 1 1 0-7.719 4.649 4.649 0 0 1 2.34.653l-.525 1.464a3.805 3.805 0 0 0-1.783-.493 2.244 2.244 0 1 0 0 4.488 3.671 3.671 0 0 0 1.862-.557l.525 1.464a4.624 4.624 0 0 1-2.419.7Z"/><path data-name="Trazado 4220" d="M50.166 19.131a3.651 3.651 0 0 1-3.788-3.852 3.719 3.719 0 0 1 3.867-3.867 3.655 3.655 0 0 1 3.788 3.867 3.724 3.724 0 0 1-3.867 3.852Zm.032-6.175a2.336 2.336 0 1 0 1.974 2.308 2.069 2.069 0 0 0-1.974-2.308Z"/><path data-name="Trazado 4221" d="m62.548 19.147-4.5-4.043v3.9h-1.739v-7.576l.239-.048 4.44 4.011v-3.852h1.735v7.576Z"/><path data-name="Trazado 4222" d="M67.004 13.132v1.655h2.565v1.512h-2.562v2.706h-1.738V11.54h4.727v1.592Z"/><path data-name="Trazado 4223" d="M72.065 19.004V11.54H73.8v7.464Z"/><path data-name="Trazado 4224" d="m80.946 19.004-.557-1.353h-2.578l-.557 1.353h-1.767l3.517-7.528h.239l3.517 7.528ZM79.1 14.532l-.748 1.8h1.48Z"/><path data-name="Trazado 4225" d="m90.607 19.147-4.5-4.043v3.9h-1.739v-7.576l.239-.048 4.44 4.011v-3.852h1.735v7.576Z"/><path data-name="Trazado 4226" d="M95.54 17.424h3.581v1.58h-6.334l-.048-.191 3.692-5.7h-3.438v-1.589h6.191l.048.191Z"/><path data-name="Trazado 4227" d="m105.711 19.004-.557-1.353h-2.578l-.557 1.353h-1.767l3.517-7.528h.239l3.517 7.528Zm-1.846-4.472-.748 1.8h1.48Z"/><path data-name="Trazado 4228" d="M117.838 15.152a4.027 4.027 0 0 1-.3 1.576 4.075 4.075 0 0 1-.812 1.257 3.586 3.586 0 0 1-1.226.812 3.985 3.985 0 0 1-1.5.3 3.571 3.571 0 0 1-1.48-.3 4.246 4.246 0 0 1-1.21-.812 4.075 4.075 0 0 1-.812-1.257 4.256 4.256 0 0 1 0-3.151 3.9 3.9 0 0 1 .812-1.257 3.958 3.958 0 0 1 1.225-.828 3.7 3.7 0 0 1 1.5-.3 3.571 3.571 0 0 1 1.48.3 3.8 3.8 0 0 1 1.21.828 4.075 4.075 0 0 1 .812 1.257 4.027 4.027 0 0 1 .301 1.575Zm-.875 1.353a3.952 3.952 0 0 0 0-2.706 3.588 3.588 0 0 0-.653-1.1 3.037 3.037 0 0 0-1-.716 3.131 3.131 0 0 0-2.546 0 2.882 2.882 0 0 0-1 .716 3.409 3.409 0 0 0-.653 1.1 3.953 3.953 0 0 0 0 2.706 3.33 3.33 0 0 0 .653 1.082 2.882 2.882 0 0 0 1 .716 3.131 3.131 0 0 0 2.546 0 2.882 2.882 0 0 0 1-.716 3.33 3.33 0 0 0 .653-1.082Z"/><path data-name="Trazado 4229" d="m127.483 19.099-.111.032-5.125-6.542v6.414h-.573v-7.782l.143-.032 5.077 6.462v-6.35h.589v7.8Z"/><path data-name="Trazado 4230" d="M135.966 19.001h-4.345v-7.7h.589v7.162h3.756Z"/><path data-name="Trazado 4231" d="M139.945 19.001h-.589v-7.7h.589Z"/><path data-name="Trazado 4232" d="m149.924 19.099-.111.032-5.125-6.542v6.414h-.573v-7.782l.143-.032 5.077 6.462v-6.35h.589v7.8Z"/><path data-name="Trazado 4233" d="M158.407 19.001h-4.345v-7.7h4.345v.525h-3.756v3.008h3.39v.525h-3.39v3.119h3.756Z"/></g></svg>