<svg xmlns="http://www.w3.org/2000/svg" width="58.605" height="20"><path d="m46.589 1.964 4.884-.879v18.708h-4.884Zm7.132 0v17.855H58.6V1.085ZM39.638 19.819h4.884V6.124h-4.884ZM7.416 8.062C6.8 8.01 5.375 7.933 5.375 6.641c0-1.55 2.067-1.55 2.816-1.55a16.666 16.666 0 0 1 4.367.775s.7.258 1.292.491l.052.026V2.119l-.078-.026a17.458 17.458 0 0 0-6.382-1.008C1.938 1.085 0 4.289 0 7.028c0 1.576.672 5.3 6.977 5.736.543.026 1.938.1 1.938 1.447 0 1.085-1.163 1.731-3.1 1.731a15.358 15.358 0 0 1-5.479-1.059v4.367a25.636 25.636 0 0 0 6.511.75c5.375 0 7.778-3.023 7.778-6.047 0-3.385-2.687-5.607-7.209-5.891ZM36.9 5.917c-4.5.155-6.8 2.17-6.8 6.176v7.7h4.91v-6.279c0-2.4.31-3.437 3.178-3.54V5.995a6.96 6.96 0 0 0-1.288-.078ZM23.669 6.1a16.113 16.113 0 0 1-2.791 4.754V1.085l-5.039 1.008v17.726h5.039v-5.478a19.39 19.39 0 0 1 2.17 5.478h6.021a38.956 38.956 0 0 0-3.2-7.054A22.178 22.178 0 0 0 29.405 6.1Zm18.424-1.294a2.415 2.415 0 0 0 2.4-2.4 2.4 2.4 0 1 0-2.4 2.4Z" fill="#ccc"/></svg>