<svg xmlns="http://www.w3.org/2000/svg" width="30" height="30"><path d="M15 0A15 15 0 1 1 0 15 15.007 15.007 0 0 1 15 0Zm8.983 10.487a2.348 2.348 0 0 0-1.658-1.658A56.027 56.027 0 0 0 15 8.437a56.027 56.027 0 0 0-7.326.392 2.348 2.348 0 0 0-1.658 1.658A24.407 24.407 0 0 0 5.625 15a24.4 24.4 0 0 0 .392 4.513 2.348 2.348 0 0 0 1.658 1.658 56.052 56.052 0 0 0 7.325.392 56.052 56.052 0 0 0 7.326-.392 2.348 2.348 0 0 0 1.658-1.658A24.4 24.4 0 0 0 24.375 15a24.408 24.408 0 0 0-.392-4.513Zm-10.858 7.326v-5.625L18 15Z" fill="#fff" fill-rule="evenodd"/></svg>