<svg xmlns="http://www.w3.org/2000/svg" width="77.216" height="23.002"><path data-name="Trazado 5353" d="M38.2 8.208a1.185 1.185 0 0 0-1.19 1.19v8.861a1.19 1.19 0 1 0 2.381 0V9.401a1.185 1.185 0 0 0-1.19-1.19m0-4.364a1.323 1.323 0 1 0 1.322 1.322A1.325 1.325 0 0 0 38.2 3.846m11.639 5.555a1.032 1.032 0 0 0-1.056-1.058h-5.954a1.043 1.043 0 0 0-1.058 1.058 1.138 1.138 0 0 0 1.058 1.058h3.835l-5.026 7.01a2.234 2.234 0 0 0-.265.661 1.276 1.276 0 0 0 1.058 1.19h6.216a1.138 1.138 0 0 0 1.058-1.058 1.043 1.043 0 0 0-1.057-1.054h-4.232l4.894-6.877c.4-.4.529-.661.529-.926m-17.456 5.418c0 1.455-.661 2.381-2.116 2.381s-2.116-.926-2.116-2.381v-4.5h2.248c1.719 0 1.984.926 1.984 1.984Zm2.378-2.515c0-2.513-1.323-4.1-4.364-4.1h-2.249V5.036a1.19 1.19 0 1 0-2.381 0v9.919c0 2.513 1.323 4.5 4.5 4.5a4.164 4.164 0 0 0 4.5-4.5v-2.647Zm24.336-4.1a1.185 1.185 0 0 0-1.19 1.19v5.555c0 1.455-.661 2.381-2.116 2.381s-2.116-.926-2.116-2.381V9.401a1.19 1.19 0 0 0-2.381 0v5.555c0 2.513 1.323 4.5 4.5 4.5a4.164 4.164 0 0 0 4.5-4.5V9.401a1.185 1.185 0 0 0-1.19-1.19m18.119 4.5c0-2.513-1.19-4.5-4.232-4.5a4.231 4.231 0 0 0-3.042 1.058A4.231 4.231 0 0 0 66.9 8.208c-3.042 0-4.232 1.984-4.232 4.5v5.555a1.19 1.19 0 0 0 2.381 0v-5.555c0-1.455.4-2.381 1.852-2.381s1.852.926 1.852 2.381v5.555a1.19 1.19 0 0 0 2.381 0v-5.555c0-1.455.4-2.381 1.852-2.381s1.852.926 1.852 2.381v5.555a1.19 1.19 0 0 0 2.381 0ZM4.21 8.208a1.908 1.908 0 0 0 2.645-.4l2.248-3.036a1.908 1.908 0 0 0-.4-2.645 2.2 2.2 0 0 0-2.777.4L3.813 5.565a1.8 1.8 0 0 0 .4 2.645m10.048-4.232a1.908 1.908 0 0 0-2.645.4l-8.733 12.03a1.891 1.891 0 0 0 3.042 2.248l8.733-12.033a2 2 0 0 0-.4-2.645M3.416 2.92a1.908 1.908 0 0 0-.4-2.645A2.02 2.02 0 0 0 .374.808a1.908 1.908 0 0 0 .4 2.645 1.94 1.94 0 0 0 2.645-.529m13.223 16.661a1.891 1.891 0 1 0 .4 2.645 1.8 1.8 0 0 0-.4-2.645m-3.439-4.762a1.908 1.908 0 0 0-2.645.4L8.31 18.262a1.891 1.891 0 0 0 3.042 2.246l2.248-3.042a1.768 1.768 0 0 0-.4-2.645" fill="#cccbcb"/></svg>