<svg xmlns="http://www.w3.org/2000/svg" width="263" height="31.224"><path data-name="Trazado 1" d="M53.35 8.17c0-.089-.134-.089-.134-.089a6.547 6.547 0 0 1-4.42-4.286l-.089-.313a.087.087 0 0 0-.089-.089c-.045 0-.089.089-.089.089l-.089.313a6.547 6.547 0 0 1-4.42 4.286s-.134.045-.134.089c0 .089.134.089.134.089a6.547 6.547 0 0 1 4.42 4.286l.089.313a.087.087 0 0 0 .089.089c.045 0 .089-.089.089-.089l.089-.313a6.547 6.547 0 0 1 4.42-4.286c0 .045.134 0 .134-.089Z" fill="#ff293e"/><path data-name="Trazado 2" d="M57.726 2.5a.044.044 0 0 0-.045-.045A3.36 3.36 0 0 1 55.404.223l-.045-.179a.044.044 0 0 0-.045-.045.044.044 0 0 0-.045.045l-.045.223A3.45 3.45 0 0 1 52.949 2.5a.044.044 0 0 0-.045.045.044.044 0 0 0 .045.045 3.36 3.36 0 0 1 2.277 2.232l.045.179a.044.044 0 0 0 .045.045.044.044 0 0 0 .045-.045l.045-.179a3.45 3.45 0 0 1 2.277-2.232.156.156 0 0 0 .045-.089Z" fill="#ff293e"/><path data-name="Trazado 3" d="M11.027 25.537a3.274 3.274 0 0 1-3.08 1.875 3.647 3.647 0 0 1-3.706-4.02c0-2.366 1.429-4.107 3.616-4.107a3.278 3.278 0 0 1 3.215 2.007c.045.089.045.134.179.089l3.3-1.295c.089-.045.179-.134.045-.4a7.111 7.111 0 0 0-6.875-4.2 7.813 7.813 0 0 0 .089 15.626 7.454 7.454 0 0 0 6.92-4.554c.045-.134 0-.223-.179-.268l-3.3-.893c-.134-.089-.134 0-.223.134Z" fill="#fff"/><path data-name="Trazado 4" d="M30.403 30.448c-2.411-4.866-5.447-11.027-7.545-15.134a1.084 1.084 0 0 0-.536 0c-2.009 3.75-5.223 10.268-7.5 15.134-.089.223-.045.313.089.313h3.661c.268 0 .313-.045.4-.223.223-.536.491-1.295.759-1.92h5.357c.223.536.536 1.384.8 1.964a.245.245 0 0 0 .268.179h4.107c.268 0 .268-.045.134-.313ZM23.93 25.76h-3.08l1.518-3.348 1.563 3.348Z" fill="#fff"/><path data-name="Trazado 5" d="M31.519 27.769c.759 2.143 2.634 3.393 5.625 3.393 3.482 0 6.25-1.518 6.25-4.911 0-2.768-1.652-4.241-4.464-4.643a5.156 5.156 0 0 0-.714-.089c-1.964-.313-2.813-.759-2.813-1.786 0-.8.491-1.384 2.009-1.384a2.7 2.7 0 0 1 2.455 1.741c.045.089.089.134.268.089l2.589-1.027c.134-.045.223-.134.134-.357-.58-1.875-2.366-3.259-5.313-3.259-3.884 0-5.848 2.009-5.848 4.866 0 2.723 1.875 4.241 4.509 4.509.134 0 .357.045.536.045 2.009.223 2.679.8 2.679 1.741 0 1.027-.714 1.473-2.232 1.473a2.9 2.9 0 0 1-2.679-1.786c-.045-.179-.045-.179-.223-.089l-2.723 1.116c-.089 0-.134.089-.045.357Z" fill="#fff"/><path data-name="Trazado 6" d="M50.359 15.983c0-.179 0-.179-.223-.179h-3.661c-.179 0-.179 0-.179.179v14.6c0 .223 0 .179.179.179h3.661c.179 0 .223 0 .223-.179v-14.6Z" fill="#fff"/><path data-name="Trazado 7" d="M66.654 31.118v-15.27c-.045-.045-.089-.045-.179-.045h-3.348c-.179 0-.179 0-.179.268v6.607s-5.4-5-8.572-7.277c-.089-.045-.223-.089-.223.134v15a.208.208 0 0 0 .223.223h3.348c.179 0 .179 0 .179-.179v-6.783s5.223 4.777 8.527 7.277c.089.089.179.134.223.045Z" fill="#fff"/><path data-name="Trazado 8" d="M85.316 23.305a7.813 7.813 0 1 0-7.813 7.813 7.737 7.737 0 0 0 7.813-7.813Zm-4.107 0c0 2.277-1.384 4.018-3.706 4.018-2.366 0-3.705-1.786-3.705-4.018 0-2.277 1.339-4.063 3.705-4.063 2.322 0 3.706 1.786 3.706 4.063Z" fill="#fff"/><path data-name="Trazado 9" d="M107.102 19.688c0-2.5-1.652-3.929-4.375-3.929h-7.768c-.179 0-.268.045-.268.223v14.51c0 .268 0 .313.179.313h8.393a3.893 3.893 0 0 0 4.241-4.063 3.547 3.547 0 0 0-3.08-3.661 3.41 3.41 0 0 0 2.679-3.393Zm-4.063.58a1.294 1.294 0 0 1-1.429 1.429h-2.991v-2.858h2.991c.938.045 1.429.491 1.429 1.429Zm.357 5.8a1.434 1.434 0 0 1-1.518 1.607h-3.214V24.42h3.214a1.567 1.567 0 0 1 1.518 1.652Z" fill="#fff"/><path data-name="Trazado 10" d="M124.692 30.492c-2.455-4.911-5.447-11.072-7.59-15.224a1.084 1.084 0 0 0-.536 0c-2.009 3.75-5.223 10.313-7.545 15.224-.089.223-.045.313.089.313h3.661c.268 0 .313-.045.4-.223.223-.536.491-1.295.759-1.92h5.357c.223.536.536 1.384.8 1.964a.245.245 0 0 0 .268.179h4.152c.268 0 .313-.045.179-.313Zm-6.518-4.732h-3.08l1.518-3.393 1.563 3.393Z" fill="#fff"/><path data-name="Trazado 11" d="M141.077 30.179c-1.295-2.1-2.545-4.331-3.125-5.223 1.339-.625 2.054-2.1 2.054-4.107a4.907 4.907 0 0 0-5.223-5.089h-6.875a.158.158 0 0 0-.179.179v14.6c0 .223 0 .179.179.179h3.661c.134 0 .179 0 .179-.179v-4.2l2.545-.045s1.607 2.545 2.366 3.973c.179.4.268.446.446.446h3.923c.223.089.268-.089.045-.536Zm-5.313-9.063a1.962 1.962 0 0 1-1.875 2.232l-2.232.045v-4.334h2.188a1.819 1.819 0 0 1 1.92 2.054Z" fill="#fff"/><path data-name="Trazado 12" d="M154.157 25.537a3.294 3.294 0 0 1-3.125 1.875 3.647 3.647 0 0 1-3.706-4.018c0-2.366 1.429-4.107 3.616-4.107a3.379 3.379 0 0 1 3.259 2.009c.045.089.045.134.179.089l3.3-1.295c.089-.045.179-.134.045-.4a7.143 7.143 0 0 0-6.916-4.243 7.858 7.858 0 0 0 .089 15.715 7.507 7.507 0 0 0 6.965-4.6c.045-.134 0-.223-.179-.268l-3.348-.893c-.089-.045-.134.045-.179.134Z" fill="#fff"/><path data-name="Trazado 13" d="M171.615 18.973a.335.335 0 0 0 .045-.223v-2.723c0-.268 0-.268-.223-.268h-10.048c-.223 0-.179 0-.179.223v14.51c0 .268 0 .313.223.313h10.134c.223 0 .223-.045.223-.313v-3.08h-6.741v-2.635h6.384c.045-.045.045-.134.045-.268v-2.723c0-.134 0-.179-.045-.223h-6.428v-2.634h6.61Z" fill="#fff"/><path data-name="Trazado 14" d="M180.453 27.278v-11.3c0-.179 0-.179-.179-.179h-3.572c-.179 0-.179 0-.179.179v14.6c0 .223 0 .179.179.179h9.375c.179 0 .179 0 .179-.179v-3.3Z" fill="#fff"/><path data-name="Trazado 15" d="M203.221 23.304a7.857 7.857 0 1 0-7.857 7.857 7.784 7.784 0 0 0 7.857-7.857Zm-4.152 0c0 2.277-1.384 4.063-3.705 4.063-2.411 0-3.706-1.786-3.706-4.063s1.339-4.063 3.706-4.063c2.321 0 3.705 1.786 3.705 4.063Z" fill="#fff"/><path data-name="Trazado 16" d="M219.204 31.207v-15.4c-.045-.045-.089-.045-.179-.045h-3.393c-.179 0-.179 0-.179.268v6.652s-5.447-5.045-8.616-7.277c-.089-.045-.223-.089-.223.134v15.09a.239.239 0 0 0 .223.223h3.348c.179 0 .179 0 .179-.179v-6.877s5.223 4.822 8.572 7.322c.179.089.223.134.268.089Z" fill="#fff"/><path data-name="Trazado 17" d="M237.33 30.492c-2.455-4.911-5.447-11.072-7.59-15.224a1.084 1.084 0 0 0-.536 0c-2.009 3.75-5.223 10.313-7.545 15.224-.089.223-.045.313.089.313h3.661c.268 0 .313-.045.4-.223.223-.536.491-1.295.759-1.92h5.357c.223.536.536 1.384.8 1.964a.245.245 0 0 0 .268.179h4.152c.312 0 .312-.045.179-.313Zm-6.473-4.732h-3.08l1.518-3.393 1.563 3.393Z" fill="#fff"/><path data-name="Trazado 18" d="M242.951 27.635c0-.223-.045-.313-.312-.313h-2.634c-.223 0-.357.134-.357.446v2.589c0 .268.089.357.357.357h2.634c.313 0 .357-.134.357-.4-.045-.893-.045-1.518-.045-2.679Zm6.652-6.518a4.639 4.639 0 0 0-4.911 4.911 4.676 4.676 0 0 0 4.911 5.045 5.258 5.258 0 0 0 3.3-1.116c.134-.134.223-.268.089-.446a27.914 27.914 0 0 0-1.295-1.875c-.089-.134-.223-.179-.268-.089a2.389 2.389 0 0 1-1.786.938 1.723 1.723 0 0 1-1.92-1.652h5.581c.268 0 .357-.045.357-.223a4.2 4.2 0 0 0 .134-1.25 4.043 4.043 0 0 0-4.2-4.241Zm-1.83 4.107a1.589 1.589 0 0 1 1.563-1.607 1.546 1.546 0 0 1 1.607 1.607Zm6.878 3.704c.58 1.339 1.7 2.188 4.063 2.188 2.723 0 4.286-1.384 4.286-3.482 0-1.741-1.295-2.545-3.17-2.947-1.607-.313-2.054-.491-2.054-.893s.313-.67 1.027-.67a1.691 1.691 0 0 1 1.429.848c.089.134.089.134.223.045l2.054-.714c.134-.045.134-.134.089-.268-.357-1.25-1.607-2.009-3.661-2.009-2.589 0-4.2 1.116-4.2 3.08 0 1.875 1.25 2.5 2.991 2.947 1.429.357 1.83.625 1.83 1.116 0 .4-.357.759-1.205.759a1.668 1.668 0 0 1-1.518-1.027c0-.045-.089-.089-.179-.089l-2.054.8a.662.662 0 0 1 .045.313Z" fill="#fff"/></svg>