<svg xmlns="http://www.w3.org/2000/svg" width="30" height="30"><g transform="translate(-3.7 -5.2)" fill="#fff"><circle data-name="Elipse 697" cx="2.683" cy="2.683" r="2.683" transform="translate(15.895 17.639)"/><path data-name="Trazado 4895" d="M21.932 13.737h-6.707a3.332 3.332 0 0 0-2.378.854 3.332 3.332 0 0 0-.854 2.378v6.707a3.361 3.361 0 0 0 .915 2.439 3.437 3.437 0 0 0 2.378.854h6.646a3.332 3.332 0 0 0 2.378-.854 3.124 3.124 0 0 0 .915-2.378V17.03a3.437 3.437 0 0 0-.854-2.378 3.265 3.265 0 0 0-2.439-.915Zm-3.354 10.732a4.146 4.146 0 0 1 0-8.293 4.147 4.147 0 1 1 0 8.293Zm4.329-7.5a.976.976 0 1 1 .976-.976.963.963 0 0 1-.975.976Z"/><path data-name="Trazado 4896" d="M18.7 5.2a15 15 0 1 0 15 15 14.989 14.989 0 0 0-15-15Zm7.988 18.537a4.833 4.833 0 0 1-1.341 3.476 4.745 4.745 0 0 1-3.415 1.28h-6.647a4.745 4.745 0 0 1-3.415-1.28 4.594 4.594 0 0 1-1.341-3.476v-6.708a4.513 4.513 0 0 1 4.756-4.756h6.707a4.5 4.5 0 0 1 4.7 4.756Z"/></g></svg>