<svg xmlns="http://www.w3.org/2000/svg" viewBox="0 0 172 172"><defs><style>.cls-1,.cls-2{fill:none;}.cls-2{stroke:#ff293e;stroke-width:2px;}.cls-3{fill:#ff293e;}.cls-4{fill:#fff;}</style></defs><g id="Layer_2" data-name="Layer 2"><g id="Layer_1-2" data-name="Layer 1"><g id="Grupo_31" data-name="Grupo 31"><g id="Elipse_716" data-name="Elipse 716"><circle class="cls-1" cx="86" cy="86" r="84"/><circle class="cls-2" cx="86" cy="86" r="85"/></g><g id="feat-home-4"><circle id="Elipse_695-2" data-name="Elipse 695-2" class="cls-3" cx="86" cy="86" r="44"/><g id="Key_Icon_4" data-name="Key Icon 4"><path id="Trazado_117" data-name="Trazado 117" class="cls-4" d="M81.79,75.23A21,21,0,0,1,67.11,89.91a.15.15,0,0,0-.11.19.15.15,0,0,0,.11.11A21,21,0,0,1,81.79,104.9a.16.16,0,0,0,.3,0A21,21,0,0,1,96.76,90.21a.15.15,0,0,0,.12-.18.18.18,0,0,0-.12-.12A21,21,0,0,1,82.09,75.23a.15.15,0,0,0-.19-.12A.15.15,0,0,0,81.79,75.23Z"/><path id="Trazado_118" data-name="Trazado 118" class="cls-4" d="M97.24,67.05A10.78,10.78,0,0,1,89.7,74.6a.08.08,0,0,0-.06.1s0,0,.06,0a10.78,10.78,0,0,1,7.54,7.55.08.08,0,0,0,.1.06.09.09,0,0,0,.06-.06,10.78,10.78,0,0,1,7.54-7.55.08.08,0,0,0,.06-.09.09.09,0,0,0-.06-.06,10.78,10.78,0,0,1-7.54-7.55.09.09,0,0,0-.1-.06A.09.09,0,0,0,97.24,67.05Z"/></g></g><g id="Key_Icon_4-2" data-name="Key Icon 4-2"><path id="Trazado_117-2" data-name="Trazado 117-2" class="cls-4" d="M81.79,75.23A21,21,0,0,1,67.11,89.91a.15.15,0,0,0-.11.19.15.15,0,0,0,.11.11A21,21,0,0,1,81.79,104.9a.16.16,0,0,0,.3,0A21,21,0,0,1,96.76,90.21a.15.15,0,0,0,.12-.18.18.18,0,0,0-.12-.12A21,21,0,0,1,82.09,75.23a.15.15,0,0,0-.19-.12A.15.15,0,0,0,81.79,75.23Z"/><path id="Trazado_118-2" data-name="Trazado 118-2" class="cls-4" d="M97.24,67.05A10.78,10.78,0,0,1,89.7,74.6a.08.08,0,0,0-.06.1s0,0,.06,0a10.78,10.78,0,0,1,7.54,7.55.08.08,0,0,0,.1.06.09.09,0,0,0,.06-.06,10.78,10.78,0,0,1,7.54-7.55.08.08,0,0,0,.06-.09.09.09,0,0,0-.06-.06,10.78,10.78,0,0,1-7.54-7.55.09.09,0,0,0-.1-.06A.09.09,0,0,0,97.24,67.05Z"/></g></g></g></g></svg>