<svg xmlns="http://www.w3.org/2000/svg" xmlns:xlink="http://www.w3.org/1999/xlink" width="320" height="320" viewBox="0 0 320 320">
  <defs>
    <filter id="Elipse_695" x="0" y="0" width="320" height="320" filterUnits="userSpaceOnUse">
      <feOffset input="SourceAlpha"/>
      <feGaussianBlur stdDeviation="30" result="blur"/>
      <feFlood flood-color="#ff293e" flood-opacity="0.702"/>
      <feComposite operator="in" in2="blur"/>
      <feComposite in="SourceGraphic"/>
    </filter>
  </defs>
  <g id="icon-red-1" transform="translate(60.914 61.332)">
    <g id="feat-home-1">
      <g transform="matrix(1, 0, 0, 1, -60.91, -61.33)" filter="url(#Elipse_695)">
        <circle id="Elipse_695-2" data-name="Elipse 695" cx="70" cy="70" r="70" transform="translate(90 90)" fill="#ff293e" opacity="0.65"/>
      </g>
      <path id="Star" d="M167.09,85.141h0c0-1.064-2.129-1.6-2.129-1.6C127.712,72.37,96.316,42.571,86.738,7.45L85.141,1.6S84.609,0,83.545,0s-1.6,1.6-1.6,1.6l-1.6,5.853c-9.578,35.121-40.974,64.92-78.223,76.1,0,0-2.129.532-2.129,1.6s2.129,1.6,2.129,1.6c37.249,11.175,68.645,40.974,78.223,76.1l1.6,5.853s.532,1.6,1.6,1.6,1.6-1.6,1.6-1.6l1.6-5.853c9.578-35.121,40.974-64.92,78.223-76.1-.532.532,1.6,0,2.129-1.6" transform="translate(15.541 13.633)" fill="#ff293e"/>
      <path id="Trazado_5061" data-name="Trazado 5061" d="M40.5,18.293a4.222,4.222,0,0,0-4.222-4.222h-.7a.7.7,0,0,1-.7-.7V13A13.2,13.2,0,0,0,21.5,0,13.2,13.2,0,0,0,8.13,13v.366a.7.7,0,0,1-.7.7h-.7A4.222,4.222,0,0,0,2.5,18.293v5.63a4.222,4.222,0,0,0,4.222,4.222H9.537a2.815,2.815,0,0,0,2.815-2.815V13A8.979,8.979,0,0,1,21.5,4.219,8.979,8.979,0,0,1,30.648,13V29.553a3.547,3.547,0,0,1-2.2,3.265.7.7,0,0,1-.816-.225,4.193,4.193,0,0,0-3.321-1.633H20.093a4.222,4.222,0,0,0,0,8.444h4.222a4.25,4.25,0,0,0,3.519-1.886.7.7,0,0,1,.479-.31,7.769,7.769,0,0,0,6.559-7.656v-.7a.7.7,0,0,1,.7-.7h.7A4.222,4.222,0,0,0,40.5,23.923Z" transform="translate(77.688 79.074)" fill="#fff"/>
    </g>
  </g>
</svg>
