<svg xmlns="http://www.w3.org/2000/svg" width="60.047" height="60.047" viewBox="0 0 60.047 60.047">
  <g id="icon-slider-arrow-left" transform="translate(10 10)">
    <g id="prev-slider-arrow" transform="translate(0 0)">
      <g id="Trazado_5107" data-name="Trazado 5107" transform="translate(-8.756 -8.732)" fill="#13171d" stroke-linecap="round" stroke-linejoin="round">
        <path d="M 28.77940940856934 53.7796516418457 C 25.40345001220703 53.7796516418457 22.12582015991211 53.11734390258789 19.03756904602051 51.81112289428711 C 16.05717849731445 50.55052185058594 13.38156986236572 48.74692153930664 11.08506965637207 46.45041275024414 C 8.788558959960938 44.15391159057617 6.984959602355957 41.47830200195312 5.724359512329102 38.4979133605957 C 4.418139457702637 35.40966415405273 3.755829334259033 32.13203430175781 3.755829334259033 28.75607299804688 C 3.755829334259033 25.38011360168457 4.418139457702637 22.10248374938965 5.724359512329102 19.01423263549805 C 6.984959602355957 16.03384208679199 8.788558959960938 13.35823345184326 11.08506965637207 11.06173324584961 C 13.38156986236572 8.765222549438477 16.05717849731445 6.961623191833496 19.03756904602051 5.701023101806641 C 22.12582015991211 4.394803047180176 25.40345001220703 3.732492923736572 28.77940940856934 3.732492923736572 C 32.15536880493164 3.732492923736572 35.43299865722656 4.394803047180176 38.52124786376953 5.701023101806641 C 41.50164031982422 6.961623191833496 44.17724990844727 8.765222549438477 46.47375106811523 11.06173324584961 C 48.77025985717773 13.35823345184326 50.57386016845703 16.03384208679199 51.8344612121582 19.01423263549805 C 53.14067840576172 22.10248374938965 53.8029899597168 25.38011360168457 53.8029899597168 28.75607299804688 C 53.8029899597168 32.13203430175781 53.14067840576172 35.40966415405273 51.8344612121582 38.4979133605957 C 50.57386779785156 41.47830200195312 48.77025985717773 44.15391159057617 46.47375869750977 46.45041275024414 C 44.17724990844727 48.74692153930664 41.50164031982422 50.55052185058594 38.52125930786133 51.81112289428711 C 35.43299865722656 53.11734390258789 32.15536880493164 53.7796516418457 28.77940940856934 53.7796516418457 Z" stroke="none"/>
        <path d="M 28.77940940856934 48.77965927124023 C 39.83813095092773 48.77965927124023 48.80299377441406 39.81479644775391 48.80299377441406 28.75607299804688 C 48.80299377441406 17.69736480712891 39.83813095092773 8.732488632202148 28.77940940856934 8.732488632202148 C 17.72070121765137 8.732488632202148 8.755825042724609 17.69736480712891 8.755825042724609 28.75607299804688 C 8.755825042724609 39.81479644775391 17.72070121765137 48.77965927124023 28.77940940856934 48.77965927124023 M 28.77940940856934 58.77965927124023 C 12.2243480682373 58.77965927124023 -1.24417519569397 45.31113433837891 -1.24417519569397 28.75607299804688 C -1.24417519569397 12.20101165771484 12.2243480682373 -1.267511606216431 28.77940940856934 -1.267511606216431 C 45.33447265625 -1.267511606216431 58.80299377441406 12.20101165771484 58.80299377441406 28.75607299804688 C 58.80299377441406 45.31113433837891 45.33447265625 58.77965927124023 28.77940940856934 58.77965927124023 Z" stroke="none" fill="#13171d"/>
      </g>
      <g id="Trazado_5287" data-name="Trazado 5287" transform="translate(-8.756 -8.732)" fill="none" stroke-linecap="round" stroke-linejoin="round">
        <path d="M8.756,28.756A20.024,20.024,0,1,0,28.779,8.732,20.024,20.024,0,0,0,8.756,28.756Z" stroke="none"/>
        <path d="M 28.77940940856934 48.7796516418457 C 39.83813858032227 48.7796516418457 48.8029899597168 39.81479263305664 48.8029899597168 28.75607299804688 C 48.8029899597168 17.69735336303711 39.83813095092773 8.73249340057373 28.77940940856934 8.73249340057373 C 17.72068977355957 8.73249340057373 8.755829811096191 17.69735336303711 8.755829811096191 28.75607299804688 C 8.755829811096191 39.81479263305664 17.72068977355957 48.7796516418457 28.77940940856934 48.7796516418457 M 28.77940940856934 50.7796516418457 C 25.80712890625 50.7796516418457 22.92268943786621 50.19707489013672 20.20621871948242 49.04811477661133 C 17.58342933654785 47.93876266479492 15.22834968566895 46.35105133056641 13.20638942718506 44.32909393310547 C 11.18442916870117 42.30713272094727 9.596719741821289 39.95205307006836 8.487369537353516 37.32926177978516 C 7.338409423828125 34.61279296875 6.755829334259033 31.72835350036621 6.755829334259033 28.75607299804688 C 6.755829334259033 25.78379249572754 7.338409423828125 22.89935302734375 8.487369537353516 20.18288230895996 C 9.596719741821289 17.56009292602539 11.18442916870117 15.20501327514648 13.20638942718506 13.1830530166626 C 15.22834968566895 11.16109275817871 17.58342933654785 9.573383331298828 20.20621871948242 8.464033126831055 C 22.92268943786621 7.315073013305664 25.80712890625 6.732492923736572 28.77940940856934 6.732492923736572 C 31.75168991088867 6.732492923736572 34.63613128662109 7.315073013305664 37.35260009765625 8.464033126831055 C 39.97538757324219 9.573383331298828 42.33047103881836 11.16109275817871 44.3524284362793 13.1830530166626 C 46.3743896484375 15.20501327514648 47.96210098266602 17.56009292602539 49.07144927978516 20.18288230895996 C 50.22040939331055 22.89935302734375 50.8029899597168 25.78379249572754 50.8029899597168 28.75607299804688 C 50.8029899597168 31.72835350036621 50.22042083740234 34.61279296875 49.07144927978516 37.32926177978516 C 47.96210098266602 39.95205307006836 46.3744010925293 42.30713272094727 44.35243988037109 44.32909393310547 C 42.33047866821289 46.35105133056641 39.97538757324219 47.93876266479492 37.35260009765625 49.04811477661133 C 34.63613128662109 50.19707489013672 31.75169944763184 50.7796516418457 28.77940940856934 50.7796516418457 Z" stroke="none" fill="#ff293e"/>
      </g>
      <path id="Trazado_5105" data-name="Trazado 5105" d="M43.756,69.982H59.184" transform="translate(-31.447 -49.959)" fill="none" stroke="#ff293e" stroke-linecap="round" stroke-linejoin="round" stroke-width="2"/>
      <path id="Trazado_5106" data-name="Trazado 5106" d="M50.184,60.965l-6.429-6.429,6.429-6.429" transform="translate(-31.447 -34.512)" fill="none" stroke="#ff293e" stroke-linecap="round" stroke-linejoin="round" stroke-width="2"/>
    </g>
  </g>
</svg>
