<svg xmlns="http://www.w3.org/2000/svg" width="18.185" height="15.565" viewBox="0 0 18.185 15.565">
  <g id="icon-heart" transform="translate(-0.024 -10.118)">
    <path id="Trazado_99" data-name="Trazado 99" d="M17.991,13.881A5.194,5.194,0,0,0,14.3,10.207,5.414,5.414,0,0,0,9.33,11.881a.325.325,0,0,1-.441,0,5.414,5.414,0,0,0-4.973-1.675A5.194,5.194,0,0,0,.229,13.881a5.064,5.064,0,0,0,1.3,5.025l7.167,6.609a.662.662,0,0,0,.883,0l7.18-6.635A5.025,5.025,0,0,0,17.991,13.881Z" transform="translate(0 0)" fill="#3b424b"/>
  </g>
</svg>
