<svg xmlns="http://www.w3.org/2000/svg" width="20" height="24.5" viewBox="0 0 20 24.5">
  <g id="icon-poker-menu-1" transform="translate(-16.5 -3.375)" opacity="0.6">
    <rect id="Rectángulo_157" data-name="Rectángulo 157" width="18" height="22.5" rx="2" transform="translate(17.5 4.375)" fill="none" stroke="#fff" stroke-linecap="round" stroke-linejoin="round" stroke-width="2"/>
    <path id="Trazado_5200" data-name="Trazado 5200" d="M35,19.687a.375.375,0,0,1,.375.375" transform="translate(-13.5 -11.687)" fill="none" stroke="#fff" stroke-linecap="round" stroke-linejoin="round" stroke-width="2"/>
    <path id="Trazado_5201" data-name="Trazado 5201" d="M32.812,20.062a.375.375,0,0,1,.375-.375" transform="translate(-11.687 -11.687)" fill="none" stroke="#fff" stroke-linecap="round" stroke-linejoin="round" stroke-width="2"/>
    <path id="Trazado_5202" data-name="Trazado 5202" d="M33.187,22.25a.375.375,0,0,1-.375-.375" transform="translate(-11.687 -13.5)" fill="none" stroke="#fff" stroke-linecap="round" stroke-linejoin="round" stroke-width="2"/>
    <path id="Trazado_5203" data-name="Trazado 5203" d="M35.375,21.875A.375.375,0,0,1,35,22.25" transform="translate(-13.5 -13.5)" fill="none" stroke="#fff" stroke-linecap="round" stroke-linejoin="round" stroke-width="2"/>
    <path id="Trazado_5204" data-name="Trazado 5204" d="M105,115.937a.375.375,0,0,1,.375.375" transform="translate(-73.5 -93.438)" fill="none" stroke="#fff" stroke-linecap="round" stroke-linejoin="round" stroke-width="2"/>
    <path id="Trazado_5205" data-name="Trazado 5205" d="M102.812,116.312a.375.375,0,0,1,.375-.375" transform="translate(-71.688 -93.438)" fill="none" stroke="#fff" stroke-linecap="round" stroke-linejoin="round" stroke-width="2"/>
    <path id="Trazado_5206" data-name="Trazado 5206" d="M103.187,118.5a.375.375,0,0,1-.375-.375" transform="translate(-71.688 -95.25)" fill="none" stroke="#fff" stroke-linecap="round" stroke-linejoin="round" stroke-width="2"/>
    <path id="Trazado_5207" data-name="Trazado 5207" d="M105.375,118.125a.375.375,0,0,1-.375.375" transform="translate(-73.5 -95.25)" fill="none" stroke="#fff" stroke-linecap="round" stroke-linejoin="round" stroke-width="2"/>
    <path id="Trazado_5208" data-name="Trazado 5208" d="M56.25,48.459a.75.75,0,0,0-1.248,0l-2.376,3.334a.75.75,0,0,0,0,.832L55,55.959a.75.75,0,0,0,1.248,0l2.376-3.334a.75.75,0,0,0,0-.832Z" transform="translate(-29 -36.25)" fill="none" stroke="#fff" stroke-linecap="round" stroke-linejoin="round" stroke-width="2"/>
  </g>
</svg>
