<svg xmlns="http://www.w3.org/2000/svg" xmlns:xlink="http://www.w3.org/1999/xlink" width="268" height="268" viewBox="0 0 268 268">
  <defs>
    <filter id="Elipse_695" x="0" y="0" width="268" height="268" filterUnits="userSpaceOnUse">
      <feOffset input="SourceAlpha"/>
      <feGaussianBlur stdDeviation="30" result="blur"/>
      <feFlood flood-color="#ff293e" flood-opacity="0.702"/>
      <feComposite operator="in" in2="blur"/>
      <feComposite in="SourceGraphic"/>
    </filter>
  </defs>
  <g id="icon-red-1" transform="translate(34.914 35.332)">
    <g id="Elipse_716" data-name="Elipse 716" transform="translate(15.086 14.668)" fill="none" stroke="#ff293e" stroke-width="2">
      <circle cx="84" cy="84" r="84" stroke="none"/>
      <circle cx="84" cy="84" r="85" fill="none"/>
    </g>
    <g id="feat-home-1">
      <g transform="matrix(1, 0, 0, 1, -34.91, -35.33)" filter="url(#Elipse_695)">
        <circle id="Elipse_695-2" data-name="Elipse 695" cx="44" cy="44" r="44" transform="translate(90 90)" fill="#ff293e"/>
      </g>
      <path id="Trazado_5061" data-name="Trazado 5061" d="M40.5,18.293a4.222,4.222,0,0,0-4.222-4.222h-.7a.7.7,0,0,1-.7-.7V13A13.2,13.2,0,0,0,21.5,0,13.2,13.2,0,0,0,8.13,13v.366a.7.7,0,0,1-.7.7h-.7A4.222,4.222,0,0,0,2.5,18.293v5.63a4.222,4.222,0,0,0,4.222,4.222H9.537a2.815,2.815,0,0,0,2.815-2.815V13A8.979,8.979,0,0,1,21.5,4.219,8.979,8.979,0,0,1,30.648,13V29.553a3.547,3.547,0,0,1-2.2,3.265.7.7,0,0,1-.816-.225,4.193,4.193,0,0,0-3.321-1.633H20.093a4.222,4.222,0,0,0,0,8.444h4.222a4.25,4.25,0,0,0,3.519-1.886.7.7,0,0,1,.479-.31,7.769,7.769,0,0,0,6.559-7.656v-.7a.7.7,0,0,1,.7-.7h.7A4.222,4.222,0,0,0,40.5,23.923Z" transform="translate(77.688 79.074)" fill="#fff"/>
    </g>
  </g>
</svg>
