<svg xmlns="http://www.w3.org/2000/svg" xmlns:xlink="http://www.w3.org/1999/xlink" width="320" height="320" viewBox="0 0 320 320">
  <defs>
    <filter id="Elipse_695" x="0" y="0" width="320" height="320" filterUnits="userSpaceOnUse">
      <feOffset input="SourceAlpha"/>
      <feGaussianBlur stdDeviation="30" result="blur"/>
      <feFlood flood-color="#ff293e" flood-opacity="0.702"/>
      <feComposite operator="in" in2="blur"/>
      <feComposite in="SourceGraphic"/>
    </filter>
  </defs>
  <g id="icon-red-3" transform="translate(60.914 61.332)">
    <g id="feat-home-3">
      <g transform="matrix(1, 0, 0, 1, -60.91, -61.33)" filter="url(#Elipse_695)">
        <circle id="Elipse_695-2" data-name="Elipse 695" cx="70" cy="70" r="70" transform="translate(90 90)" fill="#ff293e" opacity="0.65"/>
      </g>
      <path id="Star" d="M167.09,85.141h0c0-1.064-2.129-1.6-2.129-1.6C127.712,72.37,96.316,42.571,86.738,7.45L85.141,1.6S84.609,0,83.545,0s-1.6,1.6-1.6,1.6l-1.6,5.853c-9.578,35.121-40.974,64.92-78.223,76.1,0,0-2.129.532-2.129,1.6s2.129,1.6,2.129,1.6c37.249,11.175,68.645,40.974,78.223,76.1l1.6,5.853s.532,1.6,1.6,1.6,1.6-1.6,1.6-1.6l1.6-5.853c9.578-35.121,40.974-64.92,78.223-76.1-.532.532,1.6,0,2.129-1.6" transform="translate(15.541 13.633)" fill="#ff293e"/>
      <g id="Grupo_728" data-name="Grupo 728" transform="translate(80.086 80.03)">
        <path id="Trazado_110" data-name="Trazado 110" d="M7.812,87.681a.445.445,0,0,0-.363-.181.412.412,0,0,0-.347.214l-3.96,6.832a1.65,1.65,0,0,0,1.65,2.442l3.944-.66,1.37,3.779a1.65,1.65,0,0,0,2.97.264l3.3-5.512a.362.362,0,0,0,0-.347.412.412,0,0,0-.248-.247A16.867,16.867,0,0,1,7.812,87.681Z" transform="translate(-2.932 -63.919)" fill="#fff"/>
        <path id="Trazado_111" data-name="Trazado 111" d="M102.707,94.462,98.8,87.581a.411.411,0,0,0-.693-.016,17,17,0,0,1-8.366,6.6.463.463,0,0,0-.248.248.364.364,0,0,0,0,.347l3.3,5.545a1.65,1.65,0,0,0,2.97-.28l1.369-3.779,3.944.66a1.582,1.582,0,0,0,1.634-2.443Z" transform="translate(-64.971 -63.835)" fill="#fff"/>
        <path id="Trazado_112" data-name="Trazado 112" d="M47.72,18.581A14.439,14.439,0,1,0,33.281,33.02h.033A14.439,14.439,0,0,0,47.72,18.581Zm-8.664,5.644a.974.974,0,0,1-1.4,1.221L33.5,23.1a.463.463,0,0,0-.413,0l-4.158,2.343a.974.974,0,0,1-1.4-1.221l1.65-3.894a.413.413,0,0,0-.1-.462l-3-3a.924.924,0,0,1,.644-1.65h3.5a.413.413,0,0,0,.38-.231l1.815-3.762a1.006,1.006,0,0,1,1.766,0l1.815,3.746a.4.4,0,0,0,.363.231h3.564a.924.924,0,0,1,.66,1.65l-3.136,3.02a.43.43,0,0,0-.082.462Z" transform="translate(-14.341 -4.142)" fill="#fff"/>
      </g>
    </g>
  </g>
</svg>
