<svg xmlns="http://www.w3.org/2000/svg" width="30" height="30" viewBox="0 0 30 30">
  <g id="icon-user-white-red" transform="translate(5.567 5.566)">
    <circle id="Elipse_754" data-name="Elipse 754" cx="15" cy="15" r="15" transform="translate(-5.567 -5.566)" fill="#13171d" opacity="0.2"/>
    <path id="Trazado_5390" data-name="Trazado 5390" d="M10.444,0A10.444,10.444,0,1,0,20.888,10.444,10.444,10.444,0,0,0,10.444,0m0,4.476A2.984,2.984,0,1,1,7.46,7.46a2.984,2.984,0,0,1,2.984-2.984m4.685,11.667a7.117,7.117,0,0,1-9.37,0,.373.373,0,0,1,0-.522,6.177,6.177,0,0,1,9.444,0,.373.373,0,0,1-.075.522" transform="translate(-1.142 -1.141)" fill="#fff"/>
  </g>
</svg>
