<svg xmlns="http://www.w3.org/2000/svg" width="18" height="18" viewBox="0 0 18 18">
  <path id="icon-cross-red" d="M9,18A9,9,0,1,0,0,9,9,9,0,0,0,9,18ZM5.287,6.345A.75.75,0,0,1,6.345,5.287l2.52,2.52a.187.187,0,0,0,.265,0l0,0,2.52-2.52a.761.761,0,1,1,1.1,1.058l-2.52,2.52a.187.187,0,0,0,0,.265l0,0,2.52,2.52a.75.75,0,0,1,.035,1.06l-.035.035a.752.752,0,0,1-1.057,0l-2.52-2.52a.187.187,0,0,0-.265,0l0,0L6.345,12.75a.748.748,0,1,1-1.058-1.057l2.52-2.52a.187.187,0,0,0,0-.265l0,0Z" fill="#ff293e"/>
</svg>
