<svg xmlns="http://www.w3.org/2000/svg" xmlns:xlink="http://www.w3.org/1999/xlink" width="268" height="268" viewBox="0 0 268 268">
  <defs>
    <filter id="Elipse_695" x="0" y="0" width="268" height="268" filterUnits="userSpaceOnUse">
      <feOffset input="SourceAlpha"/>
      <feGaussianBlur stdDeviation="30" result="blur"/>
      <feFlood flood-color="#ff293e" flood-opacity="0.702"/>
      <feComposite operator="in" in2="blur"/>
      <feComposite in="SourceGraphic"/>
    </filter>
  </defs>
  <g id="icon-red-2" transform="translate(34.914 35.332)">
    <g id="Elipse_716" data-name="Elipse 716" transform="translate(15.086 14.668)" fill="none" stroke="#ff293e" stroke-width="2">
      <circle cx="84" cy="84" r="84" stroke="none"/>
      <circle cx="84" cy="84" r="85" fill="none"/>
    </g>
    <g id="feat-home-2">
      <g transform="matrix(1, 0, 0, 1, -34.91, -35.33)" filter="url(#Elipse_695)">
        <circle id="Elipse_695-2" data-name="Elipse 695" cx="44" cy="44" r="44" transform="translate(90 90)" fill="#ff293e"/>
      </g>
      <g id="Grupo_727" data-name="Grupo 727" transform="translate(80.086 79.673)">
        <path id="Trazado_113" data-name="Trazado 113" d="M106.188,4.75h.4a.792.792,0,0,1,.792.792v.4a1.188,1.188,0,0,0,2.375,0v-.4a.792.792,0,0,1,.792-.792h.4a1.187,1.187,0,1,0,0-2.375h-.4a.792.792,0,0,1-.792-.792v-.4a1.188,1.188,0,0,0-2.375,0v.4a.792.792,0,0,1-.792.792h-.4a1.187,1.187,0,1,0,0,2.375Z" transform="translate(-76.508)" fill="#fff"/>
        <path id="Trazado_114" data-name="Trazado 114" d="M14.937,97.292H12.958a.792.792,0,0,1-.791-.792V94.521a1.187,1.187,0,1,0-2.375,0V96.5A.792.792,0,0,1,9,97.292H7.02a1.188,1.188,0,0,0,0,2.375H9a.792.792,0,0,1,.792.791v1.979a1.187,1.187,0,1,0,2.375,0v-1.979a.792.792,0,0,1,.791-.791h1.979a1.188,1.188,0,0,0,0-2.375Z" transform="translate(-4.258 -68)" fill="#fff"/>
        <path id="Trazado_115" data-name="Trazado 115" d="M24.041,10.443a6.46,6.46,0,0,0-10.4,0l-.95,1.362a.792.792,0,0,1-1.093.242l-.031-.021-1.409-.966A6.46,6.46,0,0,0,.307,14.37,6.333,6.333,0,0,0,2.7,21.383l11.368,8.376A1.363,1.363,0,0,0,15.111,30a1.314,1.314,0,0,0,.9-.554l8.043-11.606A6.333,6.333,0,0,0,24.041,10.443Z" transform="translate(-0.031 -5.693)" fill="#fff"/>
        <path id="Trazado_116" data-name="Trazado 116" d="M89.947,87l-.839.3a.792.792,0,0,1-.982-.428l-.38-.855A4.338,4.338,0,0,0,80.953,84.3a4.259,4.259,0,0,0-1.2,4.892l3.451,8.9a.887.887,0,0,0,.491.522.963.963,0,0,0,.728,0l8.8-3.657a4.212,4.212,0,0,0,2.644-4.18A4.354,4.354,0,0,0,89.947,87Z" transform="translate(-57.877 -60.69)" fill="#fff"/>
      </g>
    </g>
  </g>
</svg>
