<svg xmlns="http://www.w3.org/2000/svg" width="22" height="22" viewBox="0 0 22 22">
  <path id="icon-twitter-white" d="M18.174,7.174a11,11,0,1,0,11,11A11.013,11.013,0,0,0,18.174,7.174Zm4.907,8.482c0,.109.008.219.008.329A7.2,7.2,0,0,1,12,22.051,5.112,5.112,0,0,0,15.752,21a2.534,2.534,0,0,1-2.365-1.759,2.479,2.479,0,0,0,.476.046,2.548,2.548,0,0,0,.667-.089A2.533,2.533,0,0,1,12.5,16.719c0-.011,0-.022,0-.032A2.522,2.522,0,0,0,13.646,17a2.536,2.536,0,0,1-.783-3.38,7.189,7.189,0,0,0,5.218,2.646,2.534,2.534,0,0,1,4.314-2.31A5.046,5.046,0,0,0,24,13.345a2.542,2.542,0,0,1-1.114,1.4,5.041,5.041,0,0,0,1.454-.4A5.118,5.118,0,0,1,23.081,15.656Z" transform="translate(-7.174 -7.174)" fill="#fff"/>
</svg>
