<svg xmlns="http://www.w3.org/2000/svg" viewBox="0 0 167.1 170.31"><defs><style>.cls-1,.cls-2{fill:#ff293e;}.cls-1{isolation:isolate;opacity:0.65;}.cls-3{fill:#fff;}</style></defs><g id="Layer_2" data-name="Layer 2"><g id="Layer_1-2" data-name="Layer 1"><g id="icon-red-4"><g id="feat-home-4"><circle id="Elipse_695-2" data-name="Elipse 695-2" class="cls-1" cx="83.56" cy="85.04" r="70"/><path id="Star" class="cls-2" d="M167.1,85.14h0c0-1.06-2.13-1.6-2.13-1.6-37.25-11.17-68.65-41-78.23-76.09L85.15,1.6S84.62,0,83.55,0,82,1.6,82,1.6l-1.6,5.85c-9.58,35.12-41,64.92-78.22,76.1,0,0-2.13.53-2.13,1.6s2.13,1.6,2.13,1.6c37.25,11.18,68.64,41,78.22,76.1l1.6,5.86s.53,1.6,1.6,1.6,1.6-1.6,1.6-1.6l1.6-5.86c9.58-35.12,41-64.92,78.22-76.1-.53.53,1.6,0,2.13-1.6"/><g id="Key_Icon_4" data-name="Key Icon 4"><path id="Trazado_117" data-name="Trazado 117" class="cls-3" d="M79.34,74.26A21,21,0,0,1,64.67,89a.15.15,0,0,0-.12.18.16.16,0,0,0,.12.12,21,21,0,0,1,14.67,14.68.15.15,0,0,0,.18.12.16.16,0,0,0,.12-.12A21,21,0,0,1,94.32,89.25a.16.16,0,0,0,.11-.19.14.14,0,0,0-.11-.11A21,21,0,0,1,79.64,74.26a.15.15,0,0,0-.18-.11A.14.14,0,0,0,79.34,74.26Z"/><path id="Trazado_118" data-name="Trazado 118" class="cls-3" d="M94.8,66.08a10.77,10.77,0,0,1-7.55,7.55.1.1,0,0,0-.06.1.09.09,0,0,0,.06.06,10.81,10.81,0,0,1,7.55,7.55.07.07,0,0,0,.09,0,.06.06,0,0,0,.06,0,10.78,10.78,0,0,1,7.54-7.55.08.08,0,0,0,.06-.1.09.09,0,0,0-.06-.06A10.74,10.74,0,0,1,95,66.08a.08.08,0,0,0-.1,0S94.8,66.06,94.8,66.08Z"/></g></g><g id="Key_Icon_4-2" data-name="Key Icon 4-2"><path id="Trazado_117-2" data-name="Trazado 117-2" class="cls-3" d="M79.34,74.26A21,21,0,0,1,64.67,89a.15.15,0,0,0-.12.18.16.16,0,0,0,.12.12,21,21,0,0,1,14.67,14.68.15.15,0,0,0,.18.12.16.16,0,0,0,.12-.12A21,21,0,0,1,94.32,89.25a.16.16,0,0,0,.11-.19.14.14,0,0,0-.11-.11A21,21,0,0,1,79.64,74.26a.15.15,0,0,0-.18-.11A.14.14,0,0,0,79.34,74.26Z"/><path id="Trazado_118-2" data-name="Trazado 118-2" class="cls-3" d="M94.8,66.08a10.77,10.77,0,0,1-7.55,7.55.1.1,0,0,0-.06.1.09.09,0,0,0,.06.06,10.81,10.81,0,0,1,7.55,7.55.07.07,0,0,0,.09,0,.06.06,0,0,0,.06,0,10.78,10.78,0,0,1,7.54-7.55.08.08,0,0,0,.06-.1.09.09,0,0,0-.06-.06A10.74,10.74,0,0,1,95,66.08a.08.08,0,0,0-.1,0S94.8,66.06,94.8,66.08Z"/></g></g></g></g></svg>