<svg xmlns="http://www.w3.org/2000/svg" xmlns:xlink="http://www.w3.org/1999/xlink" width="320" height="320" viewBox="0 0 320 320">
  <defs>
    <filter id="Elipse_695" x="0" y="0" width="320" height="320" filterUnits="userSpaceOnUse">
      <feOffset input="SourceAlpha"/>
      <feGaussianBlur stdDeviation="30" result="blur"/>
      <feFlood flood-color="#ff293e" flood-opacity="0.702"/>
      <feComposite operator="in" in2="blur"/>
      <feComposite in="SourceGraphic"/>
    </filter>
  </defs>
  <g id="icon-red-4" transform="translate(60.914 61.332)">
    <g id="feat-home-4">
      <g transform="matrix(1, 0, 0, 1, -60.91, -61.33)" filter="url(#Elipse_695)">
        <circle id="Elipse_695-2" data-name="Elipse 695" cx="70" cy="70" r="70" transform="translate(90 90)" fill="#ff293e" opacity="0.65"/>
      </g>
      <path id="Star" d="M167.09,85.141h0c0-1.064-2.129-1.6-2.129-1.6C127.712,72.37,96.316,42.571,86.738,7.45L85.141,1.6S84.609,0,83.545,0s-1.6,1.6-1.6,1.6l-1.6,5.853c-9.578,35.121-40.974,64.92-78.223,76.1,0,0-2.129.532-2.129,1.6s2.129,1.6,2.129,1.6c37.249,11.175,68.645,40.974,78.223,76.1l1.6,5.853s.532,1.6,1.6,1.6,1.6-1.6,1.6-1.6l1.6-5.853c9.578-35.121,40.974-64.92,78.223-76.1-.532.532,1.6,0,2.129-1.6" transform="translate(15.541 13.633)" fill="#ff293e"/>
      <g id="Key_Icon_4" data-name="Key Icon 4" transform="translate(-1035.76 327.878)">
        <path id="Trazado_117" data-name="Trazado 117" d="M1130.634,15.266a20.971,20.971,0,0,1-14.674,14.686.154.154,0,0,0,0,.3,20.971,20.971,0,0,1,14.674,14.686.154.154,0,0,0,.3,0,20.972,20.972,0,0,1,14.675-14.686.154.154,0,0,0,0-.3,20.972,20.972,0,0,1-14.675-14.686A.154.154,0,0,0,1130.634,15.266Z" transform="translate(0 -255.25)" fill="#fff"/>
        <path id="Trazado_118" data-name="Trazado 118" d="M1857.771-248.16a10.785,10.785,0,0,1-7.545,7.55.079.079,0,0,0,0,.153,10.784,10.784,0,0,1,7.545,7.55.079.079,0,0,0,.153,0,10.782,10.782,0,0,1,7.544-7.55.079.079,0,0,0,0-.153,10.782,10.782,0,0,1-7.544-7.55A.079.079,0,0,0,1857.771-248.16Z" transform="translate(-711.681 0)" fill="#fff"/>
      </g>
    </g>
    <g id="Key_Icon_4-2" data-name="Key Icon 4" transform="translate(-1035.76 327.878)">
      <path id="Trazado_117-2" data-name="Trazado 117" d="M1130.634,15.266a20.971,20.971,0,0,1-14.674,14.686.154.154,0,0,0,0,.3,20.971,20.971,0,0,1,14.674,14.686.154.154,0,0,0,.3,0,20.972,20.972,0,0,1,14.675-14.686.154.154,0,0,0,0-.3,20.972,20.972,0,0,1-14.675-14.686A.154.154,0,0,0,1130.634,15.266Z" transform="translate(0 -255.25)" fill="#fff"/>
      <path id="Trazado_118-2" data-name="Trazado 118" d="M1857.771-248.16a10.785,10.785,0,0,1-7.545,7.55.079.079,0,0,0,0,.153,10.784,10.784,0,0,1,7.545,7.55.079.079,0,0,0,.153,0,10.782,10.782,0,0,1,7.544-7.55.079.079,0,0,0,0-.153,10.782,10.782,0,0,1-7.544-7.55A.079.079,0,0,0,1857.771-248.16Z" transform="translate(-711.681 0)" fill="#fff"/>
    </g>
  </g>
</svg>
