<svg xmlns="http://www.w3.org/2000/svg" xmlns:xlink="http://www.w3.org/1999/xlink" width="268" height="268" viewBox="0 0 268 268">
  <defs>
    <filter id="Elipse_695" x="0" y="0" width="268" height="268" filterUnits="userSpaceOnUse">
      <feOffset input="SourceAlpha"/>
      <feGaussianBlur stdDeviation="30" result="blur"/>
      <feFlood flood-color="#ff293e" flood-opacity="0.702"/>
      <feComposite operator="in" in2="blur"/>
      <feComposite in="SourceGraphic"/>
    </filter>
  </defs>
  <g id="icon-red-4" transform="translate(34.914 35.332)">
    <g id="Elipse_716" data-name="Elipse 716" transform="translate(15.086 14.668)" fill="none" stroke="#ff293e" stroke-width="2">
      <circle cx="84" cy="84" r="84" stroke="none"/>
      <circle cx="84" cy="84" r="85" fill="none"/>
    </g>
    <g id="feat-home-4">
      <g transform="matrix(1, 0, 0, 1, -34.91, -35.33)" filter="url(#Elipse_695)">
        <circle id="Elipse_695-2" data-name="Elipse 695" cx="44" cy="44" r="44" transform="translate(90 90)" fill="#ff293e"/>
      </g>
      <g id="Key_Icon_4" data-name="Key Icon 4" transform="translate(-1035.76 327.878)">
        <path id="Trazado_117" data-name="Trazado 117" d="M1130.634,15.266a20.971,20.971,0,0,1-14.674,14.686.154.154,0,0,0,0,.3,20.971,20.971,0,0,1,14.674,14.686.154.154,0,0,0,.3,0,20.972,20.972,0,0,1,14.675-14.686.154.154,0,0,0,0-.3,20.972,20.972,0,0,1-14.675-14.686A.154.154,0,0,0,1130.634,15.266Z" transform="translate(0 -255.25)" fill="#fff"/>
        <path id="Trazado_118" data-name="Trazado 118" d="M1857.771-248.16a10.785,10.785,0,0,1-7.545,7.55.079.079,0,0,0,0,.153,10.784,10.784,0,0,1,7.545,7.55.079.079,0,0,0,.153,0,10.782,10.782,0,0,1,7.544-7.55.079.079,0,0,0,0-.153,10.782,10.782,0,0,1-7.544-7.55A.079.079,0,0,0,1857.771-248.16Z" transform="translate(-711.681 0)" fill="#fff"/>
      </g>
    </g>
    <g id="Key_Icon_4-2" data-name="Key Icon 4" transform="translate(-1035.76 327.878)">
      <path id="Trazado_117-2" data-name="Trazado 117" d="M1130.634,15.266a20.971,20.971,0,0,1-14.674,14.686.154.154,0,0,0,0,.3,20.971,20.971,0,0,1,14.674,14.686.154.154,0,0,0,.3,0,20.972,20.972,0,0,1,14.675-14.686.154.154,0,0,0,0-.3,20.972,20.972,0,0,1-14.675-14.686A.154.154,0,0,0,1130.634,15.266Z" transform="translate(0 -255.25)" fill="#fff"/>
      <path id="Trazado_118-2" data-name="Trazado 118" d="M1857.771-248.16a10.785,10.785,0,0,1-7.545,7.55.079.079,0,0,0,0,.153,10.784,10.784,0,0,1,7.545,7.55.079.079,0,0,0,.153,0,10.782,10.782,0,0,1,7.544-7.55.079.079,0,0,0,0-.153,10.782,10.782,0,0,1-7.544-7.55A.079.079,0,0,0,1857.771-248.16Z" transform="translate(-711.681 0)" fill="#fff"/>
    </g>
  </g>
</svg>
