<svg id="icon-coins-header" xmlns="http://www.w3.org/2000/svg" width="14" height="14" viewBox="0 0 14 14">
  <path id="Trazado_4897" data-name="Trazado 4897" d="M4.492,52.617c0-.058-.117-.117-.175-.117h0a4.375,4.375,0,1,0,.117,8.75A4.307,4.307,0,0,0,8.75,56.933a.125.125,0,0,0-.117-.117A5.373,5.373,0,0,1,4.492,52.617Z" transform="translate(0 -47.25)" fill="#fff"/>
  <path id="Trazado_4898" data-name="Trazado 4898" d="M56.875,0A4.407,4.407,0,0,0,52.5,4.375a4.375,4.375,0,1,0,8.75,0A4.407,4.407,0,0,0,56.875,0Z" transform="translate(-47.25)" fill="#fff"/>
</svg>
