<svg xmlns="http://www.w3.org/2000/svg" viewBox="0 0 172 172"><defs><style>.cls-1,.cls-2{fill:none;}.cls-2{stroke:#ff293e;stroke-width:2px;}.cls-3{fill:#ff293e;}.cls-4{fill:#fff;}</style></defs><g id="Layer_2" data-name="Layer 2"><g id="Layer_1-2" data-name="Layer 1"><g id="icon-red-1"><g id="Elipse_716" data-name="Elipse 716"><circle class="cls-1" cx="86" cy="86" r="84"/><circle class="cls-2" cx="86" cy="86" r="85"/></g><g id="feat-home-1"><circle id="Elipse_695-2" data-name="Elipse 695-2" class="cls-3" cx="86" cy="86" r="44"/><path id="Trazado_5061" data-name="Trazado 5061" class="cls-4" d="M105.1,84.7a4.22,4.22,0,0,0-4.22-4.22h-.7a.7.7,0,0,1-.7-.7h0v-.37a13.38,13.38,0,0,0-26.75,0v.36a.7.7,0,0,1-.7.7h-.7a4.23,4.23,0,0,0-4.23,4.22h0v5.63a4.22,4.22,0,0,0,4.22,4.22h2.82A2.81,2.81,0,0,0,77,91.74V79.41a9.16,9.16,0,0,1,18.3,0V96a3.54,3.54,0,0,1-2.2,3.26.7.7,0,0,1-.82-.22,4.18,4.18,0,0,0-3.32-1.63H84.7a4.22,4.22,0,1,0,0,8.44h4.22a4.24,4.24,0,0,0,3.52-1.89.7.7,0,0,1,.48-.31A7.75,7.75,0,0,0,99.47,96v-.7a.7.7,0,0,1,.7-.7h.7a4.22,4.22,0,0,0,4.23-4.22h0Z"/></g></g></g></g></svg>