<svg xmlns="http://www.w3.org/2000/svg" width="158.407" height="30.908" viewBox="0 0 158.407 30.908">
  <g id="logo-confianza" transform="translate(-0.573 -0.604)">
    <path id="Trazado_4216" data-name="Trazado 4216" d="M19.213,34.708h-.382A15.057,15.057,0,0,1,8.152,30.156,14.866,14.866,0,0,1,3.6,19.222,14.917,14.917,0,0,1,8.152,8.288,15.222,15.222,0,0,1,18.831,3.8h.032a1.281,1.281,0,0,1,1.273,1.241,1.254,1.254,0,0,1-1.241,1.289A12.539,12.539,0,0,0,9.95,10.118a12.271,12.271,0,0,0-3.8,9.12,12.247,12.247,0,0,0,3.8,9.12,12.518,12.518,0,0,0,8.929,3.8h.334a12.422,12.422,0,0,0,9.2-3.8,12.242,12.242,0,0,0,3.836-9.12v-.159a1.273,1.273,0,1,1,2.546,0v.159a14.834,14.834,0,0,1-4.584,10.934A15.107,15.107,0,0,1,19.213,34.708Z" transform="translate(-3.027 -3.195)" fill="#fff"/>
    <path id="Trazado_4217" data-name="Trazado 4217" d="M42.332,53.082h-.064A11.167,11.167,0,0,1,31.7,41.941,11.139,11.139,0,0,1,42.252,30.816c.191-.016.4-.016.589-.016A11.142,11.142,0,0,1,53.966,41.766a1.277,1.277,0,0,1-1.257,1.289h-.016A1.274,1.274,0,0,1,51.419,41.8a8.615,8.615,0,0,0-8.594-8.467,4.17,4.17,0,0,0-.446.016h-.032a8.61,8.61,0,0,0-8.117,8.594,8.636,8.636,0,0,0,8.149,8.61,1.266,1.266,0,0,1-.048,2.531Z" transform="translate(-26.655 -25.898)" fill="#fff"/>
    <path id="Trazado_4218" data-name="Trazado 4218" d="M66.285,72.269a6.685,6.685,0,1,1,6.7-6.685,6.711,6.711,0,0,1-6.7,6.685Zm0-10.838a4.13,4.13,0,0,0-4.154,4.138,4.157,4.157,0,0,0,4.154,4.154A3.907,3.907,0,0,0,69.213,68.5a4.131,4.131,0,0,0,0-5.873A4,4,0,0,0,66.285,61.431Z" transform="translate(-50.114 -49.526)" fill="#fff"/>
    <path id="Trazado_4219" data-name="Trazado 4219" d="M248.89,83.219a3.866,3.866,0,1,1,0-7.719,4.649,4.649,0,0,1,2.34.653l-.525,1.464a3.805,3.805,0,0,0-1.783-.493,2.244,2.244,0,1,0,0,4.488,3.671,3.671,0,0,0,1.862-.557l.525,1.464A4.624,4.624,0,0,1,248.89,83.219Z" transform="translate(-205.839 -63.484)" fill="#fff"/>
    <path id="Trazado_4220" data-name="Trazado 4220" d="M298.788,83.219A3.651,3.651,0,0,1,295,79.367a3.719,3.719,0,0,1,3.867-3.867,3.655,3.655,0,0,1,3.788,3.867A3.724,3.724,0,0,1,298.788,83.219Zm.032-6.175a2.336,2.336,0,1,0,1.974,2.308A2.069,2.069,0,0,0,298.82,77.044Z" transform="translate(-248.049 -63.484)" fill="#fff"/>
    <path id="Trazado_4221" data-name="Trazado 4221" d="M363.639,83.067l-4.5-4.043v3.9H357.4V75.348l.239-.048,4.44,4.011V75.459h1.735v7.576Z" transform="translate(-300.518 -63.316)" fill="#fff"/>
    <path id="Trazado_4222" data-name="Trazado 4222" d="M415.435,77.892v1.655H418v1.512h-2.562v2.706H413.7V76.3h4.727v1.592Z" transform="translate(-347.858 -64.156)" fill="#fff"/>
    <path id="Trazado_4223" data-name="Trazado 4223" d="M456.4,83.764V76.3h1.735v7.464Z" transform="translate(-383.762 -64.156)" fill="#fff"/>
    <path id="Trazado_4224" data-name="Trazado 4224" d="M483.359,83.428l-.557-1.353h-2.578l-.557,1.353H477.9l3.517-7.528h.239l3.517,7.528Zm-1.846-4.472-.748,1.8h1.48Z" transform="translate(-401.84 -63.82)" fill="#fff"/>
    <path id="Trazado_4225" data-name="Trazado 4225" d="M539.939,83.067l-4.5-4.043v3.9H533.7V75.348l.239-.048,4.44,4.011V75.459h1.735v7.576Z" transform="translate(-448.759 -63.316)" fill="#fff"/>
    <path id="Trazado_4226" data-name="Trazado 4226" d="M589.1,82.1h3.581V83.68h-6.334l-.048-.191,3.692-5.7h-3.438V76.2h6.191l.048.191Z" transform="translate(-492.987 -64.072)" fill="#fff"/>
    <path id="Trazado_4227" data-name="Trazado 4227" d="M638.959,83.428l-.557-1.353h-2.578l-.557,1.353H633.5l3.517-7.528h.239l3.517,7.528Zm-1.846-4.472-.748,1.8h1.48Z" transform="translate(-532.675 -63.82)" fill="#fff"/>
    <path id="Trazado_4228" data-name="Trazado 4228" d="M703.639,78.063a4.027,4.027,0,0,1-.3,1.576,4.075,4.075,0,0,1-.812,1.257,3.586,3.586,0,0,1-1.226.812,3.985,3.985,0,0,1-1.5.3,3.571,3.571,0,0,1-1.48-.3,4.246,4.246,0,0,1-1.21-.812,4.075,4.075,0,0,1-.812-1.257,4.256,4.256,0,0,1,0-3.151,3.9,3.9,0,0,1,.812-1.257,3.958,3.958,0,0,1,1.225-.828,3.7,3.7,0,0,1,1.5-.3,3.571,3.571,0,0,1,1.48.3,3.8,3.8,0,0,1,1.21.828,4.075,4.075,0,0,1,.812,1.257A4.027,4.027,0,0,1,703.639,78.063Zm-.875,1.353a3.952,3.952,0,0,0,0-2.706,3.588,3.588,0,0,0-.653-1.1,3.037,3.037,0,0,0-1-.716,3.131,3.131,0,0,0-2.546,0,2.882,2.882,0,0,0-1,.716,3.409,3.409,0,0,0-.653,1.1,3.953,3.953,0,0,0,0,2.706,3.33,3.33,0,0,0,.653,1.082,2.882,2.882,0,0,0,1,.716,3.131,3.131,0,0,0,2.546,0,2.882,2.882,0,0,0,1-.716A3.33,3.33,0,0,0,702.764,79.416Z" transform="translate(-585.228 -62.307)" fill="#fff"/>
    <path id="Trazado_4229" data-name="Trazado 4229" d="M773.909,82.01l-.111.032L768.673,75.5v6.414H768.1V74.132l.143-.032,5.077,6.462v-6.35h.589v7.8Z" transform="translate(-645.853 -62.307)" fill="#fff"/>
    <path id="Trazado_4230" data-name="Trazado 4230" d="M834.945,82.5H830.6V74.8h.589v7.162h3.756Z" transform="translate(-698.406 -62.895)" fill="#fff"/>
    <path id="Trazado_4231" data-name="Trazado 4231" d="M879.789,82.5H879.2V74.8h.589Z" transform="translate(-739.271 -62.895)" fill="#fff"/>
    <path id="Trazado_4232" data-name="Trazado 4232" d="M914.909,82.01l-.111.032L909.673,75.5v6.414H909.1V74.132l.143-.032,5.077,6.462v-6.35h.589v7.8Z" transform="translate(-764.412 -62.307)" fill="#fff"/>
    <path id="Trazado_4233" data-name="Trazado 4233" d="M975.945,82.5H971.6V74.8h4.345v.525h-3.756v3.008h3.39v.525h-3.39v3.119h3.756Z" transform="translate(-816.965 -62.895)" fill="#fff"/>
  </g>
</svg>
