<svg xmlns="http://www.w3.org/2000/svg" width="22" height="22"><path d="M11 0A11 11 0 1 1 0 11 11.005 11.005 0 0 1 11 0Zm6.588 7.69a1.722 1.722 0 0 0-1.216-1.216A41.086 41.086 0 0 0 11 6.187a41.086 41.086 0 0 0-5.372.287A1.722 1.722 0 0 0 4.412 7.69 17.9 17.9 0 0 0 4.125 11a17.9 17.9 0 0 0 .287 3.309 1.722 1.722 0 0 0 1.216 1.216 41.1 41.1 0 0 0 5.372.288 41.105 41.105 0 0 0 5.372-.287 1.722 1.722 0 0 0 1.216-1.216 17.9 17.9 0 0 0 .287-3.31 17.9 17.9 0 0 0-.287-3.31Zm-7.963 5.373V8.938L13.2 11Z" fill="#fff" fill-rule="evenodd"/></svg>