<svg xmlns="http://www.w3.org/2000/svg" width="49" height="49"><g data-name="Elipse 772" transform="translate(5 5)" fill="#fff" stroke="rgba(255,255,255,0.5)" stroke-width="5"><circle cx="19.5" cy="19.5" r="19.5" stroke="none"/><circle cx="19.5" cy="19.5" r="22" fill="none"/></g><path data-name="Trazado 5445" d="M30.702 24.075a5.147 5.147 0 0 1 2.453-4.328 5.308 5.308 0 0 0-4.156-2.251c-1.769-.18-3.453 1.042-4.35 1.042s-2.282-1.016-3.749-.99a5.56 5.56 0 0 0-4.7 2.85c-2 3.476-.513 8.628 1.44 11.449.955 1.379 2.093 2.931 3.587 2.874 1.44-.057 1.983-.931 3.723-.931s2.229.931 3.751.9c1.548-.028 2.529-1.405 3.476-2.79a12.566 12.566 0 0 0 1.571-3.23 5.02 5.02 0 0 1-3.049-4.6" fill="#ff293e"/><path data-name="Trazado 5446" d="M27.841 15.628A5.012 5.012 0 0 0 29.023 12a5.092 5.092 0 0 0-3.347 1.72 4.765 4.765 0 0 0-1.206 3.516 4.218 4.218 0 0 0 3.37-1.609" fill="#ff293e"/></svg>