<svg xmlns="http://www.w3.org/2000/svg" viewBox="0 0 167.1 170.31"><g data-name="Layer 2"><g data-name="Layer 1"><circle data-name="Elipse 695-2" cx="83.56" cy="85.04" r="70" style="isolation:isolate;opacity:.65;fill:#ff293e"/><path d="M167.1 85.14c0-1.06-2.13-1.6-2.13-1.6-37.25-11.17-68.65-41-78.23-76.09L85.15 1.6S84.62 0 83.55 0 82 1.6 82 1.6l-1.6 5.85c-9.58 35.12-41 64.92-78.22 76.1 0 0-2.13.53-2.13 1.6s2.13 1.6 2.13 1.6c37.25 11.18 68.64 41 78.22 76.1l1.6 5.86s.53 1.6 1.6 1.6 1.6-1.6 1.6-1.6l1.6-5.86c9.58-35.12 41-64.92 78.22-76.1-.53.53 1.6 0 2.13-1.6" style="fill:#ff293e"/><path data-name="Trazado 5061" d="M102.65 83.73a4.22 4.22 0 0 0-4.22-4.22h-.7a.7.7 0 0 1-.7-.7v-.37a13.38 13.38 0 0 0-26.75 0v.37a.7.7 0 0 1-.7.7h-.7a4.22 4.22 0 0 0-4.23 4.21v5.63a4.23 4.23 0 0 0 4.23 4.23h2.81a2.82 2.82 0 0 0 2.82-2.82V78.44a9.15 9.15 0 0 1 18.29 0V95a3.54 3.54 0 0 1-2.2 3.27.69.69 0 0 1-.81-.23 4.2 4.2 0 0 0-3.32-1.63h-4.22a4.23 4.23 0 0 0 0 8.45h4.22A4.29 4.29 0 0 0 90 103a.69.69 0 0 1 .48-.31A7.78 7.78 0 0 0 97 95v-.7a.7.7 0 0 1 .7-.7h.7a4.21 4.21 0 0 0 4.22-4.21v-5.66Z" style="fill:#fff"/></g></g></svg>