<?xml version="1.0" encoding="utf-8"?>
<!-- Generator: Adobe Illustrator 15.1.0, SVG Export Plug-In . SVG Version: 6.00 Build 0)  -->
<!DOCTYPE svg PUBLIC "-//W3C//DTD SVG 1.1//EN" "http://www.w3.org/Graphics/SVG/1.1/DTD/svg11.dtd">
<svg version="1.1" id="Capa_1" xmlns="http://www.w3.org/2000/svg" xmlns:xlink="http://www.w3.org/1999/xlink" x="0px" y="0px"
	 width="1920px" height="385px" viewBox="70.729 90.186 1920 385" enable-background="new 70.729 90.186 1920 385"
	 xml:space="preserve">
<path id="Star-10" fill="#FF293E" d="M227.835,353.303L227.835,353.303c0-0.246-0.492-0.369-0.492-0.369
	c-8.617-2.586-15.88-9.479-18.101-17.6l-0.36-1.363c0,0-0.127-0.367-0.373-0.367s-0.369,0.367-0.369,0.367l-0.369,1.355
	c-2.216,8.125-9.479,15.018-18.1,17.6c0,0-0.492,0.123-0.492,0.369s0.492,0.369,0.492,0.369c8.616,2.584,15.88,9.479,18.1,17.6
	l0.369,1.354c0,0,0.123,0.369,0.369,0.369s0.369-0.369,0.369-0.369l0.368-1.354c2.217-8.125,9.479-15.018,18.101-17.6
	c-0.123,0.123,0.369,0,0.492-0.369"/>
<path id="Star-11" fill="#FF293E" d="M1846.23,124.393L1846.23,124.393c0-0.246-0.492-0.369-0.492-0.369
	c-8.617-2.585-15.88-9.479-18.101-17.6l-0.36-1.362c0,0-0.127-0.369-0.373-0.369s-0.369,0.369-0.369,0.369l-0.369,1.354
	c-2.216,8.125-9.479,15.018-18.1,17.6c0,0-0.492,0.123-0.492,0.369c0,0.246,0.492,0.369,0.492,0.369
	c8.616,2.585,15.88,9.479,18.1,17.6l0.369,1.354c0,0,0.123,0.369,0.369,0.369s0.369-0.369,0.369-0.369l0.368-1.354
	c2.217-8.125,9.479-15.018,18.101-17.6c-0.123,0.123,0.369,0,0.492-0.369"/>
<path id="Star-12" fill="#FF293E" d="M1936.079,196.514L1936.079,196.514c0-0.09-0.18-0.135-0.18-0.135
	c-3.146-0.906-5.633-3.324-6.626-6.445l-0.136-0.5c0,0-0.045-0.131-0.135-0.131s-0.135,0.135-0.135,0.135l-0.135,0.5
	c-0.994,3.119-3.48,5.536-6.626,6.441c0,0-0.181,0.045-0.181,0.135c0,0.09,0.181,0.135,0.181,0.135
	c3.146,0.907,5.632,3.325,6.625,6.445l0.135,0.5c0,0,0.045,0.135,0.135,0.135c0.091,0,0.136-0.135,0.136-0.135l0.135-0.5
	c0.992-3.121,3.479-5.539,6.625-6.445c-0.045,0.045,0.135,0,0.18-0.135"/>
<path id="Star-13" fill="#FF293E" d="M1873.639,307.383L1873.639,307.383c0-0.09-0.181-0.135-0.181-0.135
	c-3.146-0.906-5.633-3.324-6.626-6.445l-0.135-0.5c0,0-0.045-0.131-0.135-0.131s-0.135,0.137-0.135,0.137l-0.136,0.5
	c-0.994,3.117-3.479,5.535-6.626,6.439c0,0-0.18,0.045-0.18,0.135c0,0.092,0.18,0.137,0.18,0.137
	c3.146,0.906,5.633,3.324,6.625,6.443l0.135,0.5c0,0,0.046,0.137,0.136,0.137s0.135-0.137,0.135-0.137l0.135-0.5
	c0.993-3.119,3.479-5.537,6.625-6.443c-0.045,0.045,0.136,0,0.181-0.137"/>
<path id="Star-14" fill="#FF293E" d="M299.97,428.774L299.97,428.774c0-0.584-1.165-0.875-1.165-0.875
	c-20.394-6.113-37.574-22.426-42.816-41.648l-0.877-3.203c0,0-0.288-0.875-0.871-0.875s-0.874,0.875-0.874,0.875l-0.874,3.199
	c-5.241,19.227-22.427,35.539-42.815,41.656c0,0-1.165,0.291-1.165,0.873c0,0.584,1.165,0.875,1.165,0.875
	c20.389,6.115,37.574,22.422,42.815,41.65l0.874,3.199c0,0,0.291,0.875,0.874,0.875s0.874-0.875,0.874-0.875l0.874-3.199
	c5.242-19.229,22.423-35.535,42.816-41.65c-0.291,0.291,0.874,0,1.165-0.875"/>
<path id="Star-16" fill="#FF293E" d="M262.18,136.603L262.18,136.603c0-0.583-1.165-0.874-1.165-0.874
	c-20.394-6.114-37.574-22.426-42.816-41.648l-0.877-3.204c0,0-0.288-0.874-0.871-0.874s-0.874,0.874-0.874,0.874l-0.874,3.2
	c-5.241,19.226-22.427,35.538-42.815,41.655c0,0-1.165,0.291-1.165,0.874s1.165,0.874,1.165,0.874
	c20.389,6.116,37.574,22.423,42.815,41.651l0.874,3.2c0,0,0.291,0.874,0.874,0.874s0.874-0.874,0.874-0.874l0.874-3.2
	c5.242-19.228,22.423-35.535,42.816-41.651c-0.291,0.291,0.874,0,1.165-0.874"/>
<path id="Star-17" fill="#FF293E" d="M146.144,236.514L146.144,236.514c0-0.09-0.18-0.135-0.18-0.135
	c-3.147-0.906-5.633-3.324-6.626-6.445l-0.136-0.5c0,0-0.045-0.131-0.135-0.131s-0.135,0.135-0.135,0.135l-0.135,0.5
	c-0.995,3.119-3.48,5.536-6.626,6.441c0,0-0.181,0.045-0.181,0.135c0,0.09,0.181,0.135,0.181,0.135
	c3.146,0.907,5.632,3.325,6.625,6.445l0.135,0.5c0,0,0.045,0.135,0.135,0.135s0.135-0.135,0.135-0.135l0.136-0.5
	c0.992-3.121,3.479-5.539,6.625-6.445c-0.046,0.045,0.135,0,0.18-0.135"/>
<path id="Star-18" fill="#FF293E" d="M1877.77,223.423L1877.77,223.423c0-0.246-0.492-0.369-0.492-0.369
	c-8.617-2.585-15.88-9.479-18.1-17.6l-0.361-1.362c0,0-0.127-0.369-0.373-0.369s-0.369,0.369-0.369,0.369l-0.369,1.354
	c-2.216,8.125-9.479,15.018-18.1,17.6c0,0-0.492,0.123-0.492,0.369s0.492,0.369,0.492,0.369c8.617,2.585,15.88,9.479,18.1,17.6
	l0.369,1.354c0,0,0.123,0.369,0.369,0.369s0.369-0.369,0.369-0.369l0.369-1.354c2.216-8.125,9.479-15.018,18.1-17.6
	c-0.123,0.123,0.369,0,0.492-0.369"/>
<g>
	<path fill="#FF293E" d="M1969.404,382.071l-0.877-3.203c0,0-0.288-0.875-0.871-0.875s-0.874,0.875-0.874,0.875l-0.874,3.199
		c-5.242,19.227-22.427,35.539-42.815,41.654c0,0-1.166,0.291-1.166,0.875c0,0.582,1.166,0.873,1.166,0.873
		c20.389,6.117,37.573,22.424,42.815,41.652l0.874,3.199c0,0,0.291,0.875,0.874,0.875s0.874-0.875,0.874-0.875l0.874-3.199
		c3.238-11.877,11.034-22.636,21.325-30.57v-23.913C1980.438,404.704,1972.642,393.944,1969.404,382.071z"/>
</g>
</svg>
