<?xml version="1.0" encoding="utf-8"?>
<!-- Generator: Adobe Illustrator 15.1.0, SVG Export Plug-In . SVG Version: 6.00 Build 0)  -->
<!DOCTYPE svg PUBLIC "-//W3C//DTD SVG 1.1//EN" "http://www.w3.org/Graphics/SVG/1.1/DTD/svg11.dtd">
<svg version="1.1" id="Capa_1" xmlns="http://www.w3.org/2000/svg" xmlns:xlink="http://www.w3.org/1999/xlink" x="0px" y="0px"
	 width="1920px" height="766px" viewBox="0 0 1920 766" enable-background="new 0 0 1920 766" xml:space="preserve">
<g id="Hearts" transform="translate(20.148 -398.215)">
	<g id="Grupo_758">
		<path id="heart" fill="#FF293E" d="M341.837,399.014c1.243,0.368,2.312,1.173,3.009,2.266c1.028-0.787,2.309-1.174,3.601-1.091
			c1.17,0.129,2.225,0.764,2.886,1.738c1.457,1.983,1.03,4.772-0.953,6.229c-0.012,0.009-0.023,0.017-0.035,0.025l-0.021,0.016
			l-7.102,4.458c-0.245,0.154-0.566,0.097-0.744-0.131l-5.139-6.625l-0.017-0.022c-1.391-2.03-0.871-4.802,1.157-6.192
			c0.018-0.011,0.033-0.022,0.051-0.034C339.485,398.965,340.695,398.733,341.837,399.014"/>
		<path id="heart-2" fill="#FF293E" d="M45.837,901.722c1.243,0.367,2.312,1.172,3.009,2.267c1.028-0.787,2.309-1.175,3.601-1.091
			c1.17,0.13,2.225,0.765,2.886,1.736c1.457,1.984,1.03,4.773-0.953,6.23c-0.012,0.008-0.023,0.016-0.035,0.024l-0.021,0.017
			l-7.102,4.456c-0.245,0.154-0.566,0.099-0.745-0.131l-5.138-6.625l-0.017-0.022c-1.391-2.029-0.871-4.801,1.157-6.191
			c0.018-0.012,0.033-0.021,0.051-0.033C43.485,901.673,44.694,901.441,45.837,901.722"/>
		<path id="heart-3" fill="#FF293E" d="M107.408,1146.418c1.042,0.771,1.771,1.893,2.053,3.158c1.235-0.39,2.569-0.314,3.755,0.205
			c1.056,0.521,1.829,1.479,2.118,2.618c0.69,2.359-0.663,4.837-3.024,5.527c-0.014,0.004-0.026,0.008-0.041,0.012l-0.026,0.006
			l-8.194,1.765c-0.283,0.061-0.566-0.104-0.654-0.379l-2.563-7.98l-0.008-0.025c-0.612-2.383,0.82-4.811,3.202-5.422
			c0.021-0.006,0.039-0.01,0.06-0.016C105.215,1145.57,106.43,1145.763,107.408,1146.418"/>
		<path id="heart-4" fill="#FF293E" d="M1785.046,598.295c1.283-0.192,2.593,0.085,3.687,0.781c0.6-1.148,1.594-2.04,2.801-2.511
			c1.113-0.377,2.338-0.249,3.35,0.354c2.158,1.181,2.951,3.888,1.771,6.047c-0.008,0.013-0.014,0.025-0.021,0.038l-0.014,0.023
			l-4.549,7.042c-0.156,0.243-0.473,0.328-0.73,0.196l-7.457-3.829l-0.022-0.013c-2.119-1.25-2.82-3.981-1.57-6.099
			c0.011-0.018,0.021-0.035,0.031-0.052C1782.897,599.246,1783.893,598.524,1785.046,598.295"/>
		<path id="heart-5" fill="#FF293E" d="M1525.495,451.561c1.207,0.475,2.201,1.37,2.799,2.519c1.094-0.694,2.402-0.968,3.683-0.773
			c1.153,0.23,2.147,0.955,2.723,1.982c1.279,2.102,0.611,4.843-1.49,6.122c-0.014,0.007-0.025,0.015-0.037,0.021l-0.025,0.013
			l-7.459,3.823c-0.258,0.132-0.573,0.048-0.729-0.196l-4.543-7.046l-0.014-0.023c-1.209-2.143-0.451-4.859,1.69-6.067
			c0.019-0.01,0.035-0.02,0.053-0.029C1523.157,451.308,1524.382,451.181,1525.495,451.561"/>
		<path id="heart-6" fill="#FF293E" d="M1456.44,482.541c2.76,0.816,5.131,2.603,6.678,5.03c2.283-1.75,5.121-2.613,7.992-2.432
			c2.596,0.287,4.936,1.697,6.401,3.857c2.822,4.018,2.806,10.384-2.192,13.881l-0.054,0.035l-15.756,9.908
			c-0.545,0.342-1.26,0.215-1.653-0.292l-11.408-14.712l-0.037-0.05c-3.084-4.505-1.93-10.656,2.574-13.739
			c0.035-0.024,0.071-0.048,0.106-0.072C1451.216,482.433,1453.901,481.916,1456.44,482.541"/>
	</g>
	<g id="Grupo_757" opacity="0.7">
		<path id="heart-7" fill="#FF293E" d="M130.408,458.418c1.042,0.771,1.771,1.892,2.053,3.157c1.235-0.388,2.569-0.314,3.755,0.205
			c1.056,0.521,1.829,1.478,2.118,2.619c0.69,2.361-0.663,4.836-3.024,5.527c-0.014,0.004-0.026,0.008-0.041,0.012l-0.026,0.006
			l-8.194,1.763c-0.283,0.061-0.566-0.103-0.654-0.378l-2.563-7.98l-0.008-0.026c-0.612-2.382,0.82-4.81,3.202-5.422
			c0.021-0.005,0.039-0.01,0.06-0.015C128.215,457.569,129.43,457.764,130.408,458.418"/>
		<path id="heart-8" fill="#FF293E" d="M1834.438,425.418c1.043,0.771,1.771,1.892,2.053,3.157c1.234-0.388,2.568-0.314,3.754,0.205
			c1.057,0.521,1.83,1.478,2.119,2.619c0.691,2.361-0.662,4.836-3.023,5.527c-0.016,0.004-0.029,0.008-0.043,0.012l-0.026,0.006
			l-8.193,1.763c-0.283,0.061-0.565-0.103-0.654-0.378l-2.563-7.98l-0.008-0.026c-0.613-2.382,0.821-4.81,3.203-5.422
			c0.02-0.005,0.038-0.01,0.059-0.015C1832.243,424.569,1833.458,424.764,1834.438,425.418"/>
		<path id="heart-9" fill="#FF293E" d="M97.709,1047.439c2.313,1.712,3.933,4.199,4.557,7.011c2.742-0.865,5.705-0.707,8.34,0.444
			c2.342,1.156,4.059,3.279,4.698,5.812c1.277,4.74-0.912,10.715-6.804,12.293l-0.062,0.016l-18.189,3.926
			c-0.628,0.136-1.256-0.227-1.453-0.84l-5.693-17.721l-0.018-0.059c-1.357-5.287,1.827-10.672,7.113-12.029
			c0.042-0.012,0.083-0.021,0.125-0.031C92.84,1045.554,95.538,1045.986,97.709,1047.439"/>
		<path id="heart-10" fill="#FF293E" d="M1717.911,801.302c3.787-1.84,8.606-2.252,14.312-0.756
			c1.557-5.686,4.321-9.646,7.811-12.002c3.723-2.484,8.348-3.213,12.654-1.994c8.129,2.164,15.125,10.537,12.42,20.639
			c-0.01,0.033-0.021,0.066-0.031,0.103l-9.766,30.365c-0.338,1.049-1.416,1.672-2.492,1.438l-31.182-6.725
			c-0.035-0.008-0.068-0.017-0.104-0.025c-10.151-2.723-13.914-12.961-11.705-21.09
			C1710.938,806.916,1713.893,803.279,1717.911,801.302"/>
		<path id="heart-11" fill="#FF293E" d="M400.904,417.048c2.847-0.427,5.751,0.188,8.179,1.733c1.328-2.551,3.535-4.534,6.212-5.584
			c2.475-0.838,5.189-0.55,7.434,0.787c4.256,2.447,6.934,8.221,3.885,13.504l-0.033,0.053l-10.084,15.642
			c-0.349,0.54-1.05,0.729-1.621,0.435l-16.561-8.503l-0.055-0.03c-4.699-2.777-6.257-8.838-3.479-13.537
			c0.021-0.037,0.044-0.074,0.065-0.11C396.127,419.159,398.341,417.556,400.904,417.048"/>
	</g>
	<g id="Grupo_756" opacity="0.4">
		<path id="heart-12" fill="#FF293E" d="M1758.399,924.033c2.678,1.053,4.885,3.039,6.215,5.592
			c2.426-1.545,5.328-2.158,8.172-1.728c2.561,0.513,4.77,2.119,6.043,4.398c2.461,4.248,1.891,10.588-3.393,13.637l-0.056,0.029
			l-16.559,8.498c-0.57,0.293-1.271,0.104-1.621-0.435l-10.084-15.646l-0.033-0.055c-2.678-4.754-0.994-10.781,3.762-13.461
			c0.037-0.021,0.074-0.041,0.111-0.063C1753.204,923.47,1755.925,923.189,1758.399,924.033"/>
		<path id="heart-13" fill="#FF293E" d="M-10.97,550.262c3.979,1.378,7.68,4.496,10.652,9.587c5.123-2.92,9.879-3.762,14.011-2.963
			c4.392,0.877,8.177,3.633,10.359,7.541c4.217,7.281,3.24,18.149-5.815,23.377c-0.03,0.018-0.063,0.034-0.094,0.05l-28.384,14.564
			c-0.979,0.503-2.183,0.181-2.779-0.745l-17.292-26.809c-0.019-0.03-0.037-0.06-0.056-0.091
			c-5.253-9.106-0.671-19.007,6.641-23.192C-19.871,549.298-15.21,548.816-10.97,550.262"/>
	</g>
</g>
</svg>
