<?xml version="1.0" encoding="utf-8"?>
<!-- Generator: Adobe Illustrator 27.0.1, SVG Export Plug-In . SVG Version: 6.00 Build 0)  -->
<svg version="1.1" id="Capa_1" xmlns="http://www.w3.org/2000/svg" xmlns:xlink="http://www.w3.org/1999/xlink" x="0px" y="0px"
	 viewBox="0 0 208.2 212.2" style="enable-background:new 0 0 208.2 212.2;" xml:space="preserve">
<style type="text/css">
	.st0{fill:#FF293E;}
	.st1{opacity:0.2;fill:#FFFFFF;enable-background:new    ;}
	.st2{enable-background:new    ;}
	.st3{fill:#FFFFFF;}
</style>
<g id="Icon" transform="translate(0 -103.34)">
	<path id="Star" class="st0" d="M208.2,209.4L208.2,209.4c0-1.3-2.7-2-2.7-2c-46.4-13.9-85.5-51.1-97.5-94.8l-2-7.3c0,0-0.7-2-2-2
		s-2,2-2,2l-2,7.3c-11.9,43.8-51.1,80.9-97.5,94.8c0,0-2.7,0.7-2.7,2c0,1.3,2.7,2,2.7,2c46.4,13.9,85.5,51.1,97.5,94.8l2,7.3
		c0,0,0.7,2,2,2s2-2,2-2l2-7.3c11.9-43.8,51.1-80.9,97.5-94.8C204.9,212.1,207.5,211.4,208.2,209.4"/>
	<g id="Group_808" transform="translate(83.519 187.382)">
		<circle id="Ellipse_790" class="st1" cx="20.6" cy="22.5" r="40"/>
		<circle id="Ellipse_791" class="st1" cx="20.6" cy="22.5" r="30"/>
		<g class="st2">
			<path class="st3" d="M18.1,32.4V14.2l1.2,2.7l-4.8,2.3l-0.9-4.9l6.4-3.1h3.5v21.2H18.1z M14,34v-4.8h13.6V34H14z"/>
		</g>
	</g>
</g>
</svg>
