<?xml version="1.0" encoding="utf-8"?>
<!-- Generator: Adobe Illustrator 27.0.1, SVG Export Plug-In . SVG Version: 6.00 Build 0)  -->
<svg version="1.1" id="Capa_1" xmlns="http://www.w3.org/2000/svg" xmlns:xlink="http://www.w3.org/1999/xlink" x="0px" y="0px"
	 viewBox="0 0 208.2 212.2" style="enable-background:new 0 0 208.2 212.2;" xml:space="preserve">
<style type="text/css">
	.st0{fill:#FF293E;}
	.st1{opacity:0.2;fill:#FFFFFF;enable-background:new    ;}
	.st2{enable-background:new    ;}
	.st3{fill:#FFFFFF;}
</style>
<g id="Icon" transform="translate(0 -103.34)">
	<path id="Star" class="st0" d="M208.2,209.4L208.2,209.4c0-1.3-2.7-2-2.7-2c-46.4-13.9-85.5-51.1-97.5-94.8l-2-7.3c0,0-0.7-2-2-2
		s-2,2-2,2l-2,7.3c-11.9,43.8-51.1,80.9-97.5,94.8c0,0-2.7,0.7-2.7,2c0,1.3,2.7,2,2.7,2c46.4,13.9,85.5,51.1,97.5,94.8l2,7.3
		c0,0,0.7,2,2,2s2-2,2-2l2-7.3c11.9-43.8,51.1-80.9,97.5-94.8C204.9,212.1,207.5,211.4,208.2,209.4"/>
	<g id="Group_808" transform="translate(83.519 187.382)">
		<circle id="Ellipse_790" class="st1" cx="20.6" cy="22.5" r="40"/>
		<circle id="Ellipse_791" class="st1" cx="20.6" cy="22.5" r="30"/>
		<g class="st2">
			<path class="st3" d="M13.3,34l-1.1-2.6l6.5-7.1c0.4-0.4,0.8-0.9,1.2-1.4c0.4-0.5,0.8-1,1.2-1.6c0.4-0.5,0.7-1.1,1-1.6
				c0.2-0.5,0.4-1,0.4-1.4s-0.1-0.8-0.3-1.1s-0.5-0.6-0.8-0.8c-0.4-0.2-0.8-0.3-1.4-0.3c-0.5,0-1,0.1-1.4,0.4
				c-0.4,0.2-0.9,0.6-1.3,1.1c-0.4,0.5-0.8,1.1-1.1,1.9l-4-2.2c0.4-1.2,1.1-2.3,1.9-3.3s1.8-1.7,2.9-2.2s2.3-0.8,3.6-0.8
				c1.3,0,2.5,0.3,3.6,0.8c1.1,0.5,1.9,1.3,2.5,2.3s0.9,2.1,0.9,3.4c0,0.4-0.1,0.9-0.2,1.4c-0.1,0.5-0.3,1-0.5,1.5
				c-0.2,0.5-0.5,1.1-0.8,1.7c-0.4,0.6-0.8,1.2-1.3,1.8c-0.5,0.6-1.1,1.3-1.7,2l-5.1,5.5l-0.6-2.4h11.2V34H13.3z"/>
		</g>
	</g>
</g>
</svg>
