<svg xmlns="http://www.w3.org/2000/svg" width="194" height="194"><defs><filter id="a" x="0" y="0" width="194" height="194" filterUnits="userSpaceOnUse"><feOffset/><feGaussianBlur stdDeviation="15" result="blur"/><feFlood flood-color="#fff"/><feComposite operator="in" in2="blur"/><feComposite in="SourceGraphic"/></filter></defs><g transform="translate(-.003 -.003)" filter="url(#a)"><g data-name="Elipse 711" transform="translate(45 45)" fill="none" stroke="#13171d" stroke-width="2"><circle cx="52" cy="52" r="52" stroke="none"/><circle cx="52" cy="52" r="51"/></g></g><g data-name="Grupo 285" fill="none" stroke="#13171d" stroke-linecap="round" stroke-linejoin="round" stroke-width="2"><path data-name="Trazado 4983" d="M73.717 101.187V119.5"/><path data-name="Trazado 4984" d="M73.717 116.448h33.575a6.1 6.1 0 0 0-6.1-6.1h-7.635a6.1 6.1 0 0 0-6.1-6.1h-13.74"/><path data-name="Trazado 4985" d="M85.926 110.344h7.631"/><path data-name="Trazado 4986" d="M113.376 108.834a15.211 15.211 0 0 0-4.114-26.573l3.77-6.451a1.382 1.382 0 0 0 0-1.4 1.439 1.439 0 0 0-1.243-.7h-15.1a1.439 1.439 0 0 0-1.239.7 1.381 1.381 0 0 0 0 1.4l3.77 6.45a15.215 15.215 0 0 0-10.242 14.349"/><path data-name="Trazado 4987" d="M100.068 100.361a4.526 4.526 0 0 0 3.781 1.78c2.318 0 4.2-1.41 4.2-3.148s-1.88-3.146-4.2-3.146-4.188-1.41-4.188-3.15 1.88-3.148 4.2-3.148a4.52 4.52 0 0 1 3.781 1.78"/><path data-name="Trazado 4988" d="M103.857 102.142v2.1"/><path data-name="Trazado 4989" d="M103.857 87.452v2.1"/></g></svg>