<svg xmlns="http://www.w3.org/2000/svg" width="30" height="30"><g transform="translate(-7.5)"><circle data-name="Elipse 778" cx="15" cy="15" r="15" transform="translate(7.5)" fill="#13171d" opacity=".2"/><circle data-name="Elipse 779" cx="11" cy="11" r="11" transform="translate(11.5 4)" fill="#fff"/><path data-name="Trazado 5481" d="M26.635 9.08a1.389 1.389 0 0 1 1.781 1.781l-3.065 9.187a1.388 1.388 0 0 1-1 .916 1.371 1.371 0 0 1-1.3-.372L21.4 18.956l-1.727.893a.429.429 0 0 1-.626-.392l.071-2.73 6.042-4.389a.536.536 0 1 0-.63-.867l-6.144 4.463L16.9 14.45a1.371 1.371 0 0 1-.373-1.242 1.389 1.389 0 0 1 .917-1.061Z" fill="#00d1bc" fill-rule="evenodd"/></g></svg>