<svg xmlns="http://www.w3.org/2000/svg" width="22.096" height="23.783"><path d="m8.083 3.929.721-1.86A1.676 1.676 0 0 1 10.362.997h1.374a1.676 1.676 0 0 1 1.558 1.072l.721 1.86 2.446 1.408 1.977-.3a1.676 1.676 0 0 1 1.676.821l.67 1.173a1.676 1.676 0 0 1-.134 1.893l-1.223 1.56v2.815l1.257 1.558a1.676 1.676 0 0 1 .134 1.893l-.67 1.173a1.676 1.676 0 0 1-1.676.821l-1.977-.3-2.446 1.408-.721 1.86a1.676 1.676 0 0 1-1.558 1.072h-1.408a1.676 1.676 0 0 1-1.558-1.072l-.721-1.86-2.446-1.408-1.977.3a1.676 1.676 0 0 1-1.676-.821l-.67-1.173a1.676 1.676 0 0 1 .134-1.893l1.223-1.558v-2.815L1.414 8.929a1.676 1.676 0 0 1-.137-1.9l.67-1.173a1.676 1.676 0 0 1 1.676-.821l1.977.3Zm-.385 7.959a3.351 3.351 0 1 0 3.351-3.351 3.351 3.351 0 0 0-3.352 3.355Z" fill="none" stroke="#13171d" stroke-linecap="round" stroke-linejoin="round" stroke-width="2"/></svg>