<svg xmlns="http://www.w3.org/2000/svg" width="25" height="31"><path d="M21.167.5H3.833A3.333 3.333 0 0 0 .5 3.833v23.334A3.333 3.333 0 0 0 3.833 30.5h17.334a3.333 3.333 0 0 0 3.333-3.333V3.833A3.333 3.333 0 0 0 21.167.5M5.131 6.739a1.609 1.609 0 1 1 1.608-1.608 1.609 1.609 0 0 1-1.608 1.608M16.5 16.055 13.333 20.5a1 1 0 0 1-1.667 0L8.5 16.055a1 1 0 0 1 0-1.11l3.167-4.445a1 1 0 0 1 1.667 0l3.166 4.445a1 1 0 0 1 0 1.11m4.125 12.179a1.609 1.609 0 1 1 1.609-1.609 1.609 1.609 0 0 1-1.609 1.609" fill="#13171d" stroke="rgba(0,0,0,0)"/></svg>