<svg xmlns="http://www.w3.org/2000/svg" viewBox="0 0 99.18 104"><g data-name="Layer 2"><path d="M49.59 0c2.21 0 4 2.69 4 6v12c0 3.31-1.79 6-4 6s-4-2.69-4-6V6c0-3.31 1.79-6 4-6Zm30.56 9.93c1.79 1.3 1.66 4.53-.29 7.21l-7 9.7c-2 2.69-5 3.81-6.76 2.51-1.79-1.3-1.66-4.53.29-7.21l7-9.71c1.95-2.68 4.98-3.8 6.76-2.5Zm18.85 26c.69 2.1-1.32 4.64-4.47 5.66L83.16 45.3c-3.15 1-6.26.15-6.94-1.95-.68-2.1 1.32-4.64 4.47-5.66L92.1 34c3.15-1 6.26-.17 6.9 1.93Zm0 32.14c-.68 2.1-3.79 3-6.94 2l-11.37-3.76c-3.15-1-5.15-3.56-4.47-5.66.68-2.1 3.79-3 6.94-1.95l11.41 3.71c3.15 1.02 5.16 3.59 4.43 5.66Zm-18.85 26c-1.78 1.3-4.81.18-6.76-2.5l-7-9.71c-2-2.68-2.08-5.91-.29-7.21 1.78-1.3 4.81-.18 6.76 2.51l7 9.7c1.95 2.68 2.08 5.91.29 7.21ZM49.59 104c-2.21 0-4-2.69-4-6V86c0-3.31 1.79-6 4-6s4 2.69 4 6v12c0 3.31-1.79 6-4 6ZM19 94.07c-1.78-1.3-1.65-4.53.29-7.21l7.06-9.7c1.95-2.69 5-3.81 6.76-2.51 1.79 1.3 1.66 4.53-.29 7.21l-7.05 9.71c-1.93 2.68-4.96 3.8-6.77 2.5Zm-18.87-26C-.55 66 1.45 63.43 4.6 62.41L16 58.7c3.15-1 6.26-.15 6.94 1.95.68 2.1-1.32 4.64-4.47 5.66L7.08 70c-3.16 1-6.26.17-6.95-1.93Zm0-32.14c.69-2.1 3.79-3 7-2l11.41 3.71c3.15 1 5.15 3.56 4.47 5.66-.68 2.1-3.79 3-6.94 1.95L4.6 41.59C1.45 40.57-.55 38 .13 35.93ZM19 9.93c1.79-1.3 4.82-.18 6.77 2.5l7.05 9.71c1.95 2.68 2.08 5.91.29 7.21-1.79 1.3-4.81.18-6.76-2.51l-7.06-9.7c-1.92-2.68-2.05-5.91-.29-7.21Z" data-name="Layer 1"/></g></svg>