<svg xmlns="http://www.w3.org/2000/svg" width="24" height="24"><g fill="none" stroke="#13171d" stroke-linecap="round" stroke-linejoin="round" stroke-width="2"><path data-name="Trazado 4906" d="M4.667 17.867h-.734A2.933 2.933 0 0 1 1 14.934V12a2.933 2.933 0 0 1 2.933-2.933h.733a.733.733 0 0 1 .733.733v7.333a.733.733 0 0 1-.732.734Z"/><path data-name="Trazado 4907" d="M20.067 17.867h-.733a.733.733 0 0 1-.733-.733V9.8a.733.733 0 0 1 .733-.733h.733A2.933 2.933 0 0 1 23 12v2.933a2.933 2.933 0 0 1-2.933 2.934Z"/><path data-name="Trazado 4908" d="M3.933 9.067A8.067 8.067 0 0 1 12 1h0a8.067 8.067 0 0 1 8.067 8.067"/><path data-name="Trazado 4909" d="M14.933 21.534h2.2a2.933 2.933 0 0 0 2.933-2.933h0v-.734"/><path data-name="Trazado 4910" d="M13.466 23H12a1.467 1.467 0 0 1-1.467-1.467h0A1.467 1.467 0 0 1 12 20.066h1.467a1.467 1.467 0 0 1 1.467 1.467h0A1.467 1.467 0 0 1 13.466 23Z"/></g></svg>