<svg xmlns="http://www.w3.org/2000/svg" width="34" height="34"><g transform="rotate(180 11.214 14.55)"><circle data-name="Elipse 761" cx="17" cy="17" r="17" transform="translate(-11.571 -4.9)" fill="#00d1bc"/><g fill="#fff"><path data-name="Trazado 5431" d="M8.765 7.036a.9.9 0 0 0 0-1.272l-2.7-2.7a.9.9 0 0 0-1.272 0l-2.7 2.7a.9.9 0 0 0 0 1.272.888.888 0 0 0 .636.264h1.5a.3.3 0 0 1 .3.3v4.501a.9.9 0 1 0 1.8 0v-4.5a.3.3 0 0 1 .3-.3h1.5a.888.888 0 0 0 .636-.264"/><path data-name="Trazado 5432" d="M11.429 10.6a1.2 1.2 0 0 0-1.2-1.2h-1.8a.3.3 0 0 0-.3.3v2.4a2.7 2.7 0 1 1-5.4 0V9.7a.3.3 0 0 0-.3-.3h-1.8a1.2 1.2 0 0 0-1.2 1.2v7.8a1.2 1.2 0 0 0 1.2 1.2h9.6a1.2 1.2 0 0 0 1.2-1.2Z"/></g></g></svg>