<svg xmlns="http://www.w3.org/2000/svg" width="30" height="30"><g transform="translate(-7.5)"><circle data-name="Elipse 778" cx="15" cy="15" r="15" transform="translate(7.5)" fill="#13171d" opacity=".2"/><circle data-name="Elipse 779" cx="11" cy="11" r="11" transform="translate(11.5 4)" fill="#fff"/><path data-name="Trazado 5484" d="M21.228 9a4.727 4.727 0 0 0-4.728 4.727 4.672 4.672 0 0 0 .79 2.614l-.631 1.69a.257.257 0 0 0 .286.343l2.214-.4a4.727 4.727 0 0 0 .68.269 4.933 4.933 0 0 1 5.911-5.904A4.727 4.727 0 0 0 21.228 9m6.143 5.415a3.858 3.858 0 1 0-1.039 6.194l1.725.31a.257.257 0 0 0 .286-.343l-.486-1.3a3.812 3.812 0 0 0 .643-2.133 3.857 3.857 0 0 0-1.13-2.727" fill="#00d1bc" fill-rule="evenodd"/></g></svg>