<svg xmlns="http://www.w3.org/2000/svg" width="42" height="42.066"><g fill="none" stroke="#000" stroke-linecap="round" stroke-linejoin="round" stroke-width="4"><path data-name="Trazado 5511" d="M22.052 39.859h0a2.935 2.935 0 0 1-2.1 0h0A27.975 27.975 0 0 1 2 13.727V6.098a1.49 1.49 0 0 1 1.052-1.433 63.04 63.04 0 0 1 35.9 0A1.49 1.49 0 0 1 40 6.098v7.629a27.975 27.975 0 0 1-17.948 26.132Z"/><path data-name="Trazado 5512" d="m21.005 27.77-7.833-7.095c-4.259-4.259 2.002-12.434 7.833-5.82 5.832-6.614 12.064 1.586 7.834 5.82Z"/></g></svg>