<svg xmlns="http://www.w3.org/2000/svg" width="16.971" height="16.821"><defs><clipPath id="a"><path data-name="Rectángulo 232" fill="#fff" d="M0 0h15v8.898H0z"/></clipPath></defs><g data-name="Grupo 658" clip-path="url(#a)" transform="rotate(44.03 3.09 7.644)"><path data-name="Trazado 5385" d="M11.86 1.67C9.7.422 6.723.571 3.633 2.138a.162.162 0 0 1-.181 0L1.579.265a.949.949 0 0 0-1-.2A.943.943 0 0 0 0 .908v7.366a.624.624 0 0 0 .624.626h7.36a.936.936 0 0 0 .662-1.6L7.085 5.734a.144.144 0 0 1-.044-.134.162.162 0 0 1 .081-.119 5.564 5.564 0 0 1 4.994-.35 3.271 3.271 0 0 1 1.635 3.121.624.624 0 0 0 1.248 0c-.019-3.065-1.117-5.412-3.14-6.586" fill="#fff"/></g></svg>