<svg xmlns="http://www.w3.org/2000/svg" width="30" height="30"><g transform="translate(.339)"><circle data-name="Elipse 752" cx="15" cy="15" r="15" transform="translate(-.339)" fill="#13171d" opacity=".2"/><path data-name="Trazado 44" d="M15 25A10 10 0 1 0 5 15a10 10 0 0 0 10 10Zm-5-10.833h3.958a.208.208 0 0 0 .208-.208V10a.833.833 0 1 1 1.667 0v3.958a.208.208 0 0 0 .208.208H20a.833.833 0 1 1 0 1.667h-3.958a.208.208 0 0 0-.208.208V20a.833.833 0 1 1-1.667 0v-3.958a.208.208 0 0 0-.208-.208H10a.833.833 0 1 1 0-1.667Z" fill="#fff"/></g></svg>