<svg xmlns="http://www.w3.org/2000/svg" width="31.284" height="31.273"><g fill="none" stroke="#13171d" stroke-linecap="round" stroke-linejoin="round" stroke-width="2"><path data-name="Trazado 4983" d="M1 18.563v11.709"/><path data-name="Trazado 4984" d="M1 28.321h21.466a3.9 3.9 0 0 0-3.9-3.9h-4.881a3.9 3.9 0 0 0-3.9-3.9H1"/><path data-name="Trazado 4985" d="M8.806 24.418h4.879"/><path data-name="Trazado 4986" d="M26.356 23.453a9.725 9.725 0 0 0-2.631-16.99l2.407-4.124a.884.884 0 0 0 0-.894.92.92 0 0 0-.795-.445h-9.649a.92.92 0 0 0-.792.445.883.883 0 0 0 0 .894l2.411 4.124a9.728 9.728 0 0 0-6.549 9.173"/><path data-name="Trazado 4987" d="M17.848 18.035a2.894 2.894 0 0 0 2.417 1.138c1.482 0 2.684-.9 2.684-2.013s-1.2-2.011-2.684-2.011-2.677-.9-2.677-2.014 1.2-2.013 2.683-2.013a2.89 2.89 0 0 1 2.417 1.138"/><path data-name="Trazado 4988" d="M20.27 19.174v1.339"/><path data-name="Trazado 4989" d="M20.27 9.782v1.341"/></g></svg>