<svg xmlns="http://www.w3.org/2000/svg" width="27.824" height="31"><path d="m26.875 2.9-1.113-1.338a1.887 1.887 0 0 0-2.275-.474 12.041 12.041 0 0 1-5.15 1.25 9.235 9.235 0 0 1-3.812-.85A10.315 10.315 0 0 0 10.262.5 9.524 9.524 0 0 0 5.7 1.625a.262.262 0 0 1-.237 0 .326.326 0 0 1-.188-.125 1.875 1.875 0 0 0-1.65-1h-1.25A1.875 1.875 0 0 0 .5 2.375v8.75A1.875 1.875 0 0 0 2.375 13h1.337a1.862 1.862 0 0 0 1.838-1.525 3.3 3.3 0 0 1 3.375-2.5 9.234 9.234 0 0 1 2.775.775 11.527 11.527 0 0 0 3.95 1.012.475.475 0 0 1 .362.787 29.325 29.325 0 0 0-7.237 16.963 1.926 1.926 0 0 0 .513 1.4 1.875 1.875 0 0 0 1.362.588h7.413a1.875 1.875 0 0 0 1.863-1.675c.675-6.337 5.725-20 7.262-24.062a1.9 1.9 0 0 0-.313-1.863" fill="#868b92" stroke="rgba(0,0,0,0)"/></svg>