<?xml version="1.0" encoding="utf-8"?>
<!-- Generator: Adobe Illustrator 27.0.0, SVG Export Plug-In . SVG Version: 6.00 Build 0)  -->
<svg version="1.1" xmlns="http://www.w3.org/2000/svg" xmlns:xlink="http://www.w3.org/1999/xlink" x="0px" y="0px"
	 viewBox="0 0 600 250" style="enable-background:new 0 0 600 250;" xml:space="preserve">
<style type="text/css">
	.st0{display:none;}
	.st1{display:inline;}
	.st2{fill:#FFFFFF;}
	.st3{fill-rule:evenodd;clip-rule:evenodd;fill:#BE1C2B;}
	.st4{fill-rule:evenodd;clip-rule:evenodd;fill:#FFFFFF;}
</style>
<g id="Capa_1" class="st0">
	<rect class="st1" width="600" height="250"/>
</g>
<g id="Capa_2" class="st0">
	<g class="st1">
		<path class="st2" d="M474.6,97c-24,1.5-13.2,32.8,13.3,31.1C513.9,126.6,500.2,95.4,474.6,97z"/>
		<path class="st2" d="M464.4,77.7c-42.8,0-77.5,34.7-77.5,77.5c0,42.8,34.7,77.5,77.5,77.5c42.8,0,77.5-34.7,77.5-77.5
			C541.9,112.4,507.2,77.7,464.4,77.7z M464.4,224.5c-38.3,0-69.3-31-69.3-69.3c0-38.3,31-69.3,69.3-69.3c38.3,0,69.3,31,69.3,69.3
			C533.7,193.4,502.7,224.5,464.4,224.5z"/>
		<g>
			<path class="st2" d="M462.1,23.6c-18.4,13.9-15.2,35.2-15.2,35.2s-11.6-30-26.6-48.3c-2,23.6,5.4,54.9,5.4,54.9
				s-9.4-19.4-32.4-20.5c19.1,11,26.5,30.8,28.2,36.1c11.1-6.8,23.9-10.9,37.8-11.4C457.7,64.6,452.4,43.8,462.1,23.6z"/>
		</g>
		<path class="st2" d="M64.8,162.7v16.2h-6.7v-41.8h14.2c4.8,0,8.4,1.1,10.9,3.4c2.4,2.3,3.6,5.4,3.6,9.4c0,3.9-1.2,7-3.7,9.3
			c-2.5,2.3-6.1,3.4-10.8,3.4H64.8z M79.9,150c0-2.4-0.7-4.2-2-5.4c-1.3-1.2-3.4-1.9-6.4-1.9h-6.7v14.5h6.7
			C77.1,157.2,79.9,154.8,79.9,150z"/>
		<path class="st2" d="M114.6,178.9l-10.4-16.7h-4.8v16.7h-6.7v-41.8h14.7c4.8,0,8.4,1.2,10.9,3.5c2.5,2.3,3.7,5.4,3.7,9.2
			c0,3.3-0.9,6-2.8,8c-1.8,2.1-4.5,3.4-8,4l10.9,17H114.6z M99.4,157.5h7.5c5.4,0,8.2-2.4,8.2-7.2c0-2.3-0.7-4.1-2-5.4
			c-1.3-1.3-3.4-1.9-6.2-1.9h-7.5V157.5z"/>
		<path class="st2" d="M153,169.9h-17.6l-3.2,9h-7.2l15.4-41.1h7.7l15.3,41.1h-7.2L153,169.9z M151.1,164.7l-6.9-19.5l-6.9,19.5
			H151.1z"/>
		<path class="st2" d="M197.4,140.5c3.3,2.4,5.5,5.8,6.6,10h-7.1c-0.9-2.2-2.4-4-4.5-5.4c-2.1-1.3-4.5-2-7.4-2c-2.6,0-4.9,0.6-7,1.8
			c-2.1,1.2-3.7,3-4.9,5.2c-1.2,2.2-1.7,4.9-1.7,7.9c0,3.2,0.6,5.9,1.8,8.2c1.2,2.3,2.8,4,5,5.2c2.1,1.2,4.6,1.8,7.5,1.8
			c3.5,0,6.4-1.1,8.9-3.2c2.5-2.1,4-5.1,4.5-8.8h-15.3v-5h21v6.4c-0.5,3.1-1.6,5.9-3.3,8.4c-1.7,2.5-4,4.5-6.8,6
			c-2.8,1.5-6,2.2-9.7,2.2c-4.1,0-7.7-0.9-10.8-2.7c-3.1-1.8-5.5-4.3-7.2-7.5c-1.7-3.2-2.5-6.9-2.5-11c0-4.1,0.8-7.8,2.5-11
			c1.7-3.2,4.1-5.7,7.2-7.5c3.1-1.8,6.7-2.7,10.7-2.7C190,136.8,194.1,138.1,197.4,140.5z"/>
		<path class="st2" d="M252.5,137.8v41.1h-6.8v-30.8l-11.9,30.8h-5.9l-11.9-30.8v30.8h-6.7v-41.1h8.2l13.6,32.8l13.4-32.8H252.5z"/>
		<path class="st2" d="M285.5,169.9h-17.6l-3.2,9h-7.2l15.4-41.1h7.7l15.3,41.1h-7.2L285.5,169.9z M283.6,164.7l-6.9-19.5l-6.9,19.5
			H283.6z"/>
		<path class="st2" d="M324.7,137.2v5.4h-11.7v36.3h-6.8v-36.3h-11.6v-5.4H324.7z"/>
		<path class="st2" d="M335.1,137.2v41.8h-6.7v-41.8H335.1z"/>
		<path class="st2" d="M373.2,140.7c3.4,2.6,5.7,6.1,6.9,10.6h-7.2c-1-2.5-2.6-4.5-4.7-6c-2.1-1.5-4.8-2.2-7.9-2.2
			c-2.5,0-4.7,0.6-6.7,1.8c-2,1.2-3.5,3-4.6,5.2c-1.1,2.3-1.7,4.9-1.7,8c0,3,0.6,5.6,1.7,7.9c1.1,2.3,2.7,4,4.6,5.2
			c2,1.2,4.2,1.8,6.7,1.8c3.1,0,5.7-0.7,7.9-2.2c2.1-1.5,3.7-3.5,4.7-5.9h7.2c-1.2,4.5-3.5,8-6.9,10.6c-3.4,2.6-7.7,3.9-12.8,3.9
			c-3.9,0-7.4-0.9-10.5-2.7c-3-1.8-5.4-4.3-7-7.5c-1.7-3.2-2.5-6.9-2.5-11c0-4.1,0.8-7.8,2.5-11c1.7-3.2,4-5.7,7-7.5
			c3-1.8,6.5-2.7,10.5-2.7C365.6,136.8,369.8,138.1,373.2,140.7z"/>
		<path class="st2" d="M411.9,162.7v16.2h-6.7v-41.8h14.2c4.8,0,8.4,1.1,10.9,3.4c2.4,2.3,3.6,5.4,3.6,9.4c0,3.9-1.2,7-3.7,9.3
			c-2.5,2.3-6.1,3.4-10.8,3.4H411.9z M427,150c0-2.4-0.7-4.2-2-5.4c-1.3-1.2-3.4-1.9-6.4-1.9h-6.7v14.5h6.7
			C424.2,157.2,427,154.8,427,150z"/>
		<path class="st2" d="M445.4,173.7h14.4v5.3h-21.2v-41.8h6.7V173.7z"/>
		<path class="st2" d="M490.7,169.9h-17.6l-3.2,9h-7.2l15.4-41.1h7.7l15.3,41.1h-7.2L490.7,169.9z M488.9,164.7l-6.9-19.5l-6.9,19.5
			H488.9z"/>
		<path class="st2" d="M528.2,137.2l-13.9,26.6v15.2h-6.8v-15.2l-14-26.6h7.8l9.6,19.3l9.6-19.3H528.2z"/>
	</g>
</g>
<g id="Capa_3" class="st0">
	<g class="st1">
		<path id="YGGDRASIL_00000168091770310875597120000013395317197499273397_" class="st2" d="M562.6,98h11.3v41.3h24v10.3h-35.3V98z
			 M541.9,149.6h11.3V98h-11.3V149.6z M492.7,141.8c6.2,5.5,14,8.3,21.8,8.3c11.1,0,18.9-5.8,18.9-16v-0.1c0-9-5.9-12.8-16.3-15.5
			c-8.9-2.3-11.1-3.4-11.1-6.8v-0.1c0-2.5,2.3-4.5,6.6-4.5s8.8,1.9,13.4,5.1l5.9-8.6c-5.2-4.2-11.6-6.6-19.1-6.6
			c-10.5,0-18,6.2-18,15.6v0.1c0,10.2,6.7,13.1,17,15.8c8.6,2.2,10.4,3.7,10.4,6.6v0.1c0,3-2.8,4.9-7.4,4.9
			c-5.9,0-10.7-2.4-15.3-6.3L492.7,141.8 M490.4,149.8l-22-52h-10.4l-22,52h11.5l15.6-38.3l6.8,16.7h-9.1l-4,10h17.1l4.8,11.7H490.4
			z M355.1,98c16.2,0,27.3,11.1,27.3,25.7v0.1c0,14.5-11.2,25.8-27.3,25.8h-17.7V98H355.1 M370.6,123.8c0-9.1-6.2-15.6-15.5-15.6
			h-6.4v31.1h6.4c9.2,0,15.5-6.3,15.5-15.4V123.8z M312.2,122.8v8.9h5.3v5.5c-2.9,2.1-6.5,3.1-10.6,3.1c-9.1,0-15.6-6.9-15.6-16.4
			v-0.1c0-8.8,6.5-16.1,14.8-16.1c5.9,0,9.5,1.9,13.4,5.2l7.1-8.6c-5.4-4.6-10.9-7.1-20.2-7.1c-15.6,0-26.9,12-26.9,26.7v0.1
			c0,15.3,11,26.5,27,26.5c9.4,0,16.7-3.7,22-8.2v-19.6H312.2z M255.7,122.8v8.9h5.3v5.5c-2.9,2.1-6.5,3.1-10.6,3.1
			c-9.1,0-15.6-6.9-15.6-16.4v-0.1c0-8.8,6.5-16.1,14.8-16.1c5.9,0,9.5,1.9,13.4,5.2l7.1-8.6c-5.4-4.6-10.9-7.1-20.2-7.1
			c-15.6,0-26.9,12-26.9,26.7v0.1c0,15.3,11,26.5,27,26.5c9.4,0,16.7-3.7,22-8.2v-19.6H255.7z M193.2,149.6h11.3V133l19.7-35h-12.8
			l-12.5,23l-12.3-23h-13.2l19.7,35.2V149.6z M419.8,131.2c6.5-2.4,11-7.7,11-16v-0.1c0-4.9-1.5-8.9-4.4-11.8
			c-3.4-3.4-8.4-5.2-15-5.2h-21.8v51.6H401v-41.4h9.5c5.5,0,8.9,2.5,8.9,7.4v0.1c0,4.3-3.2,7.3-8.7,7.3h-5.6v10h3l11,16.5h13.2
			L419.8,131.2z"/>
		<path id="YGG_SYMBOL_00000163043259598484490570000009778606806017912992_" class="st2" d="M146.2,132.7
			c-0.3,5.7-1.4,11.4-3.1,16.9c-27.2-1.6-51.6-13.9-68.9-32.8C56.8,135.7,32.4,148,5.2,149.6c-1.7-5.5-2.7-11.2-3.1-16.9
			c9.1-0.3,17.9-2.1,26.1-5.1c-7.2-6-15.6-10.7-24.8-13.6c1.1-5.5,2.9-10.9,5.3-16.2c13.7,4.4,25.9,11.9,35.9,21.7
			c6.1-3.9,11.7-8.5,16.6-13.7c-16.8-2.9-31.7-11.4-42.7-23.5c3.7-4.5,7.8-8.4,12.3-11.8c6.5,7.2,14.7,12.8,24.1,16.1
			C51.5,78.5,49.1,69.9,48,61c5.4-2.1,11-3.5,16.7-4.3c1.2,11.1,4.5,21.6,9.5,31c5-9.4,8.3-19.9,9.5-31c5.6,0.7,11.2,2.2,16.7,4.3
			c-1.2,9-3.5,17.6-6.8,25.7c9.3-3.3,17.6-8.9,24-16.1c4.7,3.5,8.8,7.4,12.3,11.8c-11,12.1-25.9,20.6-42.7,23.5
			c4.9,5.2,10.5,9.9,16.6,13.7c10-9.8,22.3-17.3,35.9-21.7c2.4,5.2,4.2,10.6,5.3,16.2c-9.2,2.9-17.6,7.6-24.8,13.6
			C128.3,130.6,137,132.4,146.2,132.7z M82.6,199.9v-24.2l24.5-31.9c-5.3-2.3-10.3-5.1-15.2-8.2l-17.8,23.2l-17.8-23.2
			c-4.8,3.1-9.9,5.9-15.2,8.2l24.5,31.9v24.2C71.3,200.6,77,200.6,82.6,199.9z"/>
	</g>
</g>
<g id="Capa_4">
	<g>
		<path class="st2" d="M146.7,212.7h-6.2v-4.2c-1.4,2-2.2,2.7-4.2,3.6c-2.3,1-4.7,1.5-7.8,1.5c-11.1,0-18.8-6.9-18.8-16.8
			c0-9.7,7.6-16.2,19.1-16.2c9.9,0,16.5,4.2,17.9,11.2h-8.2c-0.9-1.5-1.4-2.1-2.3-3c-1.9-1.6-4.5-2.5-7.4-2.5
			c-6.6,0-11.2,4.5-11.2,10.7s4.8,10.8,11.5,10.8c5.1,0,8.5-2.2,10.2-6.5h-8.2v-5.6h15.6V212.7z"/>
		<path class="st2" d="M166.3,202.6l-2,0.3c-4.3,0.6-5.5,1.3-5.5,3.2c0,1.6,1.5,2.6,4,2.6c2.7,0,5.9-1.3,7-2.9
			c0.5-0.8,0.7-1.6,0.7-3.4v-0.8C169.3,202.1,168.4,202.3,166.3,202.6 M165.2,188.5c3.7,0,6.6,0.6,8.8,1.8c2.8,1.5,3.7,3.3,3.7,7.8
			v9.7c0,2.5,0.2,3.6,0.8,4.2v0.7h-7.2l-0.7-2.7c-1.3,1.3-1.9,1.7-3.2,2.3c-1.8,0.8-4.3,1.3-6.7,1.3c-5.9,0-9.5-2.7-9.5-7.2
			c0-4.1,2.7-6.5,8.2-7.2l5.2-0.6c4.8-0.6,5.8-1,5.8-2.5c0-1.6-1.8-2.6-5-2.6c-3.6,0-5.1,0.9-5.4,3.6h-7.5
			C152.9,191.6,157.6,188.5,165.2,188.5"/>
		<path class="st2" d="M183.6,189.3h6.7v3.4c1.4-1.5,2.1-2,3.3-2.7c1.6-0.9,3.3-1.3,5.3-1.3c2.3,0,4.2,0.5,5.6,1.4
			c1.2,0.7,1.7,1.4,2.5,3c1.2-1.5,1.7-2,3-2.8c1.8-1.1,3.9-1.6,6.5-1.6c3.2,0,5.7,0.9,7.4,2.7c1.6,1.7,2.2,3.4,2.2,7v14.2H219v-11.8
			c0-4.9-1.2-6.5-4.8-6.5c-3.8,0-5.8,2.2-5.8,6.5v11.8h-7.1v-11.8c0-4.7-1.3-6.5-4.8-6.5c-3.9,0-5.8,2.1-5.8,6.5v11.8h-7.1V189.3z"
			/>
		<path class="st2" d="M251.8,198.4c-0.6-3.1-3-4.9-6.5-4.9c-3.6,0-6,1.7-6.5,4.9H251.8z M255.7,210.4c-2.7,2.2-6.2,3.1-10.6,3.1
			c-8.9,0-14.2-4.6-14.2-12.3c0-7.8,5.4-12.7,14.1-12.7c9,0,14.6,5.1,14.6,13.3v1h-21.2c0.3,4,2.5,6,6.8,6c3,0,4.4-0.8,6-3.1h8.1
			C258.2,208,257.5,208.9,255.7,210.4"/>
		<path class="st2" d="M270.8,205c0.3,2.5,2,3.6,5.8,3.6c3.2,0,5.1-0.9,5.1-2.4c0-1.5-0.8-1.8-7.5-2.5l-2.8-0.3
			c-3.9-0.4-6-1.4-7.3-3.4c-0.6-0.9-0.9-2-0.9-3.1c0-5.2,4.8-8.3,12.6-8.3c8,0,12.6,2.9,12.7,7.9h-7.7c-0.3-2.1-1.9-3-5.3-3
			c-2.9,0-4.5,0.7-4.5,2.2c0,1.4,1,1.7,7.5,2.3l3,0.3c5.1,0.5,7.8,2.9,7.8,6.8c0,5.3-4.9,8.4-13,8.4c-8.6,0-13-2.7-13.5-8.5H270.8z"
			/>
		<path class="st2" d="M376.6,50.3l0.1,0.3l54,108c1.6,3.3-3.3,5.7-4.9,2.5l-49.1-98.2L327.5,161c-1.6,3.3-6.6,0.8-4.9-2.5l54-108
			V50.3z M233.4,63.4c10.3-9.9,24.4-16,39.8-16c21.4,0,40,11.6,49.9,28.9c1.8,3.2-2.9,5.9-4.8,2.8c-9-15.6-25.9-26.2-45.2-26.2
			c-16,0-30.3,7.2-39.8,18.5V63.4z M233.4,138.5c9.5,11.3,23.8,18.5,39.8,18.5c27.8,0,50.5-21.8,52-49.3h-52c-3.7,0-3.7-5.5,0-5.5
			h57.5v2.8c0,31.8-25.8,57.5-57.5,57.5c-15.4,0-29.5-6.1-39.7-16L233.4,138.5z M110.2,159.8V50.2l54.8,54.7l54-54.8v109.7
			c0,3.7-5.5,3.7-5.5,0V63.5l-48.5,49.1l-49.4-49.2v96.4C115.7,163.5,110.2,163.5,110.2,159.8"/>
		<path class="st2" d="M431.7,50.2c-3.6,0-6.1,2-6.1,5.2c0,3.2,2.5,5.2,6.1,5.2h52.5c3.6,0,6.1-2,6.1-5.2c0-3.2-2.5-5.2-6.1-5.2
			H431.7z"/>
		<path class="st2" d="M431.7,71c-3.6,0-6.1,2-6.1,5.2s2.5,5.2,6.1,5.2h52.5c3.6,0,6.1-2,6.1-5.2s-2.5-5.2-6.1-5.2H431.7z"/>
		<path class="st2" d="M431.7,91.8c-3.6,0-6.1,2-6.1,5.2c0,3.2,2.5,5.2,6.1,5.2h52.5c3.6,0,6.1-2,6.1-5.2c0-3.2-2.5-5.2-6.1-5.2
			H431.7z"/>
	</g>
</g>
<g id="Capa_5" class="st0">
	<g class="st1">
		<g>
			<polygon class="st2" points="310,54.6 305.8,54.6 305.8,200.9 310,200.9 310,172.8 363.3,172.8 363.3,155.8 322.2,155.8 
				322.2,136 357.4,136 357.4,118.8 322.2,118.8 322.2,99.9 363.3,99.9 363.3,82.7 310,82.7 			"/>
			<polygon class="st2" points="143.9,137.9 128.8,113.4 109.3,83 109,82.7 93,82.7 93,172.8 110.8,172.8 110.8,117.4 124.1,138.9 
				145.6,172.8 161.9,172.8 161.9,82.7 143.9,82.7 			"/>
			<polygon class="st2" points="171.8,172.8 230.9,172.8 230.9,155.8 189.8,155.8 189.8,136 225,136 225,118.8 189.8,118.8 
				189.8,99.9 230.9,99.9 230.9,82.7 171.8,82.7 			"/>
			<polygon class="st2" points="238.2,100 258.9,100 258.9,172.8 276.9,172.8 276.9,100 297.3,100 297.3,82.7 238.2,82.7 			"/>
			<polygon class="st2" points="423.2,138.1 408.1,113.5 388.7,83.2 388.4,82.8 372.3,82.8 372.3,173 390.1,173 390.1,117.5 
				403.5,139.1 425,173 441.2,173 441.2,82.8 423.2,82.8 			"/>
			<polygon class="st2" points="448.6,82.8 448.6,100.2 469.2,100.2 469.2,173 487.1,173 487.1,100.2 507.7,100.2 507.7,82.8 			"/>
		</g>
	</g>
</g>
<g id="Capa_6" class="st0">
	<g class="st1">
		<g>
			<path class="st2" d="M215.8,177l-8.9,22.4h5.4l1.6-4.3h8.2l1.6,4.3h5.5l-8.8-22.4H215.8z M215.4,191l1.1-2.9
				c0.3-0.7,0.5-1.5,0.8-2.2c0.2-0.7,0.5-1.5,0.7-2.2c0.2,0.7,0.4,1.5,0.7,2.2c0.3,0.8,0.5,1.5,0.7,2.1l1.1,2.9H215.4z M113.9,116.9
				L80.5,73.2H62.3v72.7h18.2v-43.6l33.5,43.6h18.2V73.2h-18.2V116.9z M201.1,73.2l20.6,29.5l13-17.8l-8.2-11.7H201.1z M172.2,187.8
				c0-0.4-0.1-0.7-0.1-1h-10.5v4.3h5.4c0,0.7-0.3,1.4-0.7,2c-0.4,0.6-1,1-1.7,1.4c-0.7,0.3-1.5,0.5-2.3,0.5c-1.3,0-2.4-0.3-3.4-0.9
				c-1-0.6-1.8-1.4-2.4-2.5c-0.6-1-0.9-2.2-0.9-3.5c0-1.3,0.3-2.4,0.8-3.5c0.6-1,1.3-1.8,2.3-2.4c1-0.6,2.1-0.9,3.3-0.9
				c1.1,0,2.1,0.2,3,0.6c0.9,0.4,1.7,1,2.5,1.8l3.3-3.5c-0.9-1.1-2.1-2-3.7-2.7c-1.5-0.7-3.2-1-5.1-1c-1.8,0-3.4,0.3-4.9,0.9
				c-1.5,0.6-2.7,1.4-3.8,2.4c-1.1,1-1.9,2.3-2.5,3.7c-0.6,1.4-0.9,2.9-0.9,4.6c0,2.2,0.5,4.2,1.5,6c1,1.8,2.3,3.1,4.1,4.1
				c1.8,1,3.9,1.5,6.3,1.5c2,0,3.8-0.4,5.4-1.3c1.6-0.8,2.8-2,3.7-3.5c0.9-1.5,1.4-3.2,1.4-5.1c0-0.2,0-0.5,0-0.9
				C172.3,188.6,172.2,188.2,172.2,187.8z M250.8,108L238,126l14,20h25.4L250.8,108z M146.6,145.9h39.9v-14.5h-21.8v-14.5h21.8
				v-14.5h-21.8V87.8h21.8V73.2h-39.9V145.9z M330.5,199.5h6.6V177h-6.6V199.5z M372.6,104.7v14.5h13.7c0,0,0.2,10.1-14.5,10.1
				c-16,0-20.8-10.9-21-20.6c-0.2-9.7,5.4-21.8,18.2-21.8c14.7,0,17.8,10.9,17.8,10.9l16.5-6.9c0,0-10.9-21.4-34.3-21.4
				c-30.4,0-36.3,25.3-36.3,40c0,12.2,7.9,37.1,39.1,37.1c35.3,0,32.7-41.2,32.7-41.2L372.6,104.7z M458.9,131.4h-21.8v-14.5h21.8
				v-14.5h-21.8V87.8h21.8V73.2H419v72.7h39.9V131.4z M277.2,187.5l-6.4-10.5H266v22.4h5.3v-7c0-1.3,0-2.4,0-3.5c0-1-0.1-2-0.2-2.9
				l5.1,8h2.1l5.2-8.1c-0.1,1-0.1,2-0.2,3.1c0,1.1,0,2.2,0,3.4v7h5.3V177h-4.7L277.2,187.5z M527.9,73.2v43.6l-33.5-43.6h-18.2v72.7
				h18.2v-43.6l33.5,43.6h18.2V73.2H527.9z M277.4,88.6h18.2v57.4H310V88.6h18.2V73.2h-50.8V88.6z M394,182.6c0,1.2,0,2.3,0,3.3
				c0,1,0.1,1.9,0.1,2.8c0.1,0.9,0.1,1.8,0.3,2.7L384,177h-4.9v22.4h5.3V192c0-0.7,0-1.4,0-2c0-0.6-0.1-1.2-0.1-1.9
				c-0.1-0.7-0.1-1.6-0.2-2.6l10.4,14h4.9V177H394V182.6z M459.6,187.8c0-0.4-0.1-0.7-0.1-1H449v4.3h5.4c0,0.7-0.3,1.4-0.7,2
				c-0.4,0.6-1,1-1.7,1.4c-0.7,0.3-1.5,0.5-2.3,0.5c-1.3,0-2.4-0.3-3.4-0.9c-1-0.6-1.8-1.4-2.4-2.5c-0.6-1-0.9-2.2-0.9-3.5
				c0-1.3,0.3-2.4,0.8-3.5c0.6-1,1.3-1.8,2.3-2.4c1-0.6,2.1-0.9,3.3-0.9c1.1,0,2.1,0.2,3,0.6c0.9,0.4,1.7,1,2.5,1.8l3.3-3.5
				c-0.9-1.1-2.1-2-3.7-2.7c-1.5-0.7-3.2-1-5.1-1c-1.8,0-3.4,0.3-4.9,0.9c-1.5,0.6-2.7,1.4-3.8,2.4c-1.1,1-1.9,2.3-2.5,3.7
				c-0.6,1.4-0.9,2.9-0.9,4.6c0,2.2,0.5,4.2,1.5,6c1,1.8,2.3,3.1,4.1,4.1c1.8,1,3.9,1.5,6.3,1.5c2,0,3.8-0.4,5.4-1.3
				c1.6-0.8,2.8-2,3.7-3.5c0.9-1.5,1.4-3.2,1.4-5.1c0-0.2,0-0.5,0-0.9C459.7,188.6,459.7,188.2,459.6,187.8z"/>
		</g>
	</g>
	<g class="st1">
		<g>
			<polygon class="st3" points="247.5,73.3 196.6,146 219.6,146 270.5,73.3 			"/>
		</g>
	</g>
</g>
<g id="Capa_7" class="st0">
	<g class="st1">
		<g>
			<path class="st4" d="M300,148.6c-0.3,2.2,0.2,2.7-2.3,2.3c-6.1-0.9-11.5-30-11.5-30h-13.9l2.3,64.7h11.5c0,0-0.1-21.7,0-25.4
				c2.3-0.1,4.5,0.1,6.9,4.6c2.5,4.5,4.6,20.8,4.6,20.8h13.9v-64.7h-13.9C297.6,120.9,300.2,146.4,300,148.6z M251.5,171.7
				c0,5-9.2,5.1-9.2,0c0-5.1,0-51.3,0-50.8c0,0.4-11.5,0-11.5,0s0,39.5,0,48.5c0,9,7.2,16.2,16.2,16.2c9,0,16.2-6.2,16.2-13.9
				c0-7.7,0-53.2,0-53.2h-11.5C251.5,118.6,251.5,166.8,251.5,171.7z M207.6,150.9l-9.2-2.3v-27.7h-13.9l2.3,64.7h11.5v-23.1h6.9
				l2.3,20.8l11.5,2.3v-62.4h-11.5V150.9z M168.3,109.3c-5-8.7-20.7-42-20.8-50.8c-5.3,0.2-18.5,6.9-18.5,6.9l-25.4-27.7
				c0,0-16.7-6.9-32.3-16.2c-5.1,12.1-9.2,30-9.2,30l-6.9-16.2c0,0-27.9,29.1-27.7,32.4c0.2,3.2-10.1,15.7-13.9,23.1
				c-3.8,7.5-2.4,20.7,2.3,34.7c-2.7-3.4-13.9-9.2-13.9-9.2s7.6,9.8,5.5,19c-5.3,23.8,6.1,38.2,19.9,57.3
				c12.2,2.3,34.8,13.5,39.3,13.9c4.5,0.4,34.5,1.4,34.6,2.3c0.1,0.9,42.2-17.6,57.7-23.1c2.5-10.5,13.9-37,13.9-37h-9.2
				C163.7,148.6,165,124.6,168.3,109.3z M138.3,127.8h-34.6l-2.3,60.1H73.7l-2.3-60.1H36.7V95.5l101.6-2.3V127.8z M530.9,132.4
				c6.2,0,6.9,6.9,6.9,6.9s6,0,11.5,0c-0.4-12.8-6.5-20.8-18.5-20.8c-11,0-18.5,6.3-18.5,13.9c0,7.6,0,28.7,0,34.7
				c0,9,4.3,20.8,18.5,20.8c14.2,0,18.5-11.7,18.5-23.1c0,0-7.3,0-11.5,0c0,4.3-2.8,9.4-6.9,9.2c-4.2-0.2-6.9-4.5-6.9-9.2
				c0-4.8,0-18.6,0-23.1S524.7,132.4,530.9,132.4z M489.3,183.3c0,0,13.9-0.9,13.9,0s0-64.7,0-64.7h-13.9V183.3z M320.7,118.6v64.7
				c0,0,15.2,1.3,23.1-4.6c7.9-5.9,11.5-17.2,11.5-27.7c0-8.7-2.6-21.8-9.2-27.7C339.5,117.2,320.7,118.6,320.7,118.6z M332.3,169.4
				v-39.3c0,0,11.3-2.4,11.5,20.8C344,170.6,332.3,169.4,332.3,169.4z M468.5,155.5c0,0,4.7-4.1,9.2-11.6c2.9-4.8,2.3-23.1,2.3-23.1
				h-11.5c0,0-0.7,11.9-2.3,16.2c-2.7,7-9.2,9.2-9.2,9.2v-25.4h-11.5v64.7H457v-20.8c0,0,3.2-1.5,6.9,4.6c3.8,6.1,6.9,16.2,6.9,16.2
				h11.5c0,0,0.7-9.4-2.3-16.2C477.1,162.7,468.5,155.5,468.5,155.5z M427,120.9c-7.7-3.3-25.4,0-25.4,0v62.4h11.5v-18.5
				c0,0,2.1-1.3,4.6,0c2.3,1.2,6.9,18.5,6.9,18.5h11.5c0,0-2-8.9-4.6-16.2c-1.8-5.1-4.6-9.2-4.6-9.2s8.9-4.7,9.2-16.2
				C436.5,132.5,434.1,123.9,427,120.9z M413.1,148.6v-16.2c0,0,11.4-4.5,11.5,6.9C424.8,152.8,413.1,148.6,413.1,148.6z
				 M364.6,185.6h30v-9.2h-18.5v-16.2H390v-11.6h-13.9v-18.5h18.5v-9.2h-30V185.6z M595.5,169.4c-3-6.7-11.5-13.9-11.5-13.9
				s4.7-4.1,9.2-11.6c2.9-4.8,2.3-23.1,2.3-23.1H584c0,0-0.7,11.9-2.3,16.2c-2.7,7-9.2,9.2-9.2,9.2v-25.4h-11.5v64.7h11.5v-20.8
				c0,0,3.2-1.5,6.9,4.6c3.8,6.1,6.9,16.2,6.9,16.2h11.5C597.8,185.6,598.5,176.1,595.5,169.4z"/>
		</g>
	</g>
</g>
<g id="Capa_8" class="st0">
	<g class="st1">
		<polygon class="st2" points="64.1,89 64.1,142.4 17.9,89 2.7,89 2.7,166.9 17.2,166.9 17.2,111.5 65.3,166.9 78.7,166.9 78.7,89 
					"/>
		<polygon class="st2" points="193.2,159.8 180.5,159.8 154.4,99.8 168.9,99.8 186.8,141.5 204.7,99.8 219.2,99.8 		"/>
		<polygon class="st2" points="448.3,159.8 448.3,111.3 427.3,111.3 427.3,99.8 482.7,99.8 482.7,111.3 461.8,111.3 461.8,159.8 		
			"/>
		<rect x="492.7" y="99.8" class="st2" width="13.7" height="60"/>
		<path class="st2" d="M409.3,133.7l-8.2-19.3l-8.2,19.3H409.3z M420.4,159.8l-6.2-14.6h-26.2l-6.2,14.6h-13.5l26.5-60h12.6l26.5,60
			H420.4z"/>
		<polygon class="st2" points="347.6,99.8 328,135.4 308.5,99.8 295.2,99.8 295.2,159.8 307.2,159.8 307.2,122.5 328,159.9 
			348.9,122.5 348.9,159.8 360.8,159.8 360.8,99.8 		"/>
		<path class="st2" d="M121.8,110.5c-2.5,0-5,0.5-7.4,1.3c-2.4,0.9-4.6,2.2-6.5,3.8c-1.9,1.6-3.4,3.7-4.5,6
			c-1.1,2.3-1.7,5.1-1.7,8.1c0,3,0.6,5.8,1.7,8.1c1.1,2.4,2.7,4.4,4.5,6c1.9,1.7,4.1,2.9,6.5,3.8c2.4,0.9,4.9,1.3,7.4,1.3
			c2.5,0,5-0.4,7.4-1.3c2.4-0.9,4.6-2.2,6.5-3.8c1.9-1.6,3.4-3.7,4.5-6c1.1-2.3,1.7-5.1,1.7-8.1c0-3-0.6-5.8-1.7-8.1
			c-1.1-2.4-2.7-4.4-4.5-6c-1.9-1.6-4.1-2.9-6.5-3.8C126.9,111,124.4,110.5,121.8,110.5 M121.8,160.2c-4.6,0-9-0.6-13-1.7
			c-4.1-1.1-7.7-3-10.7-5.5c-3-2.5-5.5-5.8-7.2-9.6c-1.8-3.8-2.7-8.4-2.7-13.5c0-5.1,0.9-9.7,2.7-13.5c1.8-3.9,4.2-7.1,7.2-9.6
			c3-2.5,6.6-4.5,10.7-5.7c4-1.3,8.4-1.9,13-1.9c4.6,0,9,0.6,13,1.9c4.1,1.3,7.7,3.2,10.7,5.7c3,2.5,5.5,5.8,7.2,9.6
			c1.8,3.8,2.7,8.4,2.7,13.5c0,5.1-0.9,9.7-2.7,13.5c-1.8,3.9-4.2,7.1-7.2,9.6c-3,2.5-6.6,4.4-10.7,5.5
			C130.8,159.7,126.4,160.2,121.8,160.2"/>
		<path class="st2" d="M252,110.5c-2.5,0-5,0.5-7.4,1.3c-2.4,0.9-4.6,2.2-6.5,3.8c-1.9,1.6-3.4,3.7-4.5,6c-1.1,2.3-1.7,5.1-1.7,8.1
			c0,3,0.6,5.8,1.7,8.1c1.1,2.4,2.7,4.4,4.5,6c1.9,1.7,4.1,2.9,6.5,3.8c2.4,0.9,4.9,1.3,7.4,1.3c2.5,0,5-0.4,7.4-1.3
			c2.4-0.9,4.6-2.2,6.5-3.8c1.9-1.6,3.4-3.7,4.5-6c1.1-2.3,1.7-5.1,1.7-8.1c0-3-0.6-5.8-1.7-8.1c-1.1-2.4-2.7-4.4-4.5-6
			c-1.9-1.6-4.1-2.9-6.5-3.8C257,111,254.5,110.5,252,110.5 M252,160.2c-4.6,0-9-0.6-13-1.7c-4.1-1.1-7.7-3-10.7-5.5
			c-3-2.5-5.5-5.8-7.3-9.6c-1.8-3.8-2.7-8.4-2.7-13.5c0-5.1,0.9-9.7,2.7-13.5c1.8-3.9,4.2-7.1,7.3-9.6c3-2.5,6.6-4.5,10.7-5.7
			c4-1.3,8.4-1.9,13-1.9s9,0.6,13,1.9c4.1,1.3,7.7,3.2,10.7,5.7c3,2.5,5.5,5.8,7.3,9.6c1.8,3.8,2.7,8.4,2.7,13.5
			c0,5.1-0.9,9.7-2.7,13.5c-1.8,3.9-4.2,7.1-7.3,9.6c-3,2.5-6.6,4.4-10.7,5.5C261,159.7,256.6,160.2,252,160.2"/>
		<path class="st2" d="M560.7,167.4c-5.8,0-11.4-0.8-16.7-2.4c-5.3-1.6-10.1-4-14.1-7.3c-4.1-3.3-7.3-7.4-9.7-12.4
			c-2.4-4.9-3.6-10.7-3.6-17.3c0-6.5,1.2-12.3,3.6-17.3c2.4-5,5.6-9.2,9.7-12.5c4.1-3.3,8.8-5.9,14.1-7.5c5.3-1.7,10.9-2.5,16.7-2.5
			c11.7,0,22.6,3.9,29.7,6.8c0.8,0.4,5.5,2.4,5.5,2.4l-7.4,12.3l-1.1-0.6c-7.3-4.3-15.5-7.2-23.1-8c-1.3-0.2-2.5-0.2-3.7-0.2l-0.5,0
			l-0.4,0c-3.5,0.1-6.9,0.7-10.1,1.8c-3.5,1.2-6.6,2.9-9.2,5.2c-2.6,2.3-4.7,5.1-6.3,8.4c-1.6,3.3-2.3,7.1-2.3,11.3
			c0,4.2,0.8,8,2.3,11.3c1.6,3.3,3.7,6.1,6.3,8.4c2.6,2.3,5.7,4,9.2,5.2c3.5,1.2,7.3,1.8,11.1,1.8c12.5,0,23-5.8,29.6-10.6l1.1-0.8
			l6.6,11.3l-1,0.6c-8.3,5.3-20.9,11.7-33.9,12.5C562.3,167.3,561.5,167.4,560.7,167.4"/>
	</g>
</g>
<g id="Capa_9" class="st0">
	<g class="st1">
		<g id="RedTigerLogo_x5F_Red_00000132794164135780330660000009249095840052490638_">
			<path id="_x33__00000130610862338684749750000013435850866604209055_" class="st2" d="M85.4,181.4c0.6-0.8,0.9-1.8,1-2.8
				c0.1-0.9,0.1-1.8,1.1-2.2c1.6-0.6,3.3,0.2,4.6,1.3c0.6,0.5,3.1,3.6,3.1,3.6c-0.6-8.6-9.2-16.4-22.4-17.1
				c-1.4-0.1-2.6-0.1-3.9-0.1c-1.3,0-2.5,0-3.9,0.1c-13.2,0.7-21.8,8.5-22.4,17.1c0,0,2.5-3.1,3.1-3.6c1.3-1,3-1.9,4.6-1.3
				c1,0.4,1,1.3,1.1,2.2c0.1,1,0.5,2,1,2.8c1.4,2,3.8,2.7,6.1,3.3c2.2,0.6,4.7,0.9,6.9,0.1c0.8-0.3,1.6-0.8,2.3-1.4
				c0.3-0.3,0.9-1,1.2-1c0.3,0,0.9,0.7,1.2,1c0.6,0.7,1.4,1.1,2.3,1.4c2.2,0.8,4.7,0.5,6.9-0.1C81.5,184.1,84,183.5,85.4,181.4z"/>
			<path id="_x32__00000095333888989461512640000012153382229368399243_" class="st2" d="M131.8,128.7
				C131.8,128.7,131.8,128.7,131.8,128.7c0,0-0.6,7.9-0.9,12.1c-0.9,10.7-3.1,21.3-10.9,29c-2.5,2.5-6.1,3-6.1,3v0
				c2.5-5.2,5.3-10.3,7.4-15.6c2.1-5.4,3.4-11,5-16.6c0,0,0,0,0,0c0,0-5.5,2-6.7,2.3c0,0,0,0,0,0c0.1-1.1,5.7-21.9,5.7-21.9
				c0,0,0,0,0,0c-0.3,0.3-9.5,20.1-9.9,20.8c-0.2,0.3-0.1,0.7,0.2,1c3.9,3.3,2.6,9.2,0.9,11.2c-2.4,2.8-5.3,5.4-7.2,9.8
				c-0.8,1.8-2.2,7-2.2,7c0,0,0,0,0,0c-0.4-0.1-0.9-11.6,2.6-16.6c1.8-2.5,1.8-9.4-0.7-10.6c-2.6-1.3-3-2.8-1.2-5.2
				c0-0.1,0-0.1-0.1-0.1c-8-0.7-5.5-8.9-11.5-9.2c0,0,0,0,0,0c1.6-1.1,3.5-0.7,5.2,0.2c1.7,0.9,1.6,1,2.7,2.5
				c0.5,0.8,2.7,2.2,3.6,2.4c7.6,1.7,6.9-6,6.9-6c0,0,0,0,0,0c-3.8-0.2-7.1-1.8-7.3-4.3c0,0,0,0,0,0c2.2-0.2,4.8,0.4,6.4-0.7
				c1.4-1,2.5-3.7,2.5-5.6c0,0,0,0,0,0c-3.9,1.8-3.9,1.8-5.9,0.2c0,0,0,0,0,0c6-6.1,11.2-21.2,11-26.1c0,0,0,0,0,0
				c2.4,2,2.8,3.8,3.4,5c0,0,0,0,0,0c4.1-1.7,7.2-2.2,6.7-8h0l-4.6,2.3c0,0,0,0,0,0c0.3-0.7,0.6-1.4,0.9-2c0.6-1.1,1.5-1.8,2.3-2.7
				c1.7-1.9,3.6-4.3,4.4-6.7c0.5-1.6,0.8-3.3,1-4.9c0.2-1.7,0.5-3.6,0.2-5.3c-0.4-2.9-2.7-5.7-6.2-5.2c-1.9,0.3-3.6,1.2-5.3,2
				c-1.9,0.8-3.9,1.6-5.9,2.3c-2,0.7-4,1.3-5.9,2c-2.2,0.7-12.2,1.4-14.4,1.7c0,0,0,0,0,0l8.5,1.4c0.6,0.1,1.2,0.1,1.8-0.1
				c2-0.6,6.7-1.9,8.5-2.3c2.1-0.5,7.9-1.5,9.8,1.4c0,0,0,0,0,0c-1.2,2.5-5.3,4.2-5.7,4.8c0,0,0,0.1-0.1,0.1
				c3.2-0.9,4.7-0.2,4.7-0.2h0c-2.4,2.2-3.6,4.4-5.1,7.5c-1.7,3.5-2.5,8.4-4,12c-1.3,3.2-3.1,6.3-5.1,9.1c-2.1,3-4.6,5.1-7.5,6.8
				c0,0,0,0,0,0c2.7-3,5.4-7,7-9.9c5-9.4,5.3-19.7,6-22.9c0,0,0,0,0,0c-2.3,1-7,0.4-7,0.4c0,0,7.7-3.6,9.9-4.7c0,0,0,0,0,0
				c-1.2-0.7-2.2-1.1-3.3-1.2c-5.1-0.5-7,1.1-10.2,1.5c-1.7,0.2-13.6-3.9-16.1-4.4c0,0,0.1,0,0.2,0c-2-0.5-4-0.9-6-1.3
				c-0.3-0.1-0.5-0.1-0.8-0.2c-1.8-0.3-3.6-0.5-5.4-0.7c-2.4-0.3-6.8-0.5-8.5-0.5c-0.5,0-1,0-1.6,0c-1.8,0.1-6.2,0.3-8.5,0.5
				c-1.8,0.2-3.6,0.4-5.4,0.7c-0.3,0.1-0.5,0.1-0.8,0.2c-2,0.4-4,0.9-6,1.3c0.1,0,0.2,0,0.2,0c-2.4,0.5-14.4,4.6-16.1,4.4
				c-3.3-0.5-5.2-2.1-10.2-1.5c-1,0.1-2.1,0.5-3.3,1.2c2.2,1.2,9.9,4.7,9.9,4.7s-4.8,0.5-7-0.4c0.8,3.2,1.1,13.5,6,22.9
				c1.5,2.9,4.2,6.9,7,9.9c-2.9-1.7-5.4-3.8-7.5-6.8c-2-2.8-3.7-5.9-5.1-9.1c-1.5-3.6-2.3-8.5-4-12c-1.5-3.1-2.6-5.2-5.1-7.5
				c0,0,1.4-0.7,4.7,0.2c0,0,0-0.1-0.1-0.1c-0.4-0.6-4.5-2.3-5.7-4.8c2-2.9,7.7-1.9,9.8-1.4c1.8,0.4,6.5,1.7,8.5,2.3
				c0.6,0.2,1.2,0.2,1.8,0.1l8.5-1.4c-2.2-0.3-12.3-1-14.4-1.7c-2-0.7-4-1.2-5.9-2c-2-0.7-3.9-1.5-5.9-2.3c-1.7-0.7-3.4-1.7-5.3-2
				c-3.5-0.6-5.8,2.2-6.2,5.2c-0.3,1.7,0,3.6,0.2,5.3c0.2,1.7,0.5,3.3,1,4.9c0.8,2.4,2.7,4.8,4.4,6.7c0.8,0.9,1.7,1.6,2.3,2.7
				c0.4,0.7,0.7,1.3,0.9,2l-4.6-2.3c-0.6,5.8,2.6,6.3,6.7,8c0.6-1.2,1-3,3.4-5c-0.2,4.9,5,19.9,11,26.1c-1.9,1.6-1.9,1.6-5.9-0.2
				c0,2,1.1,4.6,2.5,5.6c1.6,1.1,4.2,0.5,6.4,0.7c-0.2,2.6-3.5,4.1-7.3,4.3c0,0-0.8,7.7,6.9,6c1-0.2,3.1-1.6,3.6-2.4
				c1.1-1.6,1-1.6,2.7-2.5c1.7-0.9,3.6-1.3,5.2-0.2c-6.1,0.3-3.5,8.5-11.5,9.2c0,0.1,0,0.1-0.1,0.1c1.7,2.5,1.4,3.9-1.2,5.2
				c-2.5,1.3-2.5,8.1-0.7,10.6c3.5,5,2.9,16.5,2.6,16.6c0,0-1.4-5.2-2.2-7c-1.9-4.4-4.8-7-7.2-9.8c-1.6-1.9-2.9-7.9,0.9-11.2
				c0.3-0.2,0.4-0.6,0.2-1c-0.3-0.8-9.6-20.5-9.9-20.8c0,0,5.6,20.8,5.7,21.9c-1.2-0.3-6.7-2.3-6.7-2.3c1.6,5.5,2.9,11.2,5,16.6
				c2.1,5.4,4.9,10.4,7.4,15.6c0,0-3.7-0.5-6.1-3c-7.8-7.8-10-18.4-10.9-29C6.6,136.6,6,128.7,6,128.7c-1,4-2.3,6.9-2.9,10.9
				c-0.9,5.9-1.7,8.1-0.2,16.2c0.1,0.7,0.7,3.1,1.1,3.8c5.3,8.3,16.6,24.6,16.6,24.6l0.6-5.2c0.6,1.4,8.1,17.9,8.1,17.9
				c0-3.9-2-14.7,2.2-16.6c1.4-0.6,3.4,0.9,3.4,2.7c0,2.1,0,6.9,0,6.9c3.1-1.8,4.4-2.7,5.9-3.4c2.4-1.1,7.2-2.1,12.2-0.7
				c-0.1,0-0.1-0.1-0.2-0.1c-3.3-2.2-7.3-2.8-11.1-1.9c-0.7,0.2-1.4,0.3-2.1,0.4c-0.8,0.1-1.4-0.6-1.2-1.4c0.8-2.6,2.2-7.7,2.7-9.7
				c0.8-2.9,0.4-5.7,0-8.6c-0.9-2.8-2.5-5.1-5.7-5.7c-1.1-0.2-1.3-1.7-1.5-2.6c-0.3-1.5-0.5-3-0.6-4.6c-0.1-3.6,0.5-7.3,2-10.6
				c0.8-1.7,1.7-3.2,2.9-4.6c1.3-1.4,2.7-2.4,4.2-3.5c0.1-0.1,0.2-0.1,0.3-0.2c1.3-1.1,1.3-2.3,1.3-3.9c0.1-3.1,2.5-4.3,5.3-4.9
				c-0.6,0.5-1.3,1.1-1.7,1.9c-0.4,0.6-0.3,3.6-0.4,4.4c-0.2,3-0.7,3.8-5.2,5.1c4,3.2,6.9,5.6,10.5,8.5c-5.7,1.4-8.2-2.8-11.7-5.1
				c0.3,6.8,7,7.3,10.5,10.8c-0.2,0.3-6.5-0.4-11.5-2.1c2.2,4.7,6.2,3.9,9.4,5.2c-1.5,1.5-4.7,1.3-6.9,1.7c-0.8,0.2-1.5-0.1-2.3,0.2
				c0.5,0.8,0.9,1.8,1.6,2.3c1.9,1.3,3.8,2.5,5.9,3.3c1.1,0.4,2.6,0.3,3.7-0.1c4.6-1.6,9.1-3.4,14-5.2c1.2-0.5,2-1.6,2.1-2.9
				c0-1.8,0.1-3.8-0.2-5.7c-0.1-1-1.5-2.3-2.6-2.7c-5-1.8-10.4-5.4-11.9-8.8c-1.2-2.5-0.8-10-0.8-11.2c0-0.8-0.5-3.8-1.9-6.2
				c-0.8-1.2-2.1-2.1-2.9-2.6c-1.6-1-3.4-1.5-5.2-2.1c-7.7-2.4-11-7.6-13.7-13c-0.6-1.3-1.5-3.8-2-5.9c-0.3-1.1,0.4-2.3,1.5-2.5
				c0.5,1.3,0.7,2.2,1.3,3.5c1,2.3,2.5,3.5,5.4,3.6c6.4,0,12.5,1.1,16,7.7c0.8,1.6,1.9,3.1,3.1,4.5c-2-1.5-3.1-3.7-5.9-6.4
				c-3.6-3.5-8.1-3.8-10.4-3.8c-3.3,0-5-0.8-5-0.8c1.1,2.1,3,2.3,6.3,2.7c0.4,0,0.8,0.1,1.2,0.3c-0.9,1.9-0.7,4.2,0.7,5.8
				c1.4,1.6,3.8,2.1,5.6,0.8c0.6-0.4,1.1-1,1.4-1.6c0.8,0.7,1.6,1.6,2.4,2.4c3.9,4.3,8.9,4.5,8.9,4.5s-0.7-3.8-1.1-5.7
				c3-1.2,1.4-3-0.1-4.7c-2.1-2.3-4.3-4.6-6.6-7c2.3-0.7,4-1.8,5.1-2.8c0,0-5.4,1.1-10.3,0.8c-0.7-0.1-1.7-0.6-2.2-1.1l0,0
				c3.6-0.7,9-2.8,10.8-3.9c-6.3-3.9-14.1-1.9-19.3-4.3c4.4-0.2,7.8-0.7,12.3-1.9c3.9-1,11.4-4.1,11.3-4.6H42.1
				c5.1-2.3,9.7-5.6,15.6-5.5c2.4,0,5.8,0.5,8.7,0.8c1.4,0.1,3.6,0.1,5,0c2.9-0.3,6.2-0.8,8.7-0.8c5.9-0.1,10.5,3.2,15.6,5.5
				c0,0,0,0,0,0H79.3l0,0c-0.1,0.4,7.5,3.5,11.3,4.6c4.5,1.2,7.9,1.7,12.3,1.9c0,0,0,0,0,0c-5.2,2.5-13,0.4-19.3,4.3c0,0,0,0,0,0
				c1.8,1.1,7.2,3.2,10.8,3.9c0,0,0,0,0,0l0,0c-0.5,0.6-1.4,1.1-2.2,1.1c-4.9,0.4-10.3-0.8-10.3-0.8c0,0,0,0,0,0
				c1.1,1,2.8,2.2,5.1,2.8c0,0,0,0,0,0c-2.3,2.4-4.4,4.7-6.6,7c-1.6,1.7-3.1,3.5-0.1,4.7c-0.4,1.9-1.1,5.7-1.1,5.7
				c0,0,5.1-0.2,8.9-4.5c0.8-0.9,1.6-1.7,2.4-2.4c0,0,0,0,0,0c0.3,0.6,0.8,1.2,1.4,1.6c1.8,1.3,4.2,0.8,5.6-0.8
				c1.4-1.6,1.5-3.9,0.7-5.8v0c0.4-0.1,0.8-0.2,1.2-0.3c3.2-0.4,5.1-0.6,6.3-2.7c0,0,0,0,0,0c0,0-1.7,0.8-5,0.8
				c-2.3,0-6.8,0.3-10.4,3.8c-2.8,2.7-3.9,4.9-5.9,6.4c0,0,0,0,0,0c1.2-1.4,2.3-3,3.1-4.5c3.5-6.6,9.6-7.7,16-7.7
				c2.9,0,4.3-1.3,5.4-3.6c0.6-1.4,0.8-2.3,1.3-3.5l0,0c1-0.3,2,0.6,1.8,1.6c-0.5,2.2-1.5,5.3-2.2,6.7c-2.7,5.3-6.1,10.6-13.7,13
				c-1.8,0.6-3.6,1.1-5.2,2.1c-0.9,0.5-2.1,1.4-2.9,2.6c-1.4,2.4-1.9,5.4-1.9,6.2c0,1.1,0.3,8.6-0.8,11.2c-1.5,3.4-6.9,7-11.9,8.8
				c-1.1,0.4-2.5,1.7-2.6,2.7c-0.3,1.9-0.2,3.9-0.2,5.7c0,1.3,0.8,2.4,2.1,2.9c4.9,1.9,9.4,3.6,14,5.2c1.1,0.4,2.7,0.5,3.7,0.1
				c2.1-0.8,4-2,5.9-3.3c0.7-0.5,1.1-1.5,1.6-2.3c0,0,0,0,0,0c-0.8-0.3-1.4-0.1-2.3-0.2c-2.3-0.4-5.4-0.3-6.9-1.7c0,0,0,0,0,0
				c3.3-1.3,7.2-0.4,9.4-5.2c0,0,0,0,0,0c-5.1,1.8-11.4,2.5-11.5,2.1c0,0,0,0,0,0c3.5-3.4,10.2-4,10.5-10.8c0,0,0,0,0,0
				c-3.5,2.3-6,6.5-11.7,5.1c0,0,0,0,0,0c3.6-2.9,6.5-5.3,10.5-8.5c0,0,0,0,0,0c-4.6-1.3-5-2.1-5.2-5.1c-0.1-0.8-0.1-3.8-0.4-4.4
				c-0.4-0.8-1.1-1.4-1.7-1.9c0,0,0,0,0,0c2.8,0.6,5.2,1.8,5.3,4.9c0.1,1.6,0,2.8,1.3,3.9c0.1,0.1,0.2,0.2,0.3,0.2
				c1.5,1.1,3,2.1,4.2,3.5c1.2,1.4,2.2,2.9,2.9,4.6c1.5,3.3,2.1,7,2,10.6c-0.1,1.5-0.3,3-0.6,4.6c-0.2,0.9-0.4,2.4-1.5,2.6
				c-3.2,0.6-4.9,2.9-5.7,5.7c-0.3,2.9-0.7,5.7,0,8.6c0.5,2,2,7.1,2.7,9.7c0.2,0.7-0.4,1.5-1.2,1.4c-0.7-0.1-1.4-0.3-2.1-0.4
				c-3.8-0.9-7.9-0.2-11.1,1.9c-0.1,0.1-0.1,0.1-0.2,0.1c5.1-1.3,9.8-0.4,12.2,0.7c1.6,0.7,2.8,1.6,5.9,3.4l0,0c0,0,0-4.8,0-6.9
				c0-1.9,2-3.3,3.4-2.7c4.2,1.8,2.2,12.6,2.2,16.6c0,0,0,0,0,0c0,0,7.5-16.5,8.1-17.9c0,0,0,0,0,0l0.6,5.2c0,0,0,0,0,0
				c0,0,11.3-16.4,16.6-24.6c0.4-0.7,1-3,1.1-3.8c1.4-8.1,0.7-10.3-0.2-16.2C134.1,135.6,132.8,132.7,131.8,128.7z"/>
			<path id="_x31__00000140732376131197870260000014103779109025369257_" class="st2" d="M82.3,131c0-2-1.9-2.9-1.9-2.9
				c-0.3,3.4-3.7,4.9-11.5,5c-7.8-0.1-11.3-1.6-11.6-5c0,0-1.9,0.9-1.9,2.9c0,2,2.1,2.5,2.8,2.6c1.9,0.5,4.8,1.8,10.5,1.8
				c5.7,0,8.7-1.3,10.7-1.8C80.2,133.4,82.3,133,82.3,131z"/>
		</g>
		<g id="RedTigerTxt_x5F_Red_00000088814273521961622670000018050558994904930945_">
			<path class="st2" d="M205.8,163.4h-21.3l-16.2-25.3h-0.2v25.3h-17.1V97.6h25.6c6.9,0,12.4,1.7,16.6,5.1c4.2,3.4,6.3,8.4,6.3,15.2
				c0,4.7-1.3,8.8-3.8,12.2c-2.5,3.4-6.1,5.6-10.6,6.4L205.8,163.4z M168.2,127.1h1.7c1.6,0,3-0.1,4.4-0.3c1.4-0.2,2.6-0.6,3.8-1.2
				c1.1-0.6,2-1.4,2.7-2.5c0.7-1.1,1-2.5,1-4.2c0-1.7-0.3-3.1-1-4.2c-0.7-1.1-1.6-1.9-2.7-2.5c-1.1-0.6-2.4-1-3.8-1.2
				c-1.4-0.2-2.8-0.3-4.4-0.3h-1.7V127.1z"/>
			<path class="st2" d="M227.6,112.1v11h19.3v14.5h-19.3v11.3h20.3v14.5h-37.5V97.6h37.5v14.5H227.6z"/>
			<path class="st2" d="M258.5,97.6h24.3c4.5,0,8.9,0.8,12.9,2.5c4.1,1.7,7.7,4,10.7,7c3.1,3,5.5,6.5,7.2,10.6
				c1.7,4,2.6,8.3,2.6,12.8c0,4.5-0.9,8.8-2.6,12.8c-1.7,4-4.2,7.5-7.3,10.5c-3.1,3-6.7,5.3-10.7,7c-4.1,1.7-8.4,2.5-12.8,2.5h-24.3
				V97.6z M275.6,148.9h3.8c2.6,0,5.1-0.4,7.3-1.1c2.3-0.7,4.3-1.8,6-3.4s3.1-3.5,4.1-5.8c1-2.4,1.5-5.1,1.5-8.2
				c0-5.8-1.7-10.3-5.1-13.5s-8-4.9-13.6-4.9h-4V148.9z"/>
			<path class="st2" d="M373,163.4h-17.1v-51.3h-14.1V97.6h45.4v14.5H373V163.4z"/>
			<path class="st2" d="M410.4,163.4h-17.1V97.6h17.1V163.4z"/>
			<path class="st2" d="M487.3,126.7c-0.1,5.7-0.6,10.5-1.4,14.5c-0.8,4-2.6,7.8-5.3,11.5c-3.1,4.4-7,7.6-11.7,9.7
				c-4.7,2.1-9.8,3.2-15.5,3.2c-5.1,0-9.8-0.8-14.1-2.5c-4.3-1.7-8-4-11.2-7.1c-3.2-3.1-5.6-6.8-7.3-11c-1.7-4.3-2.5-9-2.5-14.1
				c0-5.3,0.9-10.1,2.6-14.5c1.7-4.4,4.2-8.1,7.3-11.3c3.2-3.1,7-5.5,11.3-7.2c4.4-1.7,9.2-2.5,14.5-2.5c6.9,0,12.8,1.5,17.9,4.6
				s9,7.7,11.8,13.8l-16.2,6.8c-1.2-3.3-3.1-5.8-5.5-7.7s-5.4-2.8-8.7-2.8c-2.7,0-5.1,0.6-7.2,1.7c-2.2,1.2-4,2.7-5.4,4.8
				c-1.5,2-2.6,4.2-3.3,6.7c-0.8,2.5-1.1,5-1.1,7.6s0.4,5.1,1.1,7.6c0.8,2.5,1.9,4.7,3.4,6.7c1.5,2,3.3,3.5,5.5,4.7
				c2.2,1.1,4.6,1.7,7.4,1.7c3.8,0,7-1,9.5-3c2.5-2,3.9-4.8,4.3-8.5h-14v-13.4H487.3z"/>
			<path class="st2" d="M512.2,112.1v11h19.3v14.5h-19.3v11.3h20.3v14.5h-37.5V97.6h37.5v14.5H512.2z"/>
			<path class="st2" d="M597.9,163.4h-21.3l-16.2-25.3h-0.2v25.3h-17.1V97.6h25.6c6.9,0,12.4,1.7,16.6,5.1c4.2,3.4,6.3,8.4,6.3,15.2
				c0,4.7-1.3,8.8-3.8,12.2c-2.5,3.4-6.1,5.6-10.6,6.4L597.9,163.4z M560.3,127.1h1.7c1.6,0,3-0.1,4.4-0.3c1.4-0.2,2.6-0.6,3.8-1.2
				c1.1-0.6,2-1.4,2.7-2.5c0.7-1.1,1-2.5,1-4.2c0-1.7-0.3-3.1-1-4.2c-0.7-1.1-1.6-1.9-2.7-2.5c-1.1-0.6-2.4-1-3.8-1.2
				c-1.4-0.2-2.8-0.3-4.4-0.3h-1.7V127.1z"/>
		</g>
	</g>
</g>
<g id="Capa_10" class="st0">
	
		<image style="display:inline;overflow:visible;" width="1696" height="478" xlink:href="../../../../originals/Proveïdors/Games Global/SILVER-EFF-Games-Global-LOGO-white.png"  transform="matrix(0.3887 0 0 0.3887 -31.2544 37.6031)">
	</image>
</g>
<g id="Capa_11" class="st0">
	<g id="layer1_00000123429806177697052980000004696524674387152021_" transform="translate(62.774585,40.805308)" class="st1">
		<g id="g11933_00000099619975523134844560000005099578031353264535_" transform="translate(0.13229239,-0.13229145)">
			<path id="path11125_00000093136018381454742710000015738584344420184227_" class="st2" d="M76.1,69.3c-0.1-0.2-0.1-0.4-0.2-0.7
				c-5.7-13.9-27.3-18.1-52.1-11.8l-4.1-2.5c12.2-5.3,24.4-8,34.7-7.3C69.5,48.2,77,56.9,76.1,69.3 M54,98.6
				c-16,20.3-44.8,34.4-64.4,32.9C-30,130-33,112.3-17,92c0.3-0.4,0.7-0.8,1-1.2l0.1,25.5c-0.1,6.5,6.1,9.5,10.6,6.9l58.6-35.8
				c4.6-3,4.1-9.6-0.2-12.2L29.3,61.6c6.4-1.9,12.6-2.8,18.1-2.4C67,60.6,69.9,78.3,54,98.6 M-20.6,142.4
				c-18-1.4-25.2-13.2-20.5-29.4c0,2.7,0.4,5.3,1.4,7.7c7,17.3,38.6,19.6,70.5,5.3c0.7-0.3,1.3-0.6,1.9-0.9
				C14.8,136.6-5.1,143.6-20.6,142.4 M0.1,52l39.4,24.8c2.9,1.7,3.3,6.3,0.2,8.3l-39.8,24.3c-3,1.7-7.3-0.3-7.2-4.8l-0.2-48.2
				C-7.4,52.4-3.4,50,0.1,52 M91.2,60.9C83,40.6,48.7,36.2,11.6,49.3L-4.8,39c-5.1-2.9-11,0.6-11.3,6.6l0,16.7
				c-32,19.1-50.5,46.7-42.6,66.1c9.1,22.4,50.1,25.5,91.5,6.8C74.2,116.6,100.4,83.3,91.2,60.9"/>
			<path id="path11129_00000060004882095471547540000006779567553048208025_" class="st2" d="M124.1,90.1l-3.6,13.2
				c-0.5,2-0.9,3.8-1.3,5.4c-0.3,1.7-0.5,2.8-0.5,3.6c0,1.4,0.4,2.5,1.2,3.3c0.8,0.8,1.9,1.2,3.2,1.2c2.1,0,4.3-1.2,6.5-3.5
				c2.2-2.4,4.4-5.8,6.5-10.2c2.5-5.7,4.6-11.3,6.2-16.9c1.5-5.5,2.3-9.9,2.3-13c0-2.2-0.5-4.1-1.4-5.4c-0.9-1.4-2.1-2.1-3.4-2.1
				c-3.1,0-6,2-8.6,6C128.8,75.7,126.4,81.8,124.1,90.1 M101.7,59.6c5.6-0.4,10.8-1,15.9-1.7c5-0.6,9.9-1.4,14.6-2.3l-3.9,14.1
				c3.9-5.5,7.7-9.5,11.3-11.9c3.5-2.5,7.2-3.8,11-3.8c5.2,0,9.3,1.7,12.1,5c2.9,3.3,4.3,8.1,4.3,14.2c0,5.2-1,10.6-2.9,16.3
				c-2,5.7-4.7,11-8.2,15.9c-4.1,5.7-8.4,10-13,12.8c-4.6,2.9-9.5,4.3-14.7,4.3c-2.1,0-4.1-0.3-6-0.9c-1.8-0.7-3.5-1.6-5-2.8
				l-4,15.3c-0.3,0.9-0.5,1.9-0.6,2.9c-0.2,0.9-0.2,1.9-0.2,2.8c0,1.8,0.5,3.2,1.6,3.9c1.1,0.7,3.3,1.2,6.6,1.4v3.6H83V145
				c0.1,0,0.3,0,0.5-0.1c0.2-0.1,0.4-0.1,0.5-0.1c2.3,0,4.1-0.6,5.2-1.8c1.2-1.2,2.4-4.4,3.6-9.6l15-60.9c0.3-1,0.5-2,0.6-2.9
				c0.1-0.9,0.2-1.7,0.2-2.2c0-1.7-0.5-2.8-1.5-3.4c-1-0.7-2.9-1-5.6-1L101.7,59.6z"/>
			<path id="path11133_00000183971969620272016210000007707818574422402742_" class="st2" d="M170.6,26c5.6-0.5,11-1.1,16.2-1.8
				c5.2-0.7,10.1-1.6,14.7-2.6l-20.6,81.7c-0.1,0.4-0.3,1-0.5,1.7c-0.3,1.1-0.4,1.7-0.4,2.1c0,1,0.2,1.7,0.6,2.3
				c0.4,0.5,1,0.8,1.7,0.8c0.7,0,1.6-0.5,2.5-1.6c1-1,2.8-3.7,5.6-8.1l3.3,2.5c-4.1,6.9-8.1,12-11.9,15.1c-3.8,3.1-7.7,4.7-11.7,4.7
				c-3.6,0-6.4-1-8.3-3c-2-2-2.9-4.9-2.9-8.7c0-1.9,1-6.8,3-14.7l0.2-0.8l13.7-53.2c0.1-0.5,0.3-1.2,0.5-2.2
				c0.9-3.5,1.3-5.8,1.3-6.7c0-1.3-0.4-2.3-1.4-3c-0.9-0.6-2.3-1-4.3-1h-1.2L170.6,26z"/>
			<path id="path11137_00000140713271303883001770000005895609879811158406_" class="st2" d="M235.2,68.3c0-2-0.4-3.5-1.3-4.7
				c-0.9-1.2-2-1.7-3.3-1.7c-2,0-3.9,1-5.7,2.9c-1.8,2-3.9,5.2-6.3,9.7c-2.8,5.4-5,10.7-6.6,15.9c-1.6,5.2-2.4,9.7-2.4,13.4
				c0,2.2,0.4,4,1.3,5.3c0.9,1.2,2.1,1.9,3.6,1.9c2.2,0,4.5-1.3,6.8-4c2.3-2.7,4.5-6.5,6.6-11.3c2.2-5.4,3.9-10.7,5.3-15.7
				C234.5,74.8,235.2,70.9,235.2,68.3 M260.1,56.3l-11,40.4v0.1c-1.7,6.2-2.5,9.8-2.5,10.9c0,1,0.2,1.7,0.6,2.3
				c0.4,0.6,0.8,0.9,1.5,0.9c1.8,0,4.1-2.1,6.9-6.4c0.8-1.2,1.5-2.2,1.9-2.9l3.2,2.5c-3.6,6.3-7.2,11-10.8,13.9
				c-3.7,3-7.6,4.5-11.8,4.5c-3.5,0-6.2-0.8-8-2.3c-1.9-1.6-2.8-3.9-2.8-6.9c0-0.9,0.1-2.1,0.3-3.4c0.2-1.4,0.4-3.2,0.8-5.4
				c-3.3,6.1-7,10.6-10.9,13.5c-3.9,3-8.3,4.4-13.1,4.4c-5,0-8.9-1.5-11.7-4.6c-2.9-3.1-4.3-7.4-4.3-12.8c0-6.2,1.4-12.8,4.2-19.7
				c2.8-6.8,6.5-13,11.1-18.2c3.7-4.2,7.5-7.5,11.5-9.7c4-2.3,7.8-3.4,11.5-3.4c3.5,0,6.2,0.9,8.3,2.5c2,1.7,3.3,4.3,4,7.8l2-8.1
				L260.1,56.3z"/>
			<path id="path11141_00000171695413445097570090000002994424143407396751_" class="st2" d="M253.7,61.9v-3.7
				c5.4-0.6,10.8-1.3,16.3-2.2c5.5-0.8,8.5-1.2,8.9-1.2c2.2,0,5.1,9.7,8.6,29.2c1.4,7.8,2.6,14,3.5,18.7c4.2-8.5,7-14.6,8.6-18.5
				c1.5-3.8,2.3-6.7,2.3-8.5c0-1.4-1.3-3.1-3.9-5.1c-2.6-2-3.9-4.3-3.9-6.8c0-2.9,0.9-5.3,2.7-7c1.8-1.8,4.1-2.6,7.1-2.6
				c2.9,0,5.2,0.9,6.9,2.6c1.6,1.8,2.5,4.3,2.5,7.4c0,4-1.9,10.4-5.7,19.2c-3.8,8.8-9,18.7-15.6,29.8c-7.4,12.7-14.2,21.8-20.3,27.7
				c-6.1,5.8-12,8.7-17.6,8.7c-3.8,0-6.7-0.8-8.8-2.5c-2.1-1.7-3.2-4-3.2-6.9c0-2.7,0.9-4.8,2.8-6.6c1.8-1.7,4.2-2.6,7-2.6
				c2.2,0,4.6,0.9,7.2,2.7c2.5,1.8,4.3,2.6,5.1,2.6c1.5,0,3.3-1.3,5.2-3.9c2-2.6,3-5,3-7.4c0-1.7-0.2-3.9-0.5-6.6
				c-0.3-2.7-0.8-5.9-1.4-9.8c-1.3-8.3-2.6-15.9-3.9-22.7c-1.3-6.8-2.5-12.2-3.6-16.1c-0.9-3.4-1.9-5.6-2.9-6.6
				c-1-1-2.5-1.5-4.7-1.5h-0.2C254.6,61.8,254.1,61.9,253.7,61.9"/>
			<path id="path11145_00000156567084705848183790000002425907771966977696_" class="st2" d="M339.6,104.2
				c-4.1,5.8-8.2,10.3-12.2,13.4c-3.9,3.1-7.5,4.7-10.8,4.7c-2.6,0-4.7-0.9-6.2-2.6c-1.5-1.7-2.3-4-2.3-6.9c0-1,0.1-2.1,0.3-3.4
				c0.2-1.3,0.5-2.7,0.9-4.2L321.1,59h-12.5l1.2-4c5.4-1.2,10.1-3.7,14.2-7.7c4.1-4,7.9-9.4,11.1-16.5h4.3l-5.6,23.2h11.4l-1.1,4.9
				h-11.7L321,103.7c-0.3,1-0.5,1.9-0.6,2.7c-0.1,0.8-0.2,1.6-0.2,2.2c0,1.5,0.3,2.6,1,3.4c0.6,0.8,1.6,1.2,2.7,1.2
				c1.5,0,3.2-0.9,5.3-2.7c2.1-1.8,4.7-4.7,7.8-8.7L339.6,104.2z"/>
			<path id="path11149_00000008846385955880090270000017558395436423730578_" class="st2" d="M351.2,89c9.2-0.4,16.9-2.9,23.1-7.5
				c6.2-4.6,9.3-9.8,9.3-15.6c0-2-0.5-3.4-1.5-4.4c-1-0.9-2.5-1.4-4.5-1.4c-5.6,0-10.7,2.5-15.4,7.6C357.5,72.9,353.8,80,351.2,89
				 M350.1,93.9c-0.4,1.7-0.7,3.3-0.9,4.8c-0.2,1.5-0.3,2.9-0.3,4.1c0,3.9,0.9,6.8,2.9,8.9c1.9,2,4.7,3.6,8.4,3.6
				c3.6,0,7.7-1.7,12.3-4.2c4.6-2.5,9.8-6.2,15.5-11.1l3,4.6c-6.8,6.1-13.2,10.7-19.3,13.6c-6,3-11.9,4.4-17.7,4.4
				c-5.7,0-10.1-1.7-13.2-5.1c-3.1-3.4-4.7-8.2-4.7-14.4c0-6,1.2-12,3.7-18.2c2.4-6.1,5.8-11.6,10-16.4c4.1-4.6,8.6-8,13.4-10.4
				c4.9-2.4,9.9-3.6,15.1-3.6c4.8,0,8.5,1.1,11.2,3.3c2.7,2.2,4.1,5.2,4.1,9.1c0,6.9-4,13-12,18C373.6,89.8,363.1,92.9,350.1,93.9"
				/>
			<path id="path11153_00000123416174910897636990000014599203566131330463_" class="st2" d="M439.6,94.8l-0.2,8.8
				c-4.3,6.3-9,11-14.1,14.2c-5.1,3.1-10.6,4.7-16.7,4.7c-6.6,0-12-2.2-16.1-6.7c-4.1-4.4-6.2-10.2-6.2-17.5
				c0-5.3,1.2-10.8,3.5-16.3c2.3-5.6,5.5-10.5,9.7-14.9c3.8-4,8-7.1,12.7-9.2c4.7-2.2,9.4-3.3,14.3-3.3c5.1,0,9.2,1.2,12.3,3.5
				c3,2.4,4.6,5.5,4.6,9.4c0,2.3-0.8,4.4-2.4,6c-1.6,1.7-3.4,2.5-5.6,2.5c-1.8,0-3.2-0.6-4.3-1.7c-1.1-1.2-1.6-2.7-1.6-4.6
				c0-1.3,0.4-2.8,1.3-4.6c0.9-1.7,1.3-2.8,1.3-3.2c0-0.8-0.4-1.5-1.3-2c-0.9-0.5-2.1-0.8-3.7-0.8c-3.2,0-6.4,1-9.7,3
				c-3.3,2-6.2,4.8-8.6,8.2c-3,4.2-5.3,8.7-7,13.4c-1.6,4.7-2.4,9.3-2.4,13.8c0,5.1,1.3,9.2,3.9,12.2c2.6,3,6.2,5,10.6,5
				c3.5,0,7-1.6,10.4-3.8C427.8,108.8,433.5,104.3,439.6,94.8"/>
			<path id="path11157_00000173842853978711491820000012787329808350841766_" class="st2" d="M431.8,122.5l23.3-84.5
				c0.1-0.5,0.2-1,0.3-1.6c0.1-0.5,0.1-1.1,0.1-1.5c0-1.5-0.4-2.5-1.1-3.1c-0.7-0.5-2.9-0.8-6.3-0.8h-5.3l0.8-3.9
				c4.3-0.2,8.3-0.7,12-1.4c3.7-0.8,7.2-1.8,10.5-3.1h4.2L454.2,81c8.3-8.4,15.9-14.9,22.8-19.6c6.9-4.6,12.4-7,16.5-7
				c2.2,0,3.7,0.5,4.8,1.5c1,1.1,1.6,2.7,1.6,4.9c0,0.7-0.1,1.5-0.3,2.5c-0.2,1-0.4,2.1-0.7,3.3l-11.8,39.7
				c-0.2,0.8-0.4,1.6-0.5,2.5c-0.2,0.9-0.2,1.8-0.2,2.7c0,0.5,0.2,1,0.7,1.4c0.4,0.4,0.9,1.1,1.5,1.1c1.1,0,2.8-1.3,4.8-2.8
				c2-1.6,4.2-3.7,6.4-6.4l2.4,2.1c-4.1,5-8,8.9-11.7,11.5c-3.8,2.7-7.2,4-10.4,4c-2.1,0-3.7-0.5-4.9-1.5c-1.2-1-1.8-2.4-1.8-4.1
				c0-0.6,0.1-1.3,0.2-2c0.1-0.7,0.4-1.5,0.6-2.3l12.1-41.1c0.2-0.9,0.4-1.6,0.4-2.1c0.1-0.4,0.1-0.9,0.1-1.3c0-1-0.3-1.8-0.9-2.4
				c-0.6-0.5-1.4-0.8-2.5-0.8c-1.7,0-4.3,1.1-7.6,3.2c-3.4,2.2-7.2,5.3-11.7,9.3c-4,3.6-6.9,6.6-8.7,9.1c-1.8,2.5-3.2,5.1-4,7.8
				l-8,28.3c-0.9-0.1-4.2-0.2-5.1-0.3c-0.9-0.1,0.4-0.1-0.5-0.1c-1,0-2,0-2.9,0.1C433.8,122.3,432.8,122.4,431.8,122.5"/>
			<path id="path11161_00000137131844426195425060000006987996131090419109_" class="st2" d="M293.4,145.7v1.1
				c0,0.6,0.1,1.1,0.2,1.6c0.3,1.3,1.4,2,3.3,2c0.7,0,1.3-0.1,1.9-0.3c1.3-0.4,1.9-1.3,1.9-2.8c0-1-0.4-1.8-1.2-2.4
				c-0.6-0.4-1.3-0.8-2.1-1.1l-2.4-1.1c-1-0.4-1.8-0.9-2.4-1.3c-1.3-0.9-2-2.3-2-4c0-1.9,0.8-3.3,2.3-4.1c1.1-0.6,2.6-0.9,4.6-0.9
				c2.4,0,4.1,0.4,5.1,1.3c0.8,0.7,1.2,2.1,1.2,4.2v0.4h-3.3v-0.5l-0.1-1c-0.2-1.5-1.2-2.3-3-2.2c-2.3,0-3.4,0.9-3.4,2.7
				c0,1.1,0.7,2.1,2.1,2.8c0.9,0.5,1.9,0.9,3,1.4c1.1,0.5,2,0.9,2.7,1.3c1.6,1,2.4,2.5,2.4,4.5c0,3.6-2.4,5.4-7.2,5.4
				c-2,0-3.6-0.3-4.7-1c-1.3-0.8-2-2-2.1-3.5l0-1.6v-0.8L293.4,145.7z"/>
			<path id="path11165_00000055709196718773605730000011368925847362561181_" class="st2" d="M306.3,139c0-1.6,0.2-2.8,0.4-3.6
				c0.5-1.2,1.4-2,3-2.5c1.1-0.4,2.3-0.6,3.6-0.6c1.2,0,2.4,0.2,3.5,0.6c1.5,0.5,2.5,1.3,2.9,2.5c0.3,0.7,0.4,1.9,0.5,3.6v6.6
				c0,1.2-0.1,2.2-0.2,3.1c-0.4,2.6-2.6,3.9-6.7,3.9c-2.9,0-4.9-0.6-5.9-1.8c-0.8-0.9-1.1-2.7-1.1-5.2L306.3,139z M309.6,145.6
				c0,1.7,0.1,2.7,0.4,3.2c0.2,0.5,0.7,0.9,1.3,1.2c0.6,0.3,1.3,0.4,2,0.4c0.6,0,1.2-0.1,1.7-0.4c1.1-0.4,1.6-1.2,1.8-2.3
				c0.1-0.6,0.1-1.3,0.1-2.2V139c0-1.4-0.1-2.4-0.5-3c-0.5-0.9-1.6-1.4-3.1-1.4c-0.6,0-1.2,0.1-1.7,0.3c-1.1,0.4-1.7,1.1-1.8,2.3
				c-0.1,0.5-0.1,1.1-0.1,1.8V145.6z"/>
			<path id="path11169_00000181071837286253064270000007899376189483625610_" class="st2" d="M323.2,132.6h3.3v13.2l0,1.7
				c0.1,1.9,1.2,2.9,3.3,2.9c2.1,0,3.3-0.9,3.5-2.7c0.1-0.6,0.1-1.3,0.1-1.9v-13.2h3.3V146c0,1.1-0.1,1.9-0.1,2.5
				c-0.1,0.9-0.5,1.7-1.1,2.3c-1.2,1.2-3.1,1.8-5.6,1.8c-2.6,0-4.5-0.6-5.7-1.8c-0.6-0.7-1-1.4-1.1-2.3c-0.1-0.5-0.1-1.4-0.1-2.5
				L323.2,132.6z"/>
			<path id="path11173_00000001644510975449912540000011252921152146855596_" class="st2" d="M345.6,132.6h2c0.8,0,1.5,0.1,2.1,0.2
				c2.5,0.4,3.7,2,3.8,4.7c0,1.5-0.3,2.5-1,3.3c-0.6,0.7-1.9,1.2-3.7,1.5v0c1.1,0.1,1.9,0.3,2.4,0.5c0.7,0.4,1.2,0.9,1.3,1.7
				c0.1,0.5,0.2,1.1,0.2,1.8l0.1,2.3c0.1,0.9,0.1,1.6,0.3,2.1c0.1,0.4,0.2,0.9,0.5,1.6h-3.5l-0.3-1.3c-0.1-0.4-0.2-0.8-0.2-1.4
				l-0.1-1.8l-0.1-1.8c-0.2-1.4-0.8-2.3-2-2.5c-0.5-0.1-1.1-0.2-1.7-0.2h-2.3v8.9H340v-19.7L345.6,132.6z M343.4,134.8v6.3h2.4
				c0.7,0,1.3,0,1.9-0.1c1-0.2,1.7-0.6,2.1-1.2c0.3-0.4,0.4-1.2,0.4-2.2c0-1.1-0.4-1.9-1.1-2.3c-0.5-0.3-1.5-0.5-3-0.5L343.4,134.8z
				"/>
			<path id="path11177_00000021102932336613198790000003369106155419087747_" class="st2" d="M366.1,137.8l0-0.9
				c-0.1-1.6-1-2.4-2.8-2.3c-1.6,0-2.6,0.4-3.1,1.2c-0.3,0.4-0.4,0.8-0.4,1.2l0,1.6v7.8c0,1.4,0.1,2.3,0.4,2.7
				c0.6,0.8,1.5,1.3,2.9,1.3c1.8,0,2.8-0.8,3-2.5l0.1-1.3v-0.7h3.3v0.7l0,1.2c-0.1,1.5-0.6,2.6-1.5,3.4c-0.5,0.5-1.2,0.8-1.9,1
				c-0.9,0.2-1.8,0.4-2.9,0.4c-0.9,0-1.7-0.1-2.6-0.2c-2.8-0.5-4.1-2.4-4.2-5.5V139c0-0.9,0-1.6,0.2-2.4c0.1-0.9,0.4-1.7,0.9-2.2
				c1.1-1.3,3-2,5.7-2c3.9,0,5.9,1.2,6.2,3.7c0.1,0.5,0.1,1,0.1,1.6v0.8h-3.3L366.1,137.8z"/>
			<path id="path11181_00000108301445538768773190000002500536293399726209_" class="st2" d="M372.3,132.6h11v2.2h-7.6v6.3h7.1v2.2
				h-7.1v6.8h7.8v2.2h-11.2L372.3,132.6z"/>
			<path id="path11193_00000052815416043167971080000008508770107389254801_" class="st2" d="M392.2,139c0-1.6,0.1-2.8,0.4-3.6
				c0.4-1.2,1.4-2,3-2.5c1.1-0.4,2.3-0.6,3.6-0.6c1.2,0,2.4,0.2,3.6,0.6c1.5,0.5,2.5,1.3,2.9,2.5c0.3,0.7,0.4,1.9,0.5,3.6v6.6
				c0,1.2-0.1,2.2-0.2,3.1c-0.4,2.6-2.6,3.9-6.7,3.9c-3,0-4.9-0.6-5.9-1.8c-0.8-0.9-1.1-2.7-1.1-5.2L392.2,139z M395.5,145.6
				c0,1.7,0.1,2.7,0.4,3.2c0.2,0.5,0.7,0.9,1.3,1.2c0.6,0.3,1.3,0.4,2,0.4c0.6,0,1.2-0.1,1.8-0.4c1-0.4,1.6-1.2,1.7-2.3
				c0.1-0.6,0.1-1.3,0.1-2.2V139c0-1.4-0.1-2.4-0.5-3c-0.5-0.9-1.6-1.4-3.1-1.4c-0.6,0-1.2,0.1-1.7,0.3c-1.1,0.4-1.7,1.1-1.8,2.3
				c-0.1,0.5-0.1,1.1-0.1,1.8L395.5,145.6z"/>
			<path id="path11197_00000026160474539761153330000011397195984293264553_" class="st2" d="M419.8,132.6v2.2h-7.3v6.2h7v2.2h-7v9
				h-3.4v-19.7H419.8z"/>
			<path id="path11209_00000127036309466996291390000007615249390686023298_" class="st2" d="M431,145.7v1.1c0,0.6,0,1.1,0.2,1.6
				c0.3,1.3,1.4,2,3.3,2c0.7,0,1.3-0.1,1.9-0.3c1.2-0.4,1.9-1.3,1.9-2.8c0-1-0.4-1.8-1.2-2.4c-0.6-0.4-1.3-0.8-2.1-1.1l-2.4-1.1
				c-1-0.4-1.8-0.9-2.4-1.3c-1.3-0.9-2-2.3-2-4c0-1.9,0.8-3.3,2.3-4.1c1.1-0.6,2.6-0.9,4.5-0.9c2.4,0,4.1,0.4,5.1,1.3
				c0.8,0.7,1.2,2.1,1.2,4.2v0.4h-3.3v-0.5l-0.1-1c-0.2-1.5-1.2-2.3-3-2.2c-2.3,0-3.4,0.9-3.4,2.7c0,1.1,0.7,2.1,2.1,2.8
				c0.9,0.5,1.9,0.9,3,1.4c1.1,0.5,2,0.9,2.7,1.3c1.6,1,2.4,2.5,2.4,4.5c0,3.6-2.4,5.4-7.2,5.4c-2,0-3.6-0.3-4.7-1
				c-1.3-0.8-2-2-2.1-3.5l-0.1-1.6v-0.8L431,145.7z"/>
			<path id="path11213_00000177448030885687607270000014231338118663440543_" class="st2" d="M444,132.6h3.3v13.2l0,1.7
				c0.1,1.9,1.2,2.9,3.3,2.9c2.1,0,3.3-0.9,3.5-2.7c0.1-0.6,0.1-1.3,0.1-1.9v-13.2h3.4V146c0,1.1-0.1,1.9-0.1,2.5
				c-0.1,0.9-0.5,1.7-1.1,2.3c-1.2,1.2-3.1,1.8-5.6,1.8c-2.6,0-4.5-0.6-5.7-1.8c-0.6-0.7-1-1.4-1.1-2.3c-0.1-0.5-0.1-1.4-0.1-2.5
				L444,132.6z"/>
			<path id="path11217_00000036933130607979748250000012263046298066979237_" class="st2" d="M470.7,137.8l0-0.9
				c-0.1-1.6-1-2.4-2.8-2.3c-1.6,0-2.6,0.4-3.1,1.2c-0.3,0.4-0.4,0.8-0.4,1.2l0,1.6v7.8c0,1.4,0.1,2.3,0.4,2.7
				c0.5,0.8,1.5,1.3,2.9,1.3c1.8,0,2.8-0.8,3-2.5l0.1-1.3v-0.7h3.3v0.7l0,1.2c-0.1,1.5-0.6,2.6-1.5,3.4c-0.6,0.5-1.2,0.8-1.9,1
				c-0.9,0.2-1.9,0.4-2.9,0.4c-0.9,0-1.8-0.1-2.6-0.2c-2.8-0.5-4.1-2.4-4.1-5.5V139c0-0.9,0-1.6,0.1-2.4c0.1-0.9,0.4-1.7,0.9-2.2
				c1.1-1.3,3-2,5.7-2c3.9,0,5.9,1.2,6.2,3.7c0.1,0.5,0.1,1,0.1,1.6v0.8h-3.3L470.7,137.8z"/>
			<path id="path11221_00000147938488590781574960000011046781459451704738_" class="st2" d="M486.8,137.8l0-0.9
				c-0.1-1.6-1-2.4-2.8-2.3c-1.6,0-2.6,0.4-3.1,1.2c-0.3,0.4-0.4,0.8-0.4,1.2l0,1.6v7.8c0,1.4,0.2,2.3,0.4,2.7
				c0.6,0.8,1.5,1.3,2.9,1.3c1.8,0,2.8-0.8,3-2.5l0.1-1.3v-0.7h3.3v0.7l0,1.2c-0.1,1.5-0.6,2.6-1.5,3.4c-0.5,0.5-1.2,0.8-2,1
				c-0.9,0.2-1.9,0.4-2.9,0.4c-0.9,0-1.8-0.1-2.6-0.2c-2.8-0.5-4.1-2.4-4.2-5.5V139c0-0.9,0-1.6,0.2-2.4c0.1-0.9,0.4-1.7,0.9-2.2
				c1.1-1.3,3-2,5.8-2c3.9,0,5.9,1.2,6.2,3.7c0.1,0.5,0.1,1,0.1,1.6v0.8h-3.3L486.8,137.8z"/>
			<path id="path11225_00000099636623716866069100000000731812202074261944_" class="st2" d="M493.1,132.6H504v2.2h-7.6v6.3h7.1v2.2
				h-7.1v6.8h7.8v2.2h-11.2V132.6z"/>
			<path id="path11237_00000057109618465127806300000014577270453239187094_" class="st2" d="M509.2,145.7v1.1
				c0,0.6,0.1,1.1,0.2,1.6c0.3,1.3,1.4,2,3.3,2c0.7,0,1.3-0.1,1.9-0.3c1.2-0.4,1.9-1.3,1.9-2.8c0-1-0.4-1.8-1.3-2.4
				c-0.6-0.4-1.3-0.8-2.1-1.1l-2.4-1.1c-1-0.4-1.8-0.9-2.4-1.3c-1.3-0.9-2-2.3-2-4c0-1.9,0.8-3.3,2.3-4.1c1.1-0.6,2.6-0.9,4.6-0.9
				c2.4,0,4.1,0.4,5.1,1.3c0.8,0.7,1.2,2.1,1.2,4.2v0.4h-3.3v-0.5l-0.1-1c-0.2-1.5-1.2-2.3-3-2.2c-2.2,0-3.4,0.9-3.4,2.7
				c0,1.1,0.7,2.1,2.1,2.8c0.9,0.5,1.9,0.9,3,1.4c1.1,0.5,2,0.9,2.7,1.3c1.6,1,2.4,2.5,2.4,4.5c0,3.6-2.4,5.4-7.2,5.4
				c-2,0-3.6-0.3-4.7-1c-1.3-0.8-2-2-2.1-3.5l-0.1-1.6v-0.8L509.2,145.7z"/>
			<path id="path11241_00000156571438394194730240000017400763166973706678_" class="st2" d="M524.7,145.7v1.1
				c0,0.6,0.1,1.1,0.2,1.6c0.3,1.3,1.4,2,3.3,2c0.7,0,1.3-0.1,1.9-0.3c1.3-0.4,1.9-1.3,2-2.8c0-1-0.4-1.8-1.3-2.4
				c-0.6-0.4-1.3-0.8-2.1-1.1l-2.4-1.1c-1-0.4-1.8-0.9-2.4-1.3c-1.3-0.9-2-2.3-2-4c0-1.9,0.8-3.3,2.3-4.1c1.1-0.6,2.6-0.9,4.6-0.9
				c2.4,0,4,0.4,5.1,1.3c0.8,0.7,1.2,2.1,1.2,4.2v0.4h-3.3v-0.5l-0.1-1c-0.2-1.5-1.2-2.3-3-2.2c-2.2,0-3.4,0.9-3.4,2.7
				c0,1.1,0.7,2.1,2.1,2.8c0.9,0.5,1.9,0.9,3,1.4c1.1,0.5,2,0.9,2.7,1.3c1.6,1,2.4,2.5,2.4,4.5c0,3.6-2.4,5.4-7.2,5.4
				c-2,0-3.6-0.3-4.7-1c-1.3-0.8-2-2-2.1-3.5l-0.1-1.6v-0.8L524.7,145.7z"/>
		</g>
	</g>
</g>
</svg>
