<?xml version="1.0" encoding="utf-8"?>
<!-- Generator: Adobe Illustrator 27.0.0, SVG Export Plug-In . SVG Version: 6.00 Build 0)  -->
<svg version="1.1" xmlns="http://www.w3.org/2000/svg" xmlns:xlink="http://www.w3.org/1999/xlink" x="0px" y="0px"
	 viewBox="0 0 600 250" style="enable-background:new 0 0 600 250;" xml:space="preserve">
<style type="text/css">
	.st0{display:none;}
	.st1{display:inline;}
	.st2{fill:#FFFFFF;}
	.st3{fill-rule:evenodd;clip-rule:evenodd;fill:#BE1C2B;}
	.st4{fill-rule:evenodd;clip-rule:evenodd;fill:#FFFFFF;}
</style>
<g id="Capa_1" class="st0">
	<rect class="st1" width="600" height="250"/>
</g>
<g id="Capa_2" class="st0">
	<g class="st1">
		<path class="st2" d="M446.1,73.8C426,75,435,101.2,457.3,99.9C479.1,98.5,467.6,72.4,446.1,73.8z"/>
		<path class="st2" d="M437.6,57.6c-35.8,0-64.8,29-64.8,64.8c0,35.8,29,64.8,64.8,64.8c35.8,0,64.8-29,64.8-64.8
			C502.5,86.6,473.4,57.6,437.6,57.6z M437.6,180.4c-32,0-58-26-58-58c0-32,26-58,58-58c32,0,58,26,58,58
			C495.7,154.5,469.7,180.4,437.6,180.4z"/>
		<g>
			<path class="st2" d="M435.7,12.3C420.3,24,423,41.8,423,41.8s-9.7-25.1-22.2-40.5c-1.7,19.8,4.5,45.9,4.5,45.9
				s-7.9-16.2-27.1-17.1c16,9.2,22.2,25.7,23.6,30.2c9.3-5.7,20-9.2,31.6-9.6C432,46.6,427.6,29.2,435.7,12.3z"/>
		</g>
		<path class="st2" d="M103.1,128.8v13.6h-5.6v-35h11.9c4,0,7.1,1,9.1,2.9c2,1.9,3,4.5,3,7.9c0,3.3-1,5.9-3.1,7.8
			c-2.1,1.9-5.1,2.8-9,2.8H103.1z M115.8,118.1c0-2-0.6-3.5-1.7-4.5c-1.1-1-2.9-1.6-5.3-1.6h-5.6v12.1h5.6
			C113.4,124.2,115.8,122.2,115.8,118.1z"/>
		<path class="st2" d="M144.8,142.3l-8.7-14h-4v14h-5.6v-35h12.3c4,0,7,1,9.1,2.9c2.1,1.9,3.1,4.5,3.1,7.7c0,2.7-0.8,5-2.3,6.7
			c-1.5,1.8-3.8,2.9-6.7,3.4l9.2,14.2H144.8z M132.1,124.4h6.2c4.6,0,6.8-2,6.8-6c0-1.9-0.6-3.4-1.7-4.5c-1.1-1.1-2.8-1.6-5.2-1.6
			h-6.2V124.4z"/>
		<path class="st2" d="M176.9,134.8h-14.8l-2.7,7.6h-6l12.9-34.4h6.5l12.8,34.4h-6L176.9,134.8z M175.3,130.4l-5.8-16.3l-5.8,16.3
			H175.3z"/>
		<path class="st2" d="M214.2,110.2c2.8,2,4.6,4.8,5.5,8.4h-5.9c-0.8-1.9-2-3.4-3.7-4.5c-1.7-1.1-3.8-1.7-6.2-1.7
			c-2.2,0-4.1,0.5-5.9,1.5c-1.7,1-3.1,2.5-4.1,4.4c-1,1.9-1.5,4.1-1.5,6.6c0,2.7,0.5,5,1.5,6.9c1,1.9,2.4,3.4,4.2,4.4
			c1.8,1,3.9,1.5,6.3,1.5c2.9,0,5.4-0.9,7.5-2.7c2.1-1.8,3.3-4.3,3.8-7.4h-12.8v-4.2h17.6v5.4c-0.4,2.6-1.3,4.9-2.7,7
			c-1.4,2.1-3.3,3.8-5.7,5c-2.4,1.3-5.1,1.9-8.1,1.9c-3.4,0-6.4-0.8-9-2.3c-2.6-1.5-4.6-3.6-6-6.3c-1.4-2.7-2.1-5.8-2.1-9.2
			c0-3.5,0.7-6.5,2.1-9.2c1.4-2.7,3.4-4.8,6-6.3c2.6-1.5,5.6-2.3,9-2.3C207.9,107.1,211.4,108.1,214.2,110.2z"/>
		<path class="st2" d="M260.2,107.9v34.4h-5.7v-25.8l-10,25.8h-5l-10-25.8v25.8H224v-34.4h6.8l11.4,27.5l11.2-27.5H260.2z"/>
		<path class="st2" d="M287.8,134.8h-14.8l-2.7,7.6h-6l12.9-34.4h6.5l12.8,34.4h-6L287.8,134.8z M286.2,130.4l-5.8-16.3l-5.8,16.3
			H286.2z"/>
		<path class="st2" d="M320.7,107.4v4.6h-9.8v30.4h-5.7v-30.4h-9.7v-4.6H320.7z"/>
		<path class="st2" d="M329.4,107.4v35h-5.6v-35H329.4z"/>
		<path class="st2" d="M361.3,110.3c2.8,2.2,4.8,5.1,5.7,8.9h-6c-0.8-2.1-2.1-3.8-3.9-5c-1.8-1.2-4-1.9-6.6-1.9
			c-2.1,0-3.9,0.5-5.6,1.5c-1.6,1-2.9,2.5-3.9,4.4c-0.9,1.9-1.4,4.1-1.4,6.7c0,2.5,0.5,4.7,1.4,6.6c0.9,1.9,2.2,3.4,3.9,4.4
			c1.6,1,3.5,1.5,5.6,1.5c2.6,0,4.8-0.6,6.6-1.9c1.8-1.2,3.1-2.9,3.9-5h6c-1,3.7-2.9,6.7-5.7,8.8c-2.8,2.2-6.4,3.2-10.7,3.2
			c-3.3,0-6.2-0.8-8.8-2.3c-2.5-1.5-4.5-3.6-5.9-6.3c-1.4-2.7-2.1-5.8-2.1-9.2c0-3.5,0.7-6.5,2.1-9.2c1.4-2.7,3.3-4.8,5.9-6.3
			c2.5-1.5,5.5-2.3,8.8-2.3C354.9,107,358.5,108.1,361.3,110.3z"/>
		<path class="st2" d="M393.7,128.8v13.6H388v-35h11.9c4,0,7.1,1,9.1,2.9c2,1.9,3,4.5,3,7.9c0,3.3-1,5.9-3.1,7.8s-5.1,2.8-9,2.8
			H393.7z M406.3,118.1c0-2-0.6-3.5-1.7-4.5c-1.1-1-2.9-1.6-5.3-1.6h-5.6v12.1h5.6C404,124.2,406.3,122.2,406.3,118.1z"/>
		<path class="st2" d="M421.7,137.9h12.1v4.4h-17.7v-35h5.6V137.9z"/>
		<path class="st2" d="M459.7,134.8h-14.8l-2.7,7.6h-6l12.9-34.4h6.5l12.8,34.4h-6L459.7,134.8z M458.1,130.4l-5.8-16.3l-5.8,16.3
			H458.1z"/>
		<path class="st2" d="M491.1,107.4l-11.6,22.2v12.7h-5.7v-12.7l-11.7-22.2h6.5l8,16.2l8-16.2H491.1z"/>
	</g>
</g>
<g id="Capa_3" class="st0">
	<g class="st1">
		<path id="YGGDRASIL_00000168091770310875597120000013395317197499273397_" class="st2" d="M518.2,102.8h9.4v34.3h19.9v8.6h-29.3
			V102.8z M501,145.7h9.4v-42.9H501V145.7z M460.1,139.2c5.1,4.6,11.7,6.9,18.1,6.9c9.2,0,15.7-4.8,15.7-13.3v-0.1
			c0-7.5-4.9-10.6-13.5-12.9c-7.4-1.9-9.2-2.8-9.2-5.6V114c0-2.1,1.9-3.7,5.5-3.7c3.6,0,7.3,1.6,11.1,4.2l4.9-7.1
			c-4.3-3.5-9.6-5.5-15.9-5.5c-8.7,0-14.9,5.1-14.9,12.9v0.1c0,8.5,5.6,10.9,14.2,13.1c7.1,1.8,8.6,3.1,8.6,5.5v0.1
			c0,2.5-2.3,4-6.2,4c-4.9,0-8.9-2-12.7-5.2L460.1,139.2 M458.2,145.9l-18.3-43.2h-8.7l-18.3,43.2h9.6l12.9-31.9l5.6,13.8h-7.5
			l-3.3,8.3h14.2l3.9,9.7H458.2z M345.8,102.8c13.4,0,22.7,9.2,22.7,21.3v0.1c0,12.1-9.3,21.4-22.7,21.4h-14.7v-42.9H345.8
			 M358.6,124.3c0-7.6-5.2-12.9-12.9-12.9h-5.3v25.9h5.3c7.7,0,12.9-5.2,12.9-12.8V124.3z M310.1,123.4v7.4h4.4v4.5
			c-2.4,1.7-5.4,2.6-8.8,2.6c-7.6,0-12.9-5.8-12.9-13.6v-0.1c0-7.3,5.4-13.4,12.3-13.4c4.9,0,7.9,1.6,11.2,4.3l5.9-7.2
			c-4.5-3.8-9.1-5.9-16.8-5.9c-12.9,0-22.4,10-22.4,22.2v0.1c0,12.7,9.2,22.1,22.4,22.1c7.8,0,13.8-3.1,18.2-6.8v-16.3H310.1z
			 M263.2,123.4v7.4h4.4v4.5c-2.4,1.7-5.4,2.6-8.8,2.6c-7.6,0-12.9-5.8-12.9-13.6v-0.1c0-7.3,5.4-13.4,12.3-13.4
			c4.9,0,7.9,1.6,11.2,4.3l5.9-7.2c-4.5-3.8-9.1-5.9-16.8-5.9c-12.9,0-22.4,10-22.4,22.2v0.1c0,12.7,9.2,22.1,22.4,22.1
			c7.8,0,13.8-3.1,18.2-6.8v-16.3H263.2z M211.2,145.7h9.4v-13.8l16.4-29.1h-10.7L216,121.9l-10.2-19.1h-11l16.4,29.2V145.7z
			 M399.6,130.4c5.4-2,9.2-6.4,9.2-13.3V117c0-4-1.3-7.4-3.7-9.8c-2.8-2.8-7-4.3-12.4-4.3h-18.1v42.9h9.4v-34.4h7.9
			c4.6,0,7.4,2.1,7.4,6.1v0.1c0,3.6-2.6,6.1-7.2,6.1h-4.6v8.3h2.5l9.2,13.7h11L399.6,130.4z"/>
		<path id="YGG_SYMBOL_00000163043259598484490570000009778606806017912992_" class="st2" d="M172.2,131.7c-0.3,4.7-1.1,9.4-2.6,14
			c-22.6-1.4-42.9-11.6-57.3-27.2c-14.4,15.7-34.7,25.9-57.3,27.2c-1.4-4.6-2.3-9.3-2.6-14c7.6-0.3,14.9-1.7,21.7-4.2
			c-6-5-13-8.9-20.6-11.3c0.9-4.6,2.4-9.1,4.4-13.5c11.3,3.7,21.5,9.9,29.9,18c5.1-3.2,9.7-7.1,13.8-11.4
			c-14-2.4-26.3-9.5-35.5-19.5c3.1-3.7,6.5-7,10.2-9.8c5.4,6,12.2,10.6,20,13.4c-2.8-6.7-4.7-13.9-5.7-21.3
			c4.5-1.7,9.1-2.9,13.8-3.5c1,9.2,3.7,17.9,7.9,25.8c4.2-7.8,6.9-16.5,7.9-25.8c4.7,0.6,9.3,1.8,13.8,3.6c-1,7.5-2.9,14.6-5.7,21.3
			c7.8-2.7,14.6-7.4,20-13.4c3.9,2.9,7.3,6.2,10.2,9.8c-9.2,10-21.5,17.1-35.5,19.5c4.1,4.4,8.7,8.2,13.8,11.4
			c8.3-8.1,18.5-14.4,29.9-18c2,4.3,3.5,8.8,4.4,13.5c-7.6,2.4-14.6,6.3-20.6,11.3C157.3,129.9,164.6,131.4,172.2,131.7z
			 M119.4,187.5v-20.1l20.3-26.5c-4.4-1.9-8.6-4.2-12.6-6.8l-14.8,19.3L97.5,134c-4,2.6-8.2,4.9-12.6,6.8l20.3,26.5v20.1
			C109.9,188,114.7,188,119.4,187.5z"/>
	</g>
</g>
<g id="Capa_4" class="st0">
	<g class="st1">
		<path class="st2" d="M157.7,216.8h-5.8v-3.9c-1.3,1.9-2,2.5-3.9,3.4c-2.1,0.9-4.4,1.4-7.2,1.4c-10.3,0-17.4-6.4-17.4-15.6
			c0-9.1,7-15.1,17.7-15.1c9.2,0,15.4,3.9,16.6,10.4h-7.6c-0.8-1.4-1.3-2-2.2-2.8c-1.7-1.5-4.1-2.4-6.8-2.4c-6.1,0-10.4,4.1-10.4,10
			s4.5,10.1,10.7,10.1c4.7,0,7.9-2,9.4-6h-7.6V201h14.4V216.8z"/>
		<path class="st2" d="M175.9,207.4l-1.9,0.3c-4,0.6-5.1,1.2-5.1,3c0,1.5,1.4,2.4,3.7,2.4c2.5,0,5.4-1.2,6.5-2.7
			c0.5-0.7,0.7-1.5,0.7-3.2v-0.8C178.7,206.9,177.8,207.2,175.9,207.4 M174.9,194.3c3.4,0,6.1,0.5,8.1,1.7c2.6,1.4,3.4,3.1,3.4,7.3
			v9c0,2.3,0.2,3.3,0.8,3.9v0.7h-6.7l-0.6-2.5c-1.2,1.2-1.8,1.6-3,2.1c-1.7,0.7-4,1.2-6.2,1.2c-5.4,0-8.8-2.5-8.8-6.7
			c0-3.8,2.5-6,7.7-6.7l4.8-0.6c4.5-0.5,5.4-0.9,5.4-2.3c0-1.5-1.7-2.4-4.7-2.4c-3.4,0-4.7,0.9-5,3.4h-6.9
			C163.5,197.2,167.8,194.3,174.9,194.3"/>
		<path class="st2" d="M191.9,195.1h6.3v3.1c1.3-1.3,1.9-1.8,3.1-2.5c1.5-0.8,3-1.2,5-1.2c2.1,0,3.9,0.4,5.2,1.3
			c1.1,0.7,1.6,1.3,2.3,2.8c1.1-1.4,1.6-1.9,2.7-2.6c1.7-1,3.7-1.5,6-1.5c3,0,5.3,0.8,6.9,2.5c1.5,1.6,2,3.2,2,6.5v13.2h-6.6v-11
			c0-4.5-1.1-6-4.4-6c-3.6,0-5.4,2-5.4,6v11h-6.6v-11c0-4.4-1.2-6-4.4-6c-3.6,0-5.4,2-5.4,6v11h-6.6V195.1z"/>
		<path class="st2" d="M255.2,203.5c-0.6-2.9-2.8-4.6-6-4.6c-3.4,0-5.5,1.6-6,4.6H255.2z M258.9,214.6c-2.5,2-5.8,2.9-9.9,2.9
			c-8.2,0-13.2-4.3-13.2-11.4c0-7.3,5-11.8,13.1-11.8c8.4,0,13.6,4.7,13.6,12.3v0.9h-19.7c0.3,3.7,2.4,5.5,6.4,5.5
			c2.7,0,4.1-0.7,5.6-2.9h7.5C261.2,212.5,260.5,213.3,258.9,214.6"/>
		<path class="st2" d="M272.9,209.7c0.3,2.3,1.8,3.3,5.4,3.3c3,0,4.7-0.8,4.7-2.3c0-1.4-0.8-1.7-7-2.3l-2.6-0.3
			c-3.7-0.4-5.6-1.3-6.8-3.2c-0.5-0.8-0.8-1.8-0.8-2.9c0-4.8,4.4-7.7,11.7-7.7c7.4,0,11.7,2.7,11.8,7.4h-7.2c-0.3-2-1.7-2.7-5-2.7
			c-2.7,0-4.1,0.7-4.1,2c0,1.3,1,1.6,7,2.2l2.8,0.3c4.7,0.5,7.2,2.7,7.2,6.4c0,4.9-4.6,7.8-12.1,7.8c-8,0-12.1-2.5-12.5-7.9H272.9z"
			/>
		<path class="st2" d="M371.1,66l0.1,0.3l50.1,100.2c1.5,3-3,5.3-4.6,2.3l-45.6-91.2l-45.6,91.2c-1.5,3-6.1,0.8-4.6-2.3l50.1-100.2
			V66z M238.2,78.2c9.6-9.2,22.6-14.8,37-14.8c19.8,0,37.1,10.8,46.4,26.8c1.7,3-2.7,5.5-4.4,2.6c-8.4-14.5-24-24.3-41.9-24.3
			c-14.8,0-28.1,6.7-37,17.2V78.2z M238.2,147.9c8.9,10.5,22.1,17.2,37,17.2c25.8,0,46.9-20.3,48.2-45.8h-48.2c-3.4,0-3.4-5.1,0-5.1
			h53.4v2.6c0,29.5-23.9,53.4-53.4,53.4c-14.3,0-27.4-5.7-36.9-14.8L238.2,147.9z M123.8,167.7V65.9l50.9,50.8l50.1-50.8v101.8
			c0,3.4-5.1,3.4-5.1,0V78.3l-45,45.6l-45.8-45.7v89.5C128.9,171.1,123.8,171.1,123.8,167.7"/>
		<path class="st2" d="M422.3,65.9c-3.3,0-5.6,1.9-5.6,4.8c0,3,2.3,4.8,5.6,4.8H471c3.3,0,5.6-1.9,5.6-4.8c0-3-2.3-4.8-5.6-4.8
			H422.3z"/>
		<path class="st2" d="M422.3,85.3c-3.3,0-5.6,1.9-5.6,4.8s2.3,4.8,5.6,4.8H471c3.3,0,5.6-1.9,5.6-4.8s-2.3-4.8-5.6-4.8H422.3z"/>
		<path class="st2" d="M422.3,104.6c-3.3,0-5.6,1.9-5.6,4.8c0,3,2.3,4.8,5.6,4.8H471c3.3,0,5.6-1.9,5.6-4.8c0-3-2.3-4.8-5.6-4.8
			H422.3z"/>
	</g>
</g>
<g id="Capa_5" class="st0">
	<g class="st1">
		<g>
			<polygon class="st2" points="309.3,57.3 305.4,57.3 305.4,192.7 309.3,192.7 309.3,166.7 358.6,166.7 358.6,150.9 320.6,150.9 
				320.6,132.7 353.1,132.7 353.1,116.7 320.6,116.7 320.6,99.2 358.6,99.2 358.6,83.3 309.3,83.3 			"/>
			<polygon class="st2" points="155.5,134.4 141.5,111.7 123.5,83.6 123.2,83.3 108.4,83.3 108.4,166.7 124.9,166.7 124.9,115.4 
				137.2,135.3 157.1,166.7 172.2,166.7 172.2,83.3 155.5,83.3 			"/>
			<polygon class="st2" points="181.4,166.7 236.1,166.7 236.1,150.9 198,150.9 198,132.7 230.6,132.7 230.6,116.7 198,116.7 
				198,99.2 236.1,99.2 236.1,83.3 181.4,83.3 			"/>
			<polygon class="st2" points="242.8,99.3 262,99.3 262,166.7 278.6,166.7 278.6,99.3 297.5,99.3 297.5,83.3 242.8,83.3 			"/>
			<polygon class="st2" points="414.1,134.6 400.1,111.8 382.1,83.7 381.8,83.4 367,83.4 367,166.9 383.5,166.9 383.5,115.6 
				395.8,135.5 415.7,166.9 430.7,166.9 430.7,83.4 414.1,83.4 			"/>
			<polygon class="st2" points="437.6,83.4 437.6,99.5 456.6,99.5 456.6,166.9 473.3,166.9 473.3,99.5 492.3,99.5 492.3,83.4 			"/>
		</g>
	</g>
</g>
<g id="Capa_6" class="st0">
	<g class="st1">
		<g>
			<path class="st2" d="M201.1,76.9l20.6,29.5l13-17.8l-8.2-11.7H201.1z M215.8,180.7l-8.9,22.4h5.4l1.6-4.3h8.2l1.6,4.3h5.5
				l-8.8-22.4H215.8z M215.4,194.7l1.1-2.9c0.3-0.7,0.5-1.5,0.8-2.2c0.2-0.7,0.5-1.5,0.7-2.2c0.2,0.7,0.4,1.5,0.7,2.2
				c0.3,0.8,0.5,1.5,0.7,2.1l1.1,2.9H215.4z M146.6,149.6h39.9V135h-21.8v-14.5h21.8V106h-21.8V91.4h21.8V76.9h-39.9V149.6z
				 M113.9,120.5L80.5,76.9H62.3v72.7h18.2V106l33.5,43.6h18.2V76.9h-18.2V120.5z M250.8,111.6l-12.8,18l14,20h25.4L250.8,111.6z
				 M172.2,191.5c0-0.4-0.1-0.7-0.1-1h-10.5v4.3h5.4c0,0.7-0.3,1.4-0.7,2c-0.4,0.6-1,1-1.7,1.4c-0.7,0.3-1.5,0.5-2.3,0.5
				c-1.3,0-2.4-0.3-3.4-0.9c-1-0.6-1.8-1.4-2.4-2.5c-0.6-1-0.9-2.2-0.9-3.5s0.3-2.4,0.8-3.5c0.6-1,1.3-1.8,2.3-2.4
				c1-0.6,2.1-0.9,3.3-0.9c1.1,0,2.1,0.2,3,0.6c0.9,0.4,1.7,1,2.5,1.8l3.3-3.5c-0.9-1.1-2.1-2-3.7-2.7c-1.5-0.7-3.2-1-5.1-1
				c-1.8,0-3.4,0.3-4.9,0.9c-1.5,0.6-2.7,1.4-3.8,2.4c-1.1,1-1.9,2.3-2.5,3.7c-0.6,1.4-0.9,2.9-0.9,4.6c0,2.2,0.5,4.2,1.5,6
				c1,1.8,2.3,3.1,4.1,4.1c1.8,1,3.9,1.5,6.3,1.5c2,0,3.8-0.4,5.4-1.3c1.6-0.8,2.8-2,3.7-3.5c0.9-1.5,1.4-3.2,1.4-5.1
				c0-0.2,0-0.5,0-0.9C172.3,192.3,172.2,191.9,172.2,191.5z M372.6,108.4v14.5h13.7c0,0,0.2,10.1-14.5,10.1
				c-16,0-20.8-10.9-21-20.6c-0.2-9.7,5.4-21.8,18.2-21.8c14.7,0,17.8,10.9,17.8,10.9l16.5-6.9c0,0-10.9-21.4-34.3-21.4
				c-30.4,0-36.3,25.3-36.3,40c0,12.2,7.9,37.1,39.1,37.1c35.3,0,32.7-41.2,32.7-41.2L372.6,108.4z M458.9,135h-21.8v-14.5h21.8V106
				h-21.8V91.4h21.8V76.9H419v72.7h39.9V135z M527.9,76.9v43.6l-33.5-43.6h-18.2v72.7h18.2V106l33.5,43.6h18.2V76.9H527.9z
				 M394,186.2c0,1.2,0,2.3,0,3.3c0,1,0.1,1.9,0.1,2.8s0.1,1.8,0.3,2.7L384,180.7h-4.9v22.4h5.3v-7.5c0-0.7,0-1.4,0-2
				c0-0.6-0.1-1.2-0.1-1.9c-0.1-0.7-0.1-1.6-0.2-2.6l10.4,14h4.9v-22.4H394V186.2z M277.4,92.2h18.2v57.4H310V92.2h18.2V76.9h-50.8
				V92.2z M277.2,191.1l-6.4-10.5H266v22.4h5.3v-7c0-1.3,0-2.4,0-3.5c0-1-0.1-2-0.2-2.9l5.1,8h2.1l5.2-8.1c-0.1,1-0.1,2-0.2,3.1
				c0,1.1,0,2.2,0,3.4v7h5.3v-22.4h-4.7L277.2,191.1z M330.5,203.1h6.6v-22.4h-6.6V203.1z M459.6,191.5c0-0.4-0.1-0.7-0.1-1H449v4.3
				h5.4c0,0.7-0.3,1.4-0.7,2c-0.4,0.6-1,1-1.7,1.4c-0.7,0.3-1.5,0.5-2.3,0.5c-1.3,0-2.4-0.3-3.4-0.9c-1-0.6-1.8-1.4-2.4-2.5
				c-0.6-1-0.9-2.2-0.9-3.5s0.3-2.4,0.8-3.5c0.6-1,1.3-1.8,2.3-2.4c1-0.6,2.1-0.9,3.3-0.9c1.1,0,2.1,0.2,3,0.6
				c0.9,0.4,1.7,1,2.5,1.8l3.3-3.5c-0.9-1.1-2.1-2-3.7-2.7c-1.5-0.7-3.2-1-5.1-1c-1.8,0-3.4,0.3-4.9,0.9c-1.5,0.6-2.7,1.4-3.8,2.4
				c-1.1,1-1.9,2.3-2.5,3.7c-0.6,1.4-0.9,2.9-0.9,4.6c0,2.2,0.5,4.2,1.5,6c1,1.8,2.3,3.1,4.1,4.1c1.8,1,3.9,1.5,6.3,1.5
				c2,0,3.8-0.4,5.4-1.3c1.6-0.8,2.8-2,3.7-3.5c0.9-1.5,1.4-3.2,1.4-5.1c0-0.2,0-0.5,0-0.9C459.7,192.3,459.7,191.9,459.6,191.5z"/>
		</g>
	</g>
	<g class="st1">
		<g>
			<polygon class="st3" points="247.5,73.3 196.6,146 219.6,146 270.5,73.3 			"/>
		</g>
	</g>
</g>
<g id="Capa_7">
	<g>
		<g>
			<path class="st4" d="M257.5,140.3c0,4.3-8.1,4.5-8.1,0s0-44.9,0-44.5c0,0.4-10.1,0-10.1,0s0,34.6,0,42.5
				c0,7.9,6.3,14.2,14.2,14.2c7.9,0,14.2-5.4,14.2-12.1c0-6.7,0-46.6,0-46.6h-10.1C257.5,93.7,257.5,135.9,257.5,140.3z M318.2,93.7
				v56.7c0,0,13.3,1.1,20.2-4c6.9-5.2,10.1-15.1,10.1-24.3c0-7.6-2.3-19.1-8.1-24.3C334.6,92.6,318.2,93.7,318.2,93.7z M328.3,138.3
				v-34.4c0,0,9.9-2.1,10.1,18.2C338.6,139.3,328.3,138.3,328.3,138.3z M184.7,85.6c-4.4-7.6-18.1-36.8-18.2-44.5
				c-4.7,0.2-16.2,6.1-16.2,6.1l-22.2-24.3c0,0-14.6-6.1-28.3-14.2C95.3,19.3,91.7,35,91.7,35l-6.1-14.2c0,0-24.4,25.5-24.3,28.3
				c0.2,2.8-8.8,13.7-12.1,20.2s-2.1,18.1,2,30.4c-2.4-3-12.1-8.1-12.1-8.1s6.6,8.6,4.8,16.7c-4.6,20.8,5.4,33.5,17.4,50.1
				c10.7,2,30.5,11.8,34.4,12.1c3.9,0.4,30.2,1.3,30.3,2c0.1,0.8,37-15.4,50.6-20.2c2.2-9.2,12.1-32.4,12.1-32.4h-8.1
				C180.6,120.1,181.7,99,184.7,85.6z M158.4,101.8h-30.3l-2,52.6h-24.3l-2-52.6H69.4V73.5l89-2V101.8z M219.1,122.1l-8.1-2V95.8
				h-12.1l2,56.7H211v-20.2h6.1l2,18.2l10.1,2V97.8h-10.1V122.1z M300,120.1c-0.3,1.9,0.2,2.3-2,2c-5.3-0.8-10.1-26.3-10.1-26.3
				h-12.1l2,56.7h10.1c0,0-0.1-19,0-22.3c2-0.1,3.9,0.1,6.1,4c2.2,3.9,4,18.2,4,18.2h12.1V95.8h-12.1
				C297.9,95.8,300.2,118.2,300,120.1z M502.2,105.9c5.4,0,6.1,6.1,6.1,6.1s5.3,0,10.1,0c-0.4-11.2-5.7-18.2-16.2-18.2
				c-9.7,0-16.2,5.5-16.2,12.1s0,25.2,0,30.4c0,7.9,3.8,18.2,16.2,18.2c12.4,0,16.2-10.2,16.2-20.2c0,0-6.4,0-10.1,0
				c0,3.8-2.4,8.3-6.1,8.1c-3.6-0.2-6.1-3.9-6.1-8.1c0-4.2,0-16.3,0-20.2C496.1,110.1,496.8,105.9,502.2,105.9z M465.8,150.4
				c0,0,12.1-0.8,12.1,0c0,0.8,0-56.7,0-56.7h-12.1V150.4z M411.2,95.8c-6.7-2.9-22.2,0-22.2,0v54.6h10.1v-16.2c0,0,1.8-1.1,4,0
				c2,1,6.1,16.2,6.1,16.2h10.1c0,0-1.7-7.8-4-14.2c-1.6-4.4-4-8.1-4-8.1s7.8-4.1,8.1-14.2C419.5,106,417.4,98.5,411.2,95.8z
				 M399.1,120.1v-14.2c0,0,10-3.9,10.1,6.1C409.3,123.7,399.1,120.1,399.1,120.1z M356.6,152.4h26.3v-8.1h-16.2v-14.2h12.1v-10.1
				h-12.1v-16.2h16.2v-8.1h-26.3V152.4z M447.6,126.1c0,0,4.1-3.6,8.1-10.1c2.6-4.2,2-20.2,2-20.2h-10.1c0,0-0.6,10.4-2,14.2
				c-2.3,6.2-8.1,8.1-8.1,8.1V95.8h-10.1v56.7h10.1v-18.2c0,0,2.8-1.3,6.1,4c3.3,5.3,6.1,14.2,6.1,14.2h10.1c0,0,0.6-8.3-2-14.2
				C455.1,132.4,447.6,126.1,447.6,126.1z M558.8,138.3c-2.6-5.9-10.1-12.1-10.1-12.1s4.1-3.6,8.1-10.1c2.6-4.2,2-20.2,2-20.2h-10.1
				c0,0-0.6,10.4-2,14.2c-2.3,6.2-8.1,8.1-8.1,8.1V95.8h-10.1v56.7h10.1v-18.2c0,0,2.8-1.3,6.1,4s6.1,14.2,6.1,14.2h10.1
				C560.8,152.4,561.4,144.2,558.8,138.3z"/>
		</g>
	</g>
</g>
<g id="Capa_8" class="st0">
	<g class="st1">
		<polygon class="st2" points="96.4,91.1 96.4,137.2 56.5,91.1 43.4,91.1 43.4,158.4 56,158.4 56,110.5 97.4,158.4 109,158.4 
			109,91.1 		"/>
		<polygon class="st2" points="207.8,152.2 196.8,152.2 174.4,100.5 186.9,100.5 202.3,136.5 217.8,100.5 230.3,100.5 		"/>
		<polygon class="st2" points="428,152.2 428,110.4 409.9,110.4 409.9,100.5 457.8,100.5 457.8,110.4 439.7,110.4 439.7,152.2 		"/>
		<rect x="466.4" y="100.5" class="st2" width="11.8" height="51.8"/>
		<path class="st2" d="M394.4,129.7l-7.1-16.6l-7.1,16.6H394.4z M404,152.2l-5.4-12.6H376l-5.4,12.6h-11.7l22.9-51.8h10.9l22.9,51.8
			H404z"/>
		<polygon class="st2" points="341.1,100.5 324.2,131.2 307.4,100.5 295.9,100.5 295.9,152.2 306.2,152.2 306.2,120.1 324.2,152.4 
			342.2,120.1 342.2,152.2 352.6,152.2 352.6,100.5 		"/>
		<path class="st2" d="M146.3,109.7c-2.2,0-4.3,0.4-6.4,1.2c-2.1,0.8-3.9,1.9-5.6,3.3c-1.6,1.4-2.9,3.2-3.9,5.2c-1,2-1.5,4.4-1.5,7
			s0.5,5,1.5,7c1,2,2.3,3.8,3.9,5.2c1.6,1.4,3.5,2.5,5.6,3.3c2.1,0.8,4.2,1.2,6.4,1.2c2.2,0,4.3-0.4,6.4-1.2
			c2.1-0.8,3.9-1.9,5.6-3.3c1.6-1.4,2.9-3.2,3.9-5.2c1-2,1.5-4.4,1.5-7s-0.5-5-1.5-7c-1-2-2.3-3.8-3.9-5.2c-1.6-1.4-3.5-2.5-5.6-3.3
			C150.6,110.1,148.4,109.7,146.3,109.7 M146.3,152.6c-4,0-7.7-0.5-11.2-1.5c-3.5-1-6.6-2.6-9.3-4.8s-4.7-5-6.3-8.3
			c-1.5-3.3-2.3-7.2-2.3-11.7c0-4.4,0.8-8.4,2.3-11.7c1.5-3.3,3.6-6.1,6.3-8.3c2.6-2.2,5.7-3.9,9.2-4.9c3.5-1.1,7.3-1.6,11.2-1.6
			c4,0,7.7,0.6,11.2,1.6c3.5,1.1,6.6,2.8,9.2,4.9c2.6,2.2,4.7,5,6.3,8.3c1.5,3.3,2.3,7.3,2.3,11.7c0,4.4-0.8,8.4-2.3,11.7
			c-1.5,3.3-3.6,6.1-6.3,8.3c-2.6,2.2-5.7,3.8-9.3,4.8C154,152.2,150.2,152.6,146.3,152.6"/>
		<path class="st2" d="M258.6,109.7c-2.2,0-4.3,0.4-6.4,1.2c-2.1,0.8-3.9,1.9-5.6,3.3c-1.6,1.4-2.9,3.2-3.9,5.2c-1,2-1.5,4.4-1.5,7
			s0.5,5,1.5,7c1,2,2.3,3.8,3.9,5.2c1.6,1.4,3.5,2.5,5.6,3.3c2.1,0.8,4.2,1.2,6.4,1.2c2.2,0,4.3-0.4,6.4-1.2
			c2.1-0.8,3.9-1.9,5.6-3.3c1.6-1.4,2.9-3.2,3.9-5.2c1-2,1.5-4.4,1.5-7s-0.5-5-1.5-7c-1-2-2.3-3.8-3.9-5.2c-1.6-1.4-3.5-2.5-5.6-3.3
			C262.9,110.1,260.8,109.7,258.6,109.7 M258.6,152.6c-4,0-7.7-0.5-11.2-1.5c-3.5-1-6.6-2.6-9.3-4.8c-2.6-2.2-4.7-5-6.3-8.3
			c-1.5-3.3-2.3-7.2-2.3-11.7c0-4.4,0.8-8.4,2.3-11.7c1.5-3.3,3.6-6.1,6.3-8.3c2.6-2.2,5.7-3.9,9.2-4.9c3.5-1.1,7.3-1.6,11.2-1.6
			c4,0,7.7,0.6,11.2,1.6c3.5,1.1,6.6,2.8,9.2,4.9c2.6,2.2,4.7,5,6.3,8.3c1.5,3.3,2.3,7.3,2.3,11.7c0,4.4-0.8,8.4-2.3,11.7
			c-1.5,3.3-3.6,6.1-6.3,8.3c-2.6,2.2-5.7,3.8-9.3,4.8C266.3,152.2,262.6,152.6,258.6,152.6"/>
		<path class="st2" d="M525.1,158.8c-5,0-9.8-0.7-14.4-2c-4.6-1.4-8.7-3.5-12.2-6.3c-3.5-2.8-6.3-6.4-8.4-10.7
			c-2.1-4.2-3.1-9.3-3.1-15c0-5.6,1-10.6,3.1-14.9c2.1-4.3,4.9-7.9,8.4-10.8c3.5-2.9,7.6-5.1,12.2-6.5c4.6-1.4,9.4-2.2,14.4-2.2
			c10.1,0,19.5,3.4,25.7,5.9c0.7,0.3,4.8,2.1,4.8,2.1l-6.4,10.6l-0.9-0.6c-6.3-3.8-13.4-6.2-20-6.9c-1.1-0.1-2.2-0.2-3.2-0.2l-0.5,0
			l-0.4,0c-3,0.1-6,0.6-8.7,1.5c-3,1-5.7,2.5-8,4.5c-2.3,2-4.1,4.4-5.4,7.2c-1.3,2.8-2,6.1-2,9.8s0.7,6.9,2,9.8
			c1.3,2.9,3.2,5.3,5.4,7.2c2.3,2,4.9,3.5,8,4.5c3,1,6.3,1.5,9.6,1.5c10.8,0,19.9-5,25.6-9.1l1-0.7l5.7,9.8l-0.9,0.6
			c-7.1,4.6-18,10.1-29.3,10.8C526.5,158.8,525.8,158.8,525.1,158.8"/>
	</g>
</g>
<g id="Capa_9" class="st0">
	<g class="st1">
		<g id="RedTigerLogo_x5F_Red_00000132794164135780330660000009249095840052490638_">
			<path id="_x33__00000130610862338684749750000013435850866604209055_" class="st2" d="M116.3,168.6c0.5-0.7,0.8-1.5,0.9-2.4
				c0.1-0.8,0.1-1.5,1-1.9c1.4-0.5,2.8,0.2,3.9,1.1c0.5,0.4,2.7,3.1,2.7,3.1c-0.5-7.3-7.9-14-19.2-14.6c-1.2-0.1-2.2-0.1-3.3-0.1
				c-1.1,0-2.2,0-3.3,0.1c-11.3,0.6-18.7,7.3-19.2,14.6c0,0,2.1-2.6,2.7-3.1c1.1-0.9,2.5-1.6,3.9-1.1c0.8,0.3,0.9,1.1,1,1.9
				c0.1,0.9,0.4,1.7,0.9,2.4c1.2,1.7,3.3,2.3,5.2,2.8c1.9,0.5,4,0.7,5.9,0.1c0.7-0.3,1.4-0.6,1.9-1.2c0.3-0.3,0.8-0.8,1-0.8
				c0.3,0,0.8,0.6,1,0.8c0.5,0.6,1.2,1,1.9,1.2c1.9,0.7,4,0.4,5.9-0.1C113,170.9,115.1,170.3,116.3,168.6z"/>
			<path id="_x32__00000095333888989461512640000012153382229368399243_" class="st2" d="M156,123.5C156,123.5,156,123.5,156,123.5
				c0,0-0.5,6.7-0.8,10.3c-0.8,9.1-2.7,18.2-9.4,24.8c-2.1,2.1-5.3,2.6-5.3,2.6v0c2.1-4.5,4.6-8.8,6.3-13.4
				c1.8-4.6,2.9-9.4,4.3-14.2c0,0,0,0,0,0c0,0-4.7,1.7-5.7,1.9c0,0,0,0,0,0c0.1-0.9,4.9-18.7,4.9-18.7c0,0,0,0,0,0
				c-0.2,0.3-8.2,17.2-8.5,17.8c-0.1,0.3-0.1,0.6,0.2,0.8c3.3,2.8,2.2,7.9,0.8,9.6c-2,2.4-4.5,4.6-6.1,8.4c-0.7,1.5-1.9,6-1.9,6
				c0,0,0,0,0,0c-0.3-0.1-0.8-9.9,2.2-14.2c1.5-2.2,1.5-8-0.6-9.1c-2.2-1.1-2.5-2.4-1.1-4.5c0,0,0-0.1,0-0.1
				c-6.9-0.6-4.7-7.6-9.9-7.9c0,0,0,0,0,0c1.4-1,3-0.6,4.4,0.2c1.5,0.8,1.4,0.8,2.3,2.2c0.4,0.6,2.3,1.9,3.1,2
				c6.5,1.5,5.9-5.1,5.9-5.1c0,0,0,0,0,0c-3.3-0.2-6.1-1.5-6.3-3.7c0,0,0,0,0,0c1.9-0.1,4.1,0.3,5.5-0.6c1.2-0.8,2.1-3.1,2.1-4.8
				c0,0,0,0,0,0c-3.4,1.5-3.4,1.5-5,0.2c0,0,0,0,0,0c5.1-5.2,9.6-18.1,9.4-22.3c0,0,0,0,0,0c2,1.7,2.4,3.2,2.9,4.3c0,0,0,0,0,0
				c3.5-1.4,6.2-1.9,5.7-6.8h0l-3.9,2c0,0,0,0,0,0c0.2-0.6,0.5-1.2,0.8-1.7c0.5-0.9,1.3-1.5,2-2.3c1.5-1.6,3.1-3.7,3.8-5.7
				c0.4-1.4,0.7-2.8,0.9-4.2c0.2-1.5,0.4-3.1,0.2-4.6c-0.4-2.5-2.3-4.9-5.3-4.4c-1.6,0.3-3.1,1.1-4.5,1.7c-1.7,0.7-3.3,1.4-5,2
				c-1.7,0.6-3.4,1.1-5.1,1.7c-1.9,0.6-10.5,1.2-12.4,1.4c0,0,0,0,0,0l7.3,1.2c0.5,0.1,1.1,0.1,1.6-0.1c1.7-0.5,5.7-1.6,7.3-1.9
				c1.8-0.4,6.7-1.3,8.4,1.2c0,0,0,0,0,0c-1,2.1-4.5,3.6-4.9,4.1c0,0,0,0.1-0.1,0.1c2.8-0.8,4-0.1,4-0.1h0c-2.1,1.9-3.1,3.8-4.3,6.4
				c-1.4,3-2.1,7.2-3.4,10.3c-1.1,2.7-2.6,5.4-4.3,7.8c-1.8,2.6-4,4.4-6.4,5.8c0,0,0,0,0,0c2.4-2.5,4.6-6,6-8.4
				c4.2-8,4.5-16.8,5.2-19.6c0,0,0,0,0,0c-1.9,0.8-6,0.4-6,0.4c0,0,6.6-3,8.5-4c0,0,0,0,0,0c-1-0.6-1.9-0.9-2.8-1
				c-4.3-0.4-6,0.9-8.8,1.3c-1.4,0.2-11.7-3.3-13.8-3.8c0,0,0.1,0,0.2,0c-1.7-0.4-3.4-0.8-5.1-1.1c-0.2,0-0.5-0.1-0.7-0.1
				c-1.5-0.2-3.1-0.4-4.6-0.6c-2-0.2-5.8-0.4-7.3-0.5c-0.4,0-0.9,0-1.3,0c-1.5,0.1-5.3,0.2-7.3,0.5c-1.5,0.2-3.1,0.4-4.6,0.6
				c-0.2,0.1-0.5,0.1-0.7,0.1c-1.7,0.4-3.4,0.7-5.1,1.1c0.1,0,0.2,0,0.2,0c-2.1,0.5-12.3,4-13.8,3.8c-2.8-0.4-4.4-1.8-8.8-1.3
				c-0.9,0.1-1.8,0.4-2.8,1c1.9,1,8.5,4,8.5,4s-4.1,0.5-6-0.4c0.7,2.7,0.9,11.6,5.2,19.6c1.3,2.5,3.6,5.9,6,8.4
				c-2.5-1.4-4.6-3.3-6.4-5.8c-1.7-2.4-3.2-5-4.3-7.8c-1.3-3.1-2-7.3-3.4-10.3c-1.2-2.6-2.3-4.5-4.3-6.4c0,0,1.2-0.6,4,0.1
				c0,0,0-0.1-0.1-0.1c-0.3-0.5-3.9-2-4.9-4.1c1.7-2.5,6.6-1.6,8.4-1.2c1.6,0.3,5.6,1.5,7.3,1.9c0.5,0.1,1,0.2,1.6,0.1l7.3-1.2
				c-1.9-0.2-10.5-0.8-12.4-1.4c-1.7-0.6-3.4-1.1-5.1-1.7c-1.7-0.6-3.4-1.3-5-2c-1.5-0.6-2.9-1.4-4.5-1.7c-3-0.5-5,1.9-5.3,4.4
				c-0.2,1.5,0,3.1,0.2,4.6c0.2,1.4,0.4,2.8,0.9,4.2c0.7,2.1,2.3,4.1,3.8,5.7c0.7,0.8,1.5,1.4,2,2.3c0.3,0.6,0.6,1.1,0.8,1.7l-3.9-2
				c-0.5,4.9,2.2,5.4,5.7,6.8c0.5-1,0.9-2.6,2.9-4.3c-0.2,4.2,4.3,17.1,9.4,22.3c-1.6,1.4-1.6,1.4-5-0.2c0,1.7,0.9,4,2.1,4.8
				c1.3,0.9,3.6,0.5,5.5,0.6c-0.2,2.2-3,3.5-6.3,3.7c0,0-0.6,6.6,5.9,5.1c0.8-0.2,2.6-1.4,3.1-2c0.9-1.3,0.8-1.4,2.3-2.2
				c1.4-0.8,3.1-1.1,4.4-0.2c-5.2,0.3-3,7.2-9.9,7.9c0,0,0,0.1,0,0.1c1.5,2.1,1.2,3.3-1.1,4.5c-2.2,1.1-2.1,7-0.6,9.1
				c3,4.3,2.5,14.1,2.2,14.2c0,0-1.2-4.5-1.9-6c-1.6-3.8-4.1-6-6.1-8.4c-1.4-1.7-2.5-6.8,0.8-9.6c0.2-0.2,0.3-0.6,0.2-0.8
				c-0.3-0.7-8.2-17.6-8.5-17.8c0,0,4.8,17.8,4.9,18.7c-1-0.3-5.7-1.9-5.7-1.9c1.4,4.7,2.5,9.6,4.3,14.2c1.8,4.6,4.2,8.9,6.3,13.4
				c0,0-3.1-0.5-5.3-2.6c-6.7-6.7-8.6-15.7-9.4-24.8c-0.3-3.6-0.8-10.3-0.8-10.3c-0.9,3.4-2,5.9-2.5,9.3c-0.8,5.1-1.4,6.9-0.2,13.9
				c0.1,0.6,0.6,2.7,1,3.2C51.3,157,61,170.9,61,170.9l0.5-4.5c0.5,1.2,6.9,15.4,6.9,15.4c0-3.4-1.7-12.6,1.9-14.2
				c1.2-0.5,2.9,0.7,2.9,2.3c0,1.8,0,5.9,0,5.9c2.7-1.5,3.7-2.3,5.1-2.9c2.1-0.9,6.1-1.8,10.4-0.6c0,0-0.1-0.1-0.2-0.1
				c-2.8-1.8-6.3-2.4-9.5-1.6c-0.6,0.2-1.2,0.3-1.8,0.4c-0.7,0.1-1.2-0.5-1-1.2c0.6-2.2,1.9-6.6,2.3-8.3c0.6-2.5,0.3-4.9,0-7.4
				c-0.7-2.4-2.2-4.3-4.9-4.9c-1-0.2-1.1-1.4-1.3-2.2c-0.2-1.3-0.4-2.6-0.5-3.9c-0.1-3.1,0.4-6.2,1.7-9c0.6-1.4,1.5-2.7,2.5-3.9
				c1.1-1.2,2.3-2,3.6-3c0.1-0.1,0.1-0.1,0.2-0.2c1.1-1,1.1-2,1.1-3.3c0.1-2.7,2.2-3.7,4.6-4.2c-0.5,0.4-1.1,1-1.5,1.6
				c-0.3,0.5-0.3,3.1-0.3,3.8c-0.2,2.6-0.6,3.3-4.5,4.4c3.4,2.7,5.9,4.8,9,7.3c-4.9,1.2-7-2.4-10-4.4c0.2,5.8,6,6.3,8.9,9.2
				c-0.2,0.3-5.5-0.3-9.9-1.8c1.9,4,5.3,3.4,8.1,4.4c-1.3,1.3-4,1.1-5.9,1.5c-0.7,0.1-1.3-0.1-1.9,0.2c0.4,0.7,0.8,1.6,1.4,2
				c1.6,1.1,3.3,2.1,5.1,2.8c0.9,0.4,2.2,0.3,3.2-0.1c3.9-1.4,7.8-2.9,12-4.5c1-0.4,1.7-1.4,1.8-2.5c0-1.5,0.1-3.2-0.1-4.9
				c-0.1-0.9-1.3-1.9-2.2-2.3c-4.3-1.5-8.9-4.7-10.2-7.5c-1-2.2-0.7-8.6-0.7-9.6c0-0.7-0.4-3.3-1.6-5.3c-0.7-1-1.8-1.8-2.5-2.2
				c-1.4-0.8-2.9-1.3-4.5-1.8c-6.6-2.1-9.5-6.5-11.7-11.1c-0.5-1.1-1.2-3.2-1.7-5c-0.3-1,0.3-1.9,1.3-2.1c0.4,1.1,0.6,1.9,1.1,3
				c0.9,1.9,2.2,3,4.6,3c5.4,0,10.7,1,13.7,6.6c0.7,1.3,1.6,2.7,2.6,3.9c-1.7-1.3-2.7-3.1-5-5.5c-3.1-3-6.9-3.2-8.9-3.3
				c-2.8,0-4.3-0.7-4.3-0.7c1,1.8,2.6,2,5.4,2.3c0.3,0,0.7,0.1,1.1,0.2c-0.7,1.6-0.6,3.6,0.6,4.9c1.2,1.3,3.3,1.8,4.8,0.7
				c0.5-0.4,0.9-0.8,1.2-1.4c0.7,0.6,1.4,1.3,2,2.1c3.3,3.7,7.6,3.8,7.6,3.8s-0.6-3.2-1-4.9c2.5-1,1.2-2.6-0.1-4
				c-1.8-2-3.7-3.9-5.6-6c2-0.6,3.4-1.6,4.4-2.4c0,0-4.6,1-8.8,0.7c-0.6,0-1.4-0.5-1.8-1l0,0c3.1-0.6,7.7-2.4,9.3-3.3
				c-5.4-3.3-12-1.6-16.5-3.7c3.8-0.2,6.7-0.6,10.6-1.6c3.3-0.9,9.8-3.5,9.7-3.9h-14c4.4-2,8.3-4.8,13.3-4.7c2.1,0,4.9,0.4,7.4,0.7
				c1.2,0.1,3.1,0.1,4.3,0c2.5-0.2,5.3-0.6,7.4-0.7c5.1-0.1,9,2.7,13.3,4.7c0,0,0,0,0,0h-14l0,0c-0.1,0.4,6.4,3,9.7,3.9
				c3.9,1,6.8,1.4,10.6,1.6c0,0,0,0,0,0c-4.5,2.1-11.1,0.4-16.5,3.7c0,0,0,0,0,0c1.5,0.9,6.2,2.7,9.3,3.3c0,0,0,0,0,0l0,0
				c-0.4,0.5-1.2,0.9-1.8,1c-4.2,0.3-8.8-0.7-8.8-0.7c0,0,0,0,0,0c1,0.9,2.4,1.9,4.4,2.4c0,0,0,0,0,0c-1.9,2.1-3.8,4-5.6,6
				c-1.3,1.5-2.6,3-0.1,4c-0.4,1.6-1,4.9-1,4.9c0,0,4.3-0.1,7.6-3.8c0.7-0.7,1.3-1.4,2-2.1c0,0,0,0,0,0c0.2,0.6,0.7,1,1.2,1.4
				c1.5,1.1,3.6,0.7,4.8-0.7c1.2-1.4,1.3-3.3,0.6-4.9v0c0.4-0.1,0.7-0.2,1.1-0.2c2.8-0.3,4.4-0.5,5.4-2.3c0,0,0,0,0,0
				c0,0-1.4,0.7-4.3,0.7c-2,0-5.8,0.2-8.9,3.3c-2.4,2.3-3.4,4.2-5,5.5c0,0,0,0,0,0c1.1-1.2,1.9-2.5,2.6-3.9c3-5.6,8.2-6.5,13.7-6.6
				c2.4,0,3.7-1.1,4.6-3c0.5-1.2,0.7-1.9,1.1-3l0,0c0.9-0.3,1.7,0.5,1.5,1.4c-0.5,1.9-1.3,4.5-1.9,5.7c-2.3,4.6-5.2,9.1-11.7,11.1
				c-1.5,0.5-3.1,1-4.5,1.8c-0.7,0.4-1.8,1.2-2.5,2.2c-1.2,2-1.6,4.7-1.6,5.3c0,1,0.3,7.4-0.7,9.6c-1.3,2.9-5.9,6-10.2,7.5
				c-0.9,0.3-2.1,1.4-2.2,2.3c-0.2,1.7-0.2,3.3-0.1,4.9c0,1.1,0.7,2.1,1.8,2.5c4.2,1.6,8,3.1,12,4.5c1,0.3,2.3,0.5,3.2,0.1
				c1.8-0.7,3.5-1.7,5.1-2.8c0.6-0.4,0.9-1.3,1.4-2c0,0,0,0,0,0c-0.7-0.3-1.2-0.1-1.9-0.2c-1.9-0.4-4.6-0.2-5.9-1.5c0,0,0,0,0,0
				c2.8-1.1,6.2-0.4,8.1-4.4c0,0,0,0,0,0c-4.3,1.5-9.7,2.1-9.9,1.8c0,0,0,0,0,0c3-2.9,8.7-3.4,8.9-9.2c0,0,0,0,0,0
				c-3,2-5.1,5.6-10,4.4c0,0,0,0,0,0c3-2.5,5.6-4.5,9-7.3c0,0,0,0,0,0c-3.9-1.1-4.3-1.8-4.5-4.4c0-0.7,0-3.2-0.3-3.8
				c-0.4-0.7-0.9-1.2-1.5-1.6c0,0,0,0,0,0c2.4,0.5,4.5,1.6,4.6,4.2c0,1.4,0,2.4,1.1,3.3c0.1,0.1,0.1,0.1,0.2,0.2
				c1.3,1,2.5,1.8,3.6,3c1,1.2,1.9,2.5,2.5,3.9c1.3,2.8,1.8,6,1.7,9c0,1.3-0.2,2.6-0.5,3.9c-0.1,0.8-0.3,2-1.3,2.2
				c-2.7,0.5-4.2,2.5-4.9,4.9c-0.3,2.5-0.6,4.9,0,7.4c0.4,1.7,1.7,6.1,2.3,8.3c0.2,0.6-0.4,1.3-1,1.2c-0.6-0.1-1.2-0.2-1.8-0.4
				c-3.3-0.8-6.7-0.2-9.5,1.6c-0.1,0-0.1,0.1-0.2,0.1c4.3-1.1,8.4-0.3,10.4,0.6c1.3,0.6,2.4,1.4,5.1,2.9l0,0c0,0,0-4.1,0-5.9
				c0-1.6,1.7-2.9,2.9-2.3c3.6,1.6,1.9,10.8,1.9,14.2c0,0,0,0,0,0c0,0,6.4-14.1,6.9-15.3c0,0,0,0,0,0l0.5,4.5c0,0,0,0,0,0
				c0,0,9.7-14,14.2-21.1c0.4-0.6,0.9-2.6,1-3.2c1.2-6.9,0.6-8.8-0.2-13.9C158,129.4,156.9,126.9,156,123.5z"/>
			<path id="_x31__00000140732376131197870260000014103779109025369257_" class="st2" d="M113.7,125.4c0-1.7-1.6-2.5-1.6-2.5
				c-0.2,2.9-3.2,4.2-9.8,4.3c-6.6-0.1-9.7-1.4-9.9-4.3c0,0-1.6,0.8-1.6,2.5c0,1.7,1.8,2.1,2.4,2.3c1.6,0.5,4.1,1.6,9,1.6
				c4.9,0,7.5-1.1,9.1-1.6C111.9,127.5,113.7,127.1,113.7,125.4z"/>
		</g>
		<g id="RedTigerTxt_x5F_Red_00000088814273521961622670000018050558994904930945_">
			<path class="st2" d="M219.4,153.2h-18.2l-13.8-21.7h-0.1v21.7h-14.6V96.8h21.9c5.9,0,10.6,1.4,14.2,4.3c3.6,2.9,5.4,7.2,5.4,13
				c0,4-1.1,7.5-3.3,10.5c-2.2,2.9-5.2,4.8-9.1,5.5L219.4,153.2z M187.2,122.1h1.4c1.3,0,2.6-0.1,3.8-0.3s2.2-0.5,3.2-1
				c1-0.5,1.7-1.2,2.3-2.2c0.6-0.9,0.9-2.1,0.9-3.6s-0.3-2.6-0.9-3.6c-0.6-0.9-1.3-1.7-2.3-2.2c-1-0.5-2-0.8-3.2-1
				c-1.2-0.2-2.4-0.3-3.8-0.3h-1.4V122.1z"/>
			<path class="st2" d="M238,109.2v9.4h16.5v12.4H238v9.7h17.4v12.4h-32.1V96.8h32.1v12.4H238z"/>
			<path class="st2" d="M264.5,96.8h20.8c3.9,0,7.6,0.7,11.1,2.1c3.5,1.4,6.5,3.4,9.2,6c2.6,2.6,4.7,5.6,6.2,9
				c1.5,3.4,2.2,7.1,2.2,11c0,3.9-0.7,7.5-2.2,11c-1.5,3.4-3.6,6.4-6.2,9c-2.6,2.6-5.7,4.6-9.2,6c-3.5,1.4-7.2,2.2-11,2.2h-20.8
				V96.8z M279.1,140.8h3.3c2.2,0,4.3-0.3,6.3-0.9c1.9-0.6,3.7-1.6,5.2-2.9c1.5-1.3,2.7-3,3.5-5c0.8-2,1.3-4.3,1.3-7
				c0-4.9-1.5-8.8-4.4-11.6c-2.9-2.8-6.8-4.2-11.7-4.2h-3.4V140.8z"/>
			<path class="st2" d="M362.4,153.2h-14.6v-43.9h-12.1V96.8h38.9v12.4h-12.1V153.2z"/>
			<path class="st2" d="M394.5,153.2h-14.6V96.8h14.6V153.2z"/>
			<path class="st2" d="M460.2,121.7c-0.1,4.9-0.5,9-1.2,12.4c-0.7,3.4-2.2,6.7-4.5,9.9c-2.7,3.7-6,6.5-10,8.3
				c-4,1.8-8.4,2.7-13.2,2.7c-4.4,0-8.4-0.7-12.1-2.1c-3.7-1.4-6.9-3.5-9.6-6.1c-2.7-2.6-4.8-5.8-6.2-9.5c-1.4-3.7-2.2-7.7-2.2-12.1
				c0-4.5,0.7-8.7,2.2-12.4c1.5-3.7,3.6-6.9,6.3-9.6c2.7-2.7,5.9-4.7,9.7-6.2c3.8-1.4,7.9-2.1,12.4-2.1c5.9,0,11,1.3,15.3,4
				c4.3,2.6,7.7,6.6,10.1,11.8l-13.9,5.8c-1-2.8-2.6-5-4.7-6.6s-4.6-2.4-7.5-2.4c-2.3,0-4.4,0.5-6.2,1.5c-1.8,1-3.4,2.4-4.6,4.1
				c-1.2,1.7-2.2,3.6-2.8,5.8c-0.6,2.1-1,4.3-1,6.5s0.3,4.3,1,6.5c0.7,2.1,1.6,4,2.9,5.7c1.3,1.7,2.8,3,4.7,4c1.9,1,4,1.5,6.3,1.5
				c3.3,0,6-0.8,8.1-2.5c2.1-1.7,3.4-4.1,3.7-7.2h-12v-11.5H460.2z"/>
			<path class="st2" d="M481.6,109.2v9.4h16.5v12.4h-16.5v9.7H499v12.4H467V96.8H499v12.4H481.6z"/>
			<path class="st2" d="M554.9,153.2h-18.2l-13.8-21.7h-0.1v21.7h-14.6V96.8H530c5.9,0,10.6,1.4,14.2,4.3c3.6,2.9,5.4,7.2,5.4,13
				c0,4-1.1,7.5-3.3,10.5c-2.2,2.9-5.2,4.8-9.1,5.5L554.9,153.2z M522.7,122.1h1.4c1.3,0,2.6-0.1,3.8-0.3s2.2-0.5,3.2-1
				c1-0.5,1.7-1.2,2.3-2.2c0.6-0.9,0.9-2.1,0.9-3.6s-0.3-2.6-0.9-3.6c-0.6-0.9-1.3-1.7-2.3-2.2c-1-0.5-2-0.8-3.2-1
				c-1.2-0.2-2.4-0.3-3.8-0.3h-1.4V122.1z"/>
		</g>
	</g>
</g>
<g id="Capa_10" class="st0">
	
		<image style="display:inline;overflow:visible;" width="1696" height="478" xlink:href="../../../../originals/Proveïdors/Games Global/SILVER-EFF-Games-Global-LOGO-white.png"  transform="matrix(0.3557 0 0 0.3557 -3.2979 39.4823)">
	</image>
</g>
<g id="Capa_11" class="st0">
	<g id="layer1_00000123429806177697052980000004696524674387152021_" transform="translate(62.774585,40.805308)" class="st1">
		<g id="g11933_00000099619975523134844560000005099578031353264535_" transform="translate(0.13229239,-0.13229145)">
			<path id="path11125_00000093136018381454742710000015738584344420184227_" class="st2" d="M100.5,69c-0.1-0.2-0.1-0.4-0.2-0.6
				c-4.8-11.8-23.1-15.4-44.2-10l-3.5-2.2C63,51.8,73.4,49.5,82,50.1C95,51.1,101.3,58.4,100.5,69 M81.8,93.8
				c-13.5,17.2-38,29.2-54.6,27.9c-16.6-1.3-19.1-16.2-5.6-33.5c0.3-0.4,0.6-0.7,0.8-1.1l0,21.6c-0.1,5.5,5.2,8.1,9,5.9l49.8-30.3
				c3.9-2.5,3.5-8.2-0.2-10.3L60.8,62.4c5.5-1.6,10.7-2.4,15.3-2.1C92.8,61.6,95.3,76.6,81.8,93.8 M18.5,131
				c-15.3-1.1-21.4-11.2-17.4-24.9c0,2.3,0.3,4.5,1.2,6.5c6,14.7,32.8,16.7,59.8,4.5c0.6-0.2,1.1-0.5,1.7-0.8
				C48.6,126.1,31.6,132,18.5,131 M36.1,54.3l33.4,21.1c2.5,1.5,2.8,5.3,0.1,7L35.9,103c-2.6,1.5-6.2-0.3-6.1-4l-0.2-40.9
				C29.7,54.7,33.1,52.6,36.1,54.3 M113.4,61.9c-7-17.2-36.1-21-67.5-9.9l-14-8.7c-4.3-2.5-9.3,0.5-9.6,5.6l0,14.2
				c-27.1,16.2-42.8,39.6-36.1,56.1c7.8,19,42.5,21.6,77.6,5.8C99,109.2,121.1,80.9,113.4,61.9"/>
			<path id="path11129_00000060004882095471547540000006779567553048208025_" class="st2" d="M141.3,86.7l-3,11.2
				c-0.5,1.7-0.8,3.3-1.1,4.6c-0.3,1.4-0.4,2.4-0.4,3c0,1.2,0.3,2.1,1,2.8c0.7,0.7,1.6,1,2.8,1c1.8,0,3.6-1,5.5-3
				c1.9-2,3.7-4.9,5.5-8.7c2.1-4.8,3.9-9.6,5.2-14.3c1.3-4.7,2-8.4,2-11c0-1.9-0.4-3.4-1.2-4.6c-0.8-1.2-1.8-1.8-2.9-1.8
				c-2.6,0-5,1.7-7.3,5.1C145.2,74.4,143.2,79.6,141.3,86.7 M122.2,60.7c4.7-0.4,9.2-0.9,13.5-1.4c4.3-0.6,8.4-1.2,12.4-2l-3.3,12
				c3.3-4.6,6.5-8,9.6-10.1c3-2.2,6.1-3.2,9.4-3.2c4.4,0,7.9,1.4,10.3,4.2c2.4,2.8,3.6,6.8,3.6,12c0,4.4-0.8,9-2.5,13.8
				c-1.7,4.8-4,9.3-7,13.5c-3.5,4.9-7.1,8.5-11,10.9c-3.9,2.4-8,3.7-12.4,3.7c-1.8,0-3.5-0.2-5.1-0.8c-1.6-0.6-3-1.3-4.3-2.3
				l-3.4,13c-0.2,0.8-0.4,1.6-0.5,2.4c-0.1,0.8-0.2,1.6-0.2,2.4c0,1.6,0.4,2.7,1.4,3.3c0.9,0.6,2.8,1,5.6,1.2v3h-31.9v-3.2
				c0.1,0,0.3,0,0.5-0.1c0.2-0.1,0.4-0.1,0.5-0.1c2,0,3.5-0.5,4.4-1.5c1-1,2-3.7,3.1-8.1l12.7-51.7c0.2-0.8,0.4-1.7,0.5-2.5
				c0.1-0.8,0.2-1.4,0.2-1.8c0-1.4-0.4-2.4-1.3-2.9c-0.9-0.6-2.4-0.8-4.8-0.8L122.2,60.7z"/>
			<path id="path11133_00000183971969620272016210000007707818574422402742_" class="st2" d="M180.7,32.2c4.8-0.4,9.3-0.9,13.7-1.5
				c4.4-0.6,8.6-1.4,12.5-2.2l-17.5,69.3c-0.1,0.4-0.2,0.8-0.4,1.4c-0.2,0.9-0.3,1.5-0.3,1.8c0,0.8,0.2,1.5,0.5,1.9
				c0.3,0.5,0.8,0.7,1.4,0.7c0.6,0,1.3-0.4,2.2-1.3c0.8-0.9,2.4-3.2,4.7-6.9l2.8,2.1c-3.5,5.9-6.9,10.2-10.1,12.8
				c-3.2,2.6-6.5,4-9.9,4c-3,0-5.4-0.8-7.1-2.6c-1.7-1.7-2.5-4.2-2.5-7.4c0-1.6,0.9-5.7,2.5-12.5l0.2-0.7L185.1,46
				c0.1-0.4,0.2-1,0.4-1.8c0.7-3,1.1-4.9,1.1-5.7c0-1.1-0.4-2-1.2-2.5c-0.8-0.5-2-0.8-3.7-0.8h-1L180.7,32.2z"/>
			<path id="path11137_00000140713271303883001770000005895609879811158406_" class="st2" d="M235.6,68.1c0-1.7-0.3-3-1.1-4
				c-0.7-1-1.7-1.5-2.8-1.5c-1.7,0-3.3,0.8-4.8,2.5c-1.6,1.7-3.3,4.4-5.4,8.3c-2.4,4.6-4.3,9.1-5.6,13.5c-1.4,4.5-2.1,8.2-2.1,11.3
				c0,1.9,0.4,3.4,1.1,4.5c0.8,1,1.8,1.6,3.1,1.6c1.9,0,3.8-1.1,5.8-3.4c2-2.3,3.9-5.5,5.6-9.6c1.9-4.6,3.3-9.1,4.5-13.3
				C235,73.7,235.6,70.4,235.6,68.1 M256.7,57.9l-9.3,34.3v0.1c-1.4,5.3-2.1,8.4-2.1,9.2c0,0.8,0.1,1.5,0.5,2
				c0.3,0.5,0.7,0.7,1.2,0.7c1.5,0,3.5-1.8,5.9-5.5c0.7-1,1.3-1.9,1.6-2.4l2.7,2.1c-3,5.4-6.1,9.3-9.2,11.8c-3.1,2.5-6.4,3.8-10,3.8
				c-3,0-5.2-0.7-6.8-2c-1.6-1.4-2.3-3.3-2.3-5.8c0-0.8,0.1-1.7,0.2-2.9c0.1-1.2,0.4-2.7,0.7-4.5c-2.8,5.2-5.9,9-9.2,11.5
				c-3.3,2.5-7,3.8-11.1,3.8c-4.2,0-7.5-1.3-10-3.9c-2.4-2.7-3.7-6.3-3.7-10.8c0-5.3,1.2-10.8,3.5-16.7c2.3-5.8,5.5-11,9.4-15.5
				c3.1-3.6,6.4-6.3,9.7-8.3c3.4-1.9,6.6-2.9,9.7-2.9c3,0,5.3,0.7,7,2.2c1.7,1.5,2.8,3.7,3.4,6.6l1.7-6.9L256.7,57.9z"/>
			<path id="path11141_00000171695413445097570090000002994424143407396751_" class="st2" d="M251.2,62.7v-3.2
				c4.6-0.5,9.2-1.1,13.9-1.8c4.7-0.7,7.2-1.1,7.6-1.1c1.9,0,4.3,8.2,7.3,24.8c1.2,6.6,2.2,11.9,3,15.8c3.5-7.2,6-12.4,7.3-15.7
				c1.3-3.3,1.9-5.7,1.9-7.2c0-1.2-1.1-2.7-3.3-4.3c-2.2-1.7-3.3-3.6-3.3-5.7c0-2.5,0.8-4.5,2.3-6c1.5-1.5,3.5-2.2,6-2.2
				c2.5,0,4.4,0.7,5.8,2.2c1.4,1.5,2.1,3.6,2.1,6.3c0,3.4-1.6,8.8-4.8,16.3c-3.2,7.5-7.6,15.9-13.2,25.3
				c-6.3,10.7-12.1,18.5-17.3,23.5c-5.2,4.9-10.2,7.4-15,7.4c-3.2,0-5.7-0.7-7.5-2.1c-1.8-1.4-2.7-3.4-2.7-5.9
				c0-2.3,0.8-4.1,2.4-5.6c1.6-1.5,3.6-2.2,6-2.2c1.9,0,3.9,0.8,6.1,2.3c2.2,1.5,3.6,2.2,4.4,2.2c1.3,0,2.8-1.1,4.4-3.3
				c1.7-2.2,2.6-4.3,2.6-6.3c0-1.5-0.1-3.3-0.4-5.6c-0.3-2.3-0.7-5-1.2-8.3c-1.1-7-2.2-13.5-3.3-19.2c-1.1-5.8-2.2-10.3-3.1-13.6
				c-0.8-2.9-1.6-4.7-2.4-5.6c-0.8-0.9-2.1-1.3-4-1.3h-0.1C252,62.6,251.6,62.7,251.2,62.7"/>
			<path id="path11145_00000156567084705848183790000002425907771966977696_" class="st2" d="M324.1,98.6c-3.5,5-7,8.8-10.3,11.4
				c-3.3,2.7-6.4,4-9.2,4c-2.2,0-4-0.7-5.3-2.2c-1.3-1.5-1.9-3.4-1.9-5.9c0-0.9,0.1-1.8,0.3-2.9c0.2-1.1,0.4-2.3,0.7-3.6l10-39.3
				h-10.6l1-3.4c4.5-1,8.6-3.2,12.1-6.5c3.5-3.4,6.7-8,9.4-14h3.6l-4.7,19.7h9.7l-1,4.1h-10l-9.6,37.9c-0.2,0.9-0.4,1.6-0.5,2.3
				c-0.1,0.7-0.2,1.3-0.2,1.9c0,1.3,0.3,2.2,0.8,2.9c0.5,0.7,1.3,1,2.3,1c1.3,0,2.7-0.7,4.5-2.3c1.8-1.5,4-4,6.6-7.4L324.1,98.6z"/>
			<path id="path11149_00000008846385955880090270000017558395436423730578_" class="st2" d="M333.9,85.7c7.8-0.4,14.3-2.5,19.6-6.3
				c5.3-3.9,7.9-8.3,7.9-13.2c0-1.7-0.4-2.9-1.3-3.7c-0.8-0.8-2.1-1.2-3.8-1.2c-4.7,0-9.1,2.1-13.1,6.5
				C339.3,72,336.2,78,333.9,85.7 M333,89.9c-0.4,1.4-0.6,2.8-0.8,4.1c-0.2,1.3-0.2,2.4-0.2,3.5c0,3.3,0.8,5.8,2.4,7.5
				c1.6,1.7,4,3,7.1,3c3.1,0,6.6-1.5,10.4-3.5c3.9-2.1,8.3-5.2,13.1-9.5l2.6,3.9c-5.8,5.2-11.2,9.1-16.3,11.5
				c-5.1,2.5-10.1,3.7-15,3.7c-4.8,0-8.6-1.5-11.2-4.3c-2.7-2.9-4-7-4-12.2c0-5.1,1-10.2,3.1-15.4c2.1-5.2,4.9-9.8,8.5-13.9
				c3.5-3.9,7.3-6.8,11.4-8.9c4.2-2,8.4-3.1,12.8-3.1c4,0,7.2,0.9,9.5,2.8c2.3,1.9,3.5,4.4,3.5,7.7c0,5.9-3.4,11-10.2,15.3
				C353,86.4,344,89,333,89.9"/>
			<path id="path11153_00000123416174910897636990000014599203566131330463_" class="st2" d="M409,90.7l-0.2,7.4
				c-3.7,5.4-7.6,9.3-11.9,12c-4.3,2.6-9,4-14.1,4c-5.6,0-10.2-1.9-13.7-5.7c-3.5-3.7-5.2-8.7-5.2-14.9c0-4.5,1-9.2,3-13.9
				c2-4.7,4.7-8.9,8.2-12.7c3.2-3.4,6.8-6,10.8-7.8c4-1.8,8-2.8,12.2-2.8c4.4,0,7.8,1,10.4,3c2.6,2,3.9,4.6,3.9,8c0,2-0.7,3.7-2,5.1
				c-1.3,1.4-2.9,2.1-4.8,2.1c-1.5,0-2.7-0.5-3.7-1.5c-0.9-1-1.4-2.3-1.4-3.9c0-1.1,0.4-2.4,1.1-3.9c0.7-1.5,1.1-2.4,1.1-2.7
				c0-0.7-0.4-1.2-1.1-1.7c-0.8-0.4-1.8-0.6-3.1-0.6c-2.7,0-5.4,0.8-8.2,2.5c-2.8,1.7-5.2,4-7.3,7c-2.5,3.6-4.5,7.4-5.9,11.4
				c-1.4,4-2,7.9-2,11.7c0,4.4,1.1,7.8,3.3,10.4c2.2,2.5,5.2,4.3,9,4.3c3,0,5.9-1.4,8.8-3.3C398.9,102.5,403.8,98.7,409,90.7"/>
			<path id="path11157_00000173842853978711491820000012787329808350841766_" class="st2" d="M402.4,114.1l19.8-71.7
				c0.1-0.4,0.2-0.9,0.2-1.4c0.1-0.4,0.1-0.9,0.1-1.3c0-1.3-0.3-2.2-0.9-2.6c-0.6-0.4-2.4-0.7-5.4-0.7h-4.5l0.7-3.3
				c3.6-0.1,7-0.6,10.2-1.2c3.1-0.7,6.1-1.5,8.9-2.6h3.6L421.4,79c7-7.1,13.5-12.7,19.3-16.7c5.9-3.9,10.5-5.9,14-5.9
				c1.8,0,3.2,0.4,4.1,1.3c0.9,0.9,1.3,2.3,1.3,4.1c0,0.6-0.1,1.3-0.3,2.1c-0.2,0.9-0.4,1.8-0.6,2.8l-10,33.7
				c-0.2,0.6-0.3,1.4-0.5,2.2c-0.1,0.8-0.2,1.5-0.2,2.3c0,0.4,0.2,0.8,0.6,1.2c0.4,0.3,0.8,0.9,1.3,0.9c1,0,2.3-1.1,4.1-2.4
				c1.7-1.3,3.5-3.1,5.4-5.4l2,1.7c-3.4,4.3-6.8,7.6-9.9,9.8c-3.2,2.3-6.1,3.4-8.8,3.4c-1.8,0-3.1-0.4-4.2-1.3c-1-0.9-1.5-2-1.5-3.5
				c0-0.5,0-1.1,0.2-1.7c0.1-0.6,0.3-1.3,0.5-2l10.3-34.9c0.2-0.8,0.3-1.3,0.4-1.7c0.1-0.4,0.1-0.8,0.1-1.1c0-0.9-0.2-1.6-0.8-2
				c-0.5-0.4-1.2-0.7-2.1-0.7c-1.5,0-3.6,0.9-6.5,2.8c-2.9,1.8-6.1,4.5-9.9,7.9c-3.4,3-5.8,5.6-7.4,7.7c-1.6,2.1-2.7,4.3-3.4,6.6
				l-6.8,24.1c-0.8-0.1-3.5-0.2-4.3-0.3c-0.8-0.1,0.4-0.1-0.5-0.1c-0.8,0-1.7,0-2.5,0.1C404,113.9,403.2,114,402.4,114.1"/>
			<path id="path11161_00000137131844426195425060000006987996131090419109_" class="st2" d="M284.9,133.9v0.9c0,0.5,0,0.9,0.2,1.3
				c0.3,1.1,1.2,1.7,2.8,1.7c0.6,0,1.1-0.1,1.6-0.2c1.1-0.3,1.6-1.1,1.6-2.4c0-0.9-0.4-1.5-1.1-2c-0.5-0.3-1.1-0.6-1.8-1l-2.1-0.9
				c-0.8-0.4-1.5-0.7-2-1.1c-1.1-0.8-1.7-1.9-1.7-3.4c0-1.6,0.7-2.8,1.9-3.5c0.9-0.5,2.2-0.8,3.9-0.8c2,0,3.4,0.4,4.3,1.1
				c0.7,0.6,1.1,1.8,1.1,3.6v0.3h-2.8v-0.4l-0.1-0.9c-0.2-1.3-1-1.9-2.5-1.9c-1.9,0-2.9,0.8-2.9,2.3c0,1,0.6,1.8,1.8,2.4
				c0.7,0.4,1.6,0.8,2.5,1.2c0.9,0.4,1.7,0.8,2.3,1.1c1.4,0.8,2.1,2.1,2.1,3.8c0,3-2,4.6-6.1,4.6c-1.7,0-3.1-0.3-4-0.9
				c-1.1-0.7-1.7-1.7-1.8-3l0-1.3v-0.7L284.9,133.9z"/>
			<path id="path11165_00000055709196718773605730000011368925847362561181_" class="st2" d="M295.8,128.1c0-1.4,0.1-2.4,0.4-3
				c0.4-1,1.2-1.7,2.5-2.2c0.9-0.3,1.9-0.5,3-0.5c1.1,0,2.1,0.2,3,0.5c1.3,0.4,2.1,1.1,2.5,2.2c0.2,0.6,0.4,1.6,0.4,3v5.6
				c0,1-0.1,1.9-0.2,2.6c-0.3,2.2-2.2,3.3-5.6,3.3c-2.5,0-4.2-0.5-5-1.6c-0.6-0.8-1-2.3-1-4.4L295.8,128.1z M298.7,133.7
				c0,1.4,0.1,2.3,0.3,2.7c0.2,0.4,0.6,0.8,1.1,1c0.5,0.2,1.1,0.4,1.7,0.4c0.5,0,1-0.1,1.5-0.3c0.9-0.4,1.4-1,1.5-1.9
				c0-0.5,0.1-1.1,0.1-1.9v-5.6c0-1.2-0.1-2.1-0.4-2.6c-0.4-0.8-1.3-1.2-2.6-1.2c-0.5,0-1,0.1-1.4,0.2c-0.9,0.3-1.4,1-1.6,1.9
				c-0.1,0.4-0.1,1-0.1,1.5V133.7z"/>
			<path id="path11169_00000181071837286253064270000007899376189483625610_" class="st2" d="M310.2,122.7h2.8v11.2l0,1.5
				c0.1,1.6,1,2.4,2.8,2.5c1.8,0,2.8-0.8,2.9-2.3c0.1-0.5,0.1-1.1,0.1-1.6v-11.2h2.8v11.3c0,0.9,0,1.6-0.1,2.2
				c-0.1,0.8-0.4,1.4-0.9,2c-1,1-2.6,1.5-4.8,1.5c-2.2,0-3.8-0.5-4.8-1.5c-0.5-0.6-0.9-1.2-0.9-2c0-0.5-0.1-1.2-0.1-2.2L310.2,122.7
				z"/>
			<path id="path11173_00000001644510975449912540000011252921152146855596_" class="st2" d="M329.2,122.7h1.7
				c0.7,0,1.3,0.1,1.8,0.2c2.1,0.3,3.2,1.7,3.2,4c0,1.2-0.3,2.2-0.8,2.8c-0.5,0.6-1.6,1-3.1,1.2v0c1,0.1,1.7,0.2,2.1,0.4
				c0.6,0.3,1,0.8,1.1,1.5c0.1,0.4,0.2,1,0.2,1.5l0.1,2c0,0.7,0.1,1.3,0.2,1.8c0.1,0.3,0.2,0.8,0.4,1.3h-3l-0.3-1.1
				c-0.1-0.3-0.1-0.7-0.2-1.2l-0.1-1.5l-0.1-1.6c-0.1-1.2-0.7-1.9-1.7-2.2c-0.4-0.1-0.9-0.1-1.5-0.1h-2v7.6h-2.8v-16.7L329.2,122.7z
				 M327.3,124.6v5.4h2c0.6,0,1.1,0,1.6-0.1c0.9-0.1,1.5-0.5,1.8-1.1c0.2-0.4,0.3-1,0.3-1.9c0-0.9-0.3-1.6-1-1.9
				c-0.5-0.3-1.3-0.4-2.6-0.4L327.3,124.6z"/>
			<path id="path11177_00000021102932336613198790000003369106155419087747_" class="st2" d="M346.6,127.1l0-0.8
				c-0.1-1.3-0.9-2-2.4-2c-1.4,0-2.2,0.4-2.6,1.1c-0.2,0.3-0.3,0.7-0.4,1l0,1.4v6.6c0,1.2,0.1,2,0.3,2.3c0.5,0.7,1.3,1.1,2.4,1.1
				c1.5,0,2.4-0.7,2.5-2.1l0.1-1.1V134h2.8v0.6l0,1c-0.1,1.2-0.5,2.2-1.3,2.9c-0.5,0.4-1,0.7-1.7,0.9c-0.8,0.2-1.6,0.3-2.5,0.3
				c-0.8,0-1.5-0.1-2.2-0.2c-2.3-0.4-3.5-2-3.5-4.7v-6.7c0-0.7,0-1.4,0.1-2c0.1-0.8,0.4-1.4,0.8-1.9c0.9-1.1,2.5-1.7,4.9-1.7
				c3.3,0,5,1.1,5.3,3.1c0,0.4,0.1,0.8,0.1,1.3v0.6h-2.8L346.6,127.1z"/>
			<path id="path11181_00000108301445538768773190000002500536293399726209_" class="st2" d="M351.9,122.7h9.3v1.9h-6.5v5.3h6.1v1.9
				h-6.1v5.8h6.6v1.9h-9.5L351.9,122.7z"/>
			<path id="path11193_00000052815416043167971080000008508770107389254801_" class="st2" d="M368.7,128.1c0-1.4,0.1-2.4,0.4-3
				c0.4-1,1.2-1.7,2.5-2.2c0.9-0.3,1.9-0.5,3-0.5c1.1,0,2.1,0.2,3,0.5c1.3,0.4,2.1,1.1,2.5,2.2c0.2,0.6,0.4,1.6,0.4,3v5.6
				c0,1-0.1,1.9-0.2,2.6c-0.3,2.2-2.2,3.3-5.7,3.3c-2.5,0-4.2-0.5-5-1.6c-0.6-0.8-1-2.3-1-4.4L368.7,128.1z M371.6,133.7
				c0,1.4,0.1,2.3,0.3,2.7c0.2,0.4,0.6,0.8,1.1,1c0.5,0.2,1.1,0.4,1.7,0.4c0.5,0,1-0.1,1.5-0.3c0.9-0.4,1.4-1,1.5-1.9
				c0.1-0.5,0.1-1.1,0.1-1.9v-5.6c0-1.2-0.1-2.1-0.4-2.6c-0.5-0.8-1.3-1.2-2.7-1.2c-0.5,0-1,0.1-1.4,0.2c-0.9,0.3-1.4,1-1.5,1.9
				c-0.1,0.4-0.1,1-0.1,1.5L371.6,133.7z"/>
			<path id="path11197_00000026160474539761153330000011397195984293264553_" class="st2" d="M392.2,122.7v1.9H386v5.3h6v1.9h-6v7.7
				h-2.8v-16.7H392.2z"/>
			<path id="path11209_00000127036309466996291390000007615249390686023298_" class="st2" d="M401.6,133.9v0.9c0,0.5,0,0.9,0.2,1.3
				c0.3,1.1,1.2,1.7,2.8,1.7c0.6,0,1.1-0.1,1.6-0.2c1.1-0.3,1.6-1.1,1.6-2.4c0-0.9-0.4-1.5-1.1-2c-0.5-0.3-1.1-0.6-1.8-1l-2.1-0.9
				c-0.8-0.4-1.5-0.7-2.1-1.1c-1.1-0.8-1.7-1.9-1.7-3.4c0-1.6,0.7-2.8,1.9-3.5c0.9-0.5,2.2-0.8,3.9-0.8c2,0,3.4,0.4,4.3,1.1
				c0.7,0.6,1,1.8,1,3.6v0.3h-2.8v-0.4l-0.1-0.9c-0.2-1.3-1-1.9-2.5-1.9c-1.9,0-2.9,0.8-2.9,2.3c0,1,0.6,1.8,1.8,2.4
				c0.7,0.4,1.6,0.8,2.5,1.2c0.9,0.4,1.7,0.8,2.3,1.1c1.4,0.8,2.1,2.1,2.1,3.8c0,3-2.1,4.6-6.1,4.6c-1.7,0-3.1-0.3-4-0.9
				c-1.1-0.7-1.7-1.7-1.8-3l0-1.3v-0.7L401.6,133.9z"/>
			<path id="path11213_00000177448030885687607270000014231338118663440543_" class="st2" d="M412.6,122.7h2.8v11.2l0,1.5
				c0.1,1.6,1.1,2.4,2.8,2.5c1.8,0,2.8-0.8,3-2.3c0.1-0.5,0.1-1.1,0.1-1.6v-11.2h2.8v11.3c0,0.9,0,1.6-0.1,2.2
				c-0.1,0.8-0.4,1.4-0.9,2c-1,1-2.6,1.5-4.8,1.5c-2.2,0-3.8-0.5-4.8-1.5c-0.5-0.6-0.8-1.2-0.9-2c0-0.5-0.1-1.2-0.1-2.2L412.6,122.7
				z"/>
			<path id="path11217_00000036933130607979748250000012263046298066979237_" class="st2" d="M435.3,127.1l0-0.8
				c-0.1-1.3-0.9-2-2.4-2c-1.4,0-2.2,0.4-2.6,1.1c-0.2,0.3-0.3,0.7-0.4,1l0,1.4v6.6c0,1.2,0.1,2,0.4,2.3c0.5,0.7,1.3,1.1,2.4,1.1
				c1.5,0,2.4-0.7,2.6-2.1l0.1-1.1V134h2.8v0.6l0,1c-0.1,1.2-0.5,2.2-1.3,2.9c-0.5,0.4-1,0.7-1.7,0.9c-0.8,0.2-1.6,0.3-2.5,0.3
				c-0.8,0-1.5-0.1-2.2-0.2c-2.3-0.4-3.5-2-3.5-4.7v-6.7c0-0.7,0-1.4,0.1-2c0.1-0.8,0.3-1.4,0.8-1.9c0.9-1.1,2.5-1.7,4.9-1.7
				c3.3,0,5,1.1,5.3,3.1c0,0.4,0.1,0.8,0.1,1.3v0.6h-2.8L435.3,127.1z"/>
			<path id="path11221_00000147938488590781574960000011046781459451704738_" class="st2" d="M449,127.1l0-0.8c-0.1-1.3-0.9-2-2.4-2
				c-1.4,0-2.2,0.4-2.6,1.1c-0.2,0.3-0.3,0.7-0.4,1l0,1.4v6.6c0,1.2,0.1,2,0.3,2.3c0.5,0.7,1.3,1.1,2.4,1.1c1.5,0,2.4-0.7,2.6-2.1
				l0.1-1.1V134h2.8v0.6l0,1c-0.1,1.2-0.5,2.2-1.3,2.9c-0.5,0.4-1,0.7-1.7,0.9c-0.7,0.2-1.6,0.3-2.5,0.3c-0.8,0-1.5-0.1-2.2-0.2
				c-2.3-0.4-3.5-2-3.5-4.7v-6.7c0-0.7,0-1.4,0.1-2c0.1-0.8,0.3-1.4,0.8-1.9c0.9-1.1,2.5-1.7,4.9-1.7c3.3,0,5,1.1,5.3,3.1
				c0,0.4,0.1,0.8,0.1,1.3v0.6H449L449,127.1z"/>
			<path id="path11225_00000099636623716866069100000000731812202074261944_" class="st2" d="M454.3,122.7h9.3v1.9h-6.4v5.3h6v1.9
				h-6v5.8h6.6v1.9h-9.5V122.7z"/>
			<path id="path11237_00000057109618465127806300000014577270453239187094_" class="st2" d="M468,133.9v0.9c0,0.5,0,0.9,0.2,1.3
				c0.3,1.1,1.2,1.7,2.8,1.7c0.6,0,1.1-0.1,1.6-0.2c1.1-0.3,1.6-1.1,1.7-2.4c0-0.9-0.4-1.5-1.1-2c-0.5-0.3-1.1-0.6-1.8-1l-2.1-0.9
				c-0.8-0.4-1.5-0.7-2-1.1c-1.1-0.8-1.7-1.9-1.7-3.4c0-1.6,0.6-2.8,1.9-3.5c0.9-0.5,2.2-0.8,3.9-0.8c2,0,3.4,0.4,4.3,1.1
				c0.7,0.6,1,1.8,1,3.6v0.3h-2.8v-0.4l-0.1-0.9c-0.2-1.3-1-1.9-2.5-1.9c-1.9,0-2.9,0.8-2.9,2.3c0,1,0.6,1.8,1.8,2.4
				c0.7,0.4,1.6,0.8,2.5,1.2c0.9,0.4,1.7,0.8,2.3,1.1c1.4,0.8,2.1,2.1,2.1,3.8c0,3-2,4.6-6.1,4.6c-1.7,0-3.1-0.3-4-0.9
				c-1.1-0.7-1.7-1.7-1.8-3l-0.1-1.3v-0.7L468,133.9z"/>
			<path id="path11241_00000156571438394194730240000017400763166973706678_" class="st2" d="M481.2,133.9v0.9c0,0.5,0,0.9,0.2,1.3
				c0.3,1.1,1.2,1.7,2.8,1.7c0.6,0,1.1-0.1,1.6-0.2c1.1-0.3,1.6-1.1,1.7-2.4c0-0.9-0.4-1.5-1.1-2c-0.5-0.3-1.1-0.6-1.8-1l-2.1-0.9
				c-0.8-0.4-1.5-0.7-2-1.1c-1.1-0.8-1.7-1.9-1.7-3.4c0-1.6,0.7-2.8,1.9-3.5c0.9-0.5,2.2-0.8,3.9-0.8c2,0,3.4,0.4,4.3,1.1
				c0.7,0.6,1.1,1.8,1.1,3.6v0.3H487v-0.4l-0.1-0.9c-0.2-1.3-1-1.9-2.5-1.9c-1.9,0-2.9,0.8-2.9,2.3c0,1,0.6,1.8,1.8,2.4
				c0.7,0.4,1.6,0.8,2.5,1.2c0.9,0.4,1.7,0.8,2.3,1.1c1.4,0.8,2.1,2.1,2.1,3.8c0,3-2.1,4.6-6.1,4.6c-1.7,0-3-0.3-4-0.9
				c-1.1-0.7-1.7-1.7-1.8-3l-0.1-1.3v-0.7L481.2,133.9z"/>
		</g>
	</g>
</g>
</svg>
